<?xml version="1.0" encoding="UTF-8"?>
<svg xmlns="http://www.w3.org/2000/svg" xmlns:xlink="http://www.w3.org/1999/xlink"
     width="600" height="600" viewBox="-250 -350 600 600" stroke="black" fill="none">
<defs>
<path d="M-100,-200 L200,100" fill="none" stroke="black" id="d0" />
<path d="M100.0,-0.0 L99.80267284282715,-6.279051952931337 L99.21147013144778,-12.533323356430426 L98.22872507286887,-18.738131458572465 L96.85831611286311,-24.86898871648548 L95.10565162951536,-30.901699437494745 L92.97764858882515,-36.8124552684678 L90.48270524660195,-42.577929156507274 L87.63066800438637,-48.17536741017153 L84.43279255020151,-53.58267949789967 L80.90169943749474,-58.778525229247315 L77.05132427757891,-63.742398974868976 L72.89686274214115,-68.45471059286888 L68.45471059286886,-72.89686274214115 L63.74239897486897,-77.05132427757894 L58.77852522924731,-80.90169943749476 L53.582679497899655,-84.43279255020151 L48.17536741017152,-87.63066800438637 L42.57792915650727,-90.48270524660195 L36.81245526846779,-92.97764858882515 L30.90169943749475,-95.10565162951536 L24.86898871648548,-96.85831611286312 L18.73813145857245,-98.22872507286887 L12.533323356430426,-99.21147013144778 L7.047270946447391,-99.73005476749935" fill="none" stroke="black" id="d1" />
<path d="M-150.0,154.0 L-150.0,254.0" id="d2" />
<path d="M-130.0,154.0 L-130.0,254.0" id="d3" />
<path d="M-110.0,154.0 L-110.0,254.0" id="d4" />
<path d="M-90.0,154.0 L-90.0,254.0" id="d5" />
<path d="M-70.0,154.0 L-70.0,254.0" id="d6" />
<path d="M-50.0,154.0 L-50.0,254.0" id="d7" />
<path d="M-30.0,154.0 L-30.0,254.0" id="d8" />
<path d="M-10.0,154.0 L-10.0,254.0" id="d9" />
<path d="M10.0,154.0 L10.0,254.0" id="d10" />
<path d="M30.0,154.0 L30.0,254.0" id="d11" />
<path d="M50.0,154.0 L50.0,254.0" id="d12" />
<path d="M70.0,154.0 L70.0,254.0" id="d13" />
<path d="M90.0,154.0 L90.0,254.0" id="d14" />
<path d="M110.0,154.0 L110.0,254.0" id="d15" />
<path d="M130.0,154.0 L130.0,254.0" id="d16" />
<path d="M150.0,154.0 L150.0,254.0" id="d17" />
<path d="M170.0,154.0 L170.0,254.0" id="d18" />
<path d="M190.0,154.0 L190.0,254.0" id="d19" />
<path d="M210.0,154.0 L210.0,254.0" id="d20" />
<path d="M230.0,154.0 L230.0,254.0" id="d21" />
<path d="M254.0,150.0 L354.0,150.0" id="d22" />
<path d="M254.0,130.0 L354.0,130.0" id="d23" />
<path d="M254.0,110.0 L354.0,110.0" id="d24" />
<path d="M254.0,90.0 L354.0,90.0" id="d25" />
<path d="M254.0,70.0 L354.0,70.0" id="d26" />
<path d="M254.0,50.0 L354.0,50.0" id="d27" />
<path d="M254.0,30.0 L354.0,30.0" id="d28" />
<path d="M254.0,10.0 L354.0,10.0" id="d29" />
<path d="M254.0,-10.0 L354.0,-10.0" id="d30" />
<path d="M254.0,-30.0 L354.0,-30.0" id="d31" />
<path d="M254.0,-50.0 L354.0,-50.0" id="d32" />
<path d="M254.0,-70.0 L354.0,-70.0" id="d33" />
<path d="M254.0,-90.0 L354.0,-90.0" id="d34" />
<path d="M254.0,-110.0 L354.0,-110.0" id="d35" />
<path d="M254.0,-130.0 L354.0,-130.0" id="d36" />
<path d="M254.0,-150.0 L354.0,-150.0" id="d37" />
<path d="M254.0,-170.0 L354.0,-170.0" id="d38" />
<path d="M254.0,-190.0 L354.0,-190.0" id="d39" />
<path d="M254.0,-210.0 L354.0,-210.0" id="d40" />
<path d="M254.0,-230.0 L354.0,-230.0" id="d41" />
</defs>
<g>
<path d="M-100,-200 L200,100" fill="none" stroke="black" />
<text font-size="12" stroke="none" fill="#000000"><textPath xlink:href="#d0" startOffset="10">
<tspan dy="-1em">a simple shape</tspan>
</textPath></text>
</g>
<g>
<path d="M100.0,-0.0 L99.80267284282715,-6.279051952931337 L99.21147013144778,-12.533323356430426 L98.22872507286887,-18.738131458572465 L96.85831611286311,-24.86898871648548 L95.10565162951536,-30.901699437494745 L92.97764858882515,-36.8124552684678 L90.48270524660195,-42.577929156507274 L87.63066800438637,-48.17536741017153 L84.43279255020151,-53.58267949789967 L80.90169943749474,-58.778525229247315 L77.05132427757891,-63.742398974868976 L72.89686274214115,-68.45471059286888 L68.45471059286886,-72.89686274214115 L63.74239897486897,-77.05132427757894 L58.77852522924731,-80.90169943749476 L53.582679497899655,-84.43279255020151 L48.17536741017152,-87.63066800438637 L42.57792915650727,-90.48270524660195 L36.81245526846779,-92.97764858882515 L30.90169943749475,-95.10565162951536 L24.86898871648548,-96.85831611286312 L18.73813145857245,-98.22872507286887 L12.533323356430426,-99.21147013144778 L7.047270946447391,-99.73005476749935" fill="none" stroke="black" />
<text font-size="12" stroke="none" fill="#000000"><textPath xlink:href="#d1" startOffset="10">
<tspan dy="-1em">replacement</tspan>
</textPath></text>
</g>
<g>
<g>
<path d="M-150,150 L250,150" fill="none" stroke="#999999" />
</g>
<path d="M-150.0,150.0 L-150.0,153.0" stroke="#999999" />
<text font-size="12" stroke="none" fill="#999999"><textPath xlink:href="#d2">
<tspan dy="0em">0mm</tspan>
</textPath></text>
<path d="M-130.0,150.0 L-130.0,153.0" stroke="#999999" />
<text font-size="12" stroke="none" fill="#999999"><textPath xlink:href="#d3">
<tspan dy="0em">20mm</tspan>
</textPath></text>
<path d="M-110.0,150.0 L-110.0,153.0" stroke="#999999" />
<text font-size="12" stroke="none" fill="#999999"><textPath xlink:href="#d4">
<tspan dy="0em">40mm</tspan>
</textPath></text>
<path d="M-90.0,150.0 L-90.0,153.0" stroke="#999999" />
<text font-size="12" stroke="none" fill="#999999"><textPath xlink:href="#d5">
<tspan dy="0em">60mm</tspan>
</textPath></text>
<path d="M-70.0,150.0 L-70.0,153.0" stroke="#999999" />
<text font-size="12" stroke="none" fill="#999999"><textPath xlink:href="#d6">
<tspan dy="0em">80mm</tspan>
</textPath></text>
<path d="M-50.0,150.0 L-50.0,153.0" stroke="#999999" />
<text font-size="12" stroke="none" fill="#999999"><textPath xlink:href="#d7">
<tspan dy="0em">100mm</tspan>
</textPath></text>
<path d="M-30.0,150.0 L-30.0,153.0" stroke="#999999" />
<text font-size="12" stroke="none" fill="#999999"><textPath xlink:href="#d8">
<tspan dy="0em">120mm</tspan>
</textPath></text>
<path d="M-10.0,150.0 L-10.0,153.0" stroke="#999999" />
<text font-size="12" stroke="none" fill="#999999"><textPath xlink:href="#d9">
<tspan dy="0em">140mm</tspan>
</textPath></text>
<path d="M10.0,150.0 L10.0,153.0" stroke="#999999" />
<text font-size="12" stroke="none" fill="#999999"><textPath xlink:href="#d10">
<tspan dy="0em">160mm</tspan>
</textPath></text>
<path d="M30.0,150.0 L30.0,153.0" stroke="#999999" />
<text font-size="12" stroke="none" fill="#999999"><textPath xlink:href="#d11">
<tspan dy="0em">180mm</tspan>
</textPath></text>
<path d="M50.0,150.0 L50.0,153.0" stroke="#999999" />
<text font-size="12" stroke="none" fill="#999999"><textPath xlink:href="#d12">
<tspan dy="0em">200mm</tspan>
</textPath></text>
<path d="M70.0,150.0 L70.0,153.0" stroke="#999999" />
<text font-size="12" stroke="none" fill="#999999"><textPath xlink:href="#d13">
<tspan dy="0em">220mm</tspan>
</textPath></text>
<path d="M90.0,150.0 L90.0,153.0" stroke="#999999" />
<text font-size="12" stroke="none" fill="#999999"><textPath xlink:href="#d14">
<tspan dy="0em">240mm</tspan>
</textPath></text>
<path d="M110.0,150.0 L110.0,153.0" stroke="#999999" />
<text font-size="12" stroke="none" fill="#999999"><textPath xlink:href="#d15">
<tspan dy="0em">260mm</tspan>
</textPath></text>
<path d="M130.0,150.0 L130.0,153.0" stroke="#999999" />
<text font-size="12" stroke="none" fill="#999999"><textPath xlink:href="#d16">
<tspan dy="0em">280mm</tspan>
</textPath></text>
<path d="M150.0,150.0 L150.0,153.0" stroke="#999999" />
<text font-size="12" stroke="none" fill="#999999"><textPath xlink:href="#d17">
<tspan dy="0em">300mm</tspan>
</textPath></text>
<path d="M170.0,150.0 L170.0,153.0" stroke="#999999" />
<text font-size="12" stroke="none" fill="#999999"><textPath xlink:href="#d18">
<tspan dy="0em">320mm</tspan>
</textPath></text>
<path d="M190.0,150.0 L190.0,153.0" stroke="#999999" />
<text font-size="12" stroke="none" fill="#999999"><textPath xlink:href="#d19">
<tspan dy="0em">340mm</tspan>
</textPath></text>
<path d="M210.0,150.0 L210.0,153.0" stroke="#999999" />
<text font-size="12" stroke="none" fill="#999999"><textPath xlink:href="#d20">
<tspan dy="0em">360mm</tspan>
</textPath></text>
<path d="M230.0,150.0 L230.0,153.0" stroke="#999999" />
<text font-size="12" stroke="none" fill="#999999"><textPath xlink:href="#d21">
<tspan dy="0em">380mm</tspan>
</textPath></text>
</g>
<g>
<g>
<path d="M250,150 L250,-250" fill="none" stroke="#999999" />
</g>
<path d="M250.0,150.0 L253.0,150.0" stroke="#999999" />
<text font-size="12" stroke="none" fill="#999999"><textPath xlink:href="#d22">
<tspan dy="0em">0mm</tspan>
</textPath></text>
<path d="M250.0,130.0 L253.0,130.0" stroke="#999999" />
<text font-size="12" stroke="none" fill="#999999"><textPath xlink:href="#d23">
<tspan dy="0em">20mm</tspan>
</textPath></text>
<path d="M250.0,110.0 L253.0,110.0" stroke="#999999" />
<text font-size="12" stroke="none" fill="#999999"><textPath xlink:href="#d24">
<tspan dy="0em">40mm</tspan>
</textPath></text>
<path d="M250.0,90.0 L253.0,90.0" stroke="#999999" />
<text font-size="12" stroke="none" fill="#999999"><textPath xlink:href="#d25">
<tspan dy="0em">60mm</tspan>
</textPath></text>
<path d="M250.0,70.0 L253.0,70.0" stroke="#999999" />
<text font-size="12" stroke="none" fill="#999999"><textPath xlink:href="#d26">
<tspan dy="0em">80mm</tspan>
</textPath></text>
<path d="M250.0,50.0 L253.0,50.0" stroke="#999999" />
<text font-size="12" stroke="none" fill="#999999"><textPath xlink:href="#d27">
<tspan dy="0em">100mm</tspan>
</textPath></text>
<path d="M250.0,30.0 L253.0,30.0" stroke="#999999" />
<text font-size="12" stroke="none" fill="#999999"><textPath xlink:href="#d28">
<tspan dy="0em">120mm</tspan>
</textPath></text>
<path d="M250.0,10.0 L253.0,10.0" stroke="#999999" />
<text font-size="12" stroke="none" fill="#999999"><textPath xlink:href="#d29">
<tspan dy="0em">140mm</tspan>
</textPath></text>
<path d="M250.0,-10.0 L253.0,-10.0" stroke="#999999" />
<text font-size="12" stroke="none" fill="#999999"><textPath xlink:href="#d30">
<tspan dy="0em">160mm</tspan>
</textPath></text>
<path d="M250.0,-30.0 L253.0,-30.0" stroke="#999999" />
<text font-size="12" stroke="none" fill="#999999"><textPath xlink:href="#d31">
<tspan dy="0em">180mm</tspan>
</textPath></text>
<path d="M250.0,-50.0 L253.0,-50.0" stroke="#999999" />
<text font-size="12" stroke="none" fill="#999999"><textPath xlink:href="#d32">
<tspan dy="0em">200mm</tspan>
</textPath></text>
<path d="M250.0,-70.0 L253.0,-70.0" stroke="#999999" />
<text font-size="12" stroke="none" fill="#999999"><textPath xlink:href="#d33">
<tspan dy="0em">220mm</tspan>
</textPath></text>
<path d="M250.0,-90.0 L253.0,-90.0" stroke="#999999" />
<text font-size="12" stroke="none" fill="#999999"><textPath xlink:href="#d34">
<tspan dy="0em">240mm</tspan>
</textPath></text>
<path d="M250.0,-110.0 L253.0,-110.0" stroke="#999999" />
<text font-size="12" stroke="none" fill="#999999"><textPath xlink:href="#d35">
<tspan dy="0em">260mm</tspan>
</textPath></text>
<path d="M250.0,-130.0 L253.0,-130.0" stroke="#999999" />
<text font-size="12" stroke="none" fill="#999999"><textPath xlink:href="#d36">
<tspan dy="0em">280mm</tspan>
</textPath></text>
<path d="M250.0,-150.0 L253.0,-150.0" stroke="#999999" />
<text font-size="12" stroke="none" fill="#999999"><textPath xlink:href="#d37">
<tspan dy="0em">300mm</tspan>
</textPath></text>
<path d="M250.0,-170.0 L253.0,-170.0" stroke="#999999" />
<text font-size="12" stroke="none" fill="#999999"><textPath xlink:href="#d38">
<tspan dy="0em">320mm</tspan>
</textPath></text>
<path d="M250.0,-190.0 L253.0,-190.0" stroke="#999999" />
<text font-size="12" stroke="none" fill="#999999"><textPath xlink:href="#d39">
<tspan dy="0em">340mm</tspan>
</textPath></text>
<path d="M250.0,-210.0 L253.0,-210.0" stroke="#999999" />
<text font-size="12" stroke="none" fill="#999999"><textPath xlink:href="#d40">
<tspan dy="0em">360mm</tspan>
</textPath></text>
<path d="M250.0,-230.0 L253.0,-230.0" stroke="#999999" />
<text font-size="12" stroke="none" fill="#999999"><textPath xlink:href="#d41">
<tspan dy="0em">380mm</tspan>
</textPath></text>
</g>
</svg>