<?xml version="1.0" encoding="UTF-8"?>
<svg xmlns="http://www.w3.org/2000/svg" xmlns:xlink="http://www.w3.org/1999/xlink"
     width="1500" height="945" viewBox="-150 -150 1500 945" stroke="black" fill="none">
<defs>
<path d="M0,0 L725,0" fill="none" stroke="black" id="d0" />
<path d="M0,265 L900,265" fill="none" stroke="black" id="d1" />
<path d="M0,645 L1200,645" fill="none" stroke="black" id="d2" />
<path d="M-50.0,699.0 L-50.0,799.0" id="d3" />
<path d="M-30.0,699.0000000000001 L-30.0,799.0000000000001" id="d4" />
<path d="M-9.999999999999993,699.0 L-9.999999999999993,799.0" id="d5" />
<path d="M10.000000000000007,699.0 L10.000000000000007,799.0" id="d6" />
<path d="M30.000000000000014,699.0 L30.000000000000014,799.0" id="d7" />
<path d="M50.00000000000001,699.0 L50.00000000000001,799.0" id="d8" />
<path d="M70.0,699.0 L70.0,799.0" id="d9" />
<path d="M90.0,698.9999999999999 L90.0,798.9999999999999" id="d10" />
<path d="M110.00000000000003,699.0 L110.00000000000003,799.0" id="d11" />
<path d="M130.0,699.0000000000001 L130.0,799.0000000000001" id="d12" />
<path d="M150.0,699.0 L150.0,799.0" id="d13" />
<path d="M170.0,699.0 L170.0,799.0" id="d14" />
<path d="M190.0,699.0 L190.0,799.0" id="d15" />
<path d="M210.0,699.0 L210.0,799.0" id="d16" />
<path d="M230.0,699.0 L230.0,799.0" id="d17" />
<path d="M250.0,698.9999999999999 L250.0,798.9999999999999" id="d18" />
<path d="M270.00000000000006,699.0 L270.00000000000006,799.0" id="d19" />
<path d="M290.00000000000006,699.0 L290.00000000000006,799.0" id="d20" />
<path d="M310.00000000000006,699.0 L310.00000000000006,799.0" id="d21" />
<path d="M330.00000000000006,699.0 L330.00000000000006,799.0" id="d22" />
<path d="M350.0,699.0 L350.0,799.0" id="d23" />
<path d="M370.0,699.0 L370.0,799.0" id="d24" />
<path d="M390.0,699.0 L390.0,799.0" id="d25" />
<path d="M410.0,699.0 L410.0,799.0" id="d26" />
<path d="M430.0,699.0 L430.0,799.0" id="d27" />
<path d="M450.0,699.0 L450.0,799.0" id="d28" />
<path d="M470.0,699.0 L470.0,799.0" id="d29" />
<path d="M490.00000000000006,699.0 L490.00000000000006,799.0" id="d30" />
<path d="M510.0,699.0 L510.0,799.0" id="d31" />
<path d="M530.0,699.0 L530.0,799.0" id="d32" />
<path d="M550.0,699.0 L550.0,799.0" id="d33" />
<path d="M570.0,699.0 L570.0,799.0" id="d34" />
<path d="M590.0000000000001,699.0 L590.0000000000001,799.0" id="d35" />
<path d="M609.9999999999999,699.0 L609.9999999999999,799.0" id="d36" />
<path d="M630.0000000000001,699.0 L630.0000000000001,799.0" id="d37" />
<path d="M650.0,699.0 L650.0,799.0" id="d38" />
<path d="M670.0000000000001,699.0 L670.0000000000001,799.0" id="d39" />
<path d="M690.0,699.0 L690.0,799.0" id="d40" />
<path d="M710.0000000000001,699.0 L710.0000000000001,799.0" id="d41" />
<path d="M730.0,699.0 L730.0,799.0" id="d42" />
<path d="M750.0,699.0 L750.0,799.0" id="d43" />
<path d="M770.0,699.0 L770.0,799.0" id="d44" />
<path d="M790.0,699.0 L790.0,799.0" id="d45" />
<path d="M810.0,699.0 L810.0,799.0" id="d46" />
<path d="M830.0,699.0 L830.0,799.0" id="d47" />
<path d="M850.0,699.0 L850.0,799.0" id="d48" />
<path d="M870.0,699.0 L870.0,799.0" id="d49" />
<path d="M890.0,699.0 L890.0,799.0" id="d50" />
<path d="M910.0,699.0 L910.0,799.0" id="d51" />
<path d="M930.0,699.0 L930.0,799.0" id="d52" />
<path d="M950.0,699.0 L950.0,799.0" id="d53" />
<path d="M970.0,699.0 L970.0,799.0" id="d54" />
<path d="M990.0,699.0 L990.0,799.0" id="d55" />
<path d="M1009.9999999999999,699.0 L1009.9999999999999,799.0" id="d56" />
<path d="M1030.0,699.0 L1030.0,799.0" id="d57" />
<path d="M1050.0,699.0 L1050.0,799.0" id="d58" />
<path d="M1070.0,699.0 L1070.0,799.0" id="d59" />
<path d="M1090.0,699.0 L1090.0,799.0" id="d60" />
<path d="M1110.0,699.0 L1110.0,799.0" id="d61" />
<path d="M1130.0,699.0 L1130.0,799.0" id="d62" />
<path d="M1150.0,699.0 L1150.0,799.0" id="d63" />
<path d="M1170.0,699.0 L1170.0,799.0" id="d64" />
<path d="M1190.0,699.0 L1190.0,799.0" id="d65" />
<path d="M1210.0,699.0 L1210.0,799.0" id="d66" />
<path d="M1230.0000000000002,699.0 L1230.0000000000002,799.0" id="d67" />
<path d="M1254.0,695.0 L1354.0,695.0" id="d68" />
<path d="M1254.0000000000002,675.0 L1354.0000000000002,675.0" id="d69" />
<path d="M1253.9999999999998,655.0 L1353.9999999999998,655.0" id="d70" />
<path d="M1254.0,635.0 L1354.0,635.0" id="d71" />
<path d="M1254.0000000000002,615.0 L1354.0000000000002,615.0" id="d72" />
<path d="M1253.9999999999998,594.9999999999999 L1353.9999999999998,594.9999999999999" id="d73" />
<path d="M1254.0,575.0 L1354.0,575.0" id="d74" />
<path d="M1254.0,555.0 L1354.0,555.0" id="d75" />
<path d="M1254.0,535.0 L1354.0,535.0" id="d76" />
<path d="M1254.0,515.0 L1354.0,515.0" id="d77" />
<path d="M1254.0,494.99999999999994 L1354.0,494.99999999999994" id="d78" />
<path d="M1254.0,475.0 L1354.0,475.0" id="d79" />
<path d="M1254.0,455.0 L1354.0,455.0" id="d80" />
<path d="M1254.0,435.0 L1354.0,435.0" id="d81" />
<path d="M1254.0,415.0 L1354.0,415.0" id="d82" />
<path d="M1254.0,395.0 L1354.0,395.0" id="d83" />
<path d="M1254.0,375.0 L1354.0,375.0" id="d84" />
<path d="M1254.0,354.99999999999994 L1354.0,354.99999999999994" id="d85" />
<path d="M1254.0,335.0 L1354.0,335.0" id="d86" />
<path d="M1254.0,315.0 L1354.0,315.0" id="d87" />
<path d="M1254.0,295.0 L1354.0,295.0" id="d88" />
<path d="M1254.0,275.0 L1354.0,275.0" id="d89" />
<path d="M1254.0,254.99999999999994 L1354.0,254.99999999999994" id="d90" />
<path d="M1254.0,235.0 L1354.0,235.0" id="d91" />
<path d="M1254.0,215.00000000000003 L1354.0,215.00000000000003" id="d92" />
<path d="M1254.0,195.0 L1354.0,195.0" id="d93" />
<path d="M1254.0,175.0 L1354.0,175.0" id="d94" />
<path d="M1254.0,155.00000000000006 L1354.0,155.00000000000006" id="d95" />
<path d="M1254.0,134.99999999999997 L1354.0,134.99999999999997" id="d96" />
<path d="M1254.0,115.00000000000001 L1354.0,115.00000000000001" id="d97" />
<path d="M1254.0,95.00000000000003 L1354.0,95.00000000000003" id="d98" />
<path d="M1254.0,74.99999999999997 L1354.0,74.99999999999997" id="d99" />
<path d="M1254.0,55.00000000000001 L1354.0,55.00000000000001" id="d100" />
<path d="M1254.0,34.999999999999964 L1354.0,34.999999999999964" id="d101" />
<path d="M1254.0,14.999999999999993 L1354.0,14.999999999999993" id="d102" />
<path d="M1254.0,-4.999999999999979 L1354.0,-4.999999999999979" id="d103" />
<path d="M1254.0,-25.00000000000004 L1354.0,-25.00000000000004" id="d104" />
<path d="M1254.0,-45.000000000000014 L1354.0,-45.000000000000014" id="d105" />
</defs>
<g>
<path d="M725,0 L900,265 L1200,645 L0,645 L0,0 L725,0" fill="#E6E6FA" stroke="black" />
</g>
<g>
<circle cx="0" cy="0" r="1" fill="black" />
</g>
<g>
<path d="M0,0 L725,0" fill="none" stroke="black" />
<path d="M0.0,5.0 L0.0,-5.0" stroke="black" />
<path d="M725.0,5.0 L725.0,-5.0" stroke="black" />
<text font-size="12" stroke="none" fill="black"><textPath xlink:href="#d0" startOffset="10">
<tspan dy="-1em">725.0mm</tspan>
</textPath></text>
</g>
<g>
<path d="M0,265 L900,265" fill="none" stroke="black" />
<path d="M0.0,270.0 L0.0,260.0" stroke="black" />
<path d="M900.0,270.0 L900.0,260.0" stroke="black" />
<text font-size="12" stroke="none" fill="black"><textPath xlink:href="#d1" startOffset="10">
<tspan dy="-1em">900.0mm</tspan>
</textPath></text>
</g>
<g>
<path d="M0,645 L1200,645" fill="none" stroke="black" />
<path d="M0.0,650.0 L0.0,640.0" stroke="black" />
<path d="M1200.0,650.0 L1200.0,640.0" stroke="black" />
<text font-size="12" stroke="none" fill="black"><textPath xlink:href="#d2" startOffset="10">
<tspan dy="-1em">1200.0mm</tspan>
</textPath></text>
</g>
<g>
<g>
<path d="M-50,695 L1250,695" fill="none" stroke="#999999" />
</g>
<path d="M-50.0,695.0 L-50.0,698.0" stroke="#999999" />
<text font-size="12" stroke="none" fill="#999999"><textPath xlink:href="#d3">
<tspan dy="0em">0mm</tspan>
</textPath></text>
<path d="M-30.0,695.0000000000001 L-30.0,698.0000000000001" stroke="#999999" />
<text font-size="12" stroke="none" fill="#999999"><textPath xlink:href="#d4">
<tspan dy="0em">20mm</tspan>
</textPath></text>
<path d="M-9.999999999999993,695.0 L-9.999999999999993,698.0" stroke="#999999" />
<text font-size="12" stroke="none" fill="#999999"><textPath xlink:href="#d5">
<tspan dy="0em">40mm</tspan>
</textPath></text>
<path d="M10.000000000000007,695.0 L10.000000000000007,698.0" stroke="#999999" />
<text font-size="12" stroke="none" fill="#999999"><textPath xlink:href="#d6">
<tspan dy="0em">60mm</tspan>
</textPath></text>
<path d="M30.000000000000014,695.0 L30.000000000000014,698.0" stroke="#999999" />
<text font-size="12" stroke="none" fill="#999999"><textPath xlink:href="#d7">
<tspan dy="0em">80mm</tspan>
</textPath></text>
<path d="M50.00000000000001,695.0 L50.00000000000001,698.0" stroke="#999999" />
<text font-size="12" stroke="none" fill="#999999"><textPath xlink:href="#d8">
<tspan dy="0em">100mm</tspan>
</textPath></text>
<path d="M70.0,695.0 L70.0,698.0" stroke="#999999" />
<text font-size="12" stroke="none" fill="#999999"><textPath xlink:href="#d9">
<tspan dy="0em">120mm</tspan>
</textPath></text>
<path d="M90.0,694.9999999999999 L90.0,697.9999999999999" stroke="#999999" />
<text font-size="12" stroke="none" fill="#999999"><textPath xlink:href="#d10">
<tspan dy="0em">140mm</tspan>
</textPath></text>
<path d="M110.00000000000003,695.0 L110.00000000000003,698.0" stroke="#999999" />
<text font-size="12" stroke="none" fill="#999999"><textPath xlink:href="#d11">
<tspan dy="0em">160mm</tspan>
</textPath></text>
<path d="M130.0,695.0000000000001 L130.0,698.0000000000001" stroke="#999999" />
<text font-size="12" stroke="none" fill="#999999"><textPath xlink:href="#d12">
<tspan dy="0em">180mm</tspan>
</textPath></text>
<path d="M150.0,695.0 L150.0,698.0" stroke="#999999" />
<text font-size="12" stroke="none" fill="#999999"><textPath xlink:href="#d13">
<tspan dy="0em">200mm</tspan>
</textPath></text>
<path d="M170.0,695.0 L170.0,698.0" stroke="#999999" />
<text font-size="12" stroke="none" fill="#999999"><textPath xlink:href="#d14">
<tspan dy="0em">220mm</tspan>
</textPath></text>
<path d="M190.0,695.0 L190.0,698.0" stroke="#999999" />
<text font-size="12" stroke="none" fill="#999999"><textPath xlink:href="#d15">
<tspan dy="0em">240mm</tspan>
</textPath></text>
<path d="M210.0,695.0 L210.0,698.0" stroke="#999999" />
<text font-size="12" stroke="none" fill="#999999"><textPath xlink:href="#d16">
<tspan dy="0em">260mm</tspan>
</textPath></text>
<path d="M230.0,695.0 L230.0,698.0" stroke="#999999" />
<text font-size="12" stroke="none" fill="#999999"><textPath xlink:href="#d17">
<tspan dy="0em">280mm</tspan>
</textPath></text>
<path d="M250.0,694.9999999999999 L250.0,697.9999999999999" stroke="#999999" />
<text font-size="12" stroke="none" fill="#999999"><textPath xlink:href="#d18">
<tspan dy="0em">300mm</tspan>
</textPath></text>
<path d="M270.00000000000006,695.0 L270.00000000000006,698.0" stroke="#999999" />
<text font-size="12" stroke="none" fill="#999999"><textPath xlink:href="#d19">
<tspan dy="0em">320mm</tspan>
</textPath></text>
<path d="M290.00000000000006,695.0 L290.00000000000006,698.0" stroke="#999999" />
<text font-size="12" stroke="none" fill="#999999"><textPath xlink:href="#d20">
<tspan dy="0em">340mm</tspan>
</textPath></text>
<path d="M310.00000000000006,695.0 L310.00000000000006,698.0" stroke="#999999" />
<text font-size="12" stroke="none" fill="#999999"><textPath xlink:href="#d21">
<tspan dy="0em">360mm</tspan>
</textPath></text>
<path d="M330.00000000000006,695.0 L330.00000000000006,698.0" stroke="#999999" />
<text font-size="12" stroke="none" fill="#999999"><textPath xlink:href="#d22">
<tspan dy="0em">380mm</tspan>
</textPath></text>
<path d="M350.0,695.0 L350.0,698.0" stroke="#999999" />
<text font-size="12" stroke="none" fill="#999999"><textPath xlink:href="#d23">
<tspan dy="0em">400mm</tspan>
</textPath></text>
<path d="M370.0,695.0 L370.0,698.0" stroke="#999999" />
<text font-size="12" stroke="none" fill="#999999"><textPath xlink:href="#d24">
<tspan dy="0em">420mm</tspan>
</textPath></text>
<path d="M390.0,695.0 L390.0,698.0" stroke="#999999" />
<text font-size="12" stroke="none" fill="#999999"><textPath xlink:href="#d25">
<tspan dy="0em">440mm</tspan>
</textPath></text>
<path d="M410.0,695.0 L410.0,698.0" stroke="#999999" />
<text font-size="12" stroke="none" fill="#999999"><textPath xlink:href="#d26">
<tspan dy="0em">460mm</tspan>
</textPath></text>
<path d="M430.0,695.0 L430.0,698.0" stroke="#999999" />
<text font-size="12" stroke="none" fill="#999999"><textPath xlink:href="#d27">
<tspan dy="0em">480mm</tspan>
</textPath></text>
<path d="M450.0,695.0 L450.0,698.0" stroke="#999999" />
<text font-size="12" stroke="none" fill="#999999"><textPath xlink:href="#d28">
<tspan dy="0em">500mm</tspan>
</textPath></text>
<path d="M470.0,695.0 L470.0,698.0" stroke="#999999" />
<text font-size="12" stroke="none" fill="#999999"><textPath xlink:href="#d29">
<tspan dy="0em">520mm</tspan>
</textPath></text>
<path d="M490.00000000000006,695.0 L490.00000000000006,698.0" stroke="#999999" />
<text font-size="12" stroke="none" fill="#999999"><textPath xlink:href="#d30">
<tspan dy="0em">540mm</tspan>
</textPath></text>
<path d="M510.0,695.0 L510.0,698.0" stroke="#999999" />
<text font-size="12" stroke="none" fill="#999999"><textPath xlink:href="#d31">
<tspan dy="0em">560mm</tspan>
</textPath></text>
<path d="M530.0,695.0 L530.0,698.0" stroke="#999999" />
<text font-size="12" stroke="none" fill="#999999"><textPath xlink:href="#d32">
<tspan dy="0em">580mm</tspan>
</textPath></text>
<path d="M550.0,695.0 L550.0,698.0" stroke="#999999" />
<text font-size="12" stroke="none" fill="#999999"><textPath xlink:href="#d33">
<tspan dy="0em">600mm</tspan>
</textPath></text>
<path d="M570.0,695.0 L570.0,698.0" stroke="#999999" />
<text font-size="12" stroke="none" fill="#999999"><textPath xlink:href="#d34">
<tspan dy="0em">620mm</tspan>
</textPath></text>
<path d="M590.0000000000001,695.0 L590.0000000000001,698.0" stroke="#999999" />
<text font-size="12" stroke="none" fill="#999999"><textPath xlink:href="#d35">
<tspan dy="0em">640mm</tspan>
</textPath></text>
<path d="M609.9999999999999,695.0 L609.9999999999999,698.0" stroke="#999999" />
<text font-size="12" stroke="none" fill="#999999"><textPath xlink:href="#d36">
<tspan dy="0em">660mm</tspan>
</textPath></text>
<path d="M630.0000000000001,695.0 L630.0000000000001,698.0" stroke="#999999" />
<text font-size="12" stroke="none" fill="#999999"><textPath xlink:href="#d37">
<tspan dy="0em">680mm</tspan>
</textPath></text>
<path d="M650.0,695.0 L650.0,698.0" stroke="#999999" />
<text font-size="12" stroke="none" fill="#999999"><textPath xlink:href="#d38">
<tspan dy="0em">700mm</tspan>
</textPath></text>
<path d="M670.0000000000001,695.0 L670.0000000000001,698.0" stroke="#999999" />
<text font-size="12" stroke="none" fill="#999999"><textPath xlink:href="#d39">
<tspan dy="0em">720mm</tspan>
</textPath></text>
<path d="M690.0,695.0 L690.0,698.0" stroke="#999999" />
<text font-size="12" stroke="none" fill="#999999"><textPath xlink:href="#d40">
<tspan dy="0em">740mm</tspan>
</textPath></text>
<path d="M710.0000000000001,695.0 L710.0000000000001,698.0" stroke="#999999" />
<text font-size="12" stroke="none" fill="#999999"><textPath xlink:href="#d41">
<tspan dy="0em">760mm</tspan>
</textPath></text>
<path d="M730.0,695.0 L730.0,698.0" stroke="#999999" />
<text font-size="12" stroke="none" fill="#999999"><textPath xlink:href="#d42">
<tspan dy="0em">780mm</tspan>
</textPath></text>
<path d="M750.0,695.0 L750.0,698.0" stroke="#999999" />
<text font-size="12" stroke="none" fill="#999999"><textPath xlink:href="#d43">
<tspan dy="0em">800mm</tspan>
</textPath></text>
<path d="M770.0,695.0 L770.0,698.0" stroke="#999999" />
<text font-size="12" stroke="none" fill="#999999"><textPath xlink:href="#d44">
<tspan dy="0em">820mm</tspan>
</textPath></text>
<path d="M790.0,695.0 L790.0,698.0" stroke="#999999" />
<text font-size="12" stroke="none" fill="#999999"><textPath xlink:href="#d45">
<tspan dy="0em">840mm</tspan>
</textPath></text>
<path d="M810.0,695.0 L810.0,698.0" stroke="#999999" />
<text font-size="12" stroke="none" fill="#999999"><textPath xlink:href="#d46">
<tspan dy="0em">860mm</tspan>
</textPath></text>
<path d="M830.0,695.0 L830.0,698.0" stroke="#999999" />
<text font-size="12" stroke="none" fill="#999999"><textPath xlink:href="#d47">
<tspan dy="0em">880mm</tspan>
</textPath></text>
<path d="M850.0,695.0 L850.0,698.0" stroke="#999999" />
<text font-size="12" stroke="none" fill="#999999"><textPath xlink:href="#d48">
<tspan dy="0em">900mm</tspan>
</textPath></text>
<path d="M870.0,695.0 L870.0,698.0" stroke="#999999" />
<text font-size="12" stroke="none" fill="#999999"><textPath xlink:href="#d49">
<tspan dy="0em">920mm</tspan>
</textPath></text>
<path d="M890.0,695.0 L890.0,698.0" stroke="#999999" />
<text font-size="12" stroke="none" fill="#999999"><textPath xlink:href="#d50">
<tspan dy="0em">940mm</tspan>
</textPath></text>
<path d="M910.0,695.0 L910.0,698.0" stroke="#999999" />
<text font-size="12" stroke="none" fill="#999999"><textPath xlink:href="#d51">
<tspan dy="0em">960mm</tspan>
</textPath></text>
<path d="M930.0,695.0 L930.0,698.0" stroke="#999999" />
<text font-size="12" stroke="none" fill="#999999"><textPath xlink:href="#d52">
<tspan dy="0em">980mm</tspan>
</textPath></text>
<path d="M950.0,695.0 L950.0,698.0" stroke="#999999" />
<text font-size="12" stroke="none" fill="#999999"><textPath xlink:href="#d53">
<tspan dy="0em">1000mm</tspan>
</textPath></text>
<path d="M970.0,695.0 L970.0,698.0" stroke="#999999" />
<text font-size="12" stroke="none" fill="#999999"><textPath xlink:href="#d54">
<tspan dy="0em">1020mm</tspan>
</textPath></text>
<path d="M990.0,695.0 L990.0,698.0" stroke="#999999" />
<text font-size="12" stroke="none" fill="#999999"><textPath xlink:href="#d55">
<tspan dy="0em">1040mm</tspan>
</textPath></text>
<path d="M1009.9999999999999,695.0 L1009.9999999999999,698.0" stroke="#999999" />
<text font-size="12" stroke="none" fill="#999999"><textPath xlink:href="#d56">
<tspan dy="0em">1060mm</tspan>
</textPath></text>
<path d="M1030.0,695.0 L1030.0,698.0" stroke="#999999" />
<text font-size="12" stroke="none" fill="#999999"><textPath xlink:href="#d57">
<tspan dy="0em">1080mm</tspan>
</textPath></text>
<path d="M1050.0,695.0 L1050.0,698.0" stroke="#999999" />
<text font-size="12" stroke="none" fill="#999999"><textPath xlink:href="#d58">
<tspan dy="0em">1100mm</tspan>
</textPath></text>
<path d="M1070.0,695.0 L1070.0,698.0" stroke="#999999" />
<text font-size="12" stroke="none" fill="#999999"><textPath xlink:href="#d59">
<tspan dy="0em">1120mm</tspan>
</textPath></text>
<path d="M1090.0,695.0 L1090.0,698.0" stroke="#999999" />
<text font-size="12" stroke="none" fill="#999999"><textPath xlink:href="#d60">
<tspan dy="0em">1140mm</tspan>
</textPath></text>
<path d="M1110.0,695.0 L1110.0,698.0" stroke="#999999" />
<text font-size="12" stroke="none" fill="#999999"><textPath xlink:href="#d61">
<tspan dy="0em">1160mm</tspan>
</textPath></text>
<path d="M1130.0,695.0 L1130.0,698.0" stroke="#999999" />
<text font-size="12" stroke="none" fill="#999999"><textPath xlink:href="#d62">
<tspan dy="0em">1180mm</tspan>
</textPath></text>
<path d="M1150.0,695.0 L1150.0,698.0" stroke="#999999" />
<text font-size="12" stroke="none" fill="#999999"><textPath xlink:href="#d63">
<tspan dy="0em">1200mm</tspan>
</textPath></text>
<path d="M1170.0,695.0 L1170.0,698.0" stroke="#999999" />
<text font-size="12" stroke="none" fill="#999999"><textPath xlink:href="#d64">
<tspan dy="0em">1220mm</tspan>
</textPath></text>
<path d="M1190.0,695.0 L1190.0,698.0" stroke="#999999" />
<text font-size="12" stroke="none" fill="#999999"><textPath xlink:href="#d65">
<tspan dy="0em">1240mm</tspan>
</textPath></text>
<path d="M1210.0,695.0 L1210.0,698.0" stroke="#999999" />
<text font-size="12" stroke="none" fill="#999999"><textPath xlink:href="#d66">
<tspan dy="0em">1260mm</tspan>
</textPath></text>
<path d="M1230.0000000000002,695.0 L1230.0000000000002,698.0" stroke="#999999" />
<text font-size="12" stroke="none" fill="#999999"><textPath xlink:href="#d67">
<tspan dy="0em">1280mm</tspan>
</textPath></text>
</g>
<g>
<g>
<path d="M1250,695 L1250,-50" fill="none" stroke="#999999" />
</g>
<path d="M1250.0,695.0 L1253.0,695.0" stroke="#999999" />
<text font-size="12" stroke="none" fill="#999999"><textPath xlink:href="#d68">
<tspan dy="0em">0mm</tspan>
</textPath></text>
<path d="M1250.0000000000002,675.0 L1253.0000000000002,675.0" stroke="#999999" />
<text font-size="12" stroke="none" fill="#999999"><textPath xlink:href="#d69">
<tspan dy="0em">20mm</tspan>
</textPath></text>
<path d="M1249.9999999999998,655.0 L1252.9999999999998,655.0" stroke="#999999" />
<text font-size="12" stroke="none" fill="#999999"><textPath xlink:href="#d70">
<tspan dy="0em">40mm</tspan>
</textPath></text>
<path d="M1250.0,635.0 L1253.0,635.0" stroke="#999999" />
<text font-size="12" stroke="none" fill="#999999"><textPath xlink:href="#d71">
<tspan dy="0em">60mm</tspan>
</textPath></text>
<path d="M1250.0000000000002,615.0 L1253.0000000000002,615.0" stroke="#999999" />
<text font-size="12" stroke="none" fill="#999999"><textPath xlink:href="#d72">
<tspan dy="0em">80mm</tspan>
</textPath></text>
<path d="M1249.9999999999998,594.9999999999999 L1252.9999999999998,594.9999999999999" stroke="#999999" />
<text font-size="12" stroke="none" fill="#999999"><textPath xlink:href="#d73">
<tspan dy="0em">100mm</tspan>
</textPath></text>
<path d="M1250.0,575.0 L1253.0,575.0" stroke="#999999" />
<text font-size="12" stroke="none" fill="#999999"><textPath xlink:href="#d74">
<tspan dy="0em">120mm</tspan>
</textPath></text>
<path d="M1250.0,555.0 L1253.0,555.0" stroke="#999999" />
<text font-size="12" stroke="none" fill="#999999"><textPath xlink:href="#d75">
<tspan dy="0em">140mm</tspan>
</textPath></text>
<path d="M1250.0,535.0 L1253.0,535.0" stroke="#999999" />
<text font-size="12" stroke="none" fill="#999999"><textPath xlink:href="#d76">
<tspan dy="0em">160mm</tspan>
</textPath></text>
<path d="M1250.0,515.0 L1253.0,515.0" stroke="#999999" />
<text font-size="12" stroke="none" fill="#999999"><textPath xlink:href="#d77">
<tspan dy="0em">180mm</tspan>
</textPath></text>
<path d="M1250.0,494.99999999999994 L1253.0,494.99999999999994" stroke="#999999" />
<text font-size="12" stroke="none" fill="#999999"><textPath xlink:href="#d78">
<tspan dy="0em">200mm</tspan>
</textPath></text>
<path d="M1250.0,475.0 L1253.0,475.0" stroke="#999999" />
<text font-size="12" stroke="none" fill="#999999"><textPath xlink:href="#d79">
<tspan dy="0em">220mm</tspan>
</textPath></text>
<path d="M1250.0,455.0 L1253.0,455.0" stroke="#999999" />
<text font-size="12" stroke="none" fill="#999999"><textPath xlink:href="#d80">
<tspan dy="0em">240mm</tspan>
</textPath></text>
<path d="M1250.0,435.0 L1253.0,435.0" stroke="#999999" />
<text font-size="12" stroke="none" fill="#999999"><textPath xlink:href="#d81">
<tspan dy="0em">260mm</tspan>
</textPath></text>
<path d="M1250.0,415.0 L1253.0,415.0" stroke="#999999" />
<text font-size="12" stroke="none" fill="#999999"><textPath xlink:href="#d82">
<tspan dy="0em">280mm</tspan>
</textPath></text>
<path d="M1250.0,395.0 L1253.0,395.0" stroke="#999999" />
<text font-size="12" stroke="none" fill="#999999"><textPath xlink:href="#d83">
<tspan dy="0em">300mm</tspan>
</textPath></text>
<path d="M1250.0,375.0 L1253.0,375.0" stroke="#999999" />
<text font-size="12" stroke="none" fill="#999999"><textPath xlink:href="#d84">
<tspan dy="0em">320mm</tspan>
</textPath></text>
<path d="M1250.0,354.99999999999994 L1253.0,354.99999999999994" stroke="#999999" />
<text font-size="12" stroke="none" fill="#999999"><textPath xlink:href="#d85">
<tspan dy="0em">340mm</tspan>
</textPath></text>
<path d="M1250.0,335.0 L1253.0,335.0" stroke="#999999" />
<text font-size="12" stroke="none" fill="#999999"><textPath xlink:href="#d86">
<tspan dy="0em">360mm</tspan>
</textPath></text>
<path d="M1250.0,315.0 L1253.0,315.0" stroke="#999999" />
<text font-size="12" stroke="none" fill="#999999"><textPath xlink:href="#d87">
<tspan dy="0em">380mm</tspan>
</textPath></text>
<path d="M1250.0,295.0 L1253.0,295.0" stroke="#999999" />
<text font-size="12" stroke="none" fill="#999999"><textPath xlink:href="#d88">
<tspan dy="0em">400mm</tspan>
</textPath></text>
<path d="M1250.0,275.0 L1253.0,275.0" stroke="#999999" />
<text font-size="12" stroke="none" fill="#999999"><textPath xlink:href="#d89">
<tspan dy="0em">420mm</tspan>
</textPath></text>
<path d="M1250.0,254.99999999999994 L1253.0,254.99999999999994" stroke="#999999" />
<text font-size="12" stroke="none" fill="#999999"><textPath xlink:href="#d90">
<tspan dy="0em">440mm</tspan>
</textPath></text>
<path d="M1250.0,235.0 L1253.0,235.0" stroke="#999999" />
<text font-size="12" stroke="none" fill="#999999"><textPath xlink:href="#d91">
<tspan dy="0em">460mm</tspan>
</textPath></text>
<path d="M1250.0,215.00000000000003 L1253.0,215.00000000000003" stroke="#999999" />
<text font-size="12" stroke="none" fill="#999999"><textPath xlink:href="#d92">
<tspan dy="0em">480mm</tspan>
</textPath></text>
<path d="M1250.0,195.0 L1253.0,195.0" stroke="#999999" />
<text font-size="12" stroke="none" fill="#999999"><textPath xlink:href="#d93">
<tspan dy="0em">500mm</tspan>
</textPath></text>
<path d="M1250.0,175.0 L1253.0,175.0" stroke="#999999" />
<text font-size="12" stroke="none" fill="#999999"><textPath xlink:href="#d94">
<tspan dy="0em">520mm</tspan>
</textPath></text>
<path d="M1250.0,155.00000000000006 L1253.0,155.00000000000006" stroke="#999999" />
<text font-size="12" stroke="none" fill="#999999"><textPath xlink:href="#d95">
<tspan dy="0em">540mm</tspan>
</textPath></text>
<path d="M1250.0,134.99999999999997 L1253.0,134.99999999999997" stroke="#999999" />
<text font-size="12" stroke="none" fill="#999999"><textPath xlink:href="#d96">
<tspan dy="0em">560mm</tspan>
</textPath></text>
<path d="M1250.0,115.00000000000001 L1253.0,115.00000000000001" stroke="#999999" />
<text font-size="12" stroke="none" fill="#999999"><textPath xlink:href="#d97">
<tspan dy="0em">580mm</tspan>
</textPath></text>
<path d="M1250.0,95.00000000000003 L1253.0,95.00000000000003" stroke="#999999" />
<text font-size="12" stroke="none" fill="#999999"><textPath xlink:href="#d98">
<tspan dy="0em">600mm</tspan>
</textPath></text>
<path d="M1250.0,74.99999999999997 L1253.0,74.99999999999997" stroke="#999999" />
<text font-size="12" stroke="none" fill="#999999"><textPath xlink:href="#d99">
<tspan dy="0em">620mm</tspan>
</textPath></text>
<path d="M1250.0,55.00000000000001 L1253.0,55.00000000000001" stroke="#999999" />
<text font-size="12" stroke="none" fill="#999999"><textPath xlink:href="#d100">
<tspan dy="0em">640mm</tspan>
</textPath></text>
<path d="M1250.0,34.999999999999964 L1253.0,34.999999999999964" stroke="#999999" />
<text font-size="12" stroke="none" fill="#999999"><textPath xlink:href="#d101">
<tspan dy="0em">660mm</tspan>
</textPath></text>
<path d="M1250.0,14.999999999999993 L1253.0,14.999999999999993" stroke="#999999" />
<text font-size="12" stroke="none" fill="#999999"><textPath xlink:href="#d102">
<tspan dy="0em">680mm</tspan>
</textPath></text>
<path d="M1250.0,-4.999999999999979 L1253.0,-4.999999999999979" stroke="#999999" />
<text font-size="12" stroke="none" fill="#999999"><textPath xlink:href="#d103">
<tspan dy="0em">700mm</tspan>
</textPath></text>
<path d="M1250.0,-25.00000000000004 L1253.0,-25.00000000000004" stroke="#999999" />
<text font-size="12" stroke="none" fill="#999999"><textPath xlink:href="#d104">
<tspan dy="0em">720mm</tspan>
</textPath></text>
<path d="M1250.0,-45.000000000000014 L1253.0,-45.000000000000014" stroke="#999999" />
<text font-size="12" stroke="none" fill="#999999"><textPath xlink:href="#d105">
<tspan dy="0em">740mm</tspan>
</textPath></text>
</g>
</svg>