<?xml version="1.0" encoding="UTF-8"?>
<svg xmlns="http://www.w3.org/2000/svg" xmlns:xlink="http://www.w3.org/1999/xlink"
     width="275.59859796865027" height="845" viewBox="15.387333741624118 -100 275.59859796865027 845" stroke="black" fill="none">
<defs>
</defs>
<path d="M15.387333741624118,745 L290.9859317102744,745" stroke="#dddddd" />
<path d="M15.387333741624118,695 L290.9859317102744,695" stroke="#dddddd" stroke-dasharray="5" />
<path d="M15.387333741624118,645 L290.9859317102744,645" stroke="#dddddd" stroke-dasharray="5" />
<path d="M15.387333741624118,595 L290.9859317102744,595" stroke="#dddddd" stroke-dasharray="5" />
<path d="M15.387333741624118,545 L290.9859317102744,545" stroke="#dddddd" stroke-dasharray="5" />
<path d="M15.387333741624118,495 L290.9859317102744,495" stroke="#dddddd" />
<path d="M15.387333741624118,445 L290.9859317102744,445" stroke="#dddddd" stroke-dasharray="5" />
<path d="M15.387333741624118,395 L290.9859317102744,395" stroke="#dddddd" stroke-dasharray="5" />
<path d="M15.387333741624118,345 L290.9859317102744,345" stroke="#dddddd" stroke-dasharray="5" />
<path d="M15.387333741624118,295 L290.9859317102744,295" stroke="#dddddd" stroke-dasharray="5" />
<path d="M15.387333741624118,245 L290.9859317102744,245" stroke="#dddddd" />
<path d="M15.387333741624118,195 L290.9859317102744,195" stroke="#dddddd" stroke-dasharray="5" />
<path d="M15.387333741624118,145 L290.9859317102744,145" stroke="#dddddd" stroke-dasharray="5" />
<path d="M15.387333741624118,95 L290.9859317102744,95" stroke="#dddddd" stroke-dasharray="5" />
<path d="M15.387333741624118,45 L290.9859317102744,45" stroke="#dddddd" stroke-dasharray="5" />
<path d="M15.387333741624118,-5 L290.9859317102744,-5" stroke="#dddddd" />
<path d="M15.387333741624118,-55 L290.9859317102744,-55" stroke="#dddddd" stroke-dasharray="5" />
<path d="M15.387333741624118,745 L15.387333741624118,-100" stroke="#dddddd" />
<path d="M65.38733374162412,745 L65.38733374162412,-100" stroke="#dddddd" stroke-dasharray="5" />
<path d="M115.38733374162412,745 L115.38733374162412,-100" stroke="#dddddd" stroke-dasharray="5" />
<path d="M165.3873337416241,745 L165.3873337416241,-100" stroke="#dddddd" stroke-dasharray="5" />
<path d="M215.3873337416241,745 L215.3873337416241,-100" stroke="#dddddd" stroke-dasharray="5" />
<path d="M265.3873337416241,745 L265.3873337416241,-100" stroke="#dddddd" />
<g>
<path d="M115.38733374162412,0 L143.2394487827058,265 L190.9859317102744,645" fill="none" stroke="black" />
</g>
</svg>
