<?xml version="1.0" encoding="UTF-8"?>
<svg xmlns="http://www.w3.org/2000/svg" xmlns:xlink="http://www.w3.org/1999/xlink"
     width="724.2332899945455" height="1098.1829929870182" viewBox="-34.61266625837588 -150.0 724.2332899945455 1098.1829929870182" stroke="black" fill="none">
<defs>
<path d="M65.38733374162412,852.1829929870182 L65.38733374162412,952.1829929870182" id="d0" />
<path d="M85.38733374162412,852.1829929870182 L85.38733374162412,952.1829929870182" id="d1" />
<path d="M105.38733374162413,852.1829929870182 L105.38733374162413,952.1829929870182" id="d2" />
<path d="M125.38733374162412,852.1829929870182 L125.38733374162412,952.1829929870182" id="d3" />
<path d="M145.38733374162413,852.1829929870182 L145.38733374162413,952.1829929870182" id="d4" />
<path d="M165.3873337416241,852.1829929870182 L165.3873337416241,952.1829929870182" id="d5" />
<path d="M185.38733374162413,852.1829929870182 L185.38733374162413,952.1829929870182" id="d6" />
<path d="M205.38733374162413,852.1829929870182 L205.38733374162413,952.1829929870182" id="d7" />
<path d="M225.38733374162416,852.1829929870182 L225.38733374162416,952.1829929870182" id="d8" />
<path d="M245.38733374162413,852.1829929870182 L245.38733374162413,952.1829929870182" id="d9" />
<path d="M265.3873337416241,852.1829929870182 L265.3873337416241,952.1829929870182" id="d10" />
<path d="M285.3873337416241,852.1829929870182 L285.3873337416241,952.1829929870182" id="d11" />
<path d="M305.38733374162416,852.1829929870182 L305.38733374162416,952.1829929870182" id="d12" />
<path d="M325.3873337416241,852.1829929870182 L325.3873337416241,952.1829929870182" id="d13" />
<path d="M345.38733374162416,852.1829929870182 L345.38733374162416,952.1829929870182" id="d14" />
<path d="M365.3873337416242,852.1829929870182 L365.3873337416242,952.1829929870182" id="d15" />
<path d="M385.38733374162416,852.1829929870182 L385.38733374162416,952.1829929870182" id="d16" />
<path d="M405.38733374162416,852.1829929870182 L405.38733374162416,952.1829929870182" id="d17" />
<path d="M425.38733374162416,852.1829929870182 L425.38733374162416,952.1829929870182" id="d18" />
<path d="M445.3873337416241,852.1829929870182 L445.3873337416241,952.1829929870182" id="d19" />
<path d="M465.3873337416241,852.1829929870182 L465.3873337416241,952.1829929870182" id="d20" />
<path d="M485.38733374162416,852.1829929870182 L485.38733374162416,952.1829929870182" id="d21" />
<path d="M505.38733374162416,852.1829929870182 L505.38733374162416,952.1829929870182" id="d22" />
<path d="M525.3873337416242,852.1829929870182 L525.3873337416242,952.1829929870182" id="d23" />
<path d="M545.3873337416242,852.1829929870182 L545.3873337416242,952.1829929870182" id="d24" />
<path d="M565.3873337416242,852.1829929870182 L565.3873337416242,952.1829929870182" id="d25" />
<path d="M585.3873337416242,852.1829929870182 L585.3873337416242,952.1829929870182" id="d26" />
<path d="M593.6206237361697,848.1829929870182 L693.6206237361697,848.1829929870182" id="d27" />
<path d="M593.6206237361697,828.1829929870182 L693.6206237361697,828.1829929870182" id="d28" />
<path d="M593.6206237361697,808.1829929870182 L693.6206237361697,808.1829929870182" id="d29" />
<path d="M593.6206237361697,788.1829929870182 L693.6206237361697,788.1829929870182" id="d30" />
<path d="M593.6206237361697,768.1829929870182 L693.6206237361697,768.1829929870182" id="d31" />
<path d="M593.6206237361697,748.1829929870182 L693.6206237361697,748.1829929870182" id="d32" />
<path d="M593.6206237361697,728.1829929870182 L693.6206237361697,728.1829929870182" id="d33" />
<path d="M593.6206237361697,708.1829929870182 L693.6206237361697,708.1829929870182" id="d34" />
<path d="M593.6206237361697,688.1829929870182 L693.6206237361697,688.1829929870182" id="d35" />
<path d="M593.6206237361697,668.1829929870182 L693.6206237361697,668.1829929870182" id="d36" />
<path d="M593.6206237361697,648.1829929870182 L693.6206237361697,648.1829929870182" id="d37" />
<path d="M593.6206237361697,628.1829929870182 L693.6206237361697,628.1829929870182" id="d38" />
<path d="M593.6206237361697,608.1829929870182 L693.6206237361697,608.1829929870182" id="d39" />
<path d="M593.6206237361697,588.1829929870182 L693.6206237361697,588.1829929870182" id="d40" />
<path d="M593.6206237361697,568.1829929870182 L693.6206237361697,568.1829929870182" id="d41" />
<path d="M593.6206237361697,548.1829929870182 L693.6206237361697,548.1829929870182" id="d42" />
<path d="M593.6206237361697,528.1829929870182 L693.6206237361697,528.1829929870182" id="d43" />
<path d="M593.6206237361697,508.1829929870182 L693.6206237361697,508.1829929870182" id="d44" />
<path d="M593.6206237361697,488.1829929870182 L693.6206237361697,488.1829929870182" id="d45" />
<path d="M593.6206237361697,468.1829929870182 L693.6206237361697,468.1829929870182" id="d46" />
<path d="M593.6206237361697,448.1829929870182 L693.6206237361697,448.1829929870182" id="d47" />
<path d="M593.6206237361697,428.1829929870182 L693.6206237361697,428.1829929870182" id="d48" />
<path d="M593.6206237361697,408.18299298701817 L693.6206237361697,408.18299298701817" id="d49" />
<path d="M593.6206237361697,388.1829929870182 L693.6206237361697,388.1829929870182" id="d50" />
<path d="M593.6206237361697,368.1829929870182 L693.6206237361697,368.1829929870182" id="d51" />
<path d="M593.6206237361697,348.1829929870182 L693.6206237361697,348.1829929870182" id="d52" />
<path d="M593.6206237361697,328.1829929870182 L693.6206237361697,328.1829929870182" id="d53" />
<path d="M593.6206237361697,308.1829929870182 L693.6206237361697,308.1829929870182" id="d54" />
<path d="M593.6206237361697,288.18299298701817 L693.6206237361697,288.18299298701817" id="d55" />
<path d="M593.6206237361697,268.1829929870182 L693.6206237361697,268.1829929870182" id="d56" />
<path d="M593.6206237361697,248.18299298701822 L693.6206237361697,248.18299298701822" id="d57" />
<path d="M593.6206237361697,228.18299298701822 L693.6206237361697,228.18299298701822" id="d58" />
<path d="M593.6206237361697,208.1829929870182 L693.6206237361697,208.1829929870182" id="d59" />
<path d="M593.6206237361697,188.1829929870182 L693.6206237361697,188.1829929870182" id="d60" />
<path d="M593.6206237361697,168.18299298701822 L693.6206237361697,168.18299298701822" id="d61" />
<path d="M593.6206237361697,148.18299298701822 L693.6206237361697,148.18299298701822" id="d62" />
<path d="M593.6206237361697,128.1829929870182 L693.6206237361697,128.1829929870182" id="d63" />
<path d="M593.6206237361697,108.18299298701821 L693.6206237361697,108.18299298701821" id="d64" />
<path d="M593.6206237361697,88.18299298701822 L693.6206237361697,88.18299298701822" id="d65" />
<path d="M593.6206237361697,68.1829929870182 L693.6206237361697,68.1829929870182" id="d66" />
<path d="M593.6206237361698,48.18299298701821 L693.6206237361698,48.18299298701821" id="d67" />
<path d="M593.6206237361697,28.182992987018203 L693.6206237361697,28.182992987018203" id="d68" />
<path d="M593.6206237361697,8.182992987018203 L693.6206237361697,8.182992987018203" id="d69" />
<path d="M593.6206237361697,-11.817007012981797 L693.6206237361697,-11.817007012981797" id="d70" />
<path d="M593.6206237361697,-31.817007012981797 L693.6206237361697,-31.817007012981797" id="d71" />
</defs>
<g>
<path d="M115.38733374162412,0 L143.2394487827058,265 L190.9859317102744,645 L192.69845892727875,655.8595641855181 L195.08948454008055,666.5901690280838 L198.1495722629418,677.1494657327304 L201.8666453276415,687.4957815794485 L206.22603414496237,697.5882843863733 L211.21053419885777,707.3871436557517 L216.80047394481645,716.8536877667206 L222.97379244446165,725.9505565945265 L229.7061264299962,734.64184895387 L236.97090645489004,742.8932642844827 L244.73946175134728,750.6722380197676 L252.98113338072798,757.9480701042669 L261.66339523037266,764.6920461527543 L270.75198237930897,770.877550772796 L280.2110263262404,776.480172603545 L290.0031965461347,781.47780065623 L300.0898478167509,785.8507115761258 L310.4311727336765,789.5816474816247 L320.98635881196634,792.65588407321 L331.71374955437534,795.0612887435402 L342.5710088505217,796.788368459306 L353.5152880581736,797.8303072258971 L364.503395107264,798.1829929870182 L375.49196495925867,797.8450338530971 L386.4376307491519,796.8177635944364 L397.29719493466996,795.1052363774321 L408.02779977723554,792.7142107646303 L418.58709648188216,789.654123041769 L428.9334123286003,785.9370499770693 L439.0259151355251,781.5776611597483 L448.82477440490356,776.5931611058529 L458.2913185158724,771.0032213598943 L467.38818734367817,764.829902860249 L476.0794797030217,758.0975688747145 L484.3308950336344,750.8327888498206 L492.10986876891945,743.0642335533634 L499.3857008534186,734.8225619239827 L506.12967690190595,726.1403000743379 L512.3151815219477,717.0517129254017 L517.9178033526968,707.5926689784702 L522.9154314053816,697.8004987585759 L527.2883423252774,687.7138474879597 L531.0192782307763,677.3725225710341 L534.0935148223616,666.8173364927442 L536.4989194926917,656.0899457503352 L538.2259992084576,645.2326864541889 L539.2679379750485,634.288407246537 L539.6206237361697,623.3003001974465 L539.2826646022486,612.3117303454519 L538.2553943435879,601.3660645555586 L536.5428671265835,590.5065003700406 L534.1518415137816,579.775895527475 L531.0917537909204,569.2165988228284 L527.3746807262206,558.8702829761103 L523.0152919088997,548.7777801691855 L518.0307918550043,538.978920899807 L512.4408521090455,529.5123767888382 L506.2675336094003,520.4155079610324 L499.5351996238657,511.7242156016889 L492.2704195989718,503.47280027107627 L484.5018643025146,495.69382653579123 L476.2601926731338,488.4179944512921 L467.5779308234891,481.67401840280473 L458.4893436745528,475.488513782763 L449.03029972762135,469.88589195201405 L439.238129507727,464.88826389932916 L429.1514782371107,460.5153529794334 L418.8101533201852,456.78441707393455 L408.2549672418954,453.7101804823492 L397.5275764994863,451.3047758120191 L386.67031720333983,449.57769609625336 L375.726037995688,448.5357573296624 L364.7379309465977,448.1830715685412 L353.74936109460293,448.5210307024624 L342.80369530470966,449.54830096112306 L331.9441311191917,451.26082817812744 L321.21352627662617,453.6518537909293 L310.6542295719795,456.71194151379063 L300.3079137252613,460.42901457849047 L290.2154109183366,464.7884033958114 L280.41655164895826,469.7729034497068 L270.9500075379894,475.3628431956656 L261.85313871018354,481.53616169531085 L253.16184635084008,488.2684956808455 L244.91043102022746,495.5332757057393 L237.13145728494246,503.3018310021966 L229.85562520044326,511.54350263157744 L223.111649151956,520.2257644812221 L216.92614453191433,529.3143516301584 L211.3235227011653,538.7733955770899 L206.32589464848044,548.5655657969843 L201.9529837285847,558.6522170676004 L198.22204782308594,568.993541984526 L195.14781123150053,579.5487280628159 L192.74240656117053,590.276118805225 L191.0153268454048,601.1333781013714 L189.9733880788138,612.0776573090232 L189.6207023176927,623.0657643581136 L189.95866145161386,634.0543342101084" fill="none" stroke="black" />
</g>
<g>
<g>
<path d="M65.38733374162412,848.1829929870182 L589.6206237361697,848.1829929870182" fill="none" stroke="#999999" />
</g>
<path d="M65.38733374162412,848.1829929870182 L65.38733374162412,851.1829929870182" stroke="#999999" />
<text font-size="12" stroke="none" fill="#999999"><textPath xlink:href="#d0">
<tspan dy="0em">0mm</tspan>
</textPath></text>
<path d="M85.38733374162412,848.1829929870182 L85.38733374162412,851.1829929870182" stroke="#999999" />
<text font-size="12" stroke="none" fill="#999999"><textPath xlink:href="#d1">
<tspan dy="0em">20mm</tspan>
</textPath></text>
<path d="M105.38733374162413,848.1829929870182 L105.38733374162413,851.1829929870182" stroke="#999999" />
<text font-size="12" stroke="none" fill="#999999"><textPath xlink:href="#d2">
<tspan dy="0em">40mm</tspan>
</textPath></text>
<path d="M125.38733374162412,848.1829929870182 L125.38733374162412,851.1829929870182" stroke="#999999" />
<text font-size="12" stroke="none" fill="#999999"><textPath xlink:href="#d3">
<tspan dy="0em">60mm</tspan>
</textPath></text>
<path d="M145.38733374162413,848.1829929870182 L145.38733374162413,851.1829929870182" stroke="#999999" />
<text font-size="12" stroke="none" fill="#999999"><textPath xlink:href="#d4">
<tspan dy="0em">80mm</tspan>
</textPath></text>
<path d="M165.3873337416241,848.1829929870182 L165.3873337416241,851.1829929870182" stroke="#999999" />
<text font-size="12" stroke="none" fill="#999999"><textPath xlink:href="#d5">
<tspan dy="0em">100mm</tspan>
</textPath></text>
<path d="M185.38733374162413,848.1829929870182 L185.38733374162413,851.1829929870182" stroke="#999999" />
<text font-size="12" stroke="none" fill="#999999"><textPath xlink:href="#d6">
<tspan dy="0em">120mm</tspan>
</textPath></text>
<path d="M205.38733374162413,848.1829929870182 L205.38733374162413,851.1829929870182" stroke="#999999" />
<text font-size="12" stroke="none" fill="#999999"><textPath xlink:href="#d7">
<tspan dy="0em">140mm</tspan>
</textPath></text>
<path d="M225.38733374162416,848.1829929870182 L225.38733374162416,851.1829929870182" stroke="#999999" />
<text font-size="12" stroke="none" fill="#999999"><textPath xlink:href="#d8">
<tspan dy="0em">160mm</tspan>
</textPath></text>
<path d="M245.38733374162413,848.1829929870182 L245.38733374162413,851.1829929870182" stroke="#999999" />
<text font-size="12" stroke="none" fill="#999999"><textPath xlink:href="#d9">
<tspan dy="0em">180mm</tspan>
</textPath></text>
<path d="M265.3873337416241,848.1829929870182 L265.3873337416241,851.1829929870182" stroke="#999999" />
<text font-size="12" stroke="none" fill="#999999"><textPath xlink:href="#d10">
<tspan dy="0em">200mm</tspan>
</textPath></text>
<path d="M285.3873337416241,848.1829929870182 L285.3873337416241,851.1829929870182" stroke="#999999" />
<text font-size="12" stroke="none" fill="#999999"><textPath xlink:href="#d11">
<tspan dy="0em">220mm</tspan>
</textPath></text>
<path d="M305.38733374162416,848.1829929870182 L305.38733374162416,851.1829929870182" stroke="#999999" />
<text font-size="12" stroke="none" fill="#999999"><textPath xlink:href="#d12">
<tspan dy="0em">240mm</tspan>
</textPath></text>
<path d="M325.3873337416241,848.1829929870182 L325.3873337416241,851.1829929870182" stroke="#999999" />
<text font-size="12" stroke="none" fill="#999999"><textPath xlink:href="#d13">
<tspan dy="0em">260mm</tspan>
</textPath></text>
<path d="M345.38733374162416,848.1829929870182 L345.38733374162416,851.1829929870182" stroke="#999999" />
<text font-size="12" stroke="none" fill="#999999"><textPath xlink:href="#d14">
<tspan dy="0em">280mm</tspan>
</textPath></text>
<path d="M365.3873337416242,848.1829929870182 L365.3873337416242,851.1829929870182" stroke="#999999" />
<text font-size="12" stroke="none" fill="#999999"><textPath xlink:href="#d15">
<tspan dy="0em">300mm</tspan>
</textPath></text>
<path d="M385.38733374162416,848.1829929870182 L385.38733374162416,851.1829929870182" stroke="#999999" />
<text font-size="12" stroke="none" fill="#999999"><textPath xlink:href="#d16">
<tspan dy="0em">320mm</tspan>
</textPath></text>
<path d="M405.38733374162416,848.1829929870182 L405.38733374162416,851.1829929870182" stroke="#999999" />
<text font-size="12" stroke="none" fill="#999999"><textPath xlink:href="#d17">
<tspan dy="0em">340mm</tspan>
</textPath></text>
<path d="M425.38733374162416,848.1829929870182 L425.38733374162416,851.1829929870182" stroke="#999999" />
<text font-size="12" stroke="none" fill="#999999"><textPath xlink:href="#d18">
<tspan dy="0em">360mm</tspan>
</textPath></text>
<path d="M445.3873337416241,848.1829929870182 L445.3873337416241,851.1829929870182" stroke="#999999" />
<text font-size="12" stroke="none" fill="#999999"><textPath xlink:href="#d19">
<tspan dy="0em">380mm</tspan>
</textPath></text>
<path d="M465.3873337416241,848.1829929870182 L465.3873337416241,851.1829929870182" stroke="#999999" />
<text font-size="12" stroke="none" fill="#999999"><textPath xlink:href="#d20">
<tspan dy="0em">400mm</tspan>
</textPath></text>
<path d="M485.38733374162416,848.1829929870182 L485.38733374162416,851.1829929870182" stroke="#999999" />
<text font-size="12" stroke="none" fill="#999999"><textPath xlink:href="#d21">
<tspan dy="0em">420mm</tspan>
</textPath></text>
<path d="M505.38733374162416,848.1829929870182 L505.38733374162416,851.1829929870182" stroke="#999999" />
<text font-size="12" stroke="none" fill="#999999"><textPath xlink:href="#d22">
<tspan dy="0em">440mm</tspan>
</textPath></text>
<path d="M525.3873337416242,848.1829929870182 L525.3873337416242,851.1829929870182" stroke="#999999" />
<text font-size="12" stroke="none" fill="#999999"><textPath xlink:href="#d23">
<tspan dy="0em">460mm</tspan>
</textPath></text>
<path d="M545.3873337416242,848.1829929870182 L545.3873337416242,851.1829929870182" stroke="#999999" />
<text font-size="12" stroke="none" fill="#999999"><textPath xlink:href="#d24">
<tspan dy="0em">480mm</tspan>
</textPath></text>
<path d="M565.3873337416242,848.1829929870182 L565.3873337416242,851.1829929870182" stroke="#999999" />
<text font-size="12" stroke="none" fill="#999999"><textPath xlink:href="#d25">
<tspan dy="0em">500mm</tspan>
</textPath></text>
<path d="M585.3873337416242,848.1829929870182 L585.3873337416242,851.1829929870182" stroke="#999999" />
<text font-size="12" stroke="none" fill="#999999"><textPath xlink:href="#d26">
<tspan dy="0em">520mm</tspan>
</textPath></text>
</g>
<g>
<g>
<path d="M589.6206237361697,848.1829929870182 L589.6206237361697,-50" fill="none" stroke="#999999" />
</g>
<path d="M589.6206237361697,848.1829929870182 L592.6206237361697,848.1829929870182" stroke="#999999" />
<text font-size="12" stroke="none" fill="#999999"><textPath xlink:href="#d27">
<tspan dy="0em">0mm</tspan>
</textPath></text>
<path d="M589.6206237361697,828.1829929870182 L592.6206237361697,828.1829929870182" stroke="#999999" />
<text font-size="12" stroke="none" fill="#999999"><textPath xlink:href="#d28">
<tspan dy="0em">20mm</tspan>
</textPath></text>
<path d="M589.6206237361697,808.1829929870182 L592.6206237361697,808.1829929870182" stroke="#999999" />
<text font-size="12" stroke="none" fill="#999999"><textPath xlink:href="#d29">
<tspan dy="0em">40mm</tspan>
</textPath></text>
<path d="M589.6206237361697,788.1829929870182 L592.6206237361697,788.1829929870182" stroke="#999999" />
<text font-size="12" stroke="none" fill="#999999"><textPath xlink:href="#d30">
<tspan dy="0em">60mm</tspan>
</textPath></text>
<path d="M589.6206237361697,768.1829929870182 L592.6206237361697,768.1829929870182" stroke="#999999" />
<text font-size="12" stroke="none" fill="#999999"><textPath xlink:href="#d31">
<tspan dy="0em">80mm</tspan>
</textPath></text>
<path d="M589.6206237361697,748.1829929870182 L592.6206237361697,748.1829929870182" stroke="#999999" />
<text font-size="12" stroke="none" fill="#999999"><textPath xlink:href="#d32">
<tspan dy="0em">100mm</tspan>
</textPath></text>
<path d="M589.6206237361697,728.1829929870182 L592.6206237361697,728.1829929870182" stroke="#999999" />
<text font-size="12" stroke="none" fill="#999999"><textPath xlink:href="#d33">
<tspan dy="0em">120mm</tspan>
</textPath></text>
<path d="M589.6206237361697,708.1829929870182 L592.6206237361697,708.1829929870182" stroke="#999999" />
<text font-size="12" stroke="none" fill="#999999"><textPath xlink:href="#d34">
<tspan dy="0em">140mm</tspan>
</textPath></text>
<path d="M589.6206237361697,688.1829929870182 L592.6206237361697,688.1829929870182" stroke="#999999" />
<text font-size="12" stroke="none" fill="#999999"><textPath xlink:href="#d35">
<tspan dy="0em">160mm</tspan>
</textPath></text>
<path d="M589.6206237361697,668.1829929870182 L592.6206237361697,668.1829929870182" stroke="#999999" />
<text font-size="12" stroke="none" fill="#999999"><textPath xlink:href="#d36">
<tspan dy="0em">180mm</tspan>
</textPath></text>
<path d="M589.6206237361697,648.1829929870182 L592.6206237361697,648.1829929870182" stroke="#999999" />
<text font-size="12" stroke="none" fill="#999999"><textPath xlink:href="#d37">
<tspan dy="0em">200mm</tspan>
</textPath></text>
<path d="M589.6206237361697,628.1829929870182 L592.6206237361697,628.1829929870182" stroke="#999999" />
<text font-size="12" stroke="none" fill="#999999"><textPath xlink:href="#d38">
<tspan dy="0em">220mm</tspan>
</textPath></text>
<path d="M589.6206237361697,608.1829929870182 L592.6206237361697,608.1829929870182" stroke="#999999" />
<text font-size="12" stroke="none" fill="#999999"><textPath xlink:href="#d39">
<tspan dy="0em">240mm</tspan>
</textPath></text>
<path d="M589.6206237361697,588.1829929870182 L592.6206237361697,588.1829929870182" stroke="#999999" />
<text font-size="12" stroke="none" fill="#999999"><textPath xlink:href="#d40">
<tspan dy="0em">260mm</tspan>
</textPath></text>
<path d="M589.6206237361697,568.1829929870182 L592.6206237361697,568.1829929870182" stroke="#999999" />
<text font-size="12" stroke="none" fill="#999999"><textPath xlink:href="#d41">
<tspan dy="0em">280mm</tspan>
</textPath></text>
<path d="M589.6206237361697,548.1829929870182 L592.6206237361697,548.1829929870182" stroke="#999999" />
<text font-size="12" stroke="none" fill="#999999"><textPath xlink:href="#d42">
<tspan dy="0em">300mm</tspan>
</textPath></text>
<path d="M589.6206237361697,528.1829929870182 L592.6206237361697,528.1829929870182" stroke="#999999" />
<text font-size="12" stroke="none" fill="#999999"><textPath xlink:href="#d43">
<tspan dy="0em">320mm</tspan>
</textPath></text>
<path d="M589.6206237361697,508.1829929870182 L592.6206237361697,508.1829929870182" stroke="#999999" />
<text font-size="12" stroke="none" fill="#999999"><textPath xlink:href="#d44">
<tspan dy="0em">340mm</tspan>
</textPath></text>
<path d="M589.6206237361697,488.1829929870182 L592.6206237361697,488.1829929870182" stroke="#999999" />
<text font-size="12" stroke="none" fill="#999999"><textPath xlink:href="#d45">
<tspan dy="0em">360mm</tspan>
</textPath></text>
<path d="M589.6206237361697,468.1829929870182 L592.6206237361697,468.1829929870182" stroke="#999999" />
<text font-size="12" stroke="none" fill="#999999"><textPath xlink:href="#d46">
<tspan dy="0em">380mm</tspan>
</textPath></text>
<path d="M589.6206237361697,448.1829929870182 L592.6206237361697,448.1829929870182" stroke="#999999" />
<text font-size="12" stroke="none" fill="#999999"><textPath xlink:href="#d47">
<tspan dy="0em">400mm</tspan>
</textPath></text>
<path d="M589.6206237361697,428.1829929870182 L592.6206237361697,428.1829929870182" stroke="#999999" />
<text font-size="12" stroke="none" fill="#999999"><textPath xlink:href="#d48">
<tspan dy="0em">420mm</tspan>
</textPath></text>
<path d="M589.6206237361697,408.18299298701817 L592.6206237361697,408.18299298701817" stroke="#999999" />
<text font-size="12" stroke="none" fill="#999999"><textPath xlink:href="#d49">
<tspan dy="0em">440mm</tspan>
</textPath></text>
<path d="M589.6206237361697,388.1829929870182 L592.6206237361697,388.1829929870182" stroke="#999999" />
<text font-size="12" stroke="none" fill="#999999"><textPath xlink:href="#d50">
<tspan dy="0em">460mm</tspan>
</textPath></text>
<path d="M589.6206237361697,368.1829929870182 L592.6206237361697,368.1829929870182" stroke="#999999" />
<text font-size="12" stroke="none" fill="#999999"><textPath xlink:href="#d51">
<tspan dy="0em">480mm</tspan>
</textPath></text>
<path d="M589.6206237361697,348.1829929870182 L592.6206237361697,348.1829929870182" stroke="#999999" />
<text font-size="12" stroke="none" fill="#999999"><textPath xlink:href="#d52">
<tspan dy="0em">500mm</tspan>
</textPath></text>
<path d="M589.6206237361697,328.1829929870182 L592.6206237361697,328.1829929870182" stroke="#999999" />
<text font-size="12" stroke="none" fill="#999999"><textPath xlink:href="#d53">
<tspan dy="0em">520mm</tspan>
</textPath></text>
<path d="M589.6206237361697,308.1829929870182 L592.6206237361697,308.1829929870182" stroke="#999999" />
<text font-size="12" stroke="none" fill="#999999"><textPath xlink:href="#d54">
<tspan dy="0em">540mm</tspan>
</textPath></text>
<path d="M589.6206237361697,288.18299298701817 L592.6206237361697,288.18299298701817" stroke="#999999" />
<text font-size="12" stroke="none" fill="#999999"><textPath xlink:href="#d55">
<tspan dy="0em">560mm</tspan>
</textPath></text>
<path d="M589.6206237361697,268.1829929870182 L592.6206237361697,268.1829929870182" stroke="#999999" />
<text font-size="12" stroke="none" fill="#999999"><textPath xlink:href="#d56">
<tspan dy="0em">580mm</tspan>
</textPath></text>
<path d="M589.6206237361697,248.18299298701822 L592.6206237361697,248.18299298701822" stroke="#999999" />
<text font-size="12" stroke="none" fill="#999999"><textPath xlink:href="#d57">
<tspan dy="0em">600mm</tspan>
</textPath></text>
<path d="M589.6206237361697,228.18299298701822 L592.6206237361697,228.18299298701822" stroke="#999999" />
<text font-size="12" stroke="none" fill="#999999"><textPath xlink:href="#d58">
<tspan dy="0em">620mm</tspan>
</textPath></text>
<path d="M589.6206237361697,208.1829929870182 L592.6206237361697,208.1829929870182" stroke="#999999" />
<text font-size="12" stroke="none" fill="#999999"><textPath xlink:href="#d59">
<tspan dy="0em">640mm</tspan>
</textPath></text>
<path d="M589.6206237361697,188.1829929870182 L592.6206237361697,188.1829929870182" stroke="#999999" />
<text font-size="12" stroke="none" fill="#999999"><textPath xlink:href="#d60">
<tspan dy="0em">660mm</tspan>
</textPath></text>
<path d="M589.6206237361697,168.18299298701822 L592.6206237361697,168.18299298701822" stroke="#999999" />
<text font-size="12" stroke="none" fill="#999999"><textPath xlink:href="#d61">
<tspan dy="0em">680mm</tspan>
</textPath></text>
<path d="M589.6206237361697,148.18299298701822 L592.6206237361697,148.18299298701822" stroke="#999999" />
<text font-size="12" stroke="none" fill="#999999"><textPath xlink:href="#d62">
<tspan dy="0em">700mm</tspan>
</textPath></text>
<path d="M589.6206237361697,128.1829929870182 L592.6206237361697,128.1829929870182" stroke="#999999" />
<text font-size="12" stroke="none" fill="#999999"><textPath xlink:href="#d63">
<tspan dy="0em">720mm</tspan>
</textPath></text>
<path d="M589.6206237361697,108.18299298701821 L592.6206237361697,108.18299298701821" stroke="#999999" />
<text font-size="12" stroke="none" fill="#999999"><textPath xlink:href="#d64">
<tspan dy="0em">740mm</tspan>
</textPath></text>
<path d="M589.6206237361697,88.18299298701822 L592.6206237361697,88.18299298701822" stroke="#999999" />
<text font-size="12" stroke="none" fill="#999999"><textPath xlink:href="#d65">
<tspan dy="0em">760mm</tspan>
</textPath></text>
<path d="M589.6206237361697,68.1829929870182 L592.6206237361697,68.1829929870182" stroke="#999999" />
<text font-size="12" stroke="none" fill="#999999"><textPath xlink:href="#d66">
<tspan dy="0em">780mm</tspan>
</textPath></text>
<path d="M589.6206237361698,48.18299298701821 L592.6206237361698,48.18299298701821" stroke="#999999" />
<text font-size="12" stroke="none" fill="#999999"><textPath xlink:href="#d67">
<tspan dy="0em">800mm</tspan>
</textPath></text>
<path d="M589.6206237361697,28.182992987018203 L592.6206237361697,28.182992987018203" stroke="#999999" />
<text font-size="12" stroke="none" fill="#999999"><textPath xlink:href="#d68">
<tspan dy="0em">820mm</tspan>
</textPath></text>
<path d="M589.6206237361697,8.182992987018203 L592.6206237361697,8.182992987018203" stroke="#999999" />
<text font-size="12" stroke="none" fill="#999999"><textPath xlink:href="#d69">
<tspan dy="0em">840mm</tspan>
</textPath></text>
<path d="M589.6206237361697,-11.817007012981797 L592.6206237361697,-11.817007012981797" stroke="#999999" />
<text font-size="12" stroke="none" fill="#999999"><textPath xlink:href="#d70">
<tspan dy="0em">860mm</tspan>
</textPath></text>
<path d="M589.6206237361697,-31.817007012981797 L592.6206237361697,-31.817007012981797" stroke="#999999" />
<text font-size="12" stroke="none" fill="#999999"><textPath xlink:href="#d71">
<tspan dy="0em">880mm</tspan>
</textPath></text>
</g>
</svg>