<?xml version="1.0" encoding="UTF-8"?>
<svg xmlns="http://www.w3.org/2000/svg" xmlns:xlink="http://www.w3.org/1999/xlink"
     width="442.9527290535526" height="300" viewBox="-92.95272905355262 -200 442.9527290535526 300" stroke="black" fill="none">
<defs>
<marker markerWidth="8.0" markerHeight="8.0" viewBox="-0.1 -0.5 1.0 1.0" orient="auto" id="d0">
<path d="M-0.1,0.5 L-0.1,-0.5 L0.9,0 Z" fill="black" stroke="none" />
</marker>
<path d="M100.0,-0.0 L99.80267284282715,-6.279051952931337 L99.21147013144778,-12.533323356430426 L98.22872507286887,-18.738131458572465 L96.85831611286311,-24.86898871648548 L95.10565162951536,-30.901699437494745 L92.97764858882515,-36.8124552684678 L90.48270524660195,-42.577929156507274 L87.63066800438637,-48.17536741017153 L84.43279255020151,-53.58267949789967 L80.90169943749474,-58.778525229247315 L77.05132427757891,-63.742398974868976 L72.89686274214115,-68.45471059286888 L68.45471059286886,-72.89686274214115 L63.74239897486897,-77.05132427757894 L58.77852522924731,-80.90169943749476 L53.582679497899655,-84.43279255020151 L48.17536741017152,-87.63066800438637 L42.57792915650727,-90.48270524660195 L36.81245526846779,-92.97764858882515 L30.90169943749475,-95.10565162951536 L24.86898871648548,-96.85831611286312 L18.73813145857245,-98.22872507286887 L7.047270946447391,-99.73005476749935" fill="none" stroke="black" id="d1" />
<path d="M250.0,-0.0 L249.80267284282715,-6.279051952931337 L249.21147013144778,-12.533323356430426 L248.22872507286888,-18.738131458572465 L246.85831611286312,-24.86898871648548 L245.10565162951536,-30.901699437494745 L242.97764858882516,-36.8124552684678 L240.48270524660194,-42.577929156507274 L237.63066800438637,-48.17536741017153 L234.4327925502015,-53.58267949789967 L230.90169943749476,-58.778525229247315 L227.0513242775789,-63.742398974868976 L222.89686274214114,-68.45471059286888 L217.1328152285388,-74.06227027249327" fill="none" stroke="black" id="d2" />
</defs>
<g>
<circle cx="90" cy="-100" r="1" fill="black" />
<text x="92" y="-102" font-size="12" fill="#000000" stroke="none" dy="0em">P</text>
</g>
<g>
<circle cx="100" cy="0" r="1" fill="black" />
<text x="102" y="-2" font-size="12" fill="#000000" stroke="none" dy="0em">Q</text>
</g>
<g>
<path d="M90,-100 L67.13281522853877,-74.06227027249327" fill="none" stroke="black" marker-end="url(#d0)" stroke-dasharray="3" />
</g>
<g>
<path d="M100.0,-0.0 L99.80267284282715,-6.279051952931337 L99.21147013144778,-12.533323356430426 L98.22872507286887,-18.738131458572465 L96.85831611286311,-24.86898871648548 L95.10565162951536,-30.901699437494745 L92.97764858882515,-36.8124552684678 L90.48270524660195,-42.577929156507274 L87.63066800438637,-48.17536741017153 L84.43279255020151,-53.58267949789967 L80.90169943749474,-58.778525229247315 L77.05132427757891,-63.742398974868976 L72.89686274214115,-68.45471059286888 L68.45471059286886,-72.89686274214115 L63.74239897486897,-77.05132427757894 L58.77852522924731,-80.90169943749476 L53.582679497899655,-84.43279255020151 L48.17536741017152,-87.63066800438637 L42.57792915650727,-90.48270524660195 L36.81245526846779,-92.97764858882515 L30.90169943749475,-95.10565162951536 L24.86898871648548,-96.85831611286312 L18.73813145857245,-98.22872507286887 L7.047270946447391,-99.73005476749935" fill="none" stroke="black" />
<text font-size="12" stroke="none" fill="#000000"><textPath xlink:href="#d1" startOffset="10">
<tspan dy="-1em">Original</tspan>
</textPath></text>
</g>
<g>
<path d="M250.0,-0.0 L249.80267284282715,-6.279051952931337 L249.21147013144778,-12.533323356430426 L248.22872507286888,-18.738131458572465 L246.85831611286312,-24.86898871648548 L245.10565162951536,-30.901699437494745 L242.97764858882516,-36.8124552684678 L240.48270524660194,-42.577929156507274 L237.63066800438637,-48.17536741017153 L234.4327925502015,-53.58267949789967 L230.90169943749476,-58.778525229247315 L227.0513242775789,-63.742398974868976 L222.89686274214114,-68.45471059286888 L217.1328152285388,-74.06227027249327" fill="none" stroke="black" />
<text font-size="12" stroke="none" fill="#000000"><textPath xlink:href="#d2" startOffset="10">
<tspan dy="-1em">sliced</tspan>
</textPath></text>
</g>
<g>
<circle cx="250.0" cy="-0.0" r="1" fill="black" />
</g>
<g>
<circle cx="249.80267284282715" cy="-6.279051952931337" r="1" fill="black" />
</g>
<g>
<circle cx="249.21147013144778" cy="-12.533323356430426" r="1" fill="black" />
</g>
<g>
<circle cx="248.22872507286888" cy="-18.738131458572465" r="1" fill="black" />
</g>
<g>
<circle cx="246.85831611286312" cy="-24.86898871648548" r="1" fill="black" />
</g>
<g>
<circle cx="245.10565162951536" cy="-30.901699437494745" r="1" fill="black" />
</g>
<g>
<circle cx="242.97764858882516" cy="-36.8124552684678" r="1" fill="black" />
</g>
<g>
<circle cx="240.48270524660194" cy="-42.577929156507274" r="1" fill="black" />
</g>
<g>
<circle cx="237.63066800438637" cy="-48.17536741017153" r="1" fill="black" />
</g>
<g>
<circle cx="234.4327925502015" cy="-53.58267949789967" r="1" fill="black" />
</g>
<g>
<circle cx="230.90169943749476" cy="-58.778525229247315" r="1" fill="black" />
</g>
<g>
<circle cx="227.0513242775789" cy="-63.742398974868976" r="1" fill="black" />
</g>
<g>
<circle cx="222.89686274214114" cy="-68.45471059286888" r="1" fill="black" />
</g>
<g>
<circle cx="217.1328152285388" cy="-74.06227027249327" r="1" fill="black" />
</g>
</svg>