<?xml version="1.0" encoding="UTF-8"?>
<svg xmlns="http://www.w3.org/2000/svg" xmlns:xlink="http://www.w3.org/1999/xlink"
     width="440.0" height="812.5" viewBox="-100.0 -112.5 440.0 812.5" stroke="black" fill="none">
<defs>
</defs>
<path d="M-100.0,700.0 L340.0,700.0" stroke="#dddddd" />
<path d="M-100.0,490.0 L340.0,490.0" stroke="#dddddd" />
<path d="M-100.0,280.0 L340.0,280.0" stroke="#dddddd" />
<path d="M-100.0,70.0 L340.0,70.0" stroke="#dddddd" />
<path d="M-100.0,700.0 L-100.0,-112.5" stroke="#dddddd" />
<path d="M197.0,700.0 L197.0,-112.5" stroke="#dddddd" />
<text x="48.5" y="595.0" font-size="10" stroke="none" fill="#dddddd" dy="0em">α0</text>
<text x="48.5" y="385.0" font-size="10" stroke="none" fill="#dddddd" dy="0em">α1</text>
<text x="48.5" y="175.0" font-size="10" stroke="none" fill="#dddddd" dy="0em">α2</text>
<text x="48.5" y="-35.0" font-size="10" stroke="none" fill="#dddddd" dy="0em">α3</text>
<path d="M-100.0,700.0 L340.0,700.0" stroke="#ffcccc66" stroke-dasharray="5" />
<text x="-99.0" y="698.0" font-size="8" stroke="none" fill="#ffcccc66" dy="0em">-100mm</text>
<path d="M-100.0,650.0 L340.0,650.0" stroke="#ffcccc66" stroke-dasharray="5" />
<text x="-99.0" y="648.0" font-size="8" stroke="none" fill="#ffcccc66" dy="0em">-50mm</text>
<path d="M-100.0,600.0 L340.0,600.0" stroke="#ffcccc66" stroke-dasharray="5" />
<text x="-99.0" y="598.0" font-size="8" stroke="none" fill="#ffcccc66" dy="0em">0mm</text>
<path d="M-100.0,550.0 L340.0,550.0" stroke="#ffcccc66" stroke-dasharray="5" />
<text x="-99.0" y="548.0" font-size="8" stroke="none" fill="#ffcccc66" dy="0em">50mm</text>
<path d="M-100.0,500.0 L340.0,500.0" stroke="#ffcccc66" stroke-dasharray="5" />
<text x="-99.0" y="498.0" font-size="8" stroke="none" fill="#ffcccc66" dy="0em">100mm</text>
<path d="M-100.0,450.0 L340.0,450.0" stroke="#ffcccc66" stroke-dasharray="5" />
<text x="-99.0" y="448.0" font-size="8" stroke="none" fill="#ffcccc66" dy="0em">150mm</text>
<path d="M-100.0,400.0 L340.0,400.0" stroke="#ffcccc66" stroke-dasharray="5" />
<text x="-99.0" y="398.0" font-size="8" stroke="none" fill="#ffcccc66" dy="0em">200mm</text>
<path d="M-100.0,350.0 L340.0,350.0" stroke="#ffcccc66" stroke-dasharray="5" />
<text x="-99.0" y="348.0" font-size="8" stroke="none" fill="#ffcccc66" dy="0em">250mm</text>
<path d="M-100.0,300.0 L340.0,300.0" stroke="#ffcccc66" stroke-dasharray="5" />
<text x="-99.0" y="298.0" font-size="8" stroke="none" fill="#ffcccc66" dy="0em">300mm</text>
<path d="M-100.0,250.0 L340.0,250.0" stroke="#ffcccc66" stroke-dasharray="5" />
<text x="-99.0" y="248.0" font-size="8" stroke="none" fill="#ffcccc66" dy="0em">350mm</text>
<path d="M-100.0,200.0 L340.0,200.0" stroke="#ffcccc66" stroke-dasharray="5" />
<text x="-99.0" y="198.0" font-size="8" stroke="none" fill="#ffcccc66" dy="0em">400mm</text>
<path d="M-100.0,150.0 L340.0,150.0" stroke="#ffcccc66" stroke-dasharray="5" />
<text x="-99.0" y="148.0" font-size="8" stroke="none" fill="#ffcccc66" dy="0em">450mm</text>
<path d="M-100.0,100.0 L340.0,100.0" stroke="#ffcccc66" stroke-dasharray="5" />
<text x="-99.0" y="98.0" font-size="8" stroke="none" fill="#ffcccc66" dy="0em">500mm</text>
<path d="M-100.0,50.0 L340.0,50.0" stroke="#ffcccc66" stroke-dasharray="5" />
<text x="-99.0" y="48.0" font-size="8" stroke="none" fill="#ffcccc66" dy="0em">550mm</text>
<path d="M-100.0,-0.0 L340.0,-0.0" stroke="#ffcccc66" stroke-dasharray="5" />
<text x="-99.0" y="-2.0" font-size="8" stroke="none" fill="#ffcccc66" dy="0em">600mm</text>
<path d="M-100.0,-50.0 L340.0,-50.0" stroke="#ffcccc66" stroke-dasharray="5" />
<text x="-99.0" y="-52.0" font-size="8" stroke="none" fill="#ffcccc66" dy="0em">650mm</text>
<path d="M-100.0,-100.0 L340.0,-100.0" stroke="#ffcccc66" stroke-dasharray="5" />
<text x="-99.0" y="-102.0" font-size="8" stroke="none" fill="#ffcccc66" dy="0em">700mm</text>
<path d="M-100.0,700.0 L-100.0,-112.5" stroke="#ffcccc66" stroke-dasharray="5" />
<text x="-98.0" y="699.0" font-size="8" stroke="none" fill="#ffcccc66" dy="0em">-100mm</text>
<path d="M-50.0,700.0 L-50.0,-112.5" stroke="#ffcccc66" stroke-dasharray="5" />
<text x="-48.0" y="699.0" font-size="8" stroke="none" fill="#ffcccc66" dy="0em">-50mm</text>
<path d="M0.0,700.0 L0.0,-112.5" stroke="#ffcccc66" stroke-dasharray="5" />
<text x="2.0" y="699.0" font-size="8" stroke="none" fill="#ffcccc66" dy="0em">0mm</text>
<path d="M50.0,700.0 L50.0,-112.5" stroke="#ffcccc66" stroke-dasharray="5" />
<text x="52.0" y="699.0" font-size="8" stroke="none" fill="#ffcccc66" dy="0em">50mm</text>
<path d="M100.0,700.0 L100.0,-112.5" stroke="#ffcccc66" stroke-dasharray="5" />
<text x="102.0" y="699.0" font-size="8" stroke="none" fill="#ffcccc66" dy="0em">100mm</text>
<path d="M150.0,700.0 L150.0,-112.5" stroke="#ffcccc66" stroke-dasharray="5" />
<text x="152.0" y="699.0" font-size="8" stroke="none" fill="#ffcccc66" dy="0em">150mm</text>
<path d="M200.0,700.0 L200.0,-112.5" stroke="#ffcccc66" stroke-dasharray="5" />
<text x="202.0" y="699.0" font-size="8" stroke="none" fill="#ffcccc66" dy="0em">200mm</text>
<path d="M250.0,700.0 L250.0,-112.5" stroke="#ffcccc66" stroke-dasharray="5" />
<text x="252.0" y="699.0" font-size="8" stroke="none" fill="#ffcccc66" dy="0em">250mm</text>
<path d="M300.0,700.0 L300.0,-112.5" stroke="#ffcccc66" stroke-dasharray="5" />
<text x="302.0" y="699.0" font-size="8" stroke="none" fill="#ffcccc66" dy="0em">300mm</text>
<g>
<g>
<path d="M0.0,-0.0 L0.0,600.0 L240.0,600.0 L0.0,-0.0" fill="#E6E6FA66" stroke="black" />
</g>
<g>
<path d="M240.0,600.0 L240.0,265.0 L223.75,-12.5 L240.0,600.0" fill="#E6E6FA66" stroke="black" />
</g>
<g>
<path d="M240.0,600.0 L223.75,-12.5 L159.15109809326995,-8.891122798506702 L240.0,600.0" fill="#E6E6FA66" stroke="black" />
</g>
<g>
<path d="M240.0,600.0 L156.13903498133365,116.4720594992067 L82.39238584576032,135.61537330577818 L240.0,600.0" fill="#E6E6FA66" stroke="black" />
</g>
<g>
<path d="M0.0,-0.0 L240.0,600.0 L82.39238584576032,135.61537330577818 L0.0,-0.0" fill="#E6E6FA66" stroke="black" />
</g>
<g>
<path d="M0.0,-0.0 L0.0,600.0 L240.0,600.0 L0.0,-0.0" fill="#E6E6FA66" stroke="black" />
</g>
<g>
<path d="M240.0,600.0 L240.0,265.0 L223.75,-12.5 L240.0,600.0" fill="#E6E6FA66" stroke="black" />
</g>
<g>
<path d="M240.0,600.0 L223.75,-12.5 L159.15109809326995,-8.891122798506702 L240.0,600.0" fill="#E6E6FA66" stroke="black" />
</g>
<g>
<path d="M240.0,600.0 L156.13903498133365,116.4720594992067 L82.39238584576032,135.61537330577818 L240.0,600.0" fill="#E6E6FA66" stroke="black" />
</g>
<g>
<path d="M0.0,-0.0 L240.0,600.0 L82.39238584576032,135.61537330577818 L0.0,-0.0" fill="#E6E6FA66" stroke="black" />
</g>
<g>
<path d="M84.41277542969556,5.274342711396665 L84.56776475993651,-4.724456131840029 L156.13903498133365,116.4720594992067 L84.41277542969556,5.274342711396665" fill="#E6E6FA66" stroke="black" />
</g>
<g>
<path d="M84.41277542969556,5.274342711396665 L84.56776475993651,-4.724456131840029 L156.13903498133365,116.4720594992067 L84.41277542969556,5.274342711396665" fill="#E6E6FA66" stroke="black" />
</g>
<g>
<path d="M67.13436838605641,16.229757069348345 L64.5989019067301,-3.6088772014933017 L0.0,-0.0 L67.13436838605641,16.229757069348345" fill="#E6E6FA66" stroke="black" />
</g>
<g>
<path d="M67.13436838605641,16.229757069348345 L64.5989019067301,-3.6088772014933017 L0.0,-0.0 L67.13436838605641,16.229757069348345" fill="#E6E6FA66" stroke="black" />
</g>
<g>
<path d="M84.10279676921364,25.27194039787005 L84.41277542969556,5.274342711396665 L156.13903498133365,116.4720594992067 L84.10279676921364,25.27194039787005" fill="#E6E6FA66" stroke="black" />
</g>
<g>
<path d="M84.10279676921364,25.27194039787005 L84.41277542969556,5.274342711396665 L156.13903498133365,116.4720594992067 L84.10279676921364,25.27194039787005" fill="#E6E6FA66" stroke="black" />
</g>
<g>
<path d="M69.66983486538271,36.06839134018999 L67.13436838605641,16.229757069348345 L82.39238584576032,135.61537330577818 L69.66983486538271,36.06839134018999" fill="#E6E6FA66" stroke="black" />
</g>
<g>
<path d="M69.66983486538271,36.06839134018999 L67.13436838605641,16.229757069348345 L0.0,-0.0 L69.66983486538271,36.06839134018999" fill="#E6E6FA66" stroke="black" />
</g>
<g>
<path d="M69.66983486538271,36.06839134018999 L67.13436838605641,16.229757069348345 L82.39238584576032,135.61537330577818 L69.66983486538271,36.06839134018999" fill="#E6E6FA66" stroke="black" />
</g>
<g>
<path d="M69.66983486538271,36.06839134018999 L67.13436838605641,16.229757069348345 L0.0,-0.0 L69.66983486538271,36.06839134018999" fill="#E6E6FA66" stroke="black" />
</g>
<g>
<path d="M83.79281810873174,45.26953808434344 L84.10279676921364,25.27194039787005 L156.13903498133365,116.4720594992067 L83.79281810873174,45.26953808434344" fill="#E6E6FA66" stroke="black" />
</g>
<g>
<path d="M83.79281810873174,45.26953808434344 L84.10279676921364,25.27194039787005 L156.13903498133365,116.4720594992067 L83.79281810873174,45.26953808434344" fill="#E6E6FA66" stroke="black" />
</g>
<g>
<path d="M76.00850106369847,85.6649770172941 L69.66983486538271,36.06839134018999 L0.0,-0.0 L76.00850106369847,85.6649770172941" fill="#E6E6FA66" stroke="black" />
</g>
<g>
<path d="M76.00850106369847,85.6649770172941 L69.66983486538271,36.06839134018999 L0.0,-0.0 L76.00850106369847,85.6649770172941" fill="#E6E6FA66" stroke="black" />
</g>
<g>
<path d="M77.27623430336163,95.58429415271493 L82.39238584576032,135.61537330577818 L0.0,-0.0 L77.27623430336163,95.58429415271493" fill="#E6E6FA66" stroke="black" />
</g>
<g>
<path d="M77.27623430336163,95.58429415271493 L76.00850106369847,85.6649770172941 L0.0,-0.0 L77.27623430336163,95.58429415271493" fill="#E6E6FA66" stroke="black" />
</g>
<g>
<path d="M77.27623430336163,95.58429415271493 L82.39238584576032,135.61537330577818 L0.0,-0.0 L77.27623430336163,95.58429415271493" fill="#E6E6FA66" stroke="black" />
</g>
<g>
<path d="M77.27623430336163,95.58429415271493 L76.00850106369847,85.6649770172941 L0.0,-0.0 L77.27623430336163,95.58429415271493" fill="#E6E6FA66" stroke="black" />
</g>
<g>
<path d="M82.39791413656313,135.2587276734737 L83.79281810873174,45.26953808434344 L156.13903498133365,116.4720594992067 L82.39791413656313,135.2587276734737" fill="#E6E6FA66" stroke="black" />
</g>
<g>
<path d="M82.39791413656313,135.2587276734737 L156.13903498133365,116.4720594992067 L82.39238584576032,135.61537330577818 L82.39791413656313,135.2587276734737" fill="#E6E6FA66" stroke="black" />
</g>
<g>
<path d="M82.39791413656313,135.2587276734737 L83.79281810873174,45.26953808434344 L156.13903498133365,116.4720594992067 L82.39791413656313,135.2587276734737" fill="#E6E6FA66" stroke="black" />
</g>
<g>
<path d="M82.39791413656313,135.2587276734737 L156.13903498133365,116.4720594992067 L82.39238584576032,135.61537330577818 L82.39791413656313,135.2587276734737" fill="#E6E6FA66" stroke="black" />
</g>
<g>
<path d="M158.9109004508785,1.105992039914911 L240.0,600.0 L159.15109809326995,-8.891122798506702 L158.9109004508785,1.105992039914911" fill="#E6E6FA66" stroke="black" />
</g>
<g>
<path d="M158.9109004508785,1.105992039914911 L159.15109809326995,-8.891122798506702 L156.13903498133365,116.4720594992067 L158.9109004508785,1.105992039914911" fill="#E6E6FA66" stroke="black" />
</g>
<g>
<path d="M158.9109004508785,1.105992039914911 L240.0,600.0 L159.15109809326995,-8.891122798506702 L158.9109004508785,1.105992039914911" fill="#E6E6FA66" stroke="black" />
</g>
<g>
<path d="M158.9109004508785,1.105992039914911 L159.15109809326995,-8.891122798506702 L156.13903498133365,116.4720594992067 L158.9109004508785,1.105992039914911" fill="#E6E6FA66" stroke="black" />
</g>
<g>
<path d="M140.5344590046376,2.132608880487031 L84.56776475993651,-4.724456131840029 L139.18223524006356,-7.775543868159976 L140.5344590046376,2.132608880487031" fill="#E6E6FA66" stroke="black" />
</g>
<g>
<path d="M140.5344590046376,2.132608880487031 L84.56776475993651,-4.724456131840029 L139.18223524006356,-7.775543868159976 L140.5344590046376,2.132608880487031" fill="#E6E6FA66" stroke="black" />
</g>
<g>
<path d="M158.67070280848705,11.103106878336522 L158.9109004508785,1.105992039914911 L240.0,600.0 L158.67070280848705,11.103106878336522" fill="#E6E6FA66" stroke="black" />
</g>
<g>
<path d="M158.67070280848705,11.103106878336522 L158.9109004508785,1.105992039914911 L240.0,600.0 L158.67070280848705,11.103106878336522" fill="#E6E6FA66" stroke="black" />
</g>
<g>
<path d="M141.88668276921163,12.040761629134035 L140.5344590046376,2.132608880487031 L84.56776475993651,-4.724456131840029 L141.88668276921163,12.040761629134035" fill="#E6E6FA66" stroke="black" />
</g>
<g>
<path d="M141.88668276921163,12.040761629134035 L140.5344590046376,2.132608880487031 L84.56776475993651,-4.724456131840029 L141.88668276921163,12.040761629134035" fill="#E6E6FA66" stroke="black" />
</g>
<g>
<path d="M158.4305051660956,21.10022171675814 L158.67070280848705,11.103106878336522 L240.0,600.0 L158.4305051660956,21.10022171675814" fill="#E6E6FA66" stroke="black" />
</g>
<g>
<path d="M158.4305051660956,21.10022171675814 L158.67070280848705,11.103106878336522 L240.0,600.0 L158.4305051660956,21.10022171675814" fill="#E6E6FA66" stroke="black" />
</g>
<g>
<path d="M143.23890653378567,21.948914377781044 L141.88668276921163,12.040761629134035 L84.56776475993651,-4.724456131840029 L143.23890653378567,21.948914377781044" fill="#E6E6FA66" stroke="black" />
</g>
<g>
<path d="M143.23890653378567,21.948914377781044 L141.88668276921163,12.040761629134035 L84.56776475993651,-4.724456131840029 L143.23890653378567,21.948914377781044" fill="#E6E6FA66" stroke="black" />
</g>
<g>
<path d="M157.9501098813127,41.09445139360137 L158.4305051660956,21.10022171675814 L240.0,600.0 L157.9501098813127,41.09445139360137" fill="#E6E6FA66" stroke="black" />
</g>
<g>
<path d="M157.9501098813127,41.09445139360137 L158.4305051660956,21.10022171675814 L156.13903498133365,116.4720594992067 L157.9501098813127,41.09445139360137" fill="#E6E6FA66" stroke="black" />
</g>
<g>
<path d="M157.9501098813127,41.09445139360137 L158.4305051660956,21.10022171675814 L240.0,600.0 L157.9501098813127,41.09445139360137" fill="#E6E6FA66" stroke="black" />
</g>
<g>
<path d="M157.9501098813127,41.09445139360137 L158.4305051660956,21.10022171675814 L156.13903498133365,116.4720594992067 L157.9501098813127,41.09445139360137" fill="#E6E6FA66" stroke="black" />
</g>
<g>
<path d="M145.94335406293374,41.765219875075054 L143.23890653378567,21.948914377781044 L84.56776475993651,-4.724456131840029 L145.94335406293374,41.765219875075054" fill="#E6E6FA66" stroke="black" />
</g>
<g>
<path d="M145.94335406293374,41.765219875075054 L143.23890653378567,21.948914377781044 L84.56776475993651,-4.724456131840029 L145.94335406293374,41.765219875075054" fill="#E6E6FA66" stroke="black" />
</g>
<g>
<path d="M157.70991223892125,51.09156623202298 L157.9501098813127,41.09445139360137 L240.0,600.0 L157.70991223892125,51.09156623202298" fill="#E6E6FA66" stroke="black" />
</g>
<g>
<path d="M157.70991223892125,51.09156623202298 L157.9501098813127,41.09445139360137 L240.0,600.0 L157.70991223892125,51.09156623202298" fill="#E6E6FA66" stroke="black" />
</g>
<g>
<path d="M148.6478015920818,61.58152537236907 L145.94335406293374,41.765219875075054 L84.56776475993651,-4.724456131840029 L148.6478015920818,61.58152537236907" fill="#E6E6FA66" stroke="black" />
</g>
<g>
<path d="M148.6478015920818,61.58152537236907 L145.94335406293374,41.765219875075054 L84.56776475993651,-4.724456131840029 L148.6478015920818,61.58152537236907" fill="#E6E6FA66" stroke="black" />
</g>
<g>
<path d="M151.35224912122987,81.3978308696631 L148.6478015920818,61.58152537236907 L84.56776475993651,-4.724456131840029 L151.35224912122987,81.3978308696631" fill="#E6E6FA66" stroke="black" />
</g>
<g>
<path d="M151.35224912122987,81.3978308696631 L148.6478015920818,61.58152537236907 L84.56776475993651,-4.724456131840029 L151.35224912122987,81.3978308696631" fill="#E6E6FA66" stroke="black" />
</g>
<g>
<path d="M152.7044728858039,91.30598361831008 L151.35224912122987,81.3978308696631 L84.56776475993651,-4.724456131840029 L152.7044728858039,91.30598361831008" fill="#E6E6FA66" stroke="black" />
</g>
<g>
<path d="M152.7044728858039,91.30598361831008 L151.35224912122987,81.3978308696631 L84.56776475993651,-4.724456131840029 L152.7044728858039,91.30598361831008" fill="#E6E6FA66" stroke="black" />
</g>
<g>
<path d="M156.50892402696397,101.07714042413104 L157.70991223892125,51.09156623202298 L240.0,600.0 L156.50892402696397,101.07714042413104" fill="#E6E6FA66" stroke="black" />
</g>
<g>
<path d="M156.50892402696397,101.07714042413104 L157.70991223892125,51.09156623202298 L156.13903498133365,116.4720594992067 L156.50892402696397,101.07714042413104" fill="#E6E6FA66" stroke="black" />
</g>
<g>
<path d="M156.50892402696397,101.07714042413104 L157.70991223892125,51.09156623202298 L240.0,600.0 L156.50892402696397,101.07714042413104" fill="#E6E6FA66" stroke="black" />
</g>
<g>
<path d="M156.50892402696397,101.07714042413104 L157.70991223892125,51.09156623202298 L156.13903498133365,116.4720594992067 L156.50892402696397,101.07714042413104" fill="#E6E6FA66" stroke="black" />
</g>
<g>
<path d="M154.05669665037794,101.2141363669571 L152.7044728858039,91.30598361831008 L84.56776475993651,-4.724456131840029 L154.05669665037794,101.2141363669571" fill="#E6E6FA66" stroke="black" />
</g>
<g>
<path d="M154.05669665037794,101.2141363669571 L84.56776475993651,-4.724456131840029 L156.13903498133365,116.4720594992067 L154.05669665037794,101.2141363669571" fill="#E6E6FA66" stroke="black" />
</g>
<g>
<path d="M154.05669665037794,101.2141363669571 L152.7044728858039,91.30598361831008 L84.56776475993651,-4.724456131840029 L154.05669665037794,101.2141363669571" fill="#E6E6FA66" stroke="black" />
</g>
<g>
<path d="M154.05669665037794,101.2141363669571 L84.56776475993651,-4.724456131840029 L156.13903498133365,116.4720594992067 L154.05669665037794,101.2141363669571" fill="#E6E6FA66" stroke="black" />
</g>
<g>
<path d="M156.26872638457252,111.07425526255267 L156.50892402696397,101.07714042413104 L240.0,600.0 L156.26872638457252,111.07425526255267" fill="#E6E6FA66" stroke="black" />
</g>
<g>
<path d="M156.26872638457252,111.07425526255267 L240.0,600.0 L156.13903498133365,116.4720594992067 L156.26872638457252,111.07425526255267" fill="#E6E6FA66" stroke="black" />
</g>
<g>
<path d="M156.26872638457252,111.07425526255267 L156.50892402696397,101.07714042413104 L240.0,600.0 L156.26872638457252,111.07425526255267" fill="#E6E6FA66" stroke="black" />
</g>
<g>
<path d="M156.26872638457252,111.07425526255267 L240.0,600.0 L156.13903498133365,116.4720594992067 L156.26872638457252,111.07425526255267" fill="#E6E6FA66" stroke="black" />
</g>
<g>
<path d="M84.56776475993651,-4.724456131840029 L64.5989019067301,-3.6088772014933017" fill="none" stroke="black" />
</g>
<g>
<path d="M84.41277542969556,5.274342711396665 L65.86663514639326,6.310439933927521" fill="none" stroke="black" />
</g>
<g>
<path d="M84.25778609945459,15.273141554633359 L67.13436838605641,16.229757069348345" fill="none" stroke="black" />
</g>
<g>
<path d="M84.10279676921364,25.27194039787005 L68.40210162571957,26.149074204769164" fill="none" stroke="black" />
</g>
<g>
<path d="M83.94780743897269,35.270739241106746 L69.66983486538271,36.06839134018999" fill="none" stroke="black" />
</g>
<g>
<path d="M83.79281810873174,45.26953808434344 L70.93756810504587,45.987708475610816" fill="none" stroke="black" />
</g>
<g>
<path d="M83.63782877849077,55.26833692758013 L72.20530134470903,55.907025611031635" fill="none" stroke="black" />
</g>
<g>
<path d="M83.48283944824982,65.26713577081682 L73.47303458437219,65.82634274645247" fill="none" stroke="black" />
</g>
<g>
<path d="M83.32785011800885,75.26593461405352 L74.74076782403533,75.74565988187328" fill="none" stroke="black" />
</g>
<g>
<path d="M83.17286078776792,85.2647334572902 L76.00850106369847,85.6649770172941" fill="none" stroke="black" />
</g>
<g>
<path d="M83.01787145752695,95.2635323005269 L77.27623430336163,95.58429415271493" fill="none" stroke="black" />
</g>
<g>
<path d="M82.86288212728599,105.2623311437636 L78.54396754302479,105.50361128813576" fill="none" stroke="black" />
</g>
<g>
<path d="M82.70789279704503,115.26112998700029 L79.81170078268794,115.42292842355657" fill="none" stroke="black" />
</g>
<g>
<path d="M82.55290346680408,125.25992883023699 L81.0794340223511,125.3422455589774" fill="none" stroke="black" />
</g>
<g>
<path d="M82.39791413656313,135.2587276734737 L82.34716726201425,135.26156269439824" fill="none" stroke="black" />
</g>
<g>
<path d="M159.15109809326995,-8.891122798506702 L139.18223524006356,-7.775543868159976" fill="none" stroke="black" />
</g>
<g>
<path d="M158.9109004508785,1.105992039914911 L140.5344590046376,2.132608880487031" fill="none" stroke="black" />
</g>
<g>
<path d="M158.67070280848705,11.103106878336522 L141.88668276921163,12.040761629134035" fill="none" stroke="black" />
</g>
<g>
<path d="M158.4305051660956,21.10022171675814 L143.23890653378567,21.948914377781044" fill="none" stroke="black" />
</g>
<g>
<path d="M158.19030752370412,31.097336555179748 L144.5911302983597,31.85706712642805" fill="none" stroke="black" />
</g>
<g>
<path d="M157.9501098813127,41.09445139360137 L145.94335406293374,41.765219875075054" fill="none" stroke="black" />
</g>
<g>
<path d="M157.70991223892125,51.09156623202298 L147.29557782750777,51.67337262372207" fill="none" stroke="black" />
</g>
<g>
<path d="M157.4697145965298,61.0886810704446 L148.6478015920818,61.58152537236907" fill="none" stroke="black" />
</g>
<g>
<path d="M157.22951695413832,71.0857959088662 L150.00002535665584,71.48967812101607" fill="none" stroke="black" />
</g>
<g>
<path d="M156.98931931174687,81.08291074728783 L151.35224912122987,81.3978308696631" fill="none" stroke="black" />
</g>
<g>
<path d="M156.74912166935542,91.08002558570944 L152.7044728858039,91.30598361831008" fill="none" stroke="black" />
</g>
<g>
<path d="M156.50892402696397,101.07714042413104 L154.05669665037794,101.2141363669571" fill="none" stroke="black" />
</g>
<g>
<path d="M156.26872638457252,111.07425526255267 L155.40892041495198,111.1222891156041" fill="none" stroke="black" />
</g>
</g>
</svg>