<?xml version="1.0" encoding="UTF-8"?>
<svg xmlns="http://www.w3.org/2000/svg" xmlns:xlink="http://www.w3.org/1999/xlink"
     width="527.2938320601086" height="500" viewBox="-127.29383206010851 -400 527.2938320601086 500" stroke="black" fill="none">
<defs>
</defs>
<path d="M-127.29383206010851,100 L400,100" stroke="#dddddd" />
<path d="M-127.29383206010851,-110 L400,-110" stroke="#dddddd" />
<path d="M-127.29383206010851,-320 L400,-320" stroke="#dddddd" />
<path d="M-127.29383206010851,100 L-127.29383206010851,-400" stroke="#dddddd" />
<path d="M169.7061679398915,100 L169.7061679398915,-400" stroke="#dddddd" />
<text x="21.206167939891486" y="-5.0" font-size="10" stroke="none" fill="#dddddd" dy="0em">A0</text>
<text x="21.206167939891486" y="-215.0" font-size="10" stroke="none" fill="#dddddd" dy="0em">A1</text>
<text x="318.2061679398915" y="-5.0" font-size="10" stroke="none" fill="#dddddd" dy="0em">B0</text>
<text x="318.2061679398915" y="-215.0" font-size="10" stroke="none" fill="#dddddd" dy="0em">B1</text>
<path d="M-127.29383206010851,100 L400,100" stroke="#ffcccc66" stroke-dasharray="5" />
<text x="-126.29383206010851" y="98" font-size="8" stroke="none" fill="#ffcccc66" dy="0em">-100mm</text>
<path d="M-127.29383206010851,50 L400,50" stroke="#ffcccc66" stroke-dasharray="5" />
<text x="-126.29383206010851" y="48" font-size="8" stroke="none" fill="#ffcccc66" dy="0em">-50mm</text>
<path d="M-127.29383206010851,0 L400,0" stroke="#ffcccc66" stroke-dasharray="5" />
<text x="-126.29383206010851" y="-2" font-size="8" stroke="none" fill="#ffcccc66" dy="0em">0mm</text>
<path d="M-127.29383206010851,-50 L400,-50" stroke="#ffcccc66" stroke-dasharray="5" />
<text x="-126.29383206010851" y="-52" font-size="8" stroke="none" fill="#ffcccc66" dy="0em">50mm</text>
<path d="M-127.29383206010851,-100 L400,-100" stroke="#ffcccc66" stroke-dasharray="5" />
<text x="-126.29383206010851" y="-102" font-size="8" stroke="none" fill="#ffcccc66" dy="0em">100mm</text>
<path d="M-127.29383206010851,-150 L400,-150" stroke="#ffcccc66" stroke-dasharray="5" />
<text x="-126.29383206010851" y="-152" font-size="8" stroke="none" fill="#ffcccc66" dy="0em">150mm</text>
<path d="M-127.29383206010851,-200 L400,-200" stroke="#ffcccc66" stroke-dasharray="5" />
<text x="-126.29383206010851" y="-202" font-size="8" stroke="none" fill="#ffcccc66" dy="0em">200mm</text>
<path d="M-127.29383206010851,-250 L400,-250" stroke="#ffcccc66" stroke-dasharray="5" />
<text x="-126.29383206010851" y="-252" font-size="8" stroke="none" fill="#ffcccc66" dy="0em">250mm</text>
<path d="M-127.29383206010851,-300 L400,-300" stroke="#ffcccc66" stroke-dasharray="5" />
<text x="-126.29383206010851" y="-302" font-size="8" stroke="none" fill="#ffcccc66" dy="0em">300mm</text>
<path d="M-127.29383206010851,-350 L400,-350" stroke="#ffcccc66" stroke-dasharray="5" />
<text x="-126.29383206010851" y="-352" font-size="8" stroke="none" fill="#ffcccc66" dy="0em">350mm</text>
<path d="M-127.29383206010851,100 L-127.29383206010851,-400" stroke="#ffcccc66" stroke-dasharray="5" />
<text x="-125.29383206010851" y="99" font-size="8" stroke="none" fill="#ffcccc66" dy="0em">-100mm</text>
<path d="M-77.29383206010851,100 L-77.29383206010851,-400" stroke="#ffcccc66" stroke-dasharray="5" />
<text x="-75.29383206010851" y="99" font-size="8" stroke="none" fill="#ffcccc66" dy="0em">-50mm</text>
<path d="M-27.293832060108514,100 L-27.293832060108514,-400" stroke="#ffcccc66" stroke-dasharray="5" />
<text x="-25.293832060108514" y="99" font-size="8" stroke="none" fill="#ffcccc66" dy="0em">0mm</text>
<path d="M22.706167939891486,100 L22.706167939891486,-400" stroke="#ffcccc66" stroke-dasharray="5" />
<text x="24.706167939891486" y="99" font-size="8" stroke="none" fill="#ffcccc66" dy="0em">50mm</text>
<path d="M72.70616793989149,100 L72.70616793989149,-400" stroke="#ffcccc66" stroke-dasharray="5" />
<text x="74.70616793989149" y="99" font-size="8" stroke="none" fill="#ffcccc66" dy="0em">100mm</text>
<path d="M122.70616793989149,100 L122.70616793989149,-400" stroke="#ffcccc66" stroke-dasharray="5" />
<text x="124.70616793989149" y="99" font-size="8" stroke="none" fill="#ffcccc66" dy="0em">150mm</text>
<path d="M172.7061679398915,100 L172.7061679398915,-400" stroke="#ffcccc66" stroke-dasharray="5" />
<text x="174.7061679398915" y="99" font-size="8" stroke="none" fill="#ffcccc66" dy="0em">200mm</text>
<path d="M222.7061679398915,100 L222.7061679398915,-400" stroke="#ffcccc66" stroke-dasharray="5" />
<text x="224.7061679398915" y="99" font-size="8" stroke="none" fill="#ffcccc66" dy="0em">250mm</text>
<path d="M272.7061679398915,100 L272.7061679398915,-400" stroke="#ffcccc66" stroke-dasharray="5" />
<text x="274.7061679398915" y="99" font-size="8" stroke="none" fill="#ffcccc66" dy="0em">300mm</text>
<path d="M322.7061679398915,100 L322.7061679398915,-400" stroke="#ffcccc66" stroke-dasharray="5" />
<text x="324.7061679398915" y="99" font-size="8" stroke="none" fill="#ffcccc66" dy="0em">350mm</text>
<path d="M372.7061679398915,100 L372.7061679398915,-400" stroke="#ffcccc66" stroke-dasharray="5" />
<text x="374.7061679398915" y="99" font-size="8" stroke="none" fill="#ffcccc66" dy="0em">400mm</text>
<g>
<path d="M0,0 L0,-200 L200,-250 L250,-150 L300,-300" fill="none" stroke="black" stroke-dasharray="3" />
</g>
<g>
<path d="M0.0,-0.0 L-0.48450589455813936,-15.15435058094665 L-1.8303556016640818,-29.118036020479877 L-3.8760471564651136,-42.01042791627122 L-6.460078594108524,-53.95089786599222 L-9.4209479497416,-65.05881746731438 L-12.597153258511621,-75.4535583179092 L-15.827192555565881,-85.25449201544824 L-18.94956387605167,-94.58099015760301 L-21.802765255116274,-103.55242434204507 L-24.225294727906967,-112.28816616644588 L-26.05565032957105,-120.90758722847701 L-27.132330095255806,-129.53005912580997 L-27.293832060108517,-138.2749534561163 L-26.378654259276477,-147.26164181706747 L-24.225294727906967,-156.60949580633508 L-20.672251501147283,-166.4378870215906 L-15.558022614144697,-176.86618706050558 L-8.721106102046516,-188.01376752075151 L0.0,-200.0 L9.855969400642584,-212.2535836676686 L19.433246974268375,-223.36606042207853 L28.794157678367217,-233.35013531223038 L38.001026470428975,-242.21851338712472 L47.11617830794348,-249.98389969576203 L56.201938148400586,-256.65899928714276 L65.32063094929012,-262.25651721026765 L74.53458166810196,-266.78915851413717 L83.90611526232595,-270.2696282477518 L93.49755668945193,-272.7106314601121 L103.37123090696973,-274.12487320021864 L113.58946287236921,-274.52505851707195 L124.21457754314025,-273.9238924596726 L135.30889987677264,-272.33408007702104 L146.93475483075628,-269.7683264181179 L159.15446736258096,-266.23933653196366 L172.0303624297366,-261.75981546755895 L185.624764989713,-256.34246827390416 L200.0,-250.0 L207.15910045131048,-245.85670673360917 L212.72636256745187,-240.8860246073174 L216.8939240643572,-235.21200528996303 L219.8539226579594,-228.95870045038484 L221.79849606419137,-222.2501617574211 L222.91978199898594,-215.21044087991024 L223.40991817827617,-207.96358948669086 L223.46104231799487,-200.6336592466015 L223.26529213407508,-193.3447018284805 L223.01480534244965,-186.2207689011664 L222.90171965905148,-179.3859121334977 L223.11817279981358,-172.96418319431285 L223.85630248066883,-167.07963375245038 L225.3082464175501,-161.85631547674873 L227.6661423263904,-157.41828003604638 L231.1221279231226,-153.8895790991819 L235.86834092367968,-151.39426433499366 L242.09691904399446,-150.0563874123202 L250.0,-150.0 L261.3792134898009,-151.40652421335335 L270.7376964566438,-153.82239432055914 L278.26052615864984,-157.19671031346212 L284.1327798539407,-161.47857218390698 L288.5395348006376,-166.61707992373846 L291.6658682568618,-172.5613335248011 L293.6968574807349,-179.26043297893978 L294.8175797303782,-186.66347827799916 L295.21311226391305,-194.71956941382388 L295.0685323394608,-203.37780637825867 L294.56891721514285,-212.58728916314823 L293.89934414908066,-222.29711776033724 L293.24489039939544,-232.45639216167044 L292.7906332242087,-243.01421235899244 L292.72164988164184,-253.91967834414805 L293.22301762981607,-265.12189010898186 L294.47981372685297,-276.56994764533874 L296.6771154308738,-288.21295094506314" fill="none" stroke="black" />
</g>
</svg>