<?xml version="1.0" encoding="UTF-8"?>
<svg xmlns="http://www.w3.org/2000/svg" xmlns:xlink="http://www.w3.org/1999/xlink"
     width="709.88" height="1403.3000000000004" viewBox="-200.0 -1203.3000000000004 709.88 1403.3000000000004" stroke="black" fill="none">
<defs>
<marker markerWidth="15.2" markerHeight="8.0" viewBox="-1.0 -0.5 1.9 1.0" orient="auto" id="d0">
<path d="M-1.0,0.5 L-1.0,-0.5 L0.0,0 Z" fill="black" stroke="none" />
</marker>
<marker markerWidth="15.2" markerHeight="8.0" viewBox="-1.0 -0.5 1.9 1.0" orient="auto" id="d1">
<path d="M-1.0,0.5 L-1.0,-0.5 L0.0,0 Z" fill="black" stroke="none" />
</marker>
<marker markerWidth="15.2" markerHeight="8.0" viewBox="-1.0 -0.5 1.9 1.0" orient="auto" id="d2">
<path d="M-1.0,0.5 L-1.0,-0.5 L0.0,0 Z" fill="black" stroke="none" />
</marker>
<marker markerWidth="15.2" markerHeight="8.0" viewBox="-1.0 -0.5 1.9 1.0" orient="auto" id="d3">
<path d="M-1.0,0.5 L-1.0,-0.5 L0.0,0 Z" fill="black" stroke="none" />
</marker>
<marker markerWidth="15.2" markerHeight="8.0" viewBox="-1.0 -0.5 1.9 1.0" orient="auto" id="d4">
<path d="M-1.0,0.5 L-1.0,-0.5 L0.0,0 Z" fill="black" stroke="none" />
</marker>
<marker markerWidth="15.2" markerHeight="8.0" viewBox="-1.0 -0.5 1.9 1.0" orient="auto" id="d5">
<path d="M-1.0,0.5 L-1.0,-0.5 L0.0,0 Z" fill="black" stroke="none" />
</marker>
<marker markerWidth="15.2" markerHeight="8.0" viewBox="-1.0 -0.5 1.9 1.0" orient="auto" id="d6">
<path d="M-1.0,0.5 L-1.0,-0.5 L0.0,0 Z" fill="black" stroke="none" />
</marker>
<marker markerWidth="15.2" markerHeight="8.0" viewBox="-1.0 -0.5 1.9 1.0" orient="auto" id="d7">
<path d="M-1.0,0.5 L-1.0,-0.5 L0.0,0 Z" fill="black" stroke="none" />
</marker>
<marker markerWidth="15.2" markerHeight="8.0" viewBox="-1.0 -0.5 1.9 1.0" orient="auto" id="d8">
<path d="M-1.0,0.5 L-1.0,-0.5 L0.0,0 Z" fill="black" stroke="none" />
</marker>
<marker markerWidth="15.2" markerHeight="8.0" viewBox="-1.0 -0.5 1.9 1.0" orient="auto" id="d9">
<path d="M-1.0,0.5 L-1.0,-0.5 L0.0,0 Z" fill="black" stroke="none" />
</marker>
<marker markerWidth="15.2" markerHeight="8.0" viewBox="-1.0 -0.5 1.9 1.0" orient="auto" id="d10">
<path d="M-1.0,0.5 L-1.0,-0.5 L0.0,0 Z" fill="black" stroke="none" />
</marker>
<marker markerWidth="15.2" markerHeight="8.0" viewBox="-1.0 -0.5 1.9 1.0" orient="auto" id="d11">
<path d="M-1.0,0.5 L-1.0,-0.5 L0.0,0 Z" fill="black" stroke="none" />
</marker>
<marker markerWidth="15.2" markerHeight="8.0" viewBox="-1.0 -0.5 1.9 1.0" orient="auto" id="d12">
<path d="M-1.0,0.5 L-1.0,-0.5 L0.0,0 Z" fill="black" stroke="none" />
</marker>
<marker markerWidth="15.2" markerHeight="8.0" viewBox="-1.0 -0.5 1.9 1.0" orient="auto" id="d13">
<path d="M-1.0,0.5 L-1.0,-0.5 L0.0,0 Z" fill="black" stroke="none" />
</marker>
<marker markerWidth="15.2" markerHeight="8.0" viewBox="-1.0 -0.5 1.9 1.0" orient="auto" id="d14">
<path d="M-1.0,0.5 L-1.0,-0.5 L0.0,0 Z" fill="black" stroke="none" />
</marker>
<marker markerWidth="15.2" markerHeight="8.0" viewBox="-1.0 -0.5 1.9 1.0" orient="auto" id="d15">
<path d="M-1.0,0.5 L-1.0,-0.5 L0.0,0 Z" fill="black" stroke="none" />
</marker>
<marker markerWidth="15.2" markerHeight="8.0" viewBox="-1.0 -0.5 1.9 1.0" orient="auto" id="d16">
<path d="M-1.0,0.5 L-1.0,-0.5 L0.0,0 Z" fill="black" stroke="none" />
</marker>
<marker markerWidth="15.2" markerHeight="8.0" viewBox="-1.0 -0.5 1.9 1.0" orient="auto" id="d17">
<path d="M-1.0,0.5 L-1.0,-0.5 L0.0,0 Z" fill="black" stroke="none" />
</marker>
<marker markerWidth="15.2" markerHeight="8.0" viewBox="-1.0 -0.5 1.9 1.0" orient="auto" id="d18">
<path d="M-1.0,0.5 L-1.0,-0.5 L0.0,0 Z" fill="black" stroke="none" />
</marker>
<marker markerWidth="15.2" markerHeight="8.0" viewBox="-1.0 -0.5 1.9 1.0" orient="auto" id="d19">
<path d="M-1.0,0.5 L-1.0,-0.5 L0.0,0 Z" fill="black" stroke="none" />
</marker>
<marker markerWidth="15.2" markerHeight="8.0" viewBox="-1.0 -0.5 1.9 1.0" orient="auto" id="d20">
<path d="M-1.0,0.5 L-1.0,-0.5 L0.0,0 Z" fill="black" stroke="none" />
</marker>
<marker markerWidth="15.2" markerHeight="8.0" viewBox="-1.0 -0.5 1.9 1.0" orient="auto" id="d21">
<path d="M-1.0,0.5 L-1.0,-0.5 L0.0,0 Z" fill="black" stroke="none" />
</marker>
<marker markerWidth="15.2" markerHeight="8.0" viewBox="-1.0 -0.5 1.9 1.0" orient="auto" id="d22">
<path d="M-1.0,0.5 L-1.0,-0.5 L0.0,0 Z" fill="black" stroke="none" />
</marker>
<marker markerWidth="15.2" markerHeight="8.0" viewBox="-1.0 -0.5 1.9 1.0" orient="auto" id="d23">
<path d="M-1.0,0.5 L-1.0,-0.5 L0.0,0 Z" fill="black" stroke="none" />
</marker>
<marker markerWidth="15.2" markerHeight="8.0" viewBox="-1.0 -0.5 1.9 1.0" orient="auto" id="d24">
<path d="M-1.0,0.5 L-1.0,-0.5 L0.0,0 Z" fill="black" stroke="none" />
</marker>
<marker markerWidth="15.2" markerHeight="8.0" viewBox="-1.0 -0.5 1.9 1.0" orient="auto" id="d25">
<path d="M-1.0,0.5 L-1.0,-0.5 L0.0,0 Z" fill="black" stroke="none" />
</marker>
<marker markerWidth="15.2" markerHeight="8.0" viewBox="-1.0 -0.5 1.9 1.0" orient="auto" id="d26">
<path d="M-1.0,0.5 L-1.0,-0.5 L0.0,0 Z" fill="black" stroke="none" />
</marker>
<marker markerWidth="15.2" markerHeight="8.0" viewBox="-1.0 -0.5 1.9 1.0" orient="auto" id="d27">
<path d="M-1.0,0.5 L-1.0,-0.5 L0.0,0 Z" fill="black" stroke="none" />
</marker>
<marker markerWidth="15.2" markerHeight="8.0" viewBox="-1.0 -0.5 1.9 1.0" orient="auto" id="d28">
<path d="M-1.0,0.5 L-1.0,-0.5 L0.0,0 Z" fill="black" stroke="none" />
</marker>
<marker markerWidth="15.2" markerHeight="8.0" viewBox="-1.0 -0.5 1.9 1.0" orient="auto" id="d29">
<path d="M-1.0,0.5 L-1.0,-0.5 L0.0,0 Z" fill="black" stroke="none" />
</marker>
<marker markerWidth="15.2" markerHeight="8.0" viewBox="-1.0 -0.5 1.9 1.0" orient="auto" id="d30">
<path d="M-1.0,0.5 L-1.0,-0.5 L0.0,0 Z" fill="black" stroke="none" />
</marker>
<marker markerWidth="15.2" markerHeight="8.0" viewBox="-1.0 -0.5 1.9 1.0" orient="auto" id="d31">
<path d="M-1.0,0.5 L-1.0,-0.5 L0.0,0 Z" fill="black" stroke="none" />
</marker>
<marker markerWidth="15.2" markerHeight="8.0" viewBox="-1.0 -0.5 1.9 1.0" orient="auto" id="d32">
<path d="M-1.0,0.5 L-1.0,-0.5 L0.0,0 Z" fill="black" stroke="none" />
</marker>
<marker markerWidth="15.2" markerHeight="8.0" viewBox="-1.0 -0.5 1.9 1.0" orient="auto" id="d33">
<path d="M-1.0,0.5 L-1.0,-0.5 L0.0,0 Z" fill="black" stroke="none" />
</marker>
<marker markerWidth="15.2" markerHeight="8.0" viewBox="-1.0 -0.5 1.9 1.0" orient="auto" id="d34">
<path d="M-1.0,0.5 L-1.0,-0.5 L0.0,0 Z" fill="black" stroke="none" />
</marker>
<marker markerWidth="15.2" markerHeight="8.0" viewBox="-1.0 -0.5 1.9 1.0" orient="auto" id="d35">
<path d="M-1.0,0.5 L-1.0,-0.5 L0.0,0 Z" fill="black" stroke="none" />
</marker>
<marker markerWidth="15.2" markerHeight="8.0" viewBox="-1.0 -0.5 1.9 1.0" orient="auto" id="d36">
<path d="M-1.0,0.5 L-1.0,-0.5 L0.0,0 Z" fill="black" stroke="none" />
</marker>
<marker markerWidth="15.2" markerHeight="8.0" viewBox="-1.0 -0.5 1.9 1.0" orient="auto" id="d37">
<path d="M-1.0,0.5 L-1.0,-0.5 L0.0,0 Z" fill="black" stroke="none" />
</marker>
<marker markerWidth="15.2" markerHeight="8.0" viewBox="-1.0 -0.5 1.9 1.0" orient="auto" id="d38">
<path d="M-1.0,0.5 L-1.0,-0.5 L0.0,0 Z" fill="black" stroke="none" />
</marker>
<marker markerWidth="15.2" markerHeight="8.0" viewBox="-1.0 -0.5 1.9 1.0" orient="auto" id="d39">
<path d="M-1.0,0.5 L-1.0,-0.5 L0.0,0 Z" fill="black" stroke="none" />
</marker>
<marker markerWidth="15.2" markerHeight="8.0" viewBox="-1.0 -0.5 1.9 1.0" orient="auto" id="d40">
<path d="M-1.0,0.5 L-1.0,-0.5 L0.0,0 Z" fill="black" stroke="none" />
</marker>
<marker markerWidth="15.2" markerHeight="8.0" viewBox="-1.0 -0.5 1.9 1.0" orient="auto" id="d41">
<path d="M-1.0,0.5 L-1.0,-0.5 L0.0,0 Z" fill="black" stroke="none" />
</marker>
<marker markerWidth="15.2" markerHeight="8.0" viewBox="-1.0 -0.5 1.9 1.0" orient="auto" id="d42">
<path d="M-1.0,0.5 L-1.0,-0.5 L0.0,0 Z" fill="black" stroke="none" />
</marker>
<marker markerWidth="15.2" markerHeight="8.0" viewBox="-1.0 -0.5 1.9 1.0" orient="auto" id="d43">
<path d="M-1.0,0.5 L-1.0,-0.5 L0.0,0 Z" fill="black" stroke="none" />
</marker>
<path d="M-100.00000000000001,104.0 L-100.00000000000001,204.0" id="d44" />
<path d="M-80.00000000000001,104.0 L-80.00000000000001,204.0" id="d45" />
<path d="M-60.000000000000014,104.0 L-60.000000000000014,204.0" id="d46" />
<path d="M-40.000000000000014,104.0 L-40.000000000000014,204.0" id="d47" />
<path d="M-20.000000000000014,104.0 L-20.000000000000014,204.0" id="d48" />
<path d="M-1.4210854715202004e-14,104.0 L-1.4210854715202004e-14,204.0" id="d49" />
<path d="M19.999999999999986,104.0 L19.999999999999986,204.0" id="d50" />
<path d="M39.999999999999986,104.0 L39.999999999999986,204.0" id="d51" />
<path d="M60.0,103.99999999999999 L60.0,204.0" id="d52" />
<path d="M80.00000000000001,104.0 L80.00000000000001,204.0" id="d53" />
<path d="M100.0,104.0 L100.0,204.0" id="d54" />
<path d="M119.99999999999997,104.0 L119.99999999999997,204.0" id="d55" />
<path d="M140.0,104.0 L140.0,204.0" id="d56" />
<path d="M160.0,104.0 L160.0,204.0" id="d57" />
<path d="M180.0,104.0 L180.0,204.0" id="d58" />
<path d="M199.99999999999997,104.0 L199.99999999999997,204.0" id="d59" />
<path d="M220.0,104.0 L220.0,204.0" id="d60" />
<path d="M240.0,104.0 L240.0,204.0" id="d61" />
<path d="M260.00000000000006,104.0 L260.00000000000006,204.0" id="d62" />
<path d="M280.0,104.0 L280.0,204.0" id="d63" />
<path d="M300.0,104.0 L300.0,204.0" id="d64" />
<path d="M320.0,104.0 L320.0,204.0" id="d65" />
<path d="M340.0,104.0 L340.0,204.0" id="d66" />
<path d="M360.0,104.0 L360.0,204.0" id="d67" />
<path d="M380.0,104.0 L380.0,204.0" id="d68" />
<path d="M400.0,104.0 L400.0,204.0" id="d69" />
<path d="M413.88,100.0 L513.88,100.0" id="d70" />
<path d="M413.88,80.0 L513.88,80.0" id="d71" />
<path d="M413.88,60.000000000000014 L513.88,60.000000000000014" id="d72" />
<path d="M413.88,39.99999999999999 L513.88,39.99999999999999" id="d73" />
<path d="M413.88,20.0 L513.88,20.0" id="d74" />
<path d="M413.88000000000005,-0.0 L513.8800000000001,-0.0" id="d75" />
<path d="M413.88,-20.0 L513.88,-20.0" id="d76" />
<path d="M413.88,-39.999999999999986 L513.88,-39.999999999999986" id="d77" />
<path d="M413.88,-59.999999999999986 L513.88,-59.999999999999986" id="d78" />
<path d="M413.88,-80.00000000000001 L513.88,-80.00000000000001" id="d79" />
<path d="M413.87999999999994,-100.00000000000001 L513.8799999999999,-100.00000000000001" id="d80" />
<path d="M413.88,-120.0 L513.88,-120.0" id="d81" />
<path d="M413.88,-140.0 L513.88,-140.0" id="d82" />
<path d="M413.88,-160.0 L513.88,-160.0" id="d83" />
<path d="M413.88,-179.99999999999997 L513.88,-179.99999999999997" id="d84" />
<path d="M413.88,-200.0 L513.88,-200.0" id="d85" />
<path d="M413.88000000000005,-219.99999999999994 L513.8800000000001,-219.99999999999994" id="d86" />
<path d="M413.88,-240.00000000000006 L513.88,-240.00000000000006" id="d87" />
<path d="M413.88,-260.0 L513.88,-260.0" id="d88" />
<path d="M413.88,-280.0 L513.88,-280.0" id="d89" />
<path d="M413.88,-300.0 L513.88,-300.0" id="d90" />
<path d="M413.88,-320.0 L513.88,-320.0" id="d91" />
<path d="M413.88,-340.0 L513.88,-340.0" id="d92" />
<path d="M413.88,-360.00000000000006 L513.88,-360.00000000000006" id="d93" />
<path d="M413.88,-380.0 L513.88,-380.0" id="d94" />
<path d="M413.88,-400.0 L513.88,-400.0" id="d95" />
<path d="M413.88,-420.0 L513.88,-420.0" id="d96" />
<path d="M413.88,-440.00000000000006 L513.88,-440.00000000000006" id="d97" />
<path d="M413.88,-459.99999999999994 L513.88,-459.99999999999994" id="d98" />
<path d="M413.88,-480.0 L513.88,-480.0" id="d99" />
<path d="M413.88,-500.0 L513.88,-500.0" id="d100" />
<path d="M413.88,-520.0000000000001 L513.88,-520.0000000000001" id="d101" />
<path d="M413.88,-539.9999999999999 L513.88,-539.9999999999999" id="d102" />
<path d="M413.88,-560.0 L513.88,-560.0" id="d103" />
<path d="M413.88,-580.0000000000001 L513.88,-580.0000000000001" id="d104" />
<path d="M413.88,-600.0 L513.88,-600.0" id="d105" />
<path d="M413.88,-620.0 L513.88,-620.0" id="d106" />
<path d="M413.88,-640.0 L513.88,-640.0" id="d107" />
<path d="M413.88,-660.0 L513.88,-660.0" id="d108" />
<path d="M413.88,-680.0000000000001 L513.88,-680.0000000000001" id="d109" />
<path d="M413.88,-700.0 L513.88,-700.0" id="d110" />
<path d="M413.88,-720.0 L513.88,-720.0" id="d111" />
<path d="M413.88,-740.0 L513.88,-740.0" id="d112" />
<path d="M413.88,-760.0000000000001 L513.88,-760.0000000000001" id="d113" />
<path d="M413.88,-780.0 L513.88,-780.0" id="d114" />
<path d="M413.88,-800.0 L513.88,-800.0" id="d115" />
<path d="M413.88,-820.0000000000001 L513.88,-820.0000000000001" id="d116" />
<path d="M413.88,-839.9999999999999 L513.88,-839.9999999999999" id="d117" />
<path d="M413.88,-860.0 L513.88,-860.0" id="d118" />
<path d="M413.88,-880.0000000000001 L513.88,-880.0000000000001" id="d119" />
<path d="M413.88,-900.0 L513.88,-900.0" id="d120" />
<path d="M413.88,-920.0 L513.88,-920.0" id="d121" />
<path d="M413.88,-940.0 L513.88,-940.0" id="d122" />
<path d="M413.88,-960.0 L513.88,-960.0" id="d123" />
<path d="M413.88,-980.0000000000001 L513.88,-980.0000000000001" id="d124" />
<path d="M413.88,-1000.0 L513.88,-1000.0" id="d125" />
<path d="M413.88,-1019.9999999999999 L513.88,-1019.9999999999999" id="d126" />
<path d="M413.88,-1040.0 L513.88,-1040.0" id="d127" />
<path d="M413.88,-1060.0 L513.88,-1060.0" id="d128" />
<path d="M413.88,-1080.0 L513.88,-1080.0" id="d129" />
<path d="M413.88,-1100.0 L513.88,-1100.0" id="d130" />
</defs>
<g>
<path d="M264.15999999999997,-1003.3 L264.15999999999997,-977.9 L261.62,-952.5 L261.62,-927.1 L259.08,-901.7 L256.53999999999996,-876.3000000000001 L248.92000000000002,-850.9000000000001 L241.29999999999998,-825.5000000000001 L231.14,-800.1000000000001 L220.97999999999996,-774.7000000000002 L210.82,-749.3000000000002 L208.27999999999997,-723.9000000000002 L210.82,-698.5000000000002 L215.89999999999998,-673.1000000000003 L220.97999999999996,-647.7000000000003 L233.67999999999998,-622.3000000000003 L246.37999999999997,-596.9000000000003 L259.08,-571.5000000000003 L271.78,-546.1000000000004 L281.94,-520.7000000000004 L292.09999999999997,-495.3000000000004 L297.17999999999995,-469.90000000000043 L297.17999999999995,-444.50000000000045 L299.72,-419.1000000000005 L299.72,-393.7000000000005 L299.72,-368.3000000000005 L302.26,-342.90000000000055 L304.79999999999995,-317.50000000000057 L304.79999999999995,-292.1000000000006 L304.79999999999995,-266.7000000000006 L304.79999999999995,-241.3000000000006 L304.79999999999995,-215.9000000000006 L304.79999999999995,-190.5000000000006 L304.79999999999995,-165.1000000000006 L307.34,-139.70000000000059 L307.34,-114.30000000000058 L309.87999999999994,-88.90000000000057 L309.87999999999994,-63.500000000000576 L309.87999999999994,-38.10000000000058 L309.87999999999994,-12.700000000000578 L309.87999999999994,0 L0,0 L0,-1003.3 L264.15999999999997,-1003.3" fill="#E6E6FA" stroke="black" />
<text x="139.70159211934052" y="-494.4032361434292" font-size="12" stroke="none" fill="black" text-anchor="middle" dy="0em">Die Lemma Dress Block</text>
</g>
<g>
<path d="M314.15999999999997,-1003.3 L314.15999999999985,-975.406218943962 L311.62,-950.0062189439537 L311.6199999999998,-924.6062189439483 L308.8318595104978,-896.7248140489321 L305.81330088613004,-866.5392278052549 L296.8113142610546,-836.5326057216731 L288.5511859641713,-808.9988447320598 L277.5638345442542,-781.5304661822743 L267.403834544263,-756.1304661822965 L259.8686214503513,-737.2924334475157 L258.52937810560326,-723.8999999999941 L260.3285610752831,-705.9081703032119 L264.9290337845476,-682.9058067569064 L268.69585893488374,-664.0716810052197 L278.40135954999494,-644.6606797749987 L291.101359549989,-619.2606797750104 L303.80135954999696,-593.8606797749968 L317.43144260675086,-566.6005136614892 L328.3638345442639,-539.2695338177025 L340.22874220051216,-509.60726467708207 L347.1799999999984,-474.8509756796503 L347.1800000000004,-446.99378105603887 L349.7199999999999,-421.5937810560453 L349.7199999999994,-393.70000000001164 L349.72000000000054,-370.79378105604894 L352.0118595104983,-347.87518595105956 L354.7999999999995,-319.99378105604717 L354.80000000000024,-292.1000000000058 L354.79999999999967,-266.6999999999971 L354.79999999999984,-241.29999999998836 L354.79999999999984,-215.90000000000876 L354.8000000000004,-190.5 L354.79999999999984,-167.5937810560433 L357.34000000000026,-142.19378105604244 L357.34,-116.79378105604641 L359.87999999999977,-91.39378105604553 L359.87999999999994,-63.5 L359.88,-38.100000000000364 L359.87999999999994,-12.700000000000728 L359.87999999999994,49.99999999999958 L-50.000000000000014,50.0 L-50.00000000000001,-1053.3000000000004 L264.15999999999997,-1053.3" fill="none" stroke="black" />
</g>
<g>
<path d="M264.15999999999997,-1003.3 L314.15999999999997,-1003.3" fill="none" stroke="black" marker-end="url(#d0)" stroke-dasharray="3" />
</g>
<g>
<path d="M264.15999999999997,-977.9 L314.15999999999985,-975.406218943962" fill="none" stroke="black" marker-end="url(#d1)" stroke-dasharray="3" />
</g>
<g>
<path d="M261.62,-952.5 L311.62,-950.0062189439537" fill="none" stroke="black" marker-end="url(#d2)" stroke-dasharray="3" />
</g>
<g>
<path d="M261.62,-927.1 L311.6199999999998,-924.6062189439483" fill="none" stroke="black" marker-end="url(#d3)" stroke-dasharray="3" />
</g>
<g>
<path d="M259.08,-901.7 L308.8318595104978,-896.7248140489321" fill="none" stroke="black" marker-end="url(#d4)" stroke-dasharray="3" />
</g>
<g>
<path d="M256.53999999999996,-876.3000000000001 L305.81330088613004,-866.5392278052549" fill="none" stroke="black" marker-end="url(#d5)" stroke-dasharray="3" />
</g>
<g>
<path d="M248.92000000000002,-850.9000000000001 L296.8113142610546,-836.5326057216731" fill="none" stroke="black" marker-end="url(#d6)" stroke-dasharray="3" />
</g>
<g>
<path d="M241.29999999999998,-825.5000000000001 L288.5511859641713,-808.9988447320598" fill="none" stroke="black" marker-end="url(#d7)" stroke-dasharray="3" />
</g>
<g>
<path d="M231.14,-800.1000000000001 L277.5638345442542,-781.5304661822743" fill="none" stroke="black" marker-end="url(#d8)" stroke-dasharray="3" />
</g>
<g>
<path d="M220.97999999999996,-774.7000000000002 L267.403834544263,-756.1304661822965" fill="none" stroke="black" marker-end="url(#d9)" stroke-dasharray="3" />
</g>
<g>
<path d="M210.82,-749.3000000000002 L259.8686214503513,-737.2924334475157" fill="none" stroke="black" marker-end="url(#d10)" stroke-dasharray="3" />
</g>
<g>
<path d="M208.27999999999997,-723.9000000000002 L258.52937810560326,-723.8999999999941" fill="none" stroke="black" marker-end="url(#d11)" stroke-dasharray="3" />
</g>
<g>
<path d="M210.82,-698.5000000000002 L260.3285610752831,-705.9081703032119" fill="none" stroke="black" marker-end="url(#d12)" stroke-dasharray="3" />
</g>
<g>
<path d="M215.89999999999998,-673.1000000000003 L264.9290337845476,-682.9058067569064" fill="none" stroke="black" marker-end="url(#d13)" stroke-dasharray="3" />
</g>
<g>
<path d="M220.97999999999996,-647.7000000000003 L268.69585893488374,-664.0716810052197" fill="none" stroke="black" marker-end="url(#d14)" stroke-dasharray="3" />
</g>
<g>
<path d="M233.67999999999998,-622.3000000000003 L278.40135954999494,-644.6606797749987" fill="none" stroke="black" marker-end="url(#d15)" stroke-dasharray="3" />
</g>
<g>
<path d="M246.37999999999997,-596.9000000000003 L291.101359549989,-619.2606797750104" fill="none" stroke="black" marker-end="url(#d16)" stroke-dasharray="3" />
</g>
<g>
<path d="M259.08,-571.5000000000003 L303.80135954999696,-593.8606797749968" fill="none" stroke="black" marker-end="url(#d17)" stroke-dasharray="3" />
</g>
<g>
<path d="M271.78,-546.1000000000004 L317.43144260675086,-566.6005136614892" fill="none" stroke="black" marker-end="url(#d18)" stroke-dasharray="3" />
</g>
<g>
<path d="M281.94,-520.7000000000004 L328.3638345442639,-539.2695338177025" fill="none" stroke="black" marker-end="url(#d19)" stroke-dasharray="3" />
</g>
<g>
<path d="M292.09999999999997,-495.3000000000004 L340.22874220051216,-509.60726467708207" fill="none" stroke="black" marker-end="url(#d20)" stroke-dasharray="3" />
</g>
<g>
<path d="M297.17999999999995,-469.90000000000043 L347.1799999999984,-474.8509756796503" fill="none" stroke="black" marker-end="url(#d21)" stroke-dasharray="3" />
</g>
<g>
<path d="M297.17999999999995,-444.50000000000045 L347.1800000000004,-446.99378105603887" fill="none" stroke="black" marker-end="url(#d22)" stroke-dasharray="3" />
</g>
<g>
<path d="M299.72,-419.1000000000005 L349.7199999999999,-421.5937810560453" fill="none" stroke="black" marker-end="url(#d23)" stroke-dasharray="3" />
</g>
<g>
<path d="M299.72,-393.7000000000005 L349.7199999999994,-393.70000000001164" fill="none" stroke="black" marker-end="url(#d24)" stroke-dasharray="3" />
</g>
<g>
<path d="M299.72,-368.3000000000005 L349.72000000000054,-370.79378105604894" fill="none" stroke="black" marker-end="url(#d25)" stroke-dasharray="3" />
</g>
<g>
<path d="M302.26,-342.90000000000055 L352.0118595104983,-347.87518595105956" fill="none" stroke="black" marker-end="url(#d26)" stroke-dasharray="3" />
</g>
<g>
<path d="M304.79999999999995,-317.50000000000057 L354.7999999999995,-319.99378105604717" fill="none" stroke="black" marker-end="url(#d27)" stroke-dasharray="3" />
</g>
<g>
<path d="M304.79999999999995,-292.1000000000006 L354.80000000000024,-292.1000000000058" fill="none" stroke="black" marker-end="url(#d28)" stroke-dasharray="3" />
</g>
<g>
<path d="M304.79999999999995,-266.7000000000006 L354.79999999999967,-266.6999999999971" fill="none" stroke="black" marker-end="url(#d29)" stroke-dasharray="3" />
</g>
<g>
<path d="M304.79999999999995,-241.3000000000006 L354.79999999999984,-241.29999999998836" fill="none" stroke="black" marker-end="url(#d30)" stroke-dasharray="3" />
</g>
<g>
<path d="M304.79999999999995,-215.9000000000006 L354.79999999999984,-215.90000000000876" fill="none" stroke="black" marker-end="url(#d31)" stroke-dasharray="3" />
</g>
<g>
<path d="M304.79999999999995,-190.5000000000006 L354.8000000000004,-190.5" fill="none" stroke="black" marker-end="url(#d32)" stroke-dasharray="3" />
</g>
<g>
<path d="M304.79999999999995,-165.1000000000006 L354.79999999999984,-167.5937810560433" fill="none" stroke="black" marker-end="url(#d33)" stroke-dasharray="3" />
</g>
<g>
<path d="M307.34,-139.70000000000059 L357.34000000000026,-142.19378105604244" fill="none" stroke="black" marker-end="url(#d34)" stroke-dasharray="3" />
</g>
<g>
<path d="M307.34,-114.30000000000058 L357.34,-116.79378105604641" fill="none" stroke="black" marker-end="url(#d35)" stroke-dasharray="3" />
</g>
<g>
<path d="M309.87999999999994,-88.90000000000057 L359.87999999999977,-91.39378105604553" fill="none" stroke="black" marker-end="url(#d36)" stroke-dasharray="3" />
</g>
<g>
<path d="M309.87999999999994,-63.500000000000576 L359.87999999999994,-63.5" fill="none" stroke="black" marker-end="url(#d37)" stroke-dasharray="3" />
</g>
<g>
<path d="M309.87999999999994,-38.10000000000058 L359.88,-38.100000000000364" fill="none" stroke="black" marker-end="url(#d38)" stroke-dasharray="3" />
</g>
<g>
<path d="M309.87999999999994,-12.700000000000578 L359.87999999999994,-12.700000000000728" fill="none" stroke="black" marker-end="url(#d39)" stroke-dasharray="3" />
</g>
<g>
<path d="M309.87999999999994,0 L359.87999999999994,49.99999999999958" fill="none" stroke="black" marker-end="url(#d40)" stroke-dasharray="3" />
</g>
<g>
<path d="M0,0 L-50.000000000000014,50.0" fill="none" stroke="black" marker-end="url(#d41)" stroke-dasharray="3" />
</g>
<g>
<path d="M0,-1003.3 L-50.00000000000001,-1053.3000000000004" fill="none" stroke="black" marker-end="url(#d42)" stroke-dasharray="3" />
</g>
<g>
<path d="M264.15999999999997,-1003.3 L264.15999999999997,-1053.3" fill="none" stroke="black" marker-end="url(#d43)" stroke-dasharray="3" />
</g>
<g>
<circle cx="264.15999999999997" cy="-1003.3" r="1" fill="black" />
</g>
<g>
<circle cx="264.15999999999997" cy="-977.9" r="1" fill="black" />
</g>
<g>
<circle cx="261.62" cy="-952.5" r="1" fill="black" />
</g>
<g>
<circle cx="261.62" cy="-927.1" r="1" fill="black" />
</g>
<g>
<circle cx="259.08" cy="-901.7" r="1" fill="black" />
</g>
<g>
<circle cx="256.53999999999996" cy="-876.3000000000001" r="1" fill="black" />
</g>
<g>
<circle cx="248.92000000000002" cy="-850.9000000000001" r="1" fill="black" />
</g>
<g>
<circle cx="241.29999999999998" cy="-825.5000000000001" r="1" fill="black" />
</g>
<g>
<circle cx="231.14" cy="-800.1000000000001" r="1" fill="black" />
</g>
<g>
<circle cx="220.97999999999996" cy="-774.7000000000002" r="1" fill="black" />
</g>
<g>
<circle cx="210.82" cy="-749.3000000000002" r="1" fill="black" />
</g>
<g>
<circle cx="208.27999999999997" cy="-723.9000000000002" r="1" fill="black" />
</g>
<g>
<circle cx="210.82" cy="-698.5000000000002" r="1" fill="black" />
</g>
<g>
<circle cx="215.89999999999998" cy="-673.1000000000003" r="1" fill="black" />
</g>
<g>
<circle cx="220.97999999999996" cy="-647.7000000000003" r="1" fill="black" />
</g>
<g>
<circle cx="233.67999999999998" cy="-622.3000000000003" r="1" fill="black" />
</g>
<g>
<circle cx="246.37999999999997" cy="-596.9000000000003" r="1" fill="black" />
</g>
<g>
<circle cx="259.08" cy="-571.5000000000003" r="1" fill="black" />
</g>
<g>
<circle cx="271.78" cy="-546.1000000000004" r="1" fill="black" />
</g>
<g>
<circle cx="281.94" cy="-520.7000000000004" r="1" fill="black" />
</g>
<g>
<circle cx="292.09999999999997" cy="-495.3000000000004" r="1" fill="black" />
</g>
<g>
<circle cx="297.17999999999995" cy="-469.90000000000043" r="1" fill="black" />
</g>
<g>
<circle cx="297.17999999999995" cy="-444.50000000000045" r="1" fill="black" />
</g>
<g>
<circle cx="299.72" cy="-419.1000000000005" r="1" fill="black" />
</g>
<g>
<circle cx="299.72" cy="-393.7000000000005" r="1" fill="black" />
</g>
<g>
<circle cx="299.72" cy="-368.3000000000005" r="1" fill="black" />
</g>
<g>
<circle cx="302.26" cy="-342.90000000000055" r="1" fill="black" />
</g>
<g>
<circle cx="304.79999999999995" cy="-317.50000000000057" r="1" fill="black" />
</g>
<g>
<circle cx="304.79999999999995" cy="-292.1000000000006" r="1" fill="black" />
</g>
<g>
<circle cx="304.79999999999995" cy="-266.7000000000006" r="1" fill="black" />
</g>
<g>
<circle cx="304.79999999999995" cy="-241.3000000000006" r="1" fill="black" />
</g>
<g>
<circle cx="304.79999999999995" cy="-215.9000000000006" r="1" fill="black" />
</g>
<g>
<circle cx="304.79999999999995" cy="-190.5000000000006" r="1" fill="black" />
</g>
<g>
<circle cx="304.79999999999995" cy="-165.1000000000006" r="1" fill="black" />
</g>
<g>
<circle cx="307.34" cy="-139.70000000000059" r="1" fill="black" />
</g>
<g>
<circle cx="307.34" cy="-114.30000000000058" r="1" fill="black" />
</g>
<g>
<circle cx="309.87999999999994" cy="-88.90000000000057" r="1" fill="black" />
</g>
<g>
<circle cx="309.87999999999994" cy="-63.500000000000576" r="1" fill="black" />
</g>
<g>
<circle cx="309.87999999999994" cy="-38.10000000000058" r="1" fill="black" />
</g>
<g>
<circle cx="309.87999999999994" cy="-12.700000000000578" r="1" fill="black" />
</g>
<g>
<circle cx="309.87999999999994" cy="0" r="1" fill="black" />
</g>
<g>
<circle cx="0" cy="0" r="1" fill="black" />
</g>
<g>
<circle cx="0" cy="-1003.3" r="1" fill="black" />
</g>
<g>
<circle cx="264.15999999999997" cy="-1003.3" r="1" fill="black" />
</g>
<g>
<g>
<path d="M-100.00000000000001,100.0 L409.88,100.0" fill="none" stroke="#999999" />
</g>
<path d="M-100.00000000000001,100.0 L-100.00000000000001,103.0" stroke="#999999" />
<text font-size="12" stroke="none" fill="#999999"><textPath xlink:href="#d44">
<tspan dy="0em">0mm</tspan>
</textPath></text>
<path d="M-80.00000000000001,100.0 L-80.00000000000001,103.0" stroke="#999999" />
<text font-size="12" stroke="none" fill="#999999"><textPath xlink:href="#d45">
<tspan dy="0em">20mm</tspan>
</textPath></text>
<path d="M-60.000000000000014,100.0 L-60.000000000000014,103.0" stroke="#999999" />
<text font-size="12" stroke="none" fill="#999999"><textPath xlink:href="#d46">
<tspan dy="0em">40mm</tspan>
</textPath></text>
<path d="M-40.000000000000014,100.0 L-40.000000000000014,103.0" stroke="#999999" />
<text font-size="12" stroke="none" fill="#999999"><textPath xlink:href="#d47">
<tspan dy="0em">60mm</tspan>
</textPath></text>
<path d="M-20.000000000000014,100.0 L-20.000000000000014,103.0" stroke="#999999" />
<text font-size="12" stroke="none" fill="#999999"><textPath xlink:href="#d48">
<tspan dy="0em">80mm</tspan>
</textPath></text>
<path d="M-1.4210854715202004e-14,100.0 L-1.4210854715202004e-14,103.0" stroke="#999999" />
<text font-size="12" stroke="none" fill="#999999"><textPath xlink:href="#d49">
<tspan dy="0em">100mm</tspan>
</textPath></text>
<path d="M19.999999999999986,100.0 L19.999999999999986,103.0" stroke="#999999" />
<text font-size="12" stroke="none" fill="#999999"><textPath xlink:href="#d50">
<tspan dy="0em">120mm</tspan>
</textPath></text>
<path d="M39.999999999999986,100.0 L39.999999999999986,103.0" stroke="#999999" />
<text font-size="12" stroke="none" fill="#999999"><textPath xlink:href="#d51">
<tspan dy="0em">140mm</tspan>
</textPath></text>
<path d="M60.0,99.99999999999999 L60.0,102.99999999999999" stroke="#999999" />
<text font-size="12" stroke="none" fill="#999999"><textPath xlink:href="#d52">
<tspan dy="0em">160mm</tspan>
</textPath></text>
<path d="M80.00000000000001,100.0 L80.00000000000001,103.0" stroke="#999999" />
<text font-size="12" stroke="none" fill="#999999"><textPath xlink:href="#d53">
<tspan dy="0em">180mm</tspan>
</textPath></text>
<path d="M100.0,100.0 L100.0,103.0" stroke="#999999" />
<text font-size="12" stroke="none" fill="#999999"><textPath xlink:href="#d54">
<tspan dy="0em">200mm</tspan>
</textPath></text>
<path d="M119.99999999999997,100.0 L119.99999999999997,103.0" stroke="#999999" />
<text font-size="12" stroke="none" fill="#999999"><textPath xlink:href="#d55">
<tspan dy="0em">220mm</tspan>
</textPath></text>
<path d="M140.0,100.0 L140.0,103.0" stroke="#999999" />
<text font-size="12" stroke="none" fill="#999999"><textPath xlink:href="#d56">
<tspan dy="0em">240mm</tspan>
</textPath></text>
<path d="M160.0,100.0 L160.0,103.0" stroke="#999999" />
<text font-size="12" stroke="none" fill="#999999"><textPath xlink:href="#d57">
<tspan dy="0em">260mm</tspan>
</textPath></text>
<path d="M180.0,100.0 L180.0,103.0" stroke="#999999" />
<text font-size="12" stroke="none" fill="#999999"><textPath xlink:href="#d58">
<tspan dy="0em">280mm</tspan>
</textPath></text>
<path d="M199.99999999999997,100.0 L199.99999999999997,103.0" stroke="#999999" />
<text font-size="12" stroke="none" fill="#999999"><textPath xlink:href="#d59">
<tspan dy="0em">300mm</tspan>
</textPath></text>
<path d="M220.0,100.0 L220.0,103.0" stroke="#999999" />
<text font-size="12" stroke="none" fill="#999999"><textPath xlink:href="#d60">
<tspan dy="0em">320mm</tspan>
</textPath></text>
<path d="M240.0,100.0 L240.0,103.0" stroke="#999999" />
<text font-size="12" stroke="none" fill="#999999"><textPath xlink:href="#d61">
<tspan dy="0em">340mm</tspan>
</textPath></text>
<path d="M260.00000000000006,100.0 L260.00000000000006,103.0" stroke="#999999" />
<text font-size="12" stroke="none" fill="#999999"><textPath xlink:href="#d62">
<tspan dy="0em">360mm</tspan>
</textPath></text>
<path d="M280.0,100.0 L280.0,103.0" stroke="#999999" />
<text font-size="12" stroke="none" fill="#999999"><textPath xlink:href="#d63">
<tspan dy="0em">380mm</tspan>
</textPath></text>
<path d="M300.0,100.0 L300.0,103.0" stroke="#999999" />
<text font-size="12" stroke="none" fill="#999999"><textPath xlink:href="#d64">
<tspan dy="0em">400mm</tspan>
</textPath></text>
<path d="M320.0,100.0 L320.0,103.0" stroke="#999999" />
<text font-size="12" stroke="none" fill="#999999"><textPath xlink:href="#d65">
<tspan dy="0em">420mm</tspan>
</textPath></text>
<path d="M340.0,100.0 L340.0,103.0" stroke="#999999" />
<text font-size="12" stroke="none" fill="#999999"><textPath xlink:href="#d66">
<tspan dy="0em">440mm</tspan>
</textPath></text>
<path d="M360.0,100.0 L360.0,103.0" stroke="#999999" />
<text font-size="12" stroke="none" fill="#999999"><textPath xlink:href="#d67">
<tspan dy="0em">460mm</tspan>
</textPath></text>
<path d="M380.0,100.0 L380.0,103.0" stroke="#999999" />
<text font-size="12" stroke="none" fill="#999999"><textPath xlink:href="#d68">
<tspan dy="0em">480mm</tspan>
</textPath></text>
<path d="M400.0,100.0 L400.0,103.0" stroke="#999999" />
<text font-size="12" stroke="none" fill="#999999"><textPath xlink:href="#d69">
<tspan dy="0em">500mm</tspan>
</textPath></text>
</g>
<g>
<g>
<path d="M409.88,100.0 L409.88,-1103.3000000000004" fill="none" stroke="#999999" />
</g>
<path d="M409.88,100.0 L412.88,100.0" stroke="#999999" />
<text font-size="12" stroke="none" fill="#999999"><textPath xlink:href="#d70">
<tspan dy="0em">0mm</tspan>
</textPath></text>
<path d="M409.88,80.0 L412.88,80.0" stroke="#999999" />
<text font-size="12" stroke="none" fill="#999999"><textPath xlink:href="#d71">
<tspan dy="0em">20mm</tspan>
</textPath></text>
<path d="M409.88,60.000000000000014 L412.88,60.000000000000014" stroke="#999999" />
<text font-size="12" stroke="none" fill="#999999"><textPath xlink:href="#d72">
<tspan dy="0em">40mm</tspan>
</textPath></text>
<path d="M409.88,39.99999999999999 L412.88,39.99999999999999" stroke="#999999" />
<text font-size="12" stroke="none" fill="#999999"><textPath xlink:href="#d73">
<tspan dy="0em">60mm</tspan>
</textPath></text>
<path d="M409.88,20.0 L412.88,20.0" stroke="#999999" />
<text font-size="12" stroke="none" fill="#999999"><textPath xlink:href="#d74">
<tspan dy="0em">80mm</tspan>
</textPath></text>
<path d="M409.88000000000005,-0.0 L412.88000000000005,-0.0" stroke="#999999" />
<text font-size="12" stroke="none" fill="#999999"><textPath xlink:href="#d75">
<tspan dy="0em">100mm</tspan>
</textPath></text>
<path d="M409.88,-20.0 L412.88,-20.0" stroke="#999999" />
<text font-size="12" stroke="none" fill="#999999"><textPath xlink:href="#d76">
<tspan dy="0em">120mm</tspan>
</textPath></text>
<path d="M409.88,-39.999999999999986 L412.88,-39.999999999999986" stroke="#999999" />
<text font-size="12" stroke="none" fill="#999999"><textPath xlink:href="#d77">
<tspan dy="0em">140mm</tspan>
</textPath></text>
<path d="M409.88,-59.999999999999986 L412.88,-59.999999999999986" stroke="#999999" />
<text font-size="12" stroke="none" fill="#999999"><textPath xlink:href="#d78">
<tspan dy="0em">160mm</tspan>
</textPath></text>
<path d="M409.88,-80.00000000000001 L412.88,-80.00000000000001" stroke="#999999" />
<text font-size="12" stroke="none" fill="#999999"><textPath xlink:href="#d79">
<tspan dy="0em">180mm</tspan>
</textPath></text>
<path d="M409.87999999999994,-100.00000000000001 L412.87999999999994,-100.00000000000001" stroke="#999999" />
<text font-size="12" stroke="none" fill="#999999"><textPath xlink:href="#d80">
<tspan dy="0em">200mm</tspan>
</textPath></text>
<path d="M409.88,-120.0 L412.88,-120.0" stroke="#999999" />
<text font-size="12" stroke="none" fill="#999999"><textPath xlink:href="#d81">
<tspan dy="0em">220mm</tspan>
</textPath></text>
<path d="M409.88,-140.0 L412.88,-140.0" stroke="#999999" />
<text font-size="12" stroke="none" fill="#999999"><textPath xlink:href="#d82">
<tspan dy="0em">240mm</tspan>
</textPath></text>
<path d="M409.88,-160.0 L412.88,-160.0" stroke="#999999" />
<text font-size="12" stroke="none" fill="#999999"><textPath xlink:href="#d83">
<tspan dy="0em">260mm</tspan>
</textPath></text>
<path d="M409.88,-179.99999999999997 L412.88,-179.99999999999997" stroke="#999999" />
<text font-size="12" stroke="none" fill="#999999"><textPath xlink:href="#d84">
<tspan dy="0em">280mm</tspan>
</textPath></text>
<path d="M409.88,-200.0 L412.88,-200.0" stroke="#999999" />
<text font-size="12" stroke="none" fill="#999999"><textPath xlink:href="#d85">
<tspan dy="0em">300mm</tspan>
</textPath></text>
<path d="M409.88000000000005,-219.99999999999994 L412.88000000000005,-219.99999999999994" stroke="#999999" />
<text font-size="12" stroke="none" fill="#999999"><textPath xlink:href="#d86">
<tspan dy="0em">320mm</tspan>
</textPath></text>
<path d="M409.88,-240.00000000000006 L412.88,-240.00000000000006" stroke="#999999" />
<text font-size="12" stroke="none" fill="#999999"><textPath xlink:href="#d87">
<tspan dy="0em">340mm</tspan>
</textPath></text>
<path d="M409.88,-260.0 L412.88,-260.0" stroke="#999999" />
<text font-size="12" stroke="none" fill="#999999"><textPath xlink:href="#d88">
<tspan dy="0em">360mm</tspan>
</textPath></text>
<path d="M409.88,-280.0 L412.88,-280.0" stroke="#999999" />
<text font-size="12" stroke="none" fill="#999999"><textPath xlink:href="#d89">
<tspan dy="0em">380mm</tspan>
</textPath></text>
<path d="M409.88,-300.0 L412.88,-300.0" stroke="#999999" />
<text font-size="12" stroke="none" fill="#999999"><textPath xlink:href="#d90">
<tspan dy="0em">400mm</tspan>
</textPath></text>
<path d="M409.88,-320.0 L412.88,-320.0" stroke="#999999" />
<text font-size="12" stroke="none" fill="#999999"><textPath xlink:href="#d91">
<tspan dy="0em">420mm</tspan>
</textPath></text>
<path d="M409.88,-340.0 L412.88,-340.0" stroke="#999999" />
<text font-size="12" stroke="none" fill="#999999"><textPath xlink:href="#d92">
<tspan dy="0em">440mm</tspan>
</textPath></text>
<path d="M409.88,-360.00000000000006 L412.88,-360.00000000000006" stroke="#999999" />
<text font-size="12" stroke="none" fill="#999999"><textPath xlink:href="#d93">
<tspan dy="0em">460mm</tspan>
</textPath></text>
<path d="M409.88,-380.0 L412.88,-380.0" stroke="#999999" />
<text font-size="12" stroke="none" fill="#999999"><textPath xlink:href="#d94">
<tspan dy="0em">480mm</tspan>
</textPath></text>
<path d="M409.88,-400.0 L412.88,-400.0" stroke="#999999" />
<text font-size="12" stroke="none" fill="#999999"><textPath xlink:href="#d95">
<tspan dy="0em">500mm</tspan>
</textPath></text>
<path d="M409.88,-420.0 L412.88,-420.0" stroke="#999999" />
<text font-size="12" stroke="none" fill="#999999"><textPath xlink:href="#d96">
<tspan dy="0em">520mm</tspan>
</textPath></text>
<path d="M409.88,-440.00000000000006 L412.88,-440.00000000000006" stroke="#999999" />
<text font-size="12" stroke="none" fill="#999999"><textPath xlink:href="#d97">
<tspan dy="0em">540mm</tspan>
</textPath></text>
<path d="M409.88,-459.99999999999994 L412.88,-459.99999999999994" stroke="#999999" />
<text font-size="12" stroke="none" fill="#999999"><textPath xlink:href="#d98">
<tspan dy="0em">560mm</tspan>
</textPath></text>
<path d="M409.88,-480.0 L412.88,-480.0" stroke="#999999" />
<text font-size="12" stroke="none" fill="#999999"><textPath xlink:href="#d99">
<tspan dy="0em">580mm</tspan>
</textPath></text>
<path d="M409.88,-500.0 L412.88,-500.0" stroke="#999999" />
<text font-size="12" stroke="none" fill="#999999"><textPath xlink:href="#d100">
<tspan dy="0em">600mm</tspan>
</textPath></text>
<path d="M409.88,-520.0000000000001 L412.88,-520.0000000000001" stroke="#999999" />
<text font-size="12" stroke="none" fill="#999999"><textPath xlink:href="#d101">
<tspan dy="0em">620mm</tspan>
</textPath></text>
<path d="M409.88,-539.9999999999999 L412.88,-539.9999999999999" stroke="#999999" />
<text font-size="12" stroke="none" fill="#999999"><textPath xlink:href="#d102">
<tspan dy="0em">640mm</tspan>
</textPath></text>
<path d="M409.88,-560.0 L412.88,-560.0" stroke="#999999" />
<text font-size="12" stroke="none" fill="#999999"><textPath xlink:href="#d103">
<tspan dy="0em">660mm</tspan>
</textPath></text>
<path d="M409.88,-580.0000000000001 L412.88,-580.0000000000001" stroke="#999999" />
<text font-size="12" stroke="none" fill="#999999"><textPath xlink:href="#d104">
<tspan dy="0em">680mm</tspan>
</textPath></text>
<path d="M409.88,-600.0 L412.88,-600.0" stroke="#999999" />
<text font-size="12" stroke="none" fill="#999999"><textPath xlink:href="#d105">
<tspan dy="0em">700mm</tspan>
</textPath></text>
<path d="M409.88,-620.0 L412.88,-620.0" stroke="#999999" />
<text font-size="12" stroke="none" fill="#999999"><textPath xlink:href="#d106">
<tspan dy="0em">720mm</tspan>
</textPath></text>
<path d="M409.88,-640.0 L412.88,-640.0" stroke="#999999" />
<text font-size="12" stroke="none" fill="#999999"><textPath xlink:href="#d107">
<tspan dy="0em">740mm</tspan>
</textPath></text>
<path d="M409.88,-660.0 L412.88,-660.0" stroke="#999999" />
<text font-size="12" stroke="none" fill="#999999"><textPath xlink:href="#d108">
<tspan dy="0em">760mm</tspan>
</textPath></text>
<path d="M409.88,-680.0000000000001 L412.88,-680.0000000000001" stroke="#999999" />
<text font-size="12" stroke="none" fill="#999999"><textPath xlink:href="#d109">
<tspan dy="0em">780mm</tspan>
</textPath></text>
<path d="M409.88,-700.0 L412.88,-700.0" stroke="#999999" />
<text font-size="12" stroke="none" fill="#999999"><textPath xlink:href="#d110">
<tspan dy="0em">800mm</tspan>
</textPath></text>
<path d="M409.88,-720.0 L412.88,-720.0" stroke="#999999" />
<text font-size="12" stroke="none" fill="#999999"><textPath xlink:href="#d111">
<tspan dy="0em">820mm</tspan>
</textPath></text>
<path d="M409.88,-740.0 L412.88,-740.0" stroke="#999999" />
<text font-size="12" stroke="none" fill="#999999"><textPath xlink:href="#d112">
<tspan dy="0em">840mm</tspan>
</textPath></text>
<path d="M409.88,-760.0000000000001 L412.88,-760.0000000000001" stroke="#999999" />
<text font-size="12" stroke="none" fill="#999999"><textPath xlink:href="#d113">
<tspan dy="0em">860mm</tspan>
</textPath></text>
<path d="M409.88,-780.0 L412.88,-780.0" stroke="#999999" />
<text font-size="12" stroke="none" fill="#999999"><textPath xlink:href="#d114">
<tspan dy="0em">880mm</tspan>
</textPath></text>
<path d="M409.88,-800.0 L412.88,-800.0" stroke="#999999" />
<text font-size="12" stroke="none" fill="#999999"><textPath xlink:href="#d115">
<tspan dy="0em">900mm</tspan>
</textPath></text>
<path d="M409.88,-820.0000000000001 L412.88,-820.0000000000001" stroke="#999999" />
<text font-size="12" stroke="none" fill="#999999"><textPath xlink:href="#d116">
<tspan dy="0em">920mm</tspan>
</textPath></text>
<path d="M409.88,-839.9999999999999 L412.88,-839.9999999999999" stroke="#999999" />
<text font-size="12" stroke="none" fill="#999999"><textPath xlink:href="#d117">
<tspan dy="0em">940mm</tspan>
</textPath></text>
<path d="M409.88,-860.0 L412.88,-860.0" stroke="#999999" />
<text font-size="12" stroke="none" fill="#999999"><textPath xlink:href="#d118">
<tspan dy="0em">960mm</tspan>
</textPath></text>
<path d="M409.88,-880.0000000000001 L412.88,-880.0000000000001" stroke="#999999" />
<text font-size="12" stroke="none" fill="#999999"><textPath xlink:href="#d119">
<tspan dy="0em">980mm</tspan>
</textPath></text>
<path d="M409.88,-900.0 L412.88,-900.0" stroke="#999999" />
<text font-size="12" stroke="none" fill="#999999"><textPath xlink:href="#d120">
<tspan dy="0em">1000mm</tspan>
</textPath></text>
<path d="M409.88,-920.0 L412.88,-920.0" stroke="#999999" />
<text font-size="12" stroke="none" fill="#999999"><textPath xlink:href="#d121">
<tspan dy="0em">1020mm</tspan>
</textPath></text>
<path d="M409.88,-940.0 L412.88,-940.0" stroke="#999999" />
<text font-size="12" stroke="none" fill="#999999"><textPath xlink:href="#d122">
<tspan dy="0em">1040mm</tspan>
</textPath></text>
<path d="M409.88,-960.0 L412.88,-960.0" stroke="#999999" />
<text font-size="12" stroke="none" fill="#999999"><textPath xlink:href="#d123">
<tspan dy="0em">1060mm</tspan>
</textPath></text>
<path d="M409.88,-980.0000000000001 L412.88,-980.0000000000001" stroke="#999999" />
<text font-size="12" stroke="none" fill="#999999"><textPath xlink:href="#d124">
<tspan dy="0em">1080mm</tspan>
</textPath></text>
<path d="M409.88,-1000.0 L412.88,-1000.0" stroke="#999999" />
<text font-size="12" stroke="none" fill="#999999"><textPath xlink:href="#d125">
<tspan dy="0em">1100mm</tspan>
</textPath></text>
<path d="M409.88,-1019.9999999999999 L412.88,-1019.9999999999999" stroke="#999999" />
<text font-size="12" stroke="none" fill="#999999"><textPath xlink:href="#d126">
<tspan dy="0em">1120mm</tspan>
</textPath></text>
<path d="M409.88,-1040.0 L412.88,-1040.0" stroke="#999999" />
<text font-size="12" stroke="none" fill="#999999"><textPath xlink:href="#d127">
<tspan dy="0em">1140mm</tspan>
</textPath></text>
<path d="M409.88,-1060.0 L412.88,-1060.0" stroke="#999999" />
<text font-size="12" stroke="none" fill="#999999"><textPath xlink:href="#d128">
<tspan dy="0em">1160mm</tspan>
</textPath></text>
<path d="M409.88,-1080.0 L412.88,-1080.0" stroke="#999999" />
<text font-size="12" stroke="none" fill="#999999"><textPath xlink:href="#d129">
<tspan dy="0em">1180mm</tspan>
</textPath></text>
<path d="M409.88,-1100.0 L412.88,-1100.0" stroke="#999999" />
<text font-size="12" stroke="none" fill="#999999"><textPath xlink:href="#d130">
<tspan dy="0em">1200mm</tspan>
</textPath></text>
</g>
</svg>