<?xml version="1.0" encoding="UTF-8"?>
<svg xmlns="http://www.w3.org/2000/svg" xmlns:xlink="http://www.w3.org/1999/xlink"
     width="500" height="1350" viewBox="-50 -150 500 1350" stroke="black" fill="none">
<defs>
<path d="M50,0 L150,-50 L250,50 L350,0" fill="none" stroke="black" id="d0" />
<path d="M50,150 L150,100 L250,200 L350,150" fill="none" stroke="black" id="d1" />
<marker markerWidth="15.2" markerHeight="8.0" viewBox="-1.0 -0.5 1.9 1.0" orient="auto" id="d2">
<path d="M-1.0,0.5 L-1.0,-0.5 L0.0,0 Z" fill="black" stroke="none" />
</marker>
<path d="M50,300 L150,250 L250,350 L350,300" fill="none" stroke="black" id="d3" />
<marker markerWidth="15.2" markerHeight="8.0" viewBox="-1.0 -0.5 1.9 1.0" orient="auto" id="d4">
<path d="M-1.0,0.5 L-1.0,-0.5 L0.0,0 Z" fill="black" stroke="none" />
</marker>
<path d="M50,450 L150,400 L250,500 L350,450" fill="none" stroke="black" id="d5" />
<path d="M50,900 L150,850 L250,950 L350,900" fill="none" stroke="black" id="d6" />
<path d="M50,1050 L150,1000 L250,1100 L350,1050" fill="none" stroke="black" id="d7" />
<path d="M51.788854381999755,1053.5777087639997 L96.5102139319944,1143.020427863992" id="d8" />
<path d="M69.67739820199807,1044.6334368540006 L114.39875775199272,1134.0761559539928" id="d9" />
<path d="M87.56594202199639,1035.6891649440015 L132.28730157199104,1125.1318840439938" id="d10" />
<path d="M105.45448584199487,1026.7448930340022 L150.17584539199297,1116.1876121339926" id="d11" />
<path d="M123.34302966199319,1017.800621124003 L168.06438921199126,1107.2433402239935" id="d12" />
<path d="M141.23157348199152,1008.8563492140038 L185.9529330319896,1098.2990683139944" id="d13" />
<path d="M152.96744511343002,1008.6242993629223 L82.25676699477576,1079.3349774815777" id="d14" />
<path d="M167.109580737161,1022.7664349866534 L96.39890261850674,1093.4771131053087" id="d15" />
<path d="M181.25171636089175,1036.908570610384 L110.54103824223273,1107.6192487290346" id="d16" />
<path d="M195.3938519846227,1051.050706234115 L124.68317386596368,1121.7613843527656" id="d17" />
<path d="M209.53598760835362,1065.192841857846 L138.82530948969463,1135.9035199764965" id="d18" />
<path d="M223.6781232320846,1079.334977481577 L152.96744511342558,1150.0456556002275" id="d19" />
<path d="M237.82025885581552,1093.4771131053078 L167.10958073715653,1164.1877912239584" id="d20" />
<path d="M257.8488176352427,1100.5477271373782 L302.57017718523696,1189.9904462373704" id="d21" />
<path d="M275.73736145524094,1091.6034552273788 L320.4587210052337,1181.046174327372" id="d22" />
<path d="M293.6259052752393,1082.65918331738 L338.34726482523206,1172.1019024173731" id="d23" />
<path d="M311.5144490952376,1073.7149114073807 L356.23580864523035,1163.1576305073738" id="d24" />
<path d="M329.40299291523587,1064.7706394973816 L374.12435246522864,1154.2133585973747" id="d25" />
<path d="M347.2915367352342,1055.8263675873825 L392.012896285227,1145.2690866873756" id="d26" />
</defs>
<g>
<path d="M50,0 L150,-50 L250,50 L350,0" fill="none" stroke="black" />
<text font-size="12" stroke="none" fill="#000000"><textPath xlink:href="#d0" startOffset="10">
<tspan dy="-1em">line</tspan>
</textPath></text>
</g>
<g>
<text font-size="12" stroke="none" fill="#000000"><textPath xlink:href="#d1" startOffset="10">
<tspan dy="-1em">dashed</tspan>
</textPath></text>
<path d="M50,150 L150,100 L250,200 L350,150" fill="none" stroke="black" stroke-dasharray="3" />
</g>
<g>
<path d="M50,300 L150,250 L250,350 L350,300" fill="none" stroke="black" marker-end="url(#d2)" />
<text font-size="12" stroke="none" fill="#000000"><textPath xlink:href="#d3" startOffset="10">
<tspan dy="-1em">arrow</tspan>
</textPath></text>
</g>
<g>
<path d="M50,450 L150,400 L250,500 L350,450" fill="none" stroke="black" marker-end="url(#d4)" stroke-dasharray="3" />
<text font-size="12" stroke="none" fill="#000000"><textPath xlink:href="#d5" startOffset="10">
<tspan dy="-1em">dashed_arrow</tspan>
</textPath></text>
</g>
<g>
<g>
<circle cx="50" cy="600" r="1" fill="black" />
</g>
<g>
<circle cx="150" cy="550" r="1" fill="black" />
</g>
<g>
<circle cx="250" cy="650" r="1" fill="black" />
</g>
<g>
<circle cx="350" cy="600" r="1" fill="black" />
</g>
<text x="181.25" y="600.0" font-size="12" stroke="none" fill="black" text-anchor="middle" dy="0em">pointset</text>
</g>
<g>
<path d="M50,750 L150,700 L250,800 L350,750" fill="#E6E6FA" stroke="black" />
<text x="181.25" y="750.0" font-size="12" stroke="none" fill="black" text-anchor="middle" dy="0em">polygon</text>
</g>
<g>
<path d="M50,900 L150,850 L250,950 L350,900" fill="none" stroke="black" />
<path d="M52.2360679774999,904.4721359549995 L47.7639320225001,895.5278640450005" stroke="black" />
<path d="M352.2360679774998,904.4721359549995 L347.7639320225002,895.5278640450005" stroke="black" />
<text font-size="12" stroke="none" fill="black"><textPath xlink:href="#d6" startOffset="10">
<tspan dy="-1em">tape (365.0mm)</tspan>
</textPath></text>
</g>
<g>
<g>
<path d="M50,1050 L150,1000 L250,1100 L350,1050" fill="none" stroke="black" />
<text font-size="12" stroke="none" fill="#000000"><textPath xlink:href="#d7" startOffset="10">
<tspan dy="-1em">ruler</tspan>
</textPath></text>
</g>
<path d="M50.0,1050.0 L51.34164078649981,1052.6832815729997" />
<text font-size="12" stroke="none" fill="#000000"><textPath xlink:href="#d8">
<tspan dy="0em">0mm</tspan>
</textPath></text>
<path d="M67.88854381999832,1041.055728090001 L69.23018460649813,1043.7390096630006" />
<text font-size="12" stroke="none" fill="#000000"><textPath xlink:href="#d9">
<tspan dy="0em">20mm</tspan>
</textPath></text>
<path d="M85.77708763999664,1032.1114561800018 L87.11872842649645,1034.7947377530015" />
<text font-size="12" stroke="none" fill="#000000"><textPath xlink:href="#d10">
<tspan dy="0em">40mm</tspan>
</textPath></text>
<path d="M103.66563145999496,1023.1671842700025 L105.00727224649489,1025.8504658430022" />
<text font-size="12" stroke="none" fill="#000000"><textPath xlink:href="#d11">
<tspan dy="0em">60mm</tspan>
</textPath></text>
<path d="M121.55417527999327,1014.2229123600034 L122.89581606649321,1016.9061939330031" />
<text font-size="12" stroke="none" fill="#000000"><textPath xlink:href="#d12">
<tspan dy="0em">80mm</tspan>
</textPath></text>
<path d="M139.4427190999916,1005.2786404500042 L140.78435988649153,1007.9619220230039" />
<text font-size="12" stroke="none" fill="#000000"><textPath xlink:href="#d13">
<tspan dy="0em">100mm</tspan>
</textPath></text>
<path d="M155.7958722381762,1005.7958722381761 L153.67455189461657,1007.9171925817358" />
<text font-size="12" stroke="none" fill="#000000"><textPath xlink:href="#d14">
<tspan dy="0em">120mm</tspan>
</textPath></text>
<path d="M169.93800786190718,1019.9380078619072 L167.81668751834755,1022.0593282054668" />
<text font-size="12" stroke="none" fill="#000000"><textPath xlink:href="#d15">
<tspan dy="0em">140mm</tspan>
</textPath></text>
<path d="M184.08014348563813,1034.080143485638 L181.95882314207833,1036.2014638291976" />
<text font-size="12" stroke="none" fill="#000000"><textPath xlink:href="#d16">
<tspan dy="0em">160mm</tspan>
</textPath></text>
<path d="M198.22227910936908,1048.222279109369 L196.10095876580928,1050.3435994529286" />
<text font-size="12" stroke="none" fill="#000000"><textPath xlink:href="#d17">
<tspan dy="0em">180mm</tspan>
</textPath></text>
<path d="M212.3644147331,1062.3644147331 L210.2430943895402,1064.4857350766595" />
<text font-size="12" stroke="none" fill="#000000"><textPath xlink:href="#d18">
<tspan dy="0em">200mm</tspan>
</textPath></text>
<path d="M226.50655035683099,1076.506550356831 L224.38523001327118,1078.6278707003905" />
<text font-size="12" stroke="none" fill="#000000"><textPath xlink:href="#d19">
<tspan dy="0em">220mm</tspan>
</textPath></text>
<path d="M240.6486859805619,1090.6486859805618 L238.5273656370021,1092.7700063241214" />
<text font-size="12" stroke="none" fill="#000000"><textPath xlink:href="#d20">
<tspan dy="0em">240mm</tspan>
</textPath></text>
<path d="M256.059963253243,1096.9700183733785 L257.4016040397428,1099.6532999463782" />
<text font-size="12" stroke="none" fill="#000000"><textPath xlink:href="#d21">
<tspan dy="0em">260mm</tspan>
</textPath></text>
<path d="M273.9485070732413,1088.0257464633792 L275.290147859741,1090.7090280363789" />
<text font-size="12" stroke="none" fill="#000000"><textPath xlink:href="#d22">
<tspan dy="0em">280mm</tspan>
</textPath></text>
<path d="M291.8370508932396,1079.0814745533803 L293.17869167973936,1081.76475612638" />
<text font-size="12" stroke="none" fill="#000000"><textPath xlink:href="#d23">
<tspan dy="0em">300mm</tspan>
</textPath></text>
<path d="M309.7255947132379,1070.137202643381 L311.06723549973765,1072.8204842163807" />
<text font-size="12" stroke="none" fill="#000000"><textPath xlink:href="#d24">
<tspan dy="0em">320mm</tspan>
</textPath></text>
<path d="M327.6141385332362,1061.192930733382 L328.95577931973594,1063.8762123063816" />
<text font-size="12" stroke="none" fill="#000000"><textPath xlink:href="#d25">
<tspan dy="0em">340mm</tspan>
</textPath></text>
<path d="M345.50268235323455,1052.2486588233828 L346.8443231397343,1054.9319403963825" />
<text font-size="12" stroke="none" fill="#000000"><textPath xlink:href="#d26">
<tspan dy="0em">360mm</tspan>
</textPath></text>
</g>
</svg>
