<?xml version="1.0" encoding="UTF-8"?>
<svg xmlns="http://www.w3.org/2000/svg" xmlns:xlink="http://www.w3.org/1999/xlink"
     width="578.9709544364373" height="1932.9264964736524" viewBox="-289.485477218219 -102.6999999999955 578.9709544364373 1932.9264964736524" stroke="black" fill="none">
<defs>
</defs>
<path d="M-289.485477218219,1830.2264964736569 L289.4854772182183,1830.2264964736569" stroke="#dddddd" />
<path d="M-289.485477218219,1620.2264964736569 L289.4854772182183,1620.2264964736569" stroke="#dddddd" />
<path d="M-289.485477218219,1410.2264964736569 L289.4854772182183,1410.2264964736569" stroke="#dddddd" />
<path d="M-289.485477218219,1200.2264964736569 L289.4854772182183,1200.2264964736569" stroke="#dddddd" />
<path d="M-289.485477218219,990.2264964736569 L289.4854772182183,990.2264964736569" stroke="#dddddd" />
<path d="M-289.485477218219,780.2264964736569 L289.4854772182183,780.2264964736569" stroke="#dddddd" />
<path d="M-289.485477218219,570.2264964736569 L289.4854772182183,570.2264964736569" stroke="#dddddd" />
<path d="M-289.485477218219,360.2264964736569 L289.4854772182183,360.2264964736569" stroke="#dddddd" />
<path d="M-289.485477218219,150.22649647365688 L289.4854772182183,150.22649647365688" stroke="#dddddd" />
<path d="M-289.485477218219,-59.77350352634312 L289.4854772182183,-59.77350352634312" stroke="#dddddd" />
<path d="M-289.485477218219,1830.2264964736569 L-289.485477218219,-102.6999999999955" stroke="#dddddd" />
<path d="M7.514522781781011,1830.2264964736569 L7.514522781781011,-102.6999999999955" stroke="#dddddd" />
<text x="-140.985477218219" y="1725.2264964736569" font-size="10" stroke="none" fill="#dddddd" dy="0em">A0</text>
<text x="-140.985477218219" y="1515.2264964736569" font-size="10" stroke="none" fill="#dddddd" dy="0em">A1</text>
<text x="-140.985477218219" y="1305.2264964736569" font-size="10" stroke="none" fill="#dddddd" dy="0em">A2</text>
<text x="-140.985477218219" y="1095.2264964736569" font-size="10" stroke="none" fill="#dddddd" dy="0em">A3</text>
<text x="-140.985477218219" y="885.2264964736569" font-size="10" stroke="none" fill="#dddddd" dy="0em">A4</text>
<text x="-140.985477218219" y="675.2264964736569" font-size="10" stroke="none" fill="#dddddd" dy="0em">A5</text>
<text x="-140.985477218219" y="465.2264964736569" font-size="10" stroke="none" fill="#dddddd" dy="0em">A6</text>
<text x="-140.985477218219" y="255.22649647365688" font-size="10" stroke="none" fill="#dddddd" dy="0em">A7</text>
<text x="-140.985477218219" y="45.22649647365688" font-size="10" stroke="none" fill="#dddddd" dy="0em">A8</text>
<text x="156.014522781781" y="1725.2264964736569" font-size="10" stroke="none" fill="#dddddd" dy="0em">B0</text>
<text x="156.014522781781" y="1515.2264964736569" font-size="10" stroke="none" fill="#dddddd" dy="0em">B1</text>
<text x="156.014522781781" y="1305.2264964736569" font-size="10" stroke="none" fill="#dddddd" dy="0em">B2</text>
<text x="156.014522781781" y="1095.2264964736569" font-size="10" stroke="none" fill="#dddddd" dy="0em">B3</text>
<text x="156.014522781781" y="885.2264964736569" font-size="10" stroke="none" fill="#dddddd" dy="0em">B4</text>
<text x="156.014522781781" y="675.2264964736569" font-size="10" stroke="none" fill="#dddddd" dy="0em">B5</text>
<text x="156.014522781781" y="465.2264964736569" font-size="10" stroke="none" fill="#dddddd" dy="0em">B6</text>
<text x="156.014522781781" y="255.22649647365688" font-size="10" stroke="none" fill="#dddddd" dy="0em">B7</text>
<text x="156.014522781781" y="45.22649647365688" font-size="10" stroke="none" fill="#dddddd" dy="0em">B8</text>
<path d="M-289.485477218219,1830.2264964736569 L289.4854772182183,1830.2264964736569" stroke="#ffcccc66" stroke-dasharray="5" />
<path d="M-289.485477218219,1780.2264964736569 L289.4854772182183,1780.2264964736569" stroke="#ffcccc66" stroke-dasharray="5" />
<path d="M-289.485477218219,1730.2264964736569 L289.4854772182183,1730.2264964736569" stroke="#ffcccc66" stroke-dasharray="5" />
<path d="M-289.485477218219,1680.2264964736569 L289.4854772182183,1680.2264964736569" stroke="#ffcccc66" stroke-dasharray="5" />
<path d="M-289.485477218219,1630.2264964736569 L289.4854772182183,1630.2264964736569" stroke="#ffcccc66" stroke-dasharray="5" />
<path d="M-289.485477218219,1580.2264964736569 L289.4854772182183,1580.2264964736569" stroke="#ffcccc66" stroke-dasharray="5" />
<path d="M-289.485477218219,1530.2264964736569 L289.4854772182183,1530.2264964736569" stroke="#ffcccc66" stroke-dasharray="5" />
<path d="M-289.485477218219,1480.2264964736569 L289.4854772182183,1480.2264964736569" stroke="#ffcccc66" stroke-dasharray="5" />
<path d="M-289.485477218219,1430.2264964736569 L289.4854772182183,1430.2264964736569" stroke="#ffcccc66" stroke-dasharray="5" />
<path d="M-289.485477218219,1380.2264964736569 L289.4854772182183,1380.2264964736569" stroke="#ffcccc66" stroke-dasharray="5" />
<path d="M-289.485477218219,1330.2264964736569 L289.4854772182183,1330.2264964736569" stroke="#ffcccc66" stroke-dasharray="5" />
<path d="M-289.485477218219,1280.2264964736569 L289.4854772182183,1280.2264964736569" stroke="#ffcccc66" stroke-dasharray="5" />
<path d="M-289.485477218219,1230.2264964736569 L289.4854772182183,1230.2264964736569" stroke="#ffcccc66" stroke-dasharray="5" />
<path d="M-289.485477218219,1180.2264964736569 L289.4854772182183,1180.2264964736569" stroke="#ffcccc66" stroke-dasharray="5" />
<path d="M-289.485477218219,1130.2264964736569 L289.4854772182183,1130.2264964736569" stroke="#ffcccc66" stroke-dasharray="5" />
<path d="M-289.485477218219,1080.2264964736569 L289.4854772182183,1080.2264964736569" stroke="#ffcccc66" stroke-dasharray="5" />
<path d="M-289.485477218219,1030.2264964736569 L289.4854772182183,1030.2264964736569" stroke="#ffcccc66" stroke-dasharray="5" />
<path d="M-289.485477218219,980.2264964736569 L289.4854772182183,980.2264964736569" stroke="#ffcccc66" stroke-dasharray="5" />
<path d="M-289.485477218219,930.2264964736569 L289.4854772182183,930.2264964736569" stroke="#ffcccc66" stroke-dasharray="5" />
<path d="M-289.485477218219,880.2264964736569 L289.4854772182183,880.2264964736569" stroke="#ffcccc66" stroke-dasharray="5" />
<path d="M-289.485477218219,830.2264964736569 L289.4854772182183,830.2264964736569" stroke="#ffcccc66" stroke-dasharray="5" />
<path d="M-289.485477218219,780.2264964736569 L289.4854772182183,780.2264964736569" stroke="#ffcccc66" stroke-dasharray="5" />
<path d="M-289.485477218219,730.2264964736569 L289.4854772182183,730.2264964736569" stroke="#ffcccc66" stroke-dasharray="5" />
<path d="M-289.485477218219,680.2264964736569 L289.4854772182183,680.2264964736569" stroke="#ffcccc66" stroke-dasharray="5" />
<path d="M-289.485477218219,630.2264964736569 L289.4854772182183,630.2264964736569" stroke="#ffcccc66" stroke-dasharray="5" />
<path d="M-289.485477218219,580.2264964736569 L289.4854772182183,580.2264964736569" stroke="#ffcccc66" stroke-dasharray="5" />
<path d="M-289.485477218219,530.2264964736569 L289.4854772182183,530.2264964736569" stroke="#ffcccc66" stroke-dasharray="5" />
<path d="M-289.485477218219,480.2264964736569 L289.4854772182183,480.2264964736569" stroke="#ffcccc66" stroke-dasharray="5" />
<path d="M-289.485477218219,430.2264964736569 L289.4854772182183,430.2264964736569" stroke="#ffcccc66" stroke-dasharray="5" />
<path d="M-289.485477218219,380.2264964736569 L289.4854772182183,380.2264964736569" stroke="#ffcccc66" stroke-dasharray="5" />
<path d="M-289.485477218219,330.2264964736569 L289.4854772182183,330.2264964736569" stroke="#ffcccc66" stroke-dasharray="5" />
<path d="M-289.485477218219,280.2264964736569 L289.4854772182183,280.2264964736569" stroke="#ffcccc66" stroke-dasharray="5" />
<path d="M-289.485477218219,230.22649647365688 L289.4854772182183,230.22649647365688" stroke="#ffcccc66" stroke-dasharray="5" />
<path d="M-289.485477218219,180.22649647365688 L289.4854772182183,180.22649647365688" stroke="#ffcccc66" stroke-dasharray="5" />
<path d="M-289.485477218219,130.22649647365688 L289.4854772182183,130.22649647365688" stroke="#ffcccc66" stroke-dasharray="5" />
<path d="M-289.485477218219,80.22649647365688 L289.4854772182183,80.22649647365688" stroke="#ffcccc66" stroke-dasharray="5" />
<path d="M-289.485477218219,30.22649647365688 L289.4854772182183,30.22649647365688" stroke="#ffcccc66" stroke-dasharray="5" />
<path d="M-289.485477218219,-19.77350352634312 L289.4854772182183,-19.77350352634312" stroke="#ffcccc66" stroke-dasharray="5" />
<path d="M-289.485477218219,-69.77350352634312 L289.4854772182183,-69.77350352634312" stroke="#ffcccc66" stroke-dasharray="5" />
<path d="M-289.485477218219,1830.2264964736569 L-289.485477218219,-102.6999999999955" stroke="#ffcccc66" stroke-dasharray="5" />
<path d="M-239.485477218219,1830.2264964736569 L-239.485477218219,-102.6999999999955" stroke="#ffcccc66" stroke-dasharray="5" />
<path d="M-189.485477218219,1830.2264964736569 L-189.485477218219,-102.6999999999955" stroke="#ffcccc66" stroke-dasharray="5" />
<path d="M-139.485477218219,1830.2264964736569 L-139.485477218219,-102.6999999999955" stroke="#ffcccc66" stroke-dasharray="5" />
<path d="M-89.48547721821899,1830.2264964736569 L-89.48547721821899,-102.6999999999955" stroke="#ffcccc66" stroke-dasharray="5" />
<path d="M-39.48547721821899,1830.2264964736569 L-39.48547721821899,-102.6999999999955" stroke="#ffcccc66" stroke-dasharray="5" />
<path d="M10.514522781781011,1830.2264964736569 L10.514522781781011,-102.6999999999955" stroke="#ffcccc66" stroke-dasharray="5" />
<path d="M60.51452278178101,1830.2264964736569 L60.51452278178101,-102.6999999999955" stroke="#ffcccc66" stroke-dasharray="5" />
<path d="M110.51452278178101,1830.2264964736569 L110.51452278178101,-102.6999999999955" stroke="#ffcccc66" stroke-dasharray="5" />
<path d="M160.514522781781,1830.2264964736569 L160.514522781781,-102.6999999999955" stroke="#ffcccc66" stroke-dasharray="5" />
<path d="M210.514522781781,1830.2264964736569 L210.514522781781,-102.6999999999955" stroke="#ffcccc66" stroke-dasharray="5" />
<path d="M260.514522781781,1830.2264964736569 L260.514522781781,-102.6999999999955" stroke="#ffcccc66" stroke-dasharray="5" />
<g>
<path d="M59.60165155411547,1730.0 L59.79758356853188,1712.7 L60.5099515110431,1695.4 L61.732449960373835,1678.1000000000001 L63.46803869863432,1660.8000000000002 L65.73111619394724,1643.5000000000002 L68.47031494651677,1626.2000000000003 L71.64398874055823,1608.9000000000003 L75.24484763918062,1591.6000000000004 L79.229601867762,1574.3000000000004 L83.54814911494229,1557.0000000000005 L88.16390554140675,1539.7000000000005 L93.06467853499916,1522.4000000000005 L98.16595958306097,1505.1000000000006 L103.42071053303661,1487.8000000000006 L108.78417626018413,1470.5000000000007 L114.20659222185785,1453.2000000000007 L119.63239324894865,1435.9000000000008 L125.00984676285509,1418.6000000000008 L130.28194700965417,1401.3000000000009 L135.39543030753865,1384.000000000001 L140.31064775664578,1366.700000000001 L144.9848299019522,1349.400000000001 L149.3532191682578,1332.100000000001 L153.3800521631229,1314.800000000001 L157.0232249437711,1297.5000000000011 L160.2624516595357,1280.2000000000012 L163.03271700850877,1262.9000000000012 L165.34443768653833,1245.6000000000013 L167.1775334537917,1228.3000000000013 L168.49817947578882,1211.0000000000014 L169.25122864318067,1193.7000000000014 L169.48325717133807,1176.4000000000015 L169.196880167389,1159.1000000000015 L168.36305428140847,1141.8000000000015 L167.00599062300924,1124.5000000000016 L165.1535032357511,1107.2000000000016 L162.80731793683177,1089.9000000000017 L159.9501642481238,1072.6000000000017 L156.66554117703188,1055.3000000000018 L152.98381114498818,1038.0000000000018 L148.92908514183324,1020.7000000000019 L144.5271724818326,1003.4000000000019 L139.83920968253935,986.100000000002 L134.90000554786394,968.800000000002 L129.7585660163403,951.500000000002 L124.47045874054109,934.2000000000021 L119.0897049868936,916.9000000000021 L113.66308946319711,899.6000000000022 L108.24275707281163,882.3000000000022 L102.88704692810902,865.0000000000023 L97.64513778069212,847.7000000000023 L92.5644935818274,830.4000000000024 L87.7085865086358,813.1000000000024 L83.10726076224667,795.8000000000025 L78.8005660210198,778.5000000000025 L74.84948474663427,761.2000000000025 L71.30977447449071,743.9000000000026 L68.18077005760746,726.6000000000026 L65.48895582641191,709.3000000000027 L63.29131484386871,692.0000000000027 L61.589214582642796,674.7000000000028 L60.389172966638434,657.4000000000028 L59.633950977747574,640.1000000000029 L58.95632988323401,622.8000000000029 L58.27876277381038,605.500000000003 L57.601195664386736,588.200000000003 L56.92362855496309,570.900000000003 L56.24606144553943,553.6000000000031 L55.568494336115805,536.3000000000031 L54.890927226692156,519.0000000000032 L54.21336011726851,501.70000000000323 L53.53579300784487,484.4000000000033 L52.858225898421225,467.1000000000033 L52.180658788997576,449.80000000000337 L51.503091679573934,432.5000000000034 L50.82552457015029,415.20000000000346 L50.14795746072665,397.9000000000035 L49.47039035130301,380.60000000000355 L48.79282324187937,363.3000000000036 L48.11525613245571,346.00000000000364 L47.43768902303208,328.7000000000037 L46.76012191360843,311.40000000000373 L46.08255480418479,294.1000000000038 L45.40498769476114,276.8000000000038 L44.771459351188305,259.50000000000387 L44.2033620611091,242.2000000000039 L43.63526477102988,224.90000000000396 L43.06716748095067,207.600000000004 L42.499070190871464,190.30000000000405 L41.93097290079225,173.0000000000041 L41.36287561071304,155.70000000000414 L40.79477832063384,138.40000000000418 L40.22668103055462,121.10000000000423 L39.65858374047541,103.80000000000427 L39.0904864503962,86.50000000000432 L38.52238916031699,69.20000000000437 L37.95429187023778,51.90000000000441 L37.38619458015857,34.60000000000446 L36.818097290079365,17.300000000004502 L-36.818097290079365,17.300000000004502 L-37.38619458015857,34.60000000000446 L-37.95429187023778,51.90000000000441 L-38.52238916031699,69.20000000000437 L-39.0904864503962,86.50000000000432 L-39.65858374047541,103.80000000000427 L-40.22668103055462,121.10000000000423 L-40.79477832063384,138.40000000000418 L-41.36287561071304,155.70000000000414 L-41.93097290079225,173.0000000000041 L-42.499070190871464,190.30000000000405 L-43.06716748095067,207.600000000004 L-43.63526477102988,224.90000000000396 L-44.2033620611091,242.2000000000039 L-44.771459351188305,259.50000000000387 L-45.40498769476114,276.8000000000038 L-46.08255480418479,294.1000000000038 L-46.76012191360843,311.40000000000373 L-47.43768902303208,328.7000000000037 L-48.11525613245571,346.00000000000364 L-48.79282324187937,363.3000000000036 L-49.47039035130301,380.60000000000355 L-50.14795746072665,397.9000000000035 L-50.82552457015029,415.20000000000346 L-51.503091679573934,432.5000000000034 L-52.180658788997576,449.80000000000337 L-52.858225898421225,467.1000000000033 L-53.53579300784487,484.4000000000033 L-54.21336011726851,501.70000000000323 L-54.890927226692156,519.0000000000032 L-55.568494336115805,536.3000000000031 L-56.24606144553943,553.6000000000031 L-56.92362855496309,570.900000000003 L-57.601195664386736,588.200000000003 L-58.27876277381038,605.500000000003 L-58.95632988323401,622.8000000000029 L-59.633950977747574,640.1000000000029 L-60.389172966638434,657.4000000000028 L-61.589214582642796,674.7000000000028 L-63.29131484386871,692.0000000000027 L-65.48895582641191,709.3000000000027 L-68.18077005760746,726.6000000000026 L-71.30977447449071,743.9000000000026 L-74.84948474663427,761.2000000000025 L-78.8005660210198,778.5000000000025 L-83.10726076224667,795.8000000000025 L-87.7085865086358,813.1000000000024 L-92.5644935818274,830.4000000000024 L-97.64513778069212,847.7000000000023 L-102.88704692810902,865.0000000000023 L-108.24275707281163,882.3000000000022 L-113.66308946319711,899.6000000000022 L-119.0897049868936,916.9000000000021 L-124.47045874054109,934.2000000000021 L-129.7585660163403,951.500000000002 L-134.90000554786394,968.800000000002 L-139.83920968253935,986.100000000002 L-144.5271724818326,1003.4000000000019 L-148.92908514183324,1020.7000000000019 L-152.98381114498818,1038.0000000000018 L-156.66554117703188,1055.3000000000018 L-159.9501642481238,1072.6000000000017 L-162.80731793683177,1089.9000000000017 L-165.1535032357511,1107.2000000000016 L-167.00599062300924,1124.5000000000016 L-168.36305428140847,1141.8000000000015 L-169.196880167389,1159.1000000000015 L-169.48325717133807,1176.4000000000015 L-169.25122864318067,1193.7000000000014 L-168.49817947578882,1211.0000000000014 L-167.1775334537917,1228.3000000000013 L-165.34443768653833,1245.6000000000013 L-163.03271700850877,1262.9000000000012 L-160.2624516595357,1280.2000000000012 L-157.0232249437711,1297.5000000000011 L-153.3800521631229,1314.800000000001 L-149.3532191682578,1332.100000000001 L-144.9848299019522,1349.400000000001 L-140.31064775664578,1366.700000000001 L-135.39543030753865,1384.000000000001 L-130.28194700965417,1401.3000000000009 L-125.00984676285509,1418.6000000000008 L-119.63239324894865,1435.9000000000008 L-114.20659222185785,1453.2000000000007 L-108.78417626018413,1470.5000000000007 L-103.42071053303661,1487.8000000000006 L-98.16595958306097,1505.1000000000006 L-93.06467853499916,1522.4000000000005 L-88.16390554140675,1539.7000000000005 L-83.54814911494229,1557.0000000000005 L-79.229601867762,1574.3000000000004 L-75.24484763918062,1591.6000000000004 L-71.64398874055823,1608.9000000000003 L-68.47031494651677,1626.2000000000003 L-65.73111619394724,1643.5000000000002 L-63.46803869863432,1660.8000000000002 L-61.732449960373835,1678.1000000000001 L-60.5099515110431,1695.4 L-59.79758356853188,1712.7 L-59.60165155411547,1730.0 L59.60165155411547,1730.0" fill="#E6E6FA66" stroke="black" />
</g>
<g>
<path d="M-36.818097290079365,17.300000000004502 L-37.38619458015857,34.60000000000446 L-37.95429187023778,51.90000000000441 L-38.52238916031699,69.20000000000437 L-39.0904864503962,86.50000000000432 L-39.65858374047541,103.80000000000427 L-40.22668103055462,121.10000000000423 L-40.79477832063384,138.40000000000418 L-41.36287561071304,155.70000000000414 L-41.93097290079225,173.0000000000041 L-42.499070190871464,190.30000000000405 L-43.06716748095067,207.600000000004 L-43.63526477102988,224.90000000000396 L-44.2033620611091,242.2000000000039 L-44.771459351188305,259.50000000000387 L-45.40498769476114,276.8000000000038 L-46.08255480418479,294.1000000000038 L-46.76012191360843,311.40000000000373 L-47.43768902303208,328.7000000000037 L-48.11525613245571,346.00000000000364 L-48.79282324187937,363.3000000000036 L-49.47039035130301,380.60000000000355 L-50.14795746072665,397.9000000000035 L-50.82552457015029,415.20000000000346 L-51.503091679573934,432.5000000000034 L-52.180658788997576,449.80000000000337 L-52.858225898421225,467.1000000000033 L-53.53579300784487,484.4000000000033 L-54.21336011726851,501.70000000000323 L-54.890927226692156,519.0000000000032 L-55.568494336115805,536.3000000000031 L-56.24606144553943,553.6000000000031 L-56.92362855496309,570.900000000003 L-57.601195664386736,588.200000000003 L-58.27876277381038,605.500000000003 L-58.95632988323401,622.8000000000029 L-59.633950977747574,640.1000000000029 L-60.389172966638434,657.4000000000028 L-61.589214582642796,674.7000000000028 L-63.29131484386871,692.0000000000027 L-65.48895582641191,709.3000000000027 L-68.18077005760746,726.6000000000026 L-71.30977447449071,743.9000000000026 L-74.84948474663427,761.2000000000025 L-78.8005660210198,778.5000000000025 L-83.10726076224667,795.8000000000025 L-87.7085865086358,813.1000000000024 L-92.5644935818274,830.4000000000024 L-97.64513778069212,847.7000000000023 L-102.88704692810902,865.0000000000023 L-108.24275707281163,882.3000000000022 L-113.66308946319711,899.6000000000022 L-119.0897049868936,916.9000000000021 L-124.47045874054109,934.2000000000021 L-129.7585660163403,951.500000000002 L-134.90000554786394,968.800000000002 L-139.83920968253935,986.100000000002 L-144.5271724818326,1003.4000000000019 L-148.92908514183324,1020.7000000000019 L-152.98381114498818,1038.0000000000018 L-156.66554117703188,1055.3000000000018 L-159.9501642481238,1072.6000000000017 L-162.80731793683177,1089.9000000000017 L-165.1535032357511,1107.2000000000016 L-167.00599062300924,1124.5000000000016 L-168.36305428140847,1141.8000000000015 L-169.196880167389,1159.1000000000015 L-169.48325717133807,1176.4000000000015 L-169.25122864318067,1193.7000000000014 L-168.49817947578882,1211.0000000000014 L-167.1775334537917,1228.3000000000013 L-165.34443768653833,1245.6000000000013 L-163.03271700850877,1262.9000000000012 L-160.2624516595357,1280.2000000000012 L-157.0232249437711,1297.5000000000011 L-153.3800521631229,1314.800000000001 L-149.3532191682578,1332.100000000001 L-144.9848299019522,1349.400000000001 L-140.31064775664578,1366.700000000001 L-135.39543030753865,1384.000000000001 L-130.28194700965417,1401.3000000000009 L-125.00984676285509,1418.6000000000008 L-119.63239324894865,1435.9000000000008 L-114.20659222185785,1453.2000000000007 L-108.78417626018413,1470.5000000000007 L-103.42071053303661,1487.8000000000006 L-98.16595958306097,1505.1000000000006 L-93.06467853499916,1522.4000000000005 L-88.16390554140675,1539.7000000000005 L-83.54814911494229,1557.0000000000005 L-79.229601867762,1574.3000000000004 L-75.24484763918062,1591.6000000000004 L-71.64398874055823,1608.9000000000003 L-68.47031494651677,1626.2000000000003 L-65.73111619394724,1643.5000000000002 L-63.46803869863432,1660.8000000000002 L-61.732449960373835,1678.1000000000001 L-60.5099515110431,1695.4 L-59.79758356853188,1712.7 L-59.60165155411547,1730.0 L-79.60036899667716,1730.2264964736569 L-79.79292267638661,1713.2247896883268 L-80.48092331367464,1696.5165546389917 L-81.66194706169514,1679.803477536977 L-83.33810964571461,1663.0958255084086 L-85.5271922629482,1646.3614762178743 L-88.18607106022881,1629.5687542038795 L-91.27280449613787,1612.742674427984 L-94.78205812035176,1595.8827836607766 L-98.67833929115845,1578.9668936489204 L-102.91369318765575,1562.000164280087 L-107.44844647058098,1545.0037666052049 L-112.27832041380238,1527.954044178361 L-117.32632162446545,1510.8347323581097 L-122.54071852773949,1493.6675883230494 L-127.87798058597427,1476.452108947444 L-133.290574875795,1459.183444596399 L-138.72346306666068,1441.8608473922823 L-144.12498685035976,1424.4834100576109 L-149.43782161754365,1407.0497427960538 L-154.60511338015849,1389.567697332015 L-159.58458679019162,1372.0415368140825 L-164.33567432717123,1354.4568959433193 L-168.79022043381894,1336.8156916121488 L-172.907245108677,1319.1282119064165 L-176.64026195668782,1301.401577634877 L-179.96925401464802,1283.6221606146282 L-182.8221507229019,1265.8061369362192 L-185.20436125515008,1247.978618845659 L-187.09715113506638,1230.115250489508 L-188.4650419017571,1212.1963608933559 L-189.24539440630036,1194.2691140240017 L-189.48547721821896,1176.3685882603654 L-189.18890842975082,1158.4529037963007 L-188.32536174171534,1140.536264418509 L-186.9225360620466,1122.652885029419 L-185.00987485695742,1104.7909340786955 L-182.58708054426168,1086.9260443664666 L-179.6438306626954,1069.1047338950327 L-176.27337648371076,1051.3526643167502 L-172.50298487849204,1033.6360544071254 L-168.35818775242208,1015.9517545986521 L-163.87143709393405,998.3183319509978 L-159.10776568425229,980.7389442903474 L-154.10197504694992,963.205719166612 L-148.9076989585664,945.7279338541379 L-143.58257793543768,928.3068436803946 L-138.1801269482269,910.9370835393761 L-132.74727215078562,893.617192792498 L-127.33810911405773,876.3528418642455 L-122.01025395923664,859.1428189750172 L-116.81060588021487,841.9822942048763 L-111.78789729079027,824.8795695904557 L-107.00142576476668,807.8269456106108 L-102.47634940838304,790.813626997627 L-98.2552187000405,773.8573378612575 L-94.39801293549668,756.9683763106026 L-90.94971839768021,740.1151620874816 L-87.905193256892,723.282240838969 L-85.29422102229286,706.5018036397443 L-83.16751653062761,689.7602211892568 L-81.5213281706495,673.0285049229631 L-80.3589649385982,656.2716827875455 L-79.61687401437578,639.2724783444792 L-78.94100674577669,622.0172543831366 L-78.26344085572286,604.7172855167277 L-77.58587374629896,587.4172855167299 L-76.90830663687517,570.1172855167255 L-76.23073952745145,552.8172855167253 L-75.55317241802821,535.5172855167243 L-74.87560530860468,518.2172855167272 L-74.19803819918083,500.91728551672236 L-73.5204710897573,483.61728551672536 L-72.84290398033347,466.3172855167211 L-72.16533687091008,449.0172855167277 L-71.4877697614861,431.71728551672294 L-70.81020265206273,414.41728551672645 L-70.13263554263891,397.117285516725 L-69.45506843321539,379.81728551672524 L-68.77750132379181,362.51728551672716 L-68.09993421436789,345.21728551672214 L-67.42236710494443,327.91728551672514 L-66.74479999552075,310.61728551672445 L-66.06723288609696,293.317285516726 L-65.39066058466845,276.04268547796175 L-64.7594449110686,258.8058384385761 L-64.19258743604144,241.54359394415044 L-63.62449014596221,224.24359394414978 L-63.05639285588304,206.94359394415096 L-62.48829556580378,189.6435939441494 L-61.92019827572457,172.34359394414966 L-61.35210098564528,155.0435939441499 L-60.78400369556612,137.74359394415018 L-60.21590640548694,120.44359394414958 L-59.647809115407746,103.14359394414984 L-59.079711825328516,85.84359394415004 L-58.511614535249294,68.5435939441503 L-57.943517245170106,51.243593944150156 L-57.375419955090884,33.94359394414997 L-56.80732266501167,16.643593944150073 L-36.818097290079365,17.300000000004502" fill="#E6E6FA66" stroke="black" />
<text x="-100.57626865720214" y="878.0068196631202" font-size="12" stroke="none" fill="black" text-anchor="middle" dy="0em">seam allowance</text>
</g>
<g>
<path d="M59.60165155411547,1730.0 L59.79758356853188,1712.7 L60.5099515110431,1695.4 L61.732449960373835,1678.1000000000001 L63.46803869863432,1660.8000000000002 L65.73111619394724,1643.5000000000002 L68.47031494651677,1626.2000000000003 L71.64398874055823,1608.9000000000003 L75.24484763918062,1591.6000000000004 L79.229601867762,1574.3000000000004 L83.54814911494229,1557.0000000000005 L88.16390554140675,1539.7000000000005 L93.06467853499916,1522.4000000000005 L98.16595958306097,1505.1000000000006 L103.42071053303661,1487.8000000000006 L108.78417626018413,1470.5000000000007 L114.20659222185785,1453.2000000000007 L119.63239324894865,1435.9000000000008 L125.00984676285509,1418.6000000000008 L130.28194700965417,1401.3000000000009 L135.39543030753865,1384.000000000001 L140.31064775664578,1366.700000000001 L144.9848299019522,1349.400000000001 L149.3532191682578,1332.100000000001 L153.3800521631229,1314.800000000001 L157.0232249437711,1297.5000000000011 L160.2624516595357,1280.2000000000012 L163.03271700850877,1262.9000000000012 L165.34443768653833,1245.6000000000013 L167.1775334537917,1228.3000000000013 L168.49817947578882,1211.0000000000014 L169.25122864318067,1193.7000000000014 L169.48325717133807,1176.4000000000015 L169.196880167389,1159.1000000000015 L168.36305428140847,1141.8000000000015 L167.00599062300924,1124.5000000000016 L165.1535032357511,1107.2000000000016 L162.80731793683177,1089.9000000000017 L159.9501642481238,1072.6000000000017 L156.66554117703188,1055.3000000000018 L152.98381114498818,1038.0000000000018 L148.92908514183324,1020.7000000000019 L144.5271724818326,1003.4000000000019 L139.83920968253935,986.100000000002 L134.90000554786394,968.800000000002 L129.7585660163403,951.500000000002 L124.47045874054109,934.2000000000021 L119.0897049868936,916.9000000000021 L113.66308946319711,899.6000000000022 L108.24275707281163,882.3000000000022 L102.88704692810902,865.0000000000023 L97.64513778069212,847.7000000000023 L92.5644935818274,830.4000000000024 L87.7085865086358,813.1000000000024 L83.10726076224667,795.8000000000025 L78.8005660210198,778.5000000000025 L74.84948474663427,761.2000000000025 L71.30977447449071,743.9000000000026 L68.18077005760746,726.6000000000026 L65.48895582641191,709.3000000000027 L63.29131484386871,692.0000000000027 L61.589214582642796,674.7000000000028 L60.389172966638434,657.4000000000028 L59.633950977747574,640.1000000000029 L58.95632988323401,622.8000000000029 L58.27876277381038,605.500000000003 L57.601195664386736,588.200000000003 L56.92362855496309,570.900000000003 L56.24606144553943,553.6000000000031 L55.568494336115805,536.3000000000031 L54.890927226692156,519.0000000000032 L54.21336011726851,501.70000000000323 L53.53579300784487,484.4000000000033 L52.858225898421225,467.1000000000033 L52.180658788997576,449.80000000000337 L51.503091679573934,432.5000000000034 L50.82552457015029,415.20000000000346 L50.14795746072665,397.9000000000035 L49.47039035130301,380.60000000000355 L48.79282324187937,363.3000000000036 L48.11525613245571,346.00000000000364 L47.43768902303208,328.7000000000037 L46.76012191360843,311.40000000000373 L46.08255480418479,294.1000000000038 L45.40498769476114,276.8000000000038 L44.771459351188305,259.50000000000387 L44.2033620611091,242.2000000000039 L43.63526477102988,224.90000000000396 L43.06716748095067,207.600000000004 L42.499070190871464,190.30000000000405 L41.93097290079225,173.0000000000041 L41.36287561071304,155.70000000000414 L40.79477832063384,138.40000000000418 L40.22668103055462,121.10000000000423 L39.65858374047541,103.80000000000427 L39.0904864503962,86.50000000000432 L38.52238916031699,69.20000000000437 L37.95429187023778,51.90000000000441 L37.38619458015857,34.60000000000446 L36.818097290079365,17.300000000004502 L-36.818097290079365,17.300000000004502 L-37.38619458015857,34.60000000000446 L-37.95429187023778,51.90000000000441 L-38.52238916031699,69.20000000000437 L-39.0904864503962,86.50000000000432 L-39.65858374047541,103.80000000000427 L-40.22668103055462,121.10000000000423 L-40.79477832063384,138.40000000000418 L-41.36287561071304,155.70000000000414 L-41.93097290079225,173.0000000000041 L-42.499070190871464,190.30000000000405 L-43.06716748095067,207.600000000004 L-43.63526477102988,224.90000000000396 L-44.2033620611091,242.2000000000039 L-44.771459351188305,259.50000000000387 L-45.40498769476114,276.8000000000038 L-46.08255480418479,294.1000000000038 L-46.76012191360843,311.40000000000373 L-47.43768902303208,328.7000000000037 L-48.11525613245571,346.00000000000364 L-48.79282324187937,363.3000000000036 L-49.47039035130301,380.60000000000355 L-50.14795746072665,397.9000000000035 L-50.82552457015029,415.20000000000346 L-51.503091679573934,432.5000000000034 L-52.180658788997576,449.80000000000337 L-52.858225898421225,467.1000000000033 L-53.53579300784487,484.4000000000033 L-54.21336011726851,501.70000000000323 L-54.890927226692156,519.0000000000032 L-55.568494336115805,536.3000000000031 L-56.24606144553943,553.6000000000031 L-56.92362855496309,570.900000000003 L-57.601195664386736,588.200000000003 L-58.27876277381038,605.500000000003 L-58.95632988323401,622.8000000000029 L-59.633950977747574,640.1000000000029 L-60.389172966638434,657.4000000000028 L-61.589214582642796,674.7000000000028 L-63.29131484386871,692.0000000000027 L-65.48895582641191,709.3000000000027 L-68.18077005760746,726.6000000000026 L-71.30977447449071,743.9000000000026 L-74.84948474663427,761.2000000000025 L-78.8005660210198,778.5000000000025 L-83.10726076224667,795.8000000000025 L-87.7085865086358,813.1000000000024 L-92.5644935818274,830.4000000000024 L-97.64513778069212,847.7000000000023 L-102.88704692810902,865.0000000000023 L-108.24275707281163,882.3000000000022 L-113.66308946319711,899.6000000000022 L-119.0897049868936,916.9000000000021 L-124.47045874054109,934.2000000000021 L-129.7585660163403,951.500000000002 L-134.90000554786394,968.800000000002 L-139.83920968253935,986.100000000002 L-144.5271724818326,1003.4000000000019 L-148.92908514183324,1020.7000000000019 L-152.98381114498818,1038.0000000000018 L-156.66554117703188,1055.3000000000018 L-159.9501642481238,1072.6000000000017 L-162.80731793683177,1089.9000000000017 L-165.1535032357511,1107.2000000000016 L-167.00599062300924,1124.5000000000016 L-168.36305428140847,1141.8000000000015 L-169.196880167389,1159.1000000000015 L-169.48325717133807,1176.4000000000015 L-169.25122864318067,1193.7000000000014 L-168.49817947578882,1211.0000000000014 L-167.1775334537917,1228.3000000000013 L-165.34443768653833,1245.6000000000013 L-163.03271700850877,1262.9000000000012 L-160.2624516595357,1280.2000000000012 L-157.0232249437711,1297.5000000000011 L-153.3800521631229,1314.800000000001 L-149.3532191682578,1332.100000000001 L-144.9848299019522,1349.400000000001 L-140.31064775664578,1366.700000000001 L-135.39543030753865,1384.000000000001 L-130.28194700965417,1401.3000000000009 L-125.00984676285509,1418.6000000000008 L-119.63239324894865,1435.9000000000008 L-114.20659222185785,1453.2000000000007 L-108.78417626018413,1470.5000000000007 L-103.42071053303661,1487.8000000000006 L-98.16595958306097,1505.1000000000006 L-93.06467853499916,1522.4000000000005 L-88.16390554140675,1539.7000000000005 L-83.54814911494229,1557.0000000000005 L-79.229601867762,1574.3000000000004 L-75.24484763918062,1591.6000000000004 L-71.64398874055823,1608.9000000000003 L-68.47031494651677,1626.2000000000003 L-65.73111619394724,1643.5000000000002 L-63.46803869863432,1660.8000000000002 L-61.732449960373835,1678.1000000000001 L-60.5099515110431,1695.4 L-59.79758356853188,1712.7 L-59.60165155411547,1730.0 L-79.60036899667716,1730.2264964736569 L-79.79292267638661,1713.2247896883268 L-80.48092331367464,1696.5165546389917 L-81.66194706169514,1679.803477536977 L-83.33810964571461,1663.0958255084086 L-85.5271922629482,1646.3614762178743 L-88.18607106022881,1629.5687542038795 L-91.27280449613787,1612.742674427984 L-94.78205812035176,1595.8827836607766 L-98.67833929115845,1578.9668936489204 L-102.91369318765575,1562.000164280087 L-107.44844647058098,1545.0037666052049 L-112.27832041380238,1527.954044178361 L-117.32632162446545,1510.8347323581097 L-122.54071852773949,1493.6675883230494 L-127.87798058597427,1476.452108947444 L-133.290574875795,1459.183444596399 L-138.72346306666068,1441.8608473922823 L-144.12498685035976,1424.4834100576109 L-149.43782161754365,1407.0497427960538 L-154.60511338015849,1389.567697332015 L-159.58458679019162,1372.0415368140825 L-164.33567432717123,1354.4568959433193 L-168.79022043381894,1336.8156916121488 L-172.907245108677,1319.1282119064165 L-176.64026195668782,1301.401577634877 L-179.96925401464802,1283.6221606146282 L-182.8221507229019,1265.8061369362192 L-185.20436125515008,1247.978618845659 L-187.09715113506638,1230.115250489508 L-188.4650419017571,1212.1963608933559 L-189.24539440630036,1194.2691140240017 L-189.48547721821896,1176.3685882603654 L-189.18890842975082,1158.4529037963007 L-188.32536174171534,1140.536264418509 L-186.9225360620466,1122.652885029419 L-185.00987485695742,1104.7909340786955 L-182.58708054426168,1086.9260443664666 L-179.6438306626954,1069.1047338950327 L-176.27337648371076,1051.3526643167502 L-172.50298487849204,1033.6360544071254 L-168.35818775242208,1015.9517545986521 L-163.87143709393405,998.3183319509978 L-159.10776568425229,980.7389442903474 L-154.10197504694992,963.205719166612 L-148.9076989585664,945.7279338541379 L-143.58257793543768,928.3068436803946 L-138.1801269482269,910.9370835393761 L-132.74727215078562,893.617192792498 L-127.33810911405773,876.3528418642455 L-122.01025395923664,859.1428189750172 L-116.81060588021487,841.9822942048763 L-111.78789729079027,824.8795695904557 L-107.00142576476668,807.8269456106108 L-102.47634940838304,790.813626997627 L-98.2552187000405,773.8573378612575 L-94.39801293549668,756.9683763106026 L-90.94971839768021,740.1151620874816 L-87.905193256892,723.282240838969 L-85.29422102229286,706.5018036397443 L-83.16751653062761,689.7602211892568 L-81.5213281706495,673.0285049229631 L-80.3589649385982,656.2716827875455 L-79.61687401437578,639.2724783444792 L-78.94100674577669,622.0172543831366 L-78.26344085572286,604.7172855167277 L-77.58587374629896,587.4172855167299 L-76.90830663687517,570.1172855167255 L-76.23073952745145,552.8172855167253 L-75.55317241802821,535.5172855167243 L-74.87560530860468,518.2172855167272 L-74.19803819918083,500.91728551672236 L-73.5204710897573,483.61728551672536 L-72.84290398033347,466.3172855167211 L-72.16533687091008,449.0172855167277 L-71.4877697614861,431.71728551672294 L-70.81020265206273,414.41728551672645 L-70.13263554263891,397.117285516725 L-69.45506843321539,379.81728551672524 L-68.77750132379181,362.51728551672716 L-68.09993421436789,345.21728551672214 L-67.42236710494443,327.91728551672514 L-66.74479999552075,310.61728551672445 L-66.06723288609696,293.317285516726 L-65.39066058466845,276.04268547796175 L-64.7594449110686,258.8058384385761 L-64.19258743604144,241.54359394415044 L-63.62449014596221,224.24359394414978 L-63.05639285588304,206.94359394415096 L-62.48829556580378,189.6435939441494 L-61.92019827572457,172.34359394414966 L-61.35210098564528,155.0435939441499 L-60.78400369556612,137.74359394415018 L-60.21590640548694,120.44359394414958 L-59.647809115407746,103.14359394414984 L-59.079711825328516,85.84359394415004 L-58.511614535249294,68.5435939441503 L-57.943517245170106,51.243593944150156 L-57.375419955090884,33.94359394414997 L-56.172117849979124,-2.699999999995498 L56.17211784997921,-2.6999999999952777 L57.375419955090884,33.94359394414996 L57.94351724517008,51.243593944150156 L58.51161453524931,68.54359394414993 L59.07971182532853,85.84359394414966 L59.647809115407725,103.14359394414984 L60.215906405486905,120.4435939441496 L60.78400369556607,137.74359394415018 L61.35210098564538,155.0435939441499 L61.92019827572457,172.34359394414966 L62.48829556580378,189.6435939441494 L63.05639285588304,206.94359394415096 L63.6244901459622,224.24359394414978 L64.19258743604155,241.54359394415042 L64.75944491106843,258.805838438576 L65.39066058466832,276.04268547796175 L66.06723288609717,293.317285516726 L66.74479999552075,310.61728551672445 L67.42236710494437,327.91728551672514 L68.09993421436796,345.21728551672214 L68.77750132379181,362.51728551672716 L69.45506843321527,379.81728551672524 L70.13263554263902,397.117285516725 L70.8102026520626,414.41728551672645 L71.48776976148625,431.71728551672294 L72.16533687091008,449.0172855167277 L72.84290398033347,466.3172855167211 L73.52047108975732,483.61728551672525 L74.19803819918083,500.9172855167225 L74.87560530860468,518.2172855167272 L75.55317241802776,535.5172855167243 L76.23073952745149,552.8172855167252 L76.90830663687512,570.1172855167256 L77.58587374629931,587.4172855167299 L78.26344085572286,604.7172855167277 L78.94100674577686,622.0172543831367 L79.61687401437536,639.272478344479 L80.35896493859836,656.2716827875455 L81.52132817064977,673.028504922963 L83.16751653062713,689.7602211892568 L85.29422102229336,706.5018036397443 L87.9051932568916,723.2822408389692 L90.94971839768063,740.1151620874816 L94.39801293549654,756.9683763106024 L98.25521870004056,773.8573378612575 L102.47634940838267,790.8136269976271 L107.00142576476681,807.8269456106108 L111.78789729079067,824.8795695904555 L116.81060588021491,841.9822942048763 L122.01025395923662,859.1428189750171 L127.33810911405797,876.3528418642454 L132.74727215078553,893.617192792498 L138.180126948227,910.9370835393761 L143.5825779354378,928.3068436803946 L148.90769895856621,945.7279338541381 L154.1019750469489,963.2057191666122 L159.1077656842529,980.7389442903474 L163.87143709393357,998.3183319509977 L168.3581877524224,1015.9517545986521 L172.50298487849287,1033.6360544071254 L176.2733764837096,1051.3526643167506 L179.64383066269704,1069.1047338950325 L182.58708054426106,1086.9260443664668 L185.0098748569576,1104.7909340786955 L186.92253606204486,1122.652885029419 L188.32536174171724,1140.5362644185088 L189.18890842974983,1158.4529037963007 L189.4854772182183,1176.3685882603656 L189.24539440630016,1194.2691140240017 L188.46504190175787,1212.196360893356 L187.09715113506607,1230.1152504895078 L185.20436125515022,1247.9786188456587 L182.82215072290109,1265.8061369362192 L179.969254014648,1283.6221606146282 L176.64026195668737,1301.4015776348767 L172.90724510867724,1319.1282119064163 L168.79022043381806,1336.8156916121484 L164.3356743271713,1354.4568959433193 L159.58458679019287,1372.041536814083 L154.60511338015752,1389.567697332015 L149.437821617543,1407.0497427960536 L144.12498685036104,1424.4834100576113 L138.72346306666074,1441.8608473922825 L133.2905748757946,1459.183444596399 L127.877980585975,1476.4521089474445 L122.54071852773747,1493.6675883230491 L117.32632162446748,1510.8347323581102 L112.27832041380195,1527.954044178361 L107.44844647057973,1545.0037666052046 L102.91369318765729,1562.0001642800873 L98.67833929115885,1578.9668936489206 L94.7820581203517,1595.8827836607768 L91.27280449613704,1612.7426744279837 L88.18607106023039,1629.56875420388 L85.52719226294658,1646.361476217874 L83.3381096457159,1663.0958255084086 L81.66194706169534,1679.8034775369772 L80.48092331367499,1696.516554638992 L79.79292267638607,1713.2247896883268 L79.60036899667716,1730.2264964736569 L59.60165155411547,1730.0" fill="#E6E6FA66" stroke="black" />
<text x="-0.0012712809616215713" y="855.6418291854967" font-size="12" stroke="none" fill="black" text-anchor="middle" dy="0em">right side seam</text>
</g>
<g>
<path d="M0.0,17.300000000004502 L0.0,1730.0" fill="none" stroke="black" stroke-dasharray="3" />
</g>
</svg>