<?xml version="1.0" encoding="UTF-8"?>
<svg xmlns="http://www.w3.org/2000/svg" xmlns:xlink="http://www.w3.org/1999/xlink"
     width="500" height="1350" viewBox="-50 -150 500 1350" stroke="black" fill="none">
<defs>
<path d="M50,0 L150,-50 L250,50 L350,0" fill="none" stroke="black" id="d0" />
<path d="M50,150 L150,100 L250,200 L350,150" fill="none" stroke="black" id="d1" />
<marker markerWidth="15.2" markerHeight="8.0" viewBox="-1.0 -0.5 1.9 1.0" orient="auto" id="d2">
<path d="M-1.0,0.5 L-1.0,-0.5 L0.0,0 Z" fill="black" stroke="none" />
</marker>
<path d="M50,300 L150,250 L250,350 L350,300" fill="none" stroke="black" id="d3" />
<marker markerWidth="15.2" markerHeight="8.0" viewBox="-1.0 -0.5 1.9 1.0" orient="auto" id="d4">
<path d="M-1.0,0.5 L-1.0,-0.5 L0.0,0 Z" fill="black" stroke="none" />
</marker>
<path d="M50,450 L150,400 L250,500 L350,450" fill="none" stroke="black" id="d5" />
<path d="M50,900 L150,850 L250,950 L350,900" fill="none" stroke="black" id="d6" />
<path d="M50,1050 L150,1000 L250,1100 L350,1050" fill="none" stroke="black" id="d7" />
<path d="M51.788854381999755,1053.5777087639997 L96.5102139319944,1143.020427863992" id="d8" />
<path d="M60.733126291998914,1049.1055728090003 L105.45448584199357,1138.5482919089925" id="d9" />
<path d="M69.67739820199807,1044.6334368540006 L114.39875775199272,1134.0761559539928" id="d10" />
<path d="M78.62167011199723,1040.161300899001 L123.34302966199189,1129.6040199989932" id="d11" />
<path d="M87.56594202199639,1035.6891649440015 L132.28730157199104,1125.1318840439938" id="d12" />
<path d="M96.51021393199555,1031.2170289890018 L141.2315734819902,1120.659748088994" id="d13" />
<path d="M105.45448584199487,1026.7448930340022 L150.17584539199297,1116.1876121339926" id="d14" />
<path d="M114.39875775199401,1022.2727570790025 L159.1201173019921,1111.7154761789932" id="d15" />
<path d="M123.34302966199319,1017.800621124003 L168.06438921199126,1107.2433402239935" id="d16" />
<path d="M132.28730157199234,1013.3284851690033 L177.0086611219904,1102.7712042689939" id="d17" />
<path d="M141.23157348199152,1008.8563492140038 L185.9529330319896,1098.2990683139944" id="d18" />
<path d="M150.17584539199066,1004.3842132590042 L194.89720494198875,1093.8269323589948" id="d19" />
<path d="M152.96744511343002,1008.6242993629223 L82.25676699477576,1079.3349774815777" id="d20" />
<path d="M160.0385129252955,1015.6953671747879 L89.32783480664123,1086.4060452934432" id="d21" />
<path d="M167.109580737161,1022.7664349866534 L96.39890261850674,1093.4771131053087" id="d22" />
<path d="M174.18064854902627,1029.8375027985187 L103.46997043036725,1100.5481809171692" id="d23" />
<path d="M181.25171636089175,1036.908570610384 L110.54103824223273,1107.6192487290346" id="d24" />
<path d="M188.32278417275722,1043.9796384222495 L117.6121060540982,1114.6903165409" id="d25" />
<path d="M195.3938519846227,1051.050706234115 L124.68317386596368,1121.7613843527656" id="d26" />
<path d="M202.46491979648818,1058.1217740459806 L131.75424167782916,1128.8324521646311" id="d27" />
<path d="M209.53598760835362,1065.192841857846 L138.82530948969463,1135.9035199764965" id="d28" />
<path d="M216.60705542021913,1072.2639096697114 L145.8963773015601,1142.974587788362" id="d29" />
<path d="M223.6781232320846,1079.334977481577 L152.96744511342558,1150.0456556002275" id="d30" />
<path d="M230.74919104395008,1086.4060452934425 L160.03851292529106,1157.116723412093" id="d31" />
<path d="M237.82025885581552,1093.4771131053078 L167.10958073715653,1164.1877912239584" id="d32" />
<path d="M244.89132666768103,1100.5481809171733 L174.180648549022,1171.258859035824" id="d33" />
<path d="M257.8488176352427,1100.5477271373782 L302.57017718523696,1189.9904462373704" id="d34" />
<path d="M266.7930895452418,1096.0755911823787 L311.51444909523457,1185.5183102823719" id="d35" />
<path d="M275.73736145524094,1091.6034552273788 L320.4587210052337,1181.046174327372" id="d36" />
<path d="M284.6816333652401,1087.1313192723794 L329.40299291523286,1176.5740383723726" id="d37" />
<path d="M293.6259052752393,1082.65918331738 L338.34726482523206,1172.1019024173731" id="d38" />
<path d="M302.57017718523844,1078.1870473623803 L347.2915367352312,1167.6297664623735" id="d39" />
<path d="M311.5144490952376,1073.7149114073807 L356.23580864523035,1163.1576305073738" id="d40" />
<path d="M320.4587210052367,1069.242775452381 L365.1800805552295,1158.6854945523742" id="d41" />
<path d="M329.40299291523587,1064.7706394973816 L374.12435246522864,1154.2133585973747" id="d42" />
<path d="M338.3472648252351,1060.298503542382 L383.06862437522784,1149.741222642375" id="d43" />
<path d="M347.2915367352342,1055.8263675873825 L392.012896285227,1145.2690866873756" id="d44" />
</defs>
<path d="M-50,1200 L450,1200" stroke="#dddddd" />
<path d="M-50,903 L450,903" stroke="#dddddd" />
<path d="M-50,606 L450,606" stroke="#dddddd" />
<path d="M-50,309 L450,309" stroke="#dddddd" />
<path d="M-50,12 L450,12" stroke="#dddddd" />
<path d="M-50,1200 L-50,-150" stroke="#dddddd" />
<path d="M160,1200 L160,-150" stroke="#dddddd" />
<path d="M370,1200 L370,-150" stroke="#dddddd" />
<text x="55.0" y="1051.5" font-size="10" stroke="none" fill="#dddddd" dy="0em">A0</text>
<text x="55.0" y="754.5" font-size="10" stroke="none" fill="#dddddd" dy="0em">A1</text>
<text x="55.0" y="457.5" font-size="10" stroke="none" fill="#dddddd" dy="0em">A2</text>
<text x="55.0" y="160.5" font-size="10" stroke="none" fill="#dddddd" dy="0em">A3</text>
<text x="55.0" y="-136.5" font-size="10" stroke="none" fill="#dddddd" dy="0em">A4</text>
<text x="265.0" y="1051.5" font-size="10" stroke="none" fill="#dddddd" dy="0em">B0</text>
<text x="265.0" y="754.5" font-size="10" stroke="none" fill="#dddddd" dy="0em">B1</text>
<text x="265.0" y="457.5" font-size="10" stroke="none" fill="#dddddd" dy="0em">B2</text>
<text x="265.0" y="160.5" font-size="10" stroke="none" fill="#dddddd" dy="0em">B3</text>
<text x="265.0" y="-136.5" font-size="10" stroke="none" fill="#dddddd" dy="0em">B4</text>
<path d="M-50,1200 L450,1200" stroke="#ffcccc66" stroke-dasharray="5" />
<path d="M-50,1150 L450,1150" stroke="#ffcccc66" stroke-dasharray="5" />
<path d="M-50,1100 L450,1100" stroke="#ffcccc66" stroke-dasharray="5" />
<path d="M-50,1050 L450,1050" stroke="#ffcccc66" stroke-dasharray="5" />
<path d="M-50,1000 L450,1000" stroke="#ffcccc66" stroke-dasharray="5" />
<path d="M-50,950 L450,950" stroke="#ffcccc66" stroke-dasharray="5" />
<path d="M-50,900 L450,900" stroke="#ffcccc66" stroke-dasharray="5" />
<path d="M-50,850 L450,850" stroke="#ffcccc66" stroke-dasharray="5" />
<path d="M-50,800 L450,800" stroke="#ffcccc66" stroke-dasharray="5" />
<path d="M-50,750 L450,750" stroke="#ffcccc66" stroke-dasharray="5" />
<path d="M-50,700 L450,700" stroke="#ffcccc66" stroke-dasharray="5" />
<path d="M-50,650 L450,650" stroke="#ffcccc66" stroke-dasharray="5" />
<path d="M-50,600 L450,600" stroke="#ffcccc66" stroke-dasharray="5" />
<path d="M-50,550 L450,550" stroke="#ffcccc66" stroke-dasharray="5" />
<path d="M-50,500 L450,500" stroke="#ffcccc66" stroke-dasharray="5" />
<path d="M-50,450 L450,450" stroke="#ffcccc66" stroke-dasharray="5" />
<path d="M-50,400 L450,400" stroke="#ffcccc66" stroke-dasharray="5" />
<path d="M-50,350 L450,350" stroke="#ffcccc66" stroke-dasharray="5" />
<path d="M-50,300 L450,300" stroke="#ffcccc66" stroke-dasharray="5" />
<path d="M-50,250 L450,250" stroke="#ffcccc66" stroke-dasharray="5" />
<path d="M-50,200 L450,200" stroke="#ffcccc66" stroke-dasharray="5" />
<path d="M-50,150 L450,150" stroke="#ffcccc66" stroke-dasharray="5" />
<path d="M-50,100 L450,100" stroke="#ffcccc66" stroke-dasharray="5" />
<path d="M-50,50 L450,50" stroke="#ffcccc66" stroke-dasharray="5" />
<path d="M-50,0 L450,0" stroke="#ffcccc66" stroke-dasharray="5" />
<path d="M-50,-50 L450,-50" stroke="#ffcccc66" stroke-dasharray="5" />
<path d="M-50,-100 L450,-100" stroke="#ffcccc66" stroke-dasharray="5" />
<path d="M-50,1200 L-50,-150" stroke="#ffcccc66" stroke-dasharray="5" />
<path d="M0,1200 L0,-150" stroke="#ffcccc66" stroke-dasharray="5" />
<path d="M50,1200 L50,-150" stroke="#ffcccc66" stroke-dasharray="5" />
<path d="M100,1200 L100,-150" stroke="#ffcccc66" stroke-dasharray="5" />
<path d="M150,1200 L150,-150" stroke="#ffcccc66" stroke-dasharray="5" />
<path d="M200,1200 L200,-150" stroke="#ffcccc66" stroke-dasharray="5" />
<path d="M250,1200 L250,-150" stroke="#ffcccc66" stroke-dasharray="5" />
<path d="M300,1200 L300,-150" stroke="#ffcccc66" stroke-dasharray="5" />
<path d="M350,1200 L350,-150" stroke="#ffcccc66" stroke-dasharray="5" />
<path d="M400,1200 L400,-150" stroke="#ffcccc66" stroke-dasharray="5" />
<g>
<path d="M50,0 L150,-50 L250,50 L350,0" fill="none" stroke="black" />
<text font-size="12" stroke="none" fill="#000000"><textPath xlink:href="#d0" startOffset="10">
<tspan dy="-1em">line</tspan>
</textPath></text>
</g>
<g>
<text font-size="12" stroke="none" fill="#000000"><textPath xlink:href="#d1" startOffset="10">
<tspan dy="-1em">dashed</tspan>
</textPath></text>
<path d="M50,150 L150,100 L250,200 L350,150" fill="none" stroke="black" stroke-dasharray="3" />
</g>
<g>
<path d="M50,300 L150,250 L250,350 L350,300" fill="none" stroke="black" marker-end="url(#d2)" />
<text font-size="12" stroke="none" fill="#000000"><textPath xlink:href="#d3" startOffset="10">
<tspan dy="-1em">arrow</tspan>
</textPath></text>
</g>
<g>
<path d="M50,450 L150,400 L250,500 L350,450" fill="none" stroke="black" marker-end="url(#d4)" stroke-dasharray="3" />
<text font-size="12" stroke="none" fill="#000000"><textPath xlink:href="#d5" startOffset="10">
<tspan dy="-1em">dashed_arrow</tspan>
</textPath></text>
</g>
<g>
<g>
<circle cx="50" cy="600" r="1" fill="black" />
</g>
<g>
<circle cx="150" cy="550" r="1" fill="black" />
</g>
<g>
<circle cx="250" cy="650" r="1" fill="black" />
</g>
<g>
<circle cx="350" cy="600" r="1" fill="black" />
</g>
<text x="181.25" y="600.0" font-size="12" stroke="none" fill="black" text-anchor="middle" dy="0em">pointset</text>
</g>
<g>
<path d="M50,750 L150,700 L250,800 L350,750" fill="#E6E6FA66" stroke="black" />
<text x="181.25" y="750.0" font-size="12" stroke="none" fill="black" text-anchor="middle" dy="0em">polygon</text>
</g>
<g>
<path d="M50,900 L150,850 L250,950 L350,900" fill="none" stroke="black" />
<path d="M52.2360679774999,904.4721359549995 L47.7639320225001,895.5278640450005" stroke="black" />
<path d="M352.2360679774998,904.4721359549995 L347.7639320225002,895.5278640450005" stroke="black" />
<text font-size="12" stroke="none" fill="black"><textPath xlink:href="#d6" startOffset="10">
<tspan dy="-1em">tape (365.0mm)</tspan>
</textPath></text>
</g>
<g>
<g>
<path d="M50,1050 L150,1000 L250,1100 L350,1050" fill="none" stroke="black" />
<text font-size="12" stroke="none" fill="#000000"><textPath xlink:href="#d7" startOffset="10">
<tspan dy="-1em">ruler</tspan>
</textPath></text>
</g>
<path d="M50.0,1050.0 L51.34164078649981,1052.6832815729997" />
<text font-size="12" stroke="none" fill="#000000"><textPath xlink:href="#d8">
<tspan dy="0em">0mm</tspan>
</textPath></text>
<path d="M58.94427190999916,1045.5278640450006 L60.28591269649897,1048.2111456180003" />
<text font-size="12" stroke="none" fill="#000000"><textPath xlink:href="#d9">
<tspan dy="0em">10mm</tspan>
</textPath></text>
<path d="M67.88854381999832,1041.055728090001 L69.23018460649813,1043.7390096630006" />
<text font-size="12" stroke="none" fill="#000000"><textPath xlink:href="#d10">
<tspan dy="0em">20mm</tspan>
</textPath></text>
<path d="M76.83281572999748,1036.5835921350013 L78.17445651649729,1039.266873708001" />
<text font-size="12" stroke="none" fill="#000000"><textPath xlink:href="#d11">
<tspan dy="0em">30mm</tspan>
</textPath></text>
<path d="M85.77708763999664,1032.1114561800018 L87.11872842649645,1034.7947377530015" />
<text font-size="12" stroke="none" fill="#000000"><textPath xlink:href="#d12">
<tspan dy="0em">40mm</tspan>
</textPath></text>
<path d="M94.7213595499958,1027.6393202250022 L96.0630003364956,1030.3226017980019" />
<text font-size="12" stroke="none" fill="#000000"><textPath xlink:href="#d13">
<tspan dy="0em">50mm</tspan>
</textPath></text>
<path d="M103.66563145999496,1023.1671842700025 L105.00727224649489,1025.8504658430022" />
<text font-size="12" stroke="none" fill="#000000"><textPath xlink:href="#d14">
<tspan dy="0em">60mm</tspan>
</textPath></text>
<path d="M112.6099033699941,1018.695048315003 L113.95154415649404,1021.3783298880027" />
<text font-size="12" stroke="none" fill="#000000"><textPath xlink:href="#d15">
<tspan dy="0em">70mm</tspan>
</textPath></text>
<path d="M121.55417527999327,1014.2229123600034 L122.89581606649321,1016.9061939330031" />
<text font-size="12" stroke="none" fill="#000000"><textPath xlink:href="#d16">
<tspan dy="0em">80mm</tspan>
</textPath></text>
<path d="M130.49844718999242,1009.7507764050038 L131.84008797649236,1012.4340579780035" />
<text font-size="12" stroke="none" fill="#000000"><textPath xlink:href="#d17">
<tspan dy="0em">90mm</tspan>
</textPath></text>
<path d="M139.4427190999916,1005.2786404500042 L140.78435988649153,1007.9619220230039" />
<text font-size="12" stroke="none" fill="#000000"><textPath xlink:href="#d18">
<tspan dy="0em">100mm</tspan>
</textPath></text>
<path d="M148.38699100999074,1000.8065044950047 L149.72863179649067,1003.4897860680044" />
<text font-size="12" stroke="none" fill="#000000"><textPath xlink:href="#d19">
<tspan dy="0em">110mm</tspan>
</textPath></text>
<path d="M155.7958722381762,1005.7958722381761 L153.67455189461657,1007.9171925817358" />
<text font-size="12" stroke="none" fill="#000000"><textPath xlink:href="#d20">
<tspan dy="0em">120mm</tspan>
</textPath></text>
<path d="M162.86694005004168,1012.8669400500416 L160.74561970648205,1014.9882603936013" />
<text font-size="12" stroke="none" fill="#000000"><textPath xlink:href="#d21">
<tspan dy="0em">130mm</tspan>
</textPath></text>
<path d="M169.93800786190718,1019.9380078619072 L167.81668751834755,1022.0593282054668" />
<text font-size="12" stroke="none" fill="#000000"><textPath xlink:href="#d22">
<tspan dy="0em">140mm</tspan>
</textPath></text>
<path d="M177.00907567377266,1027.0090756737727 L174.88775533021285,1029.1303960173323" />
<text font-size="12" stroke="none" fill="#000000"><textPath xlink:href="#d23">
<tspan dy="0em">150mm</tspan>
</textPath></text>
<path d="M184.08014348563813,1034.080143485638 L181.95882314207833,1036.2014638291976" />
<text font-size="12" stroke="none" fill="#000000"><textPath xlink:href="#d24">
<tspan dy="0em">160mm</tspan>
</textPath></text>
<path d="M191.1512112975036,1041.1512112975036 L189.0298909539438,1043.272531641063" />
<text font-size="12" stroke="none" fill="#000000"><textPath xlink:href="#d25">
<tspan dy="0em">170mm</tspan>
</textPath></text>
<path d="M198.22227910936908,1048.222279109369 L196.10095876580928,1050.3435994529286" />
<text font-size="12" stroke="none" fill="#000000"><textPath xlink:href="#d26">
<tspan dy="0em">180mm</tspan>
</textPath></text>
<path d="M205.29334692123456,1055.2933469212346 L203.17202657767476,1057.4146672647942" />
<text font-size="12" stroke="none" fill="#000000"><textPath xlink:href="#d27">
<tspan dy="0em">190mm</tspan>
</textPath></text>
<path d="M212.3644147331,1062.3644147331 L210.2430943895402,1064.4857350766595" />
<text font-size="12" stroke="none" fill="#000000"><textPath xlink:href="#d28">
<tspan dy="0em">200mm</tspan>
</textPath></text>
<path d="M219.4354825449655,1069.4354825449655 L217.3141622014057,1071.556802888525" />
<text font-size="12" stroke="none" fill="#000000"><textPath xlink:href="#d29">
<tspan dy="0em">210mm</tspan>
</textPath></text>
<path d="M226.50655035683099,1076.506550356831 L224.38523001327118,1078.6278707003905" />
<text font-size="12" stroke="none" fill="#000000"><textPath xlink:href="#d30">
<tspan dy="0em">220mm</tspan>
</textPath></text>
<path d="M233.57761816869646,1083.5776181686965 L231.45629782513666,1085.698938512256" />
<text font-size="12" stroke="none" fill="#000000"><textPath xlink:href="#d31">
<tspan dy="0em">230mm</tspan>
</textPath></text>
<path d="M240.6486859805619,1090.6486859805618 L238.5273656370021,1092.7700063241214" />
<text font-size="12" stroke="none" fill="#000000"><textPath xlink:href="#d32">
<tspan dy="0em">240mm</tspan>
</textPath></text>
<path d="M247.7197537924274,1097.7197537924274 L245.5984334488676,1099.841074135987" />
<text font-size="12" stroke="none" fill="#000000"><textPath xlink:href="#d33">
<tspan dy="0em">250mm</tspan>
</textPath></text>
<path d="M256.059963253243,1096.9700183733785 L257.4016040397428,1099.6532999463782" />
<text font-size="12" stroke="none" fill="#000000"><textPath xlink:href="#d34">
<tspan dy="0em">260mm</tspan>
</textPath></text>
<path d="M265.00423516324213,1092.497882418379 L266.34587594974187,1095.1811639913788" />
<text font-size="12" stroke="none" fill="#000000"><textPath xlink:href="#d35">
<tspan dy="0em">270mm</tspan>
</textPath></text>
<path d="M273.9485070732413,1088.0257464633792 L275.290147859741,1090.7090280363789" />
<text font-size="12" stroke="none" fill="#000000"><textPath xlink:href="#d36">
<tspan dy="0em">280mm</tspan>
</textPath></text>
<path d="M282.8927789832404,1083.5536105083797 L284.23441976974016,1086.2368920813794" />
<text font-size="12" stroke="none" fill="#000000"><textPath xlink:href="#d37">
<tspan dy="0em">290mm</tspan>
</textPath></text>
<path d="M291.8370508932396,1079.0814745533803 L293.17869167973936,1081.76475612638" />
<text font-size="12" stroke="none" fill="#000000"><textPath xlink:href="#d38">
<tspan dy="0em">300mm</tspan>
</textPath></text>
<path d="M300.78132280323877,1074.6093385983806 L302.1229635897385,1077.2926201713803" />
<text font-size="12" stroke="none" fill="#000000"><textPath xlink:href="#d39">
<tspan dy="0em">310mm</tspan>
</textPath></text>
<path d="M309.7255947132379,1070.137202643381 L311.06723549973765,1072.8204842163807" />
<text font-size="12" stroke="none" fill="#000000"><textPath xlink:href="#d40">
<tspan dy="0em">320mm</tspan>
</textPath></text>
<path d="M318.66986662323706,1065.6650666883813 L320.0115074097368,1068.348348261381" />
<text font-size="12" stroke="none" fill="#000000"><textPath xlink:href="#d41">
<tspan dy="0em">330mm</tspan>
</textPath></text>
<path d="M327.6141385332362,1061.192930733382 L328.95577931973594,1063.8762123063816" />
<text font-size="12" stroke="none" fill="#000000"><textPath xlink:href="#d42">
<tspan dy="0em">340mm</tspan>
</textPath></text>
<path d="M336.5584104432354,1056.7207947783822 L337.90005122973514,1059.404076351382" />
<text font-size="12" stroke="none" fill="#000000"><textPath xlink:href="#d43">
<tspan dy="0em">350mm</tspan>
</textPath></text>
<path d="M345.50268235323455,1052.2486588233828 L346.8443231397343,1054.9319403963825" />
<text font-size="12" stroke="none" fill="#000000"><textPath xlink:href="#d44">
<tspan dy="0em">360mm</tspan>
</textPath></text>
</g>
</svg>