<?xml version="1.0" encoding="UTF-8"?>
<svg xmlns="http://www.w3.org/2000/svg" xmlns:xlink="http://www.w3.org/1999/xlink"
     width="511.39797856619305" height="834.2062668228575" viewBox="-50.0 -150.0 511.39797856619305 834.2062668228575" stroke="black" fill="none">
<defs>
</defs>
<g>
<g>
<circle cx="63.64691603005426" cy="242.10313341142876" r="1" fill="black" />
</g>
<g>
<circle cx="63.40466308277519" cy="233.72409195970744" r="1" fill="black" />
</g>
<g>
<circle cx="62.731738229222216" cy="224.45328583419655" r="1" fill="black" />
</g>
<g>
<circle cx="61.7088924518217" cy="214.40598185305987" r="1" fill="black" />
</g>
<g>
<circle cx="60.416876732999995" cy="203.69744683446123" r="1" fill="black" />
</g>
<g>
<circle cx="58.936442055183456" cy="192.4429475965644" r="1" fill="black" />
</g>
<g>
<circle cx="57.348339400798444" cy="180.7577509575332" r="1" fill="black" />
</g>
<g>
<circle cx="55.73331975227131" cy="168.75712373553142" r="1" fill="black" />
</g>
<g>
<circle cx="54.17213409202842" cy="156.55633274872287" r="1" fill="black" />
</g>
<g>
<circle cx="52.74553340249612" cy="144.27064481527137" r="1" fill="black" />
</g>
<g>
<circle cx="51.53426866610077" cy="132.01532675334067" r="1" fill="black" />
</g>
<g>
<circle cx="50.61909086526873" cy="119.90564538109462" r="1" fill="black" />
</g>
<g>
<circle cx="50.08075098242635" cy="108.056867516697" r="1" fill="black" />
</g>
<g>
<circle cx="50.0" cy="96.58425997831154" r="1" fill="black" />
</g>
<g>
<circle cx="50.45758890041602" cy="85.60308958410221" r="1" fill="black" />
</g>
<g>
<circle cx="51.53426866610077" cy="75.22862315223261" r="1" fill="black" />
</g>
<g>
<circle cx="53.310790279480614" cy="65.57612750086673" r="1" fill="black" />
</g>
<g>
<circle cx="55.867904722981905" cy="56.76086944816822" r="1" fill="black" />
</g>
<g>
<circle cx="59.286362979031" cy="48.898115812301" r="1" fill="black" />
</g>
<g>
<circle cx="63.64691603005426" cy="42.10313341142876" r="1" fill="black" />
</g>
<g>
<circle cx="69.25357130794282" cy="35.95282029387252" r="1" fill="black" />
</g>
<g>
<circle cx="76.25653944317303" cy="29.9731507706328" r="1" fill="black" />
</g>
<g>
<circle cx="84.50587621604897" cy="24.20300605389272" r="1" fill="black" />
</g>
<g>
<circle cx="93.85163740687483" cy="18.681267355835303" r="1" fill="black" />
</g>
<g>
<circle cx="104.14387879595469" cy="13.446815888643812" r="1" fill="black" />
</g>
<g>
<circle cx="115.2326561635927" cy="8.53853286450132" r="1" fill="black" />
</g>
<g>
<circle cx="126.96802529009295" cy="3.9952994955909844" r="1" fill="black" />
</g>
<g>
<circle cx="139.20004195575962" cy="-0.14400300590415327" r="1" fill="black" />
</g>
<g>
<circle cx="151.7787619408968" cy="-3.8404934278009364" r="1" fill="black" />
</g>
<g>
<circle cx="164.5542410258086" cy="-7.055290557916209" r="1" fill="black" />
</g>
<g>
<circle cx="177.37653499079917" cy="-9.749513184066842" r="1" fill="black" />
</g>
<g>
<circle cx="190.09569961617262" cy="-11.884280094069794" r="1" fill="black" />
</g>
<g>
<circle cx="202.5617906822331" cy="-13.420710075741852" r="1" fill="black" />
</g>
<g>
<circle cx="214.6248639692847" cy="-14.319921916899943" r="1" fill="black" />
</g>
<g>
<circle cx="226.13497525763157" cy="-14.543034405360913" r="1" fill="black" />
</g>
<g>
<circle cx="236.94218032757786" cy="-14.051166328941633" r="1" fill="black" />
</g>
<g>
<circle cx="246.89653495942764" cy="-12.80543647545906" r="1" fill="black" />
</g>
<g>
<circle cx="255.84809493348504" cy="-10.766963632729926" r="1" fill="black" />
</g>
<g>
<circle cx="263.6469160300543" cy="-7.896866588571243" r="1" fill="black" />
</g>
<g>
<circle cx="270.0925377683486" cy="-4.106337167739355" r="1" fill="black" />
</g>
<g>
<circle cx="275.19287453267066" cy="0.5812283802760589" r="1" fill="black" />
</g>
<g>
<circle cx="279.1105444009581" cy="6.036404630558621" r="1" fill="black" />
</g>
<g>
<circle cx="282.0081654511488" cy="12.129766158191387" r="1" fill="black" />
</g>
<g>
<circle cx="284.04835576118035" cy="18.731887538257922" r="1" fill="black" />
</g>
<g>
<circle cx="285.39373340899044" cy="25.713343345841707" r="1" fill="black" />
</g>
<g>
<circle cx="286.20691647251704" cy="32.94470815602597" r="1" fill="black" />
</g>
<g>
<circle cx="286.65052302969775" cy="40.29655654389404" r="1" fill="black" />
</g>
<g>
<circle cx="286.88717115847044" cy="47.63946308452944" r="1" fill="black" />
</g>
<g>
<circle cx="287.0794789367726" cy="54.844002353015554" r="1" fill="black" />
</g>
<g>
<circle cx="287.3900644425422" cy="61.7807489244357" r="1" fill="black" />
</g>
<g>
<circle cx="287.981545753717" cy="68.32027737387324" r="1" fill="black" />
</g>
<g>
<circle cx="289.0165409482346" cy="74.33316227641166" r="1" fill="black" />
</g>
<g>
<circle cx="290.65766810403284" cy="79.68997820713423" r="1" fill="black" />
</g>
<g>
<circle cx="293.06754529904947" cy="84.26129974112445" r="1" fill="black" />
</g>
<g>
<circle cx="296.4087906112221" cy="87.91770145346561" r="1" fill="black" />
</g>
<g>
<circle cx="300.8440221184887" cy="90.52975791924112" r="1" fill="black" />
</g>
<g>
<circle cx="306.53585789878673" cy="91.96804371353437" r="1" fill="black" />
</g>
<g>
<circle cx="313.6469160300543" cy="92.10313341142876" r="1" fill="black" />
</g>
<g>
<circle cx="320.9911232876791" cy="90.77148718432997" r="1" fill="black" />
</g>
<g>
<circle cx="327.33059553008115" cy="87.98161301461488" r="1" fill="black" />
</g>
<g>
<circle cx="332.75023445974557" cy="83.86215719382349" r="1" fill="black" />
</g>
<g>
<circle cx="337.3349417791577" cy="78.5417660134957" r="1" fill="black" />
</g>
<g>
<circle cx="341.1696191908029" cy="72.14908576517166" r="1" fill="black" />
</g>
<g>
<circle cx="344.3391683971662" cy="64.81276274039135" r="1" fill="black" />
</g>
<g>
<circle cx="346.92849110073314" cy="56.66144323069474" r="1" fill="black" />
</g>
<g>
<circle cx="349.0224890039889" cy="47.823773527621796" r="1" fill="black" />
</g>
<g>
<circle cx="350.70606380941877" cy="38.42839992271263" r="1" fill="black" />
</g>
<g>
<circle cx="352.0641172195079" cy="28.60396870750725" r="1" fill="black" />
</g>
<g>
<circle cx="353.1815509367418" cy="18.47912617354558" r="1" fill="black" />
</g>
<g>
<circle cx="354.1432666636057" cy="8.182518612367659" r="1" fill="black" />
</g>
<g>
<circle cx="355.0341661025848" cy="-2.157207684486451" r="1" fill="black" />
</g>
<g>
<circle cx="355.9391509561642" cy="-12.41140642547677" r="1" fill="black" />
</g>
<g>
<circle cx="356.9431229268296" cy="-22.451431319063317" r="1" fill="black" />
</g>
<g>
<circle cx="358.130983717066" cy="-32.14863607370603" r="1" fill="black" />
</g>
<g>
<circle cx="359.5876350293587" cy="-41.374374397864926" r="1" fill="black" />
</g>
<g>
<circle cx="361.39797856619305" cy="-50.0" r="1" fill="black" />
</g>
</g>
<g>
<g>
<circle cx="63.49194096866445" cy="584.2062668228575" r="1" fill="black" />
</g>
<g>
<circle cx="61.83516795090369" cy="559.2718092486265" r="1" fill="black" />
</g>
<g>
<circle cx="58.76996897713989" cy="534.4614790553504" r="1" fill="black" />
</g>
<g>
<circle cx="55.428074716771526" cy="509.6858852625657" r="1" fill="black" />
</g>
<g>
<circle cx="52.441504758305115" cy="484.8656858909692" r="1" fill="black" />
</g>
<g>
<circle cx="50.37079045262128" cy="459.95470219256896" r="1" fill="black" />
</g>
<g>
<circle cx="50.0" cy="434.96831813588847" r="1" fill="black" />
</g>
<g>
<circle cx="52.700906422832034" cy="410.1509477946462" r="1" fill="black" />
</g>
<g>
<circle cx="61.68838932191854" cy="387.01671346925866" r="1" fill="black" />
</g>
<g>
<circle cx="79.48561580616219" cy="369.7092494754945" r="1" fill="black" />
</g>
<g>
<circle cx="101.01244365611232" cy="357.0637241170161" r="1" fill="black" />
</g>
<g>
<circle cx="123.96884658787914" cy="347.19953852625315" r="1" fill="black" />
</g>
<g>
<circle cx="147.7151376732699" cy="339.41126912637696" r="1" fill="black" />
</g>
<g>
<circle cx="171.98591617600337" cy="333.45373459858166" r="1" fill="black" />
</g>
<g>
<circle cx="196.6429698513357" cy="329.39281004817576" r="1" fill="black" />
</g>
<g>
<circle cx="221.56455663154242" cy="327.64568815257564" r="1" fill="black" />
</g>
<g>
<circle cx="246.47695857962333" cy="329.26458361282516" r="1" fill="black" />
</g>
<g>
<circle cx="269.7348648349452" cy="337.87759405054135" r="1" fill="black" />
</g>
<g>
<circle cx="283.1446454980044" cy="358.41208978517" r="1" fill="black" />
</g>
<g>
<circle cx="286.5184808689792" cy="383.11127025476566" r="1" fill="black" />
</g>
<g>
<circle cx="287.6147225744651" cy="408.08117821168537" r="1" fill="black" />
</g>
<g>
<circle cx="296.96347798478575" cy="430.4387788546729" r="1" fill="black" />
</g>
<g>
<circle cx="321.04602370305525" cy="432.7822586215916" r="1" fill="black" />
</g>
<g>
<circle cx="339.48054356769353" cy="416.80967403057724" r="1" fill="black" />
</g>
<g>
<circle cx="348.0354195842009" cy="393.4387419269843" r="1" fill="black" />
</g>
<g>
<circle cx="352.1206492019432" cy="368.7906792649222" r="1" fill="black" />
</g>
<g>
<circle cx="354.5377249296311" cy="343.90896126018555" r="1" fill="black" />
</g>
<g>
<circle cx="356.8657354941826" cy="319.01830874481925" r="1" fill="black" />
</g>
<g>
<circle cx="360.7736253693903" cy="294.33954875444147" r="1" fill="black" />
</g>
<g>
<circle cx="361.2430035048032" cy="292.10313341142876" r="1" fill="black" />
</g>
<text x="191.96651094525947" y="400.14984987740274" font-size="12" stroke="none" fill="black" text-anchor="middle" dy="0em">Re-sampled</text>
</g>
</svg>