<?xml version="1.0" encoding="UTF-8"?>
<svg xmlns="http://www.w3.org/2000/svg" xmlns:xlink="http://www.w3.org/1999/xlink"
     width="375.59859796865027" height="945" viewBox="-34.61266625837588 -150 375.59859796865027 945" stroke="black" fill="none">
<defs>
<path d="M65.38733374162412,699.0 L65.38733374162412,799.0" id="d0" />
<path d="M85.38733374162412,699.0 L85.38733374162412,799.0" id="d1" />
<path d="M105.38733374162412,699.0000000000001 L105.38733374162412,799.0000000000001" id="d2" />
<path d="M125.38733374162413,699.0 L125.38733374162413,799.0" id="d3" />
<path d="M145.3873337416241,699.0 L145.3873337416241,799.0" id="d4" />
<path d="M165.38733374162413,699.0 L165.38733374162413,799.0" id="d5" />
<path d="M185.38733374162413,699.0 L185.38733374162413,799.0" id="d6" />
<path d="M205.38733374162413,699.0 L205.38733374162413,799.0" id="d7" />
<path d="M225.3873337416241,699.0 L225.3873337416241,799.0" id="d8" />
<path d="M244.9859317102744,695.0 L344.9859317102744,695.0" id="d9" />
<path d="M244.9859317102744,675.0 L344.9859317102744,675.0" id="d10" />
<path d="M244.9859317102744,655.0 L344.9859317102744,655.0" id="d11" />
<path d="M244.9859317102744,635.0 L344.9859317102744,635.0" id="d12" />
<path d="M244.98593171027443,615.0 L344.98593171027443,615.0" id="d13" />
<path d="M244.98593171027437,594.9999999999999 L344.9859317102744,594.9999999999999" id="d14" />
<path d="M244.9859317102744,575.0 L344.9859317102744,575.0" id="d15" />
<path d="M244.9859317102744,555.0 L344.9859317102744,555.0" id="d16" />
<path d="M244.9859317102744,535.0 L344.9859317102744,535.0" id="d17" />
<path d="M244.9859317102744,515.0 L344.9859317102744,515.0" id="d18" />
<path d="M244.98593171027437,494.99999999999994 L344.9859317102744,494.99999999999994" id="d19" />
<path d="M244.9859317102744,475.0 L344.9859317102744,475.0" id="d20" />
<path d="M244.98593171027443,455.0 L344.98593171027443,455.0" id="d21" />
<path d="M244.9859317102744,435.0 L344.9859317102744,435.0" id="d22" />
<path d="M244.98593171027437,415.0 L344.9859317102744,415.0" id="d23" />
<path d="M244.98593171027437,395.0 L344.9859317102744,395.0" id="d24" />
<path d="M244.98593171027437,375.0 L344.9859317102744,375.0" id="d25" />
<path d="M244.9859317102744,354.99999999999994 L344.9859317102744,354.99999999999994" id="d26" />
<path d="M244.98593171027443,335.0 L344.98593171027443,335.0" id="d27" />
<path d="M244.9859317102744,315.0 L344.9859317102744,315.0" id="d28" />
<path d="M244.98593171027437,295.0 L344.9859317102744,295.0" id="d29" />
<path d="M244.98593171027437,275.0 L344.9859317102744,275.0" id="d30" />
<path d="M244.98593171027437,254.99999999999994 L344.9859317102744,254.99999999999994" id="d31" />
<path d="M244.98593171027443,235.0 L344.98593171027443,235.0" id="d32" />
<path d="M244.9859317102744,215.00000000000003 L344.9859317102744,215.00000000000003" id="d33" />
<path d="M244.9859317102744,195.0 L344.9859317102744,195.0" id="d34" />
<path d="M244.9859317102744,175.0 L344.9859317102744,175.0" id="d35" />
<path d="M244.9859317102744,155.00000000000006 L344.9859317102744,155.00000000000006" id="d36" />
<path d="M244.9859317102744,134.99999999999997 L344.9859317102744,134.99999999999997" id="d37" />
<path d="M244.9859317102744,115.00000000000001 L344.9859317102744,115.00000000000001" id="d38" />
<path d="M244.98593171027437,95.00000000000003 L344.9859317102744,95.00000000000003" id="d39" />
<path d="M244.98593171027443,74.99999999999997 L344.98593171027443,74.99999999999997" id="d40" />
<path d="M244.9859317102744,55.00000000000001 L344.9859317102744,55.00000000000001" id="d41" />
<path d="M244.9859317102744,34.999999999999964 L344.9859317102744,34.999999999999964" id="d42" />
<path d="M244.9859317102744,14.999999999999993 L344.9859317102744,14.999999999999993" id="d43" />
<path d="M244.9859317102744,-4.999999999999979 L344.9859317102744,-4.999999999999979" id="d44" />
<path d="M244.9859317102744,-25.00000000000004 L344.9859317102744,-25.00000000000004" id="d45" />
<path d="M244.9859317102744,-45.000000000000014 L344.9859317102744,-45.000000000000014" id="d46" />
</defs>
<g>
<path d="M115.38733374162412,0 L143.2394487827058,265 L190.9859317102744,645" fill="none" stroke="black" />
</g>
<g>
<g>
<path d="M65.38733374162412,695 L240.9859317102744,695" fill="none" stroke="#999999" />
</g>
<path d="M65.38733374162412,695.0 L65.38733374162412,698.0" stroke="#999999" />
<text font-size="12" stroke="none" fill="#999999"><textPath xlink:href="#d0">
<tspan dy="0em">0mm</tspan>
</textPath></text>
<path d="M85.38733374162412,695.0 L85.38733374162412,698.0" stroke="#999999" />
<text font-size="12" stroke="none" fill="#999999"><textPath xlink:href="#d1">
<tspan dy="0em">20mm</tspan>
</textPath></text>
<path d="M105.38733374162412,695.0000000000001 L105.38733374162412,698.0000000000001" stroke="#999999" />
<text font-size="12" stroke="none" fill="#999999"><textPath xlink:href="#d2">
<tspan dy="0em">40mm</tspan>
</textPath></text>
<path d="M125.38733374162413,695.0 L125.38733374162413,698.0" stroke="#999999" />
<text font-size="12" stroke="none" fill="#999999"><textPath xlink:href="#d3">
<tspan dy="0em">60mm</tspan>
</textPath></text>
<path d="M145.3873337416241,695.0 L145.3873337416241,698.0" stroke="#999999" />
<text font-size="12" stroke="none" fill="#999999"><textPath xlink:href="#d4">
<tspan dy="0em">80mm</tspan>
</textPath></text>
<path d="M165.38733374162413,695.0 L165.38733374162413,698.0" stroke="#999999" />
<text font-size="12" stroke="none" fill="#999999"><textPath xlink:href="#d5">
<tspan dy="0em">100mm</tspan>
</textPath></text>
<path d="M185.38733374162413,695.0 L185.38733374162413,698.0" stroke="#999999" />
<text font-size="12" stroke="none" fill="#999999"><textPath xlink:href="#d6">
<tspan dy="0em">120mm</tspan>
</textPath></text>
<path d="M205.38733374162413,695.0 L205.38733374162413,698.0" stroke="#999999" />
<text font-size="12" stroke="none" fill="#999999"><textPath xlink:href="#d7">
<tspan dy="0em">140mm</tspan>
</textPath></text>
<path d="M225.3873337416241,695.0 L225.3873337416241,698.0" stroke="#999999" />
<text font-size="12" stroke="none" fill="#999999"><textPath xlink:href="#d8">
<tspan dy="0em">160mm</tspan>
</textPath></text>
</g>
<g>
<g>
<path d="M240.9859317102744,695 L240.9859317102744,-50" fill="none" stroke="#999999" />
</g>
<path d="M240.9859317102744,695.0 L243.9859317102744,695.0" stroke="#999999" />
<text font-size="12" stroke="none" fill="#999999"><textPath xlink:href="#d9">
<tspan dy="0em">0mm</tspan>
</textPath></text>
<path d="M240.9859317102744,675.0 L243.9859317102744,675.0" stroke="#999999" />
<text font-size="12" stroke="none" fill="#999999"><textPath xlink:href="#d10">
<tspan dy="0em">20mm</tspan>
</textPath></text>
<path d="M240.9859317102744,655.0 L243.9859317102744,655.0" stroke="#999999" />
<text font-size="12" stroke="none" fill="#999999"><textPath xlink:href="#d11">
<tspan dy="0em">40mm</tspan>
</textPath></text>
<path d="M240.9859317102744,635.0 L243.9859317102744,635.0" stroke="#999999" />
<text font-size="12" stroke="none" fill="#999999"><textPath xlink:href="#d12">
<tspan dy="0em">60mm</tspan>
</textPath></text>
<path d="M240.98593171027443,615.0 L243.98593171027443,615.0" stroke="#999999" />
<text font-size="12" stroke="none" fill="#999999"><textPath xlink:href="#d13">
<tspan dy="0em">80mm</tspan>
</textPath></text>
<path d="M240.98593171027437,594.9999999999999 L243.98593171027437,594.9999999999999" stroke="#999999" />
<text font-size="12" stroke="none" fill="#999999"><textPath xlink:href="#d14">
<tspan dy="0em">100mm</tspan>
</textPath></text>
<path d="M240.9859317102744,575.0 L243.9859317102744,575.0" stroke="#999999" />
<text font-size="12" stroke="none" fill="#999999"><textPath xlink:href="#d15">
<tspan dy="0em">120mm</tspan>
</textPath></text>
<path d="M240.9859317102744,555.0 L243.9859317102744,555.0" stroke="#999999" />
<text font-size="12" stroke="none" fill="#999999"><textPath xlink:href="#d16">
<tspan dy="0em">140mm</tspan>
</textPath></text>
<path d="M240.9859317102744,535.0 L243.9859317102744,535.0" stroke="#999999" />
<text font-size="12" stroke="none" fill="#999999"><textPath xlink:href="#d17">
<tspan dy="0em">160mm</tspan>
</textPath></text>
<path d="M240.9859317102744,515.0 L243.9859317102744,515.0" stroke="#999999" />
<text font-size="12" stroke="none" fill="#999999"><textPath xlink:href="#d18">
<tspan dy="0em">180mm</tspan>
</textPath></text>
<path d="M240.98593171027437,494.99999999999994 L243.98593171027437,494.99999999999994" stroke="#999999" />
<text font-size="12" stroke="none" fill="#999999"><textPath xlink:href="#d19">
<tspan dy="0em">200mm</tspan>
</textPath></text>
<path d="M240.9859317102744,475.0 L243.9859317102744,475.0" stroke="#999999" />
<text font-size="12" stroke="none" fill="#999999"><textPath xlink:href="#d20">
<tspan dy="0em">220mm</tspan>
</textPath></text>
<path d="M240.98593171027443,455.0 L243.98593171027443,455.0" stroke="#999999" />
<text font-size="12" stroke="none" fill="#999999"><textPath xlink:href="#d21">
<tspan dy="0em">240mm</tspan>
</textPath></text>
<path d="M240.9859317102744,435.0 L243.9859317102744,435.0" stroke="#999999" />
<text font-size="12" stroke="none" fill="#999999"><textPath xlink:href="#d22">
<tspan dy="0em">260mm</tspan>
</textPath></text>
<path d="M240.98593171027437,415.0 L243.98593171027437,415.0" stroke="#999999" />
<text font-size="12" stroke="none" fill="#999999"><textPath xlink:href="#d23">
<tspan dy="0em">280mm</tspan>
</textPath></text>
<path d="M240.98593171027437,395.0 L243.98593171027437,395.0" stroke="#999999" />
<text font-size="12" stroke="none" fill="#999999"><textPath xlink:href="#d24">
<tspan dy="0em">300mm</tspan>
</textPath></text>
<path d="M240.98593171027437,375.0 L243.98593171027437,375.0" stroke="#999999" />
<text font-size="12" stroke="none" fill="#999999"><textPath xlink:href="#d25">
<tspan dy="0em">320mm</tspan>
</textPath></text>
<path d="M240.9859317102744,354.99999999999994 L243.9859317102744,354.99999999999994" stroke="#999999" />
<text font-size="12" stroke="none" fill="#999999"><textPath xlink:href="#d26">
<tspan dy="0em">340mm</tspan>
</textPath></text>
<path d="M240.98593171027443,335.0 L243.98593171027443,335.0" stroke="#999999" />
<text font-size="12" stroke="none" fill="#999999"><textPath xlink:href="#d27">
<tspan dy="0em">360mm</tspan>
</textPath></text>
<path d="M240.9859317102744,315.0 L243.9859317102744,315.0" stroke="#999999" />
<text font-size="12" stroke="none" fill="#999999"><textPath xlink:href="#d28">
<tspan dy="0em">380mm</tspan>
</textPath></text>
<path d="M240.98593171027437,295.0 L243.98593171027437,295.0" stroke="#999999" />
<text font-size="12" stroke="none" fill="#999999"><textPath xlink:href="#d29">
<tspan dy="0em">400mm</tspan>
</textPath></text>
<path d="M240.98593171027437,275.0 L243.98593171027437,275.0" stroke="#999999" />
<text font-size="12" stroke="none" fill="#999999"><textPath xlink:href="#d30">
<tspan dy="0em">420mm</tspan>
</textPath></text>
<path d="M240.98593171027437,254.99999999999994 L243.98593171027437,254.99999999999994" stroke="#999999" />
<text font-size="12" stroke="none" fill="#999999"><textPath xlink:href="#d31">
<tspan dy="0em">440mm</tspan>
</textPath></text>
<path d="M240.98593171027443,235.0 L243.98593171027443,235.0" stroke="#999999" />
<text font-size="12" stroke="none" fill="#999999"><textPath xlink:href="#d32">
<tspan dy="0em">460mm</tspan>
</textPath></text>
<path d="M240.9859317102744,215.00000000000003 L243.9859317102744,215.00000000000003" stroke="#999999" />
<text font-size="12" stroke="none" fill="#999999"><textPath xlink:href="#d33">
<tspan dy="0em">480mm</tspan>
</textPath></text>
<path d="M240.9859317102744,195.0 L243.9859317102744,195.0" stroke="#999999" />
<text font-size="12" stroke="none" fill="#999999"><textPath xlink:href="#d34">
<tspan dy="0em">500mm</tspan>
</textPath></text>
<path d="M240.9859317102744,175.0 L243.9859317102744,175.0" stroke="#999999" />
<text font-size="12" stroke="none" fill="#999999"><textPath xlink:href="#d35">
<tspan dy="0em">520mm</tspan>
</textPath></text>
<path d="M240.9859317102744,155.00000000000006 L243.9859317102744,155.00000000000006" stroke="#999999" />
<text font-size="12" stroke="none" fill="#999999"><textPath xlink:href="#d36">
<tspan dy="0em">540mm</tspan>
</textPath></text>
<path d="M240.9859317102744,134.99999999999997 L243.9859317102744,134.99999999999997" stroke="#999999" />
<text font-size="12" stroke="none" fill="#999999"><textPath xlink:href="#d37">
<tspan dy="0em">560mm</tspan>
</textPath></text>
<path d="M240.9859317102744,115.00000000000001 L243.9859317102744,115.00000000000001" stroke="#999999" />
<text font-size="12" stroke="none" fill="#999999"><textPath xlink:href="#d38">
<tspan dy="0em">580mm</tspan>
</textPath></text>
<path d="M240.98593171027437,95.00000000000003 L243.98593171027437,95.00000000000003" stroke="#999999" />
<text font-size="12" stroke="none" fill="#999999"><textPath xlink:href="#d39">
<tspan dy="0em">600mm</tspan>
</textPath></text>
<path d="M240.98593171027443,74.99999999999997 L243.98593171027443,74.99999999999997" stroke="#999999" />
<text font-size="12" stroke="none" fill="#999999"><textPath xlink:href="#d40">
<tspan dy="0em">620mm</tspan>
</textPath></text>
<path d="M240.9859317102744,55.00000000000001 L243.9859317102744,55.00000000000001" stroke="#999999" />
<text font-size="12" stroke="none" fill="#999999"><textPath xlink:href="#d41">
<tspan dy="0em">640mm</tspan>
</textPath></text>
<path d="M240.9859317102744,34.999999999999964 L243.9859317102744,34.999999999999964" stroke="#999999" />
<text font-size="12" stroke="none" fill="#999999"><textPath xlink:href="#d42">
<tspan dy="0em">660mm</tspan>
</textPath></text>
<path d="M240.9859317102744,14.999999999999993 L243.9859317102744,14.999999999999993" stroke="#999999" />
<text font-size="12" stroke="none" fill="#999999"><textPath xlink:href="#d43">
<tspan dy="0em">680mm</tspan>
</textPath></text>
<path d="M240.9859317102744,-4.999999999999979 L243.9859317102744,-4.999999999999979" stroke="#999999" />
<text font-size="12" stroke="none" fill="#999999"><textPath xlink:href="#d44">
<tspan dy="0em">700mm</tspan>
</textPath></text>
<path d="M240.9859317102744,-25.00000000000004 L243.9859317102744,-25.00000000000004" stroke="#999999" />
<text font-size="12" stroke="none" fill="#999999"><textPath xlink:href="#d45">
<tspan dy="0em">720mm</tspan>
</textPath></text>
<path d="M240.9859317102744,-45.000000000000014 L243.9859317102744,-45.000000000000014" stroke="#999999" />
<text font-size="12" stroke="none" fill="#999999"><textPath xlink:href="#d46">
<tspan dy="0em">740mm</tspan>
</textPath></text>
</g>
</svg>