<?xml version="1.0" encoding="UTF-8"?>
<svg xmlns="http://www.w3.org/2000/svg" xmlns:xlink="http://www.w3.org/1999/xlink"
     width="300" height="300" viewBox="-150 -150 300 300" stroke="black" fill="none">
<defs>
<path d="M-50.0,54.0 L-50.0,154.0" id="d0" />
<path d="M-40.0,54.0 L-40.0,154.0" id="d1" />
<path d="M-30.0,54.0 L-30.0,154.0" id="d2" />
<path d="M-20.0,54.0 L-20.0,154.0" id="d3" />
<path d="M-10.0,54.0 L-10.0,154.0" id="d4" />
<path d="M0.0,54.0 L0.0,154.0" id="d5" />
<path d="M10.0,54.0 L10.0,154.0" id="d6" />
<path d="M20.0,54.0 L20.0,154.0" id="d7" />
<path d="M30.0,54.0 L30.0,154.0" id="d8" />
<path d="M40.0,54.0 L40.0,154.0" id="d9" />
<path d="M54.0,50.0 L154.0,50.0" id="d10" />
<path d="M54.0,40.0 L154.0,40.0" id="d11" />
<path d="M54.0,30.0 L154.0,30.0" id="d12" />
<path d="M54.0,20.0 L154.0,20.0" id="d13" />
<path d="M54.0,10.0 L154.0,10.0" id="d14" />
<path d="M54.0,-0.0 L154.0,-0.0" id="d15" />
<path d="M54.0,-10.0 L154.0,-10.0" id="d16" />
<path d="M54.0,-20.0 L154.0,-20.0" id="d17" />
<path d="M54.0,-30.0 L154.0,-30.0" id="d18" />
<path d="M54.0,-40.0 L154.0,-40.0" id="d19" />
</defs>
<g>
<circle cx="0" cy="0" r="1" fill="black" />
<text x="2" y="-2" font-size="12" fill="#000000" stroke="none" dy="0em">Origin</text>
</g>
<g>
<g>
<path d="M-50,50 L50,50" fill="none" stroke="#999999" />
</g>
<path d="M-50.0,50.0 L-50.0,53.0" stroke="#999999" />
<text font-size="6" stroke="none" fill="#999999"><textPath xlink:href="#d0">
<tspan dy="0em">0mm</tspan>
</textPath></text>
<path d="M-40.0,50.0 L-40.0,53.0" stroke="#999999" />
<text font-size="6" stroke="none" fill="#999999"><textPath xlink:href="#d1">
<tspan dy="0em">10mm</tspan>
</textPath></text>
<path d="M-30.0,50.0 L-30.0,53.0" stroke="#999999" />
<text font-size="6" stroke="none" fill="#999999"><textPath xlink:href="#d2">
<tspan dy="0em">20mm</tspan>
</textPath></text>
<path d="M-20.0,50.0 L-20.0,53.0" stroke="#999999" />
<text font-size="6" stroke="none" fill="#999999"><textPath xlink:href="#d3">
<tspan dy="0em">30mm</tspan>
</textPath></text>
<path d="M-10.0,50.0 L-10.0,53.0" stroke="#999999" />
<text font-size="6" stroke="none" fill="#999999"><textPath xlink:href="#d4">
<tspan dy="0em">40mm</tspan>
</textPath></text>
<path d="M0.0,50.0 L0.0,53.0" stroke="#999999" />
<text font-size="6" stroke="none" fill="#999999"><textPath xlink:href="#d5">
<tspan dy="0em">50mm</tspan>
</textPath></text>
<path d="M10.0,50.0 L10.0,53.0" stroke="#999999" />
<text font-size="6" stroke="none" fill="#999999"><textPath xlink:href="#d6">
<tspan dy="0em">60mm</tspan>
</textPath></text>
<path d="M20.0,50.0 L20.0,53.0" stroke="#999999" />
<text font-size="6" stroke="none" fill="#999999"><textPath xlink:href="#d7">
<tspan dy="0em">70mm</tspan>
</textPath></text>
<path d="M30.0,50.0 L30.0,53.0" stroke="#999999" />
<text font-size="6" stroke="none" fill="#999999"><textPath xlink:href="#d8">
<tspan dy="0em">80mm</tspan>
</textPath></text>
<path d="M40.0,50.0 L40.0,53.0" stroke="#999999" />
<text font-size="6" stroke="none" fill="#999999"><textPath xlink:href="#d9">
<tspan dy="0em">90mm</tspan>
</textPath></text>
</g>
<g>
<g>
<path d="M50,50 L50,-50" fill="none" stroke="#999999" />
</g>
<path d="M50.0,50.0 L53.0,50.0" stroke="#999999" />
<text font-size="6" stroke="none" fill="#999999"><textPath xlink:href="#d10">
<tspan dy="0em">0mm</tspan>
</textPath></text>
<path d="M50.0,40.0 L53.0,40.0" stroke="#999999" />
<text font-size="6" stroke="none" fill="#999999"><textPath xlink:href="#d11">
<tspan dy="0em">10mm</tspan>
</textPath></text>
<path d="M50.0,30.0 L53.0,30.0" stroke="#999999" />
<text font-size="6" stroke="none" fill="#999999"><textPath xlink:href="#d12">
<tspan dy="0em">20mm</tspan>
</textPath></text>
<path d="M50.0,20.0 L53.0,20.0" stroke="#999999" />
<text font-size="6" stroke="none" fill="#999999"><textPath xlink:href="#d13">
<tspan dy="0em">30mm</tspan>
</textPath></text>
<path d="M50.0,10.0 L53.0,10.0" stroke="#999999" />
<text font-size="6" stroke="none" fill="#999999"><textPath xlink:href="#d14">
<tspan dy="0em">40mm</tspan>
</textPath></text>
<path d="M50.0,-0.0 L53.0,-0.0" stroke="#999999" />
<text font-size="6" stroke="none" fill="#999999"><textPath xlink:href="#d15">
<tspan dy="0em">50mm</tspan>
</textPath></text>
<path d="M50.0,-10.0 L53.0,-10.0" stroke="#999999" />
<text font-size="6" stroke="none" fill="#999999"><textPath xlink:href="#d16">
<tspan dy="0em">60mm</tspan>
</textPath></text>
<path d="M50.0,-20.0 L53.0,-20.0" stroke="#999999" />
<text font-size="6" stroke="none" fill="#999999"><textPath xlink:href="#d17">
<tspan dy="0em">70mm</tspan>
</textPath></text>
<path d="M50.0,-30.0 L53.0,-30.0" stroke="#999999" />
<text font-size="6" stroke="none" fill="#999999"><textPath xlink:href="#d18">
<tspan dy="0em">80mm</tspan>
</textPath></text>
<path d="M50.0,-40.0 L53.0,-40.0" stroke="#999999" />
<text font-size="6" stroke="none" fill="#999999"><textPath xlink:href="#d19">
<tspan dy="0em">90mm</tspan>
</textPath></text>
</g>
</svg>
