<?xml version="1.0" encoding="UTF-8"?>
<svg xmlns="http://www.w3.org/2000/svg" xmlns:xlink="http://www.w3.org/1999/xlink"
     width="513.6469160300543" height="500" viewBox="-113.64691603005426 -400 513.6469160300543 500" stroke="black" fill="none">
<defs>
</defs>
<g>
<path d="M0,0 L0,-200 L200,-250 L250,-150 L300,-300" fill="none" stroke="black" stroke-dasharray="3" />
</g>
<g>
<path d="M0.0,-0.0 L-0.24225294727906968,-8.37904145172132 L-0.9151778008320409,-17.64984757723221 L-1.9380235782325568,-27.697151558368883 L-3.230039297054262,-38.40568657696754 L-4.7104739748708,-49.66018581486436 L-6.298576629255811,-61.34538245389556 L-7.913596277782941,-73.34600967589732 L-9.474781938025835,-85.54680066270588 L-10.901382627558137,-97.83248859615739 L-12.112647363953483,-110.08780665808808 L-13.027825164785526,-122.19748803033414 L-13.566165047627903,-134.04626589473176 L-13.646916030054259,-145.51887343311722 L-13.189327129638238,-156.50004382732655 L-12.112647363953483,-166.87451025919614 L-10.336125750573641,-176.52700591056202 L-7.779011307072349,-185.34226396326054 L-4.360553051023258,-193.20501759912776 L0.0,-200.0 L0.0,-200.0 L5.606655277888563,-206.15031311755624 L12.609623413118763,-212.12998264079596 L20.85896018599472,-217.90012735753604 L30.204721376820576,-223.42186605559345 L40.49696276590044,-228.65631752278495 L51.58574013353844,-233.56460054692744 L63.32110926003869,-238.10783391583777 L75.55312592570536,-242.2471364173329 L88.13184591084254,-245.9436268392297 L100.90732499575434,-249.15842396934497 L113.72961896074492,-251.8526465954956 L126.44878358611837,-253.98741350549855 L138.91487465217884,-255.5238434871706 L150.97794793923043,-256.4230553283287 L162.4880592275773,-256.64616781678967 L173.2952642975236,-256.1542997403704 L183.24961892937338,-254.90856988688782 L192.2011789034308,-252.87009704415868 L200.0,-250.0 L200.0,-250.0 L206.4456217382944,-246.2094705791681 L211.5459585026164,-241.5219050311527 L215.46362837090382,-236.06672878087014 L218.3612494210945,-229.97336725323737 L220.40143973112606,-223.37124587317084 L221.7468173789362,-216.38979006558705 L222.56000044246275,-209.1584252554028 L223.0036069996435,-201.80657686753472 L223.24025512841615,-194.46367032689932 L223.43256290671835,-187.2591310584132 L223.74314841248798,-180.32238448699306 L224.33462972366274,-173.78285603755552 L225.36962491818036,-167.7699711350171 L227.0107520739786,-162.41315520429453 L229.42062926899519,-157.8418336703043 L232.76187458116783,-154.18543195796315 L237.19710608843442,-151.57337549218764 L242.8889418687325,-150.1350896978944 L250.0,-150.0 L250.0,-150.0 L257.3442072576249,-151.3316462270988 L263.6836795000269,-154.12152039681388 L269.1033184296913,-158.24097621760527 L273.6880257491035,-163.56136739793305 L277.5227031607486,-169.9540476462571 L280.69225236711196,-177.2903706710374 L283.28157507067885,-185.441690180734 L285.37557297393465,-194.27935988380696 L287.05914777936454,-203.67473348871613 L288.4172011894537,-213.4991647039215 L289.5346349066876,-223.62400723788318 L290.4963506335514,-233.9206147990611 L291.3872500725305,-244.2603410959152 L292.29223492611,-254.51453983690553 L293.2962068967753,-264.5545647304921 L294.4840676870117,-274.2517694851348 L295.9407189993044,-283.4775078092937 L297.75106253613876,-292.10313341142876 L300.0,-300.0" fill="none" stroke="black" />
</g>
</svg>