<?xml version="1.0" encoding="UTF-8"?>
<svg xmlns="http://www.w3.org/2000/svg" xmlns:xlink="http://www.w3.org/1999/xlink"
     width="624.2332899945455" height="998.1829929870182" viewBox="15.387333741624118 -100.0 624.2332899945455 998.1829929870182" stroke="black" fill="none">
<defs>
</defs>
<path d="M15.387333741624118,898.1829929870182 L639.6206237361697,898.1829929870182" stroke="#dddddd" />
<path d="M15.387333741624118,688.1829929870182 L639.6206237361697,688.1829929870182" stroke="#dddddd" />
<path d="M15.387333741624118,478.1829929870182 L639.6206237361697,478.1829929870182" stroke="#dddddd" />
<path d="M15.387333741624118,268.1829929870182 L639.6206237361697,268.1829929870182" stroke="#dddddd" />
<path d="M15.387333741624118,58.182992987018224 L639.6206237361697,58.182992987018224" stroke="#dddddd" />
<path d="M15.387333741624118,898.1829929870182 L15.387333741624118,-100" stroke="#dddddd" />
<path d="M312.3873337416241,898.1829929870182 L312.3873337416241,-100" stroke="#dddddd" />
<path d="M609.3873337416242,898.1829929870182 L609.3873337416242,-100" stroke="#dddddd" />
<text x="163.8873337416241" y="793.1829929870182" font-size="10" stroke="none" fill="#dddddd" dy="0em">A0</text>
<text x="163.8873337416241" y="583.1829929870182" font-size="10" stroke="none" fill="#dddddd" dy="0em">A1</text>
<text x="163.8873337416241" y="373.1829929870182" font-size="10" stroke="none" fill="#dddddd" dy="0em">A2</text>
<text x="163.8873337416241" y="163.18299298701822" font-size="10" stroke="none" fill="#dddddd" dy="0em">A3</text>
<text x="163.8873337416241" y="-46.817007012981776" font-size="10" stroke="none" fill="#dddddd" dy="0em">A4</text>
<text x="460.8873337416241" y="793.1829929870182" font-size="10" stroke="none" fill="#dddddd" dy="0em">B0</text>
<text x="460.8873337416241" y="583.1829929870182" font-size="10" stroke="none" fill="#dddddd" dy="0em">B1</text>
<text x="460.8873337416241" y="373.1829929870182" font-size="10" stroke="none" fill="#dddddd" dy="0em">B2</text>
<text x="460.8873337416241" y="163.18299298701822" font-size="10" stroke="none" fill="#dddddd" dy="0em">B3</text>
<text x="460.8873337416241" y="-46.817007012981776" font-size="10" stroke="none" fill="#dddddd" dy="0em">B4</text>
<path d="M15.387333741624118,898.1829929870182 L639.6206237361697,898.1829929870182" stroke="#ffcccc66" stroke-dasharray="5" />
<text x="16.38733374162412" y="896.1829929870182" font-size="8" stroke="none" fill="#ffcccc66" dy="0em">-100mm</text>
<path d="M15.387333741624118,848.1829929870182 L639.6206237361697,848.1829929870182" stroke="#ffcccc66" stroke-dasharray="5" />
<text x="16.38733374162412" y="846.1829929870182" font-size="8" stroke="none" fill="#ffcccc66" dy="0em">-50mm</text>
<path d="M15.387333741624118,798.1829929870182 L639.6206237361697,798.1829929870182" stroke="#ffcccc66" stroke-dasharray="5" />
<text x="16.38733374162412" y="796.1829929870182" font-size="8" stroke="none" fill="#ffcccc66" dy="0em">0mm</text>
<path d="M15.387333741624118,748.1829929870182 L639.6206237361697,748.1829929870182" stroke="#ffcccc66" stroke-dasharray="5" />
<text x="16.38733374162412" y="746.1829929870182" font-size="8" stroke="none" fill="#ffcccc66" dy="0em">50mm</text>
<path d="M15.387333741624118,698.1829929870182 L639.6206237361697,698.1829929870182" stroke="#ffcccc66" stroke-dasharray="5" />
<text x="16.38733374162412" y="696.1829929870182" font-size="8" stroke="none" fill="#ffcccc66" dy="0em">100mm</text>
<path d="M15.387333741624118,648.1829929870182 L639.6206237361697,648.1829929870182" stroke="#ffcccc66" stroke-dasharray="5" />
<text x="16.38733374162412" y="646.1829929870182" font-size="8" stroke="none" fill="#ffcccc66" dy="0em">150mm</text>
<path d="M15.387333741624118,598.1829929870182 L639.6206237361697,598.1829929870182" stroke="#ffcccc66" stroke-dasharray="5" />
<text x="16.38733374162412" y="596.1829929870182" font-size="8" stroke="none" fill="#ffcccc66" dy="0em">200mm</text>
<path d="M15.387333741624118,548.1829929870182 L639.6206237361697,548.1829929870182" stroke="#ffcccc66" stroke-dasharray="5" />
<text x="16.38733374162412" y="546.1829929870182" font-size="8" stroke="none" fill="#ffcccc66" dy="0em">250mm</text>
<path d="M15.387333741624118,498.1829929870182 L639.6206237361697,498.1829929870182" stroke="#ffcccc66" stroke-dasharray="5" />
<text x="16.38733374162412" y="496.1829929870182" font-size="8" stroke="none" fill="#ffcccc66" dy="0em">300mm</text>
<path d="M15.387333741624118,448.1829929870182 L639.6206237361697,448.1829929870182" stroke="#ffcccc66" stroke-dasharray="5" />
<text x="16.38733374162412" y="446.1829929870182" font-size="8" stroke="none" fill="#ffcccc66" dy="0em">350mm</text>
<path d="M15.387333741624118,398.1829929870182 L639.6206237361697,398.1829929870182" stroke="#ffcccc66" stroke-dasharray="5" />
<text x="16.38733374162412" y="396.1829929870182" font-size="8" stroke="none" fill="#ffcccc66" dy="0em">400mm</text>
<path d="M15.387333741624118,348.1829929870182 L639.6206237361697,348.1829929870182" stroke="#ffcccc66" stroke-dasharray="5" />
<text x="16.38733374162412" y="346.1829929870182" font-size="8" stroke="none" fill="#ffcccc66" dy="0em">450mm</text>
<path d="M15.387333741624118,298.1829929870182 L639.6206237361697,298.1829929870182" stroke="#ffcccc66" stroke-dasharray="5" />
<text x="16.38733374162412" y="296.1829929870182" font-size="8" stroke="none" fill="#ffcccc66" dy="0em">500mm</text>
<path d="M15.387333741624118,248.18299298701822 L639.6206237361697,248.18299298701822" stroke="#ffcccc66" stroke-dasharray="5" />
<text x="16.38733374162412" y="246.18299298701822" font-size="8" stroke="none" fill="#ffcccc66" dy="0em">550mm</text>
<path d="M15.387333741624118,198.18299298701822 L639.6206237361697,198.18299298701822" stroke="#ffcccc66" stroke-dasharray="5" />
<text x="16.38733374162412" y="196.18299298701822" font-size="8" stroke="none" fill="#ffcccc66" dy="0em">600mm</text>
<path d="M15.387333741624118,148.18299298701822 L639.6206237361697,148.18299298701822" stroke="#ffcccc66" stroke-dasharray="5" />
<text x="16.38733374162412" y="146.18299298701822" font-size="8" stroke="none" fill="#ffcccc66" dy="0em">650mm</text>
<path d="M15.387333741624118,98.18299298701822 L639.6206237361697,98.18299298701822" stroke="#ffcccc66" stroke-dasharray="5" />
<text x="16.38733374162412" y="96.18299298701822" font-size="8" stroke="none" fill="#ffcccc66" dy="0em">700mm</text>
<path d="M15.387333741624118,48.182992987018224 L639.6206237361697,48.182992987018224" stroke="#ffcccc66" stroke-dasharray="5" />
<text x="16.38733374162412" y="46.182992987018224" font-size="8" stroke="none" fill="#ffcccc66" dy="0em">750mm</text>
<path d="M15.387333741624118,-1.817007012981776 L639.6206237361697,-1.817007012981776" stroke="#ffcccc66" stroke-dasharray="5" />
<text x="16.38733374162412" y="-3.817007012981776" font-size="8" stroke="none" fill="#ffcccc66" dy="0em">800mm</text>
<path d="M15.387333741624118,-51.817007012981776 L639.6206237361697,-51.817007012981776" stroke="#ffcccc66" stroke-dasharray="5" />
<text x="16.38733374162412" y="-53.817007012981776" font-size="8" stroke="none" fill="#ffcccc66" dy="0em">850mm</text>
<path d="M15.387333741624118,898.1829929870182 L15.387333741624118,-100" stroke="#ffcccc66" stroke-dasharray="5" />
<text x="17.38733374162412" y="897.1829929870182" font-size="8" stroke="none" fill="#ffcccc66" dy="0em">-100mm</text>
<path d="M65.38733374162412,898.1829929870182 L65.38733374162412,-100" stroke="#ffcccc66" stroke-dasharray="5" />
<text x="67.38733374162412" y="897.1829929870182" font-size="8" stroke="none" fill="#ffcccc66" dy="0em">-50mm</text>
<path d="M115.38733374162412,898.1829929870182 L115.38733374162412,-100" stroke="#ffcccc66" stroke-dasharray="5" />
<text x="117.38733374162412" y="897.1829929870182" font-size="8" stroke="none" fill="#ffcccc66" dy="0em">0mm</text>
<path d="M165.3873337416241,898.1829929870182 L165.3873337416241,-100" stroke="#ffcccc66" stroke-dasharray="5" />
<text x="167.3873337416241" y="897.1829929870182" font-size="8" stroke="none" fill="#ffcccc66" dy="0em">50mm</text>
<path d="M215.3873337416241,898.1829929870182 L215.3873337416241,-100" stroke="#ffcccc66" stroke-dasharray="5" />
<text x="217.3873337416241" y="897.1829929870182" font-size="8" stroke="none" fill="#ffcccc66" dy="0em">100mm</text>
<path d="M265.3873337416241,898.1829929870182 L265.3873337416241,-100" stroke="#ffcccc66" stroke-dasharray="5" />
<text x="267.3873337416241" y="897.1829929870182" font-size="8" stroke="none" fill="#ffcccc66" dy="0em">150mm</text>
<path d="M315.3873337416241,898.1829929870182 L315.3873337416241,-100" stroke="#ffcccc66" stroke-dasharray="5" />
<text x="317.3873337416241" y="897.1829929870182" font-size="8" stroke="none" fill="#ffcccc66" dy="0em">200mm</text>
<path d="M365.3873337416241,898.1829929870182 L365.3873337416241,-100" stroke="#ffcccc66" stroke-dasharray="5" />
<text x="367.3873337416241" y="897.1829929870182" font-size="8" stroke="none" fill="#ffcccc66" dy="0em">250mm</text>
<path d="M415.3873337416241,898.1829929870182 L415.3873337416241,-100" stroke="#ffcccc66" stroke-dasharray="5" />
<text x="417.3873337416241" y="897.1829929870182" font-size="8" stroke="none" fill="#ffcccc66" dy="0em">300mm</text>
<path d="M465.3873337416241,898.1829929870182 L465.3873337416241,-100" stroke="#ffcccc66" stroke-dasharray="5" />
<text x="467.3873337416241" y="897.1829929870182" font-size="8" stroke="none" fill="#ffcccc66" dy="0em">350mm</text>
<path d="M515.3873337416242,898.1829929870182 L515.3873337416242,-100" stroke="#ffcccc66" stroke-dasharray="5" />
<text x="517.3873337416242" y="897.1829929870182" font-size="8" stroke="none" fill="#ffcccc66" dy="0em">400mm</text>
<path d="M565.3873337416242,898.1829929870182 L565.3873337416242,-100" stroke="#ffcccc66" stroke-dasharray="5" />
<text x="567.3873337416242" y="897.1829929870182" font-size="8" stroke="none" fill="#ffcccc66" dy="0em">450mm</text>
<path d="M615.3873337416242,898.1829929870182 L615.3873337416242,-100" stroke="#ffcccc66" stroke-dasharray="5" />
<text x="617.3873337416242" y="897.1829929870182" font-size="8" stroke="none" fill="#ffcccc66" dy="0em">500mm</text>
<g>
<path d="M115.38733374162412,0 L143.2394487827058,265 L190.9859317102744,645 L192.69845892727875,655.8595641855181 L195.08948454008055,666.5901690280838 L198.1495722629418,677.1494657327304 L201.8666453276415,687.4957815794485 L206.22603414496237,697.5882843863733 L211.21053419885777,707.3871436557517 L216.80047394481645,716.8536877667206 L222.97379244446165,725.9505565945265 L229.7061264299962,734.64184895387 L236.97090645489004,742.8932642844827 L244.73946175134728,750.6722380197676 L252.98113338072798,757.9480701042669 L261.66339523037266,764.6920461527543 L270.75198237930897,770.877550772796 L280.2110263262404,776.480172603545 L290.0031965461347,781.47780065623 L300.0898478167509,785.8507115761258 L310.4311727336765,789.5816474816247 L320.98635881196634,792.65588407321 L331.71374955437534,795.0612887435402 L342.5710088505217,796.788368459306 L353.5152880581736,797.8303072258971 L364.503395107264,798.1829929870182 L375.49196495925867,797.8450338530971 L386.4376307491519,796.8177635944364 L397.29719493466996,795.1052363774321 L408.02779977723554,792.7142107646303 L418.58709648188216,789.654123041769 L428.9334123286003,785.9370499770693 L439.0259151355251,781.5776611597483 L448.82477440490356,776.5931611058529 L458.2913185158724,771.0032213598943 L467.38818734367817,764.829902860249 L476.0794797030217,758.0975688747145 L484.3308950336344,750.8327888498206 L492.10986876891945,743.0642335533634 L499.3857008534186,734.8225619239827 L506.12967690190595,726.1403000743379 L512.3151815219477,717.0517129254017 L517.9178033526968,707.5926689784702 L522.9154314053816,697.8004987585759 L527.2883423252774,687.7138474879597 L531.0192782307763,677.3725225710341 L534.0935148223616,666.8173364927442 L536.4989194926917,656.0899457503352 L538.2259992084576,645.2326864541889 L539.2679379750485,634.288407246537 L539.6206237361697,623.3003001974465 L539.2826646022486,612.3117303454519 L538.2553943435879,601.3660645555586 L536.5428671265835,590.5065003700406 L534.1518415137816,579.775895527475 L531.0917537909204,569.2165988228284 L527.3746807262206,558.8702829761103 L523.0152919088997,548.7777801691855 L518.0307918550043,538.978920899807 L512.4408521090455,529.5123767888382 L506.2675336094003,520.4155079610324 L499.5351996238657,511.7242156016889 L492.2704195989718,503.47280027107627 L484.5018643025146,495.69382653579123 L476.2601926731338,488.4179944512921 L467.5779308234891,481.67401840280473 L458.4893436745528,475.488513782763 L449.03029972762135,469.88589195201405 L439.238129507727,464.88826389932916 L429.1514782371107,460.5153529794334 L418.8101533201852,456.78441707393455 L408.2549672418954,453.7101804823492 L397.5275764994863,451.3047758120191 L386.67031720333983,449.57769609625336 L375.726037995688,448.5357573296624 L364.7379309465977,448.1830715685412 L353.74936109460293,448.5210307024624 L342.80369530470966,449.54830096112306 L331.9441311191917,451.26082817812744 L321.21352627662617,453.6518537909293 L310.6542295719795,456.71194151379063 L300.3079137252613,460.42901457849047 L290.2154109183366,464.7884033958114 L280.41655164895826,469.7729034497068 L270.9500075379894,475.3628431956656 L261.85313871018354,481.53616169531085 L253.16184635084008,488.2684956808455 L244.91043102022746,495.5332757057393 L237.13145728494246,503.3018310021966 L229.85562520044326,511.54350263157744 L223.111649151956,520.2257644812221 L216.92614453191433,529.3143516301584 L211.3235227011653,538.7733955770899 L206.32589464848044,548.5655657969843 L201.9529837285847,558.6522170676004 L198.22204782308594,568.993541984526 L195.14781123150053,579.5487280628159 L192.74240656117053,590.276118805225 L191.0153268454048,601.1333781013714 L189.9733880788138,612.0776573090232 L189.6207023176927,623.0657643581136 L189.95866145161386,634.0543342101084" fill="none" stroke="black" />
</g>
</svg>