<?xml version="1.0" encoding="UTF-8"?>
<svg xmlns="http://www.w3.org/2000/svg" xmlns:xlink="http://www.w3.org/1999/xlink"
     width="508.3917787713891" height="500" viewBox="-105.47033075024572 -400 508.3917787713891 500" stroke="black" fill="none">
<defs>
</defs>
<g>
<path d="M0,0 L0,-200 L200,-250 L250,-150 L300,-300" fill="none" stroke="black" stroke-dasharray="3" />
</g>
<g>
<path d="M0.0,-0.0 L-0.40520968520338696,-11.607217269893374 L-1.4182338982118543,-31.48945797549101 L-2.735165375122862,-57.23760546066917 L-4.052096852033869,-86.44254306930414 L-5.065121065042337,-116.69515414527216 L-5.470330750245724,-145.58632203244946 L-4.963818643741491,-170.70693007471237 L-3.241677481627097,-189.64786161593713 L0.0,-200.0 L0.0,-200.0 L9.744788202413831,-206.42069598736157 L28.959274067729634,-214.60709561090727 L54.92188367111176,-223.70977512315037 L84.91104308772452,-232.8793107766041 L116.2051783927323,-241.2662788237819 L146.08271566129935,-248.02125551719706 L171.82208096859011,-252.2948171093629 L190.7017003897689,-253.23753985279276 L200.0,-250.0 L200.0,-250.0 L206.89992659063196,-244.89285192933792 L215.0367697988905,-235.84102767869078 L223.7363827491774,-223.89182099943258 L232.32461856589455,-210.0925256429373 L240.12733037344384,-195.49043536057914 L246.47037129622714,-181.13284390373227 L250.67959445864636,-168.06704502377073 L252.08085298510332,-157.3403324720686 L250.0,-150.0 L250.0,-150.0 L257.4663336903134,-155.0860315518454 L266.09652920742263,-167.991890963852 L275.187062396834,-186.6070057725387 L284.0344091040538,-208.82080351442434 L291.93504517458825,-232.52271172602792 L298.1854464539438,-255.60215794386835 L302.08208878762673,-275.9485697044646 L302.92144802114336,-291.45137454433547 L300.0,-300.0" fill="none" stroke="black" />
</g>
</svg>