<?xml version="1.0" encoding="UTF-8"?>
<svg xmlns="http://www.w3.org/2000/svg" xmlns:xlink="http://www.w3.org/1999/xlink"
     width="300" height="300" viewBox="-100 -200 300 300" stroke="black" fill="none">
<defs>
<path d="M0,0 L100,0 L100,-100 L0,-100 L0,0" fill="none" stroke="black" id="d0" />
<path d="M0.0,4.0 L0.0,104.0" id="d1" />
<path d="M10.0,4.0 L10.0,104.0" id="d2" />
<path d="M20.0,4.0 L20.0,104.0" id="d3" />
<path d="M30.0,4.0 L30.0,104.0" id="d4" />
<path d="M40.0,4.0 L40.0,104.0" id="d5" />
<path d="M50.0,4.0 L50.0,104.0" id="d6" />
<path d="M60.0,4.0 L60.0,104.0" id="d7" />
<path d="M70.0,4.0 L70.0,104.0" id="d8" />
<path d="M80.0,4.0 L80.0,104.0" id="d9" />
<path d="M90.0,4.0 L90.0,104.0" id="d10" />
<path d="M100.0,4.0 L100.0,104.0" id="d11" />
<path d="M104.0,-10.0 L204.0,-10.0" id="d12" />
<path d="M104.0,-20.0 L204.0,-20.0" id="d13" />
<path d="M104.0,-30.0 L204.0,-30.0" id="d14" />
<path d="M104.0,-40.0 L204.0,-40.0" id="d15" />
<path d="M104.0,-50.0 L204.0,-50.0" id="d16" />
<path d="M104.0,-60.0 L204.0,-60.0" id="d17" />
<path d="M104.0,-70.0 L204.0,-70.0" id="d18" />
<path d="M104.0,-80.0 L204.0,-80.0" id="d19" />
<path d="M104.0,-90.0 L204.0,-90.0" id="d20" />
<path d="M104.0,-100.0 L204.0,-100.0" id="d21" />
<path d="M90.0,-104.0 L90.0,-204.0" id="d22" />
<path d="M80.0,-104.0 L80.0,-204.0" id="d23" />
<path d="M70.0,-104.0 L70.0,-204.0" id="d24" />
<path d="M60.0,-104.0 L60.0,-204.0" id="d25" />
<path d="M50.0,-104.0 L50.0,-204.0" id="d26" />
<path d="M40.0,-104.0 L40.0,-204.0" id="d27" />
<path d="M30.000000000000004,-104.0 L30.000000000000004,-204.0" id="d28" />
<path d="M19.999999999999996,-104.0 L19.999999999999996,-204.0" id="d29" />
<path d="M9.999999999999998,-104.0 L9.999999999999998,-204.0" id="d30" />
<path d="M0.0,-104.0 L0.0,-204.0" id="d31" />
<path d="M-4.0,-90.0 L-104.0,-90.0" id="d32" />
<path d="M-4.0,-80.0 L-104.0,-80.0" id="d33" />
<path d="M-4.0,-70.0 L-104.0,-70.0" id="d34" />
<path d="M-4.0,-60.0 L-104.0,-60.0" id="d35" />
<path d="M-4.0,-50.0 L-104.0,-50.0" id="d36" />
<path d="M-4.0,-40.0 L-104.0,-40.0" id="d37" />
<path d="M-4.0,-30.000000000000004 L-104.0,-30.000000000000004" id="d38" />
<path d="M-4.0,-19.999999999999996 L-104.0,-19.999999999999996" id="d39" />
<path d="M-4.0,-9.999999999999998 L-104.0,-9.999999999999998" id="d40" />
</defs>
<path d="M-100,100 L200,100" stroke="#dddddd" />
<path d="M-100,-110 L200,-110" stroke="#dddddd" />
<path d="M-100,100 L-100,-200" stroke="#dddddd" />
<path d="M197,100 L197,-200" stroke="#dddddd" />
<text x="48.5" y="-5.0" font-size="10" stroke="none" fill="#dddddd" dy="0em">α0</text>
<path d="M-100,100 L200,100" stroke="#ffcccc66" stroke-dasharray="5" />
<text x="-99" y="98" font-size="8" stroke="none" fill="#ffcccc66" dy="0em">-100mm</text>
<path d="M-100,50 L200,50" stroke="#ffcccc66" stroke-dasharray="5" />
<text x="-99" y="48" font-size="8" stroke="none" fill="#ffcccc66" dy="0em">-50mm</text>
<path d="M-100,0 L200,0" stroke="#ffcccc66" stroke-dasharray="5" />
<text x="-99" y="-2" font-size="8" stroke="none" fill="#ffcccc66" dy="0em">0mm</text>
<path d="M-100,-50 L200,-50" stroke="#ffcccc66" stroke-dasharray="5" />
<text x="-99" y="-52" font-size="8" stroke="none" fill="#ffcccc66" dy="0em">50mm</text>
<path d="M-100,-100 L200,-100" stroke="#ffcccc66" stroke-dasharray="5" />
<text x="-99" y="-102" font-size="8" stroke="none" fill="#ffcccc66" dy="0em">100mm</text>
<path d="M-100,-150 L200,-150" stroke="#ffcccc66" stroke-dasharray="5" />
<text x="-99" y="-152" font-size="8" stroke="none" fill="#ffcccc66" dy="0em">150mm</text>
<path d="M-100,100 L-100,-200" stroke="#ffcccc66" stroke-dasharray="5" />
<text x="-98" y="99" font-size="8" stroke="none" fill="#ffcccc66" dy="0em">-100mm</text>
<path d="M-50,100 L-50,-200" stroke="#ffcccc66" stroke-dasharray="5" />
<text x="-48" y="99" font-size="8" stroke="none" fill="#ffcccc66" dy="0em">-50mm</text>
<path d="M0,100 L0,-200" stroke="#ffcccc66" stroke-dasharray="5" />
<text x="2" y="99" font-size="8" stroke="none" fill="#ffcccc66" dy="0em">0mm</text>
<path d="M50,100 L50,-200" stroke="#ffcccc66" stroke-dasharray="5" />
<text x="52" y="99" font-size="8" stroke="none" fill="#ffcccc66" dy="0em">50mm</text>
<path d="M100,100 L100,-200" stroke="#ffcccc66" stroke-dasharray="5" />
<text x="102" y="99" font-size="8" stroke="none" fill="#ffcccc66" dy="0em">100mm</text>
<path d="M150,100 L150,-200" stroke="#ffcccc66" stroke-dasharray="5" />
<text x="152" y="99" font-size="8" stroke="none" fill="#ffcccc66" dy="0em">150mm</text>
<g>
<path d="M0,0 L100,0 L100,-100 L0,-100 L0,0" fill="#E6E6FA66" stroke="black" />
<text font-size="12" stroke="none" fill="#000000"><textPath xlink:href="#d0" startOffset="10">
<tspan dy="-1em">a square</tspan>
</textPath></text>
</g>
<g>
<path d="M0.0,-0.0 L0.0,3.0" />
<text font-size="12" stroke="none" fill="#000000"><textPath xlink:href="#d1">
<tspan dy="0em">0mm</tspan>
</textPath></text>
</g>
<g>
<path d="M10.0,-0.0 L10.0,3.0" />
<text font-size="12" stroke="none" fill="#000000"><textPath xlink:href="#d2">
<tspan dy="0em">10mm</tspan>
</textPath></text>
</g>
<g>
<path d="M20.0,-0.0 L20.0,3.0" />
<text font-size="12" stroke="none" fill="#000000"><textPath xlink:href="#d3">
<tspan dy="0em">20mm</tspan>
</textPath></text>
</g>
<g>
<path d="M30.0,-0.0 L30.0,3.0" />
<text font-size="12" stroke="none" fill="#000000"><textPath xlink:href="#d4">
<tspan dy="0em">30mm</tspan>
</textPath></text>
</g>
<g>
<path d="M40.0,-0.0 L40.0,3.0" />
<text font-size="12" stroke="none" fill="#000000"><textPath xlink:href="#d5">
<tspan dy="0em">40mm</tspan>
</textPath></text>
</g>
<g>
<path d="M50.0,-0.0 L50.0,3.0" />
<text font-size="12" stroke="none" fill="#000000"><textPath xlink:href="#d6">
<tspan dy="0em">50mm</tspan>
</textPath></text>
</g>
<g>
<path d="M60.0,-0.0 L60.0,3.0" />
<text font-size="12" stroke="none" fill="#000000"><textPath xlink:href="#d7">
<tspan dy="0em">60mm</tspan>
</textPath></text>
</g>
<g>
<path d="M70.0,-0.0 L70.0,3.0" />
<text font-size="12" stroke="none" fill="#000000"><textPath xlink:href="#d8">
<tspan dy="0em">70mm</tspan>
</textPath></text>
</g>
<g>
<path d="M80.0,-0.0 L80.0,3.0" />
<text font-size="12" stroke="none" fill="#000000"><textPath xlink:href="#d9">
<tspan dy="0em">80mm</tspan>
</textPath></text>
</g>
<g>
<path d="M90.0,-0.0 L90.0,3.0" />
<text font-size="12" stroke="none" fill="#000000"><textPath xlink:href="#d10">
<tspan dy="0em">90mm</tspan>
</textPath></text>
</g>
<g>
<path d="M100.0,-0.0 L100.0,3.0" />
<text font-size="12" stroke="none" fill="#000000"><textPath xlink:href="#d11">
<tspan dy="0em">100mm</tspan>
</textPath></text>
</g>
<g>
<path d="M100.0,-10.0 L103.0,-10.0" />
<text font-size="12" stroke="none" fill="#000000"><textPath xlink:href="#d12">
<tspan dy="0em">110mm</tspan>
</textPath></text>
</g>
<g>
<path d="M100.0,-20.0 L103.0,-20.0" />
<text font-size="12" stroke="none" fill="#000000"><textPath xlink:href="#d13">
<tspan dy="0em">120mm</tspan>
</textPath></text>
</g>
<g>
<path d="M100.0,-30.0 L103.0,-30.0" />
<text font-size="12" stroke="none" fill="#000000"><textPath xlink:href="#d14">
<tspan dy="0em">130mm</tspan>
</textPath></text>
</g>
<g>
<path d="M100.0,-40.0 L103.0,-40.0" />
<text font-size="12" stroke="none" fill="#000000"><textPath xlink:href="#d15">
<tspan dy="0em">140mm</tspan>
</textPath></text>
</g>
<g>
<path d="M100.0,-50.0 L103.0,-50.0" />
<text font-size="12" stroke="none" fill="#000000"><textPath xlink:href="#d16">
<tspan dy="0em">150mm</tspan>
</textPath></text>
</g>
<g>
<path d="M100.0,-60.0 L103.0,-60.0" />
<text font-size="12" stroke="none" fill="#000000"><textPath xlink:href="#d17">
<tspan dy="0em">160mm</tspan>
</textPath></text>
</g>
<g>
<path d="M100.0,-70.0 L103.0,-70.0" />
<text font-size="12" stroke="none" fill="#000000"><textPath xlink:href="#d18">
<tspan dy="0em">170mm</tspan>
</textPath></text>
</g>
<g>
<path d="M100.0,-80.0 L103.0,-80.0" />
<text font-size="12" stroke="none" fill="#000000"><textPath xlink:href="#d19">
<tspan dy="0em">180mm</tspan>
</textPath></text>
</g>
<g>
<path d="M100.0,-90.0 L103.0,-90.0" />
<text font-size="12" stroke="none" fill="#000000"><textPath xlink:href="#d20">
<tspan dy="0em">190mm</tspan>
</textPath></text>
</g>
<g>
<path d="M100.0,-100.0 L103.0,-100.0" />
<text font-size="12" stroke="none" fill="#000000"><textPath xlink:href="#d21">
<tspan dy="0em">200mm</tspan>
</textPath></text>
</g>
<g>
<path d="M90.0,-100.0 L90.0,-103.0" />
<text font-size="12" stroke="none" fill="#000000"><textPath xlink:href="#d22">
<tspan dy="0em">210mm</tspan>
</textPath></text>
</g>
<g>
<path d="M80.0,-100.0 L80.0,-103.0" />
<text font-size="12" stroke="none" fill="#000000"><textPath xlink:href="#d23">
<tspan dy="0em">220mm</tspan>
</textPath></text>
</g>
<g>
<path d="M70.0,-100.0 L70.0,-103.0" />
<text font-size="12" stroke="none" fill="#000000"><textPath xlink:href="#d24">
<tspan dy="0em">230mm</tspan>
</textPath></text>
</g>
<g>
<path d="M60.0,-100.0 L60.0,-103.0" />
<text font-size="12" stroke="none" fill="#000000"><textPath xlink:href="#d25">
<tspan dy="0em">240mm</tspan>
</textPath></text>
</g>
<g>
<path d="M50.0,-100.0 L50.0,-103.0" />
<text font-size="12" stroke="none" fill="#000000"><textPath xlink:href="#d26">
<tspan dy="0em">250mm</tspan>
</textPath></text>
</g>
<g>
<path d="M40.0,-100.0 L40.0,-103.0" />
<text font-size="12" stroke="none" fill="#000000"><textPath xlink:href="#d27">
<tspan dy="0em">260mm</tspan>
</textPath></text>
</g>
<g>
<path d="M30.000000000000004,-100.0 L30.000000000000004,-103.0" />
<text font-size="12" stroke="none" fill="#000000"><textPath xlink:href="#d28">
<tspan dy="0em">270mm</tspan>
</textPath></text>
</g>
<g>
<path d="M19.999999999999996,-100.0 L19.999999999999996,-103.0" />
<text font-size="12" stroke="none" fill="#000000"><textPath xlink:href="#d29">
<tspan dy="0em">280mm</tspan>
</textPath></text>
</g>
<g>
<path d="M9.999999999999998,-100.0 L9.999999999999998,-103.0" />
<text font-size="12" stroke="none" fill="#000000"><textPath xlink:href="#d30">
<tspan dy="0em">290mm</tspan>
</textPath></text>
</g>
<g>
<path d="M0.0,-100.0 L0.0,-103.0" />
<text font-size="12" stroke="none" fill="#000000"><textPath xlink:href="#d31">
<tspan dy="0em">300mm</tspan>
</textPath></text>
</g>
<g>
<path d="M0.0,-90.0 L-3.0,-90.0" />
<text font-size="12" stroke="none" fill="#000000"><textPath xlink:href="#d32">
<tspan dy="0em">310mm</tspan>
</textPath></text>
</g>
<g>
<path d="M0.0,-80.0 L-3.0,-80.0" />
<text font-size="12" stroke="none" fill="#000000"><textPath xlink:href="#d33">
<tspan dy="0em">320mm</tspan>
</textPath></text>
</g>
<g>
<path d="M0.0,-70.0 L-3.0,-70.0" />
<text font-size="12" stroke="none" fill="#000000"><textPath xlink:href="#d34">
<tspan dy="0em">330mm</tspan>
</textPath></text>
</g>
<g>
<path d="M0.0,-60.0 L-3.0,-60.0" />
<text font-size="12" stroke="none" fill="#000000"><textPath xlink:href="#d35">
<tspan dy="0em">340mm</tspan>
</textPath></text>
</g>
<g>
<path d="M0.0,-50.0 L-3.0,-50.0" />
<text font-size="12" stroke="none" fill="#000000"><textPath xlink:href="#d36">
<tspan dy="0em">350mm</tspan>
</textPath></text>
</g>
<g>
<path d="M0.0,-40.0 L-3.0,-40.0" />
<text font-size="12" stroke="none" fill="#000000"><textPath xlink:href="#d37">
<tspan dy="0em">360mm</tspan>
</textPath></text>
</g>
<g>
<path d="M0.0,-30.000000000000004 L-3.0,-30.000000000000004" />
<text font-size="12" stroke="none" fill="#000000"><textPath xlink:href="#d38">
<tspan dy="0em">370mm</tspan>
</textPath></text>
</g>
<g>
<path d="M0.0,-19.999999999999996 L-3.0,-19.999999999999996" />
<text font-size="12" stroke="none" fill="#000000"><textPath xlink:href="#d39">
<tspan dy="0em">380mm</tspan>
</textPath></text>
</g>
<g>
<path d="M0.0,-9.999999999999998 L-3.0,-9.999999999999998" />
<text font-size="12" stroke="none" fill="#000000"><textPath xlink:href="#d40">
<tspan dy="0em">390mm</tspan>
</textPath></text>
</g>
</svg>