<?xml version="1.0" encoding="UTF-8"?>
<svg xmlns="http://www.w3.org/2000/svg" xmlns:xlink="http://www.w3.org/1999/xlink"
     width="260.0" height="838.5500000000045" viewBox="-100 -93.5500000000045 260.0 838.5500000000045" stroke="black" fill="none">
<defs>
</defs>
<g>
<g>
<circle cx="0" cy="645" r="1" fill="black" />
</g>
<g>
<circle cx="60.0" cy="645.0" r="1" fill="black" />
</g>
<g>
<circle cx="59.7453947368421" cy="638.55" r="1" fill="black" />
</g>
<g>
<circle cx="59.49078947368421" cy="632.0999999999999" r="1" fill="black" />
</g>
<g>
<circle cx="59.23618421052631" cy="625.6499999999999" r="1" fill="black" />
</g>
<g>
<circle cx="58.98157894736842" cy="619.1999999999998" r="1" fill="black" />
</g>
<g>
<circle cx="58.72697368421052" cy="612.7499999999998" r="1" fill="black" />
</g>
<g>
<circle cx="58.47236842105262" cy="606.2999999999997" r="1" fill="black" />
</g>
<g>
<circle cx="58.21776315789473" cy="599.8499999999997" r="1" fill="black" />
</g>
<g>
<circle cx="57.96315789473683" cy="593.3999999999996" r="1" fill="black" />
</g>
<g>
<circle cx="57.70855263157894" cy="586.9499999999996" r="1" fill="black" />
</g>
<g>
<circle cx="57.45394736842104" cy="580.4999999999995" r="1" fill="black" />
</g>
<g>
<circle cx="57.19934210526314" cy="574.0499999999995" r="1" fill="black" />
</g>
<g>
<circle cx="56.944736842105236" cy="567.5999999999995" r="1" fill="black" />
</g>
<g>
<circle cx="56.690131578947344" cy="561.1499999999994" r="1" fill="black" />
</g>
<g>
<circle cx="56.435526315789446" cy="554.6999999999994" r="1" fill="black" />
</g>
<g>
<circle cx="56.18092105263155" cy="548.2499999999993" r="1" fill="black" />
</g>
<g>
<circle cx="55.926315789473655" cy="541.7999999999993" r="1" fill="black" />
</g>
<g>
<circle cx="55.671710526315756" cy="535.3499999999992" r="1" fill="black" />
</g>
<g>
<circle cx="55.417105263157865" cy="528.8999999999992" r="1" fill="black" />
</g>
<g>
<circle cx="55.162499999999966" cy="522.4499999999991" r="1" fill="black" />
</g>
<g>
<circle cx="54.90789473684207" cy="515.9999999999991" r="1" fill="black" />
</g>
<g>
<circle cx="54.653289473684175" cy="509.54999999999905" r="1" fill="black" />
</g>
<g>
<circle cx="54.39868421052628" cy="503.099999999999" r="1" fill="black" />
</g>
<g>
<circle cx="54.144078947368385" cy="496.64999999999895" r="1" fill="black" />
</g>
<g>
<circle cx="53.889473684210486" cy="490.1999999999989" r="1" fill="black" />
</g>
<g>
<circle cx="53.63486842105259" cy="483.74999999999886" r="1" fill="black" />
</g>
<g>
<circle cx="53.380263157894696" cy="477.2999999999988" r="1" fill="black" />
</g>
<g>
<circle cx="53.12565789473679" cy="470.8499999999988" r="1" fill="black" />
</g>
<g>
<circle cx="52.871052631578905" cy="464.3999999999987" r="1" fill="black" />
</g>
<g>
<circle cx="52.61644736842099" cy="457.9499999999987" r="1" fill="black" />
</g>
<g>
<circle cx="52.3618421052631" cy="451.49999999999864" r="1" fill="black" />
</g>
<g>
<circle cx="52.1072368421052" cy="445.0499999999986" r="1" fill="black" />
</g>
<g>
<circle cx="51.85263157894731" cy="438.59999999999854" r="1" fill="black" />
</g>
<g>
<circle cx="51.59802631578941" cy="432.1499999999985" r="1" fill="black" />
</g>
<g>
<circle cx="51.34342105263151" cy="425.69999999999845" r="1" fill="black" />
</g>
<g>
<circle cx="51.08881578947362" cy="419.2499999999984" r="1" fill="black" />
</g>
<g>
<circle cx="50.83421052631572" cy="412.79999999999836" r="1" fill="black" />
</g>
<g>
<circle cx="50.57960526315783" cy="406.3499999999983" r="1" fill="black" />
</g>
<g>
<circle cx="50.32499999999993" cy="399.8999999999983" r="1" fill="black" />
</g>
<g>
<circle cx="50.07039473684203" cy="393.4499999999982" r="1" fill="black" />
</g>
<g>
<circle cx="49.81578947368414" cy="386.9999999999982" r="1" fill="black" />
</g>
<g>
<circle cx="49.56118421052624" cy="380.54999999999814" r="1" fill="black" />
</g>
<g>
<circle cx="49.30657894736835" cy="374.0999999999981" r="1" fill="black" />
</g>
<g>
<circle cx="49.05197368421045" cy="367.64999999999804" r="1" fill="black" />
</g>
<g>
<circle cx="48.79736842105255" cy="361.199999999998" r="1" fill="black" />
</g>
<g>
<circle cx="48.542763157894655" cy="354.74999999999795" r="1" fill="black" />
</g>
<g>
<circle cx="48.288157894736756" cy="348.2999999999979" r="1" fill="black" />
</g>
<g>
<circle cx="48.033552631578864" cy="341.84999999999786" r="1" fill="black" />
</g>
<g>
<circle cx="47.778947368420965" cy="335.3999999999978" r="1" fill="black" />
</g>
<g>
<circle cx="47.524342105263074" cy="328.9499999999978" r="1" fill="black" />
</g>
<g>
<circle cx="47.269736842105175" cy="322.4999999999977" r="1" fill="black" />
</g>
<g>
<circle cx="47.015131578947276" cy="316.0499999999977" r="1" fill="black" />
</g>
<g>
<circle cx="46.76052631578938" cy="309.59999999999764" r="1" fill="black" />
</g>
<g>
<circle cx="46.50592105263148" cy="303.1499999999976" r="1" fill="black" />
</g>
<g>
<circle cx="46.25131578947359" cy="296.69999999999754" r="1" fill="black" />
</g>
<g>
<circle cx="45.99671052631569" cy="290.2499999999975" r="1" fill="black" />
</g>
<g>
<circle cx="45.7421052631578" cy="283.79999999999745" r="1" fill="black" />
</g>
<g>
<circle cx="45.4874999999999" cy="277.3499999999974" r="1" fill="black" />
</g>
<g>
<circle cx="45.232894736842" cy="270.89999999999736" r="1" fill="black" />
</g>
<g>
<circle cx="44.981839622641424" cy="264.4499999999973" r="1" fill="black" />
</g>
<g>
<circle cx="44.76886792452821" cy="257.99999999999727" r="1" fill="black" />
</g>
<g>
<circle cx="44.555896226415" cy="251.54999999999723" r="1" fill="black" />
</g>
<g>
<circle cx="44.34292452830179" cy="245.09999999999718" r="1" fill="black" />
</g>
<g>
<circle cx="44.129952830188586" cy="238.64999999999714" r="1" fill="black" />
</g>
<g>
<circle cx="43.91698113207538" cy="232.1999999999971" r="1" fill="black" />
</g>
<g>
<circle cx="43.70400943396216" cy="225.74999999999704" r="1" fill="black" />
</g>
<g>
<circle cx="43.49103773584896" cy="219.299999999997" r="1" fill="black" />
</g>
<g>
<circle cx="43.27806603773575" cy="212.84999999999695" r="1" fill="black" />
</g>
<g>
<circle cx="43.06509433962254" cy="206.3999999999969" r="1" fill="black" />
</g>
<g>
<circle cx="42.85212264150933" cy="199.94999999999686" r="1" fill="black" />
</g>
<g>
<circle cx="42.639150943396125" cy="193.49999999999682" r="1" fill="black" />
</g>
<g>
<circle cx="42.42617924528291" cy="187.04999999999677" r="1" fill="black" />
</g>
<g>
<circle cx="42.2132075471697" cy="180.59999999999673" r="1" fill="black" />
</g>
<g>
<circle cx="42.000235849056494" cy="174.14999999999668" r="1" fill="black" />
</g>
<g>
<circle cx="41.78726415094329" cy="167.69999999999663" r="1" fill="black" />
</g>
<g>
<circle cx="41.57429245283008" cy="161.2499999999966" r="1" fill="black" />
</g>
<g>
<circle cx="41.361320754716864" cy="154.79999999999654" r="1" fill="black" />
</g>
<g>
<circle cx="41.148349056603664" cy="148.3499999999965" r="1" fill="black" />
</g>
<g>
<circle cx="40.93537735849045" cy="141.89999999999645" r="1" fill="black" />
</g>
<g>
<circle cx="40.72240566037724" cy="135.4499999999964" r="1" fill="black" />
</g>
<g>
<circle cx="40.509433962264026" cy="128.99999999999636" r="1" fill="black" />
</g>
<g>
<circle cx="40.296462264150826" cy="122.54999999999632" r="1" fill="black" />
</g>
<g>
<circle cx="40.08349056603761" cy="116.09999999999627" r="1" fill="black" />
</g>
<g>
<circle cx="39.8705188679244" cy="109.64999999999623" r="1" fill="black" />
</g>
<g>
<circle cx="39.657547169811195" cy="103.19999999999618" r="1" fill="black" />
</g>
<g>
<circle cx="39.44457547169799" cy="96.74999999999613" r="1" fill="black" />
</g>
<g>
<circle cx="39.23160377358478" cy="90.29999999999609" r="1" fill="black" />
</g>
<g>
<circle cx="39.018632075471565" cy="83.84999999999604" r="1" fill="black" />
</g>
<g>
<circle cx="38.80566037735836" cy="77.399999999996" r="1" fill="black" />
</g>
<g>
<circle cx="38.59268867924515" cy="70.94999999999595" r="1" fill="black" />
</g>
<g>
<circle cx="38.37971698113194" cy="64.49999999999591" r="1" fill="black" />
</g>
<g>
<circle cx="38.16674528301873" cy="58.04999999999586" r="1" fill="black" />
</g>
<g>
<circle cx="37.95377358490553" cy="51.599999999995816" r="1" fill="black" />
</g>
<g>
<circle cx="37.74080188679231" cy="45.14999999999577" r="1" fill="black" />
</g>
<g>
<circle cx="37.527830188679104" cy="38.699999999995725" r="1" fill="black" />
</g>
<g>
<circle cx="37.314858490565896" cy="32.24999999999568" r="1" fill="black" />
</g>
<g>
<circle cx="37.10188679245269" cy="25.799999999995634" r="1" fill="black" />
</g>
<g>
<circle cx="36.88891509433948" cy="19.34999999999559" r="1" fill="black" />
</g>
<g>
<circle cx="36.675943396226266" cy="12.899999999995543" r="1" fill="black" />
</g>
<g>
<circle cx="36.46297169811306" cy="6.449999999995498" r="1" fill="black" />
</g>
<g>
<circle cx="0" cy="6.449999999995498" r="1" fill="black" />
</g>
<g>
<circle cx="0" cy="645" r="1" fill="black" />
</g>
<g>
<path d="M0,645 L60.0,645.0 L59.7453947368421,638.55 L59.49078947368421,632.0999999999999 L59.23618421052631,625.6499999999999 L58.98157894736842,619.1999999999998 L58.72697368421052,612.7499999999998 L58.47236842105262,606.2999999999997 L58.21776315789473,599.8499999999997 L57.96315789473683,593.3999999999996 L57.70855263157894,586.9499999999996 L57.45394736842104,580.4999999999995 L57.19934210526314,574.0499999999995 L56.944736842105236,567.5999999999995 L56.690131578947344,561.1499999999994 L56.435526315789446,554.6999999999994 L56.18092105263155,548.2499999999993 L55.926315789473655,541.7999999999993 L55.671710526315756,535.3499999999992 L55.417105263157865,528.8999999999992 L55.162499999999966,522.4499999999991 L54.90789473684207,515.9999999999991 L54.653289473684175,509.54999999999905 L54.39868421052628,503.099999999999 L54.144078947368385,496.64999999999895 L53.889473684210486,490.1999999999989 L53.63486842105259,483.74999999999886 L53.380263157894696,477.2999999999988 L53.12565789473679,470.8499999999988 L52.871052631578905,464.3999999999987 L52.61644736842099,457.9499999999987 L52.3618421052631,451.49999999999864 L52.1072368421052,445.0499999999986 L51.85263157894731,438.59999999999854 L51.59802631578941,432.1499999999985 L51.34342105263151,425.69999999999845 L51.08881578947362,419.2499999999984 L50.83421052631572,412.79999999999836 L50.57960526315783,406.3499999999983 L50.32499999999993,399.8999999999983 L50.07039473684203,393.4499999999982 L49.81578947368414,386.9999999999982 L49.56118421052624,380.54999999999814 L49.30657894736835,374.0999999999981 L49.05197368421045,367.64999999999804 L48.79736842105255,361.199999999998 L48.542763157894655,354.74999999999795 L48.288157894736756,348.2999999999979 L48.033552631578864,341.84999999999786 L47.778947368420965,335.3999999999978 L47.524342105263074,328.9499999999978 L47.269736842105175,322.4999999999977 L47.015131578947276,316.0499999999977 L46.76052631578938,309.59999999999764 L46.50592105263148,303.1499999999976 L46.25131578947359,296.69999999999754 L45.99671052631569,290.2499999999975 L45.7421052631578,283.79999999999745 L45.4874999999999,277.3499999999974 L45.232894736842,270.89999999999736 L44.981839622641424,264.4499999999973 L44.76886792452821,257.99999999999727 L44.555896226415,251.54999999999723 L44.34292452830179,245.09999999999718 L44.129952830188586,238.64999999999714 L43.91698113207538,232.1999999999971 L43.70400943396216,225.74999999999704 L43.49103773584896,219.299999999997 L43.27806603773575,212.84999999999695 L43.06509433962254,206.3999999999969 L42.85212264150933,199.94999999999686 L42.639150943396125,193.49999999999682 L42.42617924528291,187.04999999999677 L42.2132075471697,180.59999999999673 L42.000235849056494,174.14999999999668 L41.78726415094329,167.69999999999663 L41.57429245283008,161.2499999999966 L41.361320754716864,154.79999999999654 L41.148349056603664,148.3499999999965 L40.93537735849045,141.89999999999645 L40.72240566037724,135.4499999999964 L40.509433962264026,128.99999999999636 L40.296462264150826,122.54999999999632 L40.08349056603761,116.09999999999627 L39.8705188679244,109.64999999999623 L39.657547169811195,103.19999999999618 L39.44457547169799,96.74999999999613 L39.23160377358478,90.29999999999609 L39.018632075471565,83.84999999999604 L38.80566037735836,77.399999999996 L38.59268867924515,70.94999999999595 L38.37971698113194,64.49999999999591 L38.16674528301873,58.04999999999586 L37.95377358490553,51.599999999995816 L37.74080188679231,45.14999999999577 L37.527830188679104,38.699999999995725 L37.314858490565896,32.24999999999568 L37.10188679245269,25.799999999995634 L36.88891509433948,19.34999999999559 L36.675943396226266,12.899999999995543 L36.46297169811306,6.449999999995498 L0,6.449999999995498 L0,645" fill="none" stroke="black" />
</g>
</g>
</svg>
