<?xml version="1.0" encoding="UTF-8"?>
<svg xmlns="http://www.w3.org/2000/svg" xmlns:xlink="http://www.w3.org/1999/xlink"
     width="1180.8" height="891.95" viewBox="-365.4 -147.5 1180.8 891.95" stroke="black" fill="none">
<defs>
<path d="M465.0,-0.0 L339.1479006990711,-7.720987687173553 L323.0432102050694,91.47900699071141 L319.18543263426216,-8.94567897949312 L261.25,-12.5 L240.0,265 L240.0,600.0 L465.0,600.0 L465.0,0" fill="none" stroke="black" id="d0" />
<path d="M0.0,-0.0 L0,600.0 L240.0,600.0 L240.0,265 L223.75,-12.5 L159.15109809326995,-8.891122798506702 L156.13903498133365,116.4720594992067 L139.18223524006356,-7.775543868159976 L84.56776475993651,-4.724456131840029 L82.39238584576032,135.61537330577818 L64.5989019067301,-3.6088772014933017 L0,0" fill="none" stroke="black" id="d1" />
<path d="M465.0,-0.0 L590.8520993009289,-7.720987687173553 L606.9567897949306,91.47900699071141 L610.8145673657378,-8.94567897949312 L668.75,-12.5 L690.0,265 L690.0,600.0 L465.0,600.0 L465.0,0" fill="none" stroke="black" id="d2" />
<path d="M0.0,-0.0 L0.0,600.0 L-240.0,600.0 L-240.0,265 L-223.75,-12.5 L-159.15109809326995,-8.891122798506702 L-156.13903498133365,116.4720594992067 L-139.18223524006356,-7.775543868159976 L-84.56776475993651,-4.724456131840029 L-82.39238584576032,135.61537330577818 L-64.5989019067301,-3.6088772014933017 L0.0,0" fill="none" stroke="black" id="d3" />
<path d="M-223.75,-12.5 L-159.15109809326995,-8.891122798506702 L-139.18223524006356,-7.775543868159976 L-84.56776475993651,-4.724456131840029 L-64.5989019067301,-3.6088772014933017 L0.0,0 L64.5989019067301,-3.6088772014933017 L84.56776475993651,-4.724456131840029 L139.18223524006356,-7.775543868159976 L159.15109809326995,-8.891122798506702 L223.75,-12.5 L261.25,-12.5 L319.18543263426216,-8.94567897949312 L339.1479006990711,-7.720987687173553 L465.0,-0.0 L590.8520993009289,-7.720987687173553 L610.8145673657378,-8.94567897949312 L668.75,-12.5 L666.6067902384408,-47.43431911341564 L608.671357604177,-43.879998092908615 L588.7088895393673,-42.65530680058907 L465.0,-35.065804374861 L341.2911104606303,-42.65530680058912 L321.3286423958215,-43.879998092908764 L262.32261131023364,-47.5 L222.77310799520293,-47.50000000000002 L157.1988349651631,-43.83663279161789 L137.22997211195678,-42.72105386127118 L82.61550163182974,-39.66996612495125 L62.646638778623355,-38.5543871946045 L2.146473651767051e-15,-35.05457497233504 L-62.646638778623355,-38.55438719460452 L-82.61550163182976,-39.66996612495122 L-137.22997211195676,-42.721053861271166 L-157.19883496516312,-43.8366327916179 L-221.79773687189322,-47.4455099931112 L-223.75,-12.5" fill="none" stroke="black" id="d4" />
<path d="M-240.0,600.0 L0.0,600.0 L240.0,600.0 L465.0,600.0 L690.0,600.0 L690.0,644.45 L465.0,644.45 L240.0,644.45 L-2.721777511104996e-15,644.45 L-240.0,644.45 L-240.0,600.0" fill="none" stroke="black" id="d5" />
<path d="M-240.0,600.0 L-240.0,265 L-223.75,-12.5 L-249.1065620523747,-13.984843723787707 L-265.4,264.25694276642434 L-265.4,600.0 L-240.0,600.0" fill="none" stroke="black" id="d6" />
<path d="M668.75,-12.5 L690.0,265 L690.0,600.0 L715.4,600.0 L715.3999999999992,264.0288990237891 L694.0758534904924,-14.439367159181852 L668.75,-12.5" fill="none" stroke="black" id="d7" />
</defs>
<path d="M-365.4,744.45 L815.4,744.45" stroke="#dddddd" />
<path d="M-365.4,534.45 L815.4,534.45" stroke="#dddddd" />
<path d="M-365.4,324.45000000000005 L815.4,324.45000000000005" stroke="#dddddd" />
<path d="M-365.4,114.45000000000005 L815.4,114.45000000000005" stroke="#dddddd" />
<path d="M-365.4,-95.54999999999995 L815.4,-95.54999999999995" stroke="#dddddd" />
<path d="M-365.4,744.45 L-365.4,-147.50000000000003" stroke="#dddddd" />
<path d="M-68.39999999999998,744.45 L-68.39999999999998,-147.50000000000003" stroke="#dddddd" />
<path d="M228.60000000000002,744.45 L228.60000000000002,-147.50000000000003" stroke="#dddddd" />
<path d="M525.6,744.45 L525.6,-147.50000000000003" stroke="#dddddd" />
<text x="-216.89999999999998" y="639.45" font-size="10" stroke="none" fill="#dddddd" dy="0em">A0</text>
<text x="-216.89999999999998" y="429.45000000000005" font-size="10" stroke="none" fill="#dddddd" dy="0em">A1</text>
<text x="-216.89999999999998" y="219.45000000000005" font-size="10" stroke="none" fill="#dddddd" dy="0em">A2</text>
<text x="-216.89999999999998" y="9.450000000000045" font-size="10" stroke="none" fill="#dddddd" dy="0em">A3</text>
<text x="80.10000000000002" y="639.45" font-size="10" stroke="none" fill="#dddddd" dy="0em">B0</text>
<text x="80.10000000000002" y="429.45000000000005" font-size="10" stroke="none" fill="#dddddd" dy="0em">B1</text>
<text x="80.10000000000002" y="219.45000000000005" font-size="10" stroke="none" fill="#dddddd" dy="0em">B2</text>
<text x="80.10000000000002" y="9.450000000000045" font-size="10" stroke="none" fill="#dddddd" dy="0em">B3</text>
<text x="377.1" y="639.45" font-size="10" stroke="none" fill="#dddddd" dy="0em">C0</text>
<text x="377.1" y="429.45000000000005" font-size="10" stroke="none" fill="#dddddd" dy="0em">C1</text>
<text x="377.1" y="219.45000000000005" font-size="10" stroke="none" fill="#dddddd" dy="0em">C2</text>
<text x="377.1" y="9.450000000000045" font-size="10" stroke="none" fill="#dddddd" dy="0em">C3</text>
<text x="674.1" y="639.45" font-size="10" stroke="none" fill="#dddddd" dy="0em">D0</text>
<text x="674.1" y="429.45000000000005" font-size="10" stroke="none" fill="#dddddd" dy="0em">D1</text>
<text x="674.1" y="219.45000000000005" font-size="10" stroke="none" fill="#dddddd" dy="0em">D2</text>
<text x="674.1" y="9.450000000000045" font-size="10" stroke="none" fill="#dddddd" dy="0em">D3</text>
<path d="M-365.4,744.45 L815.4,744.45" stroke="#ffcccc66" stroke-dasharray="5" />
<text x="-364.4" y="742.45" font-size="8" stroke="none" fill="#ffcccc66" dy="0em">-100mm</text>
<path d="M-365.4,694.45 L815.4,694.45" stroke="#ffcccc66" stroke-dasharray="5" />
<text x="-364.4" y="692.45" font-size="8" stroke="none" fill="#ffcccc66" dy="0em">-50mm</text>
<path d="M-365.4,644.45 L815.4,644.45" stroke="#ffcccc66" stroke-dasharray="5" />
<text x="-364.4" y="642.45" font-size="8" stroke="none" fill="#ffcccc66" dy="0em">0mm</text>
<path d="M-365.4,594.45 L815.4,594.45" stroke="#ffcccc66" stroke-dasharray="5" />
<text x="-364.4" y="592.45" font-size="8" stroke="none" fill="#ffcccc66" dy="0em">50mm</text>
<path d="M-365.4,544.45 L815.4,544.45" stroke="#ffcccc66" stroke-dasharray="5" />
<text x="-364.4" y="542.45" font-size="8" stroke="none" fill="#ffcccc66" dy="0em">100mm</text>
<path d="M-365.4,494.45000000000005 L815.4,494.45000000000005" stroke="#ffcccc66" stroke-dasharray="5" />
<text x="-364.4" y="492.45000000000005" font-size="8" stroke="none" fill="#ffcccc66" dy="0em">150mm</text>
<path d="M-365.4,444.45000000000005 L815.4,444.45000000000005" stroke="#ffcccc66" stroke-dasharray="5" />
<text x="-364.4" y="442.45000000000005" font-size="8" stroke="none" fill="#ffcccc66" dy="0em">200mm</text>
<path d="M-365.4,394.45000000000005 L815.4,394.45000000000005" stroke="#ffcccc66" stroke-dasharray="5" />
<text x="-364.4" y="392.45000000000005" font-size="8" stroke="none" fill="#ffcccc66" dy="0em">250mm</text>
<path d="M-365.4,344.45000000000005 L815.4,344.45000000000005" stroke="#ffcccc66" stroke-dasharray="5" />
<text x="-364.4" y="342.45000000000005" font-size="8" stroke="none" fill="#ffcccc66" dy="0em">300mm</text>
<path d="M-365.4,294.45000000000005 L815.4,294.45000000000005" stroke="#ffcccc66" stroke-dasharray="5" />
<text x="-364.4" y="292.45000000000005" font-size="8" stroke="none" fill="#ffcccc66" dy="0em">350mm</text>
<path d="M-365.4,244.45000000000005 L815.4,244.45000000000005" stroke="#ffcccc66" stroke-dasharray="5" />
<text x="-364.4" y="242.45000000000005" font-size="8" stroke="none" fill="#ffcccc66" dy="0em">400mm</text>
<path d="M-365.4,194.45000000000005 L815.4,194.45000000000005" stroke="#ffcccc66" stroke-dasharray="5" />
<text x="-364.4" y="192.45000000000005" font-size="8" stroke="none" fill="#ffcccc66" dy="0em">450mm</text>
<path d="M-365.4,144.45000000000005 L815.4,144.45000000000005" stroke="#ffcccc66" stroke-dasharray="5" />
<text x="-364.4" y="142.45000000000005" font-size="8" stroke="none" fill="#ffcccc66" dy="0em">500mm</text>
<path d="M-365.4,94.45000000000005 L815.4,94.45000000000005" stroke="#ffcccc66" stroke-dasharray="5" />
<text x="-364.4" y="92.45000000000005" font-size="8" stroke="none" fill="#ffcccc66" dy="0em">550mm</text>
<path d="M-365.4,44.450000000000045 L815.4,44.450000000000045" stroke="#ffcccc66" stroke-dasharray="5" />
<text x="-364.4" y="42.450000000000045" font-size="8" stroke="none" fill="#ffcccc66" dy="0em">600mm</text>
<path d="M-365.4,-5.5499999999999545 L815.4,-5.5499999999999545" stroke="#ffcccc66" stroke-dasharray="5" />
<text x="-364.4" y="-7.5499999999999545" font-size="8" stroke="none" fill="#ffcccc66" dy="0em">650mm</text>
<path d="M-365.4,-55.549999999999955 L815.4,-55.549999999999955" stroke="#ffcccc66" stroke-dasharray="5" />
<text x="-364.4" y="-57.549999999999955" font-size="8" stroke="none" fill="#ffcccc66" dy="0em">700mm</text>
<path d="M-365.4,-105.54999999999995 L815.4,-105.54999999999995" stroke="#ffcccc66" stroke-dasharray="5" />
<text x="-364.4" y="-107.54999999999995" font-size="8" stroke="none" fill="#ffcccc66" dy="0em">750mm</text>
<path d="M-365.4,744.45 L-365.4,-147.50000000000003" stroke="#ffcccc66" stroke-dasharray="5" />
<text x="-363.4" y="743.45" font-size="8" stroke="none" fill="#ffcccc66" dy="0em">-100mm</text>
<path d="M-315.4,744.45 L-315.4,-147.50000000000003" stroke="#ffcccc66" stroke-dasharray="5" />
<text x="-313.4" y="743.45" font-size="8" stroke="none" fill="#ffcccc66" dy="0em">-50mm</text>
<path d="M-265.4,744.45 L-265.4,-147.50000000000003" stroke="#ffcccc66" stroke-dasharray="5" />
<text x="-263.4" y="743.45" font-size="8" stroke="none" fill="#ffcccc66" dy="0em">0mm</text>
<path d="M-215.39999999999998,744.45 L-215.39999999999998,-147.50000000000003" stroke="#ffcccc66" stroke-dasharray="5" />
<text x="-213.39999999999998" y="743.45" font-size="8" stroke="none" fill="#ffcccc66" dy="0em">50mm</text>
<path d="M-165.39999999999998,744.45 L-165.39999999999998,-147.50000000000003" stroke="#ffcccc66" stroke-dasharray="5" />
<text x="-163.39999999999998" y="743.45" font-size="8" stroke="none" fill="#ffcccc66" dy="0em">100mm</text>
<path d="M-115.39999999999998,744.45 L-115.39999999999998,-147.50000000000003" stroke="#ffcccc66" stroke-dasharray="5" />
<text x="-113.39999999999998" y="743.45" font-size="8" stroke="none" fill="#ffcccc66" dy="0em">150mm</text>
<path d="M-65.39999999999998,744.45 L-65.39999999999998,-147.50000000000003" stroke="#ffcccc66" stroke-dasharray="5" />
<text x="-63.39999999999998" y="743.45" font-size="8" stroke="none" fill="#ffcccc66" dy="0em">200mm</text>
<path d="M-15.399999999999977,744.45 L-15.399999999999977,-147.50000000000003" stroke="#ffcccc66" stroke-dasharray="5" />
<text x="-13.399999999999977" y="743.45" font-size="8" stroke="none" fill="#ffcccc66" dy="0em">250mm</text>
<path d="M34.60000000000002,744.45 L34.60000000000002,-147.50000000000003" stroke="#ffcccc66" stroke-dasharray="5" />
<text x="36.60000000000002" y="743.45" font-size="8" stroke="none" fill="#ffcccc66" dy="0em">300mm</text>
<path d="M84.60000000000002,744.45 L84.60000000000002,-147.50000000000003" stroke="#ffcccc66" stroke-dasharray="5" />
<text x="86.60000000000002" y="743.45" font-size="8" stroke="none" fill="#ffcccc66" dy="0em">350mm</text>
<path d="M134.60000000000002,744.45 L134.60000000000002,-147.50000000000003" stroke="#ffcccc66" stroke-dasharray="5" />
<text x="136.60000000000002" y="743.45" font-size="8" stroke="none" fill="#ffcccc66" dy="0em">400mm</text>
<path d="M184.60000000000002,744.45 L184.60000000000002,-147.50000000000003" stroke="#ffcccc66" stroke-dasharray="5" />
<text x="186.60000000000002" y="743.45" font-size="8" stroke="none" fill="#ffcccc66" dy="0em">450mm</text>
<path d="M234.60000000000002,744.45 L234.60000000000002,-147.50000000000003" stroke="#ffcccc66" stroke-dasharray="5" />
<text x="236.60000000000002" y="743.45" font-size="8" stroke="none" fill="#ffcccc66" dy="0em">500mm</text>
<path d="M284.6,744.45 L284.6,-147.50000000000003" stroke="#ffcccc66" stroke-dasharray="5" />
<text x="286.6" y="743.45" font-size="8" stroke="none" fill="#ffcccc66" dy="0em">550mm</text>
<path d="M334.6,744.45 L334.6,-147.50000000000003" stroke="#ffcccc66" stroke-dasharray="5" />
<text x="336.6" y="743.45" font-size="8" stroke="none" fill="#ffcccc66" dy="0em">600mm</text>
<path d="M384.6,744.45 L384.6,-147.50000000000003" stroke="#ffcccc66" stroke-dasharray="5" />
<text x="386.6" y="743.45" font-size="8" stroke="none" fill="#ffcccc66" dy="0em">650mm</text>
<path d="M434.6,744.45 L434.6,-147.50000000000003" stroke="#ffcccc66" stroke-dasharray="5" />
<text x="436.6" y="743.45" font-size="8" stroke="none" fill="#ffcccc66" dy="0em">700mm</text>
<path d="M484.6,744.45 L484.6,-147.50000000000003" stroke="#ffcccc66" stroke-dasharray="5" />
<text x="486.6" y="743.45" font-size="8" stroke="none" fill="#ffcccc66" dy="0em">750mm</text>
<path d="M534.6,744.45 L534.6,-147.50000000000003" stroke="#ffcccc66" stroke-dasharray="5" />
<text x="536.6" y="743.45" font-size="8" stroke="none" fill="#ffcccc66" dy="0em">800mm</text>
<path d="M584.6,744.45 L584.6,-147.50000000000003" stroke="#ffcccc66" stroke-dasharray="5" />
<text x="586.6" y="743.45" font-size="8" stroke="none" fill="#ffcccc66" dy="0em">850mm</text>
<path d="M634.6,744.45 L634.6,-147.50000000000003" stroke="#ffcccc66" stroke-dasharray="5" />
<text x="636.6" y="743.45" font-size="8" stroke="none" fill="#ffcccc66" dy="0em">900mm</text>
<path d="M684.6,744.45 L684.6,-147.50000000000003" stroke="#ffcccc66" stroke-dasharray="5" />
<text x="686.6" y="743.45" font-size="8" stroke="none" fill="#ffcccc66" dy="0em">950mm</text>
<path d="M734.6,744.45 L734.6,-147.50000000000003" stroke="#ffcccc66" stroke-dasharray="5" />
<text x="736.6" y="743.45" font-size="8" stroke="none" fill="#ffcccc66" dy="0em">1000mm</text>
<path d="M784.6,744.45 L784.6,-147.50000000000003" stroke="#ffcccc66" stroke-dasharray="5" />
<text x="786.6" y="743.45" font-size="8" stroke="none" fill="#ffcccc66" dy="0em">1050mm</text>
<g>
<g>
<path d="M465.0,-0.0 L339.1479006990711,-7.720987687173553 L323.0432102050694,91.47900699071141 L319.18543263426216,-8.94567897949312 L261.25,-12.5 L240.0,265 L240.0,600.0 L465.0,600.0 L465.0,0" fill="#E6E6FA66" stroke="black" />
<text font-size="12" stroke="none" fill="#000000"><textPath xlink:href="#d0" startOffset="10">
<tspan dy="-1em">front</tspan>
</textPath></text>
</g>
<g>
<path d="M0.0,-0.0 L0,600.0 L240.0,600.0 L240.0,265 L223.75,-12.5 L159.15109809326995,-8.891122798506702 L156.13903498133365,116.4720594992067 L139.18223524006356,-7.775543868159976 L84.56776475993651,-4.724456131840029 L82.39238584576032,135.61537330577818 L64.5989019067301,-3.6088772014933017 L0,0" fill="#E6E6FA66" stroke="black" />
<text font-size="12" stroke="none" fill="#000000"><textPath xlink:href="#d1" startOffset="10">
<tspan dy="-1em">back</tspan>
</textPath></text>
</g>
<g>
<path d="M465.0,-0.0 L590.8520993009289,-7.720987687173553 L606.9567897949306,91.47900699071141 L610.8145673657378,-8.94567897949312 L668.75,-12.5 L690.0,265 L690.0,600.0 L465.0,600.0 L465.0,0" fill="#E6E6FA66" stroke="black" />
<text font-size="12" stroke="none" fill="#000000"><textPath xlink:href="#d2" startOffset="10">
<tspan dy="-1em">front</tspan>
</textPath></text>
</g>
<g>
<path d="M0.0,-0.0 L0.0,600.0 L-240.0,600.0 L-240.0,265 L-223.75,-12.5 L-159.15109809326995,-8.891122798506702 L-156.13903498133365,116.4720594992067 L-139.18223524006356,-7.775543868159976 L-84.56776475993651,-4.724456131840029 L-82.39238584576032,135.61537330577818 L-64.5989019067301,-3.6088772014933017 L0.0,0" fill="#E6E6FA66" stroke="black" />
<text font-size="12" stroke="none" fill="#000000"><textPath xlink:href="#d3" startOffset="10">
<tspan dy="-1em">back</tspan>
</textPath></text>
</g>
<g>
<g>
<path d="M-223.75,-12.5 L-159.15109809326995,-8.891122798506702 L-139.18223524006356,-7.775543868159976 L-84.56776475993651,-4.724456131840029 L-64.5989019067301,-3.6088772014933017 L0.0,0 L64.5989019067301,-3.6088772014933017 L84.56776475993651,-4.724456131840029 L139.18223524006356,-7.775543868159976 L159.15109809326995,-8.891122798506702 L223.75,-12.5 L261.25,-12.5 L319.18543263426216,-8.94567897949312 L339.1479006990711,-7.720987687173553 L465.0,-0.0 L590.8520993009289,-7.720987687173553 L610.8145673657378,-8.94567897949312 L668.75,-12.5 L666.6067902384408,-47.43431911341564 L608.671357604177,-43.879998092908615 L588.7088895393673,-42.65530680058907 L465.0,-35.065804374861 L341.2911104606303,-42.65530680058912 L321.3286423958215,-43.879998092908764 L262.32261131023364,-47.5 L222.77310799520293,-47.50000000000002 L157.1988349651631,-43.83663279161789 L137.22997211195678,-42.72105386127118 L82.61550163182974,-39.66996612495125 L62.646638778623355,-38.5543871946045 L2.146473651767051e-15,-35.05457497233504 L-62.646638778623355,-38.55438719460452 L-82.61550163182976,-39.66996612495122 L-137.22997211195676,-42.721053861271166 L-157.19883496516312,-43.8366327916179 L-221.79773687189322,-47.4455099931112 L-223.75,-12.5" fill="#E6E6FA66" stroke="black" />
<text font-size="12" stroke="none" fill="#000000"><textPath xlink:href="#d4" startOffset="10">
<tspan dy="-1em">35.0mm allowance</tspan>
</textPath></text>
</g>
<g>
<path d="M-222.63442106965329,-32.4688628532064 L-158.03551916292312,-28.85998565171311 L-138.0666563097168,-27.74440672136638 L-83.45218582958978,-24.693318985046428 L-63.483322976383384,-23.57774005469971 L1.226556372438315e-15,-20.031185698477167 L63.48332297638339,-23.577740054699706 L83.4521858295898,-24.693318985046435 L138.0666563097168,-27.744406721366374 L158.03551916292312,-28.859985651713107 L223.19177599725887,-32.50000000000002 L261.86292074870505,-32.5 L320.4101239265819,-28.90814704430207 L340.3725919913908,-27.683455751982496 L465.0,-20.037602499920567 L589.6274080086077,-27.683455751982375 L609.5898760734174,-28.90814704430204 L667.5253087076804,-32.46246806480894" fill="none" stroke="black" stroke-dasharray="3" />
</g>
</g>
<g>
<g>
<path d="M-240.0,600.0 L0.0,600.0 L240.0,600.0 L465.0,600.0 L690.0,600.0 L690.0,644.45 L465.0,644.45 L240.0,644.45 L-2.721777511104996e-15,644.45 L-240.0,644.45 L-240.0,600.0" fill="#E6E6FA66" stroke="black" />
<text font-size="12" stroke="none" fill="#000000"><textPath xlink:href="#d5" startOffset="10">
<tspan dy="-1em">44.4mm allowance</tspan>
</textPath></text>
</g>
<g>
<path d="M-240.0,625.4 L-1.5553014349171406e-15,625.4 L240.0,625.4 L465.0,625.4 L690.0,625.4" fill="none" stroke="black" stroke-dasharray="3" />
</g>
</g>
<g>
<g>
<g>
<path d="M-240.0,600.0 L-240.0,265 L-223.75,-12.5 L-249.1065620523747,-13.984843723787707 L-265.4,264.25694276642434 L-265.4,600.0 L-240.0,600.0" fill="#E6E6FA66" stroke="black" />
<text font-size="12" stroke="none" fill="#000000"><textPath xlink:href="#d6" startOffset="10">
<tspan dy="-1em">25.4mm allowance</tspan>
</textPath></text>
</g>
<g>
<path d="M-255.24,600.0 L-255.23999999999995,264.55416565985297 L-238.9639372314248,-13.390906234272624" fill="none" stroke="black" stroke-dasharray="3" />
</g>
</g>
<g>
<g>
<path d="M668.75,-12.5 L690.0,265 L690.0,600.0 L715.4,600.0 L715.3999999999992,264.0288990237891 L694.0758534904924,-14.439367159181852 L668.75,-12.5" fill="#E6E6FA66" stroke="black" />
<text font-size="12" stroke="none" fill="#000000"><textPath xlink:href="#d7" startOffset="10">
<tspan dy="-1em">25.4mm allowance</tspan>
</textPath></text>
</g>
<g>
<path d="M683.9455120942954,-13.66362029550911 L705.2399999999991,264.4173394142692 L705.24,600.0" fill="none" stroke="black" stroke-dasharray="3" />
</g>
</g>
</g>
<g>
<circle cx="0" cy="0" r="1" fill="black" />
<text x="2" y="-2" font-size="12" fill="#000000" stroke="none" dy="0em">14</text>
</g>
<g>
<circle cx="0" cy="0" r="1" fill="black" />
<text x="2" y="-2" font-size="12" fill="#000000" stroke="none" dy="0em">1</text>
</g>
<g>
<circle cx="465.0" cy="0" r="1" fill="black" />
<text x="467.0" y="-2" font-size="12" fill="#000000" stroke="none" dy="0em">2</text>
</g>
<g>
<circle cx="0" cy="600.0" r="1" fill="black" />
<text x="2" y="598.0" font-size="12" fill="#000000" stroke="none" dy="0em">3</text>
</g>
<g>
<circle cx="465.0" cy="600.0" r="1" fill="black" />
<text x="467.0" y="598.0" font-size="12" fill="#000000" stroke="none" dy="0em">4</text>
</g>
<g>
<circle cx="0" cy="265" r="1" fill="black" />
<text x="2" y="263" font-size="12" fill="#000000" stroke="none" dy="0em">5</text>
</g>
<g>
<circle cx="465.0" cy="265" r="1" fill="black" />
<text x="467.0" y="263" font-size="12" fill="#000000" stroke="none" dy="0em">6</text>
</g>
<g>
<circle cx="240.0" cy="265" r="1" fill="black" />
<text x="242.0" y="263" font-size="12" fill="#000000" stroke="none" dy="0em">7</text>
</g>
<g>
<circle cx="240.0" cy="600.0" r="1" fill="black" />
<text x="242.0" y="598.0" font-size="12" fill="#000000" stroke="none" dy="0em">8</text>
</g>
<g>
<circle cx="223.75" cy="0" r="1" fill="black" />
<text x="225.75" y="-2" font-size="12" fill="#000000" stroke="none" dy="0em">9</text>
</g>
<g>
<circle cx="223.75" cy="-12.5" r="1" fill="black" />
<text x="225.75" y="-14.5" font-size="12" fill="#000000" stroke="none" dy="0em">10</text>
</g>
<g>
<circle cx="74.58333333333333" cy="-4.166666666666666" r="1" fill="black" />
<text x="76.58333333333333" y="-6.166666666666666" font-size="12" fill="#000000" stroke="none" dy="0em">11</text>
</g>
<g>
<circle cx="149.16666666666666" cy="-8.333333333333332" r="1" fill="black" />
<text x="151.16666666666666" y="-10.333333333333332" font-size="12" fill="#000000" stroke="none" dy="0em">12</text>
</g>
<g>
<circle cx="0" cy="0" r="1" fill="black" />
<text x="2" y="-2" font-size="12" fill="#000000" stroke="none" dy="0em">14</text>
</g>
<g>
<circle cx="0" cy="0" r="1" fill="black" />
<text x="2" y="-2" font-size="12" fill="#000000" stroke="none" dy="0em">14</text>
</g>
<g>
<circle cx="261.25" cy="0" r="1" fill="black" />
<text x="263.25" y="-2" font-size="12" fill="#000000" stroke="none" dy="0em">15</text>
</g>
<g>
<circle cx="261.25" cy="-12.5" r="1" fill="black" />
<text x="263.25" y="-14.5" font-size="12" fill="#000000" stroke="none" dy="0em">16</text>
</g>
<g>
<circle cx="329.16666666666663" cy="-8.333333333333334" r="1" fill="black" />
<text x="331.16666666666663" y="-10.333333333333334" font-size="12" fill="#000000" stroke="none" dy="0em">17</text>
</g>
<text x="198.76418016483757" y="179.14209736503992" font-size="12" fill="#000000" stroke="none"><tspan x="198.76418016483757" dy="0em">Tailored Skirt Block</tspan><tspan x="198.76418016483757" dy="1em">waist=725</tspan><tspan x="198.76418016483757" dy="1em">hips=900</tspan><tspan x="198.76418016483757" dy="1em">waist_to_hip=265</tspan><tspan x="198.76418016483757" dy="1em">skirt_length=600.0</tspan></text>
</g>
</svg>