<?xml version="1.0" encoding="UTF-8"?>
<svg xmlns="http://www.w3.org/2000/svg" xmlns:xlink="http://www.w3.org/1999/xlink"
     width="509.87999999999994" height="1203.3" viewBox="-100 -1103.3 509.87999999999994 1203.3" stroke="black" fill="none">
<defs>
</defs>
<path d="M-100,100.0 L409.87999999999994,100.0" stroke="#dddddd" />
<path d="M-100,50.0 L409.87999999999994,50.0" stroke="#dddddd" stroke-dasharray="5" />
<path d="M-100,-0.0 L409.87999999999994,-0.0" stroke="#dddddd" stroke-dasharray="5" />
<path d="M-100,-50.0 L409.87999999999994,-50.0" stroke="#dddddd" stroke-dasharray="5" />
<path d="M-100,-100.0 L409.87999999999994,-100.0" stroke="#dddddd" stroke-dasharray="5" />
<path d="M-100,-150.0 L409.87999999999994,-150.0" stroke="#dddddd" />
<path d="M-100,-200.0 L409.87999999999994,-200.0" stroke="#dddddd" stroke-dasharray="5" />
<path d="M-100,-250.0 L409.87999999999994,-250.0" stroke="#dddddd" stroke-dasharray="5" />
<path d="M-100,-300.0 L409.87999999999994,-300.0" stroke="#dddddd" stroke-dasharray="5" />
<path d="M-100,-350.0 L409.87999999999994,-350.0" stroke="#dddddd" stroke-dasharray="5" />
<path d="M-100,-400.0 L409.87999999999994,-400.0" stroke="#dddddd" />
<path d="M-100,-450.0 L409.87999999999994,-450.0" stroke="#dddddd" stroke-dasharray="5" />
<path d="M-100,-500.0 L409.87999999999994,-500.0" stroke="#dddddd" stroke-dasharray="5" />
<path d="M-100,-550.0 L409.87999999999994,-550.0" stroke="#dddddd" stroke-dasharray="5" />
<path d="M-100,-600.0 L409.87999999999994,-600.0" stroke="#dddddd" stroke-dasharray="5" />
<path d="M-100,-650.0 L409.87999999999994,-650.0" stroke="#dddddd" />
<path d="M-100,-700.0 L409.87999999999994,-700.0" stroke="#dddddd" stroke-dasharray="5" />
<path d="M-100,-750.0 L409.87999999999994,-750.0" stroke="#dddddd" stroke-dasharray="5" />
<path d="M-100,-800.0 L409.87999999999994,-800.0" stroke="#dddddd" stroke-dasharray="5" />
<path d="M-100,-850.0 L409.87999999999994,-850.0" stroke="#dddddd" stroke-dasharray="5" />
<path d="M-100,-900.0 L409.87999999999994,-900.0" stroke="#dddddd" />
<path d="M-100,-950.0 L409.87999999999994,-950.0" stroke="#dddddd" stroke-dasharray="5" />
<path d="M-100,-1000.0 L409.87999999999994,-1000.0" stroke="#dddddd" stroke-dasharray="5" />
<path d="M-100,-1050.0 L409.87999999999994,-1050.0" stroke="#dddddd" stroke-dasharray="5" />
<path d="M-100,-1100.0 L409.87999999999994,-1100.0" stroke="#dddddd" stroke-dasharray="5" />
<path d="M-100.0,100 L-100.0,-1103.3" stroke="#dddddd" />
<path d="M-50.0,100 L-50.0,-1103.3" stroke="#dddddd" stroke-dasharray="5" />
<path d="M0.0,100 L0.0,-1103.3" stroke="#dddddd" stroke-dasharray="5" />
<path d="M50.0,100 L50.0,-1103.3" stroke="#dddddd" stroke-dasharray="5" />
<path d="M100.0,100 L100.0,-1103.3" stroke="#dddddd" stroke-dasharray="5" />
<path d="M150.0,100 L150.0,-1103.3" stroke="#dddddd" />
<path d="M200.0,100 L200.0,-1103.3" stroke="#dddddd" stroke-dasharray="5" />
<path d="M250.0,100 L250.0,-1103.3" stroke="#dddddd" stroke-dasharray="5" />
<path d="M300.0,100 L300.0,-1103.3" stroke="#dddddd" stroke-dasharray="5" />
<path d="M350.0,100 L350.0,-1103.3" stroke="#dddddd" stroke-dasharray="5" />
<path d="M400.0,100 L400.0,-1103.3" stroke="#dddddd" />
<g>
<path d="M264.15999999999997,-1003.3 L264.15999999999997,-977.9 L261.62,-952.5 L261.62,-927.1 L259.08,-901.7 L256.53999999999996,-876.3000000000001 L248.92000000000002,-850.9000000000001 L241.29999999999998,-825.5000000000001 L231.14,-800.1000000000001 L220.97999999999996,-774.7000000000002 L210.82,-749.3000000000002 L208.27999999999997,-723.9000000000002 L210.82,-698.5000000000002 L215.89999999999998,-673.1000000000003 L220.97999999999996,-647.7000000000003 L233.67999999999998,-622.3000000000003 L246.37999999999997,-596.9000000000003 L259.08,-571.5000000000003 L271.78,-546.1000000000004 L281.94,-520.7000000000004 L292.09999999999997,-495.3000000000004 L297.17999999999995,-469.90000000000043 L297.17999999999995,-444.50000000000045 L299.72,-419.1000000000005 L299.72,-393.7000000000005 L299.72,-368.3000000000005 L302.26,-342.90000000000055 L304.79999999999995,-317.50000000000057 L304.79999999999995,-292.1000000000006 L304.79999999999995,-266.7000000000006 L304.79999999999995,-241.3000000000006 L304.79999999999995,-215.9000000000006 L304.79999999999995,-190.5000000000006 L304.79999999999995,-165.1000000000006 L307.34,-139.70000000000059 L307.34,-114.30000000000058 L309.87999999999994,-88.90000000000057 L309.87999999999994,-63.500000000000576 L309.87999999999994,-38.10000000000058 L309.87999999999994,-12.700000000000578 L309.87999999999994,0 L0,0 L0,-1003.3 L264.15999999999997,-1003.3" fill="#E6E6FA66" stroke="black" />
<text x="139.70159211934052" y="-494.4032361434292" font-size="12" stroke="none" fill="black" text-anchor="middle" dy="0em">Die Lemma Dress Block</text>
</g>
</svg>
