<?xml version="1.0" encoding="UTF-8"?>
<svg xmlns="http://www.w3.org/2000/svg" xmlns:xlink="http://www.w3.org/1999/xlink"
     width="1400" height="845" viewBox="-100 -100 1400 845" stroke="black" fill="none">
<defs>
<path d="M0,0 L725,0" fill="none" stroke="black" id="d0" />
<path d="M0,265 L900,265" fill="none" stroke="black" id="d1" />
<path d="M0,645 L1200,645" fill="none" stroke="black" id="d2" />
</defs>
<path d="M-100,745 L1300,745" stroke="#dddddd" />
<path d="M-100,535 L1300,535" stroke="#dddddd" />
<path d="M-100,325 L1300,325" stroke="#dddddd" />
<path d="M-100,115 L1300,115" stroke="#dddddd" />
<path d="M-100,-95 L1300,-95" stroke="#dddddd" />
<path d="M-100,745 L-100,-100" stroke="#dddddd" />
<path d="M197,745 L197,-100" stroke="#dddddd" />
<path d="M494,745 L494,-100" stroke="#dddddd" />
<path d="M791,745 L791,-100" stroke="#dddddd" />
<path d="M1088,745 L1088,-100" stroke="#dddddd" />
<text x="48.5" y="640.0" font-size="10" stroke="none" fill="#dddddd" dy="0em">A0</text>
<text x="48.5" y="430.0" font-size="10" stroke="none" fill="#dddddd" dy="0em">A1</text>
<text x="48.5" y="220.0" font-size="10" stroke="none" fill="#dddddd" dy="0em">A2</text>
<text x="48.5" y="10.0" font-size="10" stroke="none" fill="#dddddd" dy="0em">A3</text>
<text x="345.5" y="640.0" font-size="10" stroke="none" fill="#dddddd" dy="0em">B0</text>
<text x="345.5" y="430.0" font-size="10" stroke="none" fill="#dddddd" dy="0em">B1</text>
<text x="345.5" y="220.0" font-size="10" stroke="none" fill="#dddddd" dy="0em">B2</text>
<text x="345.5" y="10.0" font-size="10" stroke="none" fill="#dddddd" dy="0em">B3</text>
<text x="642.5" y="640.0" font-size="10" stroke="none" fill="#dddddd" dy="0em">C0</text>
<text x="642.5" y="430.0" font-size="10" stroke="none" fill="#dddddd" dy="0em">C1</text>
<text x="642.5" y="220.0" font-size="10" stroke="none" fill="#dddddd" dy="0em">C2</text>
<text x="642.5" y="10.0" font-size="10" stroke="none" fill="#dddddd" dy="0em">C3</text>
<text x="939.5" y="640.0" font-size="10" stroke="none" fill="#dddddd" dy="0em">D0</text>
<text x="939.5" y="430.0" font-size="10" stroke="none" fill="#dddddd" dy="0em">D1</text>
<text x="939.5" y="220.0" font-size="10" stroke="none" fill="#dddddd" dy="0em">D2</text>
<text x="939.5" y="10.0" font-size="10" stroke="none" fill="#dddddd" dy="0em">D3</text>
<text x="1236.5" y="640.0" font-size="10" stroke="none" fill="#dddddd" dy="0em">E0</text>
<text x="1236.5" y="430.0" font-size="10" stroke="none" fill="#dddddd" dy="0em">E1</text>
<text x="1236.5" y="220.0" font-size="10" stroke="none" fill="#dddddd" dy="0em">E2</text>
<text x="1236.5" y="10.0" font-size="10" stroke="none" fill="#dddddd" dy="0em">E3</text>
<path d="M-100,745 L1300,745" stroke="#ffcccc66" stroke-dasharray="5" />
<path d="M-100,695 L1300,695" stroke="#ffcccc66" stroke-dasharray="5" />
<path d="M-100,645 L1300,645" stroke="#ffcccc66" stroke-dasharray="5" />
<path d="M-100,595 L1300,595" stroke="#ffcccc66" stroke-dasharray="5" />
<path d="M-100,545 L1300,545" stroke="#ffcccc66" stroke-dasharray="5" />
<path d="M-100,495 L1300,495" stroke="#ffcccc66" stroke-dasharray="5" />
<path d="M-100,445 L1300,445" stroke="#ffcccc66" stroke-dasharray="5" />
<path d="M-100,395 L1300,395" stroke="#ffcccc66" stroke-dasharray="5" />
<path d="M-100,345 L1300,345" stroke="#ffcccc66" stroke-dasharray="5" />
<path d="M-100,295 L1300,295" stroke="#ffcccc66" stroke-dasharray="5" />
<path d="M-100,245 L1300,245" stroke="#ffcccc66" stroke-dasharray="5" />
<path d="M-100,195 L1300,195" stroke="#ffcccc66" stroke-dasharray="5" />
<path d="M-100,145 L1300,145" stroke="#ffcccc66" stroke-dasharray="5" />
<path d="M-100,95 L1300,95" stroke="#ffcccc66" stroke-dasharray="5" />
<path d="M-100,45 L1300,45" stroke="#ffcccc66" stroke-dasharray="5" />
<path d="M-100,-5 L1300,-5" stroke="#ffcccc66" stroke-dasharray="5" />
<path d="M-100,-55 L1300,-55" stroke="#ffcccc66" stroke-dasharray="5" />
<path d="M-100,745 L-100,-100" stroke="#ffcccc66" stroke-dasharray="5" />
<path d="M-50,745 L-50,-100" stroke="#ffcccc66" stroke-dasharray="5" />
<path d="M0,745 L0,-100" stroke="#ffcccc66" stroke-dasharray="5" />
<path d="M50,745 L50,-100" stroke="#ffcccc66" stroke-dasharray="5" />
<path d="M100,745 L100,-100" stroke="#ffcccc66" stroke-dasharray="5" />
<path d="M150,745 L150,-100" stroke="#ffcccc66" stroke-dasharray="5" />
<path d="M200,745 L200,-100" stroke="#ffcccc66" stroke-dasharray="5" />
<path d="M250,745 L250,-100" stroke="#ffcccc66" stroke-dasharray="5" />
<path d="M300,745 L300,-100" stroke="#ffcccc66" stroke-dasharray="5" />
<path d="M350,745 L350,-100" stroke="#ffcccc66" stroke-dasharray="5" />
<path d="M400,745 L400,-100" stroke="#ffcccc66" stroke-dasharray="5" />
<path d="M450,745 L450,-100" stroke="#ffcccc66" stroke-dasharray="5" />
<path d="M500,745 L500,-100" stroke="#ffcccc66" stroke-dasharray="5" />
<path d="M550,745 L550,-100" stroke="#ffcccc66" stroke-dasharray="5" />
<path d="M600,745 L600,-100" stroke="#ffcccc66" stroke-dasharray="5" />
<path d="M650,745 L650,-100" stroke="#ffcccc66" stroke-dasharray="5" />
<path d="M700,745 L700,-100" stroke="#ffcccc66" stroke-dasharray="5" />
<path d="M750,745 L750,-100" stroke="#ffcccc66" stroke-dasharray="5" />
<path d="M800,745 L800,-100" stroke="#ffcccc66" stroke-dasharray="5" />
<path d="M850,745 L850,-100" stroke="#ffcccc66" stroke-dasharray="5" />
<path d="M900,745 L900,-100" stroke="#ffcccc66" stroke-dasharray="5" />
<path d="M950,745 L950,-100" stroke="#ffcccc66" stroke-dasharray="5" />
<path d="M1000,745 L1000,-100" stroke="#ffcccc66" stroke-dasharray="5" />
<path d="M1050,745 L1050,-100" stroke="#ffcccc66" stroke-dasharray="5" />
<path d="M1100,745 L1100,-100" stroke="#ffcccc66" stroke-dasharray="5" />
<path d="M1150,745 L1150,-100" stroke="#ffcccc66" stroke-dasharray="5" />
<path d="M1200,745 L1200,-100" stroke="#ffcccc66" stroke-dasharray="5" />
<path d="M1250,745 L1250,-100" stroke="#ffcccc66" stroke-dasharray="5" />
<g>
<path d="M725,0 L900,265 L1200,645 L0,645 L0,0 L725,0" fill="#E6E6FA66" stroke="black" />
</g>
<g>
<circle cx="0" cy="0" r="1" fill="black" />
</g>
<g>
<path d="M0,0 L725,0" fill="none" stroke="black" />
<path d="M0.0,5.0 L0.0,-5.0" stroke="black" />
<path d="M725.0,5.0 L725.0,-5.0" stroke="black" />
<text font-size="12" stroke="none" fill="black"><textPath xlink:href="#d0" startOffset="10">
<tspan dy="-1em">725.0mm</tspan>
</textPath></text>
</g>
<g>
<path d="M0,265 L900,265" fill="none" stroke="black" />
<path d="M0.0,270.0 L0.0,260.0" stroke="black" />
<path d="M900.0,270.0 L900.0,260.0" stroke="black" />
<text font-size="12" stroke="none" fill="black"><textPath xlink:href="#d1" startOffset="10">
<tspan dy="-1em">900.0mm</tspan>
</textPath></text>
</g>
<g>
<path d="M0,645 L1200,645" fill="none" stroke="black" />
<path d="M0.0,650.0 L0.0,640.0" stroke="black" />
<path d="M1200.0,650.0 L1200.0,640.0" stroke="black" />
<text font-size="12" stroke="none" fill="black"><textPath xlink:href="#d2" startOffset="10">
<tspan dy="-1em">1200.0mm</tspan>
</textPath></text>
</g>
</svg>