<?xml version="1.0" encoding="UTF-8"?>
<svg xmlns="http://www.w3.org/2000/svg" xmlns:xlink="http://www.w3.org/1999/xlink"
     width="733.2937136051233" height="617.8470379024586" viewBox="-255.79452172283325 -502.95478748113334 733.2937136051233 617.8470379024586" stroke="black" fill="none">
<defs>
</defs>
<g>
<path d="M0.0,-0.0 L-0.48450589455813936,-15.15435058094665 L-1.8303556016640818,-29.118036020479877 L-3.8760471564651136,-42.01042791627122 L-6.460078594108524,-53.95089786599222 L-9.4209479497416,-65.05881746731438 L-12.597153258511621,-75.4535583179092 L-15.827192555565881,-85.25449201544824 L-18.94956387605167,-94.58099015760301 L-21.802765255116274,-103.55242434204507 L-24.225294727906967,-112.28816616644588 L-26.05565032957105,-120.90758722847701 L-27.132330095255806,-129.53005912580997 L-27.293832060108517,-138.2749534561163 L-26.378654259276477,-147.26164181706747 L-24.225294727906967,-156.60949580633508 L-20.672251501147283,-166.4378870215906 L-15.558022614144697,-176.86618706050558 L-8.721106102046516,-188.01376752075151 L0.0,-200.0 L9.855969400642584,-212.2535836676686 L19.433246974268375,-223.36606042207853 L28.794157678367217,-233.35013531223038 L38.001026470428975,-242.21851338712472 L47.11617830794348,-249.98389969576203 L56.201938148400586,-256.65899928714276 L65.32063094929012,-262.25651721026765 L74.53458166810196,-266.78915851413717 L83.90611526232595,-270.2696282477518 L93.49755668945193,-272.7106314601121 L103.37123090696973,-274.12487320021864 L113.58946287236921,-274.52505851707195 L124.21457754314025,-273.9238924596726 L135.30889987677264,-272.33408007702104 L146.93475483075628,-269.7683264181179 L159.15446736258096,-266.23933653196366 L172.0303624297366,-261.75981546755895 L185.624764989713,-256.34246827390416 L200.0,-250.0 L207.15910045131048,-245.85670673360917 L212.72636256745187,-240.8860246073174 L216.8939240643572,-235.21200528996303 L219.8539226579594,-228.95870045038484 L221.79849606419137,-222.2501617574211 L222.91978199898594,-215.21044087991024 L223.40991817827617,-207.96358948669086 L223.46104231799487,-200.6336592466015 L223.26529213407508,-193.3447018284805 L223.01480534244965,-186.2207689011664 L222.90171965905148,-179.3859121334977 L223.11817279981358,-172.96418319431285 L223.85630248066883,-167.07963375245038 L225.3082464175501,-161.85631547674873 L227.6661423263904,-157.41828003604638 L231.1221279231226,-153.8895790991819 L235.86834092367968,-151.39426433499366 L242.09691904399446,-150.0563874123202 L250.0,-150.0 L261.3792134898009,-151.40652421335335 L270.7376964566438,-153.82239432055914 L278.26052615864984,-157.19671031346212 L284.1327798539407,-161.47857218390698 L288.5395348006376,-166.61707992373846 L291.6658682568618,-172.5613335248011 L293.6968574807349,-179.26043297893978 L294.8175797303782,-186.66347827799916 L295.21311226391305,-194.71956941382388 L295.0685323394608,-203.37780637825867 L294.56891721514285,-212.58728916314823 L293.89934414908066,-222.29711776033724 L293.24489039939544,-232.45639216167044 L292.7906332242087,-243.01421235899244 L292.72164988164184,-253.91967834414805 L293.22301762981607,-265.12189010898186 L294.47981372685297,-276.56994764533874 L296.6771154308738,-288.21295094506314" fill="none" stroke="black" />
</g>
<g>
<path d="M-24.846740046945364,2.7639661791566064 L-25.224692180905226,-0.7864524264604125 L-25.533785213295353,-3.9895206905073777 L-25.784194873065378,-6.885777284483267 L-25.986096889164934,-9.515760879887061 L-26.149666990543626,-11.920010148217742 L-26.285080906151077,-14.139063760974281 L-26.402514364936916,-16.213460389655662 L-26.51214309585076,-18.183738705760867 L-26.624142827842245,-20.09043738078887 L-26.74868928986097,-21.974095086238655 L-26.895958210856577,-23.875250493609194 L-27.07612531977868,-25.834442274399475 L-27.2993663455769,-27.892209100108467 L-27.57585701720086,-30.089089642235162 L-27.915773063600184,-32.465622572278534 L-28.32929021372449,-35.06234656173755 L-28.82658419652341,-37.91980028211121 L-29.417830740946552,-41.07852240489848 L-30.113205575943553,-44.579051601598344 L-30.88926422775476,-48.21914123723482 L-31.65233008342283,-51.481805691301346 L-32.40420158411181,-54.41139133977995 L-33.14667717098578,-57.052244558652625 L-33.881555285208776,-59.4487117239014 L-34.61063436794484,-61.645139211508244 L-35.33571286035805,-63.6858733974552 L-36.05858920361247,-65.61526065772428 L-36.781061838872134,-67.47764736829747 L-37.50492920730109,-69.31737990515678 L-38.231989750063406,-71.17880464428424 L-38.96404190832314,-73.10626796166181 L-39.70288412324434,-75.14411623327156 L-40.45031483599106,-77.33669583509547 L-41.20813248772737,-79.72835314311553 L-41.9781355196173,-82.36343453331378 L-42.76212237282492,-85.28628638167223 L-43.56189148851428,-88.54125506417283 L-44.37924130784944,-92.17268695679765 L-45.351016104083705,-96.47206109724287 L-46.30911040722407,-100.352146241757 L-47.2449385700466,-103.86261197002705 L-48.14991494532744,-107.05312786174014 L-49.015453885842575,-109.97336349658323 L-49.83296974436811,-112.67298845424331 L-50.59387687368012,-115.20167231440746 L-51.289589626554665,-117.60908465676276 L-51.91152235576784,-119.94489506099615 L-52.45108941409569,-122.25877310679465 L-52.89970515431429,-124.60038837384533 L-53.248783929199725,-127.0194104418352 L-53.48974009152805,-129.56550889045133 L-53.61398799407535,-132.28835329938067 L-53.612941989617696,-135.23761324831028 L-53.47801643093114,-138.4629583169272 L-53.20062567079178,-142.01405808491847 L-52.772184061975665,-145.94058213197104 L-52.18410595725888,-150.29220003777203 L-51.49444964499833,-154.74109675865017 L-50.79282840775764,-158.73766745037912 L-50.069361177165625,-162.33098522528147 L-49.3141668848511,-165.57012319568008 L-48.5173644624428,-168.50415447389742 L-47.66907284156953,-171.18215217225617 L-46.759410953860076,-173.65318940307898 L-45.77849773094326,-175.96633927868862 L-44.71645210444783,-178.17067491140767 L-43.56339300600257,-180.31526941355872 L-42.3094393672363,-182.44919589746456 L-40.94471011977779,-184.62152747544772 L-39.45932419525582,-186.88133725983096 L-37.84340052529919,-189.27769836293686 L-36.08705804153668,-191.8596838970881 L-34.18041567559709,-194.6763669746074 L-32.11359235910919,-197.7768207078173 L-29.876707023701776,-201.21011820904056 L-27.45987860100364,-205.02533259059976 L-25.239141751112225,-208.56646562567758 L-23.218300880177825,-211.7471707632067 L-21.368933919708688,-214.6059394331446 L-19.662618801213082,-217.18126306544895 L-18.070933456199242,-219.5116330900769 L-16.565455816175405,-221.6355409369859 L-15.117763812649827,-223.59147803613342 L-13.699435377130758,-225.41793581747694 L-12.282048441126443,-227.1534057109738 L-10.83718093614512,-228.83637914658146 L-9.336410793695041,-230.50534755425733 L-7.751315945284464,-232.19880236395892 L-6.053474322421618,-233.95523500564354 L-4.214463856614763,-235.81313690926862 L-2.2058624793721346,-237.81099950479165 L0.0007518777980077829,-239.98731422217008 L2.433801283387429,-242.38057249136125 L5.121707805887871,-245.02926574232262 L8.092893513791099,-247.97188540501165 L11.145025165805901,-251.03859030040144 L13.876086875848392,-253.84188846920503 L16.328939711338972,-256.4057585015627 L18.546444739698064,-258.7541789876147 L20.57146302834605,-260.91112851750114 L22.44685564470333,-262.90058568136203 L24.215483656190315,-264.7465290693378 L25.92020813022742,-266.4729372715686 L27.60389013423503,-268.10378887819445 L29.309390735633546,-269.6630624793556 L31.079571001843377,-271.17473666519226 L32.95729200028492,-272.66279002584463 L34.98541479837859,-274.15120115145277 L37.20680046354478,-275.66394863215703 L39.66431006320389,-277.22501105809744 L42.400804664776324,-278.85836701941423 L45.4591453356825,-280.5879951062476 L48.88219314334278,-282.43787390873763 L52.71280915517762,-284.43198201702467 L56.75263718204734,-286.4993011351753 L60.41475842744421,-288.3601453789652 L63.74683254351105,-290.0265518318878 L66.79651918239074,-291.5105575774365 L69.61147799622611,-292.8241996991045 L72.23936863715996,-293.9795152803853 L74.72785075733516,-294.988541404772 L77.12458400889457,-295.8633151557583 L79.477228043981,-296.61587361683735 L81.83344251473729,-297.2582538715024 L84.2408870733063,-297.8024930032469 L86.74722137183085,-298.26062809556436 L89.40010506245378,-298.64469623194793 L92.24719779731795,-298.96673449589093 L95.3361592285662,-299.23877997088687 L98.71464900834133,-299.472869740429 L102.43032678878623,-299.68104088801067 L106.5308522220437,-299.8753304971252 L111.06388496025663,-300.06777565126606 L115.42404628686208,-300.2193025715305 L119.35546867208414,-300.29669187196 L122.90741339467301,-300.29931505397764 L126.12914173337886,-300.226543619007 L129.06991496695179,-300.07774906847106 L131.77899437414192,-299.852302903793 L134.30564123369945,-299.54957662639606 L136.69911682437453,-299.1689417377037 L139.0086824249173,-298.7097697391389 L141.28359931407786,-298.1714321321249 L143.57312877060644,-297.553300418085 L145.92653207325313,-296.8547460984423 L148.3930705007681,-296.0751406746202 L151.02200533190145,-295.21385564804183 L153.8625978454034,-294.27026252013036 L156.96410932002405,-293.24373279230906 L160.3758010345136,-292.1336379660013 L164.1469342676221,-290.93934954263 L168.3267702980998,-289.66023902361854 L172.93409502186623,-288.3467194142039 L177.17282075192432,-287.2643224855871 L181.07794182912662,-286.37225970942166 L184.68445259432593,-285.6297425573613 L188.02734738837452,-284.99598250105936 L191.1416205521251,-284.43019101216925 L194.0622664264302,-283.8915795623447 L196.8242793521424,-283.33935962323926 L199.4626536701144,-282.73274266650645 L202.01238372119855,-282.03094016379964 L204.5084638462475,-281.1931635867726 L206.9858883861139,-280.1786244070786 L209.4796516816503,-278.94653409637135 L212.02474807370922,-277.4561041263043 L214.65617190314322,-275.66654596853107 L217.4089175108049,-273.537071094705 L220.31797923754692,-271.02689097647993 L223.41835142422167,-268.0952170855091 L226.74502841168186,-264.70126089344615 L229.82349396834815,-261.34031693727195 L232.4610318424771,-258.21722679469843 L234.69671977610145,-255.29684365409676 L236.56963551125403,-252.54402070383833 L238.11885678996745,-249.92361113229413 L239.3834613542743,-247.40046812783527 L240.40252694620744,-244.939444878833 L241.21513130779948,-242.50539457365852 L241.86035218108316,-240.063170400683 L242.37726730809106,-237.57762554827747 L242.80495443085604,-235.01361320481323 L243.1824912914107,-232.33598655866143 L243.54895563178778,-229.50959879819317 L243.94342519401994,-226.49930311177968 L244.40497772013987,-223.2699526877921 L244.9726909521803,-219.78640071460163 L245.68564263217394,-216.0135003805794 L246.58291050215342,-211.91610487409656 L247.70357230415152,-207.45906738352429 L248.1544021144685,-205.44838371430427 L248.41562226887083,-203.55675308857454 L248.51667058163514,-201.77495040493534 L248.4869848670381,-200.09375056198695 L248.35600293935605,-198.50392845832943 L248.1531626128654,-196.99625899256287 L247.90790170184272,-195.56151706328745 L247.64965802056466,-194.19047756910348 L247.40786938330766,-192.87391540861097 L247.21197360434806,-191.6026054804101 L247.09140849796256,-190.367322683101 L247.0756118784276,-189.15884191528394 L247.19402156001968,-187.967938075559 L247.47607535701533,-186.78538606252633 L247.95121108369102,-185.6019607747861 L248.64886655432326,-184.4084371109385 L249.5984795831886,-183.19558996958364 L250.8294879845635,-181.95419424932172 L252.3713295727245,-180.67502484875286 L252.91482122201768,-180.27903255809662 L253.4328525887377,-179.93957103110293 L253.92837630645354,-179.6553041602939 L254.40434500873425,-179.42489583819156 L254.8637113291486,-179.24700995731789 L255.30942790126554,-179.12031041019492 L255.7444473586541,-179.04346108934473 L256.17172233488316,-179.0151258872894 L256.5942054635217,-179.03396869655091 L257.0148493781385,-179.09865340965126 L257.43660671230265,-179.20784391911255 L257.86243009958304,-179.3602041174568 L258.2952721735486,-179.55439789720597 L258.7380855677683,-179.7890891508822 L259.193822915811,-180.0629417710075 L259.66543685124566,-180.37461965010382 L260.15588000764126,-180.72278668069333 L260.6681050185667,-181.106106755298 L261.20506451759087,-181.52324376643983 L262.7409788170585,-182.78841755490126 L264.0593744815893,-183.99126356670615 L265.17746977539736,-185.14394102604726 L266.11248296269656,-186.25860915711763 L266.8816323077007,-187.3474271841098 L267.50213607462376,-188.4225543312166 L267.9912125276796,-189.49614982263077 L268.3660799310821,-190.5803728825452 L268.6439565490452,-191.68738273515262 L268.8420606457827,-192.82933860464573 L268.9776104855086,-194.01839971521738 L269.06782433243677,-195.26672529106037 L269.12992045078107,-196.58647455636742 L269.18111710475534,-197.98980673533137 L269.2386325585736,-199.48888105214496 L269.31968507644973,-201.09585673100094 L269.4414929225976,-202.8228929960922 L269.621274361231,-204.68214907161138 L269.876247656564,-206.68578418175133 L270.32711323546505,-210.18734628390598 L270.6318123509437,-213.34480149237612 L270.80501319809264,-216.19885451336236 L270.8613839720048,-218.79021005306558 L270.8155928677727,-221.1595728176862 L270.68230808048907,-223.34764751342482 L270.47619780524667,-225.3951388464822 L270.21193023713823,-227.34275152305904 L269.9041735712564,-229.23119024935593 L269.5675960026939,-231.1011597315734 L269.2168657265435,-232.9933646759122 L268.86665093789793,-234.94850978857295 L268.53161983184975,-237.00729977575628 L268.2264406034919,-239.21043934366287 L267.9657814479169,-241.59863319849333 L267.76431056021755,-244.2125860464483 L267.6366961354866,-247.09300259372847 L267.5976063688167,-250.2805875465344 L267.6617094553005,-253.8160456110668 L267.7645669380062,-256.617669399261 L267.8817206007139,-259.13954275157516 L268.01293545718937,-261.4144730594957 L268.1579765211986,-263.4752677145091 L268.31660880650696,-265.3547341081013 L268.4885973268803,-267.08567963175875 L268.67370709608446,-268.70091167696773 L268.87170312788516,-270.2332376352146 L269.08235043604805,-271.7154648979856 L269.30541403433875,-273.1804008567669 L269.5406589365232,-274.6608529030449 L269.7878501563671,-276.1896284283059 L270.0467527076361,-277.79953482403613 L270.31713160409583,-279.523379481722 L270.5987518595123,-281.39396979284965 L270.8913784876511,-283.44411314890544 L271.1947765022779,-285.7066169413756 L271.50871091715845,-288.21428856174657" fill="none" stroke="black" />
</g>
<g>
<path d="M-49.680527653097954,5.64198513887556 L-50.07597218164307,2.0862738572279116 L-50.40153394771764,-1.121560081651486 L-50.66746200703697,-4.02211747195867 L-50.88400541531637,-6.655999107889683 L-51.061413228271114,-9.063805783640564 L-51.2099345016165,-11.286138293407348 L-51.33981829106782,-13.363597431386083 L-51.46131365234039,-15.336783991772805 L-51.58466964114948,-17.246298768763555 L-51.72013531321038,-19.13274255655437 L-51.877959724238394,-21.036716149341295 L-52.06839192994882,-22.998820341320364 L-52.301680986056944,-25.05965592668762 L-52.588075948278075,-27.259823699639103 L-52.93782587232749,-29.639924454370856 L-53.36117981392048,-32.240558985078906 L-53.86838682877237,-35.10232808595932 L-54.46969597259841,-38.2658325512081 L-55.17535630111393,-41.77167317502133 L-55.95105808978276,-45.38352752306701 L-56.707062007191325,-48.62224905409877 L-57.446258333927865,-51.53161029350563 L-58.171537350580685,-54.155383766676664 L-58.88578933773797,-56.53734199900085 L-59.59190457598796,-58.72125751586724 L-60.292773345918924,-60.75090284266486 L-60.991285928119126,-62.67005050478277 L-61.690332603176785,-64.52247302760999 L-62.39280365168014,-66.35194293653554 L-63.101589354217445,-68.20223275694846 L-63.819579991376955,-70.11711501423777 L-64.54966584374688,-72.14036223379253 L-65.2947371919155,-74.31574694100175 L-66.05768431647107,-76.68704166125448 L-66.84139749800178,-79.29801891993972 L-67.64876701709592,-82.19245124244655 L-68.48268315434171,-85.41411115416395 L-69.34603619032742,-89.006771180481 L-70.35802428756307,-93.19838899640322 L-71.34369891510087,-96.97571295984078 L-72.29753532770316,-100.38811507127234 L-73.21400878013229,-103.4849673311766 L-74.08759452715054,-106.31564174003223 L-74.91276782352021,-108.92951029831777 L-75.68400392400369,-111.37594500651197 L-76.39577808336325,-113.70431786509349 L-77.04256555636124,-115.96400087454096 L-77.61884159775992,-118.20436603533301 L-78.1190814623217,-120.47478534794834 L-78.53776040480884,-122.82463081286559 L-78.86935367998367,-125.3032744305634 L-79.10833654260851,-127.96008820152045 L-79.2491842474457,-130.84444412621536 L-79.28637204925752,-134.00571420512685 L-79.21437520280635,-137.49327043873353 L-79.02766896285445,-141.35648482751404 L-78.72072858416418,-145.64472937194708 L-78.33261648897431,-150.05821900234113 L-77.92222947398918,-154.0332058129223 L-77.48152374485962,-157.61827540773717 L-77.00245550723653,-160.86201339083254 L-76.47698096677071,-163.813005366255 L-75.89705632911297,-166.51983693805107 L-75.2546377999142,-169.03109371026744 L-74.54168158482528,-171.39536128695084 L-73.75014388949702,-173.66122527214787 L-72.87198091958025,-175.87727126990507 L-71.89914888072583,-178.0920848842692 L-70.82360397858463,-180.35425171928688 L-69.63730241880748,-182.71235737900474 L-68.3322004070452,-185.21498746746937 L-66.90025414894868,-187.91072758872747 L-65.33341985016875,-190.84816334682566 L-63.623653716356245,-194.07588034581062 L-61.76291195316201,-197.6424641897289 L-59.743150766236916,-201.59650048262722 L-57.853691916609826,-205.30915932201316 L-56.123733146829636,-208.6412632491051 L-54.52941626234502,-211.63424803449803 L-53.0468830686047,-214.32954944878716 L-51.65227537105732,-216.76860326256735 L-50.321734975151536,-218.99284524643352 L-49.03140368633605,-221.04371117098069 L-47.757423310059544,-222.96263680680397 L-46.475935651770705,-224.79105792449826 L-45.16308251691816,-226.57041029465853 L-43.795005710950626,-228.3421296878798 L-42.34784703931679,-230.14765187475717 L-40.79774830746529,-232.02841262588547 L-39.120851320844835,-234.02584771185974 L-37.29329788490408,-236.18139290327508 L-35.29122980509172,-238.53648397072635 L-33.09078888685643,-241.1325566848086 L-30.668116935646868,-244.0110468161168 L-27.99935575691173,-247.213390135246 L-25.36002921480838,-250.4108537599082 L-22.98851687971514,-253.3037304337789 L-20.849341617154895,-255.92378800412806 L-18.907026292650574,-258.3027943182259 L-17.126093771725056,-260.4725172233423 L-15.471066919901238,-262.46472456674724 L-13.906468602702034,-264.3111841957109 L-12.396821685650341,-266.0436639575033 L-10.906649034269059,-267.69393169939457 L-9.400473514081082,-269.2937552686544 L-7.842817990609316,-270.8749025125532 L-6.198205329376664,-272.46914127836084 L-4.431158395906019,-274.1082394133473 L-2.5062000557202886,-275.8239647647828 L-0.3878531743423643,-277.64808517993725 L1.9593593827048394,-279.61236850608066 L4.57091474989844,-281.7485825904832 L7.4822900617155215,-284.0884952804147 L10.728962452633196,-286.66387442314544 L14.128507025947167,-289.36295703741354 L17.1898084282791,-291.8185052778312 L19.95703145457521,-294.05132939486487 L22.474340899781684,-296.08223963898087 L24.785901558844714,-297.93204626064534 L26.935878226710496,-299.6215595103244 L28.968435698325237,-301.1715896384844 L30.927738768635137,-302.60294689559174 L32.857952232586385,-303.93644153211244 L34.80324088512516,-305.19288379851275 L36.8077695211977,-306.39308394525904 L38.91570293575016,-307.55785222281736 L41.17120592372876,-308.70799888165413 L43.618443280079696,-309.8643341722355 L46.30157979974916,-311.0476683450278 L49.26478027768334,-312.27881165049706 L52.55220950882846,-313.57857433910976 L56.20803228813068,-314.96776666133195 L60.276413410536236,-316.46719886763 L64.43915419276964,-317.97634379779504 L68.2071158756842,-319.32328838057094 L71.62847459054814,-320.5165667508129 L74.75140646862965,-321.5647130433764 L77.62408764119694,-322.47626139311654 L80.29469423951815,-323.25974593488843 L82.81140239486153,-323.92370080354755 L85.22238823849527,-324.47666013394905 L87.57582790168756,-324.92715806094833 L89.91989751570657,-325.28372871940036 L92.30277321182052,-325.5549062441605 L94.77263112129761,-325.74922477008425 L97.37764737540604,-325.8752184320265 L100.16599810541396,-325.94142136484277 L103.18585944258965,-325.9563677033881 L106.48540751820121,-325.9285915825178 L110.11281846351692,-325.86662713708733 L114.11626840980492,-325.7790085019517 L118.54393348833344,-325.6742698119662 L122.68125383881934,-325.5447239920335 L126.40258851466618,-325.3631311273283 L129.75606572957133,-325.1296543205292 L132.78981369723206,-324.84445667431476 L135.5519606313457,-324.50770129136316 L138.09063474560946,-324.11955127435283 L140.45396425372073,-323.68016972596223 L142.6900773693768,-323.1897197488698 L144.84710230627496,-322.64836444575394 L146.9731672781125,-322.05626691929297 L149.1164004985867,-321.4135902721653 L151.32493018139493,-320.72049760704954 L153.64688454023442,-319.97715202662386 L156.1303917888025,-319.1837166335668 L158.82358014079654,-318.34035453055674 L161.77457780991372,-317.447228820272 L165.0315130098514,-316.50450260539117 L168.64251395430688,-315.5123389885925 L172.65570885697747,-314.47090107255445 L176.99236391991164,-313.4446001060613 L180.95614262384728,-312.6288996056833 L184.58641932617783,-311.98929834390964 L187.92256838429682,-311.49129509323 L191.0039641555977,-311.10038862613345 L193.86998099747385,-310.7820777151094 L196.5599932673188,-310.5018611326471 L199.113375322526,-310.22523765123617 L201.56950152048893,-309.91770604336574 L203.96774621860095,-309.54476508152516 L206.34748377425566,-309.0719135382039 L208.74808854484647,-308.4646501858911 L211.2089348877668,-307.6884737970763 L213.76939716041016,-306.7088831442488 L216.46884972016997,-305.49137699989785 L219.34666692443972,-304.00145413651296 L222.44222313061286,-302.20461332658334 L225.79489269608285,-300.06635334259835 L229.44404997824319,-297.5521729570474 L233.35147185419342,-294.73831525535195 L236.85775827454762,-292.1389821634744 L239.9956324027244,-289.7177967200933 L242.79781740214256,-287.4383819638876 L245.2970364362205,-285.2643609335356 L247.52601266837692,-283.15935666771605 L249.5174692620305,-281.0869922051076 L251.3041293805999,-279.01089058438896 L252.91871618750372,-276.8946748442387 L254.39395284616052,-274.7019680233353 L255.76256251998896,-272.3963931603576 L257.05726837240775,-269.9415732939842 L258.3107935668355,-267.30113146289364 L259.5558612666907,-264.43869070576466 L260.8251946353922,-261.31787406127586 L262.1515168363585,-257.9023045681058 L263.5675510330083,-254.15560526493323 L265.10602038876004,-250.04139919043666 L266.7996480670326,-245.52330938329487 L266.87192098672296,-245.33482233463639 L266.93986856450204,-245.16269654173416 L267.00310568186717,-245.0049975914644 L267.06124722031586,-244.85979107070312 L267.1139080613453,-244.72514256632647 L267.1607030864527,-244.5991176652104 L267.20124717713554,-244.479781954231 L267.2351552148912,-244.36520102026452 L267.26204208121703,-244.2534404501869 L267.28152265761,-244.14256583087416 L267.2932118255679,-244.0306427492025 L267.29672446658776,-243.91573679204802 L267.29167546216706,-243.79591354628667 L267.27767969380307,-243.66923859879464 L267.2543520429931,-243.53377753644793 L267.2213073912345,-243.38759594612264 L267.17816062002464,-243.22875941469493 L267.12452661086076,-243.05533352904075 L267.0600202452403,-242.86538387603625 L266.2517195860019,-240.51939880479372 L265.48214920310994,-238.21556963974925 L264.7374119372,-235.9690740524272 L264.0036106289079,-233.7950897143518 L263.26684811886906,-231.70879429704712 L262.513227247719,-229.72536547203725 L261.72885085609346,-227.85998091084645 L260.899821784628,-226.1278182849989 L260.0122428739582,-224.5440552660188 L259.0522169647196,-223.12386952543022 L258.0058468975479,-221.88243873475736 L256.85923551307866,-220.83494056552445 L255.5984856519474,-219.99655268925557 L254.20970015478983,-219.38245277747495 L252.67898186224144,-219.00781850170677 L250.9924336149379,-218.88782753347513 L249.1361582535148,-219.0376575443043 L247.09625861860766,-219.47248620571833 L244.85883755085217,-220.2074911892415 L242.11563796207565,-221.40963673134374 L239.9194510879841,-222.71118612506413 L238.22548040042128,-224.113374205841 L236.9889293712312,-225.6174358091127 L236.16500147225756,-227.2246057703173 L235.70890017534404,-228.9361189248931 L235.5758289523345,-230.7532101082783 L235.72099127507275,-232.67711415591126 L236.09959061540266,-234.70906590323023 L236.66683044516788,-236.85030018567326 L237.37791423621235,-239.10205183867882 L238.18804546037973,-241.46555569768503 L239.0524275895139,-243.9420465981302 L239.9262640954587,-246.53275937545254 L240.76475845005783,-249.2389288650903 L241.52311412515508,-252.06178990248173 L242.15653459259434,-255.00257732306508 L242.62022332421932,-258.0625259622786 L242.8693837918739,-261.2428706555605 L242.96930979427916,-263.51650345621124 L243.08126441792533,-265.5627178538773 L243.2051283647069,-267.4081612128001 L243.34078233651857,-269.07948089722083 L243.48810703525476,-270.6033242713807 L243.6469831628098,-272.00633869952065 L243.81729142107832,-273.3151715458821 L243.99891251195493,-274.55647017470625 L244.19172713733406,-275.7568819502342 L244.39561599911008,-276.943054236707 L244.61045979917768,-278.1416343983661 L244.8361392394313,-279.37926979945246 L245.07253502176542,-280.68260780420746 L245.31952784807456,-282.0782957768721 L245.5769984202533,-283.59298108168775 L245.844827440196,-285.2533110828954 L246.1228956097973,-287.08593314473643 L246.41108363095162,-289.1174946314518" fill="none" stroke="black" />
</g>
<g>
<path d="M-74.50180405592594,8.625982078286597 L-74.9132185371989,5.068224150567772 L-75.25381473897856,1.8585489979571648 L-75.53390883639318,-1.0436684984203553 L-75.76381700457108,-3.6790534574399127 L-75.95385541864049,-6.088230997976639 L-76.11434025372962,-8.311826238905661 L-76.25558768496683,-10.39046429910211 L-76.38791388748032,-12.364770297441114 L-76.52163503639842,-14.2753693527978 L-76.66706730684933,-16.1628865840473 L-76.83452687396134,-18.06794711006474 L-77.03432991286273,-20.031176049725246 L-77.27679259868175,-22.093198521903954 L-77.57223110654667,-24.294639645475986 L-77.93096161158576,-26.676124539316476 L-78.36330028892728,-29.278278322300547 L-78.8795633136995,-32.14172611330334 L-79.49006686103067,-35.30709303119996 L-80.20512710604909,-38.815004194865566 L-80.98439485347629,-42.412719355429374 L-81.739284598514,-45.63968583955743 L-82.47341205678312,-48.53935257684864 L-83.19039294390464,-51.15516849690191 L-83.89384297549944,-53.53058252931609 L-84.58737786718838,-55.709043603690056 L-85.2746133345924,-57.73400064962273 L-85.95916509333247,-59.64890259671297 L-86.64464885902946,-61.497198374559666 L-87.33468034730426,-63.3223369127617 L-88.0328752737778,-65.16776714091795 L-88.74284935407101,-67.07693798862732 L-89.4682183038048,-69.09329838548865 L-90.21259783860009,-71.26029726110087 L-90.97960367407775,-73.62138354506286 L-91.77285152585875,-76.22000616697349 L-92.59595710956395,-79.09961405643165 L-93.45253614081432,-82.30365614303619 L-94.34620433523072,-85.87558135638605 L-95.3799742185034,-89.99222688719296 L-96.37731027938125,-93.6989642865337 L-97.33501637732662,-97.04477782574189 L-98.24989637180192,-100.07865177615122 L-99.11875412226942,-102.84957040909521 L-99.9383934881914,-105.40651799590745 L-100.70561832903024,-107.79847880792157 L-101.41723250424832,-110.07443711647119 L-102.0700398733079,-112.28337719288993 L-102.66084429567135,-114.47428330851132 L-103.18644963080096,-116.696139734669 L-103.64365973815913,-118.99793074269657 L-104.02927847720812,-121.42864060392763 L-104.34010970741032,-124.0372535896958 L-104.57295728822803,-126.87275397133466 L-104.72462507912357,-129.9841260201778 L-104.79191693955931,-133.4203540075589 L-104.77163672899754,-137.23042220481142 L-104.66058830690062,-141.4633148832691 L-104.48473415823368,-145.84453884387267 L-104.27866009396713,-149.79489447312653 L-104.03598299721168,-153.36291039567666 L-103.7503197510781,-156.59711523616903 L-103.41528723867697,-159.5460376192496 L-103.02450234311898,-162.25820616956415 L-102.57158194751486,-164.7821495117587 L-102.05014293497528,-167.1663962704792 L-101.45380218861092,-169.45947507037158 L-100.77617659153245,-171.70991453608167 L-100.01088302685055,-173.96624329225548 L-99.15153837767593,-176.27698996353894 L-98.19175952711925,-178.69068317457794 L-97.1251633582912,-181.25585155001843 L-95.94536675430247,-184.02102371450636 L-94.64598659826372,-187.0347282926876 L-93.22063977328567,-190.3454939092082 L-91.66294316247895,-194.0018491887139 L-89.96651364895429,-198.05232275585075 L-88.36113395978579,-201.88932407549433 L-86.88694094739424,-205.3358967375983 L-85.52321089434146,-208.43505121578457 L-84.24922008318939,-211.22979798367527 L-83.04424479649983,-213.7631475148922 L-81.88756131683455,-216.07811028305727 L-80.75844592675548,-218.21769676179247 L-79.63617490882447,-220.2249174247198 L-78.50002454560335,-222.1427827454611 L-77.32927111965394,-224.01430319763827 L-76.10319091353811,-225.8824892548734 L-74.80106020981773,-227.79035139078835 L-73.40215529105461,-229.78090007900505 L-71.8857524398106,-231.89714579314546 L-70.23112793864757,-234.18209900683152 L-68.41755807012734,-236.67877019368512 L-66.42431911681177,-239.43016982732826 L-64.23068736126271,-242.47930838138285 L-61.81593908604201,-245.86919632947087 L-59.46133096107582,-249.19350244202164 L-57.33669373992676,-252.18905521508253 L-55.41146180034354,-254.89155650834437 L-53.65506952007488,-257.33670818149784 L-52.03695127686945,-259.5602120942335 L-50.52654144847591,-261.5977701062419 L-49.09327441264299,-263.48508407721397 L-47.70658454711938,-265.2578558668402 L-46.33590622965376,-266.9517873348114 L-44.950673837994806,-268.602580340818 L-43.52032174989124,-270.2459367445508 L-42.01428434309173,-271.91755840570056 L-40.40199599534499,-273.6531471839578 L-38.65289108439969,-275.4884049390132 L-36.736403988004525,-277.45903353055746 L-34.62196908390819,-279.60073481828124 L-32.27902074985938,-281.94921066187527 L-29.676993363606783,-284.54016292103006 L-26.785321302899085,-287.4092934554364 L-23.826627929316704,-290.3555862514667 L-21.166905162488227,-293.0250305938376 L-18.767167282891045,-295.4453608649387 L-16.588428571002535,-297.64431144715974 L-14.591703307300063,-299.64961672289013 L-12.738005772261001,-301.4890110745194 L-10.988350246362723,-303.1902288844372 L-9.30375101008261,-304.78100453503316 L-7.6452223438980305,-306.2890724086967 L-5.973778528286353,-307.7421668878175 L-4.250433843724957,-309.1680223547852 L-2.436202570691222,-310.59437319198923 L-0.49209898966250876,-312.04895378181914 L1.6208626188837973,-313.5594985066646 L3.941667974470332,-315.1537417489152 L6.509302796619712,-316.8594178909604 L9.362752804854575,-318.7042613151899 L12.541003718697532,-320.7160064039931 L16.08304125767123,-322.92238753975977 L19.751347067884858,-325.19895296938876 L23.062781105595718,-327.25975538266323 L26.062683618959145,-329.1222576263622 L28.796394856130483,-330.80392254726485 L31.30925506526506,-332.3222129921499 L33.64660449451819,-333.6945918077964 L35.85378339204522,-334.93852184098336 L37.97613200600149,-336.0714659384899 L40.058990584542336,-337.1108869470948 L42.147699375823066,-338.0742477135771 L44.28759862799903,-338.9790110847158 L46.524028589225566,-339.84263990728994 L48.90232950765799,-340.6825970280785 L51.467841631451634,-341.51634529386035 L54.26590520876186,-342.3613475514146 L57.34186048774396,-343.23506664752017 L60.74104771655331,-344.15496542895613 L64.5088071433452,-345.13850674250136 L68.69047901627499,-346.2031534349349 L72.89144561504116,-347.25627237704305 L76.68852050419356,-348.18932308297104 L80.13000223278758,-349.0074651199901 L83.26418934987865,-349.7158580553718 L86.13938040452211,-350.3196614563872 L88.80387394577326,-350.8240348903075 L91.30596852268762,-351.23413792440397 L93.69396268432048,-351.5551301259481 L96.01615497972725,-351.79217106221097 L98.32084395796326,-351.9504203004638 L100.65632816808393,-352.03503740797794 L103.07090615914464,-352.05118195202465 L105.61287648020075,-352.00401349987516 L108.33053768030764,-351.89869161880085 L111.27218830852071,-351.7403758760728 L114.4861269138953,-351.5342258389624 L118.02065204548681,-351.2854010747409 L121.9240622523506,-350.9990611506795 L126.24465608354207,-350.68036563404956 L130.256268543116,-350.35429912935865 L133.8603531526475,-349.99617893772927 L137.10423999072214,-349.6057380102764 L140.03525913592563,-349.18270929811575 L142.7007406668434,-348.72682575236223 L145.14801466206097,-348.237820324131 L147.42441120016406,-347.7154259645373 L149.57726035973818,-347.15937562469657 L151.65389221936894,-346.5694022557239 L153.70163685764183,-345.94523880873436 L155.76782435314243,-345.2866182348434 L157.89978478445641,-344.59327348516604 L160.14484823016923,-343.86493751081764 L162.55034476886652,-343.1013432629133 L165.16360447913388,-342.30222369256836 L168.03195743955675,-341.4673117508979 L171.2027337287209,-340.59634038901737 L174.72326342521168,-339.68904255804165 L178.6408766076148,-338.74515120908626 L182.7705081585242,-337.8402176334 L186.5277753709753,-337.12282266314 L189.95394761943732,-336.5641606377348 L193.0902942783794,-336.13542589661364 L195.97808472227058,-335.8078127792049 L198.65858832557984,-335.55251562493754 L201.17307446277647,-335.34072877324036 L203.5628125083295,-335.14364656354223 L205.86907183670803,-334.9324633352719 L208.13312182238104,-334.67837342785816 L210.39623183981774,-334.3525711807298 L212.6996712634873,-333.9262509333157 L215.0847094678586,-333.3706070250446 L217.59261582740092,-332.65683379534534 L220.26465971658325,-331.75612558364674 L223.14211050987478,-330.6396767293775 L226.26623758174452,-329.27868157196656 L229.67831030666156,-327.6443344508427 L233.41959805909508,-325.7078297054346 L237.8430749047237,-323.36698471522334 L241.90127255225843,-321.25584613265175 L245.6220331052764,-319.33318933557433 L249.03319866735467,-317.5577897018457 L252.16261134207033,-315.88842260931983 L255.0381132330002,-314.2838634358513 L257.68754644372143,-312.7028875592945 L260.13875307781126,-311.1042703575039 L262.4195752388465,-309.4467872083337 L264.5578550304042,-307.68921348963835 L266.5814345560615,-305.79032457927224 L268.5181559193954,-303.70889585508985 L270.3958612239829,-301.4037026949455 L272.24239257340105,-298.8335204766935 L274.085592071227,-295.95712457818826 L275.95330182103766,-292.7332903772842 L277.87336392641015,-289.12079325183583 L279.87362049092144,-285.0784085796973 L281.98191361814867,-280.5649117387231 L286.73781776837086,-270.42029631361265 L291.6072901826465,-260.4542193367707 L296.48198797923874,-250.68724447330393 L301.253568276411,-241.1399353883192 L305.81368819242607,-231.832855746923 L310.0540048455469,-222.78656921422194 L313.86617535403684,-214.02163945532286 L317.141856836159,-205.5586301353324 L319.7727064101764,-197.41810491935726 L321.65038119435195,-189.620627472504 L322.66653830694906,-182.18676145987945 L322.7128348662307,-175.13707054659017 L321.68092799045985,-168.49211839774284 L319.46247479789974,-162.27246867844423 L315.9491324068134,-156.49868505380095 L311.03255793546396,-151.19133118891972 L304.60440850211444,-146.37097074890718 L296.55634122502806,-142.05816739887 L286.7800132224678,-138.2734848039149 L277.7485142630493,-135.80709949044672 L269.69966298029703,-134.64280734214174 L262.56272337957455,-134.7074532525428 L256.2669594662456,-135.92788211519274 L250.7416352456736,-138.23093882363432 L245.91601472322188,-141.54346827141023 L241.7193619042542,-145.7923153520634 L238.0809407941341,-150.90432495913657 L234.93001539822507,-156.80634198617255 L232.1958497218905,-163.42521132671405 L229.80770777049412,-170.68777787430395 L227.6948535493994,-178.52088652248494 L225.7865510639698,-186.8513821647999 L224.01206431956894,-195.60610969479157 L222.30065732156027,-204.71191400600276 L220.58159407530744,-214.0956399919762 L218.78413858617387,-223.68413254625483 L216.83755485952315,-233.40423656238124 L214.6711069007188,-243.18279693389837 L213.89009063541513,-246.82813474166488 L213.3389732237746,-250.1186768963603 L212.99970776266093,-253.0965716069992 L212.85424734893795,-255.8039670825962 L212.88454507946912,-258.28301153216574 L213.0725540511181,-260.5758531647222 L213.40022736074854,-262.72464018928025 L213.84951810522426,-264.77152081485445 L214.40237938140882,-266.75864325045916 L215.04076428616577,-268.7281557051089 L215.74662591635894,-270.7222063878183 L216.50191736885182,-272.78294350760183 L217.2885917405082,-274.95251527347386 L218.08860212819167,-277.2730698944491 L218.8839016287659,-279.78675557954193 L219.65644333909455,-282.53572053776696 L220.3881803560413,-285.56211297813866 L221.06106577646972,-288.9080811096714" fill="none" stroke="black" />
</g>
<g>
<path d="M-99.31074766196089,11.710834935811194 L-99.73733461301299,8.151467535525196 L-100.09217472833123,4.940340028562408 L-100.38565525813111,2.0368089820162916 L-100.62816345262821,-0.5997690370197022 L-100.830086562038,-3.0100374614521233 L-101.00181183657594,-5.234639724187518 L-101.15372652645756,-7.314219258132432 L-101.2962178818984,-9.289419496193416 L-101.43967315311396,-11.200883871277014 L-101.5944795903197,-13.089255816289777 L-101.77102444373115,-14.995178764138249 L-101.97969496356384,-16.959296147728978 L-102.23087840003325,-19.022251399968514 L-102.53496200335488,-21.2246879537634 L-102.90233302374426,-23.60724924202019 L-103.34337871141688,-26.210578697645417 L-103.86848631658826,-29.07531975354565 L-104.48804308947388,-32.24211584262741 L-105.21243628028927,-35.75161039779728 L-105.997122681801,-39.34034633310825 L-106.75395107984203,-42.559888222942156 L-107.48704746716156,-45.45347527117697 L-108.20053783650899,-48.06434668169069 L-108.89854818063348,-50.435741658361245 L-109.58520449228432,-52.610899405066604 L-110.26463276421082,-54.633059125684746 L-110.94095898916221,-56.54546002409367 L-111.61830915988781,-58.39134130417131 L-112.3008092691368,-60.21394216979562 L-112.99258530965854,-62.05650182484462 L-113.69776327420227,-63.96225947319623 L-114.42046915551722,-65.97445431872842 L-115.16482894635271,-68.1363255653192 L-115.934968639458,-70.4911124168465 L-116.73501422758235,-73.0820540771883 L-117.56909170347504,-75.9523897502226 L-118.44132705988531,-79.14535863982731 L-119.35584628956246,-82.70419994988043 L-120.40150056621474,-86.76459197316747 L-121.40236771437088,-90.41903548452798 L-122.3570974920301,-93.716101231264 L-123.2643396571916,-96.70435996067759 L-124.12274396785449,-99.43238242007064 L-124.93096018201784,-101.94873935674514 L-125.68763805768091,-104.30200151800314 L-126.39142735284283,-106.54073965114665 L-127.04097782550272,-108.71352450347764 L-127.63493923365972,-110.86892682229808 L-128.17196133531303,-113.05551735491 L-128.65069388846175,-115.32186684861537 L-129.06978665110506,-117.7165460507162 L-129.4278893812421,-120.28812570851449 L-129.72365183687202,-123.08517656931221 L-129.955723775994,-126.15626938041137 L-130.12275495660714,-129.549974889114 L-130.22339513671062,-133.31486384272202 L-130.25629407430358,-137.4995069885375 L-130.23801701588124,-141.83726049743197 L-130.1829121019992,-145.75017637230545 L-130.08615294927384,-149.28670781733598 L-129.94291317432177,-152.49530803670186 L-129.74836639375934,-155.4244302345811 L-129.49768622420297,-158.12252761515174 L-129.1860462822692,-160.63805338259198 L-128.80862018457447,-163.01946074107997 L-128.3605815477352,-165.3152028947937 L-127.83710398836783,-167.5737330479114 L-127.23336112308883,-169.84350440461108 L-126.54452656851473,-172.17297016907088 L-125.76577394126187,-174.61058354546896 L-124.89227685794677,-177.20479773798337 L-123.91920893518586,-180.00406595079227 L-122.84174378959561,-183.05684138807374 L-121.65505503779248,-186.41157725400592 L-120.35431629639288,-190.11672675276688 L-118.93470118201333,-194.22074308853476 L-117.57755801381253,-198.1450674324603 L-116.3299613087584,-201.67374337391038 L-115.17363572949223,-204.85077864471646 L-114.09030593865552,-207.72018097671014 L-113.0616965988895,-210.32595810172282 L-112.06953237283558,-212.712117751586 L-111.0955379231351,-214.9226676581311 L-110.12143791242947,-217.00161555318982 L-109.12895700336003,-218.9929691685935 L-108.0998198585681,-220.94073623617356 L-107.01575114069504,-222.8889244877616 L-105.8584755123823,-224.88154165518915 L-104.60971763627114,-226.9625954702876 L-103.25120217500296,-229.17609366488847 L-101.76465379121913,-231.56604397082327 L-100.131797147561,-234.17645411992345 L-98.33435690666994,-237.05133184402055 L-96.3540577311873,-240.23468487494597 L-94.17262428375443,-243.77052094453134 L-92.05190994449369,-247.2173616798438 L-90.13206222328633,-250.31855221371163 L-88.38604054738518,-253.11226801403956 L-86.78680434404318,-255.63668454873246 L-85.30731304051307,-257.9299772856949 L-83.92052606404768,-260.03032169283165 L-82.59940284189992,-261.97589323804743 L-81.31690280132261,-263.8048673892471 L-80.04598536956861,-265.55541961433516 L-78.7596099738907,-267.26572538121644 L-77.43073604154176,-268.97396015779566 L-76.03232299977466,-270.7182994119776 L-74.5373302758422,-272.536918611667 L-72.91871729699722,-274.4679932247685 L-71.14944349049259,-276.54969871918684 L-69.20246828358114,-278.8202105628268 L-67.05075110351572,-281.31770422359307 L-64.66725137754914,-284.0803551693903 L-62.024928532934275,-287.1463388681234 L-59.370824816469046,-290.2375318163092 L-56.98313019188953,-293.0296176123272 L-54.82728693944698,-295.55449111767695 L-52.868737339392744,-297.84404719385856 L-51.072923671978046,-299.9301807023712 L-49.40528821745415,-301.84478650471465 L-47.83127325607238,-303.6197594623885 L-46.31632106808397,-305.2869944368925 L-44.825873933740255,-306.87838628972634 L-43.325374133292435,-308.42582988238934 L-41.78026394699184,-309.9612200763815 L-40.15598565508974,-311.51645173320225 L-38.41798153783739,-313.12341971435126 L-36.5316938754861,-314.81401888132814 L-34.462564948287124,-316.62014409563267 L-32.17603703649174,-318.5736902187642 L-29.63755242035124,-320.70655211222277 L-26.81255338011689,-323.05062463750767 L-23.666482196039965,-325.6378026561187 L-20.42957193085566,-328.29893139059055 L-17.513878070229783,-330.7071466931956 L-14.878148230782301,-332.88678414249614 L-12.481130029133167,-334.8621793170544 L-10.281571081902314,-336.6576677954324 L-8.23821900570969,-338.2975851561921 L-6.309821417175247,-339.806266977896 L-4.455125932918933,-341.208048839106 L-2.6328801695606923,-342.5272663183845 L-0.801831743720471,-343.78825499429325 L1.0792717279817836,-345.01535044539463 L3.0516826289261187,-346.2328882502509 L5.156653342492595,-347.46520398742393 L7.435436252061258,-348.736633235476 L9.92928374101217,-350.07151157296937 L12.67944819272537,-351.49417457846596 L15.727181990580931,-353.02895783052816 L19.11373751795888,-354.7001969077178 L22.880367158239295,-356.5322273885973 L26.7237574442131,-358.3922643158529 L30.19482881673996,-360.0686286004041 L33.33976823466568,-361.57546471772855 L36.20476265683605,-362.92691714330437 L38.835999042096866,-364.13713035260906 L41.279664349293924,-365.2202488211204 L43.58194553727301,-366.1904170243162 L45.78902956487994,-367.0617794376745 L47.94710339096049,-367.8484805366729 L50.10235397436046,-368.5646647967892 L52.30096827392566,-369.2244766935011 L54.58913324850187,-369.8420607022867 L57.01303585693488,-370.4315612986235 L59.61886305807049,-371.0071229579893 L62.45280181075451,-371.58289015586206 L65.5610390738327,-372.1730073677195 L68.98976180615091,-372.7916190690395 L72.78515696655488,-373.4528697352996 L76.99341151389044,-374.17090384197786 L81.18413096310375,-374.8755553625526 L84.96789066879816,-375.4955215496412 L88.39279635883628,-376.0331471933205 L91.5069537610807,-376.49077708366747 L94.35846860339393,-376.87075601075895 L96.99544661363852,-377.17542876467144 L99.46599351967708,-377.40714013548205 L101.8182150493722,-377.5682349132676 L104.10021693058638,-377.66105788810495 L106.36010489118222,-377.68795385007064 L108.64598465902226,-377.6512675892417 L111.00596196196912,-377.55334389569504 L113.48814252788529,-377.39652755950726 L116.14063208463338,-377.1831633707553 L119.01153636007598,-376.91559611951607 L122.14896108207557,-376.5961705958663 L125.60101197849482,-376.22723158988276 L129.4157947771962,-375.81112389164235 L133.64141520604235,-375.3501922912219 L137.56491383875922,-374.8933766775689 L141.08808117798424,-374.42057217649807 L144.25753616925977,-373.9307795929198 L147.11989775812827,-373.42299973174386 L149.72178489013203,-372.89623339788017 L152.1098165108132,-372.34948139623856 L154.33061156571432,-371.7817445317289 L156.43078900037767,-371.1920236092614 L158.4569677603456,-370.5793194337458 L160.45576679116036,-369.9426328100919 L162.47380503836433,-369.28096454320973 L164.55770144749988,-368.5933154380092 L166.7540749641093,-367.8786862994003 L169.10954453373495,-367.1360779322929 L171.67072910191916,-366.3644911415969 L174.4842476142042,-365.5629267322221 L177.59671901613257,-364.7303855090787 L181.0547622532464,-363.86586827707634 L184.90499627108812,-362.9683758411251 L188.8520762494056,-362.12213696001027 L192.4296883051545,-361.4346789365494 L195.68001693977388,-360.88322172617757 L198.64524665470287,-360.4449852843302 L201.36756195138037,-360.0971895664424 L203.88914733124534,-359.8170545279491 L206.25218729573686,-359.5818001242855 L208.49886634629397,-359.3686463108871 L210.6713689843557,-359.1548130431889 L212.81187971136092,-358.91752027662585 L214.96258302874872,-358.63398796663324 L217.1656634379581,-358.2814360686463 L219.46330544042812,-357.83708453810016 L221.89769353759772,-357.27815333043 L224.51101223090592,-356.58186240107096 L227.34544602179176,-355.72543170545816 L230.44317941169427,-354.6860811990269 L233.8463969020524,-353.44103083721217 L237.59728299430515,-351.9675005754492 L241.84566665084282,-350.26370079171556 L245.70714878809207,-348.7395716327684 L249.21980319451697,-347.3632373773806 L252.42170365858158,-346.10282230432523 L255.35092396874973,-344.92645069237483 L258.0455379134855,-343.80224682030195 L260.54361928125263,-342.69833496687966 L262.8832418605155,-341.58283941088064 L265.10247943973786,-340.42388443107774 L267.23940580738355,-339.1895943062435 L269.3320947519168,-337.8480933151508 L271.41862006180156,-336.3675057365724 L273.53705552550167,-334.7159558492811 L275.72547493148113,-332.86156793204964 L278.0219520682041,-330.7724662636508 L280.4645607241343,-328.4167751228573 L283.09137468773594,-325.76261878844196 L285.9404677474728,-322.7781215391774 L289.049913691809,-319.4314076538366 L291.8998951895178,-316.2466910767008 L294.3721351386548,-313.31007955962014 L296.5046130619003,-310.5879413782254 L298.33530848193476,-308.04664480814785 L299.9022009214379,-305.65255812501806 L301.24326990309004,-303.37204960446684 L302.3964949495713,-301.17148752212523 L303.39985558356204,-299.0172401536242 L304.2913313277424,-296.8756757745944 L305.10890170479234,-294.71316266066685 L305.8905462373922,-292.4960690874724 L306.67424444822205,-290.19076333064197 L307.49797585996214,-287.76361366580636 L308.3997199952925,-285.18098836859656 L309.4174563768935,-282.40925571464334 L310.58916452744506,-279.4147839795776 L311.9528239696276,-276.16394143903034 L313.54641422612116,-272.6230963686323 L315.4079148196059,-268.7586170440144 L317.25839722040695,-265.1075755918333 L318.9796675412898,-261.8385685484424 L320.5824071223153,-258.9048947742021 L322.0772973035449,-256.2598531294728 L323.47501942503897,-253.85674247461472 L324.7862548268588,-251.64886166998812 L326.0216848490652,-249.58950957595346 L327.1919908317192,-247.63198505287113 L328.30785411488193,-245.7295869611014 L329.37995603861395,-243.8356141610045 L330.4189779429764,-241.90336551294087 L331.43560116803036,-239.88613987727086 L332.4405070538367,-237.73723611435472 L333.4443769404564,-235.40995308455285 L334.4578921679504,-232.85758964822554 L335.49173407637954,-230.03344466573316 L336.55658400580495,-226.89081699743605 L337.6631232962875,-223.38300550369448 L338.8220332878882,-219.46330904486885 L340.32169093066216,-214.54331390430772 L341.84660789309584,-210.05233272197242 L343.37100155796446,-205.9415461247436 L344.86908930804356,-202.16213473950216 L346.3150885261082,-198.66527919312867 L347.68321659493347,-195.4021601125037 L348.94769089729465,-192.3239581245081 L350.08272881596713,-189.3818538560225 L351.06254773372603,-186.52702793392766 L351.8613650333465,-183.7106609851041 L352.45339809760384,-180.88393363643272 L352.81286430927327,-177.99802651479405 L352.91398105112995,-175.00412024706887 L352.7309657059492,-171.85339546013782 L352.2380356565062,-168.49703278088163 L351.4094082855762,-164.886212836181 L350.2193009759345,-160.97211625291658 L348.64193111035615,-156.70592365796904 L346.65151607161647,-152.03881567821915 L344.2295368626501,-146.818826707773 L341.88538577936697,-142.08411232443143 L339.58834609080117,-137.8066315146488 L337.307701065987,-133.95834326487957 L335.01273397395823,-130.51120656157804 L332.67272808374884,-127.43718039119851 L330.2569666643928,-124.70822374019541 L327.7347329849243,-122.29629559502315 L325.07531031437725,-120.17335494213606 L322.24798192178565,-118.31136076798843 L319.22203107618344,-116.68227205903472 L315.9667410466048,-115.25804780172929 L312.45139510208355,-114.01064698252648 L308.64527651165383,-112.91202858788066 L304.5176685443496,-111.93415160424617 L300.03785446920483,-111.04897501807743 L295.1751175552536,-110.22845781582876 L289.89874107152986,-109.44455898395455 L284.17800828706766,-108.66923750890918 L278.8223459960842,-108.00240737494383 L273.89433851915635,-107.4745712031774 L269.35429461822315,-107.09924636267684 L265.1625230552242,-106.88995022250909 L261.27933259209846,-106.86020015174101 L257.6650319907851,-107.02351351943946 L254.27993001322355,-107.39340769467142 L251.08433542135296,-107.98340004650377 L248.0385569771126,-108.8070079440034 L245.10290344244157,-109.87774875623718 L242.23768357927923,-111.20913985227207 L239.4032061495647,-112.81469860117495 L236.55977991523736,-114.70794237201272 L233.66771363823625,-116.9023885338523 L230.68731608050075,-119.41155445576058 L227.57889600397,-122.24895750680443 L224.3027621705833,-125.42811505605084 L220.81922334227977,-128.9625444725666 L217.08858828099875,-132.8657631254187 L213.90853620574185,-136.3856110737688 L211.2336541737944,-139.6722204449746 L209.01840481702672,-142.76061593118965 L207.21725076730934,-145.6858222245677 L205.7846546565124,-148.48286401726233 L204.6750791165061,-151.18676600142717 L203.84298677916084,-153.83255286921593 L203.24284027634695,-156.45524931278226 L202.8291022399347,-159.0898800242798 L202.5562353017944,-161.77146969586212 L202.37870209379628,-164.535043019683 L202.2509652478107,-167.415624687896 L202.127487395708,-170.44823939265478 L201.9627311693584,-173.66791182611303 L201.71115920063224,-177.10966668042437 L201.32723412139978,-180.80852864774243 L200.76541856353143,-184.7995224202209 L199.98017515889734,-189.1176726900134 L198.9259665393679,-193.7980041492736 L197.88864809777527,-197.86958717054674 L196.89764561700832,-201.53413924179907 L195.953946236943,-204.84034489450343 L195.05853709745566,-207.83688866013284 L194.21240533842223,-210.5724550701601 L193.4165380997187,-213.09572865605787 L192.67192252122132,-215.45539394929924 L191.97954574280612,-217.70013548135705 L191.34039490434915,-219.87863778370416 L190.75545714572658,-222.03958538781325 L190.22571960681438,-224.23166282515743 L189.75216942748872,-226.50355462720944 L189.33579374762564,-228.9039453254421 L188.97757970710126,-231.48151945132838 L188.67851444579162,-234.28496153634106 L188.43958510357288,-237.362956111953 L188.2617788203211,-240.76418770963716 L188.14608273591224,-244.53734086086627 L188.09348399022258,-248.73110009711328 L188.11262307453816,-252.14233443029008 L188.20112968178114,-255.20864588061517 L188.3550514517272,-257.9702324744265 L188.57043602415203,-260.46729223806256 L188.84333103883125,-262.7400231978609 L189.16978413554034,-264.8286233801598 L189.54584295405505,-266.7732908112972 L189.96755513415104,-268.6142235176113 L190.43096831560393,-270.39161952544015 L190.93213013818925,-272.1456768611215 L191.46708824168275,-273.91659355099375 L192.03189026586,-275.74456762139476 L192.62258385049665,-277.6697970986626 L193.23521663536832,-279.73248000913543 L193.86583626025063,-281.97281437915115 L194.51049036491924,-284.43099823504787 L195.1652265891498,-287.1472296031636 L195.82609257271787,-290.16170650983645" fill="none" stroke="black" />
</g>
<g>
<path d="M-124.10749332562673,14.892250421325286 L-124.54859483552254,11.331581236500742 L-124.9170344949303,8.119276160847297 L-125.22327245901704,5.214677475292964 L-125.4777688829498,2.577127460765759 L-125.69098392189544,0.16596839819368836 L-125.87337773102094,-2.059457431495237 L-126.03541046549329,-4.139807747373004 L-126.18754228047945,-6.115740268511603 L-126.34023333114644,-8.027912713983023 L-126.5039437726611,-9.916982802859252 L-126.68913376019049,-11.823608254212282 L-126.90626344890156,-13.788446787114092 L-127.16579299396125,-15.852156120636684 L-127.47818255053656,-18.055393973852034 L-127.85389227379443,-20.438818065832145 L-128.30338231890184,-23.043086115648997 L-128.83711284102574,-25.908855842374585 L-129.4655439953331,-29.076784965080883 L-130.1991359369909,-32.5875312028399 L-130.9904191187572,-36.17082428951443 L-131.75116872907572,-39.385906114717216 L-132.4858776469287,-42.275884929455735 L-133.19903875129867,-44.88386898473747 L-133.89514492116788,-47.25296653156988 L-134.57868903551858,-49.426285820960416 L-135.25416397333322,-51.44693510391656 L-135.9260626135941,-53.358022631445785 L-136.5988778352836,-55.20265665455556 L-137.27710251738395,-57.02394542425334 L-137.96522953887757,-58.864997191546614 L-138.6677517787468,-60.76892020744282 L-139.38916211597396,-62.77882272294946 L-140.1339534295414,-64.93781298907398 L-140.90661859843144,-67.28899925682384 L-141.71165050162642,-69.87548977720654 L-142.55354201810874,-72.74039280122953 L-143.4367860268606,-75.92681657990028 L-144.3658754068645,-79.47786936422625 L-145.41729698409313,-83.49505464565999 L-146.41696608371123,-87.10980430348134 L-147.36501895820825,-90.37028946406097 L-148.26159186007368,-93.32468125376973 L-149.10682104179693,-96.02115079897821 L-149.90084275586733,-98.50786922605714 L-150.64379325477444,-100.83300766137724 L-151.33580879100762,-103.04473723130926 L-151.97702561705637,-105.19122906222387 L-152.56757998541005,-107.3206542804918 L-153.1076081485581,-109.48118401248375 L-153.59724635899002,-111.72098938457043 L-154.0366308691952,-114.08824152312258 L-154.42589793166303,-116.63111155451087 L-154.76518379888302,-119.39777060510605 L-155.05462472334455,-122.4363898012788 L-155.29435695753708,-125.7951402693999 L-155.48451675395,-129.52219313583996 L-155.6252403650728,-133.66571952696975 L-155.72519832505884,-137.95690447620782 L-155.7827612447753,-141.82829546566643 L-155.79452172283325,-145.32822325348798 L-155.75707235784378,-148.50501859781502 L-155.6670057484178,-151.40701225679004 L-155.5209144931663,-154.08253498855527 L-155.31539119070018,-156.57991755125332 L-155.04702843963057,-158.94749070302666 L-154.71241883856845,-161.2335852020177 L-154.30815498612466,-163.48653180636882 L-153.83082948091035,-165.75466127422257 L-153.27703492153643,-168.08630436372135 L-152.6433639066139,-170.5297918330076 L-151.9264090347537,-173.1334544402238 L-151.1227629045669,-175.94562294351243 L-150.22901811466448,-179.01462810101583 L-149.2417672636574,-182.38880067087655 L-148.15760295015662,-186.11647141123697 L-146.97311777277318,-190.2459710802396 L-145.83193311006534,-194.22670673745344 L-144.78285922552396,-197.8091413672356 L-143.809698841304,-201.03796612538838 L-142.89625467956054,-203.95787216771413 L-142.0263294624483,-206.613550650015 L-141.1837259121223,-209.04969272809328 L-140.35224675073746,-211.3109895577512 L-139.51569470044876,-213.44213229479118 L-138.65787248341107,-215.4878120950154 L-137.76258282177926,-217.492720114226 L-136.81362843770836,-219.50154750822543 L-135.79481205335327,-221.5589854328159 L-134.68993639086887,-223.70972504379958 L-133.48280417241017,-225.99845749697886 L-132.15721812013203,-228.46987394815596 L-130.6969809561894,-231.16866555313314 L-129.0858954027372,-234.1395234677127 L-127.30776418193037,-237.42713884769682 L-125.34639001592382,-241.0762028488879 L-123.43521498868319,-244.6343428397139 L-121.70131759006019,-247.8345318505641 L-120.12037330882669,-250.71665954127675 L-118.66805763375456,-253.3206155716902 L-117.3200460536155,-255.68628960164256 L-116.05201405718134,-257.85357129097196 L-114.8396371332239,-259.86235029951666 L-113.65859077051505,-261.752516287115 L-112.48455045782651,-263.56395891360506 L-111.29319168393006,-265.336567838825 L-110.06018993759758,-267.11023272261315 L-108.76122070760087,-268.92484322480766 L-107.37195948271169,-270.82028900524676 L-105.86808175170188,-272.83645972376866 L-104.22526300334323,-275.0132450402116 L-102.41917872640755,-277.3905346144137 L-100.42550440966664,-280.00821810621323 L-98.21991554189233,-282.9061851754484 L-95.77808761185639,-286.12432548195744 L-93.35305283166927,-289.32955194959845 L-91.16784481547846,-292.21896997879594 L-89.19139931542328,-294.82723199482155 L-87.39265208364314,-297.18899042294703 L-85.74053887227733,-299.3388976884439 L-84.20399543346517,-301.3116062165837 L-82.75195751934604,-303.1417684326382 L-81.35336088205926,-304.86403676187894 L-79.97714127374424,-306.51306362957763 L-78.59223444654019,-308.12350146100573 L-77.16757615258656,-309.73000268143505 L-75.67210214402267,-311.36721971613713 L-74.07474817298782,-313.0698049903836 L-72.3444499916214,-314.87241092944606 L-70.45014335206272,-316.80968995859615 L-68.36076400645115,-318.9162945031055 L-66.045247706926,-321.22687698824575 L-63.472530205626626,-323.77608983928843 L-60.611547254692375,-326.5985854815053 L-57.69949468166052,-329.47494061332003 L-55.07862694792531,-332.07420243052474 L-52.71158373357245,-334.42517929503344 L-50.56100471868778,-336.5566795687604 L-48.589529583356985,-338.49751161361934 L-46.759798007665786,-340.27648379152424 L-45.03444967169995,-341.9224044643891 L-43.37612425554524,-343.46408199412804 L-41.74746143928739,-344.930324742655 L-40.11110090301213,-346.3499410718837 L-38.42968232680521,-347.75173934372833 L-36.665845390752374,-349.1645279201029 L-34.78222977493937,-350.6171151629213 L-32.74147515945194,-352.13830943409755 L-30.50622122437582,-353.7569190955455 L-28.03910764979677,-355.50175250917937 L-25.302774115800517,-357.401618036913 L-22.259860302472816,-359.48532404066026 L-18.873005889899407,-361.78167888233537 L-15.409043542070584,-364.1253247730292 L-12.284974264983198,-366.24183667911916 L-9.45789993261882,-368.15231343740453 L-6.88492241895902,-369.87785388468524 L-4.523143597985363,-371.43955685776024 L-2.3296653436794097,-372.8585211934288 L-0.2615895300227302,-374.15584572849065 L1.723981969003108,-375.352629299745 L3.6699472794165406,-376.4699707439912 L5.619204527236002,-377.5289688980287 L7.614651838479926,-378.5507225986569 L9.699187339166741,-379.5563306826751 L11.915709155314888,-380.56689198688264 L14.307115412942796,-381.603505348079 L16.916304238068903,-382.68726960306356 L19.786173756711634,-383.8392835886356 L22.95962209488944,-385.0806461415947 L26.479547378620733,-386.43245609874 L30.388847733923964,-387.915812296871 L34.333110135830395,-389.40493219694093 L37.894266261552104,-390.74233991262207 L41.11900413289982,-391.9391061285383 L44.054011771684245,-393.0063015293137 L46.74597719971608,-393.95499679957163 L49.241588438806005,-394.7962626239359 L51.58753351076474,-395.54116968703045 L53.830500437402996,-396.20078867347894 L56.017177240531474,-396.7861902679052 L58.19425194196086,-397.3084451549328 L60.408412563501855,-397.77862401918577 L62.7063471269652,-398.2077975452878 L65.13474365416155,-398.60703641786245 L67.74029016690163,-398.98741132153384 L70.56967468699615,-399.35999294092534 L73.66958523625578,-399.73585196066097 L77.0867098364913,-400.12605906536453 L80.86773650951332,-400.5416849396595 L85.05935327713259,-400.99380026817 L89.2207427156917,-401.43611439917044 L92.9753456007334,-401.821858703037 L96.37093318138237,-402.1511479891395 L99.45527670676333,-402.42409706684793 L102.27614742600086,-402.6408207455318 L104.88131658821962,-402.8014338345608 L107.31855544254428,-402.90605114330475 L109.63563523809952,-402.9547874811334 L111.88032722400999,-402.9477576574167 L114.1004026494003,-402.8850764815239 L116.34363276339515,-402.76685876282517 L118.65778881511918,-402.5932193106901 L121.09064205369705,-402.3642729344883 L123.68996372825342,-402.0801344435898 L126.50352508791295,-401.74091864736414 L129.5790973818003,-401.3467403551811 L132.96445185904008,-400.8977143764105 L136.70735976875702,-400.3939555204219 L140.85559236007572,-399.83557859658526 L144.72069532416367,-399.28792918886415 L148.19091065542526,-398.7375353801323 L151.31230362188325,-398.1825283353522 L154.13093949156053,-397.62103921948653 L156.69288353247973,-397.05119919749774 L159.0442010126637,-396.4711394343481 L161.23095720013524,-395.8789910950005 L163.2992173629171,-395.2728853444173 L165.29504676903213,-394.65095334756114 L167.26451068650292,-394.0113262693943 L169.25367438335246,-393.35213527487963 L171.30860312760348,-392.67151152897935 L173.47536218727868,-391.96758619665604 L175.80001683040092,-391.23849044287243 L178.32863232499295,-390.48235543259085 L181.10727393907754,-389.69731233077385 L184.1820069406775,-388.881492302384 L187.59889659781558,-388.0330265123838 L191.4040081785146,-387.1500461257358 L195.27365993397663,-386.31769231332964 L198.77635956316422,-385.63249371620657 L201.95443740055694,-385.07421220851916 L204.85022378063434,-384.6226096644201 L207.5060490378757,-384.2574479580618 L209.96424350676054,-383.95848896359666 L212.26713752176843,-383.70549455517744 L214.4570614173788,-383.4782266069566 L216.57634552807107,-383.2564469930867 L218.66732018832465,-383.01991758772004 L220.77231573261912,-382.7484002650094 L222.93366249543394,-382.4216568991074 L225.19369081124847,-382.01944936416635 L227.5947310145423,-381.5215395343388 L230.1791134397948,-380.90768928377736 L232.9891684214855,-380.1576604866346 L236.0672262940938,-379.25121501706303 L239.45561739209924,-378.1681147492151 L243.19667204998126,-376.8881215572434 L247.4069587825048,-375.4255136501801 L251.2311411080567,-374.1304043116012 L254.70904157449206,-372.9735441034054 L257.880482729666,-371.92568358749156 L260.7852871214335,-370.95757332575795 L263.46327729764937,-370.03996388010313 L265.9542758061688,-369.1436058124259 L268.2981051948469,-368.2392496846247 L270.53458801153863,-367.2976460585983 L272.7035468040989,-366.289545496245 L274.8448041203828,-365.1856985594636 L276.99818250824535,-363.95685581015266 L279.2035045155415,-362.5737678102107 L281.50059269012644,-361.0071851215364 L283.92926957985503,-359.2278583060282 L286.52935773258235,-357.20653792558494 L289.3406796961635,-354.9139745421049 L292.4030580184533,-352.32091871748685 L295.756315247307,-349.39812101362935 L298.9543444170684,-346.524966424993 L301.77681736595036,-343.8782533222999 L304.26109613504525,-341.4257142725932 L306.44454276544553,-339.1350818429163 L308.36451929824347,-336.97408860031203 L310.0583877745312,-334.9104671118237 L311.5635102354012,-332.91194994449427 L312.91724872194584,-330.94626966536737 L314.15696527525745,-328.9811588414858 L315.3200219364282,-326.98435003989266 L316.4437807465505,-324.9235758276312 L317.56560374671676,-322.76656877174474 L318.7228529780192,-320.48106143927623 L319.9528904815502,-318.0347863972688 L321.29307829840207,-315.39547621276586 L322.78077846966704,-312.5308634528103 L324.45335303643765,-309.40868068444536 L326.34816403980597,-305.9966604747142 L328.50257352086453,-302.26253539066005 L330.50794414102353,-298.8388889938209 L332.3017408405977,-295.74689520627805 L333.9060343299871,-292.9461020928181 L335.34289531959195,-290.39605771822767 L336.6343945198123,-288.05631014729283 L337.80260264104805,-285.88640744480006 L338.8695903936994,-283.84589767553587 L339.85742848816665,-281.89432890428674 L340.7881876348496,-279.9912491958389 L341.6839385441483,-278.0962066149788 L342.5667519264631,-276.16874922649293 L343.458698492194,-274.1684250951678 L344.381848951741,-272.05478228578954 L345.3582740155042,-269.78736886314476 L346.4100443938838,-267.3257328920198 L347.5592307972797,-264.62942243720113 L348.82790393609224,-261.65798556347517 L350.2381345207213,-258.3709703356282 L351.811993261567,-254.72792481844684 L353.50724449270297,-250.8953066319124 L355.0891835079407,-247.45543050413957 L356.5650051587698,-244.36024965765682 L357.9419042966801,-241.5617173149927 L359.227075773161,-239.01178669867545 L360.42771443970196,-236.66241103123346 L361.55101514779255,-234.46554353519525 L362.60417274892274,-232.3731374330892 L363.59438209458176,-230.3371459474438 L364.52883803625923,-228.30952230078725 L365.4147354254447,-226.2422197156481 L366.25926911362774,-224.08719141455478 L367.06963395229803,-221.79639062003565 L367.8530247929451,-219.32177055461915 L368.6166364870585,-216.61528444083368 L369.36766388612773,-213.62888550120763 L370.11330184164257,-210.31452695826945 L370.86074520509237,-206.62416203454754 L371.6171888279668,-202.5097439525703 L372.4587524285445,-197.91796912335286 L373.2810142513794,-193.7425855108262 L374.0699524857069,-189.93623756551236 L374.8115453207623,-186.45156973793334 L375.4917709457809,-183.24122647861103 L376.0966075499976,-180.25785223806736 L376.6120333226479,-177.45409146682437 L377.0240264529672,-174.78258861540408 L377.31856513019045,-172.19598813432836 L377.48162754355303,-169.64693447411912 L377.4991918822901,-167.08807208529848 L377.3572363356371,-164.4720454183883 L377.04173909282906,-161.75149892391053 L376.53867834310137,-158.87907705238717 L375.83403227568925,-155.80742425434028 L374.91377907982786,-152.48918498029167 L373.76389694475256,-148.87700368076338 L372.37036405969855,-144.92352480627736 L370.7191586139011,-140.58139280735557 L368.8680574070111,-135.90995959601355 L367.13694864117474,-131.67324811487418 L365.4949231247742,-127.83499039359704 L363.9110716661915,-124.35891846184198 L362.35448507380886,-121.20876434926852 L360.7942541560079,-118.3482600855363 L359.19946972117117,-115.74113770030505 L357.53922257768056,-113.35112922323442 L355.7826035339183,-111.14196668398408 L353.8987033982661,-109.07738211221361 L351.85661297910633,-107.12110753758277 L349.625423084821,-105.23687498975119 L347.17422452379213,-103.38841649837849 L344.47210810440185,-101.53946409312437 L341.48816463503215,-99.65374980364847 L338.1914849240652,-97.69500565961044 L334.55115977988305,-95.62696369066998 L330.53628001086776,-93.41335592648672 L326.1159364254014,-91.01791439672033 L321.6799651090127,-88.64946817516726 L317.6236573680213,-86.54335434598173 L313.89884113764583,-84.68934591653974 L310.4573443531052,-83.07721589421746 L307.25099494961773,-81.69673728639077 L304.2316208624021,-80.53768310043573 L301.3510500266769,-79.5898263437284 L298.56111037766095,-78.84294002364479 L295.8136298505726,-78.28679714756095 L293.0604363806306,-77.9111707228528 L290.25335790305365,-77.70583375689648 L287.3442223530602,-77.660559257068 L284.284857665869,-77.76512023074334 L281.0270917766986,-78.00928968529854 L277.52275262076773,-78.38284062810965 L273.7236681332948,-78.87554606655269 L269.5816662494986,-79.47717900800366 L265.04857490459773,-80.1775124598386 L260.0762220338107,-80.96631942943354 L255.2273441869397,-81.74130093323808 L250.81143413008348,-82.46421410094088 L246.7871291678289,-83.15931923533725 L243.11306660476288,-83.85087663922258 L239.74788374547188,-84.56314661539211 L236.6502178945427,-85.32038946664117 L233.77870635656214,-86.14686549576513 L231.09198643611705,-87.06683500555928 L228.54869543779404,-88.10455829881896 L226.1074706661798,-89.28429567833943 L223.72694942586122,-90.63030744691608 L221.3657690214249,-92.1668539073442 L218.98256675745773,-93.91819536241913 L216.53597993854635,-95.90859211493617 L213.98464586927753,-98.16230446769063 L211.287201854238,-100.70359272347787 L208.40228519801454,-103.55671718509318 L205.28853320519386,-106.74593815533188 L201.90458318036272,-110.2955159369893 L198.8914910083924,-113.57412968173371 L196.2806673306743,-116.60644458701253 L194.03569520264918,-119.42793391851323 L192.12015767975782,-122.0740709419233 L190.4976378174407,-124.58032892293011 L189.13171867113854,-126.98218112722108 L187.98598329629203,-129.31510082048365 L187.02401474834187,-131.61456126840528 L186.20939608272872,-133.9160357366734 L185.5057103548931,-136.25499749097537 L184.87654062027588,-138.66691979699868 L184.28546993431758,-141.18727592043075 L183.69608135245892,-143.851539126959 L183.07195793014057,-146.69518268227088 L182.3766827228032,-149.75367985205384 L181.57383878588743,-153.0625039019952 L180.62700917483403,-156.6571280977825 L179.49977694508354,-160.57302570510316 L178.15572515207668,-164.84566998964456 L176.8702677059315,-168.75593655913798 L175.71024647301252,-172.28218673264467 L174.66616922055317,-175.4707568577713 L173.72854371578714,-178.36798328212473 L172.88787772594776,-181.0202023533115 L172.13467901826843,-183.47375041893818 L171.45945535998266,-185.77496382661167 L170.85271451832403,-187.97017892393853 L170.30496426052588,-190.10573205852552 L169.8067123538217,-192.22795957797922 L169.34846656544502,-194.38319782990632 L168.9207346626292,-196.6177831619136 L168.5140244126078,-198.97805192160763 L168.11884358261426,-201.5103404565952 L167.72569993988205,-204.26098511448288 L167.32510125164458,-207.27632224287743 L166.90755528513543,-210.6026881893855 L166.46356980758796,-214.28641930161373 L165.9836525862357,-218.37385192716891 L165.49546152157524,-222.52371039460115 L165.04896269148074,-226.26829518147514 L164.6459023200994,-229.6552419196674 L164.28802663157867,-232.73218624105456 L163.97708185006576,-235.54676377751304 L163.71481419970786,-238.1466101609193 L163.5029699046524,-240.57936102314994 L163.34329518904661,-242.89265199608158 L163.23753627703783,-245.1341187115906 L163.18743939277323,-247.3513968015535 L163.1947507604002,-249.59212189784682 L163.26121660406608,-251.90392963234714 L163.38858314791804,-254.33445563693095 L163.57859661610337,-256.93133554347475 L163.83300323276944,-259.7422049838551 L164.15354922206348,-262.8146995899485 L164.54198080813285,-266.19645499363145 L165.00004421512472,-269.93510682678044 L165.5294856671865,-274.0782907212721 L165.76875584300072,-275.82103516672885 L166.01040815320292,-277.385632256096 L166.25570499329277,-278.7927317042548 L166.50590875877,-280.0629832260861 L166.7622818451341,-281.2170365364709 L167.02608664788468,-282.27554135029004 L167.2985855625214,-283.25914738242454 L167.58104098454382,-284.18850434775555 L167.87471530945163,-285.0842619611638 L168.18087093274437,-285.96706993753025 L168.50077024992163,-286.857577991736 L168.8356756564831,-287.77643583866194 L169.18684954792832,-288.74429319318904 L169.55555431975694,-289.78179977019823 L169.94305236746857,-290.90960528457055 L170.3506060865628,-292.14835945118693 L170.7794778725393,-293.5187119849283 L171.23093012089757,-295.0413126006756" fill="none" stroke="black" />
</g>
</svg>