<?xml version="1.0" encoding="UTF-8"?>
<svg xmlns="http://www.w3.org/2000/svg" xmlns:xlink="http://www.w3.org/1999/xlink"
     width="691.479859497432" height="812.5" viewBox="-106.47985949743202 -112.5 691.479859497432 812.5" stroke="black" fill="none">
<defs>
</defs>
<path d="M-106.47985949743202,700.0 L585.0,700.0" stroke="#dddddd" />
<path d="M-106.47985949743202,650.0 L585.0,650.0" stroke="#dddddd" stroke-dasharray="5" />
<path d="M-106.47985949743202,600.0 L585.0,600.0" stroke="#dddddd" stroke-dasharray="5" />
<path d="M-106.47985949743202,550.0 L585.0,550.0" stroke="#dddddd" stroke-dasharray="5" />
<path d="M-106.47985949743202,500.0 L585.0,500.0" stroke="#dddddd" stroke-dasharray="5" />
<path d="M-106.47985949743202,450.0 L585.0,450.0" stroke="#dddddd" />
<path d="M-106.47985949743202,400.0 L585.0,400.0" stroke="#dddddd" stroke-dasharray="5" />
<path d="M-106.47985949743202,350.0 L585.0,350.0" stroke="#dddddd" stroke-dasharray="5" />
<path d="M-106.47985949743202,300.0 L585.0,300.0" stroke="#dddddd" stroke-dasharray="5" />
<path d="M-106.47985949743202,250.0 L585.0,250.0" stroke="#dddddd" stroke-dasharray="5" />
<path d="M-106.47985949743202,200.0 L585.0,200.0" stroke="#dddddd" />
<path d="M-106.47985949743202,150.0 L585.0,150.0" stroke="#dddddd" stroke-dasharray="5" />
<path d="M-106.47985949743202,100.0 L585.0,100.0" stroke="#dddddd" stroke-dasharray="5" />
<path d="M-106.47985949743202,50.0 L585.0,50.0" stroke="#dddddd" stroke-dasharray="5" />
<path d="M-106.47985949743202,-0.0 L585.0,-0.0" stroke="#dddddd" stroke-dasharray="5" />
<path d="M-106.47985949743202,-50.0 L585.0,-50.0" stroke="#dddddd" />
<path d="M-106.47985949743202,-100.0 L585.0,-100.0" stroke="#dddddd" stroke-dasharray="5" />
<path d="M-106.47985949743202,700.0 L-106.47985949743202,-112.5" stroke="#dddddd" />
<path d="M-56.47985949743202,700.0 L-56.47985949743202,-112.5" stroke="#dddddd" stroke-dasharray="5" />
<path d="M-6.479859497432017,700.0 L-6.479859497432017,-112.5" stroke="#dddddd" stroke-dasharray="5" />
<path d="M43.52014050256798,700.0 L43.52014050256798,-112.5" stroke="#dddddd" stroke-dasharray="5" />
<path d="M93.52014050256798,700.0 L93.52014050256798,-112.5" stroke="#dddddd" stroke-dasharray="5" />
<path d="M143.52014050256798,700.0 L143.52014050256798,-112.5" stroke="#dddddd" />
<path d="M193.52014050256798,700.0 L193.52014050256798,-112.5" stroke="#dddddd" stroke-dasharray="5" />
<path d="M243.52014050256798,700.0 L243.52014050256798,-112.5" stroke="#dddddd" stroke-dasharray="5" />
<path d="M293.520140502568,700.0 L293.520140502568,-112.5" stroke="#dddddd" stroke-dasharray="5" />
<path d="M343.520140502568,700.0 L343.520140502568,-112.5" stroke="#dddddd" stroke-dasharray="5" />
<path d="M393.520140502568,700.0 L393.520140502568,-112.5" stroke="#dddddd" />
<path d="M443.520140502568,700.0 L443.520140502568,-112.5" stroke="#dddddd" stroke-dasharray="5" />
<path d="M493.520140502568,700.0 L493.520140502568,-112.5" stroke="#dddddd" stroke-dasharray="5" />
<path d="M543.520140502568,700.0 L543.520140502568,-112.5" stroke="#dddddd" stroke-dasharray="5" />
<g>
<g>
<path d="M0.0,-0.0 L0,600.0 L485.0,600.0 L485.0,0 L366.64565029271466,-7.685347383589959 L-6.479859497432021,99.78983626048066 L346.68768304061854,-8.981319283076719 L292.5,-12.5 L250.0,206.0 L212.5,-12.5 L151.6494103984168,-8.920553552848046 L7.340252743933462,124.78429664687451 L131.68392293491686,-7.746113113818639 L80.81607706508312,-4.753886886181361 L8.221083073205477,139.75841224449945 L60.8505896015832,-3.579446447151953 L0,0" fill="none" stroke="black" />
</g>
<g>
<circle cx="0" cy="0" r="1" fill="black" />
<text x="2" y="-2" font-size="12" fill="#000000" stroke="none" dy="0em">14</text>
</g>
<g>
<circle cx="0" cy="0" r="1" fill="black" />
<text x="2" y="-2" font-size="12" fill="#000000" stroke="none" dy="0em">1</text>
</g>
<g>
<circle cx="485.0" cy="0" r="1" fill="black" />
<text x="487.0" y="-2" font-size="12" fill="#000000" stroke="none" dy="0em">2</text>
</g>
<g>
<circle cx="0" cy="600.0" r="1" fill="black" />
<text x="2" y="598.0" font-size="12" fill="#000000" stroke="none" dy="0em">3</text>
</g>
<g>
<circle cx="485.0" cy="600.0" r="1" fill="black" />
<text x="487.0" y="598.0" font-size="12" fill="#000000" stroke="none" dy="0em">4</text>
</g>
<g>
<circle cx="0" cy="206.0" r="1" fill="black" />
<text x="2" y="204.0" font-size="12" fill="#000000" stroke="none" dy="0em">5</text>
</g>
<g>
<circle cx="485.0" cy="206.0" r="1" fill="black" />
<text x="487.0" y="204.0" font-size="12" fill="#000000" stroke="none" dy="0em">6</text>
</g>
<g>
<circle cx="250.0" cy="206.0" r="1" fill="black" />
<text x="252.0" y="204.0" font-size="12" fill="#000000" stroke="none" dy="0em">7</text>
</g>
<g>
<circle cx="250.0" cy="600.0" r="1" fill="black" />
<text x="252.0" y="598.0" font-size="12" fill="#000000" stroke="none" dy="0em">8</text>
</g>
<g>
<circle cx="212.5" cy="0" r="1" fill="black" />
<text x="214.5" y="-2" font-size="12" fill="#000000" stroke="none" dy="0em">9</text>
</g>
<g>
<circle cx="212.5" cy="-12.5" r="1" fill="black" />
<text x="214.5" y="-14.5" font-size="12" fill="#000000" stroke="none" dy="0em">10</text>
</g>
<g>
<circle cx="70.83333333333333" cy="-4.166666666666666" r="1" fill="black" />
<text x="72.83333333333333" y="-6.166666666666666" font-size="12" fill="#000000" stroke="none" dy="0em">11</text>
</g>
<g>
<circle cx="141.66666666666666" cy="-8.333333333333332" r="1" fill="black" />
<text x="143.66666666666666" y="-10.333333333333332" font-size="12" fill="#000000" stroke="none" dy="0em">12</text>
</g>
<g>
<circle cx="0" cy="0" r="1" fill="black" />
<text x="2" y="-2" font-size="12" fill="#000000" stroke="none" dy="0em">14</text>
</g>
<g>
<circle cx="0" cy="0" r="1" fill="black" />
<text x="2" y="-2" font-size="12" fill="#000000" stroke="none" dy="0em">14</text>
</g>
<g>
<circle cx="292.5" cy="0" r="1" fill="black" />
<text x="294.5" y="-2" font-size="12" fill="#000000" stroke="none" dy="0em">15</text>
</g>
<g>
<circle cx="292.5" cy="-12.5" r="1" fill="black" />
<text x="294.5" y="-14.5" font-size="12" fill="#000000" stroke="none" dy="0em">16</text>
</g>
<g>
<circle cx="356.66666666666663" cy="-8.333333333333334" r="1" fill="black" />
<text x="358.66666666666663" y="-10.333333333333334" font-size="12" fill="#000000" stroke="none" dy="0em">17</text>
</g>
</g>
</svg>