<?xml version="1.0" encoding="UTF-8"?>
<svg xmlns="http://www.w3.org/2000/svg" xmlns:xlink="http://www.w3.org/1999/xlink"
     width="839.5329592877888" height="2030.0" viewBox="-150 -150.0 839.5329592877888 2030.0" stroke="black" fill="none">
<defs>
<path d="M-50.0,1784.0 L-50.0,1884.0" id="d0" />
<path d="M-30.0,1784.0 L-30.0,1884.0" id="d1" />
<path d="M-9.999999999999993,1784.0 L-9.999999999999993,1884.0" id="d2" />
<path d="M10.000000000000007,1784.0 L10.000000000000007,1884.0" id="d3" />
<path d="M30.000000000000014,1783.9999999999998 L30.000000000000014,1883.9999999999998" id="d4" />
<path d="M50.0,1784.0 L50.0,1884.0" id="d5" />
<path d="M70.00000000000001,1784.0 L70.00000000000001,1884.0" id="d6" />
<path d="M89.99999999999999,1784.0 L89.99999999999999,1884.0" id="d7" />
<path d="M110.00000000000003,1784.0 L110.00000000000003,1884.0" id="d8" />
<path d="M130.0,1784.0 L130.0,1884.0" id="d9" />
<path d="M150.0,1783.9999999999998 L150.0,1883.9999999999998" id="d10" />
<path d="M170.0,1784.0 L170.0,1884.0" id="d11" />
<path d="M190.00000000000003,1784.0 L190.00000000000003,1884.0" id="d12" />
<path d="M210.0,1784.0 L210.0,1884.0" id="d13" />
<path d="M229.99999999999997,1784.0 L229.99999999999997,1884.0" id="d14" />
<path d="M250.0,1784.0 L250.0,1884.0" id="d15" />
<path d="M270.00000000000006,1784.0 L270.00000000000006,1884.0" id="d16" />
<path d="M290.0,1784.0 L290.0,1884.0" id="d17" />
<path d="M310.0,1784.0 L310.0,1884.0" id="d18" />
<path d="M330.0,1784.0 L330.0,1884.0" id="d19" />
<path d="M350.0,1784.0 L350.0,1884.0" id="d20" />
<path d="M369.99999999999994,1784.0 L369.99999999999994,1884.0" id="d21" />
<path d="M390.0,1784.0 L390.0,1884.0" id="d22" />
<path d="M409.99999999999994,1784.0 L409.99999999999994,1884.0" id="d23" />
<path d="M430.00000000000006,1784.0 L430.00000000000006,1884.0" id="d24" />
<path d="M450.00000000000006,1784.0 L450.00000000000006,1884.0" id="d25" />
<path d="M470.0,1784.0 L470.0,1884.0" id="d26" />
<path d="M490.00000000000006,1784.0 L490.00000000000006,1884.0" id="d27" />
<path d="M509.99999999999994,1784.0 L509.99999999999994,1884.0" id="d28" />
<path d="M529.9999999999999,1784.0 L529.9999999999999,1884.0" id="d29" />
<path d="M550.0,1784.0 L550.0,1884.0" id="d30" />
<path d="M570.0,1784.0 L570.0,1884.0" id="d31" />
<path d="M593.5329592877888,1780.0 L693.5329592877888,1780.0" id="d32" />
<path d="M593.5329592877888,1760.0 L693.5329592877888,1760.0" id="d33" />
<path d="M593.5329592877888,1740.0 L693.5329592877888,1740.0" id="d34" />
<path d="M593.5329592877888,1720.0 L693.5329592877888,1720.0" id="d35" />
<path d="M593.5329592877888,1699.9999999999998 L693.5329592877888,1699.9999999999998" id="d36" />
<path d="M593.5329592877888,1680.0 L693.5329592877888,1680.0" id="d37" />
<path d="M593.5329592877888,1660.0000000000002 L693.5329592877888,1660.0000000000002" id="d38" />
<path d="M593.5329592877888,1640.0 L693.5329592877888,1640.0" id="d39" />
<path d="M593.5329592877888,1620.0 L693.5329592877888,1620.0" id="d40" />
<path d="M593.5329592877888,1600.0 L693.5329592877888,1600.0" id="d41" />
<path d="M593.5329592877888,1580.0 L693.5329592877888,1580.0" id="d42" />
<path d="M593.5329592877888,1559.9999999999998 L693.5329592877888,1559.9999999999998" id="d43" />
<path d="M593.5329592877888,1540.0 L693.5329592877888,1540.0" id="d44" />
<path d="M593.5329592877888,1520.0000000000002 L693.5329592877888,1520.0000000000002" id="d45" />
<path d="M593.5329592877888,1500.0 L693.5329592877888,1500.0" id="d46" />
<path d="M593.5329592877888,1480.0000000000002 L693.5329592877888,1480.0000000000002" id="d47" />
<path d="M593.5329592877888,1460.0 L693.5329592877888,1460.0" id="d48" />
<path d="M593.5329592877888,1440.0 L693.5329592877888,1440.0" id="d49" />
<path d="M593.5329592877888,1420.0000000000002 L693.5329592877888,1420.0000000000002" id="d50" />
<path d="M593.5329592877888,1400.0 L693.5329592877888,1400.0" id="d51" />
<path d="M593.5329592877888,1380.0 L693.5329592877888,1380.0" id="d52" />
<path d="M593.5329592877888,1359.9999999999998 L693.5329592877888,1359.9999999999998" id="d53" />
<path d="M593.5329592877888,1340.0 L693.5329592877888,1340.0" id="d54" />
<path d="M593.5329592877888,1319.9999999999998 L693.5329592877888,1319.9999999999998" id="d55" />
<path d="M593.5329592877888,1299.9999999999998 L693.5329592877888,1299.9999999999998" id="d56" />
<path d="M593.5329592877888,1280.0 L693.5329592877888,1280.0" id="d57" />
<path d="M593.5329592877888,1260.0 L693.5329592877888,1260.0" id="d58" />
<path d="M593.5329592877888,1240.0 L693.5329592877888,1240.0" id="d59" />
<path d="M593.5329592877888,1220.0 L693.5329592877888,1220.0" id="d60" />
<path d="M593.5329592877888,1200.0 L693.5329592877888,1200.0" id="d61" />
<path d="M593.5329592877888,1180.0000000000002 L693.5329592877888,1180.0000000000002" id="d62" />
<path d="M593.5329592877888,1160.0 L693.5329592877888,1160.0" id="d63" />
<path d="M593.5329592877888,1140.0000000000002 L693.5329592877888,1140.0000000000002" id="d64" />
<path d="M593.5329592877888,1120.0 L693.5329592877888,1120.0" id="d65" />
<path d="M593.5329592877888,1100.0 L693.5329592877888,1100.0" id="d66" />
<path d="M593.5329592877888,1080.0 L693.5329592877888,1080.0" id="d67" />
<path d="M593.5329592877888,1060.0 L693.5329592877888,1060.0" id="d68" />
<path d="M593.5329592877888,1040.0 L693.5329592877888,1040.0" id="d69" />
<path d="M593.5329592877888,1020.0 L693.5329592877888,1020.0" id="d70" />
<path d="M593.5329592877888,1000.0 L693.5329592877888,1000.0" id="d71" />
<path d="M593.5329592877888,980.0 L693.5329592877888,980.0" id="d72" />
<path d="M593.5329592877888,959.9999999999999 L693.5329592877888,959.9999999999999" id="d73" />
<path d="M593.5329592877888,939.9999999999999 L693.5329592877888,939.9999999999999" id="d74" />
<path d="M593.5329592877888,919.9999999999998 L693.5329592877888,919.9999999999998" id="d75" />
<path d="M593.5329592877888,900.0 L693.5329592877888,900.0" id="d76" />
<path d="M593.5329592877888,880.0000000000001 L693.5329592877888,880.0000000000001" id="d77" />
<path d="M593.5329592877888,860.0 L693.5329592877888,860.0" id="d78" />
<path d="M593.5329592877888,840.0 L693.5329592877888,840.0" id="d79" />
<path d="M593.5329592877888,819.9999999999999 L693.5329592877888,819.9999999999999" id="d80" />
<path d="M593.5329592877888,799.9999999999999 L693.5329592877888,799.9999999999999" id="d81" />
<path d="M593.5329592877888,779.9999999999999 L693.5329592877888,779.9999999999999" id="d82" />
<path d="M593.5329592877888,760.0000000000001 L693.5329592877888,760.0000000000001" id="d83" />
<path d="M593.5329592877888,740.0000000000001 L693.5329592877888,740.0000000000001" id="d84" />
<path d="M593.5329592877888,720.0 L693.5329592877888,720.0" id="d85" />
<path d="M593.5329592877888,700.0 L693.5329592877888,700.0" id="d86" />
<path d="M593.5329592877888,680.0 L693.5329592877888,680.0" id="d87" />
<path d="M593.5329592877888,659.9999999999999 L693.5329592877888,659.9999999999999" id="d88" />
<path d="M593.5329592877888,640.0 L693.5329592877888,640.0" id="d89" />
<path d="M593.5329592877888,620.0 L693.5329592877888,620.0" id="d90" />
<path d="M593.5329592877888,599.9999999999999 L693.5329592877888,599.9999999999999" id="d91" />
<path d="M593.5329592877888,580.0000000000001 L693.5329592877888,580.0000000000001" id="d92" />
<path d="M593.5329592877888,560.0 L693.5329592877888,560.0" id="d93" />
<path d="M593.5329592877888,540.0 L693.5329592877888,540.0" id="d94" />
<path d="M593.5329592877888,520.0000000000001 L693.5329592877888,520.0000000000001" id="d95" />
<path d="M593.5329592877888,500.0 L693.5329592877888,500.0" id="d96" />
<path d="M593.5329592877888,480.0 L693.5329592877888,480.0" id="d97" />
<path d="M593.5329592877888,459.99999999999994 L693.5329592877888,459.99999999999994" id="d98" />
<path d="M593.5329592877888,439.99999999999994 L693.5329592877888,439.99999999999994" id="d99" />
<path d="M593.5329592877888,419.9999999999999 L693.5329592877888,419.9999999999999" id="d100" />
<path d="M593.5329592877888,400.00000000000006 L693.5329592877888,400.00000000000006" id="d101" />
<path d="M593.5329592877888,380.0000000000001 L693.5329592877888,380.0000000000001" id="d102" />
<path d="M593.5329592877888,360.00000000000006 L693.5329592877888,360.00000000000006" id="d103" />
<path d="M593.5329592877888,340.0 L693.5329592877888,340.0" id="d104" />
<path d="M593.5329592877888,320.0 L693.5329592877888,320.0" id="d105" />
<path d="M593.5329592877888,300.0 L693.5329592877888,300.0" id="d106" />
<path d="M593.5329592877888,279.99999999999994 L693.5329592877888,279.99999999999994" id="d107" />
<path d="M593.5329592877888,259.99999999999994 L693.5329592877888,259.99999999999994" id="d108" />
<path d="M593.5329592877888,239.9999999999999 L693.5329592877888,239.9999999999999" id="d109" />
<path d="M593.5329592877888,220.00000000000009 L693.5329592877888,220.00000000000009" id="d110" />
<path d="M593.5329592877888,200.00000000000006 L693.5329592877888,200.00000000000006" id="d111" />
<path d="M593.5329592877888,180.00000000000006 L693.5329592877888,180.00000000000006" id="d112" />
<path d="M593.5329592877888,160.00000000000003 L693.5329592877888,160.00000000000003" id="d113" />
<path d="M593.5329592877888,140.0 L693.5329592877888,140.0" id="d114" />
<path d="M593.5329592877888,119.99999999999997 L693.5329592877888,119.99999999999997" id="d115" />
<path d="M593.5329592877888,99.99999999999997 L693.5329592877888,99.99999999999997" id="d116" />
<path d="M593.5329592877888,79.99999999999994 L693.5329592877888,79.99999999999994" id="d117" />
<path d="M593.5329592877888,59.99999999999992 L693.5329592877888,59.99999999999992" id="d118" />
<path d="M593.5329592877888,40.0000000000001 L693.5329592877888,40.0000000000001" id="d119" />
<path d="M593.5329592877888,20.000000000000078 L693.5329592877888,20.000000000000078" id="d120" />
<path d="M593.5329592877888,4.973799150320701e-14 L693.5329592877888,4.973799150320701e-14" id="d121" />
<path d="M593.5329592877888,-19.999999999999968 L693.5329592877888,-19.999999999999968" id="d122" />
<path d="M593.5329592877888,-39.999999999999986 L693.5329592877888,-39.999999999999986" id="d123" />
</defs>
<g>
<path d="M115.38733374162412,0.0 L116.43259954362662,10.0 L117.47786534562914,20.0 L118.52313114763164,30.0 L119.56839694963415,40.0 L120.61366275163667,50.0 L121.65892855363919,60.0 L122.70419435564169,70.0 L123.74946015764418,80.0 L124.79472595964668,90.0 L125.8399917616492,100.0 L126.8852575636517,110.0 L127.93052336565422,120.0 L128.97578916765673,130.0 L130.02105496965925,140.0 L131.06632077166174,150.0 L132.11158657366423,160.0 L133.15685237566674,170.0 L134.20211817766926,180.0 L135.24738397967178,190.0 L136.29264978167427,200.0 L137.3379155836768,210.0 L138.38318138567928,220.0 L139.4284471876818,230.0 L140.47371298968432,240.0 L141.5189787916868,250.0 L142.56424459368932,260.0 L143.6808196214659,270.0 L144.92750349130705,280.0 L146.1741873611482,290.0 L147.42087123098938,300.0 L148.66755510083053,310.0 L149.9142389706717,320.0 L151.16092284051285,330.0 L152.407606710354,340.0 L153.65429058019515,350.0 L154.90097445003636,360.0 L156.1476583198775,370.0 L157.39434218971866,380.0 L158.6410260595598,390.0 L159.88770992940098,400.0 L161.13439379924213,410.0 L162.38107766908328,420.0 L163.62776153892446,430.0 L164.8744454087656,440.0 L166.12112927860676,450.0 L167.36781314844794,460.0 L168.6144970182891,470.0 L169.86118088813026,480.0 L171.1078647579714,490.0 L172.35454862781256,500.0 L173.60123249765374,510.0 L174.8479163674949,520.0 L176.09460023733607,530.0 L177.34128410717722,540.0 L178.58796797701837,550.0 L179.83465184685951,560.0 L181.0813357167007,570.0 L182.32801958654184,580.0 L183.57470345638302,590.0 L184.82138732622417,600.0 L186.06807119606532,610.0 L187.3147550659065,620.0 L188.56143893574765,630.0 L189.80812280558882,640.0 L191.07199066325677,650.0 L192.62971643917848,660.0 L194.77737314415324,670.0 L197.47351292148716,680.0 L200.70943998087944,690.0 L204.47480129519278,700.0 L208.75761791756997,710.0 L213.54432088602908,720.0 L218.81979161871374,730.0 L224.56740669229472,740.0 L230.76908688555852,750.0 L237.4053503599898,760.0 L244.47167824477097,770.0 L251.95204738467464,780.0 L259.79447488400234,790.0 L267.97404774394914,800.0 L276.4648245374243,810.0 L285.2399127684688,820.0 L294.27154889147505,830.0 L303.53118077747024,840.0 L312.9895524089693,850.0 L322.61679057960123,860.0 L332.38249336984853,870.0 L342.2583262871538,880.0 L352.2108069545786,890.0 L362.20043585947667,900.0 L372.1956127060497,910.0 L382.16473110364575,920.0 L392.0762723618219,930.0 L401.898898999047,940.0 L411.6015477178821,950.0 L421.15352160086627,960.0 L430.5245812832127,970.0 L439.68503486079504,980.0 L448.5981403034289,990.0 L457.21665573100057,1000.0 L465.53319249738314,1010.0 L473.52155138244933,1020.0 L481.1565517692968,1030.0 L488.4141059767206,1040.0 L495.2712904686796,1050.0 L501.7064137538667,1060.0 L507.6990807964819,1070.0 L513.2302537676597,1080.0 L518.2823089756909,1090.0 L522.8281836098788,1100.0 L526.8167177326329,1110.0 L530.2796389473096,1120.0 L533.2061716693156,1130.0 L535.5871939025709,1140.0 L537.41526365887,1150.0 L538.6846406132331,1160.0 L539.3913029402295,1170.0 L539.5329592877888,1180.0 L539.1090558566317,1190.0 L538.1207785651294,1200.0 L536.5630527892076,1210.0 L534.3961580085612,1220.0 L531.6810477110578,1230.0 L528.4264925549747,1240.0 L524.6429190840365,1250.0 L520.342378120162,1260.0 L515.5385085752118,1270.0 L510.2464967796768,1280.0 L504.48303143690475,1290.0 L498.26625432187996,1300.0 L491.6157068537711,1310.0 L484.54937896898997,1320.0 L477.05559513588923,1330.0 L469.2006751855106,1340.0 L461.0095814186561,1350.0 L452.5083007301723,1360.0 L443.72376707009334,1370.0 L434.68378126081996,1380.0 L425.41692838372194,1390.0 L415.9524929542373,1400.0 L406.3203721097776,1410.0 L396.55098703954314,1420.0 L386.6751541222378,1430.0 L376.7202061009433,1440.0 L366.72933450581127,1450.0 L356.7341445369709,1460.0 L346.76624263686176,1470.0 L336.8571426949667,1480.0 L327.038172558057,1490.0 L317.3403810930353,1500.0 L307.79444604800113,1510.0 L298.43058295520626,1520.0 L289.27845531712615,1530.0 L280.36708631394146,1540.0 L271.75625687769406,1550.0 L263.4502018473267,1560.0 L255.47334263689393,1570.0 L247.85081447933607,1580.0 L240.60665583366705,1590.0 L233.76373736976555,1600.0 L227.3436942774435,1610.0 L221.36686207786914,1620.0 L215.85221610701686,1630.0 L210.81731483207597,1640.0 L206.278247152684,1650.0 L202.30061924225188,1660.0 L198.85590052294265,1670.0 L195.94798778762026,1680.0 L193.58592954778413,1690.0 L191.77709294942136,1700.0 L190.52714241302422,1710.0 L189.84002309682688,1720.0 L189.71794922556447,1730.0 L0,1730.0 L0,0.0 L115.38733374162412,0.0" fill="#E6E6FA" stroke="black" />
</g>
<g>
<g>
<path d="M-50,1780.0 L589.5329592877888,1780.0" fill="none" stroke="#999999" />
</g>
<path d="M-50.0,1780.0 L-50.0,1783.0" stroke="#999999" />
<text font-size="12" stroke="none" fill="#999999"><textPath xlink:href="#d0">
<tspan dy="0em">0mm</tspan>
</textPath></text>
<path d="M-30.0,1780.0 L-30.0,1783.0" stroke="#999999" />
<text font-size="12" stroke="none" fill="#999999"><textPath xlink:href="#d1">
<tspan dy="0em">20mm</tspan>
</textPath></text>
<path d="M-9.999999999999993,1780.0 L-9.999999999999993,1783.0" stroke="#999999" />
<text font-size="12" stroke="none" fill="#999999"><textPath xlink:href="#d2">
<tspan dy="0em">40mm</tspan>
</textPath></text>
<path d="M10.000000000000007,1780.0 L10.000000000000007,1783.0" stroke="#999999" />
<text font-size="12" stroke="none" fill="#999999"><textPath xlink:href="#d3">
<tspan dy="0em">60mm</tspan>
</textPath></text>
<path d="M30.000000000000014,1779.9999999999998 L30.000000000000014,1782.9999999999998" stroke="#999999" />
<text font-size="12" stroke="none" fill="#999999"><textPath xlink:href="#d4">
<tspan dy="0em">80mm</tspan>
</textPath></text>
<path d="M50.0,1780.0 L50.0,1783.0" stroke="#999999" />
<text font-size="12" stroke="none" fill="#999999"><textPath xlink:href="#d5">
<tspan dy="0em">100mm</tspan>
</textPath></text>
<path d="M70.00000000000001,1780.0 L70.00000000000001,1783.0" stroke="#999999" />
<text font-size="12" stroke="none" fill="#999999"><textPath xlink:href="#d6">
<tspan dy="0em">120mm</tspan>
</textPath></text>
<path d="M89.99999999999999,1780.0 L89.99999999999999,1783.0" stroke="#999999" />
<text font-size="12" stroke="none" fill="#999999"><textPath xlink:href="#d7">
<tspan dy="0em">140mm</tspan>
</textPath></text>
<path d="M110.00000000000003,1780.0 L110.00000000000003,1783.0" stroke="#999999" />
<text font-size="12" stroke="none" fill="#999999"><textPath xlink:href="#d8">
<tspan dy="0em">160mm</tspan>
</textPath></text>
<path d="M130.0,1780.0 L130.0,1783.0" stroke="#999999" />
<text font-size="12" stroke="none" fill="#999999"><textPath xlink:href="#d9">
<tspan dy="0em">180mm</tspan>
</textPath></text>
<path d="M150.0,1779.9999999999998 L150.0,1782.9999999999998" stroke="#999999" />
<text font-size="12" stroke="none" fill="#999999"><textPath xlink:href="#d10">
<tspan dy="0em">200mm</tspan>
</textPath></text>
<path d="M170.0,1780.0 L170.0,1783.0" stroke="#999999" />
<text font-size="12" stroke="none" fill="#999999"><textPath xlink:href="#d11">
<tspan dy="0em">220mm</tspan>
</textPath></text>
<path d="M190.00000000000003,1780.0 L190.00000000000003,1783.0" stroke="#999999" />
<text font-size="12" stroke="none" fill="#999999"><textPath xlink:href="#d12">
<tspan dy="0em">240mm</tspan>
</textPath></text>
<path d="M210.0,1780.0 L210.0,1783.0" stroke="#999999" />
<text font-size="12" stroke="none" fill="#999999"><textPath xlink:href="#d13">
<tspan dy="0em">260mm</tspan>
</textPath></text>
<path d="M229.99999999999997,1780.0 L229.99999999999997,1783.0" stroke="#999999" />
<text font-size="12" stroke="none" fill="#999999"><textPath xlink:href="#d14">
<tspan dy="0em">280mm</tspan>
</textPath></text>
<path d="M250.0,1780.0 L250.0,1783.0" stroke="#999999" />
<text font-size="12" stroke="none" fill="#999999"><textPath xlink:href="#d15">
<tspan dy="0em">300mm</tspan>
</textPath></text>
<path d="M270.00000000000006,1780.0 L270.00000000000006,1783.0" stroke="#999999" />
<text font-size="12" stroke="none" fill="#999999"><textPath xlink:href="#d16">
<tspan dy="0em">320mm</tspan>
</textPath></text>
<path d="M290.0,1780.0 L290.0,1783.0" stroke="#999999" />
<text font-size="12" stroke="none" fill="#999999"><textPath xlink:href="#d17">
<tspan dy="0em">340mm</tspan>
</textPath></text>
<path d="M310.0,1780.0 L310.0,1783.0" stroke="#999999" />
<text font-size="12" stroke="none" fill="#999999"><textPath xlink:href="#d18">
<tspan dy="0em">360mm</tspan>
</textPath></text>
<path d="M330.0,1780.0 L330.0,1783.0" stroke="#999999" />
<text font-size="12" stroke="none" fill="#999999"><textPath xlink:href="#d19">
<tspan dy="0em">380mm</tspan>
</textPath></text>
<path d="M350.0,1780.0 L350.0,1783.0" stroke="#999999" />
<text font-size="12" stroke="none" fill="#999999"><textPath xlink:href="#d20">
<tspan dy="0em">400mm</tspan>
</textPath></text>
<path d="M369.99999999999994,1780.0 L369.99999999999994,1783.0" stroke="#999999" />
<text font-size="12" stroke="none" fill="#999999"><textPath xlink:href="#d21">
<tspan dy="0em">420mm</tspan>
</textPath></text>
<path d="M390.0,1780.0 L390.0,1783.0" stroke="#999999" />
<text font-size="12" stroke="none" fill="#999999"><textPath xlink:href="#d22">
<tspan dy="0em">440mm</tspan>
</textPath></text>
<path d="M409.99999999999994,1780.0 L409.99999999999994,1783.0" stroke="#999999" />
<text font-size="12" stroke="none" fill="#999999"><textPath xlink:href="#d23">
<tspan dy="0em">460mm</tspan>
</textPath></text>
<path d="M430.00000000000006,1780.0 L430.00000000000006,1783.0" stroke="#999999" />
<text font-size="12" stroke="none" fill="#999999"><textPath xlink:href="#d24">
<tspan dy="0em">480mm</tspan>
</textPath></text>
<path d="M450.00000000000006,1780.0 L450.00000000000006,1783.0" stroke="#999999" />
<text font-size="12" stroke="none" fill="#999999"><textPath xlink:href="#d25">
<tspan dy="0em">500mm</tspan>
</textPath></text>
<path d="M470.0,1780.0 L470.0,1783.0" stroke="#999999" />
<text font-size="12" stroke="none" fill="#999999"><textPath xlink:href="#d26">
<tspan dy="0em">520mm</tspan>
</textPath></text>
<path d="M490.00000000000006,1780.0 L490.00000000000006,1783.0" stroke="#999999" />
<text font-size="12" stroke="none" fill="#999999"><textPath xlink:href="#d27">
<tspan dy="0em">540mm</tspan>
</textPath></text>
<path d="M509.99999999999994,1780.0 L509.99999999999994,1783.0" stroke="#999999" />
<text font-size="12" stroke="none" fill="#999999"><textPath xlink:href="#d28">
<tspan dy="0em">560mm</tspan>
</textPath></text>
<path d="M529.9999999999999,1780.0 L529.9999999999999,1783.0" stroke="#999999" />
<text font-size="12" stroke="none" fill="#999999"><textPath xlink:href="#d29">
<tspan dy="0em">580mm</tspan>
</textPath></text>
<path d="M550.0,1780.0 L550.0,1783.0" stroke="#999999" />
<text font-size="12" stroke="none" fill="#999999"><textPath xlink:href="#d30">
<tspan dy="0em">600mm</tspan>
</textPath></text>
<path d="M570.0,1780.0 L570.0,1783.0" stroke="#999999" />
<text font-size="12" stroke="none" fill="#999999"><textPath xlink:href="#d31">
<tspan dy="0em">620mm</tspan>
</textPath></text>
</g>
<g>
<g>
<path d="M589.5329592877888,1780.0 L589.5329592877888,-50.0" fill="none" stroke="#999999" />
</g>
<path d="M589.5329592877888,1780.0 L592.5329592877888,1780.0" stroke="#999999" />
<text font-size="12" stroke="none" fill="#999999"><textPath xlink:href="#d32">
<tspan dy="0em">0mm</tspan>
</textPath></text>
<path d="M589.5329592877888,1760.0 L592.5329592877888,1760.0" stroke="#999999" />
<text font-size="12" stroke="none" fill="#999999"><textPath xlink:href="#d33">
<tspan dy="0em">20mm</tspan>
</textPath></text>
<path d="M589.5329592877888,1740.0 L592.5329592877888,1740.0" stroke="#999999" />
<text font-size="12" stroke="none" fill="#999999"><textPath xlink:href="#d34">
<tspan dy="0em">40mm</tspan>
</textPath></text>
<path d="M589.5329592877888,1720.0 L592.5329592877888,1720.0" stroke="#999999" />
<text font-size="12" stroke="none" fill="#999999"><textPath xlink:href="#d35">
<tspan dy="0em">60mm</tspan>
</textPath></text>
<path d="M589.5329592877888,1699.9999999999998 L592.5329592877888,1699.9999999999998" stroke="#999999" />
<text font-size="12" stroke="none" fill="#999999"><textPath xlink:href="#d36">
<tspan dy="0em">80mm</tspan>
</textPath></text>
<path d="M589.5329592877888,1680.0 L592.5329592877888,1680.0" stroke="#999999" />
<text font-size="12" stroke="none" fill="#999999"><textPath xlink:href="#d37">
<tspan dy="0em">100mm</tspan>
</textPath></text>
<path d="M589.5329592877888,1660.0000000000002 L592.5329592877888,1660.0000000000002" stroke="#999999" />
<text font-size="12" stroke="none" fill="#999999"><textPath xlink:href="#d38">
<tspan dy="0em">120mm</tspan>
</textPath></text>
<path d="M589.5329592877888,1640.0 L592.5329592877888,1640.0" stroke="#999999" />
<text font-size="12" stroke="none" fill="#999999"><textPath xlink:href="#d39">
<tspan dy="0em">140mm</tspan>
</textPath></text>
<path d="M589.5329592877888,1620.0 L592.5329592877888,1620.0" stroke="#999999" />
<text font-size="12" stroke="none" fill="#999999"><textPath xlink:href="#d40">
<tspan dy="0em">160mm</tspan>
</textPath></text>
<path d="M589.5329592877888,1600.0 L592.5329592877888,1600.0" stroke="#999999" />
<text font-size="12" stroke="none" fill="#999999"><textPath xlink:href="#d41">
<tspan dy="0em">180mm</tspan>
</textPath></text>
<path d="M589.5329592877888,1580.0 L592.5329592877888,1580.0" stroke="#999999" />
<text font-size="12" stroke="none" fill="#999999"><textPath xlink:href="#d42">
<tspan dy="0em">200mm</tspan>
</textPath></text>
<path d="M589.5329592877888,1559.9999999999998 L592.5329592877888,1559.9999999999998" stroke="#999999" />
<text font-size="12" stroke="none" fill="#999999"><textPath xlink:href="#d43">
<tspan dy="0em">220mm</tspan>
</textPath></text>
<path d="M589.5329592877888,1540.0 L592.5329592877888,1540.0" stroke="#999999" />
<text font-size="12" stroke="none" fill="#999999"><textPath xlink:href="#d44">
<tspan dy="0em">240mm</tspan>
</textPath></text>
<path d="M589.5329592877888,1520.0000000000002 L592.5329592877888,1520.0000000000002" stroke="#999999" />
<text font-size="12" stroke="none" fill="#999999"><textPath xlink:href="#d45">
<tspan dy="0em">260mm</tspan>
</textPath></text>
<path d="M589.5329592877888,1500.0 L592.5329592877888,1500.0" stroke="#999999" />
<text font-size="12" stroke="none" fill="#999999"><textPath xlink:href="#d46">
<tspan dy="0em">280mm</tspan>
</textPath></text>
<path d="M589.5329592877888,1480.0000000000002 L592.5329592877888,1480.0000000000002" stroke="#999999" />
<text font-size="12" stroke="none" fill="#999999"><textPath xlink:href="#d47">
<tspan dy="0em">300mm</tspan>
</textPath></text>
<path d="M589.5329592877888,1460.0 L592.5329592877888,1460.0" stroke="#999999" />
<text font-size="12" stroke="none" fill="#999999"><textPath xlink:href="#d48">
<tspan dy="0em">320mm</tspan>
</textPath></text>
<path d="M589.5329592877888,1440.0 L592.5329592877888,1440.0" stroke="#999999" />
<text font-size="12" stroke="none" fill="#999999"><textPath xlink:href="#d49">
<tspan dy="0em">340mm</tspan>
</textPath></text>
<path d="M589.5329592877888,1420.0000000000002 L592.5329592877888,1420.0000000000002" stroke="#999999" />
<text font-size="12" stroke="none" fill="#999999"><textPath xlink:href="#d50">
<tspan dy="0em">360mm</tspan>
</textPath></text>
<path d="M589.5329592877888,1400.0 L592.5329592877888,1400.0" stroke="#999999" />
<text font-size="12" stroke="none" fill="#999999"><textPath xlink:href="#d51">
<tspan dy="0em">380mm</tspan>
</textPath></text>
<path d="M589.5329592877888,1380.0 L592.5329592877888,1380.0" stroke="#999999" />
<text font-size="12" stroke="none" fill="#999999"><textPath xlink:href="#d52">
<tspan dy="0em">400mm</tspan>
</textPath></text>
<path d="M589.5329592877888,1359.9999999999998 L592.5329592877888,1359.9999999999998" stroke="#999999" />
<text font-size="12" stroke="none" fill="#999999"><textPath xlink:href="#d53">
<tspan dy="0em">420mm</tspan>
</textPath></text>
<path d="M589.5329592877888,1340.0 L592.5329592877888,1340.0" stroke="#999999" />
<text font-size="12" stroke="none" fill="#999999"><textPath xlink:href="#d54">
<tspan dy="0em">440mm</tspan>
</textPath></text>
<path d="M589.5329592877888,1319.9999999999998 L592.5329592877888,1319.9999999999998" stroke="#999999" />
<text font-size="12" stroke="none" fill="#999999"><textPath xlink:href="#d55">
<tspan dy="0em">460mm</tspan>
</textPath></text>
<path d="M589.5329592877888,1299.9999999999998 L592.5329592877888,1299.9999999999998" stroke="#999999" />
<text font-size="12" stroke="none" fill="#999999"><textPath xlink:href="#d56">
<tspan dy="0em">480mm</tspan>
</textPath></text>
<path d="M589.5329592877888,1280.0 L592.5329592877888,1280.0" stroke="#999999" />
<text font-size="12" stroke="none" fill="#999999"><textPath xlink:href="#d57">
<tspan dy="0em">500mm</tspan>
</textPath></text>
<path d="M589.5329592877888,1260.0 L592.5329592877888,1260.0" stroke="#999999" />
<text font-size="12" stroke="none" fill="#999999"><textPath xlink:href="#d58">
<tspan dy="0em">520mm</tspan>
</textPath></text>
<path d="M589.5329592877888,1240.0 L592.5329592877888,1240.0" stroke="#999999" />
<text font-size="12" stroke="none" fill="#999999"><textPath xlink:href="#d59">
<tspan dy="0em">540mm</tspan>
</textPath></text>
<path d="M589.5329592877888,1220.0 L592.5329592877888,1220.0" stroke="#999999" />
<text font-size="12" stroke="none" fill="#999999"><textPath xlink:href="#d60">
<tspan dy="0em">560mm</tspan>
</textPath></text>
<path d="M589.5329592877888,1200.0 L592.5329592877888,1200.0" stroke="#999999" />
<text font-size="12" stroke="none" fill="#999999"><textPath xlink:href="#d61">
<tspan dy="0em">580mm</tspan>
</textPath></text>
<path d="M589.5329592877888,1180.0000000000002 L592.5329592877888,1180.0000000000002" stroke="#999999" />
<text font-size="12" stroke="none" fill="#999999"><textPath xlink:href="#d62">
<tspan dy="0em">600mm</tspan>
</textPath></text>
<path d="M589.5329592877888,1160.0 L592.5329592877888,1160.0" stroke="#999999" />
<text font-size="12" stroke="none" fill="#999999"><textPath xlink:href="#d63">
<tspan dy="0em">620mm</tspan>
</textPath></text>
<path d="M589.5329592877888,1140.0000000000002 L592.5329592877888,1140.0000000000002" stroke="#999999" />
<text font-size="12" stroke="none" fill="#999999"><textPath xlink:href="#d64">
<tspan dy="0em">640mm</tspan>
</textPath></text>
<path d="M589.5329592877888,1120.0 L592.5329592877888,1120.0" stroke="#999999" />
<text font-size="12" stroke="none" fill="#999999"><textPath xlink:href="#d65">
<tspan dy="0em">660mm</tspan>
</textPath></text>
<path d="M589.5329592877888,1100.0 L592.5329592877888,1100.0" stroke="#999999" />
<text font-size="12" stroke="none" fill="#999999"><textPath xlink:href="#d66">
<tspan dy="0em">680mm</tspan>
</textPath></text>
<path d="M589.5329592877888,1080.0 L592.5329592877888,1080.0" stroke="#999999" />
<text font-size="12" stroke="none" fill="#999999"><textPath xlink:href="#d67">
<tspan dy="0em">700mm</tspan>
</textPath></text>
<path d="M589.5329592877888,1060.0 L592.5329592877888,1060.0" stroke="#999999" />
<text font-size="12" stroke="none" fill="#999999"><textPath xlink:href="#d68">
<tspan dy="0em">720mm</tspan>
</textPath></text>
<path d="M589.5329592877888,1040.0 L592.5329592877888,1040.0" stroke="#999999" />
<text font-size="12" stroke="none" fill="#999999"><textPath xlink:href="#d69">
<tspan dy="0em">740mm</tspan>
</textPath></text>
<path d="M589.5329592877888,1020.0 L592.5329592877888,1020.0" stroke="#999999" />
<text font-size="12" stroke="none" fill="#999999"><textPath xlink:href="#d70">
<tspan dy="0em">760mm</tspan>
</textPath></text>
<path d="M589.5329592877888,1000.0 L592.5329592877888,1000.0" stroke="#999999" />
<text font-size="12" stroke="none" fill="#999999"><textPath xlink:href="#d71">
<tspan dy="0em">780mm</tspan>
</textPath></text>
<path d="M589.5329592877888,980.0 L592.5329592877888,980.0" stroke="#999999" />
<text font-size="12" stroke="none" fill="#999999"><textPath xlink:href="#d72">
<tspan dy="0em">800mm</tspan>
</textPath></text>
<path d="M589.5329592877888,959.9999999999999 L592.5329592877888,959.9999999999999" stroke="#999999" />
<text font-size="12" stroke="none" fill="#999999"><textPath xlink:href="#d73">
<tspan dy="0em">820mm</tspan>
</textPath></text>
<path d="M589.5329592877888,939.9999999999999 L592.5329592877888,939.9999999999999" stroke="#999999" />
<text font-size="12" stroke="none" fill="#999999"><textPath xlink:href="#d74">
<tspan dy="0em">840mm</tspan>
</textPath></text>
<path d="M589.5329592877888,919.9999999999998 L592.5329592877888,919.9999999999998" stroke="#999999" />
<text font-size="12" stroke="none" fill="#999999"><textPath xlink:href="#d75">
<tspan dy="0em">860mm</tspan>
</textPath></text>
<path d="M589.5329592877888,900.0 L592.5329592877888,900.0" stroke="#999999" />
<text font-size="12" stroke="none" fill="#999999"><textPath xlink:href="#d76">
<tspan dy="0em">880mm</tspan>
</textPath></text>
<path d="M589.5329592877888,880.0000000000001 L592.5329592877888,880.0000000000001" stroke="#999999" />
<text font-size="12" stroke="none" fill="#999999"><textPath xlink:href="#d77">
<tspan dy="0em">900mm</tspan>
</textPath></text>
<path d="M589.5329592877888,860.0 L592.5329592877888,860.0" stroke="#999999" />
<text font-size="12" stroke="none" fill="#999999"><textPath xlink:href="#d78">
<tspan dy="0em">920mm</tspan>
</textPath></text>
<path d="M589.5329592877888,840.0 L592.5329592877888,840.0" stroke="#999999" />
<text font-size="12" stroke="none" fill="#999999"><textPath xlink:href="#d79">
<tspan dy="0em">940mm</tspan>
</textPath></text>
<path d="M589.5329592877888,819.9999999999999 L592.5329592877888,819.9999999999999" stroke="#999999" />
<text font-size="12" stroke="none" fill="#999999"><textPath xlink:href="#d80">
<tspan dy="0em">960mm</tspan>
</textPath></text>
<path d="M589.5329592877888,799.9999999999999 L592.5329592877888,799.9999999999999" stroke="#999999" />
<text font-size="12" stroke="none" fill="#999999"><textPath xlink:href="#d81">
<tspan dy="0em">980mm</tspan>
</textPath></text>
<path d="M589.5329592877888,779.9999999999999 L592.5329592877888,779.9999999999999" stroke="#999999" />
<text font-size="12" stroke="none" fill="#999999"><textPath xlink:href="#d82">
<tspan dy="0em">1000mm</tspan>
</textPath></text>
<path d="M589.5329592877888,760.0000000000001 L592.5329592877888,760.0000000000001" stroke="#999999" />
<text font-size="12" stroke="none" fill="#999999"><textPath xlink:href="#d83">
<tspan dy="0em">1020mm</tspan>
</textPath></text>
<path d="M589.5329592877888,740.0000000000001 L592.5329592877888,740.0000000000001" stroke="#999999" />
<text font-size="12" stroke="none" fill="#999999"><textPath xlink:href="#d84">
<tspan dy="0em">1040mm</tspan>
</textPath></text>
<path d="M589.5329592877888,720.0 L592.5329592877888,720.0" stroke="#999999" />
<text font-size="12" stroke="none" fill="#999999"><textPath xlink:href="#d85">
<tspan dy="0em">1060mm</tspan>
</textPath></text>
<path d="M589.5329592877888,700.0 L592.5329592877888,700.0" stroke="#999999" />
<text font-size="12" stroke="none" fill="#999999"><textPath xlink:href="#d86">
<tspan dy="0em">1080mm</tspan>
</textPath></text>
<path d="M589.5329592877888,680.0 L592.5329592877888,680.0" stroke="#999999" />
<text font-size="12" stroke="none" fill="#999999"><textPath xlink:href="#d87">
<tspan dy="0em">1100mm</tspan>
</textPath></text>
<path d="M589.5329592877888,659.9999999999999 L592.5329592877888,659.9999999999999" stroke="#999999" />
<text font-size="12" stroke="none" fill="#999999"><textPath xlink:href="#d88">
<tspan dy="0em">1120mm</tspan>
</textPath></text>
<path d="M589.5329592877888,640.0 L592.5329592877888,640.0" stroke="#999999" />
<text font-size="12" stroke="none" fill="#999999"><textPath xlink:href="#d89">
<tspan dy="0em">1140mm</tspan>
</textPath></text>
<path d="M589.5329592877888,620.0 L592.5329592877888,620.0" stroke="#999999" />
<text font-size="12" stroke="none" fill="#999999"><textPath xlink:href="#d90">
<tspan dy="0em">1160mm</tspan>
</textPath></text>
<path d="M589.5329592877888,599.9999999999999 L592.5329592877888,599.9999999999999" stroke="#999999" />
<text font-size="12" stroke="none" fill="#999999"><textPath xlink:href="#d91">
<tspan dy="0em">1180mm</tspan>
</textPath></text>
<path d="M589.5329592877888,580.0000000000001 L592.5329592877888,580.0000000000001" stroke="#999999" />
<text font-size="12" stroke="none" fill="#999999"><textPath xlink:href="#d92">
<tspan dy="0em">1200mm</tspan>
</textPath></text>
<path d="M589.5329592877888,560.0 L592.5329592877888,560.0" stroke="#999999" />
<text font-size="12" stroke="none" fill="#999999"><textPath xlink:href="#d93">
<tspan dy="0em">1220mm</tspan>
</textPath></text>
<path d="M589.5329592877888,540.0 L592.5329592877888,540.0" stroke="#999999" />
<text font-size="12" stroke="none" fill="#999999"><textPath xlink:href="#d94">
<tspan dy="0em">1240mm</tspan>
</textPath></text>
<path d="M589.5329592877888,520.0000000000001 L592.5329592877888,520.0000000000001" stroke="#999999" />
<text font-size="12" stroke="none" fill="#999999"><textPath xlink:href="#d95">
<tspan dy="0em">1260mm</tspan>
</textPath></text>
<path d="M589.5329592877888,500.0 L592.5329592877888,500.0" stroke="#999999" />
<text font-size="12" stroke="none" fill="#999999"><textPath xlink:href="#d96">
<tspan dy="0em">1280mm</tspan>
</textPath></text>
<path d="M589.5329592877888,480.0 L592.5329592877888,480.0" stroke="#999999" />
<text font-size="12" stroke="none" fill="#999999"><textPath xlink:href="#d97">
<tspan dy="0em">1300mm</tspan>
</textPath></text>
<path d="M589.5329592877888,459.99999999999994 L592.5329592877888,459.99999999999994" stroke="#999999" />
<text font-size="12" stroke="none" fill="#999999"><textPath xlink:href="#d98">
<tspan dy="0em">1320mm</tspan>
</textPath></text>
<path d="M589.5329592877888,439.99999999999994 L592.5329592877888,439.99999999999994" stroke="#999999" />
<text font-size="12" stroke="none" fill="#999999"><textPath xlink:href="#d99">
<tspan dy="0em">1340mm</tspan>
</textPath></text>
<path d="M589.5329592877888,419.9999999999999 L592.5329592877888,419.9999999999999" stroke="#999999" />
<text font-size="12" stroke="none" fill="#999999"><textPath xlink:href="#d100">
<tspan dy="0em">1360mm</tspan>
</textPath></text>
<path d="M589.5329592877888,400.00000000000006 L592.5329592877888,400.00000000000006" stroke="#999999" />
<text font-size="12" stroke="none" fill="#999999"><textPath xlink:href="#d101">
<tspan dy="0em">1380mm</tspan>
</textPath></text>
<path d="M589.5329592877888,380.0000000000001 L592.5329592877888,380.0000000000001" stroke="#999999" />
<text font-size="12" stroke="none" fill="#999999"><textPath xlink:href="#d102">
<tspan dy="0em">1400mm</tspan>
</textPath></text>
<path d="M589.5329592877888,360.00000000000006 L592.5329592877888,360.00000000000006" stroke="#999999" />
<text font-size="12" stroke="none" fill="#999999"><textPath xlink:href="#d103">
<tspan dy="0em">1420mm</tspan>
</textPath></text>
<path d="M589.5329592877888,340.0 L592.5329592877888,340.0" stroke="#999999" />
<text font-size="12" stroke="none" fill="#999999"><textPath xlink:href="#d104">
<tspan dy="0em">1440mm</tspan>
</textPath></text>
<path d="M589.5329592877888,320.0 L592.5329592877888,320.0" stroke="#999999" />
<text font-size="12" stroke="none" fill="#999999"><textPath xlink:href="#d105">
<tspan dy="0em">1460mm</tspan>
</textPath></text>
<path d="M589.5329592877888,300.0 L592.5329592877888,300.0" stroke="#999999" />
<text font-size="12" stroke="none" fill="#999999"><textPath xlink:href="#d106">
<tspan dy="0em">1480mm</tspan>
</textPath></text>
<path d="M589.5329592877888,279.99999999999994 L592.5329592877888,279.99999999999994" stroke="#999999" />
<text font-size="12" stroke="none" fill="#999999"><textPath xlink:href="#d107">
<tspan dy="0em">1500mm</tspan>
</textPath></text>
<path d="M589.5329592877888,259.99999999999994 L592.5329592877888,259.99999999999994" stroke="#999999" />
<text font-size="12" stroke="none" fill="#999999"><textPath xlink:href="#d108">
<tspan dy="0em">1520mm</tspan>
</textPath></text>
<path d="M589.5329592877888,239.9999999999999 L592.5329592877888,239.9999999999999" stroke="#999999" />
<text font-size="12" stroke="none" fill="#999999"><textPath xlink:href="#d109">
<tspan dy="0em">1540mm</tspan>
</textPath></text>
<path d="M589.5329592877888,220.00000000000009 L592.5329592877888,220.00000000000009" stroke="#999999" />
<text font-size="12" stroke="none" fill="#999999"><textPath xlink:href="#d110">
<tspan dy="0em">1560mm</tspan>
</textPath></text>
<path d="M589.5329592877888,200.00000000000006 L592.5329592877888,200.00000000000006" stroke="#999999" />
<text font-size="12" stroke="none" fill="#999999"><textPath xlink:href="#d111">
<tspan dy="0em">1580mm</tspan>
</textPath></text>
<path d="M589.5329592877888,180.00000000000006 L592.5329592877888,180.00000000000006" stroke="#999999" />
<text font-size="12" stroke="none" fill="#999999"><textPath xlink:href="#d112">
<tspan dy="0em">1600mm</tspan>
</textPath></text>
<path d="M589.5329592877888,160.00000000000003 L592.5329592877888,160.00000000000003" stroke="#999999" />
<text font-size="12" stroke="none" fill="#999999"><textPath xlink:href="#d113">
<tspan dy="0em">1620mm</tspan>
</textPath></text>
<path d="M589.5329592877888,140.0 L592.5329592877888,140.0" stroke="#999999" />
<text font-size="12" stroke="none" fill="#999999"><textPath xlink:href="#d114">
<tspan dy="0em">1640mm</tspan>
</textPath></text>
<path d="M589.5329592877888,119.99999999999997 L592.5329592877888,119.99999999999997" stroke="#999999" />
<text font-size="12" stroke="none" fill="#999999"><textPath xlink:href="#d115">
<tspan dy="0em">1660mm</tspan>
</textPath></text>
<path d="M589.5329592877888,99.99999999999997 L592.5329592877888,99.99999999999997" stroke="#999999" />
<text font-size="12" stroke="none" fill="#999999"><textPath xlink:href="#d116">
<tspan dy="0em">1680mm</tspan>
</textPath></text>
<path d="M589.5329592877888,79.99999999999994 L592.5329592877888,79.99999999999994" stroke="#999999" />
<text font-size="12" stroke="none" fill="#999999"><textPath xlink:href="#d117">
<tspan dy="0em">1700mm</tspan>
</textPath></text>
<path d="M589.5329592877888,59.99999999999992 L592.5329592877888,59.99999999999992" stroke="#999999" />
<text font-size="12" stroke="none" fill="#999999"><textPath xlink:href="#d118">
<tspan dy="0em">1720mm</tspan>
</textPath></text>
<path d="M589.5329592877888,40.0000000000001 L592.5329592877888,40.0000000000001" stroke="#999999" />
<text font-size="12" stroke="none" fill="#999999"><textPath xlink:href="#d119">
<tspan dy="0em">1740mm</tspan>
</textPath></text>
<path d="M589.5329592877888,20.000000000000078 L592.5329592877888,20.000000000000078" stroke="#999999" />
<text font-size="12" stroke="none" fill="#999999"><textPath xlink:href="#d120">
<tspan dy="0em">1760mm</tspan>
</textPath></text>
<path d="M589.5329592877888,4.973799150320701e-14 L592.5329592877888,4.973799150320701e-14" stroke="#999999" />
<text font-size="12" stroke="none" fill="#999999"><textPath xlink:href="#d121">
<tspan dy="0em">1780mm</tspan>
</textPath></text>
<path d="M589.5329592877888,-19.999999999999968 L592.5329592877888,-19.999999999999968" stroke="#999999" />
<text font-size="12" stroke="none" fill="#999999"><textPath xlink:href="#d122">
<tspan dy="0em">1800mm</tspan>
</textPath></text>
<path d="M589.5329592877888,-39.999999999999986 L592.5329592877888,-39.999999999999986" stroke="#999999" />
<text font-size="12" stroke="none" fill="#999999"><textPath xlink:href="#d123">
<tspan dy="0em">1820mm</tspan>
</textPath></text>
</g>
</svg>