<?xml version="1.0" encoding="UTF-8"?>
<svg xmlns="http://www.w3.org/2000/svg" xmlns:xlink="http://www.w3.org/1999/xlink"
     width="609.88" height="1303.3000000000004" viewBox="-150.0 -1153.3000000000004 609.88 1303.3000000000004" stroke="black" fill="none">
<defs>
</defs>
<g>
<path d="M264.15999999999997,-1003.3 L264.15999999999997,-977.9 L261.62,-952.5 L261.62,-927.1 L259.08,-901.7 L256.53999999999996,-876.3000000000001 L248.92000000000002,-850.9000000000001 L241.29999999999998,-825.5000000000001 L231.14,-800.1000000000001 L220.97999999999996,-774.7000000000002 L210.82,-749.3000000000002 L208.27999999999997,-723.9000000000002 L210.82,-698.5000000000002 L215.89999999999998,-673.1000000000003 L220.97999999999996,-647.7000000000003 L233.67999999999998,-622.3000000000003 L246.37999999999997,-596.9000000000003 L259.08,-571.5000000000003 L271.78,-546.1000000000004 L281.94,-520.7000000000004 L292.09999999999997,-495.3000000000004 L297.17999999999995,-469.90000000000043 L297.17999999999995,-444.50000000000045 L299.72,-419.1000000000005 L299.72,-393.7000000000005 L299.72,-368.3000000000005 L302.26,-342.90000000000055 L304.79999999999995,-317.50000000000057 L304.79999999999995,-292.1000000000006 L304.79999999999995,-266.7000000000006 L304.79999999999995,-241.3000000000006 L304.79999999999995,-215.9000000000006 L304.79999999999995,-190.5000000000006 L304.79999999999995,-165.1000000000006 L307.34,-139.70000000000059 L307.34,-114.30000000000058 L309.87999999999994,-88.90000000000057 L309.87999999999994,-63.500000000000576 L309.87999999999994,-38.10000000000058 L309.87999999999994,-12.700000000000578 L309.87999999999994,0 L0,0 L0,-1003.3 L264.15999999999997,-1003.3" />
</g>
<g>
<path d="M314.15999999999997,-1003.3 L314.15999999999985,-975.406218943962 L311.62,-950.0062189439537 L311.6199999999998,-924.6062189439483 L308.8318595104978,-896.7248140489321 L305.81330088613004,-866.5392278052549 L296.8113142610546,-836.5326057216731 L288.5511859641713,-808.9988447320598 L277.5638345442542,-781.5304661822743 L267.403834544263,-756.1304661822965 L259.8686214503513,-737.2924334475157 L258.52937810560326,-723.8999999999941 L260.3285610752831,-705.9081703032119 L264.9290337845476,-682.9058067569064 L268.69585893488374,-664.0716810052197 L278.40135954999494,-644.6606797749987 L291.101359549989,-619.2606797750104 L303.80135954999696,-593.8606797749968 L317.43144260675086,-566.6005136614892 L328.3638345442639,-539.2695338177025 L340.22874220051216,-509.60726467708207 L347.1799999999984,-474.8509756796503 L347.1800000000004,-446.99378105603887 L349.7199999999999,-421.5937810560453 L349.7199999999994,-393.70000000001164 L349.72000000000054,-370.79378105604894 L352.0118595104983,-347.87518595105956 L354.7999999999995,-319.99378105604717 L354.80000000000024,-292.1000000000058 L354.79999999999967,-266.6999999999971 L354.79999999999984,-241.29999999998836 L354.79999999999984,-215.90000000000876 L354.8000000000004,-190.5 L354.79999999999984,-167.5937810560433 L357.34000000000026,-142.19378105604244 L357.34,-116.79378105604641 L359.87999999999977,-91.39378105604553 L359.87999999999994,-63.5 L359.88,-38.100000000000364 L359.87999999999994,-12.700000000000728 L359.87999999999994,49.99999999999958 L-50.000000000000014,50.0 L-50.00000000000001,-1053.3000000000004 L264.15999999999997,-1053.3" />
</g>
</svg>