<?xml version="1.0" encoding="UTF-8"?>
<svg xmlns="http://www.w3.org/2000/svg" xmlns:xlink="http://www.w3.org/1999/xlink"
     width="1130.0" height="812.5" viewBox="-340.0 -112.5 1130.0 812.5" stroke="black" fill="none">
<defs>
<path d="M465.0,-0.0 L339.1479006990711,-7.720987687173553 L323.0432102050694,91.47900699071141 L319.18543263426216,-8.94567897949312 L261.25,-12.5 L240.0,265 L240.0,600.0 L465.0,600.0 L465.0,0" fill="none" stroke="black" id="d0" />
<path d="M0.0,-0.0 L0,600.0 L240.0,600.0 L240.0,265 L223.75,-12.5 L159.15109809326995,-8.891122798506702 L156.13903498133365,116.4720594992067 L139.18223524006356,-7.775543868159976 L84.56776475993651,-4.724456131840029 L82.39238584576032,135.61537330577818 L64.5989019067301,-3.6088772014933017 L0,0" fill="none" stroke="black" id="d1" />
<path d="M465.0,-0.0 L590.8520993009289,-7.720987687173553 L606.9567897949306,91.47900699071141 L610.8145673657378,-8.94567897949312 L668.75,-12.5 L690.0,265 L690.0,600.0 L465.0,600.0 L465.0,0" fill="none" stroke="black" id="d2" />
<path d="M0.0,-0.0 L0.0,600.0 L-240.0,600.0 L-240.0,265 L-223.75,-12.5 L-159.15109809326995,-8.891122798506702 L-156.13903498133365,116.4720594992067 L-139.18223524006356,-7.775543868159976 L-84.56776475993651,-4.724456131840029 L-82.39238584576032,135.61537330577818 L-64.5989019067301,-3.6088772014933017 L0.0,0" fill="none" stroke="black" id="d3" />
</defs>
<path d="M-340.0,700.0 L790.0,700.0" stroke="#dddddd" />
<path d="M-340.0,490.0 L790.0,490.0" stroke="#dddddd" />
<path d="M-340.0,280.0 L790.0,280.0" stroke="#dddddd" />
<path d="M-340.0,70.0 L790.0,70.0" stroke="#dddddd" />
<path d="M-340.0,700.0 L-340.0,-112.5" stroke="#dddddd" />
<path d="M-43.0,700.0 L-43.0,-112.5" stroke="#dddddd" />
<path d="M254.0,700.0 L254.0,-112.5" stroke="#dddddd" />
<path d="M551.0,700.0 L551.0,-112.5" stroke="#dddddd" />
<text x="-191.5" y="595.0" font-size="10" stroke="none" fill="#dddddd" dy="0em">A0</text>
<text x="-191.5" y="385.0" font-size="10" stroke="none" fill="#dddddd" dy="0em">A1</text>
<text x="-191.5" y="175.0" font-size="10" stroke="none" fill="#dddddd" dy="0em">A2</text>
<text x="-191.5" y="-35.0" font-size="10" stroke="none" fill="#dddddd" dy="0em">A3</text>
<text x="105.5" y="595.0" font-size="10" stroke="none" fill="#dddddd" dy="0em">B0</text>
<text x="105.5" y="385.0" font-size="10" stroke="none" fill="#dddddd" dy="0em">B1</text>
<text x="105.5" y="175.0" font-size="10" stroke="none" fill="#dddddd" dy="0em">B2</text>
<text x="105.5" y="-35.0" font-size="10" stroke="none" fill="#dddddd" dy="0em">B3</text>
<text x="402.5" y="595.0" font-size="10" stroke="none" fill="#dddddd" dy="0em">C0</text>
<text x="402.5" y="385.0" font-size="10" stroke="none" fill="#dddddd" dy="0em">C1</text>
<text x="402.5" y="175.0" font-size="10" stroke="none" fill="#dddddd" dy="0em">C2</text>
<text x="402.5" y="-35.0" font-size="10" stroke="none" fill="#dddddd" dy="0em">C3</text>
<text x="699.5" y="595.0" font-size="10" stroke="none" fill="#dddddd" dy="0em">D0</text>
<text x="699.5" y="385.0" font-size="10" stroke="none" fill="#dddddd" dy="0em">D1</text>
<text x="699.5" y="175.0" font-size="10" stroke="none" fill="#dddddd" dy="0em">D2</text>
<text x="699.5" y="-35.0" font-size="10" stroke="none" fill="#dddddd" dy="0em">D3</text>
<path d="M-340.0,700.0 L790.0,700.0" stroke="#ffcccc66" stroke-dasharray="5" />
<text x="-339.0" y="698.0" font-size="8" stroke="none" fill="#ffcccc66" dy="0em">-100mm</text>
<path d="M-340.0,650.0 L790.0,650.0" stroke="#ffcccc66" stroke-dasharray="5" />
<text x="-339.0" y="648.0" font-size="8" stroke="none" fill="#ffcccc66" dy="0em">-50mm</text>
<path d="M-340.0,600.0 L790.0,600.0" stroke="#ffcccc66" stroke-dasharray="5" />
<text x="-339.0" y="598.0" font-size="8" stroke="none" fill="#ffcccc66" dy="0em">0mm</text>
<path d="M-340.0,550.0 L790.0,550.0" stroke="#ffcccc66" stroke-dasharray="5" />
<text x="-339.0" y="548.0" font-size="8" stroke="none" fill="#ffcccc66" dy="0em">50mm</text>
<path d="M-340.0,500.0 L790.0,500.0" stroke="#ffcccc66" stroke-dasharray="5" />
<text x="-339.0" y="498.0" font-size="8" stroke="none" fill="#ffcccc66" dy="0em">100mm</text>
<path d="M-340.0,450.0 L790.0,450.0" stroke="#ffcccc66" stroke-dasharray="5" />
<text x="-339.0" y="448.0" font-size="8" stroke="none" fill="#ffcccc66" dy="0em">150mm</text>
<path d="M-340.0,400.0 L790.0,400.0" stroke="#ffcccc66" stroke-dasharray="5" />
<text x="-339.0" y="398.0" font-size="8" stroke="none" fill="#ffcccc66" dy="0em">200mm</text>
<path d="M-340.0,350.0 L790.0,350.0" stroke="#ffcccc66" stroke-dasharray="5" />
<text x="-339.0" y="348.0" font-size="8" stroke="none" fill="#ffcccc66" dy="0em">250mm</text>
<path d="M-340.0,300.0 L790.0,300.0" stroke="#ffcccc66" stroke-dasharray="5" />
<text x="-339.0" y="298.0" font-size="8" stroke="none" fill="#ffcccc66" dy="0em">300mm</text>
<path d="M-340.0,250.0 L790.0,250.0" stroke="#ffcccc66" stroke-dasharray="5" />
<text x="-339.0" y="248.0" font-size="8" stroke="none" fill="#ffcccc66" dy="0em">350mm</text>
<path d="M-340.0,200.0 L790.0,200.0" stroke="#ffcccc66" stroke-dasharray="5" />
<text x="-339.0" y="198.0" font-size="8" stroke="none" fill="#ffcccc66" dy="0em">400mm</text>
<path d="M-340.0,150.0 L790.0,150.0" stroke="#ffcccc66" stroke-dasharray="5" />
<text x="-339.0" y="148.0" font-size="8" stroke="none" fill="#ffcccc66" dy="0em">450mm</text>
<path d="M-340.0,100.0 L790.0,100.0" stroke="#ffcccc66" stroke-dasharray="5" />
<text x="-339.0" y="98.0" font-size="8" stroke="none" fill="#ffcccc66" dy="0em">500mm</text>
<path d="M-340.0,50.0 L790.0,50.0" stroke="#ffcccc66" stroke-dasharray="5" />
<text x="-339.0" y="48.0" font-size="8" stroke="none" fill="#ffcccc66" dy="0em">550mm</text>
<path d="M-340.0,-0.0 L790.0,-0.0" stroke="#ffcccc66" stroke-dasharray="5" />
<text x="-339.0" y="-2.0" font-size="8" stroke="none" fill="#ffcccc66" dy="0em">600mm</text>
<path d="M-340.0,-50.0 L790.0,-50.0" stroke="#ffcccc66" stroke-dasharray="5" />
<text x="-339.0" y="-52.0" font-size="8" stroke="none" fill="#ffcccc66" dy="0em">650mm</text>
<path d="M-340.0,-100.0 L790.0,-100.0" stroke="#ffcccc66" stroke-dasharray="5" />
<text x="-339.0" y="-102.0" font-size="8" stroke="none" fill="#ffcccc66" dy="0em">700mm</text>
<path d="M-340.0,700.0 L-340.0,-112.5" stroke="#ffcccc66" stroke-dasharray="5" />
<text x="-338.0" y="699.0" font-size="8" stroke="none" fill="#ffcccc66" dy="0em">-100mm</text>
<path d="M-290.0,700.0 L-290.0,-112.5" stroke="#ffcccc66" stroke-dasharray="5" />
<text x="-288.0" y="699.0" font-size="8" stroke="none" fill="#ffcccc66" dy="0em">-50mm</text>
<path d="M-240.0,700.0 L-240.0,-112.5" stroke="#ffcccc66" stroke-dasharray="5" />
<text x="-238.0" y="699.0" font-size="8" stroke="none" fill="#ffcccc66" dy="0em">0mm</text>
<path d="M-190.0,700.0 L-190.0,-112.5" stroke="#ffcccc66" stroke-dasharray="5" />
<text x="-188.0" y="699.0" font-size="8" stroke="none" fill="#ffcccc66" dy="0em">50mm</text>
<path d="M-140.0,700.0 L-140.0,-112.5" stroke="#ffcccc66" stroke-dasharray="5" />
<text x="-138.0" y="699.0" font-size="8" stroke="none" fill="#ffcccc66" dy="0em">100mm</text>
<path d="M-90.0,700.0 L-90.0,-112.5" stroke="#ffcccc66" stroke-dasharray="5" />
<text x="-88.0" y="699.0" font-size="8" stroke="none" fill="#ffcccc66" dy="0em">150mm</text>
<path d="M-40.0,700.0 L-40.0,-112.5" stroke="#ffcccc66" stroke-dasharray="5" />
<text x="-38.0" y="699.0" font-size="8" stroke="none" fill="#ffcccc66" dy="0em">200mm</text>
<path d="M10.0,700.0 L10.0,-112.5" stroke="#ffcccc66" stroke-dasharray="5" />
<text x="12.0" y="699.0" font-size="8" stroke="none" fill="#ffcccc66" dy="0em">250mm</text>
<path d="M60.0,700.0 L60.0,-112.5" stroke="#ffcccc66" stroke-dasharray="5" />
<text x="62.0" y="699.0" font-size="8" stroke="none" fill="#ffcccc66" dy="0em">300mm</text>
<path d="M110.0,700.0 L110.0,-112.5" stroke="#ffcccc66" stroke-dasharray="5" />
<text x="112.0" y="699.0" font-size="8" stroke="none" fill="#ffcccc66" dy="0em">350mm</text>
<path d="M160.0,700.0 L160.0,-112.5" stroke="#ffcccc66" stroke-dasharray="5" />
<text x="162.0" y="699.0" font-size="8" stroke="none" fill="#ffcccc66" dy="0em">400mm</text>
<path d="M210.0,700.0 L210.0,-112.5" stroke="#ffcccc66" stroke-dasharray="5" />
<text x="212.0" y="699.0" font-size="8" stroke="none" fill="#ffcccc66" dy="0em">450mm</text>
<path d="M260.0,700.0 L260.0,-112.5" stroke="#ffcccc66" stroke-dasharray="5" />
<text x="262.0" y="699.0" font-size="8" stroke="none" fill="#ffcccc66" dy="0em">500mm</text>
<path d="M310.0,700.0 L310.0,-112.5" stroke="#ffcccc66" stroke-dasharray="5" />
<text x="312.0" y="699.0" font-size="8" stroke="none" fill="#ffcccc66" dy="0em">550mm</text>
<path d="M360.0,700.0 L360.0,-112.5" stroke="#ffcccc66" stroke-dasharray="5" />
<text x="362.0" y="699.0" font-size="8" stroke="none" fill="#ffcccc66" dy="0em">600mm</text>
<path d="M410.0,700.0 L410.0,-112.5" stroke="#ffcccc66" stroke-dasharray="5" />
<text x="412.0" y="699.0" font-size="8" stroke="none" fill="#ffcccc66" dy="0em">650mm</text>
<path d="M460.0,700.0 L460.0,-112.5" stroke="#ffcccc66" stroke-dasharray="5" />
<text x="462.0" y="699.0" font-size="8" stroke="none" fill="#ffcccc66" dy="0em">700mm</text>
<path d="M510.0,700.0 L510.0,-112.5" stroke="#ffcccc66" stroke-dasharray="5" />
<text x="512.0" y="699.0" font-size="8" stroke="none" fill="#ffcccc66" dy="0em">750mm</text>
<path d="M560.0,700.0 L560.0,-112.5" stroke="#ffcccc66" stroke-dasharray="5" />
<text x="562.0" y="699.0" font-size="8" stroke="none" fill="#ffcccc66" dy="0em">800mm</text>
<path d="M610.0,700.0 L610.0,-112.5" stroke="#ffcccc66" stroke-dasharray="5" />
<text x="612.0" y="699.0" font-size="8" stroke="none" fill="#ffcccc66" dy="0em">850mm</text>
<path d="M660.0,700.0 L660.0,-112.5" stroke="#ffcccc66" stroke-dasharray="5" />
<text x="662.0" y="699.0" font-size="8" stroke="none" fill="#ffcccc66" dy="0em">900mm</text>
<path d="M710.0,700.0 L710.0,-112.5" stroke="#ffcccc66" stroke-dasharray="5" />
<text x="712.0" y="699.0" font-size="8" stroke="none" fill="#ffcccc66" dy="0em">950mm</text>
<path d="M760.0,700.0 L760.0,-112.5" stroke="#ffcccc66" stroke-dasharray="5" />
<text x="762.0" y="699.0" font-size="8" stroke="none" fill="#ffcccc66" dy="0em">1000mm</text>
<g>
<g>
<path d="M465.0,-0.0 L339.1479006990711,-7.720987687173553 L323.0432102050694,91.47900699071141 L319.18543263426216,-8.94567897949312 L261.25,-12.5 L240.0,265 L240.0,600.0 L465.0,600.0 L465.0,0" fill="#E6E6FA66" stroke="black" />
<text font-size="12" stroke="none" fill="#000000"><textPath xlink:href="#d0" startOffset="10">
<tspan dy="-1em">front</tspan>
</textPath></text>
</g>
<g>
<path d="M0.0,-0.0 L0,600.0 L240.0,600.0 L240.0,265 L223.75,-12.5 L159.15109809326995,-8.891122798506702 L156.13903498133365,116.4720594992067 L139.18223524006356,-7.775543868159976 L84.56776475993651,-4.724456131840029 L82.39238584576032,135.61537330577818 L64.5989019067301,-3.6088772014933017 L0,0" fill="#E6E6FA66" stroke="black" />
<text font-size="12" stroke="none" fill="#000000"><textPath xlink:href="#d1" startOffset="10">
<tspan dy="-1em">back</tspan>
</textPath></text>
</g>
<g>
<path d="M465.0,-0.0 L590.8520993009289,-7.720987687173553 L606.9567897949306,91.47900699071141 L610.8145673657378,-8.94567897949312 L668.75,-12.5 L690.0,265 L690.0,600.0 L465.0,600.0 L465.0,0" fill="#E6E6FA66" stroke="black" />
<text font-size="12" stroke="none" fill="#000000"><textPath xlink:href="#d2" startOffset="10">
<tspan dy="-1em">front</tspan>
</textPath></text>
</g>
<g>
<path d="M0.0,-0.0 L0.0,600.0 L-240.0,600.0 L-240.0,265 L-223.75,-12.5 L-159.15109809326995,-8.891122798506702 L-156.13903498133365,116.4720594992067 L-139.18223524006356,-7.775543868159976 L-84.56776475993651,-4.724456131840029 L-82.39238584576032,135.61537330577818 L-64.5989019067301,-3.6088772014933017 L0.0,0" fill="#E6E6FA66" stroke="black" />
<text font-size="12" stroke="none" fill="#000000"><textPath xlink:href="#d3" startOffset="10">
<tspan dy="-1em">back</tspan>
</textPath></text>
</g>
<g>
<circle cx="0" cy="0" r="1" fill="black" />
<text x="2" y="-2" font-size="12" fill="#000000" stroke="none" dy="0em">14</text>
</g>
<g>
<circle cx="0" cy="0" r="1" fill="black" />
<text x="2" y="-2" font-size="12" fill="#000000" stroke="none" dy="0em">1</text>
</g>
<g>
<circle cx="465.0" cy="0" r="1" fill="black" />
<text x="467.0" y="-2" font-size="12" fill="#000000" stroke="none" dy="0em">2</text>
</g>
<g>
<circle cx="0" cy="600.0" r="1" fill="black" />
<text x="2" y="598.0" font-size="12" fill="#000000" stroke="none" dy="0em">3</text>
</g>
<g>
<circle cx="465.0" cy="600.0" r="1" fill="black" />
<text x="467.0" y="598.0" font-size="12" fill="#000000" stroke="none" dy="0em">4</text>
</g>
<g>
<circle cx="0" cy="265" r="1" fill="black" />
<text x="2" y="263" font-size="12" fill="#000000" stroke="none" dy="0em">5</text>
</g>
<g>
<circle cx="465.0" cy="265" r="1" fill="black" />
<text x="467.0" y="263" font-size="12" fill="#000000" stroke="none" dy="0em">6</text>
</g>
<g>
<circle cx="240.0" cy="265" r="1" fill="black" />
<text x="242.0" y="263" font-size="12" fill="#000000" stroke="none" dy="0em">7</text>
</g>
<g>
<circle cx="240.0" cy="600.0" r="1" fill="black" />
<text x="242.0" y="598.0" font-size="12" fill="#000000" stroke="none" dy="0em">8</text>
</g>
<g>
<circle cx="223.75" cy="0" r="1" fill="black" />
<text x="225.75" y="-2" font-size="12" fill="#000000" stroke="none" dy="0em">9</text>
</g>
<g>
<circle cx="223.75" cy="-12.5" r="1" fill="black" />
<text x="225.75" y="-14.5" font-size="12" fill="#000000" stroke="none" dy="0em">10</text>
</g>
<g>
<circle cx="74.58333333333333" cy="-4.166666666666666" r="1" fill="black" />
<text x="76.58333333333333" y="-6.166666666666666" font-size="12" fill="#000000" stroke="none" dy="0em">11</text>
</g>
<g>
<circle cx="149.16666666666666" cy="-8.333333333333332" r="1" fill="black" />
<text x="151.16666666666666" y="-10.333333333333332" font-size="12" fill="#000000" stroke="none" dy="0em">12</text>
</g>
<g>
<circle cx="0" cy="0" r="1" fill="black" />
<text x="2" y="-2" font-size="12" fill="#000000" stroke="none" dy="0em">14</text>
</g>
<g>
<circle cx="0" cy="0" r="1" fill="black" />
<text x="2" y="-2" font-size="12" fill="#000000" stroke="none" dy="0em">14</text>
</g>
<g>
<circle cx="261.25" cy="0" r="1" fill="black" />
<text x="263.25" y="-2" font-size="12" fill="#000000" stroke="none" dy="0em">15</text>
</g>
<g>
<circle cx="261.25" cy="-12.5" r="1" fill="black" />
<text x="263.25" y="-14.5" font-size="12" fill="#000000" stroke="none" dy="0em">16</text>
</g>
<g>
<circle cx="329.16666666666663" cy="-8.333333333333334" r="1" fill="black" />
<text x="331.16666666666663" y="-10.333333333333334" font-size="12" fill="#000000" stroke="none" dy="0em">17</text>
</g>
<text x="196.72348484848487" y="163.27695080649679" font-size="12" fill="#000000" stroke="none"><tspan x="196.72348484848487" dy="0em">Tailored Skirt Block</tspan><tspan x="196.72348484848487" dy="1em">waist=725</tspan><tspan x="196.72348484848487" dy="1em">hips=900</tspan><tspan x="196.72348484848487" dy="1em">waist_to_hip=265</tspan><tspan x="196.72348484848487" dy="1em">skirt_length=600.0</tspan></text>
</g>
</svg>