<?xml version="1.0" encoding="UTF-8"?>
<svg xmlns="http://www.w3.org/2000/svg" xmlns:xlink="http://www.w3.org/1999/xlink"
     width="292.9527290535526" height="299.7300547674994" viewBox="-92.95272905355262 -199.73005476749938 292.9527290535526 299.7300547674994" stroke="black" fill="none">
<defs>
<path d="M103.99802624146292,-0.12564303631251741 L203.94868227803607,-3.266718944125454" id="d0" />
<path d="M103.43504027943371,-10.356833448737099 L202.99123673974174,-19.767664780588326" id="d1" />
<path d="M101.88075417271028,-20.736467889194536 L199.472430366585,-42.55079202884883" id="d2" />
<path d="M99.34041560778505,-30.662920826913634 L195.36978417547937,-58.56203143083644" id="d3" />
<path d="M95.73241151950897,-40.518388530129364 L187.507874087907,-80.2331775936076" id="d4" />
<path d="M91.31146705188725,-49.76214958923401 L180.41211947072406,-95.1611995631886" id="d5" />
<path d="M85.7959501905328,-58.693235883653045 L168.50400761798886,-114.90157366886632" id="d6" />
<path d="M79.45901487326061,-67.05999351229688 L154.47012183630665,-133.19118004466193" id="d7" />
<path d="M72.46257316323097,-74.54585442127144 L143.1732512818857,-145.25653253992618" id="d8" />
<path d="M64.57430851437195,-81.46832691702812 L125.86501387966946,-160.4838281545973" id="d9" />
<path d="M56.256487283414415,-87.45196282920458 L112.4648250686277,-170.16002025666063" id="d10" />
<path d="M47.13706206070171,-92.64901595482489 L92.5361120346563,-181.74966837366173" id="d11" />
<path d="M37.566075463429904,-96.9576643209629 L71.439867487959,-191.04574121638544" id="d12" />
<path d="M27.83369914383431,-100.16238049036787 L55.732809747757116,-196.1917490580622" id="d13" />
<path d="M17.593279882538926,-102.4599122521456 L33.236726386561934,-201.22874631165936" id="d14" />
</defs>
<path d="M-92.95272905355262,100.0 L200.0,100.0" stroke="#dddddd" />
<path d="M-92.95272905355262,-110.0 L200.0,-110.0" stroke="#dddddd" />
<path d="M-92.95272905355262,100.0 L-92.95272905355262,-199.73005476749935" stroke="#dddddd" />
<text x="55.547270946447384" y="-5.0" font-size="10" stroke="none" fill="#dddddd" dy="0em">A0</text>
<path d="M-92.95272905355262,100.0 L200.0,100.0" stroke="#ffcccc66" stroke-dasharray="5" />
<text x="-91.95272905355262" y="98.0" font-size="8" stroke="none" fill="#ffcccc66" dy="0em">-100mm</text>
<path d="M-92.95272905355262,50.0 L200.0,50.0" stroke="#ffcccc66" stroke-dasharray="5" />
<text x="-91.95272905355262" y="48.0" font-size="8" stroke="none" fill="#ffcccc66" dy="0em">-50mm</text>
<path d="M-92.95272905355262,-0.0 L200.0,-0.0" stroke="#ffcccc66" stroke-dasharray="5" />
<text x="-91.95272905355262" y="-2.0" font-size="8" stroke="none" fill="#ffcccc66" dy="0em">0mm</text>
<path d="M-92.95272905355262,-50.0 L200.0,-50.0" stroke="#ffcccc66" stroke-dasharray="5" />
<text x="-91.95272905355262" y="-52.0" font-size="8" stroke="none" fill="#ffcccc66" dy="0em">50mm</text>
<path d="M-92.95272905355262,-100.0 L200.0,-100.0" stroke="#ffcccc66" stroke-dasharray="5" />
<text x="-91.95272905355262" y="-102.0" font-size="8" stroke="none" fill="#ffcccc66" dy="0em">100mm</text>
<path d="M-92.95272905355262,-150.0 L200.0,-150.0" stroke="#ffcccc66" stroke-dasharray="5" />
<text x="-91.95272905355262" y="-152.0" font-size="8" stroke="none" fill="#ffcccc66" dy="0em">150mm</text>
<path d="M-92.95272905355262,100.0 L-92.95272905355262,-199.73005476749935" stroke="#ffcccc66" stroke-dasharray="5" />
<text x="-90.95272905355262" y="99.0" font-size="8" stroke="none" fill="#ffcccc66" dy="0em">-100mm</text>
<path d="M-42.952729053552616,100.0 L-42.952729053552616,-199.73005476749935" stroke="#ffcccc66" stroke-dasharray="5" />
<text x="-40.952729053552616" y="99.0" font-size="8" stroke="none" fill="#ffcccc66" dy="0em">-50mm</text>
<path d="M7.047270946447384,100.0 L7.047270946447384,-199.73005476749935" stroke="#ffcccc66" stroke-dasharray="5" />
<text x="9.047270946447384" y="99.0" font-size="8" stroke="none" fill="#ffcccc66" dy="0em">-0mm</text>
<path d="M57.047270946447384,100.0 L57.047270946447384,-199.73005476749935" stroke="#ffcccc66" stroke-dasharray="5" />
<text x="59.047270946447384" y="99.0" font-size="8" stroke="none" fill="#ffcccc66" dy="0em">50mm</text>
<path d="M107.04727094644738,100.0 L107.04727094644738,-199.73005476749935" stroke="#ffcccc66" stroke-dasharray="5" />
<text x="109.04727094644738" y="99.0" font-size="8" stroke="none" fill="#ffcccc66" dy="0em">100mm</text>
<path d="M157.04727094644738,100.0 L157.04727094644738,-199.73005476749935" stroke="#ffcccc66" stroke-dasharray="5" />
<text x="159.04727094644738" y="99.0" font-size="8" stroke="none" fill="#ffcccc66" dy="0em">150mm</text>
<g>
<path d="M100.0,-0.0 L99.80267284282715,-6.279051952931337 L99.21147013144778,-12.533323356430426 L98.22872507286887,-18.738131458572465 L96.85831611286311,-24.86898871648548 L95.10565162951536,-30.901699437494745 L92.97764858882515,-36.8124552684678 L90.48270524660195,-42.577929156507274 L87.63066800438637,-48.17536741017153 L84.43279255020151,-53.58267949789967 L80.90169943749474,-58.778525229247315 L77.05132427757891,-63.742398974868976 L72.89686274214115,-68.45471059286888 L68.45471059286886,-72.89686274214115 L63.74239897486897,-77.05132427757894 L58.77852522924731,-80.90169943749476 L53.582679497899655,-84.43279255020151 L48.17536741017152,-87.63066800438637 L42.57792915650727,-90.48270524660195 L36.81245526846779,-92.97764858882515 L30.90169943749475,-95.10565162951536 L24.86898871648548,-96.85831611286312 L18.73813145857245,-98.22872507286887 L12.533323356430426,-99.21147013144778 L7.047270946447391,-99.73005476749935" fill="none" stroke="black" />
</g>
<g>
<path d="M100.0,-0.0 L102.99851968109719,-0.09423227723438804" />
<text font-size="12" stroke="none" fill="#000000"><textPath xlink:href="#d0">
<tspan dy="0em">0mm</tspan>
</textPath></text>
</g>
<g>
<path d="M99.45279242102139,-9.98040019546305 L102.43947831483062,-10.262725135418586" />
<text font-size="12" stroke="none" fill="#000000"><textPath xlink:href="#d1">
<tspan dy="0em">10mm</tspan>
</textPath></text>
</g>
<g>
<path d="M97.97708712495529,-19.863894923608363 L100.90483741077153,-20.518324647797993" />
<text font-size="12" stroke="none" fill="#000000"><textPath xlink:href="#d2">
<tspan dy="0em">20mm</tspan>
</textPath></text>
</g>
<g>
<path d="M95.49924086507727,-29.54695640275672 L98.3801219221081,-30.383929720874406" />
<text font-size="12" stroke="none" fill="#000000"><textPath xlink:href="#d3">
<tspan dy="0em">30mm</tspan>
</textPath></text>
</g>
<g>
<path d="M92.06139301677305,-38.929796967590235 L94.81465689382499,-40.12124063949458" />
<text font-size="12" stroke="none" fill="#000000"><textPath xlink:href="#d4">
<tspan dy="0em">40mm</tspan>
</textPath></text>
</g>
<g>
<path d="M87.74744095513377,-47.94618759027583 L90.42046052769888,-49.30815908949447" />
<text font-size="12" stroke="none" fill="#000000"><textPath xlink:href="#d5">
<tspan dy="0em">50mm</tspan>
</textPath></text>
</g>
<g>
<path d="M82.48762789343456,-56.44490237224451 L84.96886961625825,-58.13115250580091" />
<text font-size="12" stroke="none" fill="#000000"><textPath xlink:href="#d6">
<tspan dy="0em">60mm</tspan>
</textPath></text>
</g>
<g>
<path d="M76.45857059473877,-64.41474605100228 L78.70890380363015,-66.39868164697323" />
<text font-size="12" stroke="none" fill="#000000"><textPath xlink:href="#d7">
<tspan dy="0em">70mm</tspan>
</textPath></text>
</g>
<g>
<path d="M69.63414603848477,-71.71742729652524 L71.75546638204442,-73.83874764008489" />
<text font-size="12" stroke="none" fill="#000000"><textPath xlink:href="#d8">
<tspan dy="0em">80mm</tspan>
</textPath></text>
</g>
<g>
<path d="M62.122680299760056,-78.30770686752535 L63.96140146071898,-80.67817190465243" />
<text font-size="12" stroke="none" fill="#000000"><textPath xlink:href="#d9">
<tspan dy="0em">90mm</tspan>
</textPath></text>
</g>
<g>
<path d="M54.00815377200588,-84.14364053210633 L55.69440390556228,-86.62488225493001" />
<text font-size="12" stroke="none" fill="#000000"><textPath xlink:href="#d10">
<tspan dy="0em">100mm</tspan>
</textPath></text>
</g>
<g>
<path d="M45.32110006174352,-89.08498985807141 L46.68307156096216,-91.75800943063652" />
<text font-size="12" stroke="none" fill="#000000"><textPath xlink:href="#d11">
<tspan dy="0em">110mm</tspan>
</textPath></text>
</g>
<g>
<path d="M36.21112378244874,-93.194141245146 L37.22733754318461,-96.01678355200868" />
<text font-size="12" stroke="none" fill="#000000"><textPath xlink:href="#d12">
<tspan dy="0em">120mm</tspan>
</textPath></text>
</g>
<g>
<path d="M26.717734719677395,-96.32120574766009 L27.55470803779508,-99.20208680469092" />
<text font-size="12" stroke="none" fill="#000000"><textPath xlink:href="#d13">
<tspan dy="0em">130mm</tspan>
</textPath></text>
</g>
<g>
<path d="M16.967542022378005,-98.50915888976505 L17.436845417498695,-101.47222391155046" />
<text font-size="12" stroke="none" fill="#000000"><textPath xlink:href="#d14">
<tspan dy="0em">140mm</tspan>
</textPath></text>
</g>
</svg>