<?xml version="1.0" encoding="UTF-8"?>
<svg xmlns="http://www.w3.org/2000/svg" xmlns:xlink="http://www.w3.org/1999/xlink"
     width="600" height="1450" viewBox="-100 -200 600 1450" stroke="black" fill="none">
<defs>
<path d="M50,0 L150,-50 L250,50 L350,0" fill="none" stroke="black" id="d0" />
<path d="M50,150 L150,100 L250,200 L350,150" fill="none" stroke="black" id="d1" />
<marker markerWidth="15.2" markerHeight="8.0" viewBox="-1.0 -0.5 1.9 1.0" orient="auto" id="d2">
<path d="M-1.0,0.5 L-1.0,-0.5 L0.0,0 Z" fill="black" stroke="none" />
</marker>
<path d="M50,300 L150,250 L250,350 L350,300" fill="none" stroke="black" id="d3" />
<marker markerWidth="15.2" markerHeight="8.0" viewBox="-1.0 -0.5 1.9 1.0" orient="auto" id="d4">
<path d="M-1.0,0.5 L-1.0,-0.5 L0.0,0 Z" fill="black" stroke="none" />
</marker>
<path d="M50,450 L150,400 L250,500 L350,450" fill="none" stroke="black" id="d5" />
<path d="M50,900 L150,850 L250,950 L350,900" fill="none" stroke="black" id="d6" />
<path d="M50,1050 L150,1000 L250,1100 L350,1050" fill="none" stroke="black" id="d7" />
<path d="M51.788854381999755,1053.5777087639997 L96.5102139319944,1143.020427863992" id="d8" />
<path d="M69.67739820199807,1044.6334368540006 L114.39875775199272,1134.0761559539928" id="d9" />
<path d="M87.56594202199639,1035.6891649440015 L132.28730157199104,1125.1318840439938" id="d10" />
<path d="M105.45448584199487,1026.7448930340022 L150.17584539199297,1116.1876121339926" id="d11" />
<path d="M123.34302966199319,1017.800621124003 L168.06438921199126,1107.2433402239935" id="d12" />
<path d="M141.23157348199152,1008.8563492140038 L185.9529330319896,1098.2990683139944" id="d13" />
<path d="M152.96744511343002,1008.6242993629223 L82.25676699477576,1079.3349774815777" id="d14" />
<path d="M167.109580737161,1022.7664349866534 L96.39890261850674,1093.4771131053087" id="d15" />
<path d="M181.25171636089175,1036.908570610384 L110.54103824223273,1107.6192487290346" id="d16" />
<path d="M195.3938519846227,1051.050706234115 L124.68317386596368,1121.7613843527656" id="d17" />
<path d="M209.53598760835362,1065.192841857846 L138.82530948969463,1135.9035199764965" id="d18" />
<path d="M223.6781232320846,1079.334977481577 L152.96744511342558,1150.0456556002275" id="d19" />
<path d="M237.82025885581552,1093.4771131053078 L167.10958073715653,1164.1877912239584" id="d20" />
<path d="M257.8488176352427,1100.5477271373782 L302.57017718523696,1189.9904462373704" id="d21" />
<path d="M275.73736145524094,1091.6034552273788 L320.4587210052337,1181.046174327372" id="d22" />
<path d="M293.6259052752393,1082.65918331738 L338.34726482523206,1172.1019024173731" id="d23" />
<path d="M311.5144490952376,1073.7149114073807 L356.23580864523035,1163.1576305073738" id="d24" />
<path d="M329.40299291523587,1064.7706394973816 L374.12435246522864,1154.2133585973747" id="d25" />
<path d="M347.2915367352342,1055.8263675873825 L392.012896285227,1145.2690866873756" id="d26" />
<path d="M0.0,1154.0 L0.0,1254.0" id="d27" />
<path d="M20.0,1154.0 L20.0,1254.0" id="d28" />
<path d="M40.0,1154.0 L40.0,1254.0" id="d29" />
<path d="M60.0,1154.0 L60.0,1254.0" id="d30" />
<path d="M80.0,1154.0 L80.0,1254.0" id="d31" />
<path d="M100.0,1154.0 L100.0,1254.0" id="d32" />
<path d="M120.0,1154.0 L120.0,1254.0" id="d33" />
<path d="M140.0,1154.0 L140.0,1254.0" id="d34" />
<path d="M160.0,1154.0 L160.0,1254.0" id="d35" />
<path d="M180.0,1154.0 L180.0,1254.0" id="d36" />
<path d="M200.0,1154.0 L200.0,1254.0" id="d37" />
<path d="M220.00000000000003,1154.0 L220.00000000000003,1254.0" id="d38" />
<path d="M240.0,1154.0 L240.0,1254.0" id="d39" />
<path d="M260.0,1154.0 L260.0,1254.0" id="d40" />
<path d="M280.0,1154.0 L280.0,1254.0" id="d41" />
<path d="M300.0,1154.0 L300.0,1254.0" id="d42" />
<path d="M320.0,1154.0 L320.0,1254.0" id="d43" />
<path d="M340.0,1154.0 L340.0,1254.0" id="d44" />
<path d="M360.0,1154.0 L360.0,1254.0" id="d45" />
<path d="M380.0,1154.0 L380.0,1254.0" id="d46" />
<path d="M404.0,1150.0 L504.0,1150.0" id="d47" />
<path d="M404.0,1130.0 L504.0,1130.0" id="d48" />
<path d="M404.0,1110.0 L504.0,1110.0" id="d49" />
<path d="M403.99999999999994,1090.0 L503.99999999999994,1090.0" id="d50" />
<path d="M404.0,1069.9999999999998 L504.0,1069.9999999999998" id="d51" />
<path d="M404.0,1050.0 L504.0,1050.0" id="d52" />
<path d="M404.0,1030.0000000000002 L504.0,1030.0000000000002" id="d53" />
<path d="M404.0,1010.0 L504.0,1010.0" id="d54" />
<path d="M404.0,990.0 L504.0,990.0" id="d55" />
<path d="M404.0,970.0 L504.0,970.0" id="d56" />
<path d="M404.0,950.0 L504.0,950.0" id="d57" />
<path d="M404.0,930.0 L504.0,930.0" id="d58" />
<path d="M404.00000000000006,910.0 L504.00000000000006,910.0" id="d59" />
<path d="M404.0,890.0000000000001 L504.0,890.0000000000001" id="d60" />
<path d="M404.00000000000006,870.0 L504.00000000000006,870.0" id="d61" />
<path d="M404.0,850.0 L504.0,850.0" id="d62" />
<path d="M404.0,830.0 L504.0,830.0" id="d63" />
<path d="M404.0,809.9999999999999 L504.0,809.9999999999999" id="d64" />
<path d="M404.0,790.0 L504.0,790.0" id="d65" />
<path d="M404.0,770.0 L504.0,770.0" id="d66" />
<path d="M404.0,749.9999999999999 L504.0,749.9999999999999" id="d67" />
<path d="M404.0,729.9999999999999 L504.0,729.9999999999999" id="d68" />
<path d="M404.0,710.0 L504.0,710.0" id="d69" />
<path d="M404.0,690.0 L504.0,690.0" id="d70" />
<path d="M404.0,670.0 L504.0,670.0" id="d71" />
<path d="M404.0,650.0 L504.0,650.0" id="d72" />
<path d="M404.0,630.0000000000001 L504.0,630.0000000000001" id="d73" />
<path d="M404.0,610.0 L504.0,610.0" id="d74" />
<path d="M404.0,590.0000000000001 L504.0,590.0000000000001" id="d75" />
<path d="M404.0,570.0000000000001 L504.0,570.0000000000001" id="d76" />
<path d="M404.0,550.0 L504.0,550.0" id="d77" />
<path d="M404.0,530.0 L504.0,530.0" id="d78" />
<path d="M404.0,509.99999999999994 L504.0,509.99999999999994" id="d79" />
<path d="M404.0,489.99999999999994 L504.0,489.99999999999994" id="d80" />
<path d="M404.0,470.0 L504.0,470.0" id="d81" />
<path d="M404.0,449.99999999999994 L504.0,449.99999999999994" id="d82" />
<path d="M404.0,430.0 L504.0,430.0" id="d83" />
<path d="M404.0,410.00000000000006 L504.0,410.00000000000006" id="d84" />
<path d="M404.0,390.0 L504.0,390.0" id="d85" />
<path d="M404.0,370.0 L504.0,370.0" id="d86" />
<path d="M404.0,350.0 L504.0,350.0" id="d87" />
<path d="M404.0,329.99999999999994 L504.0,329.99999999999994" id="d88" />
<path d="M404.0,309.99999999999994 L504.0,309.99999999999994" id="d89" />
<path d="M404.0,290.00000000000006 L504.0,290.00000000000006" id="d90" />
<path d="M404.0,270.00000000000006 L504.0,270.00000000000006" id="d91" />
<path d="M404.0,250.00000000000006 L504.0,250.00000000000006" id="d92" />
<path d="M404.0,230.00000000000003 L504.0,230.00000000000003" id="d93" />
<path d="M404.0,210.0 L504.0,210.0" id="d94" />
<path d="M404.0,189.99999999999994 L504.0,189.99999999999994" id="d95" />
<path d="M404.0,169.99999999999997 L504.0,169.99999999999997" id="d96" />
<path d="M404.0,149.99999999999994 L504.0,149.99999999999994" id="d97" />
<path d="M404.0,130.00000000000006 L504.0,130.00000000000006" id="d98" />
<path d="M404.0,110.00000000000004 L504.0,110.00000000000004" id="d99" />
<path d="M404.0,90.00000000000004 L504.0,90.00000000000004" id="d100" />
<path d="M404.0,70.0 L504.0,70.0" id="d101" />
<path d="M404.0,50.0 L504.0,50.0" id="d102" />
<path d="M404.0,29.99999999999997 L504.0,29.99999999999997" id="d103" />
<path d="M404.0,9.999999999999957 L504.0,9.999999999999957" id="d104" />
<path d="M404.0,-10.000000000000071 L504.0,-10.000000000000071" id="d105" />
<path d="M404.0,-29.99999999999993 L504.0,-29.99999999999993" id="d106" />
<path d="M404.0,-49.99999999999996 L504.0,-49.99999999999996" id="d107" />
<path d="M404.0,-69.99999999999997 L504.0,-69.99999999999997" id="d108" />
<path d="M404.0,-90.0 L504.0,-90.0" id="d109" />
</defs>
<g>
<path d="M50,0 L150,-50 L250,50 L350,0" fill="none" stroke="black" />
<text font-size="12" stroke="none" fill="#000000"><textPath xlink:href="#d0" startOffset="10">
<tspan dy="-1em">line</tspan>
</textPath></text>
</g>
<g>
<text font-size="12" stroke="none" fill="#000000"><textPath xlink:href="#d1" startOffset="10">
<tspan dy="-1em">dashed</tspan>
</textPath></text>
<path d="M50,150 L150,100 L250,200 L350,150" fill="none" stroke="black" stroke-dasharray="3" />
</g>
<g>
<path d="M50,300 L150,250 L250,350 L350,300" fill="none" stroke="black" marker-end="url(#d2)" />
<text font-size="12" stroke="none" fill="#000000"><textPath xlink:href="#d3" startOffset="10">
<tspan dy="-1em">arrow</tspan>
</textPath></text>
</g>
<g>
<path d="M50,450 L150,400 L250,500 L350,450" fill="none" stroke="black" marker-end="url(#d4)" stroke-dasharray="3" />
<text font-size="12" stroke="none" fill="#000000"><textPath xlink:href="#d5" startOffset="10">
<tspan dy="-1em">dashed_arrow</tspan>
</textPath></text>
</g>
<g>
<g>
<circle cx="50" cy="600" r="1" fill="black" />
</g>
<g>
<circle cx="150" cy="550" r="1" fill="black" />
</g>
<g>
<circle cx="250" cy="650" r="1" fill="black" />
</g>
<g>
<circle cx="350" cy="600" r="1" fill="black" />
</g>
<text x="181.25" y="600.0" font-size="12" stroke="none" fill="black" text-anchor="middle" dy="0em">pointset</text>
</g>
<g>
<path d="M50,750 L150,700 L250,800 L350,750" fill="#E6E6FA" stroke="black" />
<text x="181.25" y="750.0" font-size="12" stroke="none" fill="black" text-anchor="middle" dy="0em">polygon</text>
</g>
<g>
<path d="M50,900 L150,850 L250,950 L350,900" fill="none" stroke="black" />
<path d="M52.2360679774999,904.4721359549995 L47.7639320225001,895.5278640450005" stroke="black" />
<path d="M352.2360679774998,904.4721359549995 L347.7639320225002,895.5278640450005" stroke="black" />
<text font-size="12" stroke="none" fill="black"><textPath xlink:href="#d6" startOffset="10">
<tspan dy="-1em">tape (365.0mm)</tspan>
</textPath></text>
</g>
<g>
<g>
<path d="M50,1050 L150,1000 L250,1100 L350,1050" fill="none" stroke="black" />
<text font-size="12" stroke="none" fill="#000000"><textPath xlink:href="#d7" startOffset="10">
<tspan dy="-1em">ruler</tspan>
</textPath></text>
</g>
<path d="M50.0,1050.0 L51.34164078649981,1052.6832815729997" />
<text font-size="12" stroke="none" fill="#000000"><textPath xlink:href="#d8">
<tspan dy="0em">0mm</tspan>
</textPath></text>
<path d="M67.88854381999832,1041.055728090001 L69.23018460649813,1043.7390096630006" />
<text font-size="12" stroke="none" fill="#000000"><textPath xlink:href="#d9">
<tspan dy="0em">20mm</tspan>
</textPath></text>
<path d="M85.77708763999664,1032.1114561800018 L87.11872842649645,1034.7947377530015" />
<text font-size="12" stroke="none" fill="#000000"><textPath xlink:href="#d10">
<tspan dy="0em">40mm</tspan>
</textPath></text>
<path d="M103.66563145999496,1023.1671842700025 L105.00727224649489,1025.8504658430022" />
<text font-size="12" stroke="none" fill="#000000"><textPath xlink:href="#d11">
<tspan dy="0em">60mm</tspan>
</textPath></text>
<path d="M121.55417527999327,1014.2229123600034 L122.89581606649321,1016.9061939330031" />
<text font-size="12" stroke="none" fill="#000000"><textPath xlink:href="#d12">
<tspan dy="0em">80mm</tspan>
</textPath></text>
<path d="M139.4427190999916,1005.2786404500042 L140.78435988649153,1007.9619220230039" />
<text font-size="12" stroke="none" fill="#000000"><textPath xlink:href="#d13">
<tspan dy="0em">100mm</tspan>
</textPath></text>
<path d="M155.7958722381762,1005.7958722381761 L153.67455189461657,1007.9171925817358" />
<text font-size="12" stroke="none" fill="#000000"><textPath xlink:href="#d14">
<tspan dy="0em">120mm</tspan>
</textPath></text>
<path d="M169.93800786190718,1019.9380078619072 L167.81668751834755,1022.0593282054668" />
<text font-size="12" stroke="none" fill="#000000"><textPath xlink:href="#d15">
<tspan dy="0em">140mm</tspan>
</textPath></text>
<path d="M184.08014348563813,1034.080143485638 L181.95882314207833,1036.2014638291976" />
<text font-size="12" stroke="none" fill="#000000"><textPath xlink:href="#d16">
<tspan dy="0em">160mm</tspan>
</textPath></text>
<path d="M198.22227910936908,1048.222279109369 L196.10095876580928,1050.3435994529286" />
<text font-size="12" stroke="none" fill="#000000"><textPath xlink:href="#d17">
<tspan dy="0em">180mm</tspan>
</textPath></text>
<path d="M212.3644147331,1062.3644147331 L210.2430943895402,1064.4857350766595" />
<text font-size="12" stroke="none" fill="#000000"><textPath xlink:href="#d18">
<tspan dy="0em">200mm</tspan>
</textPath></text>
<path d="M226.50655035683099,1076.506550356831 L224.38523001327118,1078.6278707003905" />
<text font-size="12" stroke="none" fill="#000000"><textPath xlink:href="#d19">
<tspan dy="0em">220mm</tspan>
</textPath></text>
<path d="M240.6486859805619,1090.6486859805618 L238.5273656370021,1092.7700063241214" />
<text font-size="12" stroke="none" fill="#000000"><textPath xlink:href="#d20">
<tspan dy="0em">240mm</tspan>
</textPath></text>
<path d="M256.059963253243,1096.9700183733785 L257.4016040397428,1099.6532999463782" />
<text font-size="12" stroke="none" fill="#000000"><textPath xlink:href="#d21">
<tspan dy="0em">260mm</tspan>
</textPath></text>
<path d="M273.9485070732413,1088.0257464633792 L275.290147859741,1090.7090280363789" />
<text font-size="12" stroke="none" fill="#000000"><textPath xlink:href="#d22">
<tspan dy="0em">280mm</tspan>
</textPath></text>
<path d="M291.8370508932396,1079.0814745533803 L293.17869167973936,1081.76475612638" />
<text font-size="12" stroke="none" fill="#000000"><textPath xlink:href="#d23">
<tspan dy="0em">300mm</tspan>
</textPath></text>
<path d="M309.7255947132379,1070.137202643381 L311.06723549973765,1072.8204842163807" />
<text font-size="12" stroke="none" fill="#000000"><textPath xlink:href="#d24">
<tspan dy="0em">320mm</tspan>
</textPath></text>
<path d="M327.6141385332362,1061.192930733382 L328.95577931973594,1063.8762123063816" />
<text font-size="12" stroke="none" fill="#000000"><textPath xlink:href="#d25">
<tspan dy="0em">340mm</tspan>
</textPath></text>
<path d="M345.50268235323455,1052.2486588233828 L346.8443231397343,1054.9319403963825" />
<text font-size="12" stroke="none" fill="#000000"><textPath xlink:href="#d26">
<tspan dy="0em">360mm</tspan>
</textPath></text>
</g>
<g>
<g>
<path d="M0,1150 L400,1150" fill="none" stroke="#999999" />
</g>
<path d="M0.0,1150.0 L0.0,1153.0" stroke="#999999" />
<text font-size="12" stroke="none" fill="#999999"><textPath xlink:href="#d27">
<tspan dy="0em">0mm</tspan>
</textPath></text>
<path d="M20.0,1150.0 L20.0,1153.0" stroke="#999999" />
<text font-size="12" stroke="none" fill="#999999"><textPath xlink:href="#d28">
<tspan dy="0em">20mm</tspan>
</textPath></text>
<path d="M40.0,1150.0 L40.0,1153.0" stroke="#999999" />
<text font-size="12" stroke="none" fill="#999999"><textPath xlink:href="#d29">
<tspan dy="0em">40mm</tspan>
</textPath></text>
<path d="M60.0,1150.0 L60.0,1153.0" stroke="#999999" />
<text font-size="12" stroke="none" fill="#999999"><textPath xlink:href="#d30">
<tspan dy="0em">60mm</tspan>
</textPath></text>
<path d="M80.0,1150.0 L80.0,1153.0" stroke="#999999" />
<text font-size="12" stroke="none" fill="#999999"><textPath xlink:href="#d31">
<tspan dy="0em">80mm</tspan>
</textPath></text>
<path d="M100.0,1150.0 L100.0,1153.0" stroke="#999999" />
<text font-size="12" stroke="none" fill="#999999"><textPath xlink:href="#d32">
<tspan dy="0em">100mm</tspan>
</textPath></text>
<path d="M120.0,1150.0 L120.0,1153.0" stroke="#999999" />
<text font-size="12" stroke="none" fill="#999999"><textPath xlink:href="#d33">
<tspan dy="0em">120mm</tspan>
</textPath></text>
<path d="M140.0,1150.0 L140.0,1153.0" stroke="#999999" />
<text font-size="12" stroke="none" fill="#999999"><textPath xlink:href="#d34">
<tspan dy="0em">140mm</tspan>
</textPath></text>
<path d="M160.0,1150.0 L160.0,1153.0" stroke="#999999" />
<text font-size="12" stroke="none" fill="#999999"><textPath xlink:href="#d35">
<tspan dy="0em">160mm</tspan>
</textPath></text>
<path d="M180.0,1150.0 L180.0,1153.0" stroke="#999999" />
<text font-size="12" stroke="none" fill="#999999"><textPath xlink:href="#d36">
<tspan dy="0em">180mm</tspan>
</textPath></text>
<path d="M200.0,1150.0 L200.0,1153.0" stroke="#999999" />
<text font-size="12" stroke="none" fill="#999999"><textPath xlink:href="#d37">
<tspan dy="0em">200mm</tspan>
</textPath></text>
<path d="M220.00000000000003,1150.0 L220.00000000000003,1153.0" stroke="#999999" />
<text font-size="12" stroke="none" fill="#999999"><textPath xlink:href="#d38">
<tspan dy="0em">220mm</tspan>
</textPath></text>
<path d="M240.0,1150.0 L240.0,1153.0" stroke="#999999" />
<text font-size="12" stroke="none" fill="#999999"><textPath xlink:href="#d39">
<tspan dy="0em">240mm</tspan>
</textPath></text>
<path d="M260.0,1150.0 L260.0,1153.0" stroke="#999999" />
<text font-size="12" stroke="none" fill="#999999"><textPath xlink:href="#d40">
<tspan dy="0em">260mm</tspan>
</textPath></text>
<path d="M280.0,1150.0 L280.0,1153.0" stroke="#999999" />
<text font-size="12" stroke="none" fill="#999999"><textPath xlink:href="#d41">
<tspan dy="0em">280mm</tspan>
</textPath></text>
<path d="M300.0,1150.0 L300.0,1153.0" stroke="#999999" />
<text font-size="12" stroke="none" fill="#999999"><textPath xlink:href="#d42">
<tspan dy="0em">300mm</tspan>
</textPath></text>
<path d="M320.0,1150.0 L320.0,1153.0" stroke="#999999" />
<text font-size="12" stroke="none" fill="#999999"><textPath xlink:href="#d43">
<tspan dy="0em">320mm</tspan>
</textPath></text>
<path d="M340.0,1150.0 L340.0,1153.0" stroke="#999999" />
<text font-size="12" stroke="none" fill="#999999"><textPath xlink:href="#d44">
<tspan dy="0em">340mm</tspan>
</textPath></text>
<path d="M360.0,1150.0 L360.0,1153.0" stroke="#999999" />
<text font-size="12" stroke="none" fill="#999999"><textPath xlink:href="#d45">
<tspan dy="0em">360mm</tspan>
</textPath></text>
<path d="M380.0,1150.0 L380.0,1153.0" stroke="#999999" />
<text font-size="12" stroke="none" fill="#999999"><textPath xlink:href="#d46">
<tspan dy="0em">380mm</tspan>
</textPath></text>
</g>
<g>
<g>
<path d="M400,1150 L400,-100" fill="none" stroke="#999999" />
</g>
<path d="M400.0,1150.0 L403.0,1150.0" stroke="#999999" />
<text font-size="12" stroke="none" fill="#999999"><textPath xlink:href="#d47">
<tspan dy="0em">0mm</tspan>
</textPath></text>
<path d="M400.0,1130.0 L403.0,1130.0" stroke="#999999" />
<text font-size="12" stroke="none" fill="#999999"><textPath xlink:href="#d48">
<tspan dy="0em">20mm</tspan>
</textPath></text>
<path d="M400.0,1110.0 L403.0,1110.0" stroke="#999999" />
<text font-size="12" stroke="none" fill="#999999"><textPath xlink:href="#d49">
<tspan dy="0em">40mm</tspan>
</textPath></text>
<path d="M399.99999999999994,1090.0 L402.99999999999994,1090.0" stroke="#999999" />
<text font-size="12" stroke="none" fill="#999999"><textPath xlink:href="#d50">
<tspan dy="0em">60mm</tspan>
</textPath></text>
<path d="M400.0,1069.9999999999998 L403.0,1069.9999999999998" stroke="#999999" />
<text font-size="12" stroke="none" fill="#999999"><textPath xlink:href="#d51">
<tspan dy="0em">80mm</tspan>
</textPath></text>
<path d="M400.0,1050.0 L403.0,1050.0" stroke="#999999" />
<text font-size="12" stroke="none" fill="#999999"><textPath xlink:href="#d52">
<tspan dy="0em">100mm</tspan>
</textPath></text>
<path d="M400.0,1030.0000000000002 L403.0,1030.0000000000002" stroke="#999999" />
<text font-size="12" stroke="none" fill="#999999"><textPath xlink:href="#d53">
<tspan dy="0em">120mm</tspan>
</textPath></text>
<path d="M400.0,1010.0 L403.0,1010.0" stroke="#999999" />
<text font-size="12" stroke="none" fill="#999999"><textPath xlink:href="#d54">
<tspan dy="0em">140mm</tspan>
</textPath></text>
<path d="M400.0,990.0 L403.0,990.0" stroke="#999999" />
<text font-size="12" stroke="none" fill="#999999"><textPath xlink:href="#d55">
<tspan dy="0em">160mm</tspan>
</textPath></text>
<path d="M400.0,970.0 L403.0,970.0" stroke="#999999" />
<text font-size="12" stroke="none" fill="#999999"><textPath xlink:href="#d56">
<tspan dy="0em">180mm</tspan>
</textPath></text>
<path d="M400.0,950.0 L403.0,950.0" stroke="#999999" />
<text font-size="12" stroke="none" fill="#999999"><textPath xlink:href="#d57">
<tspan dy="0em">200mm</tspan>
</textPath></text>
<path d="M400.0,930.0 L403.0,930.0" stroke="#999999" />
<text font-size="12" stroke="none" fill="#999999"><textPath xlink:href="#d58">
<tspan dy="0em">220mm</tspan>
</textPath></text>
<path d="M400.00000000000006,910.0 L403.00000000000006,910.0" stroke="#999999" />
<text font-size="12" stroke="none" fill="#999999"><textPath xlink:href="#d59">
<tspan dy="0em">240mm</tspan>
</textPath></text>
<path d="M400.0,890.0000000000001 L403.0,890.0000000000001" stroke="#999999" />
<text font-size="12" stroke="none" fill="#999999"><textPath xlink:href="#d60">
<tspan dy="0em">260mm</tspan>
</textPath></text>
<path d="M400.00000000000006,870.0 L403.00000000000006,870.0" stroke="#999999" />
<text font-size="12" stroke="none" fill="#999999"><textPath xlink:href="#d61">
<tspan dy="0em">280mm</tspan>
</textPath></text>
<path d="M400.0,850.0 L403.0,850.0" stroke="#999999" />
<text font-size="12" stroke="none" fill="#999999"><textPath xlink:href="#d62">
<tspan dy="0em">300mm</tspan>
</textPath></text>
<path d="M400.0,830.0 L403.0,830.0" stroke="#999999" />
<text font-size="12" stroke="none" fill="#999999"><textPath xlink:href="#d63">
<tspan dy="0em">320mm</tspan>
</textPath></text>
<path d="M400.0,809.9999999999999 L403.0,809.9999999999999" stroke="#999999" />
<text font-size="12" stroke="none" fill="#999999"><textPath xlink:href="#d64">
<tspan dy="0em">340mm</tspan>
</textPath></text>
<path d="M400.0,790.0 L403.0,790.0" stroke="#999999" />
<text font-size="12" stroke="none" fill="#999999"><textPath xlink:href="#d65">
<tspan dy="0em">360mm</tspan>
</textPath></text>
<path d="M400.0,770.0 L403.0,770.0" stroke="#999999" />
<text font-size="12" stroke="none" fill="#999999"><textPath xlink:href="#d66">
<tspan dy="0em">380mm</tspan>
</textPath></text>
<path d="M400.0,749.9999999999999 L403.0,749.9999999999999" stroke="#999999" />
<text font-size="12" stroke="none" fill="#999999"><textPath xlink:href="#d67">
<tspan dy="0em">400mm</tspan>
</textPath></text>
<path d="M400.0,729.9999999999999 L403.0,729.9999999999999" stroke="#999999" />
<text font-size="12" stroke="none" fill="#999999"><textPath xlink:href="#d68">
<tspan dy="0em">420mm</tspan>
</textPath></text>
<path d="M400.0,710.0 L403.0,710.0" stroke="#999999" />
<text font-size="12" stroke="none" fill="#999999"><textPath xlink:href="#d69">
<tspan dy="0em">440mm</tspan>
</textPath></text>
<path d="M400.0,690.0 L403.0,690.0" stroke="#999999" />
<text font-size="12" stroke="none" fill="#999999"><textPath xlink:href="#d70">
<tspan dy="0em">460mm</tspan>
</textPath></text>
<path d="M400.0,670.0 L403.0,670.0" stroke="#999999" />
<text font-size="12" stroke="none" fill="#999999"><textPath xlink:href="#d71">
<tspan dy="0em">480mm</tspan>
</textPath></text>
<path d="M400.0,650.0 L403.0,650.0" stroke="#999999" />
<text font-size="12" stroke="none" fill="#999999"><textPath xlink:href="#d72">
<tspan dy="0em">500mm</tspan>
</textPath></text>
<path d="M400.0,630.0000000000001 L403.0,630.0000000000001" stroke="#999999" />
<text font-size="12" stroke="none" fill="#999999"><textPath xlink:href="#d73">
<tspan dy="0em">520mm</tspan>
</textPath></text>
<path d="M400.0,610.0 L403.0,610.0" stroke="#999999" />
<text font-size="12" stroke="none" fill="#999999"><textPath xlink:href="#d74">
<tspan dy="0em">540mm</tspan>
</textPath></text>
<path d="M400.0,590.0000000000001 L403.0,590.0000000000001" stroke="#999999" />
<text font-size="12" stroke="none" fill="#999999"><textPath xlink:href="#d75">
<tspan dy="0em">560mm</tspan>
</textPath></text>
<path d="M400.0,570.0000000000001 L403.0,570.0000000000001" stroke="#999999" />
<text font-size="12" stroke="none" fill="#999999"><textPath xlink:href="#d76">
<tspan dy="0em">580mm</tspan>
</textPath></text>
<path d="M400.0,550.0 L403.0,550.0" stroke="#999999" />
<text font-size="12" stroke="none" fill="#999999"><textPath xlink:href="#d77">
<tspan dy="0em">600mm</tspan>
</textPath></text>
<path d="M400.0,530.0 L403.0,530.0" stroke="#999999" />
<text font-size="12" stroke="none" fill="#999999"><textPath xlink:href="#d78">
<tspan dy="0em">620mm</tspan>
</textPath></text>
<path d="M400.0,509.99999999999994 L403.0,509.99999999999994" stroke="#999999" />
<text font-size="12" stroke="none" fill="#999999"><textPath xlink:href="#d79">
<tspan dy="0em">640mm</tspan>
</textPath></text>
<path d="M400.0,489.99999999999994 L403.0,489.99999999999994" stroke="#999999" />
<text font-size="12" stroke="none" fill="#999999"><textPath xlink:href="#d80">
<tspan dy="0em">660mm</tspan>
</textPath></text>
<path d="M400.0,470.0 L403.0,470.0" stroke="#999999" />
<text font-size="12" stroke="none" fill="#999999"><textPath xlink:href="#d81">
<tspan dy="0em">680mm</tspan>
</textPath></text>
<path d="M400.0,449.99999999999994 L403.0,449.99999999999994" stroke="#999999" />
<text font-size="12" stroke="none" fill="#999999"><textPath xlink:href="#d82">
<tspan dy="0em">700mm</tspan>
</textPath></text>
<path d="M400.0,430.0 L403.0,430.0" stroke="#999999" />
<text font-size="12" stroke="none" fill="#999999"><textPath xlink:href="#d83">
<tspan dy="0em">720mm</tspan>
</textPath></text>
<path d="M400.0,410.00000000000006 L403.0,410.00000000000006" stroke="#999999" />
<text font-size="12" stroke="none" fill="#999999"><textPath xlink:href="#d84">
<tspan dy="0em">740mm</tspan>
</textPath></text>
<path d="M400.0,390.0 L403.0,390.0" stroke="#999999" />
<text font-size="12" stroke="none" fill="#999999"><textPath xlink:href="#d85">
<tspan dy="0em">760mm</tspan>
</textPath></text>
<path d="M400.0,370.0 L403.0,370.0" stroke="#999999" />
<text font-size="12" stroke="none" fill="#999999"><textPath xlink:href="#d86">
<tspan dy="0em">780mm</tspan>
</textPath></text>
<path d="M400.0,350.0 L403.0,350.0" stroke="#999999" />
<text font-size="12" stroke="none" fill="#999999"><textPath xlink:href="#d87">
<tspan dy="0em">800mm</tspan>
</textPath></text>
<path d="M400.0,329.99999999999994 L403.0,329.99999999999994" stroke="#999999" />
<text font-size="12" stroke="none" fill="#999999"><textPath xlink:href="#d88">
<tspan dy="0em">820mm</tspan>
</textPath></text>
<path d="M400.0,309.99999999999994 L403.0,309.99999999999994" stroke="#999999" />
<text font-size="12" stroke="none" fill="#999999"><textPath xlink:href="#d89">
<tspan dy="0em">840mm</tspan>
</textPath></text>
<path d="M400.0,290.00000000000006 L403.0,290.00000000000006" stroke="#999999" />
<text font-size="12" stroke="none" fill="#999999"><textPath xlink:href="#d90">
<tspan dy="0em">860mm</tspan>
</textPath></text>
<path d="M400.0,270.00000000000006 L403.0,270.00000000000006" stroke="#999999" />
<text font-size="12" stroke="none" fill="#999999"><textPath xlink:href="#d91">
<tspan dy="0em">880mm</tspan>
</textPath></text>
<path d="M400.0,250.00000000000006 L403.0,250.00000000000006" stroke="#999999" />
<text font-size="12" stroke="none" fill="#999999"><textPath xlink:href="#d92">
<tspan dy="0em">900mm</tspan>
</textPath></text>
<path d="M400.0,230.00000000000003 L403.0,230.00000000000003" stroke="#999999" />
<text font-size="12" stroke="none" fill="#999999"><textPath xlink:href="#d93">
<tspan dy="0em">920mm</tspan>
</textPath></text>
<path d="M400.0,210.0 L403.0,210.0" stroke="#999999" />
<text font-size="12" stroke="none" fill="#999999"><textPath xlink:href="#d94">
<tspan dy="0em">940mm</tspan>
</textPath></text>
<path d="M400.0,189.99999999999994 L403.0,189.99999999999994" stroke="#999999" />
<text font-size="12" stroke="none" fill="#999999"><textPath xlink:href="#d95">
<tspan dy="0em">960mm</tspan>
</textPath></text>
<path d="M400.0,169.99999999999997 L403.0,169.99999999999997" stroke="#999999" />
<text font-size="12" stroke="none" fill="#999999"><textPath xlink:href="#d96">
<tspan dy="0em">980mm</tspan>
</textPath></text>
<path d="M400.0,149.99999999999994 L403.0,149.99999999999994" stroke="#999999" />
<text font-size="12" stroke="none" fill="#999999"><textPath xlink:href="#d97">
<tspan dy="0em">1000mm</tspan>
</textPath></text>
<path d="M400.0,130.00000000000006 L403.0,130.00000000000006" stroke="#999999" />
<text font-size="12" stroke="none" fill="#999999"><textPath xlink:href="#d98">
<tspan dy="0em">1020mm</tspan>
</textPath></text>
<path d="M400.0,110.00000000000004 L403.0,110.00000000000004" stroke="#999999" />
<text font-size="12" stroke="none" fill="#999999"><textPath xlink:href="#d99">
<tspan dy="0em">1040mm</tspan>
</textPath></text>
<path d="M400.0,90.00000000000004 L403.0,90.00000000000004" stroke="#999999" />
<text font-size="12" stroke="none" fill="#999999"><textPath xlink:href="#d100">
<tspan dy="0em">1060mm</tspan>
</textPath></text>
<path d="M400.0,70.0 L403.0,70.0" stroke="#999999" />
<text font-size="12" stroke="none" fill="#999999"><textPath xlink:href="#d101">
<tspan dy="0em">1080mm</tspan>
</textPath></text>
<path d="M400.0,50.0 L403.0,50.0" stroke="#999999" />
<text font-size="12" stroke="none" fill="#999999"><textPath xlink:href="#d102">
<tspan dy="0em">1100mm</tspan>
</textPath></text>
<path d="M400.0,29.99999999999997 L403.0,29.99999999999997" stroke="#999999" />
<text font-size="12" stroke="none" fill="#999999"><textPath xlink:href="#d103">
<tspan dy="0em">1120mm</tspan>
</textPath></text>
<path d="M400.0,9.999999999999957 L403.0,9.999999999999957" stroke="#999999" />
<text font-size="12" stroke="none" fill="#999999"><textPath xlink:href="#d104">
<tspan dy="0em">1140mm</tspan>
</textPath></text>
<path d="M400.0,-10.000000000000071 L403.0,-10.000000000000071" stroke="#999999" />
<text font-size="12" stroke="none" fill="#999999"><textPath xlink:href="#d105">
<tspan dy="0em">1160mm</tspan>
</textPath></text>
<path d="M400.0,-29.99999999999993 L403.0,-29.99999999999993" stroke="#999999" />
<text font-size="12" stroke="none" fill="#999999"><textPath xlink:href="#d106">
<tspan dy="0em">1180mm</tspan>
</textPath></text>
<path d="M400.0,-49.99999999999996 L403.0,-49.99999999999996" stroke="#999999" />
<text font-size="12" stroke="none" fill="#999999"><textPath xlink:href="#d107">
<tspan dy="0em">1200mm</tspan>
</textPath></text>
<path d="M400.0,-69.99999999999997 L403.0,-69.99999999999997" stroke="#999999" />
<text font-size="12" stroke="none" fill="#999999"><textPath xlink:href="#d108">
<tspan dy="0em">1220mm</tspan>
</textPath></text>
<path d="M400.0,-90.0 L403.0,-90.0" stroke="#999999" />
<text font-size="12" stroke="none" fill="#999999"><textPath xlink:href="#d109">
<tspan dy="0em">1240mm</tspan>
</textPath></text>
</g>
</svg>