<?xml version="1.0" encoding="UTF-8"?>
<svg xmlns="http://www.w3.org/2000/svg" xmlns:xlink="http://www.w3.org/1999/xlink"
     width="739.5329592877888" height="1930.0" viewBox="-100 -100.0 739.5329592877888 1930.0" stroke="black" fill="none">
<defs>
</defs>
<path d="M-100,1830.0 L639.5329592877888,1830.0" stroke="#dddddd" />
<path d="M-100,1620.0 L639.5329592877888,1620.0" stroke="#dddddd" />
<path d="M-100,1410.0 L639.5329592877888,1410.0" stroke="#dddddd" />
<path d="M-100,1200.0 L639.5329592877888,1200.0" stroke="#dddddd" />
<path d="M-100,990.0 L639.5329592877888,990.0" stroke="#dddddd" />
<path d="M-100,780.0 L639.5329592877888,780.0" stroke="#dddddd" />
<path d="M-100,570.0 L639.5329592877888,570.0" stroke="#dddddd" />
<path d="M-100,360.0 L639.5329592877888,360.0" stroke="#dddddd" />
<path d="M-100,150.0 L639.5329592877888,150.0" stroke="#dddddd" />
<path d="M-100,-60.0 L639.5329592877888,-60.0" stroke="#dddddd" />
<path d="M-100.0,1830.0 L-100.0,-100.0" stroke="#dddddd" />
<path d="M197.0,1830.0 L197.0,-100.0" stroke="#dddddd" />
<path d="M494.0,1830.0 L494.0,-100.0" stroke="#dddddd" />
<text x="48.5" y="1725.0" font-size="10" stroke="none" fill="#dddddd" dy="0em">α0</text>
<text x="48.5" y="1515.0" font-size="10" stroke="none" fill="#dddddd" dy="0em">α1</text>
<text x="48.5" y="1305.0" font-size="10" stroke="none" fill="#dddddd" dy="0em">α2</text>
<text x="48.5" y="1095.0" font-size="10" stroke="none" fill="#dddddd" dy="0em">α3</text>
<text x="48.5" y="885.0" font-size="10" stroke="none" fill="#dddddd" dy="0em">α4</text>
<text x="48.5" y="675.0" font-size="10" stroke="none" fill="#dddddd" dy="0em">α5</text>
<text x="48.5" y="465.0" font-size="10" stroke="none" fill="#dddddd" dy="0em">α6</text>
<text x="48.5" y="255.0" font-size="10" stroke="none" fill="#dddddd" dy="0em">α7</text>
<text x="48.5" y="45.0" font-size="10" stroke="none" fill="#dddddd" dy="0em">α8</text>
<text x="345.5" y="1725.0" font-size="10" stroke="none" fill="#dddddd" dy="0em">β0</text>
<text x="345.5" y="1515.0" font-size="10" stroke="none" fill="#dddddd" dy="0em">β1</text>
<text x="345.5" y="1305.0" font-size="10" stroke="none" fill="#dddddd" dy="0em">β2</text>
<text x="345.5" y="1095.0" font-size="10" stroke="none" fill="#dddddd" dy="0em">β3</text>
<text x="345.5" y="885.0" font-size="10" stroke="none" fill="#dddddd" dy="0em">β4</text>
<text x="345.5" y="675.0" font-size="10" stroke="none" fill="#dddddd" dy="0em">β5</text>
<text x="345.5" y="465.0" font-size="10" stroke="none" fill="#dddddd" dy="0em">β6</text>
<text x="345.5" y="255.0" font-size="10" stroke="none" fill="#dddddd" dy="0em">β7</text>
<text x="345.5" y="45.0" font-size="10" stroke="none" fill="#dddddd" dy="0em">β8</text>
<path d="M-100,1830.0 L639.5329592877888,1830.0" stroke="#ffcccc66" stroke-dasharray="5" />
<text x="-99" y="1828.0" font-size="8" stroke="none" fill="#ffcccc66" dy="0em">-100mm</text>
<path d="M-100,1780.0 L639.5329592877888,1780.0" stroke="#ffcccc66" stroke-dasharray="5" />
<text x="-99" y="1778.0" font-size="8" stroke="none" fill="#ffcccc66" dy="0em">-50mm</text>
<path d="M-100,1730.0 L639.5329592877888,1730.0" stroke="#ffcccc66" stroke-dasharray="5" />
<text x="-99" y="1728.0" font-size="8" stroke="none" fill="#ffcccc66" dy="0em">0mm</text>
<path d="M-100,1680.0 L639.5329592877888,1680.0" stroke="#ffcccc66" stroke-dasharray="5" />
<text x="-99" y="1678.0" font-size="8" stroke="none" fill="#ffcccc66" dy="0em">50mm</text>
<path d="M-100,1630.0 L639.5329592877888,1630.0" stroke="#ffcccc66" stroke-dasharray="5" />
<text x="-99" y="1628.0" font-size="8" stroke="none" fill="#ffcccc66" dy="0em">100mm</text>
<path d="M-100,1580.0 L639.5329592877888,1580.0" stroke="#ffcccc66" stroke-dasharray="5" />
<text x="-99" y="1578.0" font-size="8" stroke="none" fill="#ffcccc66" dy="0em">150mm</text>
<path d="M-100,1530.0 L639.5329592877888,1530.0" stroke="#ffcccc66" stroke-dasharray="5" />
<text x="-99" y="1528.0" font-size="8" stroke="none" fill="#ffcccc66" dy="0em">200mm</text>
<path d="M-100,1480.0 L639.5329592877888,1480.0" stroke="#ffcccc66" stroke-dasharray="5" />
<text x="-99" y="1478.0" font-size="8" stroke="none" fill="#ffcccc66" dy="0em">250mm</text>
<path d="M-100,1430.0 L639.5329592877888,1430.0" stroke="#ffcccc66" stroke-dasharray="5" />
<text x="-99" y="1428.0" font-size="8" stroke="none" fill="#ffcccc66" dy="0em">300mm</text>
<path d="M-100,1380.0 L639.5329592877888,1380.0" stroke="#ffcccc66" stroke-dasharray="5" />
<text x="-99" y="1378.0" font-size="8" stroke="none" fill="#ffcccc66" dy="0em">350mm</text>
<path d="M-100,1330.0 L639.5329592877888,1330.0" stroke="#ffcccc66" stroke-dasharray="5" />
<text x="-99" y="1328.0" font-size="8" stroke="none" fill="#ffcccc66" dy="0em">400mm</text>
<path d="M-100,1280.0 L639.5329592877888,1280.0" stroke="#ffcccc66" stroke-dasharray="5" />
<text x="-99" y="1278.0" font-size="8" stroke="none" fill="#ffcccc66" dy="0em">450mm</text>
<path d="M-100,1230.0 L639.5329592877888,1230.0" stroke="#ffcccc66" stroke-dasharray="5" />
<text x="-99" y="1228.0" font-size="8" stroke="none" fill="#ffcccc66" dy="0em">500mm</text>
<path d="M-100,1180.0 L639.5329592877888,1180.0" stroke="#ffcccc66" stroke-dasharray="5" />
<text x="-99" y="1178.0" font-size="8" stroke="none" fill="#ffcccc66" dy="0em">550mm</text>
<path d="M-100,1130.0 L639.5329592877888,1130.0" stroke="#ffcccc66" stroke-dasharray="5" />
<text x="-99" y="1128.0" font-size="8" stroke="none" fill="#ffcccc66" dy="0em">600mm</text>
<path d="M-100,1080.0 L639.5329592877888,1080.0" stroke="#ffcccc66" stroke-dasharray="5" />
<text x="-99" y="1078.0" font-size="8" stroke="none" fill="#ffcccc66" dy="0em">650mm</text>
<path d="M-100,1030.0 L639.5329592877888,1030.0" stroke="#ffcccc66" stroke-dasharray="5" />
<text x="-99" y="1028.0" font-size="8" stroke="none" fill="#ffcccc66" dy="0em">700mm</text>
<path d="M-100,980.0 L639.5329592877888,980.0" stroke="#ffcccc66" stroke-dasharray="5" />
<text x="-99" y="978.0" font-size="8" stroke="none" fill="#ffcccc66" dy="0em">750mm</text>
<path d="M-100,930.0 L639.5329592877888,930.0" stroke="#ffcccc66" stroke-dasharray="5" />
<text x="-99" y="928.0" font-size="8" stroke="none" fill="#ffcccc66" dy="0em">800mm</text>
<path d="M-100,880.0 L639.5329592877888,880.0" stroke="#ffcccc66" stroke-dasharray="5" />
<text x="-99" y="878.0" font-size="8" stroke="none" fill="#ffcccc66" dy="0em">850mm</text>
<path d="M-100,830.0 L639.5329592877888,830.0" stroke="#ffcccc66" stroke-dasharray="5" />
<text x="-99" y="828.0" font-size="8" stroke="none" fill="#ffcccc66" dy="0em">900mm</text>
<path d="M-100,780.0 L639.5329592877888,780.0" stroke="#ffcccc66" stroke-dasharray="5" />
<text x="-99" y="778.0" font-size="8" stroke="none" fill="#ffcccc66" dy="0em">950mm</text>
<path d="M-100,730.0 L639.5329592877888,730.0" stroke="#ffcccc66" stroke-dasharray="5" />
<text x="-99" y="728.0" font-size="8" stroke="none" fill="#ffcccc66" dy="0em">1000mm</text>
<path d="M-100,680.0 L639.5329592877888,680.0" stroke="#ffcccc66" stroke-dasharray="5" />
<text x="-99" y="678.0" font-size="8" stroke="none" fill="#ffcccc66" dy="0em">1050mm</text>
<path d="M-100,630.0 L639.5329592877888,630.0" stroke="#ffcccc66" stroke-dasharray="5" />
<text x="-99" y="628.0" font-size="8" stroke="none" fill="#ffcccc66" dy="0em">1100mm</text>
<path d="M-100,580.0 L639.5329592877888,580.0" stroke="#ffcccc66" stroke-dasharray="5" />
<text x="-99" y="578.0" font-size="8" stroke="none" fill="#ffcccc66" dy="0em">1150mm</text>
<path d="M-100,530.0 L639.5329592877888,530.0" stroke="#ffcccc66" stroke-dasharray="5" />
<text x="-99" y="528.0" font-size="8" stroke="none" fill="#ffcccc66" dy="0em">1200mm</text>
<path d="M-100,480.0 L639.5329592877888,480.0" stroke="#ffcccc66" stroke-dasharray="5" />
<text x="-99" y="478.0" font-size="8" stroke="none" fill="#ffcccc66" dy="0em">1250mm</text>
<path d="M-100,430.0 L639.5329592877888,430.0" stroke="#ffcccc66" stroke-dasharray="5" />
<text x="-99" y="428.0" font-size="8" stroke="none" fill="#ffcccc66" dy="0em">1300mm</text>
<path d="M-100,380.0 L639.5329592877888,380.0" stroke="#ffcccc66" stroke-dasharray="5" />
<text x="-99" y="378.0" font-size="8" stroke="none" fill="#ffcccc66" dy="0em">1350mm</text>
<path d="M-100,330.0 L639.5329592877888,330.0" stroke="#ffcccc66" stroke-dasharray="5" />
<text x="-99" y="328.0" font-size="8" stroke="none" fill="#ffcccc66" dy="0em">1400mm</text>
<path d="M-100,280.0 L639.5329592877888,280.0" stroke="#ffcccc66" stroke-dasharray="5" />
<text x="-99" y="278.0" font-size="8" stroke="none" fill="#ffcccc66" dy="0em">1450mm</text>
<path d="M-100,230.0 L639.5329592877888,230.0" stroke="#ffcccc66" stroke-dasharray="5" />
<text x="-99" y="228.0" font-size="8" stroke="none" fill="#ffcccc66" dy="0em">1500mm</text>
<path d="M-100,180.0 L639.5329592877888,180.0" stroke="#ffcccc66" stroke-dasharray="5" />
<text x="-99" y="178.0" font-size="8" stroke="none" fill="#ffcccc66" dy="0em">1550mm</text>
<path d="M-100,130.0 L639.5329592877888,130.0" stroke="#ffcccc66" stroke-dasharray="5" />
<text x="-99" y="128.0" font-size="8" stroke="none" fill="#ffcccc66" dy="0em">1600mm</text>
<path d="M-100,80.0 L639.5329592877888,80.0" stroke="#ffcccc66" stroke-dasharray="5" />
<text x="-99" y="78.0" font-size="8" stroke="none" fill="#ffcccc66" dy="0em">1650mm</text>
<path d="M-100,30.0 L639.5329592877888,30.0" stroke="#ffcccc66" stroke-dasharray="5" />
<text x="-99" y="28.0" font-size="8" stroke="none" fill="#ffcccc66" dy="0em">1700mm</text>
<path d="M-100,-20.0 L639.5329592877888,-20.0" stroke="#ffcccc66" stroke-dasharray="5" />
<text x="-99" y="-22.0" font-size="8" stroke="none" fill="#ffcccc66" dy="0em">1750mm</text>
<path d="M-100,-70.0 L639.5329592877888,-70.0" stroke="#ffcccc66" stroke-dasharray="5" />
<text x="-99" y="-72.0" font-size="8" stroke="none" fill="#ffcccc66" dy="0em">1800mm</text>
<path d="M-100.0,1830.0 L-100.0,-100.0" stroke="#ffcccc66" stroke-dasharray="5" />
<text x="-98.0" y="1829.0" font-size="8" stroke="none" fill="#ffcccc66" dy="0em">-100mm</text>
<path d="M-50.0,1830.0 L-50.0,-100.0" stroke="#ffcccc66" stroke-dasharray="5" />
<text x="-48.0" y="1829.0" font-size="8" stroke="none" fill="#ffcccc66" dy="0em">-50mm</text>
<path d="M0.0,1830.0 L0.0,-100.0" stroke="#ffcccc66" stroke-dasharray="5" />
<text x="2.0" y="1829.0" font-size="8" stroke="none" fill="#ffcccc66" dy="0em">0mm</text>
<path d="M50.0,1830.0 L50.0,-100.0" stroke="#ffcccc66" stroke-dasharray="5" />
<text x="52.0" y="1829.0" font-size="8" stroke="none" fill="#ffcccc66" dy="0em">50mm</text>
<path d="M100.0,1830.0 L100.0,-100.0" stroke="#ffcccc66" stroke-dasharray="5" />
<text x="102.0" y="1829.0" font-size="8" stroke="none" fill="#ffcccc66" dy="0em">100mm</text>
<path d="M150.0,1830.0 L150.0,-100.0" stroke="#ffcccc66" stroke-dasharray="5" />
<text x="152.0" y="1829.0" font-size="8" stroke="none" fill="#ffcccc66" dy="0em">150mm</text>
<path d="M200.0,1830.0 L200.0,-100.0" stroke="#ffcccc66" stroke-dasharray="5" />
<text x="202.0" y="1829.0" font-size="8" stroke="none" fill="#ffcccc66" dy="0em">200mm</text>
<path d="M250.0,1830.0 L250.0,-100.0" stroke="#ffcccc66" stroke-dasharray="5" />
<text x="252.0" y="1829.0" font-size="8" stroke="none" fill="#ffcccc66" dy="0em">250mm</text>
<path d="M300.0,1830.0 L300.0,-100.0" stroke="#ffcccc66" stroke-dasharray="5" />
<text x="302.0" y="1829.0" font-size="8" stroke="none" fill="#ffcccc66" dy="0em">300mm</text>
<path d="M350.0,1830.0 L350.0,-100.0" stroke="#ffcccc66" stroke-dasharray="5" />
<text x="352.0" y="1829.0" font-size="8" stroke="none" fill="#ffcccc66" dy="0em">350mm</text>
<path d="M400.0,1830.0 L400.0,-100.0" stroke="#ffcccc66" stroke-dasharray="5" />
<text x="402.0" y="1829.0" font-size="8" stroke="none" fill="#ffcccc66" dy="0em">400mm</text>
<path d="M450.0,1830.0 L450.0,-100.0" stroke="#ffcccc66" stroke-dasharray="5" />
<text x="452.0" y="1829.0" font-size="8" stroke="none" fill="#ffcccc66" dy="0em">450mm</text>
<path d="M500.0,1830.0 L500.0,-100.0" stroke="#ffcccc66" stroke-dasharray="5" />
<text x="502.0" y="1829.0" font-size="8" stroke="none" fill="#ffcccc66" dy="0em">500mm</text>
<path d="M550.0,1830.0 L550.0,-100.0" stroke="#ffcccc66" stroke-dasharray="5" />
<text x="552.0" y="1829.0" font-size="8" stroke="none" fill="#ffcccc66" dy="0em">550mm</text>
<path d="M600.0,1830.0 L600.0,-100.0" stroke="#ffcccc66" stroke-dasharray="5" />
<text x="602.0" y="1829.0" font-size="8" stroke="none" fill="#ffcccc66" dy="0em">600mm</text>
<g>
<path d="M115.38733374162412,0.0 L116.43259954362662,10.0 L117.47786534562914,20.0 L118.52313114763164,30.0 L119.56839694963415,40.0 L120.61366275163667,50.0 L121.65892855363919,60.0 L122.70419435564169,70.0 L123.74946015764418,80.0 L124.79472595964668,90.0 L125.8399917616492,100.0 L126.8852575636517,110.0 L127.93052336565422,120.0 L128.97578916765673,130.0 L130.02105496965925,140.0 L131.06632077166174,150.0 L132.11158657366423,160.0 L133.15685237566674,170.0 L134.20211817766926,180.0 L135.24738397967178,190.0 L136.29264978167427,200.0 L137.3379155836768,210.0 L138.38318138567928,220.0 L139.4284471876818,230.0 L140.47371298968432,240.0 L141.5189787916868,250.0 L142.56424459368932,260.0 L143.6808196214659,270.0 L144.92750349130705,280.0 L146.1741873611482,290.0 L147.42087123098938,300.0 L148.66755510083053,310.0 L149.9142389706717,320.0 L151.16092284051285,330.0 L152.407606710354,340.0 L153.65429058019515,350.0 L154.90097445003636,360.0 L156.1476583198775,370.0 L157.39434218971866,380.0 L158.6410260595598,390.0 L159.88770992940098,400.0 L161.13439379924213,410.0 L162.38107766908328,420.0 L163.62776153892446,430.0 L164.8744454087656,440.0 L166.12112927860676,450.0 L167.36781314844794,460.0 L168.6144970182891,470.0 L169.86118088813026,480.0 L171.1078647579714,490.0 L172.35454862781256,500.0 L173.60123249765374,510.0 L174.8479163674949,520.0 L176.09460023733607,530.0 L177.34128410717722,540.0 L178.58796797701837,550.0 L179.83465184685951,560.0 L181.0813357167007,570.0 L182.32801958654184,580.0 L183.57470345638302,590.0 L184.82138732622417,600.0 L186.06807119606532,610.0 L187.3147550659065,620.0 L188.56143893574765,630.0 L189.80812280558882,640.0 L191.07199066325677,650.0 L192.62971643917848,660.0 L194.77737314415324,670.0 L197.47351292148716,680.0 L200.70943998087944,690.0 L204.47480129519278,700.0 L208.75761791756997,710.0 L213.54432088602908,720.0 L218.81979161871374,730.0 L224.56740669229472,740.0 L230.76908688555852,750.0 L237.4053503599898,760.0 L244.47167824477097,770.0 L251.95204738467464,780.0 L259.79447488400234,790.0 L267.97404774394914,800.0 L276.4648245374243,810.0 L285.2399127684688,820.0 L294.27154889147505,830.0 L303.53118077747024,840.0 L312.9895524089693,850.0 L322.61679057960123,860.0 L332.38249336984853,870.0 L342.2583262871538,880.0 L352.2108069545786,890.0 L362.20043585947667,900.0 L372.1956127060497,910.0 L382.16473110364575,920.0 L392.0762723618219,930.0 L401.898898999047,940.0 L411.6015477178821,950.0 L421.15352160086627,960.0 L430.5245812832127,970.0 L439.68503486079504,980.0 L448.5981403034289,990.0 L457.21665573100057,1000.0 L465.53319249738314,1010.0 L473.52155138244933,1020.0 L481.1565517692968,1030.0 L488.4141059767206,1040.0 L495.2712904686796,1050.0 L501.7064137538667,1060.0 L507.6990807964819,1070.0 L513.2302537676597,1080.0 L518.2823089756909,1090.0 L522.8281836098788,1100.0 L526.8167177326329,1110.0 L530.2796389473096,1120.0 L533.2061716693156,1130.0 L535.5871939025709,1140.0 L537.41526365887,1150.0 L538.6846406132331,1160.0 L539.3913029402295,1170.0 L539.5329592877888,1180.0 L539.1090558566317,1190.0 L538.1207785651294,1200.0 L536.5630527892076,1210.0 L534.3961580085612,1220.0 L531.6810477110578,1230.0 L528.4264925549747,1240.0 L524.6429190840365,1250.0 L520.342378120162,1260.0 L515.5385085752118,1270.0 L510.2464967796768,1280.0 L504.48303143690475,1290.0 L498.26625432187996,1300.0 L491.6157068537711,1310.0 L484.54937896898997,1320.0 L477.05559513588923,1330.0 L469.2006751855106,1340.0 L461.0095814186561,1350.0 L452.5083007301723,1360.0 L443.72376707009334,1370.0 L434.68378126081996,1380.0 L425.41692838372194,1390.0 L415.9524929542373,1400.0 L406.3203721097776,1410.0 L396.55098703954314,1420.0 L386.6751541222378,1430.0 L376.7202061009433,1440.0 L366.72933450581127,1450.0 L356.7341445369709,1460.0 L346.76624263686176,1470.0 L336.8571426949667,1480.0 L327.038172558057,1490.0 L317.3403810930353,1500.0 L307.79444604800113,1510.0 L298.43058295520626,1520.0 L289.27845531712615,1530.0 L280.36708631394146,1540.0 L271.75625687769406,1550.0 L263.4502018473267,1560.0 L255.47334263689393,1570.0 L247.85081447933607,1580.0 L240.60665583366705,1590.0 L233.76373736976555,1600.0 L227.3436942774435,1610.0 L221.36686207786914,1620.0 L215.85221610701686,1630.0 L210.81731483207597,1640.0 L206.278247152684,1650.0 L202.30061924225188,1660.0 L198.85590052294265,1670.0 L195.94798778762026,1680.0 L193.58592954778413,1690.0 L191.77709294942136,1700.0 L190.52714241302422,1710.0 L189.84002309682688,1720.0 L189.71794922556447,1730.0 L0,1730.0 L0,0.0 L115.38733374162412,0.0" fill="#E6E6FA66" stroke="black" />
</g>
</svg>