<?xml version="1.0" encoding="UTF-8"?>
<svg xmlns="http://www.w3.org/2000/svg" xmlns:xlink="http://www.w3.org/1999/xlink"
     width="523.9709474909823" height="826.4259018901263" viewBox="-50.00000000000001 -150.0 523.9709474909823 826.4259018901263" stroke="black" fill="none">
<defs>
</defs>
<path d="M-50.00000000000001,676.4259018901263 L473.9709474909823,676.4259018901263" stroke="#dddddd" />
<path d="M-50.00000000000001,466.4259018901263 L473.9709474909823,466.4259018901263" stroke="#dddddd" />
<path d="M-50.00000000000001,256.4259018901263 L473.9709474909823,256.4259018901263" stroke="#dddddd" />
<path d="M-50.00000000000001,46.42590189012628 L473.9709474909823,46.42590189012628" stroke="#dddddd" />
<path d="M-50.00000000000001,676.4259018901263 L-50.00000000000001,-150.0" stroke="#dddddd" />
<path d="M247.0,676.4259018901263 L247.0,-150.0" stroke="#dddddd" />
<text x="98.5" y="571.4259018901263" font-size="10" stroke="none" fill="#dddddd" dy="0em">α0</text>
<text x="98.5" y="361.4259018901263" font-size="10" stroke="none" fill="#dddddd" dy="0em">α1</text>
<text x="98.5" y="151.42590189012628" font-size="10" stroke="none" fill="#dddddd" dy="0em">α2</text>
<text x="98.5" y="-58.57409810987372" font-size="10" stroke="none" fill="#dddddd" dy="0em">α3</text>
<text x="395.5" y="571.4259018901263" font-size="10" stroke="none" fill="#dddddd" dy="0em">β0</text>
<text x="395.5" y="361.4259018901263" font-size="10" stroke="none" fill="#dddddd" dy="0em">β1</text>
<text x="395.5" y="151.42590189012628" font-size="10" stroke="none" fill="#dddddd" dy="0em">β2</text>
<text x="395.5" y="-58.57409810987372" font-size="10" stroke="none" fill="#dddddd" dy="0em">β3</text>
<path d="M-50.00000000000001,676.4259018901263 L473.9709474909823,676.4259018901263" stroke="#ffcccc66" stroke-dasharray="5" />
<text x="-49.00000000000001" y="674.4259018901263" font-size="8" stroke="none" fill="#ffcccc66" dy="0em">-100mm</text>
<path d="M-50.00000000000001,626.4259018901263 L473.9709474909823,626.4259018901263" stroke="#ffcccc66" stroke-dasharray="5" />
<text x="-49.00000000000001" y="624.4259018901263" font-size="8" stroke="none" fill="#ffcccc66" dy="0em">-50mm</text>
<path d="M-50.00000000000001,576.4259018901263 L473.9709474909823,576.4259018901263" stroke="#ffcccc66" stroke-dasharray="5" />
<text x="-49.00000000000001" y="574.4259018901263" font-size="8" stroke="none" fill="#ffcccc66" dy="0em">0mm</text>
<path d="M-50.00000000000001,526.4259018901263 L473.9709474909823,526.4259018901263" stroke="#ffcccc66" stroke-dasharray="5" />
<text x="-49.00000000000001" y="524.4259018901263" font-size="8" stroke="none" fill="#ffcccc66" dy="0em">50mm</text>
<path d="M-50.00000000000001,476.4259018901263 L473.9709474909823,476.4259018901263" stroke="#ffcccc66" stroke-dasharray="5" />
<text x="-49.00000000000001" y="474.4259018901263" font-size="8" stroke="none" fill="#ffcccc66" dy="0em">100mm</text>
<path d="M-50.00000000000001,426.4259018901263 L473.9709474909823,426.4259018901263" stroke="#ffcccc66" stroke-dasharray="5" />
<text x="-49.00000000000001" y="424.4259018901263" font-size="8" stroke="none" fill="#ffcccc66" dy="0em">150mm</text>
<path d="M-50.00000000000001,376.4259018901263 L473.9709474909823,376.4259018901263" stroke="#ffcccc66" stroke-dasharray="5" />
<text x="-49.00000000000001" y="374.4259018901263" font-size="8" stroke="none" fill="#ffcccc66" dy="0em">200mm</text>
<path d="M-50.00000000000001,326.4259018901263 L473.9709474909823,326.4259018901263" stroke="#ffcccc66" stroke-dasharray="5" />
<text x="-49.00000000000001" y="324.4259018901263" font-size="8" stroke="none" fill="#ffcccc66" dy="0em">250mm</text>
<path d="M-50.00000000000001,276.4259018901263 L473.9709474909823,276.4259018901263" stroke="#ffcccc66" stroke-dasharray="5" />
<text x="-49.00000000000001" y="274.4259018901263" font-size="8" stroke="none" fill="#ffcccc66" dy="0em">300mm</text>
<path d="M-50.00000000000001,226.42590189012628 L473.9709474909823,226.42590189012628" stroke="#ffcccc66" stroke-dasharray="5" />
<text x="-49.00000000000001" y="224.42590189012628" font-size="8" stroke="none" fill="#ffcccc66" dy="0em">350mm</text>
<path d="M-50.00000000000001,176.42590189012628 L473.9709474909823,176.42590189012628" stroke="#ffcccc66" stroke-dasharray="5" />
<text x="-49.00000000000001" y="174.42590189012628" font-size="8" stroke="none" fill="#ffcccc66" dy="0em">400mm</text>
<path d="M-50.00000000000001,126.42590189012628 L473.9709474909823,126.42590189012628" stroke="#ffcccc66" stroke-dasharray="5" />
<text x="-49.00000000000001" y="124.42590189012628" font-size="8" stroke="none" fill="#ffcccc66" dy="0em">450mm</text>
<path d="M-50.00000000000001,76.42590189012628 L473.9709474909823,76.42590189012628" stroke="#ffcccc66" stroke-dasharray="5" />
<text x="-49.00000000000001" y="74.42590189012628" font-size="8" stroke="none" fill="#ffcccc66" dy="0em">500mm</text>
<path d="M-50.00000000000001,26.425901890126283 L473.9709474909823,26.425901890126283" stroke="#ffcccc66" stroke-dasharray="5" />
<text x="-49.00000000000001" y="24.425901890126283" font-size="8" stroke="none" fill="#ffcccc66" dy="0em">550mm</text>
<path d="M-50.00000000000001,-23.574098109873717 L473.9709474909823,-23.574098109873717" stroke="#ffcccc66" stroke-dasharray="5" />
<text x="-49.00000000000001" y="-25.574098109873717" font-size="8" stroke="none" fill="#ffcccc66" dy="0em">600mm</text>
<path d="M-50.00000000000001,-73.57409810987372 L473.9709474909823,-73.57409810987372" stroke="#ffcccc66" stroke-dasharray="5" />
<text x="-49.00000000000001" y="-75.57409810987372" font-size="8" stroke="none" fill="#ffcccc66" dy="0em">650mm</text>
<path d="M-50.00000000000001,-123.57409810987372 L473.9709474909823,-123.57409810987372" stroke="#ffcccc66" stroke-dasharray="5" />
<text x="-49.00000000000001" y="-125.57409810987372" font-size="8" stroke="none" fill="#ffcccc66" dy="0em">700mm</text>
<path d="M-50.00000000000001,676.4259018901263 L-50.00000000000001,-150.0" stroke="#ffcccc66" stroke-dasharray="5" />
<text x="-48.00000000000001" y="675.4259018901263" font-size="8" stroke="none" fill="#ffcccc66" dy="0em">-100mm</text>
<path d="M-7.105427357601002e-15,676.4259018901263 L-7.105427357601002e-15,-150.0" stroke="#ffcccc66" stroke-dasharray="5" />
<text x="1.999999999999993" y="675.4259018901263" font-size="8" stroke="none" fill="#ffcccc66" dy="0em">-50mm</text>
<path d="M49.99999999999999,676.4259018901263 L49.99999999999999,-150.0" stroke="#ffcccc66" stroke-dasharray="5" />
<text x="51.99999999999999" y="675.4259018901263" font-size="8" stroke="none" fill="#ffcccc66" dy="0em">0mm</text>
<path d="M100.0,676.4259018901263 L100.0,-150.0" stroke="#ffcccc66" stroke-dasharray="5" />
<text x="102.0" y="675.4259018901263" font-size="8" stroke="none" fill="#ffcccc66" dy="0em">50mm</text>
<path d="M150.0,676.4259018901263 L150.0,-150.0" stroke="#ffcccc66" stroke-dasharray="5" />
<text x="152.0" y="675.4259018901263" font-size="8" stroke="none" fill="#ffcccc66" dy="0em">100mm</text>
<path d="M200.0,676.4259018901263 L200.0,-150.0" stroke="#ffcccc66" stroke-dasharray="5" />
<text x="202.0" y="675.4259018901263" font-size="8" stroke="none" fill="#ffcccc66" dy="0em">150mm</text>
<path d="M250.0,676.4259018901263 L250.0,-150.0" stroke="#ffcccc66" stroke-dasharray="5" />
<text x="252.0" y="675.4259018901263" font-size="8" stroke="none" fill="#ffcccc66" dy="0em">200mm</text>
<path d="M300.0,676.4259018901263 L300.0,-150.0" stroke="#ffcccc66" stroke-dasharray="5" />
<text x="302.0" y="675.4259018901263" font-size="8" stroke="none" fill="#ffcccc66" dy="0em">250mm</text>
<path d="M350.0,676.4259018901263 L350.0,-150.0" stroke="#ffcccc66" stroke-dasharray="5" />
<text x="352.0" y="675.4259018901263" font-size="8" stroke="none" fill="#ffcccc66" dy="0em">300mm</text>
<path d="M400.0,676.4259018901263 L400.0,-150.0" stroke="#ffcccc66" stroke-dasharray="5" />
<text x="402.0" y="675.4259018901263" font-size="8" stroke="none" fill="#ffcccc66" dy="0em">350mm</text>
<path d="M450.0,676.4259018901263 L450.0,-150.0" stroke="#ffcccc66" stroke-dasharray="5" />
<text x="452.0" y="675.4259018901263" font-size="8" stroke="none" fill="#ffcccc66" dy="0em">400mm</text>
<g>
<g>
<circle cx="77.29383206010851" cy="238.21295094506314" r="1" fill="black" />
</g>
<g>
<circle cx="76.80932616555037" cy="223.0586003641165" r="1" fill="black" />
</g>
<g>
<circle cx="75.46347645844443" cy="209.09491492458326" r="1" fill="black" />
</g>
<g>
<circle cx="73.4177849036434" cy="196.20252302879192" r="1" fill="black" />
</g>
<g>
<circle cx="70.83375346599999" cy="184.26205307907094" r="1" fill="black" />
</g>
<g>
<circle cx="67.87288411036691" cy="173.15413347774876" r="1" fill="black" />
</g>
<g>
<circle cx="64.69667880159689" cy="162.75939262715394" r="1" fill="black" />
</g>
<g>
<circle cx="61.466639504542634" cy="152.9584589296149" r="1" fill="black" />
</g>
<g>
<circle cx="58.344268184056844" cy="143.63196078746012" r="1" fill="black" />
</g>
<g>
<circle cx="55.49106680499224" cy="134.66052660301807" r="1" fill="black" />
</g>
<g>
<circle cx="53.068537332201544" cy="125.92478477861727" r="1" fill="black" />
</g>
<g>
<circle cx="51.23818173053746" cy="117.30536371658613" r="1" fill="black" />
</g>
<g>
<circle cx="50.161501964852704" cy="108.68289181925317" r="1" fill="black" />
</g>
<g>
<circle cx="50.0" cy="99.93799748894685" r="1" fill="black" />
</g>
<g>
<circle cx="50.91517780083204" cy="90.95130912799567" r="1" fill="black" />
</g>
<g>
<circle cx="53.068537332201544" cy="81.60345513872807" r="1" fill="black" />
</g>
<g>
<circle cx="56.62158055896123" cy="71.77506392347254" r="1" fill="black" />
</g>
<g>
<circle cx="61.73580944596382" cy="61.34676388455756" r="1" fill="black" />
</g>
<g>
<circle cx="68.572725958062" cy="50.19918342431163" r="1" fill="black" />
</g>
<g>
<circle cx="77.29383206010851" cy="38.21295094506314" r="1" fill="black" />
</g>
<g>
<circle cx="87.14980146075109" cy="25.959367277394534" r="1" fill="black" />
</g>
<g>
<circle cx="96.72707903437689" cy="14.846890522984609" r="1" fill="black" />
</g>
<g>
<circle cx="106.08798973847573" cy="4.862815632832763" r="1" fill="black" />
</g>
<g>
<circle cx="115.29485853053748" cy="-4.005562442061574" r="1" fill="black" />
</g>
<g>
<circle cx="124.41001036805199" cy="-11.770948750698892" r="1" fill="black" />
</g>
<g>
<circle cx="133.4957702085091" cy="-18.44604834207962" r="1" fill="black" />
</g>
<g>
<circle cx="142.61446300939863" cy="-24.043566265204504" r="1" fill="black" />
</g>
<g>
<circle cx="151.82841372821048" cy="-28.57620756907403" r="1" fill="black" />
</g>
<g>
<circle cx="161.19994732243447" cy="-32.05667730268868" r="1" fill="black" />
</g>
<g>
<circle cx="170.79138874956044" cy="-34.497680515048955" r="1" fill="black" />
</g>
<g>
<circle cx="180.66506296707826" cy="-35.9119222551555" r="1" fill="black" />
</g>
<g>
<circle cx="190.88329493247772" cy="-36.31210757200881" r="1" fill="black" />
</g>
<g>
<circle cx="201.50840960324877" cy="-35.71094151460943" r="1" fill="black" />
</g>
<g>
<circle cx="212.60273193688116" cy="-34.1211291319579" r="1" fill="black" />
</g>
<g>
<circle cx="224.2285868908648" cy="-31.555375473054767" r="1" fill="black" />
</g>
<g>
<circle cx="236.44829942268947" cy="-28.026385586900517" r="1" fill="black" />
</g>
<g>
<circle cx="249.32419448984513" cy="-23.54686452249581" r="1" fill="black" />
</g>
<g>
<circle cx="262.9185970498215" cy="-18.12951732884102" r="1" fill="black" />
</g>
<g>
<circle cx="277.2938320601085" cy="-11.787049054936858" r="1" fill="black" />
</g>
<g>
<circle cx="284.452932511419" cy="-7.643755788546031" r="1" fill="black" />
</g>
<g>
<circle cx="290.0201946275604" cy="-2.673073662254268" r="1" fill="black" />
</g>
<g>
<circle cx="294.18775612446575" cy="3.000945655100111" r="1" fill="black" />
</g>
<g>
<circle cx="297.1477547180679" cy="9.254250494678303" r="1" fill="black" />
</g>
<g>
<circle cx="299.0923281242999" cy="15.962789187642045" r="1" fill="black" />
</g>
<g>
<circle cx="300.2136140590944" cy="23.002510065152904" r="1" fill="black" />
</g>
<g>
<circle cx="300.7037502383847" cy="30.249361458372277" r="1" fill="black" />
</g>
<g>
<circle cx="300.7548743781034" cy="37.579291698461645" r="1" fill="black" />
</g>
<g>
<circle cx="300.5591241941836" cy="44.86824911658263" r="1" fill="black" />
</g>
<g>
<circle cx="300.30863740255813" cy="51.99218204389675" r="1" fill="black" />
</g>
<g>
<circle cx="300.19555171916" cy="58.827038811565444" r="1" fill="black" />
</g>
<g>
<circle cx="300.4120048599221" cy="65.24876775075029" r="1" fill="black" />
</g>
<g>
<circle cx="301.15013454077734" cy="71.13331719261276" r="1" fill="black" />
</g>
<g>
<circle cx="302.6020784776586" cy="76.35663546831441" r="1" fill="black" />
</g>
<g>
<circle cx="304.9599743864989" cy="80.79467090901676" r="1" fill="black" />
</g>
<g>
<circle cx="308.4159599832311" cy="84.32337184588124" r="1" fill="black" />
</g>
<g>
<circle cx="313.1621729837882" cy="86.81868661006948" r="1" fill="black" />
</g>
<g>
<circle cx="319.39075110410295" cy="88.15656353274295" r="1" fill="black" />
</g>
<g>
<circle cx="327.2938320601085" cy="88.21295094506314" r="1" fill="black" />
</g>
<g>
<circle cx="338.67304554990943" cy="86.80642673170979" r="1" fill="black" />
</g>
<g>
<circle cx="348.0315285167523" cy="84.390556624504" r="1" fill="black" />
</g>
<g>
<circle cx="355.55435821875835" cy="81.01624063160102" r="1" fill="black" />
</g>
<g>
<circle cx="361.4266119140492" cy="76.73437876115617" r="1" fill="black" />
</g>
<g>
<circle cx="365.83336686074614" cy="71.59587102132468" r="1" fill="black" />
</g>
<g>
<circle cx="368.9597003169703" cy="65.65161742026203" r="1" fill="black" />
</g>
<g>
<circle cx="370.9906895408434" cy="58.95251796612337" r="1" fill="black" />
</g>
<g>
<circle cx="372.1114117904867" cy="51.54947266706398" r="1" fill="black" />
</g>
<g>
<circle cx="372.50694432402156" cy="43.493381531239265" r="1" fill="black" />
</g>
<g>
<circle cx="372.3623643995693" cy="34.83514456680447" r="1" fill="black" />
</g>
<g>
<circle cx="371.86274927525136" cy="25.625661781914914" r="1" fill="black" />
</g>
<g>
<circle cx="371.1931762091892" cy="15.915833184725898" r="1" fill="black" />
</g>
<g>
<circle cx="370.53872245950396" cy="5.756558783392705" r="1" fill="black" />
</g>
<g>
<circle cx="370.0844652843172" cy="-4.801261413929296" r="1" fill="black" />
</g>
<g>
<circle cx="370.01548194175035" cy="-15.706727399084912" r="1" fill="black" />
</g>
<g>
<circle cx="370.5168496899246" cy="-26.908939163918717" r="1" fill="black" />
</g>
<g>
<circle cx="371.7736457869615" cy="-38.3569967002756" r="1" fill="black" />
</g>
<g>
<circle cx="373.9709474909823" cy="-50.0" r="1" fill="black" />
</g>
</g>
<g>
<g>
<circle cx="76.45372441147995" cy="576.4259018901263" r="1" fill="black" />
</g>
<g>
<circle cx="75.0253938890076" cy="551.4790238488745" r="1" fill="black" />
</g>
<g>
<circle cx="70.93721606710733" cy="526.8351182426736" r="1" fill="black" />
</g>
<g>
<circle cx="64.39016257595766" cy="502.7186238100718" r="1" fill="black" />
</g>
<g>
<circle cx="56.58910024123121" cy="478.96765138054747" r="1" fill="black" />
</g>
<g>
<circle cx="50.30786810040411" cy="454.7959099455155" r="1" fill="black" />
</g>
<g>
<circle cx="49.99999999999999" cy="429.9014196309595" r="1" fill="black" />
</g>
<g>
<circle cx="57.63761312272143" cy="406.2032043962711" r="1" fill="black" />
</g>
<g>
<circle cx="70.39394933797398" cy="384.7544180156156" r="1" fill="black" />
</g>
<g>
<circle cx="85.66712819900553" cy="364.9711976814161" r="1" fill="black" />
</g>
<g>
<circle cx="102.25113166541433" cy="346.27201335456164" r="1" fill="black" />
</g>
<g>
<circle cx="120.41907746969059" cy="329.12625536878596" r="1" fill="black" />
</g>
<g>
<circle cx="140.8257493338486" cy="314.75168735784325" r="1" fill="black" />
</g>
<g>
<circle cx="163.86944598416454" cy="305.26308565360387" r="1" fill="black" />
</g>
<g>
<circle cx="188.56810610171044" cy="301.95861323307093" r="1" fill="black" />
</g>
<g>
<circle cx="213.39731492809932" cy="304.45258783908463" r="1" fill="black" />
</g>
<g>
<circle cx="237.54373221430788" cy="310.85993945199243" r="1" fill="black" />
</g>
<g>
<circle cx="260.94741176556465" cy="319.63270102770684" r="1" fill="black" />
</g>
<g>
<circle cx="283.43849041915684" cy="330.4682999768336" r="1" fill="black" />
</g>
<g>
<circle cx="297.24771115073486" cy="350.7103067105558" r="1" fill="black" />
</g>
<g>
<circle cx="299.91246470966684" cy="375.46219025150845" r="1" fill="black" />
</g>
<g>
<circle cx="299.47045992223894" cy="400.45227853550534" r="1" fill="black" />
</g>
<g>
<circle cx="308.17076144419036" cy="422.84909541289164" r="1" fill="black" />
</g>
<g>
<circle cx="332.44413490179943" cy="425.6854590282262" r="1" fill="black" />
</g>
<g>
<circle cx="356.0555190210581" cy="418.2511809974097" r="1" fill="black" />
</g>
<g>
<circle cx="369.8333527665171" cy="398.21183067313905" r="1" fill="black" />
</g>
<g>
<circle cx="371.5273662529278" cy="373.3540804481729" r="1" fill="black" />
</g>
<g>
<circle cx="369.98419112587635" cy="348.4025932702825" r="1" fill="black" />
</g>
<g>
<circle cx="369.18116552285426" cy="323.42174976593105" r="1" fill="black" />
</g>
<g>
<circle cx="371.1846720481582" cy="298.5252526231501" r="1" fill="black" />
</g>
<g>
<circle cx="373.1308398423538" cy="288.21295094506314" r="1" fill="black" />
</g>
<text x="202.69747387485805" y="388.4215736023445" font-size="12" stroke="none" fill="black" text-anchor="middle" dy="0em">Re-sampled</text>
</g>
</svg>