<?xml version="1.0" encoding="UTF-8"?>
<svg xmlns="http://www.w3.org/2000/svg" xmlns:xlink="http://www.w3.org/1999/xlink"
     width="639.970954436438" height="1936.6999999999955" viewBox="-75.0 -125.0 639.970954436438 1936.6999999999955" stroke="black" fill="none">
<defs>
<path d="M274.08712877233444,1688.35640605585 L274.28306078675087,1671.05640605585 L274.9954287292621,1653.75640605585 L276.2179271785928,1636.45640605585 L277.9535159168533,1619.15640605585 L280.2165934121662,1601.8564060558501 L282.9557921647357,1584.5564060558502 L286.1294659587772,1567.2564060558502 L289.7303248573996,1549.9564060558503 L293.71507908598096,1532.6564060558503 L298.03362633316124,1515.3564060558504 L302.6493827596257,1498.0564060558504 L307.5501557532181,1480.7564060558504 L312.65143680127994,1463.4564060558505 L317.9061877512556,1446.1564060558505 L323.2696534784031,1428.8564060558506 L328.6920694400768,1411.5564060558506 L334.1178704671676,1394.2564060558507 L339.4953239810741,1376.9564060558507 L344.7674242278731,1359.6564060558508 L349.8809075257576,1342.3564060558508 L354.7961249748647,1325.0564060558509 L359.4703071201711,1307.756406055851 L363.8386963864767,1290.456406055851 L367.86552938134184,1273.156406055851 L371.5087021619901,1255.856406055851 L374.7479288777547,1238.556406055851 L377.5181942267277,1221.2564060558511 L379.8299149047573,1203.9564060558512 L381.66301067201067,1186.6564060558512 L382.9836566940078,1169.3564060558513 L383.7367058613996,1152.0564060558513 L383.968734389557,1134.7564060558514 L383.68235738560793,1117.4564060558514 L382.8485314996274,1100.1564060558514 L381.4914678412282,1082.8564060558515 L379.63898045397,1065.5564060558515 L377.2927951550507,1048.2564060558516 L374.43564146634276,1030.9564060558516 L371.15101839525084,1013.6564060558517 L367.46928836320717,996.3564060558517 L363.4145623600522,979.0564060558518 L359.01264970005155,961.7564060558518 L354.3246869007583,944.4564060558519 L349.3854827660829,927.1564060558519 L344.2440432345593,909.856406055852 L338.95593595876005,892.556406055852 L333.5751822051126,875.256406055852 L328.14856668141607,857.9564060558521 L322.7282342910306,840.6564060558521 L317.372524146328,823.3564060558522 L312.1306149989111,806.0564060558522 L307.04997080004637,788.7564060558523 L302.1940637268548,771.4564060558523 L297.59273798046564,754.1564060558524 L293.2860432392388,736.8564060558524 L289.3349619648532,719.5564060558524 L285.79525169270966,702.2564060558525 L282.66624727582644,684.9564060558525 L279.97443304463087,667.6564060558526 L277.7767920620877,650.3564060558526 L276.07469180086173,633.0564060558527 L274.8746501848574,615.7564060558527 L274.1194281959665,598.4564060558528 L273.441807101453,581.1564060558528 L272.76423999202933,563.8564060558529 L272.0866728826057,546.5564060558529 L271.40910577318203,529.256406055853 L270.7315386637584,511.956406055853 L270.0539715543348,494.65640605585304 L269.37640444491115,477.3564060558531 L268.6988373354875,460.05640605585313 L268.02127022606385,442.7564060558532 L267.3437031166402,425.4564060558532 L266.66613600721655,408.15640605585327 L265.9885688977929,390.8564060558533 L265.31100178836925,373.55640605585336 L264.6334346789456,356.2564060558534 L263.95586756952196,338.95640605585345 L263.2783004600983,321.6564060558535 L262.60073335067466,304.35640605585354 L261.923166241251,287.0564060558536 L261.24559913182736,269.75640605585363 L260.56803202240377,252.4564060558537 L259.8904649129801,235.15640605585375 L259.2569365694073,217.8564060558538 L258.6888392793281,200.55640605585384 L258.1207419892488,183.2564060558539 L257.5526446991696,165.95640605585393 L256.9845474090904,148.65640605585398 L256.4164501190112,131.35640605585402 L255.848352828932,114.05640605585407 L255.2802555388528,96.75640605585411 L254.7121582487736,79.45640605585416 L254.14406095869435,62.156406055854205 L253.57596366861515,44.85640605585425 L253.00786637853594,27.556406055854296 L252.43976908845673,10.256406055854342 L251.87167179837752,-7.043593944145613 L251.3035745082983,-24.343593944145567 L271.2927998832306,-24.999999999999996 L271.86089717330987,-7.700000000000109 L272.428994463389,9.600000000000087 L272.9970917534683,26.899999999999864 L273.5651890435475,44.19999999999959 L274.1332863336267,61.49999999999977 L274.70138362370585,78.79999999999953 L275.26948091378506,96.10000000000011 L275.8375782038643,113.39999999999984 L276.40567549394353,130.6999999999996 L276.97377278402274,147.99999999999932 L277.541870074102,165.3000000000009 L278.10996736418116,182.5999999999997 L278.67806465426054,199.90000000000035 L279.2449221292874,217.16224449442595 L279.8761378028873,234.39909153381168 L280.55271010431613,251.6736915725759 L281.2302772137397,268.97369157257435 L281.9078443231633,286.2736915725751 L282.5854114325869,303.5736915725721 L283.2629785420108,320.87369157257706 L283.94054565143426,338.1736915725752 L284.61811276085797,355.4736915725749 L285.29567987028156,372.77369157257635 L285.9732469797052,390.0736915725729 L286.650814089129,407.3736915725776 L287.32838119855245,424.673691572571 L288.00594830797627,441.97369157257515 L288.6835154173998,459.2736915725724 L289.3610825268236,476.5736915725771 L290.0386496362467,493.8736915725742 L290.71621674567047,511.1736915725751 L291.39378385509406,528.4736915725755 L292.0713509645183,545.7736915725798 L292.7489180739418,563.0736915725776 L293.4264839639958,580.3736604389866 L294.1023512325943,597.628884400329 L294.8444421568173,614.6280888433954 L296.0068053888687,631.3849109788129 L297.6529937488461,648.1166272451067 L299.7796982405123,664.8582096955942 L302.39067047511054,681.6386468948191 L305.4351956158996,698.4715681433315 L308.8834901537155,715.3247823664523 L312.7406959182595,732.2137439171074 L316.96182662660163,749.170033053477 L321.4869029829858,766.1833516664607 L326.2733745090096,783.2359756463054 L331.2960830984339,800.3387002607262 L336.4957311774556,817.499225030867 L341.82358633227693,834.7092479200953 L347.2327493690045,851.9735988483479 L352.665604166446,869.293489595226 L358.06805515365676,886.6632497362446 L363.3931761767852,904.084339909988 L368.5874522651678,921.5621252224621 L373.59324290247184,939.0953503461973 L378.3569143121525,956.6747380068476 L382.8436649706414,974.308160654502 L386.9884620967118,991.9924604629753 L390.75885370192856,1009.7090703726005 L394.12930788091603,1027.4611399508824 L397.07255776248,1045.2824504223167 L399.4953520751766,1063.1473401345454 L401.40801328026384,1081.0092910852688 L402.8108389599362,1098.8926704743587 L403.6743856479688,1116.8093098521506 L403.9709544364373,1134.7249943162155 L403.7308716245191,1152.6255200798516 L402.95051911997683,1170.552766949206 L401.58262835328503,1188.4716565453577 L399.68983847336915,1206.3350249015086 L397.30762794112,1224.1625429920691 L394.45473123286695,1241.9785666704781 L391.12573917490636,1259.7579836907266 L387.3927223268962,1277.4846179622662 L383.275697652037,1295.1720976679983 L378.82115154539025,1312.8133019991692 L374.0700640084118,1330.3979428699329 L369.0905905983765,1347.924103387865 L363.92329883576195,1365.4061488519035 L358.61046406858,1382.8398161134612 L353.2089402848797,1400.2172534481324 L347.77605209401355,1417.539850652249 L342.36345780419396,1434.8085150032944 L337.02619574595644,1452.023994378899 L331.81179884268647,1469.19113841396 L326.7637976320209,1486.310450234211 L321.9339236887987,1503.3601726610545 L317.39917040587625,1520.3565703359372 L313.1638165093778,1537.3232997047705 L309.26753533857067,1554.2391897166267 L305.75828171435603,1571.0990804838336 L302.67154827844934,1587.9251602597299 L300.0126694811655,1604.717882273724 L297.82358686393485,1621.4522315642585 L296.1474242799143,1638.159883592827 L294.96640053189395,1654.8729606948418 L294.27839989460506,1671.5811957441767 L294.08584621489615,1688.5829025295068 L274.08712877233444,1688.35640605585" fill="none" stroke="black" id="d0" />
<path d="M177.6673799281396,-24.343593944145567 L177.0992826380604,-7.043593944145613 L176.5311853479812,10.256406055854342 L175.96308805790198,27.556406055854296 L175.39499076782278,44.85640605585425 L174.82689347774357,62.156406055854205 L174.25879618766433,79.45640605585416 L173.69069889758512,96.75640605585411 L173.1226016075059,114.05640605585407 L172.5545043174267,131.35640605585402 L171.9864070273475,148.65640605585398 L171.4183097372683,165.95640605585393 L170.85021244718908,183.2564060558539 L170.28211515710987,200.55640605585384 L169.71401786703066,217.8564060558538 L169.08048952345783,235.15640605585375 L168.40292241403418,252.4564060558537 L167.72535530461053,269.75640605585363 L167.04778819518688,287.0564060558536 L166.37022108576326,304.35640605585354 L165.69265397633959,321.6564060558535 L165.01508686691596,338.95640605585345 L164.33751975749232,356.2564060558534 L163.65995264806867,373.55640605585336 L162.98238553864502,390.8564060558533 L162.30481842922137,408.15640605585327 L161.62725131979772,425.4564060558532 L160.94968421037407,442.7564060558532 L160.27211710095045,460.05640605585313 L159.5945499915268,477.3564060558531 L158.91698288210316,494.65640605585304 L158.23941577267954,511.956406055853 L157.5618486632559,529.256406055853 L156.88428155383224,546.5564060558529 L156.2067144444086,563.8564060558529 L155.52914733498494,581.1564060558528 L154.8515262404714,598.4564060558528 L154.09630425158053,615.7564060558527 L152.89626263557616,633.0564060558527 L151.19416237435024,650.3564060558526 L148.99652139180705,667.6564060558526 L146.30470716061149,684.9564060558525 L143.17570274372827,702.2564060558525 L139.6359924715847,719.5564060558524 L135.68491119719914,736.8564060558524 L131.37821645597228,754.1564060558524 L126.77689070958316,771.4564060558523 L121.92098363639155,788.7564060558523 L116.84033943752684,806.0564060558522 L111.59843029010995,823.3564060558522 L106.24272014540733,840.6564060558521 L100.82238775502185,857.9564060558521 L95.39577223132537,875.256406055852 L90.01501847767787,892.556406055852 L84.72691120187866,909.856406055852 L79.58547167035502,927.1564060558519 L74.64626753567961,944.4564060558519 L69.95830473638637,961.7564060558518 L65.55639207638572,979.0564060558518 L61.50166607323078,996.3564060558517 L57.81993604118708,1013.6564060558517 L54.53531297009516,1030.9564060558516 L51.678159281387195,1048.2564060558516 L49.33197398246787,1065.5564060558515 L47.47948659520972,1082.8564060558515 L46.122422936810494,1100.1564060558514 L45.288597050829964,1117.4564060558514 L45.00222004688089,1134.7564060558514 L45.23424857503829,1152.0564060558513 L45.987297742430144,1169.3564060558513 L47.30794376442725,1186.6564060558512 L49.14103953168063,1203.9564060558512 L51.45276020971019,1221.2564060558511 L54.22302555868325,1238.556406055851 L57.46225227444785,1255.856406055851 L61.10542505509605,1273.156406055851 L65.13225804996117,1290.456406055851 L69.50064731626676,1307.756406055851 L74.17482946157318,1325.0564060558509 L79.09004691068031,1342.3564060558508 L84.20353020856479,1359.6564060558508 L89.47563045536387,1376.9564060558507 L94.85308396927032,1394.2564060558507 L100.27888499636111,1411.5564060558506 L105.70130095803484,1428.8564060558506 L111.06476668518235,1446.1564060558505 L116.319517635158,1463.4564060558505 L121.4207986832198,1480.7564060558504 L126.32157167681221,1498.0564060558504 L130.93732810327668,1515.3564060558504 L135.25587535045696,1532.6564060558503 L139.24062957903834,1549.9564060558503 L142.84148847766073,1567.2564060558502 L146.0151622717022,1584.5564060558502 L148.7543610242717,1601.8564060558501 L151.01743851958463,1619.15640605585 L152.75302725784513,1636.45640605585 L153.97552570717585,1653.75640605585 L154.68789364968708,1671.05640605585 L154.88382566410348,1688.35640605585 L134.8851082215418,1688.5829025295068 L134.69255454183235,1671.5811957441767 L134.0045539045443,1654.8729606948416 L132.82353015652382,1638.1598835928269 L131.14736757250435,1621.4522315642585 L128.95828495527076,1604.7178822737242 L126.29940615799015,1587.9251602597294 L123.2126727220811,1571.0990804838339 L119.7034190978672,1554.2391897166265 L115.80713792706051,1537.3232997047703 L111.57178403056321,1520.3565703359368 L107.03703074763798,1503.3601726610548 L102.20715680441658,1486.310450234211 L97.15915559375351,1469.1911384139596 L91.94475869047947,1452.0239943788993 L86.60749663224469,1434.808515003294 L81.19490234242397,1417.539850652249 L75.76201415155828,1400.2172534481322 L70.3604903678592,1382.8398161134608 L65.04765560067531,1365.4061488519037 L59.880363838060475,1347.924103387865 L54.90089042802734,1330.3979428699324 L50.14980289104773,1312.8133019991692 L45.695256784400016,1295.1720976679987 L41.57823210954197,1277.4846179622664 L37.84521526153114,1259.7579836907269 L34.516223203570945,1241.9785666704781 L31.66332649531705,1224.1625429920691 L29.281115963068885,1206.3350249015089 L27.388326083152577,1188.471656545358 L26.020435316461857,1170.5527669492058 L25.240082811918597,1152.6255200798516 L25.0,1134.7249943162153 L25.296568788468136,1116.8093098521506 L26.16011547650362,1098.892670474359 L27.56294115617237,1081.0092910852688 L29.475602361261537,1063.1473401345454 L31.89839667395728,1045.2824504223165 L34.84164655552357,1027.4611399508826 L38.2121007345082,1009.7090703726001 L41.98249233972692,991.9924604629753 L46.12728946579688,974.308160654502 L50.61404012428491,956.6747380068477 L55.377711533966675,939.0953503461973 L60.38350217126904,921.5621252224619 L65.57777825965255,904.0843399099878 L70.90289928278128,886.6632497362446 L76.30535026999206,869.293489595226 L81.73820506743334,851.9735988483479 L87.14736810416123,834.7092479200954 L92.47522325898233,817.4992250308671 L97.6748713380041,800.3387002607262 L102.69757992742869,783.2359756463056 L107.48405145345228,766.1833516664607 L112.00912780983592,749.1700330534769 L116.23025851817846,732.2137439171074 L120.08746428272228,715.3247823664525 L123.53575882053875,698.4715681433315 L126.58028396132696,681.6386468948189 L129.1912561959261,664.8582096955942 L131.31796068759135,648.1166272451067 L132.96414904756946,631.384910978813 L134.12651227962075,614.6280888433954 L134.86860320384318,597.6288844003291 L135.54447047244227,580.3736604389865 L136.2220363624961,563.0736915725776 L136.89960347192,545.7736915725798 L137.5771705813438,528.4736915725754 L138.2547376907675,511.1736915725752 L138.93230480019076,493.8736915725742 L139.6098719096143,476.5736915725771 L140.28743901903812,459.27369157257226 L140.96500612846165,441.97369157257526 L141.64257323788547,424.673691572571 L142.3201403473089,407.3736915725776 L142.99770745673285,390.0736915725729 L143.67527456615625,372.77369157257635 L144.35284167558007,355.4736915725749 L145.03040878500357,338.1736915725752 L145.70797589442714,320.87369157257706 L146.38554300385107,303.5736915725721 L147.06311011327455,286.2736915725751 L147.7406772226982,268.97369157257435 L148.41824433212201,251.6736915725759 L149.09481663355052,234.39909153381168 L149.72603230715038,217.162244494426 L150.29288978217753,199.90000000000038 L150.86098707225676,182.5999999999997 L151.4290843623359,165.3000000000009 L151.99718165241518,147.99999999999932 L152.5652789424944,130.6999999999996 L153.13337623257368,113.39999999999984 L153.70147352265283,96.10000000000011 L154.269570812732,78.79999999999951 L154.83766810281122,61.49999999999977 L155.40576539289043,44.199999999999974 L155.97386268296967,26.900000000000233 L156.54195997304885,9.600000000000087 L157.11005726312808,-7.700000000000102 L157.6781545532073,-24.999999999999996 L177.6673799281396,-24.343593944145567" fill="none" stroke="black" id="d1" />
<path d="M440.9709544364373,1699.6999999999955 L452.9709544364373,1699.6999999999955 L452.9709544364373,-13.0 L440.9709544364373,-13.0 L440.9709544364373,1699.6999999999955" fill="none" stroke="black" id="d2" />
<path d="M440.9709544364373,1699.6999999999955 L452.9709544364373,1699.6999999999955 L452.9709544364373,-13.0 L440.9709544364373,-13.0 L440.9709544364373,1699.6999999999955 L428.9709544364373,1699.6999999999955 L428.9709544364373,-25.0 L464.9709544364373,-24.99999999999997 L464.9709544364379,1711.6999999999955 L440.9709544364373,1711.6999999999955 L440.9709544364373,1699.6999999999955" fill="none" stroke="black" id="d3" />
</defs>
<path d="M-75.0,1811.6999999999955 L564.970954436438,1811.6999999999955" stroke="#dddddd" />
<path d="M-75.0,1601.6999999999955 L564.970954436438,1601.6999999999955" stroke="#dddddd" />
<path d="M-75.0,1391.6999999999955 L564.970954436438,1391.6999999999955" stroke="#dddddd" />
<path d="M-75.0,1181.6999999999955 L564.970954436438,1181.6999999999955" stroke="#dddddd" />
<path d="M-75.0,971.6999999999955 L564.970954436438,971.6999999999955" stroke="#dddddd" />
<path d="M-75.0,761.6999999999955 L564.970954436438,761.6999999999955" stroke="#dddddd" />
<path d="M-75.0,551.6999999999955 L564.970954436438,551.6999999999955" stroke="#dddddd" />
<path d="M-75.0,341.6999999999955 L564.970954436438,341.6999999999955" stroke="#dddddd" />
<path d="M-75.0,131.6999999999955 L564.970954436438,131.6999999999955" stroke="#dddddd" />
<path d="M-75.0,-78.3000000000045 L564.970954436438,-78.3000000000045" stroke="#dddddd" />
<path d="M-75.0,1811.6999999999955 L-75.0,-125.0" stroke="#dddddd" />
<path d="M222.0,1811.6999999999955 L222.0,-125.0" stroke="#dddddd" />
<path d="M519.0,1811.6999999999955 L519.0,-125.0" stroke="#dddddd" />
<text x="73.5" y="1706.6999999999955" font-size="10" stroke="none" fill="#dddddd" dy="0em">A0</text>
<text x="73.5" y="1496.6999999999955" font-size="10" stroke="none" fill="#dddddd" dy="0em">A1</text>
<text x="73.5" y="1286.6999999999955" font-size="10" stroke="none" fill="#dddddd" dy="0em">A2</text>
<text x="73.5" y="1076.6999999999955" font-size="10" stroke="none" fill="#dddddd" dy="0em">A3</text>
<text x="73.5" y="866.6999999999955" font-size="10" stroke="none" fill="#dddddd" dy="0em">A4</text>
<text x="73.5" y="656.6999999999955" font-size="10" stroke="none" fill="#dddddd" dy="0em">A5</text>
<text x="73.5" y="446.6999999999955" font-size="10" stroke="none" fill="#dddddd" dy="0em">A6</text>
<text x="73.5" y="236.6999999999955" font-size="10" stroke="none" fill="#dddddd" dy="0em">A7</text>
<text x="73.5" y="26.699999999995498" font-size="10" stroke="none" fill="#dddddd" dy="0em">A8</text>
<text x="370.5" y="1706.6999999999955" font-size="10" stroke="none" fill="#dddddd" dy="0em">B0</text>
<text x="370.5" y="1496.6999999999955" font-size="10" stroke="none" fill="#dddddd" dy="0em">B1</text>
<text x="370.5" y="1286.6999999999955" font-size="10" stroke="none" fill="#dddddd" dy="0em">B2</text>
<text x="370.5" y="1076.6999999999955" font-size="10" stroke="none" fill="#dddddd" dy="0em">B3</text>
<text x="370.5" y="866.6999999999955" font-size="10" stroke="none" fill="#dddddd" dy="0em">B4</text>
<text x="370.5" y="656.6999999999955" font-size="10" stroke="none" fill="#dddddd" dy="0em">B5</text>
<text x="370.5" y="446.6999999999955" font-size="10" stroke="none" fill="#dddddd" dy="0em">B6</text>
<text x="370.5" y="236.6999999999955" font-size="10" stroke="none" fill="#dddddd" dy="0em">B7</text>
<text x="370.5" y="26.699999999995498" font-size="10" stroke="none" fill="#dddddd" dy="0em">B8</text>
<path d="M-75.0,1811.6999999999955 L564.970954436438,1811.6999999999955" stroke="#ffcccc66" stroke-dasharray="5" />
<text x="-74.0" y="1809.6999999999955" font-size="8" stroke="none" fill="#ffcccc66" dy="0em">-100mm</text>
<path d="M-75.0,1761.6999999999955 L564.970954436438,1761.6999999999955" stroke="#ffcccc66" stroke-dasharray="5" />
<text x="-74.0" y="1759.6999999999955" font-size="8" stroke="none" fill="#ffcccc66" dy="0em">-50mm</text>
<path d="M-75.0,1711.6999999999955 L564.970954436438,1711.6999999999955" stroke="#ffcccc66" stroke-dasharray="5" />
<text x="-74.0" y="1709.6999999999955" font-size="8" stroke="none" fill="#ffcccc66" dy="0em">0mm</text>
<path d="M-75.0,1661.6999999999955 L564.970954436438,1661.6999999999955" stroke="#ffcccc66" stroke-dasharray="5" />
<text x="-74.0" y="1659.6999999999955" font-size="8" stroke="none" fill="#ffcccc66" dy="0em">50mm</text>
<path d="M-75.0,1611.6999999999955 L564.970954436438,1611.6999999999955" stroke="#ffcccc66" stroke-dasharray="5" />
<text x="-74.0" y="1609.6999999999955" font-size="8" stroke="none" fill="#ffcccc66" dy="0em">100mm</text>
<path d="M-75.0,1561.6999999999955 L564.970954436438,1561.6999999999955" stroke="#ffcccc66" stroke-dasharray="5" />
<text x="-74.0" y="1559.6999999999955" font-size="8" stroke="none" fill="#ffcccc66" dy="0em">150mm</text>
<path d="M-75.0,1511.6999999999955 L564.970954436438,1511.6999999999955" stroke="#ffcccc66" stroke-dasharray="5" />
<text x="-74.0" y="1509.6999999999955" font-size="8" stroke="none" fill="#ffcccc66" dy="0em">200mm</text>
<path d="M-75.0,1461.6999999999955 L564.970954436438,1461.6999999999955" stroke="#ffcccc66" stroke-dasharray="5" />
<text x="-74.0" y="1459.6999999999955" font-size="8" stroke="none" fill="#ffcccc66" dy="0em">250mm</text>
<path d="M-75.0,1411.6999999999955 L564.970954436438,1411.6999999999955" stroke="#ffcccc66" stroke-dasharray="5" />
<text x="-74.0" y="1409.6999999999955" font-size="8" stroke="none" fill="#ffcccc66" dy="0em">300mm</text>
<path d="M-75.0,1361.6999999999955 L564.970954436438,1361.6999999999955" stroke="#ffcccc66" stroke-dasharray="5" />
<text x="-74.0" y="1359.6999999999955" font-size="8" stroke="none" fill="#ffcccc66" dy="0em">350mm</text>
<path d="M-75.0,1311.6999999999955 L564.970954436438,1311.6999999999955" stroke="#ffcccc66" stroke-dasharray="5" />
<text x="-74.0" y="1309.6999999999955" font-size="8" stroke="none" fill="#ffcccc66" dy="0em">400mm</text>
<path d="M-75.0,1261.6999999999955 L564.970954436438,1261.6999999999955" stroke="#ffcccc66" stroke-dasharray="5" />
<text x="-74.0" y="1259.6999999999955" font-size="8" stroke="none" fill="#ffcccc66" dy="0em">450mm</text>
<path d="M-75.0,1211.6999999999955 L564.970954436438,1211.6999999999955" stroke="#ffcccc66" stroke-dasharray="5" />
<text x="-74.0" y="1209.6999999999955" font-size="8" stroke="none" fill="#ffcccc66" dy="0em">500mm</text>
<path d="M-75.0,1161.6999999999955 L564.970954436438,1161.6999999999955" stroke="#ffcccc66" stroke-dasharray="5" />
<text x="-74.0" y="1159.6999999999955" font-size="8" stroke="none" fill="#ffcccc66" dy="0em">550mm</text>
<path d="M-75.0,1111.6999999999955 L564.970954436438,1111.6999999999955" stroke="#ffcccc66" stroke-dasharray="5" />
<text x="-74.0" y="1109.6999999999955" font-size="8" stroke="none" fill="#ffcccc66" dy="0em">600mm</text>
<path d="M-75.0,1061.6999999999955 L564.970954436438,1061.6999999999955" stroke="#ffcccc66" stroke-dasharray="5" />
<text x="-74.0" y="1059.6999999999955" font-size="8" stroke="none" fill="#ffcccc66" dy="0em">650mm</text>
<path d="M-75.0,1011.6999999999955 L564.970954436438,1011.6999999999955" stroke="#ffcccc66" stroke-dasharray="5" />
<text x="-74.0" y="1009.6999999999955" font-size="8" stroke="none" fill="#ffcccc66" dy="0em">700mm</text>
<path d="M-75.0,961.6999999999955 L564.970954436438,961.6999999999955" stroke="#ffcccc66" stroke-dasharray="5" />
<text x="-74.0" y="959.6999999999955" font-size="8" stroke="none" fill="#ffcccc66" dy="0em">750mm</text>
<path d="M-75.0,911.6999999999955 L564.970954436438,911.6999999999955" stroke="#ffcccc66" stroke-dasharray="5" />
<text x="-74.0" y="909.6999999999955" font-size="8" stroke="none" fill="#ffcccc66" dy="0em">800mm</text>
<path d="M-75.0,861.6999999999955 L564.970954436438,861.6999999999955" stroke="#ffcccc66" stroke-dasharray="5" />
<text x="-74.0" y="859.6999999999955" font-size="8" stroke="none" fill="#ffcccc66" dy="0em">850mm</text>
<path d="M-75.0,811.6999999999955 L564.970954436438,811.6999999999955" stroke="#ffcccc66" stroke-dasharray="5" />
<text x="-74.0" y="809.6999999999955" font-size="8" stroke="none" fill="#ffcccc66" dy="0em">900mm</text>
<path d="M-75.0,761.6999999999955 L564.970954436438,761.6999999999955" stroke="#ffcccc66" stroke-dasharray="5" />
<text x="-74.0" y="759.6999999999955" font-size="8" stroke="none" fill="#ffcccc66" dy="0em">950mm</text>
<path d="M-75.0,711.6999999999955 L564.970954436438,711.6999999999955" stroke="#ffcccc66" stroke-dasharray="5" />
<text x="-74.0" y="709.6999999999955" font-size="8" stroke="none" fill="#ffcccc66" dy="0em">1000mm</text>
<path d="M-75.0,661.6999999999955 L564.970954436438,661.6999999999955" stroke="#ffcccc66" stroke-dasharray="5" />
<text x="-74.0" y="659.6999999999955" font-size="8" stroke="none" fill="#ffcccc66" dy="0em">1050mm</text>
<path d="M-75.0,611.6999999999955 L564.970954436438,611.6999999999955" stroke="#ffcccc66" stroke-dasharray="5" />
<text x="-74.0" y="609.6999999999955" font-size="8" stroke="none" fill="#ffcccc66" dy="0em">1100mm</text>
<path d="M-75.0,561.6999999999955 L564.970954436438,561.6999999999955" stroke="#ffcccc66" stroke-dasharray="5" />
<text x="-74.0" y="559.6999999999955" font-size="8" stroke="none" fill="#ffcccc66" dy="0em">1150mm</text>
<path d="M-75.0,511.6999999999955 L564.970954436438,511.6999999999955" stroke="#ffcccc66" stroke-dasharray="5" />
<text x="-74.0" y="509.6999999999955" font-size="8" stroke="none" fill="#ffcccc66" dy="0em">1200mm</text>
<path d="M-75.0,461.6999999999955 L564.970954436438,461.6999999999955" stroke="#ffcccc66" stroke-dasharray="5" />
<text x="-74.0" y="459.6999999999955" font-size="8" stroke="none" fill="#ffcccc66" dy="0em">1250mm</text>
<path d="M-75.0,411.6999999999955 L564.970954436438,411.6999999999955" stroke="#ffcccc66" stroke-dasharray="5" />
<text x="-74.0" y="409.6999999999955" font-size="8" stroke="none" fill="#ffcccc66" dy="0em">1300mm</text>
<path d="M-75.0,361.6999999999955 L564.970954436438,361.6999999999955" stroke="#ffcccc66" stroke-dasharray="5" />
<text x="-74.0" y="359.6999999999955" font-size="8" stroke="none" fill="#ffcccc66" dy="0em">1350mm</text>
<path d="M-75.0,311.6999999999955 L564.970954436438,311.6999999999955" stroke="#ffcccc66" stroke-dasharray="5" />
<text x="-74.0" y="309.6999999999955" font-size="8" stroke="none" fill="#ffcccc66" dy="0em">1400mm</text>
<path d="M-75.0,261.6999999999955 L564.970954436438,261.6999999999955" stroke="#ffcccc66" stroke-dasharray="5" />
<text x="-74.0" y="259.6999999999955" font-size="8" stroke="none" fill="#ffcccc66" dy="0em">1450mm</text>
<path d="M-75.0,211.6999999999955 L564.970954436438,211.6999999999955" stroke="#ffcccc66" stroke-dasharray="5" />
<text x="-74.0" y="209.6999999999955" font-size="8" stroke="none" fill="#ffcccc66" dy="0em">1500mm</text>
<path d="M-75.0,161.6999999999955 L564.970954436438,161.6999999999955" stroke="#ffcccc66" stroke-dasharray="5" />
<text x="-74.0" y="159.6999999999955" font-size="8" stroke="none" fill="#ffcccc66" dy="0em">1550mm</text>
<path d="M-75.0,111.6999999999955 L564.970954436438,111.6999999999955" stroke="#ffcccc66" stroke-dasharray="5" />
<text x="-74.0" y="109.6999999999955" font-size="8" stroke="none" fill="#ffcccc66" dy="0em">1600mm</text>
<path d="M-75.0,61.6999999999955 L564.970954436438,61.6999999999955" stroke="#ffcccc66" stroke-dasharray="5" />
<text x="-74.0" y="59.6999999999955" font-size="8" stroke="none" fill="#ffcccc66" dy="0em">1650mm</text>
<path d="M-75.0,11.699999999995498 L564.970954436438,11.699999999995498" stroke="#ffcccc66" stroke-dasharray="5" />
<text x="-74.0" y="9.699999999995498" font-size="8" stroke="none" fill="#ffcccc66" dy="0em">1700mm</text>
<path d="M-75.0,-38.3000000000045 L564.970954436438,-38.3000000000045" stroke="#ffcccc66" stroke-dasharray="5" />
<text x="-74.0" y="-40.3000000000045" font-size="8" stroke="none" fill="#ffcccc66" dy="0em">1750mm</text>
<path d="M-75.0,-88.3000000000045 L564.970954436438,-88.3000000000045" stroke="#ffcccc66" stroke-dasharray="5" />
<text x="-74.0" y="-90.3000000000045" font-size="8" stroke="none" fill="#ffcccc66" dy="0em">1800mm</text>
<path d="M-75.0,1811.6999999999955 L-75.0,-125.0" stroke="#ffcccc66" stroke-dasharray="5" />
<text x="-73.0" y="1810.6999999999955" font-size="8" stroke="none" fill="#ffcccc66" dy="0em">-100mm</text>
<path d="M-25.0,1811.6999999999955 L-25.0,-125.0" stroke="#ffcccc66" stroke-dasharray="5" />
<text x="-23.0" y="1810.6999999999955" font-size="8" stroke="none" fill="#ffcccc66" dy="0em">-50mm</text>
<path d="M25.0,1811.6999999999955 L25.0,-125.0" stroke="#ffcccc66" stroke-dasharray="5" />
<text x="27.0" y="1810.6999999999955" font-size="8" stroke="none" fill="#ffcccc66" dy="0em">0mm</text>
<path d="M75.0,1811.6999999999955 L75.0,-125.0" stroke="#ffcccc66" stroke-dasharray="5" />
<text x="77.0" y="1810.6999999999955" font-size="8" stroke="none" fill="#ffcccc66" dy="0em">50mm</text>
<path d="M125.0,1811.6999999999955 L125.0,-125.0" stroke="#ffcccc66" stroke-dasharray="5" />
<text x="127.0" y="1810.6999999999955" font-size="8" stroke="none" fill="#ffcccc66" dy="0em">100mm</text>
<path d="M175.0,1811.6999999999955 L175.0,-125.0" stroke="#ffcccc66" stroke-dasharray="5" />
<text x="177.0" y="1810.6999999999955" font-size="8" stroke="none" fill="#ffcccc66" dy="0em">150mm</text>
<path d="M225.0,1811.6999999999955 L225.0,-125.0" stroke="#ffcccc66" stroke-dasharray="5" />
<text x="227.0" y="1810.6999999999955" font-size="8" stroke="none" fill="#ffcccc66" dy="0em">200mm</text>
<path d="M275.0,1811.6999999999955 L275.0,-125.0" stroke="#ffcccc66" stroke-dasharray="5" />
<text x="277.0" y="1810.6999999999955" font-size="8" stroke="none" fill="#ffcccc66" dy="0em">250mm</text>
<path d="M325.0,1811.6999999999955 L325.0,-125.0" stroke="#ffcccc66" stroke-dasharray="5" />
<text x="327.0" y="1810.6999999999955" font-size="8" stroke="none" fill="#ffcccc66" dy="0em">300mm</text>
<path d="M375.0,1811.6999999999955 L375.0,-125.0" stroke="#ffcccc66" stroke-dasharray="5" />
<text x="377.0" y="1810.6999999999955" font-size="8" stroke="none" fill="#ffcccc66" dy="0em">350mm</text>
<path d="M425.0,1811.6999999999955 L425.0,-125.0" stroke="#ffcccc66" stroke-dasharray="5" />
<text x="427.0" y="1810.6999999999955" font-size="8" stroke="none" fill="#ffcccc66" dy="0em">400mm</text>
<path d="M475.0,1811.6999999999955 L475.0,-125.0" stroke="#ffcccc66" stroke-dasharray="5" />
<text x="477.0" y="1810.6999999999955" font-size="8" stroke="none" fill="#ffcccc66" dy="0em">450mm</text>
<path d="M525.0,1811.6999999999955 L525.0,-125.0" stroke="#ffcccc66" stroke-dasharray="5" />
<text x="527.0" y="1810.6999999999955" font-size="8" stroke="none" fill="#ffcccc66" dy="0em">500mm</text>
<g>
<g>
<path d="M274.08712877233444,1688.35640605585 L274.28306078675087,1671.05640605585 L274.9954287292621,1653.75640605585 L276.2179271785928,1636.45640605585 L277.9535159168533,1619.15640605585 L280.2165934121662,1601.8564060558501 L282.9557921647357,1584.5564060558502 L286.1294659587772,1567.2564060558502 L289.7303248573996,1549.9564060558503 L293.71507908598096,1532.6564060558503 L298.03362633316124,1515.3564060558504 L302.6493827596257,1498.0564060558504 L307.5501557532181,1480.7564060558504 L312.65143680127994,1463.4564060558505 L317.9061877512556,1446.1564060558505 L323.2696534784031,1428.8564060558506 L328.6920694400768,1411.5564060558506 L334.1178704671676,1394.2564060558507 L339.4953239810741,1376.9564060558507 L344.7674242278731,1359.6564060558508 L349.8809075257576,1342.3564060558508 L354.7961249748647,1325.0564060558509 L359.4703071201711,1307.756406055851 L363.8386963864767,1290.456406055851 L367.86552938134184,1273.156406055851 L371.5087021619901,1255.856406055851 L374.7479288777547,1238.556406055851 L377.5181942267277,1221.2564060558511 L379.8299149047573,1203.9564060558512 L381.66301067201067,1186.6564060558512 L382.9836566940078,1169.3564060558513 L383.7367058613996,1152.0564060558513 L383.968734389557,1134.7564060558514 L383.68235738560793,1117.4564060558514 L382.8485314996274,1100.1564060558514 L381.4914678412282,1082.8564060558515 L379.63898045397,1065.5564060558515 L377.2927951550507,1048.2564060558516 L374.43564146634276,1030.9564060558516 L371.15101839525084,1013.6564060558517 L367.46928836320717,996.3564060558517 L363.4145623600522,979.0564060558518 L359.01264970005155,961.7564060558518 L354.3246869007583,944.4564060558519 L349.3854827660829,927.1564060558519 L344.2440432345593,909.856406055852 L338.95593595876005,892.556406055852 L333.5751822051126,875.256406055852 L328.14856668141607,857.9564060558521 L322.7282342910306,840.6564060558521 L317.372524146328,823.3564060558522 L312.1306149989111,806.0564060558522 L307.04997080004637,788.7564060558523 L302.1940637268548,771.4564060558523 L297.59273798046564,754.1564060558524 L293.2860432392388,736.8564060558524 L289.3349619648532,719.5564060558524 L285.79525169270966,702.2564060558525 L282.66624727582644,684.9564060558525 L279.97443304463087,667.6564060558526 L277.7767920620877,650.3564060558526 L276.07469180086173,633.0564060558527 L274.8746501848574,615.7564060558527 L274.1194281959665,598.4564060558528 L273.441807101453,581.1564060558528 L272.76423999202933,563.8564060558529 L272.0866728826057,546.5564060558529 L271.40910577318203,529.256406055853 L270.7315386637584,511.956406055853 L270.0539715543348,494.65640605585304 L269.37640444491115,477.3564060558531 L268.6988373354875,460.05640605585313 L268.02127022606385,442.7564060558532 L267.3437031166402,425.4564060558532 L266.66613600721655,408.15640605585327 L265.9885688977929,390.8564060558533 L265.31100178836925,373.55640605585336 L264.6334346789456,356.2564060558534 L263.95586756952196,338.95640605585345 L263.2783004600983,321.6564060558535 L262.60073335067466,304.35640605585354 L261.923166241251,287.0564060558536 L261.24559913182736,269.75640605585363 L260.56803202240377,252.4564060558537 L259.8904649129801,235.15640605585375 L259.2569365694073,217.8564060558538 L258.6888392793281,200.55640605585384 L258.1207419892488,183.2564060558539 L257.5526446991696,165.95640605585393 L256.9845474090904,148.65640605585398 L256.4164501190112,131.35640605585402 L255.848352828932,114.05640605585407 L255.2802555388528,96.75640605585411 L254.7121582487736,79.45640605585416 L254.14406095869435,62.156406055854205 L253.57596366861515,44.85640605585425 L253.00786637853594,27.556406055854296 L252.43976908845673,10.256406055854342 L251.87167179837752,-7.043593944145613 L251.3035745082983,-24.343593944145567 L177.6673799281396,-24.343593944145567 L177.0992826380604,-7.043593944145613 L176.5311853479812,10.256406055854342 L175.96308805790198,27.556406055854296 L175.39499076782278,44.85640605585425 L174.82689347774357,62.156406055854205 L174.25879618766433,79.45640605585416 L173.69069889758512,96.75640605585411 L173.1226016075059,114.05640605585407 L172.5545043174267,131.35640605585402 L171.9864070273475,148.65640605585398 L171.4183097372683,165.95640605585393 L170.85021244718908,183.2564060558539 L170.28211515710987,200.55640605585384 L169.71401786703066,217.8564060558538 L169.08048952345783,235.15640605585375 L168.40292241403418,252.4564060558537 L167.72535530461053,269.75640605585363 L167.04778819518688,287.0564060558536 L166.37022108576326,304.35640605585354 L165.69265397633959,321.6564060558535 L165.01508686691596,338.95640605585345 L164.33751975749232,356.2564060558534 L163.65995264806867,373.55640605585336 L162.98238553864502,390.8564060558533 L162.30481842922137,408.15640605585327 L161.62725131979772,425.4564060558532 L160.94968421037407,442.7564060558532 L160.27211710095045,460.05640605585313 L159.5945499915268,477.3564060558531 L158.91698288210316,494.65640605585304 L158.23941577267954,511.956406055853 L157.5618486632559,529.256406055853 L156.88428155383224,546.5564060558529 L156.2067144444086,563.8564060558529 L155.52914733498494,581.1564060558528 L154.8515262404714,598.4564060558528 L154.09630425158053,615.7564060558527 L152.89626263557616,633.0564060558527 L151.19416237435024,650.3564060558526 L148.99652139180705,667.6564060558526 L146.30470716061149,684.9564060558525 L143.17570274372827,702.2564060558525 L139.6359924715847,719.5564060558524 L135.68491119719914,736.8564060558524 L131.37821645597228,754.1564060558524 L126.77689070958316,771.4564060558523 L121.92098363639155,788.7564060558523 L116.84033943752684,806.0564060558522 L111.59843029010995,823.3564060558522 L106.24272014540733,840.6564060558521 L100.82238775502185,857.9564060558521 L95.39577223132537,875.256406055852 L90.01501847767787,892.556406055852 L84.72691120187866,909.856406055852 L79.58547167035502,927.1564060558519 L74.64626753567961,944.4564060558519 L69.95830473638637,961.7564060558518 L65.55639207638572,979.0564060558518 L61.50166607323078,996.3564060558517 L57.81993604118708,1013.6564060558517 L54.53531297009516,1030.9564060558516 L51.678159281387195,1048.2564060558516 L49.33197398246787,1065.5564060558515 L47.47948659520972,1082.8564060558515 L46.122422936810494,1100.1564060558514 L45.288597050829964,1117.4564060558514 L45.00222004688089,1134.7564060558514 L45.23424857503829,1152.0564060558513 L45.987297742430144,1169.3564060558513 L47.30794376442725,1186.6564060558512 L49.14103953168063,1203.9564060558512 L51.45276020971019,1221.2564060558511 L54.22302555868325,1238.556406055851 L57.46225227444785,1255.856406055851 L61.10542505509605,1273.156406055851 L65.13225804996117,1290.456406055851 L69.50064731626676,1307.756406055851 L74.17482946157318,1325.0564060558509 L79.09004691068031,1342.3564060558508 L84.20353020856479,1359.6564060558508 L89.47563045536387,1376.9564060558507 L94.85308396927032,1394.2564060558507 L100.27888499636111,1411.5564060558506 L105.70130095803484,1428.8564060558506 L111.06476668518235,1446.1564060558505 L116.319517635158,1463.4564060558505 L121.4207986832198,1480.7564060558504 L126.32157167681221,1498.0564060558504 L130.93732810327668,1515.3564060558504 L135.25587535045696,1532.6564060558503 L139.24062957903834,1549.9564060558503 L142.84148847766073,1567.2564060558502 L146.0151622717022,1584.5564060558502 L148.7543610242717,1601.8564060558501 L151.01743851958463,1619.15640605585 L152.75302725784513,1636.45640605585 L153.97552570717585,1653.75640605585 L154.68789364968708,1671.05640605585 L154.88382566410348,1688.35640605585 L274.08712877233444,1688.35640605585" fill="#E6E6FA66" stroke="black" />
</g>
<g>
<path d="M274.08712877233444,1688.35640605585 L274.28306078675087,1671.05640605585 L274.9954287292621,1653.75640605585 L276.2179271785928,1636.45640605585 L277.9535159168533,1619.15640605585 L280.2165934121662,1601.8564060558501 L282.9557921647357,1584.5564060558502 L286.1294659587772,1567.2564060558502 L289.7303248573996,1549.9564060558503 L293.71507908598096,1532.6564060558503 L298.03362633316124,1515.3564060558504 L302.6493827596257,1498.0564060558504 L307.5501557532181,1480.7564060558504 L312.65143680127994,1463.4564060558505 L317.9061877512556,1446.1564060558505 L323.2696534784031,1428.8564060558506 L328.6920694400768,1411.5564060558506 L334.1178704671676,1394.2564060558507 L339.4953239810741,1376.9564060558507 L344.7674242278731,1359.6564060558508 L349.8809075257576,1342.3564060558508 L354.7961249748647,1325.0564060558509 L359.4703071201711,1307.756406055851 L363.8386963864767,1290.456406055851 L367.86552938134184,1273.156406055851 L371.5087021619901,1255.856406055851 L374.7479288777547,1238.556406055851 L377.5181942267277,1221.2564060558511 L379.8299149047573,1203.9564060558512 L381.66301067201067,1186.6564060558512 L382.9836566940078,1169.3564060558513 L383.7367058613996,1152.0564060558513 L383.968734389557,1134.7564060558514 L383.68235738560793,1117.4564060558514 L382.8485314996274,1100.1564060558514 L381.4914678412282,1082.8564060558515 L379.63898045397,1065.5564060558515 L377.2927951550507,1048.2564060558516 L374.43564146634276,1030.9564060558516 L371.15101839525084,1013.6564060558517 L367.46928836320717,996.3564060558517 L363.4145623600522,979.0564060558518 L359.01264970005155,961.7564060558518 L354.3246869007583,944.4564060558519 L349.3854827660829,927.1564060558519 L344.2440432345593,909.856406055852 L338.95593595876005,892.556406055852 L333.5751822051126,875.256406055852 L328.14856668141607,857.9564060558521 L322.7282342910306,840.6564060558521 L317.372524146328,823.3564060558522 L312.1306149989111,806.0564060558522 L307.04997080004637,788.7564060558523 L302.1940637268548,771.4564060558523 L297.59273798046564,754.1564060558524 L293.2860432392388,736.8564060558524 L289.3349619648532,719.5564060558524 L285.79525169270966,702.2564060558525 L282.66624727582644,684.9564060558525 L279.97443304463087,667.6564060558526 L277.7767920620877,650.3564060558526 L276.07469180086173,633.0564060558527 L274.8746501848574,615.7564060558527 L274.1194281959665,598.4564060558528 L273.441807101453,581.1564060558528 L272.76423999202933,563.8564060558529 L272.0866728826057,546.5564060558529 L271.40910577318203,529.256406055853 L270.7315386637584,511.956406055853 L270.0539715543348,494.65640605585304 L269.37640444491115,477.3564060558531 L268.6988373354875,460.05640605585313 L268.02127022606385,442.7564060558532 L267.3437031166402,425.4564060558532 L266.66613600721655,408.15640605585327 L265.9885688977929,390.8564060558533 L265.31100178836925,373.55640605585336 L264.6334346789456,356.2564060558534 L263.95586756952196,338.95640605585345 L263.2783004600983,321.6564060558535 L262.60073335067466,304.35640605585354 L261.923166241251,287.0564060558536 L261.24559913182736,269.75640605585363 L260.56803202240377,252.4564060558537 L259.8904649129801,235.15640605585375 L259.2569365694073,217.8564060558538 L258.6888392793281,200.55640605585384 L258.1207419892488,183.2564060558539 L257.5526446991696,165.95640605585393 L256.9845474090904,148.65640605585398 L256.4164501190112,131.35640605585402 L255.848352828932,114.05640605585407 L255.2802555388528,96.75640605585411 L254.7121582487736,79.45640605585416 L254.14406095869435,62.156406055854205 L253.57596366861515,44.85640605585425 L253.00786637853594,27.556406055854296 L252.43976908845673,10.256406055854342 L251.87167179837752,-7.043593944145613 L251.3035745082983,-24.343593944145567" fill="none" stroke="black" />
</g>
<g>
<path d="M154.88382566410348,1688.35640605585 L154.68789364968708,1671.05640605585 L153.97552570717585,1653.75640605585 L152.75302725784513,1636.45640605585 L151.01743851958463,1619.15640605585 L148.7543610242717,1601.8564060558501 L146.0151622717022,1584.5564060558502 L142.84148847766073,1567.2564060558502 L139.24062957903834,1549.9564060558503 L135.25587535045696,1532.6564060558503 L130.93732810327668,1515.3564060558504 L126.32157167681221,1498.0564060558504 L121.4207986832198,1480.7564060558504 L116.319517635158,1463.4564060558505 L111.06476668518235,1446.1564060558505 L105.70130095803484,1428.8564060558506 L100.27888499636111,1411.5564060558506 L94.85308396927032,1394.2564060558507 L89.47563045536387,1376.9564060558507 L84.20353020856479,1359.6564060558508 L79.09004691068031,1342.3564060558508 L74.17482946157318,1325.0564060558509 L69.50064731626676,1307.756406055851 L65.13225804996117,1290.456406055851 L61.10542505509605,1273.156406055851 L57.46225227444785,1255.856406055851 L54.22302555868325,1238.556406055851 L51.45276020971019,1221.2564060558511 L49.14103953168063,1203.9564060558512 L47.30794376442725,1186.6564060558512 L45.987297742430144,1169.3564060558513 L45.23424857503829,1152.0564060558513 L45.00222004688089,1134.7564060558514 L45.288597050829964,1117.4564060558514 L46.122422936810494,1100.1564060558514 L47.47948659520972,1082.8564060558515 L49.33197398246787,1065.5564060558515 L51.678159281387195,1048.2564060558516 L54.53531297009516,1030.9564060558516 L57.81993604118708,1013.6564060558517 L61.50166607323078,996.3564060558517 L65.55639207638572,979.0564060558518 L69.95830473638637,961.7564060558518 L74.64626753567961,944.4564060558519 L79.58547167035502,927.1564060558519 L84.72691120187866,909.856406055852 L90.01501847767787,892.556406055852 L95.39577223132537,875.256406055852 L100.82238775502185,857.9564060558521 L106.24272014540733,840.6564060558521 L111.59843029010995,823.3564060558522 L116.84033943752684,806.0564060558522 L121.92098363639155,788.7564060558523 L126.77689070958316,771.4564060558523 L131.37821645597228,754.1564060558524 L135.68491119719914,736.8564060558524 L139.6359924715847,719.5564060558524 L143.17570274372827,702.2564060558525 L146.30470716061149,684.9564060558525 L148.99652139180705,667.6564060558526 L151.19416237435024,650.3564060558526 L152.89626263557616,633.0564060558527 L154.09630425158053,615.7564060558527 L154.8515262404714,598.4564060558528 L155.52914733498494,581.1564060558528 L156.2067144444086,563.8564060558529 L156.88428155383224,546.5564060558529 L157.5618486632559,529.256406055853 L158.23941577267954,511.956406055853 L158.91698288210316,494.65640605585304 L159.5945499915268,477.3564060558531 L160.27211710095045,460.05640605585313 L160.94968421037407,442.7564060558532 L161.62725131979772,425.4564060558532 L162.30481842922137,408.15640605585327 L162.98238553864502,390.8564060558533 L163.65995264806867,373.55640605585336 L164.33751975749232,356.2564060558534 L165.01508686691596,338.95640605585345 L165.69265397633959,321.6564060558535 L166.37022108576326,304.35640605585354 L167.04778819518688,287.0564060558536 L167.72535530461053,269.75640605585363 L168.40292241403418,252.4564060558537 L169.08048952345783,235.15640605585375 L169.71401786703066,217.8564060558538 L170.28211515710987,200.55640605585384 L170.85021244718908,183.2564060558539 L171.4183097372683,165.95640605585393 L171.9864070273475,148.65640605585398 L172.5545043174267,131.35640605585402 L173.1226016075059,114.05640605585407 L173.69069889758512,96.75640605585411 L174.25879618766433,79.45640605585416 L174.82689347774357,62.156406055854205 L175.39499076782278,44.85640605585425 L175.96308805790198,27.556406055854296 L176.5311853479812,10.256406055854342 L177.0992826380604,-7.043593944145613 L177.6673799281396,-24.343593944145567" fill="none" stroke="black" />
</g>
<g>
<path d="M274.08712877233444,1688.35640605585 L274.28306078675087,1671.05640605585 L274.9954287292621,1653.75640605585 L276.2179271785928,1636.45640605585 L277.9535159168533,1619.15640605585 L280.2165934121662,1601.8564060558501 L282.9557921647357,1584.5564060558502 L286.1294659587772,1567.2564060558502 L289.7303248573996,1549.9564060558503 L293.71507908598096,1532.6564060558503 L298.03362633316124,1515.3564060558504 L302.6493827596257,1498.0564060558504 L307.5501557532181,1480.7564060558504 L312.65143680127994,1463.4564060558505 L317.9061877512556,1446.1564060558505 L323.2696534784031,1428.8564060558506 L328.6920694400768,1411.5564060558506 L334.1178704671676,1394.2564060558507 L339.4953239810741,1376.9564060558507 L344.7674242278731,1359.6564060558508 L349.8809075257576,1342.3564060558508 L354.7961249748647,1325.0564060558509 L359.4703071201711,1307.756406055851 L363.8386963864767,1290.456406055851 L367.86552938134184,1273.156406055851 L371.5087021619901,1255.856406055851 L374.7479288777547,1238.556406055851 L377.5181942267277,1221.2564060558511 L379.8299149047573,1203.9564060558512 L381.66301067201067,1186.6564060558512 L382.9836566940078,1169.3564060558513 L383.7367058613996,1152.0564060558513 L383.968734389557,1134.7564060558514 L383.68235738560793,1117.4564060558514 L382.8485314996274,1100.1564060558514 L381.4914678412282,1082.8564060558515 L379.63898045397,1065.5564060558515 L377.2927951550507,1048.2564060558516 L374.43564146634276,1030.9564060558516 L371.15101839525084,1013.6564060558517 L367.46928836320717,996.3564060558517 L363.4145623600522,979.0564060558518 L359.01264970005155,961.7564060558518 L354.3246869007583,944.4564060558519 L349.3854827660829,927.1564060558519 L344.2440432345593,909.856406055852 L338.95593595876005,892.556406055852 L333.5751822051126,875.256406055852 L328.14856668141607,857.9564060558521 L322.7282342910306,840.6564060558521 L317.372524146328,823.3564060558522 L312.1306149989111,806.0564060558522 L307.04997080004637,788.7564060558523 L302.1940637268548,771.4564060558523 L297.59273798046564,754.1564060558524 L293.2860432392388,736.8564060558524 L289.3349619648532,719.5564060558524 L285.79525169270966,702.2564060558525 L282.66624727582644,684.9564060558525 L279.97443304463087,667.6564060558526 L277.7767920620877,650.3564060558526 L276.07469180086173,633.0564060558527 L274.8746501848574,615.7564060558527 L274.1194281959665,598.4564060558528 L273.441807101453,581.1564060558528 L272.76423999202933,563.8564060558529 L272.0866728826057,546.5564060558529 L271.40910577318203,529.256406055853 L270.7315386637584,511.956406055853 L270.0539715543348,494.65640605585304 L269.37640444491115,477.3564060558531 L268.6988373354875,460.05640605585313 L268.02127022606385,442.7564060558532 L267.3437031166402,425.4564060558532 L266.66613600721655,408.15640605585327 L265.9885688977929,390.8564060558533 L265.31100178836925,373.55640605585336 L264.6334346789456,356.2564060558534 L263.95586756952196,338.95640605585345 L263.2783004600983,321.6564060558535 L262.60073335067466,304.35640605585354 L261.923166241251,287.0564060558536 L261.24559913182736,269.75640605585363 L260.56803202240377,252.4564060558537 L259.8904649129801,235.15640605585375 L259.2569365694073,217.8564060558538 L258.6888392793281,200.55640605585384 L258.1207419892488,183.2564060558539 L257.5526446991696,165.95640605585393 L256.9845474090904,148.65640605585398 L256.4164501190112,131.35640605585402 L255.848352828932,114.05640605585407 L255.2802555388528,96.75640605585411 L254.7121582487736,79.45640605585416 L254.14406095869435,62.156406055854205 L253.57596366861515,44.85640605585425 L253.00786637853594,27.556406055854296 L252.43976908845673,10.256406055854342 L251.87167179837752,-7.043593944145613 L251.3035745082983,-24.343593944145567 L271.2927998832306,-24.999999999999996 L271.86089717330987,-7.700000000000109 L272.428994463389,9.600000000000087 L272.9970917534683,26.899999999999864 L273.5651890435475,44.19999999999959 L274.1332863336267,61.49999999999977 L274.70138362370585,78.79999999999953 L275.26948091378506,96.10000000000011 L275.8375782038643,113.39999999999984 L276.40567549394353,130.6999999999996 L276.97377278402274,147.99999999999932 L277.541870074102,165.3000000000009 L278.10996736418116,182.5999999999997 L278.67806465426054,199.90000000000035 L279.2449221292874,217.16224449442595 L279.8761378028873,234.39909153381168 L280.55271010431613,251.6736915725759 L281.2302772137397,268.97369157257435 L281.9078443231633,286.2736915725751 L282.5854114325869,303.5736915725721 L283.2629785420108,320.87369157257706 L283.94054565143426,338.1736915725752 L284.61811276085797,355.4736915725749 L285.29567987028156,372.77369157257635 L285.9732469797052,390.0736915725729 L286.650814089129,407.3736915725776 L287.32838119855245,424.673691572571 L288.00594830797627,441.97369157257515 L288.6835154173998,459.2736915725724 L289.3610825268236,476.5736915725771 L290.0386496362467,493.8736915725742 L290.71621674567047,511.1736915725751 L291.39378385509406,528.4736915725755 L292.0713509645183,545.7736915725798 L292.7489180739418,563.0736915725776 L293.4264839639958,580.3736604389866 L294.1023512325943,597.628884400329 L294.8444421568173,614.6280888433954 L296.0068053888687,631.3849109788129 L297.6529937488461,648.1166272451067 L299.7796982405123,664.8582096955942 L302.39067047511054,681.6386468948191 L305.4351956158996,698.4715681433315 L308.8834901537155,715.3247823664523 L312.7406959182595,732.2137439171074 L316.96182662660163,749.170033053477 L321.4869029829858,766.1833516664607 L326.2733745090096,783.2359756463054 L331.2960830984339,800.3387002607262 L336.4957311774556,817.499225030867 L341.82358633227693,834.7092479200953 L347.2327493690045,851.9735988483479 L352.665604166446,869.293489595226 L358.06805515365676,886.6632497362446 L363.3931761767852,904.084339909988 L368.5874522651678,921.5621252224621 L373.59324290247184,939.0953503461973 L378.3569143121525,956.6747380068476 L382.8436649706414,974.308160654502 L386.9884620967118,991.9924604629753 L390.75885370192856,1009.7090703726005 L394.12930788091603,1027.4611399508824 L397.07255776248,1045.2824504223167 L399.4953520751766,1063.1473401345454 L401.40801328026384,1081.0092910852688 L402.8108389599362,1098.8926704743587 L403.6743856479688,1116.8093098521506 L403.9709544364373,1134.7249943162155 L403.7308716245191,1152.6255200798516 L402.95051911997683,1170.552766949206 L401.58262835328503,1188.4716565453577 L399.68983847336915,1206.3350249015086 L397.30762794112,1224.1625429920691 L394.45473123286695,1241.9785666704781 L391.12573917490636,1259.7579836907266 L387.3927223268962,1277.4846179622662 L383.275697652037,1295.1720976679983 L378.82115154539025,1312.8133019991692 L374.0700640084118,1330.3979428699329 L369.0905905983765,1347.924103387865 L363.92329883576195,1365.4061488519035 L358.61046406858,1382.8398161134612 L353.2089402848797,1400.2172534481324 L347.77605209401355,1417.539850652249 L342.36345780419396,1434.8085150032944 L337.02619574595644,1452.023994378899 L331.81179884268647,1469.19113841396 L326.7637976320209,1486.310450234211 L321.9339236887987,1503.3601726610545 L317.39917040587625,1520.3565703359372 L313.1638165093778,1537.3232997047705 L309.26753533857067,1554.2391897166267 L305.75828171435603,1571.0990804838336 L302.67154827844934,1587.9251602597299 L300.0126694811655,1604.717882273724 L297.82358686393485,1621.4522315642585 L296.1474242799143,1638.159883592827 L294.96640053189395,1654.8729606948418 L294.27839989460506,1671.5811957441767 L294.08584621489615,1688.5829025295068 L274.08712877233444,1688.35640605585" fill="#E6E6FA66" stroke="black" />
<text font-size="12" stroke="none" fill="#000000"><textPath xlink:href="#d0" startOffset="10">
<tspan dy="-1em">20.0mm allowance</tspan>
</textPath></text>
</g>
<g>
<path d="M177.6673799281396,-24.343593944145567 L177.0992826380604,-7.043593944145613 L176.5311853479812,10.256406055854342 L175.96308805790198,27.556406055854296 L175.39499076782278,44.85640605585425 L174.82689347774357,62.156406055854205 L174.25879618766433,79.45640605585416 L173.69069889758512,96.75640605585411 L173.1226016075059,114.05640605585407 L172.5545043174267,131.35640605585402 L171.9864070273475,148.65640605585398 L171.4183097372683,165.95640605585393 L170.85021244718908,183.2564060558539 L170.28211515710987,200.55640605585384 L169.71401786703066,217.8564060558538 L169.08048952345783,235.15640605585375 L168.40292241403418,252.4564060558537 L167.72535530461053,269.75640605585363 L167.04778819518688,287.0564060558536 L166.37022108576326,304.35640605585354 L165.69265397633959,321.6564060558535 L165.01508686691596,338.95640605585345 L164.33751975749232,356.2564060558534 L163.65995264806867,373.55640605585336 L162.98238553864502,390.8564060558533 L162.30481842922137,408.15640605585327 L161.62725131979772,425.4564060558532 L160.94968421037407,442.7564060558532 L160.27211710095045,460.05640605585313 L159.5945499915268,477.3564060558531 L158.91698288210316,494.65640605585304 L158.23941577267954,511.956406055853 L157.5618486632559,529.256406055853 L156.88428155383224,546.5564060558529 L156.2067144444086,563.8564060558529 L155.52914733498494,581.1564060558528 L154.8515262404714,598.4564060558528 L154.09630425158053,615.7564060558527 L152.89626263557616,633.0564060558527 L151.19416237435024,650.3564060558526 L148.99652139180705,667.6564060558526 L146.30470716061149,684.9564060558525 L143.17570274372827,702.2564060558525 L139.6359924715847,719.5564060558524 L135.68491119719914,736.8564060558524 L131.37821645597228,754.1564060558524 L126.77689070958316,771.4564060558523 L121.92098363639155,788.7564060558523 L116.84033943752684,806.0564060558522 L111.59843029010995,823.3564060558522 L106.24272014540733,840.6564060558521 L100.82238775502185,857.9564060558521 L95.39577223132537,875.256406055852 L90.01501847767787,892.556406055852 L84.72691120187866,909.856406055852 L79.58547167035502,927.1564060558519 L74.64626753567961,944.4564060558519 L69.95830473638637,961.7564060558518 L65.55639207638572,979.0564060558518 L61.50166607323078,996.3564060558517 L57.81993604118708,1013.6564060558517 L54.53531297009516,1030.9564060558516 L51.678159281387195,1048.2564060558516 L49.33197398246787,1065.5564060558515 L47.47948659520972,1082.8564060558515 L46.122422936810494,1100.1564060558514 L45.288597050829964,1117.4564060558514 L45.00222004688089,1134.7564060558514 L45.23424857503829,1152.0564060558513 L45.987297742430144,1169.3564060558513 L47.30794376442725,1186.6564060558512 L49.14103953168063,1203.9564060558512 L51.45276020971019,1221.2564060558511 L54.22302555868325,1238.556406055851 L57.46225227444785,1255.856406055851 L61.10542505509605,1273.156406055851 L65.13225804996117,1290.456406055851 L69.50064731626676,1307.756406055851 L74.17482946157318,1325.0564060558509 L79.09004691068031,1342.3564060558508 L84.20353020856479,1359.6564060558508 L89.47563045536387,1376.9564060558507 L94.85308396927032,1394.2564060558507 L100.27888499636111,1411.5564060558506 L105.70130095803484,1428.8564060558506 L111.06476668518235,1446.1564060558505 L116.319517635158,1463.4564060558505 L121.4207986832198,1480.7564060558504 L126.32157167681221,1498.0564060558504 L130.93732810327668,1515.3564060558504 L135.25587535045696,1532.6564060558503 L139.24062957903834,1549.9564060558503 L142.84148847766073,1567.2564060558502 L146.0151622717022,1584.5564060558502 L148.7543610242717,1601.8564060558501 L151.01743851958463,1619.15640605585 L152.75302725784513,1636.45640605585 L153.97552570717585,1653.75640605585 L154.68789364968708,1671.05640605585 L154.88382566410348,1688.35640605585 L134.8851082215418,1688.5829025295068 L134.69255454183235,1671.5811957441767 L134.0045539045443,1654.8729606948416 L132.82353015652382,1638.1598835928269 L131.14736757250435,1621.4522315642585 L128.95828495527076,1604.7178822737242 L126.29940615799015,1587.9251602597294 L123.2126727220811,1571.0990804838339 L119.7034190978672,1554.2391897166265 L115.80713792706051,1537.3232997047703 L111.57178403056321,1520.3565703359368 L107.03703074763798,1503.3601726610548 L102.20715680441658,1486.310450234211 L97.15915559375351,1469.1911384139596 L91.94475869047947,1452.0239943788993 L86.60749663224469,1434.808515003294 L81.19490234242397,1417.539850652249 L75.76201415155828,1400.2172534481322 L70.3604903678592,1382.8398161134608 L65.04765560067531,1365.4061488519037 L59.880363838060475,1347.924103387865 L54.90089042802734,1330.3979428699324 L50.14980289104773,1312.8133019991692 L45.695256784400016,1295.1720976679987 L41.57823210954197,1277.4846179622664 L37.84521526153114,1259.7579836907269 L34.516223203570945,1241.9785666704781 L31.66332649531705,1224.1625429920691 L29.281115963068885,1206.3350249015089 L27.388326083152577,1188.471656545358 L26.020435316461857,1170.5527669492058 L25.240082811918597,1152.6255200798516 L25.0,1134.7249943162153 L25.296568788468136,1116.8093098521506 L26.16011547650362,1098.892670474359 L27.56294115617237,1081.0092910852688 L29.475602361261537,1063.1473401345454 L31.89839667395728,1045.2824504223165 L34.84164655552357,1027.4611399508826 L38.2121007345082,1009.7090703726001 L41.98249233972692,991.9924604629753 L46.12728946579688,974.308160654502 L50.61404012428491,956.6747380068477 L55.377711533966675,939.0953503461973 L60.38350217126904,921.5621252224619 L65.57777825965255,904.0843399099878 L70.90289928278128,886.6632497362446 L76.30535026999206,869.293489595226 L81.73820506743334,851.9735988483479 L87.14736810416123,834.7092479200954 L92.47522325898233,817.4992250308671 L97.6748713380041,800.3387002607262 L102.69757992742869,783.2359756463056 L107.48405145345228,766.1833516664607 L112.00912780983592,749.1700330534769 L116.23025851817846,732.2137439171074 L120.08746428272228,715.3247823664525 L123.53575882053875,698.4715681433315 L126.58028396132696,681.6386468948189 L129.1912561959261,664.8582096955942 L131.31796068759135,648.1166272451067 L132.96414904756946,631.384910978813 L134.12651227962075,614.6280888433954 L134.86860320384318,597.6288844003291 L135.54447047244227,580.3736604389865 L136.2220363624961,563.0736915725776 L136.89960347192,545.7736915725798 L137.5771705813438,528.4736915725754 L138.2547376907675,511.1736915725752 L138.93230480019076,493.8736915725742 L139.6098719096143,476.5736915725771 L140.28743901903812,459.27369157257226 L140.96500612846165,441.97369157257526 L141.64257323788547,424.673691572571 L142.3201403473089,407.3736915725776 L142.99770745673285,390.0736915725729 L143.67527456615625,372.77369157257635 L144.35284167558007,355.4736915725749 L145.03040878500357,338.1736915725752 L145.70797589442714,320.87369157257706 L146.38554300385107,303.5736915725721 L147.06311011327455,286.2736915725751 L147.7406772226982,268.97369157257435 L148.41824433212201,251.6736915725759 L149.09481663355052,234.39909153381168 L149.72603230715038,217.162244494426 L150.29288978217753,199.90000000000038 L150.86098707225676,182.5999999999997 L151.4290843623359,165.3000000000009 L151.99718165241518,147.99999999999932 L152.5652789424944,130.6999999999996 L153.13337623257368,113.39999999999984 L153.70147352265283,96.10000000000011 L154.269570812732,78.79999999999951 L154.83766810281122,61.49999999999977 L155.40576539289043,44.199999999999974 L155.97386268296967,26.900000000000233 L156.54195997304885,9.600000000000087 L157.11005726312808,-7.700000000000102 L157.6781545532073,-24.999999999999996 L177.6673799281396,-24.343593944145567" fill="#E6E6FA66" stroke="black" />
<text font-size="12" stroke="none" fill="#000000"><textPath xlink:href="#d1" startOffset="10">
<tspan dy="-1em">20.0mm allowance</tspan>
</textPath></text>
</g>
<g>
<path d="M214.48547721821896,-24.343593944145567 L214.48547721821896,1688.35640605585" fill="none" stroke="black" stroke-dasharray="3" />
</g>
</g>
<g>
<g>
<path d="M440.9709544364373,1699.6999999999955 L452.9709544364373,1699.6999999999955 L452.9709544364373,-13.0 L440.9709544364373,-13.0 L440.9709544364373,1699.6999999999955" fill="#E6E6FA66" stroke="black" />
<text font-size="12" stroke="none" fill="#000000"><textPath xlink:href="#d2" startOffset="10">
<tspan dy="-1em">12mm boning channel</tspan>
</textPath></text>
</g>
<g>
<path d="M440.9709544364373,1699.6999999999955 L452.9709544364373,1699.6999999999955 L452.9709544364373,-13.0 L440.9709544364373,-13.0 L440.9709544364373,1699.6999999999955 L428.9709544364373,1699.6999999999955 L428.9709544364373,-25.0 L464.9709544364373,-24.99999999999997 L464.9709544364379,1711.6999999999955 L440.9709544364373,1711.6999999999955 L440.9709544364373,1699.6999999999955" fill="#E6E6FA66" stroke="black" />
<text font-size="12" stroke="none" fill="#000000"><textPath xlink:href="#d3" startOffset="10">
<tspan dy="-1em">12.0mm allowance</tspan>
</textPath></text>
</g>
</g>
</svg>