<?xml version="1.0" encoding="UTF-8"?>
<svg xmlns="http://www.w3.org/2000/svg" xmlns:xlink="http://www.w3.org/1999/xlink"
     width="66950.59855867787" height="8571.986715977164" viewBox="15.387333741624118 -7826.986715977164 66950.59855867787 8571.986715977164" stroke="black" fill="none">
<defs>
</defs>
<g>
<path d="M115.38733374162412,0 L143.2394487827058,265 L190.9859317102744,645 L66517.3512003936,-7688.817544602284 L66518.12216616886,-7683.374311245875 L66519.06372761061,-7677.957980416766 L66520.1749555114,-7672.573897379565 L66521.45475322341,-7667.227375574201 L66522.90185774086,-7661.923691372202 L66524.51484094627,-7656.668078869554 L66526.29211101998,-7651.46572472128 L66528.23191401098,-7646.321763022836 L66530.33233556792,-7641.24127024338 L66532.5913028283,-7636.229260215911 L66535.00658646418,-7631.290679189218 L66537.57580288219,-7626.430400946533 L66540.29641657593,-7621.653221995692 L66543.16574262815,-7616.963856835564 L66546.18094936044,-7612.366933303409 L66549.3390611278,-7607.866988007759 L66552.63696125518,-7603.468461851336 L66556.07139511334,-7599.175695648415 L66559.63897333067,-7594.9929258409675 L66563.33617513823,-7590.924280317802 L66567.15935184417,-7586.973774340836 L66571.10473043469,-7583.145306582517 L66575.16841729742,-7579.442655278308 L66579.34640206407,-7575.8694744980185 L66583.63456156806,-7572.429290539683 L66588.0286639137,-7569.125498449531 L66592.52437265248,-7565.961358671483 L66597.11725106265,-7562.939993829489 L66601.8027665277,-7560.064385645875 L66606.57629500958,-7557.337371998739 L66611.43312561198,-7554.761644121319 L66616.36846522948,-7552.339743946055 L66621.3774432777,-7550.074061596021 L66626.45511650009,-7547.966833026159 L66631.59647384618,-7546.020137816657 L66636.79644141701,-7544.23589712066 L66642.04988747239,-7542.615871768321 L66647.3516274953,-7541.161660529075 L66652.69642930845,-7539.874698533845 L66658.07901823771,-7538.756255858744 L66663.49408231767,-7537.8074362716625 L66668.93627753385,-7537.029176142979 L66674.40023309662,-7536.42224352148 L66679.88055674151,-7535.987237376387 L66685.37184005072,-7535.724587006248 L66690.86866379059,-7535.634551615266 L66696.36560325976,-7535.717220057503 L66701.85723364259,-7535.972510749187 L66707.33813536292,-7536.4001717492265 L66712.80289943248,-7536.999781007848 L66718.24613278889,-7537.770746783102 L66723.662463618,-7538.712308224852 L66729.04654665521,-7539.823536125628 L66734.39306846057,-7541.103333837654 L66739.69675266257,-7542.550438355098 L66744.95236516521,-7544.1634215605145 L66750.15471931349,-7545.940691634217 L66755.29868101193,-7547.880494625214 L66760.37917379139,-7549.98091618215 L66765.39118381887,-7552.239883442535 L66770.32976484555,-7554.655167078411 L66775.19004308824,-7557.22438349643 L66779.96722203908,-7559.944997190173 L66784.6565871992,-7562.814323242389 L66789.25351073136,-7565.829529974681 L66793.75345602701,-7568.987641742034 L66798.15198218344,-7572.285541869418 L66802.44474838636,-7575.719975727568 L66806.6275181938,-7579.28755394491 L66810.69616371697,-7582.984755752462 L66814.64666969393,-7586.807932458409 L66818.47513745226,-7590.7533110489185 L66822.17778875647,-7594.816997911656 L66825.75096953675,-7598.9949826782995 L66829.19115349509,-7603.2831421823 L66832.49494558525,-7607.677244527944 L66835.6590853633,-7612.172953266721 L66838.68045020528,-7616.76583167688 L66841.5560583889,-7621.451347141935 L66844.28307203604,-7626.224875623811 L66846.85879991345,-7631.081706226212 L66849.28070008871,-7636.017045843706 L66851.54638243876,-7641.026023891939 L66853.65361100862,-7646.103697114321 L66855.60030621811,-7651.245054460416 L66857.38454691411,-7656.445022031247 L66859.00457226645,-7661.698468086621 L66860.4587835057,-7667.000208109537 L66861.74574550093,-7672.34500992268 L66862.86418817603,-7677.727598851946 L66863.8130077631,-7683.142662931909 L66864.5912678918,-7688.584858148092 L66865.19820051329,-7694.04881371086 L66865.63320665839,-7699.529137355744 L66865.89585702852,-7705.020420664953 L66865.9858924195,-7710.517244404834 L66865.90322397726,-7716.014183873993 L66865.64793328558,-7721.505814256829 L66865.22027228554,-7726.986715977165" fill="none" stroke="black" />
</g>
</svg>
