<?xml version="1.0" encoding="UTF-8"?>
<svg xmlns="http://www.w3.org/2000/svg" xmlns:xlink="http://www.w3.org/1999/xlink"
     width="292.9527290535526" height="300.0" viewBox="-92.95272905355262 -200.0 292.9527290535526 300.0" stroke="black" fill="none">
<defs>
<marker markerWidth="15.2" markerHeight="8.0" viewBox="-1.0 -0.5 1.9 1.0" orient="auto" id="d0">
<path d="M-1.0,0.5 L-1.0,-0.5 L0.0,0 Z" fill="black" stroke="none" />
</marker>
</defs>
<path d="M-92.95272905355262,100.0 L200.0,100.0" stroke="#dddddd" />
<path d="M-92.95272905355262,-110.0 L200.0,-110.0" stroke="#dddddd" />
<path d="M-92.95272905355262,100.0 L-92.95272905355262,-200" stroke="#dddddd" />
<text x="55.547270946447384" y="-5.0" font-size="10" stroke="none" fill="#dddddd" dy="0em">α0</text>
<path d="M-92.95272905355262,100.0 L200.0,100.0" stroke="#ffcccc66" stroke-dasharray="5" />
<text x="-91.95272905355262" y="98.0" font-size="8" stroke="none" fill="#ffcccc66" dy="0em">-100mm</text>
<path d="M-92.95272905355262,50.0 L200.0,50.0" stroke="#ffcccc66" stroke-dasharray="5" />
<text x="-91.95272905355262" y="48.0" font-size="8" stroke="none" fill="#ffcccc66" dy="0em">-50mm</text>
<path d="M-92.95272905355262,-0.0 L200.0,-0.0" stroke="#ffcccc66" stroke-dasharray="5" />
<text x="-91.95272905355262" y="-2.0" font-size="8" stroke="none" fill="#ffcccc66" dy="0em">0mm</text>
<path d="M-92.95272905355262,-50.0 L200.0,-50.0" stroke="#ffcccc66" stroke-dasharray="5" />
<text x="-91.95272905355262" y="-52.0" font-size="8" stroke="none" fill="#ffcccc66" dy="0em">50mm</text>
<path d="M-92.95272905355262,-100.0 L200.0,-100.0" stroke="#ffcccc66" stroke-dasharray="5" />
<text x="-91.95272905355262" y="-102.0" font-size="8" stroke="none" fill="#ffcccc66" dy="0em">100mm</text>
<path d="M-92.95272905355262,-150.0 L200.0,-150.0" stroke="#ffcccc66" stroke-dasharray="5" />
<text x="-91.95272905355262" y="-152.0" font-size="8" stroke="none" fill="#ffcccc66" dy="0em">150mm</text>
<path d="M-92.95272905355262,100.0 L-92.95272905355262,-200" stroke="#ffcccc66" stroke-dasharray="5" />
<text x="-90.95272905355262" y="99.0" font-size="8" stroke="none" fill="#ffcccc66" dy="0em">-100mm</text>
<path d="M-42.952729053552616,100.0 L-42.952729053552616,-200" stroke="#ffcccc66" stroke-dasharray="5" />
<text x="-40.952729053552616" y="99.0" font-size="8" stroke="none" fill="#ffcccc66" dy="0em">-50mm</text>
<path d="M7.047270946447384,100.0 L7.047270946447384,-200" stroke="#ffcccc66" stroke-dasharray="5" />
<text x="9.047270946447384" y="99.0" font-size="8" stroke="none" fill="#ffcccc66" dy="0em">-0mm</text>
<path d="M57.047270946447384,100.0 L57.047270946447384,-200" stroke="#ffcccc66" stroke-dasharray="5" />
<text x="59.047270946447384" y="99.0" font-size="8" stroke="none" fill="#ffcccc66" dy="0em">50mm</text>
<path d="M107.04727094644738,100.0 L107.04727094644738,-200" stroke="#ffcccc66" stroke-dasharray="5" />
<text x="109.04727094644738" y="99.0" font-size="8" stroke="none" fill="#ffcccc66" dy="0em">100mm</text>
<path d="M157.04727094644738,100.0 L157.04727094644738,-200" stroke="#ffcccc66" stroke-dasharray="5" />
<text x="159.04727094644738" y="99.0" font-size="8" stroke="none" fill="#ffcccc66" dy="0em">150mm</text>
<g>
<path d="M100.0,-0.0 L99.80267284282715,-6.279051952931337 L99.21147013144778,-12.533323356430426 L98.22872507286887,-18.738131458572465 L96.85831611286311,-24.86898871648548 L95.10565162951536,-30.901699437494745 L92.97764858882515,-36.8124552684678 L90.48270524660195,-42.577929156507274 L87.63066800438637,-48.17536741017153 L84.43279255020151,-53.58267949789967 L80.90169943749474,-58.778525229247315 L77.05132427757891,-63.742398974868976 L72.89686274214115,-68.45471059286888 L68.45471059286886,-72.89686274214115 L63.74239897486897,-77.05132427757894 L58.77852522924731,-80.90169943749476 L53.582679497899655,-84.43279255020151 L48.17536741017152,-87.63066800438637 L42.57792915650727,-90.48270524660195 L36.81245526846779,-92.97764858882515 L30.90169943749475,-95.10565162951536 L24.86898871648548,-96.85831611286312 L18.73813145857245,-98.22872507286887 L12.533323356430426,-99.21147013144778 L7.047270946447391,-99.73005476749935" fill="none" stroke="black" />
</g>
<g>
<circle cx="90" cy="-100" r="1" fill="black" />
<text x="92" y="-102" font-size="12" fill="#000000" stroke="none" dy="0em">X</text>
</g>
<g>
<circle cx="67.13281522853877" cy="-74.06227027249327" r="1" fill="black" />
<text x="69.13281522853877" y="-76.06227027249327" font-size="12" fill="#000000" stroke="none" dy="0em">Y</text>
</g>
<g>
<path d="M90,-100 L67.13281522853877,-74.06227027249327" fill="none" stroke="black" marker-end="url(#d0)" stroke-dasharray="3" />
</g>
</svg>