<?xml version="1.0" encoding="UTF-8"?>
<svg xmlns="http://www.w3.org/2000/svg" xmlns:xlink="http://www.w3.org/1999/xlink"
     width="500" height="1200" viewBox="-50 -150 500 1200" stroke="black" fill="none">
<defs>
<path d="M50,0 L150,-50 L250,50 L350,0" fill="none" stroke="black" id="d0" />
<path d="M50,150 L150,100 L250,200 L350,150" fill="none" stroke="black" id="d1" />
<marker markerWidth="15.2" markerHeight="8.0" viewBox="-1.0 -0.5 1.9 1.0" orient="auto" id="d2">
<path d="M-1.0,0.5 L-1.0,-0.5 L0.0,0 Z" fill="black" stroke="none" />
</marker>
<path d="M50,300 L150,250 L250,350 L350,300" fill="none" stroke="black" id="d3" />
<marker markerWidth="15.2" markerHeight="8.0" viewBox="-1.0 -0.5 1.9 1.0" orient="auto" id="d4">
<path d="M-1.0,0.5 L-1.0,-0.5 L0.0,0 Z" fill="black" stroke="none" />
</marker>
<path d="M50,450 L150,400 L250,500 L350,450" fill="none" stroke="black" id="d5" />
<path d="M50,750 L150,700 L250,800 L350,750" fill="none" stroke="black" id="d6" />
<path d="M50,900 L150,850 L250,950 L350,900" fill="none" stroke="black" id="d7" />
<path d="M51.788854381999926,903.5777087639996 L96.51021393199818,993.0204278639899" id="d8" />
<path d="M69.67739820199823,894.6334368540005 L114.3987577519963,984.0761559539909" id="d9" />
<path d="M87.56594202199655,885.6891649440013 L132.28730157199462,975.1318840439917" id="d10" />
<path d="M105.45448584199487,876.7448930340021 L150.17584539199297,966.1876121339925" id="d11" />
<path d="M123.34302966199319,867.8006211240029 L168.06438921199126,957.2433402239933" id="d12" />
<path d="M141.23157348199152,858.8563492140038 L185.9529330319896,948.2990683139942" id="d13" />
<path d="M152.96744511343002,858.6242993629224 L82.25676699477576,929.3349774815777" id="d14" />
<path d="M167.109580737161,872.7664349866534 L96.39890261850674,943.4771131053086" id="d15" />
<path d="M181.25171636089195,886.9085706103842 L110.54103824223769,957.6192487290394" id="d16" />
<path d="M195.3938519846229,901.0507062341153 L124.68317386596864,971.7613843527705" id="d17" />
<path d="M209.53598760835382,915.1928418578462 L138.82530948969955,985.9035199765015" id="d18" />
<path d="M223.6781232320848,929.3349774815772 L152.96744511343053,1000.0456556002324" id="d19" />
<path d="M237.82025885581572,943.4771131053081 L167.10958073716145,1014.1877912239634" id="d20" />
<path d="M257.84881763524294,950.5477271373782 L302.57017718524173,1039.9904462373684" id="d21" />
<path d="M275.73736145524106,941.6034552273788 L320.45872100523684,1031.0461743273706" id="d22" />
<path d="M293.6259052752394,932.6591833173796 L338.3472648252352,1022.1019024173712" id="d23" />
<path d="M311.5144490952377,923.7149114073807 L356.2358086452335,1013.1576305073722" id="d24" />
<path d="M329.402992915236,914.7706394973815 L374.12435246523177,1004.213358597373" id="d25" />
<path d="M347.29153673523433,905.8263675873824 L392.0128962852301,995.2690866873739" id="d26" />
</defs>
<g>
<path d="M50,0 L150,-50 L250,50 L350,0" fill="none" stroke="black" />
<text font-size="12" stroke="none" fill="#000000"><textPath xlink:href="#d0" startOffset="10">
<tspan dy="-1em">line</tspan>
</textPath></text>
</g>
<g>
<text font-size="12" stroke="none" fill="#000000"><textPath xlink:href="#d1" startOffset="10">
<tspan dy="-1em">dashed</tspan>
</textPath></text>
<path d="M50,150 L150,100 L250,200 L350,150" fill="none" stroke="black" stroke-dasharray="3" />
</g>
<g>
<path d="M50,300 L150,250 L250,350 L350,300" fill="none" stroke="black" marker-end="url(#d2)" />
<text font-size="12" stroke="none" fill="#000000"><textPath xlink:href="#d3" startOffset="10">
<tspan dy="-1em">arrow</tspan>
</textPath></text>
</g>
<g>
<path d="M50,450 L150,400 L250,500 L350,450" fill="none" stroke="black" marker-end="url(#d4)" stroke-dasharray="3" />
<text font-size="12" stroke="none" fill="#000000"><textPath xlink:href="#d5" startOffset="10">
<tspan dy="-1em">dashed_arrow</tspan>
</textPath></text>
</g>
<g>
<g>
<circle cx="50" cy="600" r="1" fill="black" />
</g>
<g>
<circle cx="150" cy="550" r="1" fill="black" />
</g>
<g>
<circle cx="250" cy="650" r="1" fill="black" />
</g>
<g>
<circle cx="350" cy="600" r="1" fill="black" />
</g>
<text x="200.0" y="600.0" font-size="12" stroke="none" fill="black" text-anchor="middle" dy="0em">pointset</text>
</g>
<g>
<path d="M50,750 L150,700 L250,800 L350,750" fill="none" stroke="black" />
<path d="M52.2360679774999,754.4721359549995 L47.7639320225001,745.5278640450005" stroke="black" />
<path d="M352.2360679774998,754.4721359549995 L347.7639320225002,745.5278640450005" stroke="black" />
<text font-size="12" stroke="none" fill="black"><textPath xlink:href="#d6" startOffset="10">
<tspan dy="-1em">tape (365.0mm)</tspan>
</textPath></text>
</g>
<g>
<g>
<path d="M50,900 L150,850 L250,950 L350,900" fill="none" stroke="black" />
<text font-size="12" stroke="none" fill="#000000"><textPath xlink:href="#d7" startOffset="10">
<tspan dy="-1em">ruler</tspan>
</textPath></text>
</g>
<path d="M50.0,900.0 L51.341640786499944,902.6832815729997" />
<text font-size="12" stroke="none" fill="#000000"><textPath xlink:href="#d8">
<tspan dy="0em">0mm</tspan>
</textPath></text>
<path d="M67.88854381999832,891.0557280900009 L69.23018460649826,893.7390096630006" />
<text font-size="12" stroke="none" fill="#000000"><textPath xlink:href="#d9">
<tspan dy="0em">20mm</tspan>
</textPath></text>
<path d="M85.77708763999664,882.1114561800017 L87.11872842649657,884.7947377530014" />
<text font-size="12" stroke="none" fill="#000000"><textPath xlink:href="#d10">
<tspan dy="0em">40mm</tspan>
</textPath></text>
<path d="M103.66563145999496,873.1671842700025 L105.00727224649489,875.8504658430022" />
<text font-size="12" stroke="none" fill="#000000"><textPath xlink:href="#d11">
<tspan dy="0em">60mm</tspan>
</textPath></text>
<path d="M121.55417527999327,864.2229123600033 L122.89581606649321,866.906193933003" />
<text font-size="12" stroke="none" fill="#000000"><textPath xlink:href="#d12">
<tspan dy="0em">80mm</tspan>
</textPath></text>
<path d="M139.4427190999916,855.2786404500042 L140.78435988649153,857.9619220230039" />
<text font-size="12" stroke="none" fill="#000000"><textPath xlink:href="#d13">
<tspan dy="0em">100mm</tspan>
</textPath></text>
<path d="M155.7958722381762,855.7958722381762 L153.67455189461657,857.9171925817359" />
<text font-size="12" stroke="none" fill="#000000"><textPath xlink:href="#d14">
<tspan dy="0em">120mm</tspan>
</textPath></text>
<path d="M169.93800786190718,869.9380078619072 L167.81668751834755,872.0593282054668" />
<text font-size="12" stroke="none" fill="#000000"><textPath xlink:href="#d15">
<tspan dy="0em">140mm</tspan>
</textPath></text>
<path d="M184.08014348563813,884.080143485638 L181.9588231420785,886.2014638291977" />
<text font-size="12" stroke="none" fill="#000000"><textPath xlink:href="#d16">
<tspan dy="0em">160mm</tspan>
</textPath></text>
<path d="M198.22227910936908,898.2222791093691 L196.10095876580945,900.3435994529287" />
<text font-size="12" stroke="none" fill="#000000"><textPath xlink:href="#d17">
<tspan dy="0em">180mm</tspan>
</textPath></text>
<path d="M212.3644147331,912.3644147331 L210.24309438954037,914.4857350766597" />
<text font-size="12" stroke="none" fill="#000000"><textPath xlink:href="#d18">
<tspan dy="0em">200mm</tspan>
</textPath></text>
<path d="M226.50655035683099,926.506550356831 L224.38523001327135,928.6278707003906" />
<text font-size="12" stroke="none" fill="#000000"><textPath xlink:href="#d19">
<tspan dy="0em">220mm</tspan>
</textPath></text>
<path d="M240.6486859805619,940.6486859805619 L238.52736563700228,942.7700063241216" />
<text font-size="12" stroke="none" fill="#000000"><textPath xlink:href="#d20">
<tspan dy="0em">240mm</tspan>
</textPath></text>
<path d="M256.059963253243,946.9700183733786 L257.40160403974295,949.6532999463783" />
<text font-size="12" stroke="none" fill="#000000"><textPath xlink:href="#d21">
<tspan dy="0em">260mm</tspan>
</textPath></text>
<path d="M273.9485070732413,938.0257464633793 L275.2901478597411,940.709028036379" />
<text font-size="12" stroke="none" fill="#000000"><textPath xlink:href="#d22">
<tspan dy="0em">280mm</tspan>
</textPath></text>
<path d="M291.8370508932396,929.0814745533801 L293.1786916797395,931.7647561263798" />
<text font-size="12" stroke="none" fill="#000000"><textPath xlink:href="#d23">
<tspan dy="0em">300mm</tspan>
</textPath></text>
<path d="M309.7255947132379,920.1372026433811 L311.06723549973776,922.8204842163808" />
<text font-size="12" stroke="none" fill="#000000"><textPath xlink:href="#d24">
<tspan dy="0em">320mm</tspan>
</textPath></text>
<path d="M327.6141385332362,911.1929307333819 L328.95577931973605,913.8762123063816" />
<text font-size="12" stroke="none" fill="#000000"><textPath xlink:href="#d25">
<tspan dy="0em">340mm</tspan>
</textPath></text>
<path d="M345.50268235323455,902.2486588233828 L346.8443231397344,904.9319403963825" />
<text font-size="12" stroke="none" fill="#000000"><textPath xlink:href="#d26">
<tspan dy="0em">360mm</tspan>
</textPath></text>
</g>
</svg>