<?xml version="1.0" encoding="UTF-8"?>
<svg xmlns="http://www.w3.org/2000/svg" xmlns:xlink="http://www.w3.org/1999/xlink"
     width="623.9709474909823" height="926.4259018901263" viewBox="-100.0 -200.0 623.9709474909823 926.4259018901263" stroke="black" fill="none">
<defs>
<path d="M-7.105427357601002e-15,630.4259018901263 L-7.105427357601002e-15,730.4259018901263" id="d0" />
<path d="M9.999999999999993,630.4259018901263 L9.999999999999993,730.4259018901263" id="d1" />
<path d="M19.999999999999993,630.4259018901264 L19.999999999999993,730.4259018901264" id="d2" />
<path d="M29.99999999999999,630.4259018901263 L29.99999999999999,730.4259018901263" id="d3" />
<path d="M39.99999999999999,630.4259018901263 L39.99999999999999,730.4259018901263" id="d4" />
<path d="M49.99999999999999,630.4259018901262 L49.99999999999999,730.4259018901262" id="d5" />
<path d="M59.999999999999986,630.4259018901264 L59.999999999999986,730.4259018901264" id="d6" />
<path d="M70.0,630.4259018901263 L70.0,730.4259018901263" id="d7" />
<path d="M80.0,630.4259018901263 L80.0,730.4259018901263" id="d8" />
<path d="M90.0,630.4259018901263 L90.0,730.4259018901263" id="d9" />
<path d="M100.0,630.4259018901263 L100.0,730.4259018901263" id="d10" />
<path d="M110.0,630.4259018901263 L110.0,730.4259018901263" id="d11" />
<path d="M119.99999999999999,630.4259018901263 L119.99999999999999,730.4259018901263" id="d12" />
<path d="M130.0,630.4259018901264 L130.0,730.4259018901264" id="d13" />
<path d="M140.0,630.4259018901263 L140.0,730.4259018901263" id="d14" />
<path d="M150.0,630.4259018901263 L150.0,730.4259018901263" id="d15" />
<path d="M160.0,630.4259018901263 L160.0,730.4259018901263" id="d16" />
<path d="M170.0,630.4259018901263 L170.0,730.4259018901263" id="d17" />
<path d="M180.0,630.4259018901263 L180.0,730.4259018901263" id="d18" />
<path d="M190.0,630.4259018901263 L190.0,730.4259018901263" id="d19" />
<path d="M200.0,630.4259018901264 L200.0,730.4259018901264" id="d20" />
<path d="M210.0,630.4259018901263 L210.0,730.4259018901263" id="d21" />
<path d="M220.0,630.4259018901263 L220.0,730.4259018901263" id="d22" />
<path d="M230.00000000000003,630.4259018901263 L230.00000000000003,730.4259018901263" id="d23" />
<path d="M239.99999999999997,630.4259018901263 L239.99999999999997,730.4259018901263" id="d24" />
<path d="M250.0,630.4259018901263 L250.0,730.4259018901263" id="d25" />
<path d="M260.0,630.4259018901263 L260.0,730.4259018901263" id="d26" />
<path d="M270.0,630.4259018901263 L270.0,730.4259018901263" id="d27" />
<path d="M280.0,630.4259018901263 L280.0,730.4259018901263" id="d28" />
<path d="M290.0,630.4259018901263 L290.0,730.4259018901263" id="d29" />
<path d="M300.0,630.4259018901263 L300.0,730.4259018901263" id="d30" />
<path d="M310.0,630.4259018901263 L310.0,730.4259018901263" id="d31" />
<path d="M320.0,630.4259018901263 L320.0,730.4259018901263" id="d32" />
<path d="M330.0,630.4259018901263 L330.0,730.4259018901263" id="d33" />
<path d="M340.0,630.4259018901263 L340.0,730.4259018901263" id="d34" />
<path d="M350.0,630.4259018901263 L350.0,730.4259018901263" id="d35" />
<path d="M360.0,630.4259018901264 L360.0,730.4259018901264" id="d36" />
<path d="M370.0,630.4259018901263 L370.0,730.4259018901263" id="d37" />
<path d="M380.0,630.4259018901263 L380.0,730.4259018901263" id="d38" />
<path d="M390.0,630.4259018901263 L390.0,730.4259018901263" id="d39" />
<path d="M400.0,630.4259018901263 L400.0,730.4259018901263" id="d40" />
<path d="M410.0,630.4259018901263 L410.0,730.4259018901263" id="d41" />
<path d="M420.0,630.4259018901263 L420.0,730.4259018901263" id="d42" />
<path d="M427.9709474909823,626.4259018901263 L527.9709474909823,626.4259018901263" id="d43" />
<path d="M427.9709474909823,616.4259018901263 L527.9709474909823,616.4259018901263" id="d44" />
<path d="M427.9709474909823,606.4259018901263 L527.9709474909823,606.4259018901263" id="d45" />
<path d="M427.9709474909823,596.4259018901264 L527.9709474909823,596.4259018901264" id="d46" />
<path d="M427.9709474909823,586.4259018901264 L527.9709474909823,586.4259018901264" id="d47" />
<path d="M427.9709474909824,576.4259018901263 L527.9709474909823,576.4259018901263" id="d48" />
<path d="M427.97094749098227,566.4259018901262 L527.9709474909823,566.4259018901262" id="d49" />
<path d="M427.9709474909823,556.4259018901263 L527.9709474909823,556.4259018901263" id="d50" />
<path d="M427.9709474909823,546.4259018901263 L527.9709474909823,546.4259018901263" id="d51" />
<path d="M427.9709474909823,536.4259018901263 L527.9709474909823,536.4259018901263" id="d52" />
<path d="M427.9709474909823,526.4259018901263 L527.9709474909823,526.4259018901263" id="d53" />
<path d="M427.9709474909823,516.4259018901263 L527.9709474909823,516.4259018901263" id="d54" />
<path d="M427.9709474909823,506.4259018901263 L527.9709474909823,506.4259018901263" id="d55" />
<path d="M427.9709474909823,496.4259018901262 L527.9709474909823,496.4259018901262" id="d56" />
<path d="M427.97094749098227,486.4259018901262 L527.9709474909823,486.4259018901262" id="d57" />
<path d="M427.9709474909823,476.4259018901263 L527.9709474909823,476.4259018901263" id="d58" />
<path d="M427.9709474909823,466.4259018901263 L527.9709474909823,466.4259018901263" id="d59" />
<path d="M427.9709474909823,456.4259018901263 L527.9709474909823,456.4259018901263" id="d60" />
<path d="M427.9709474909823,446.4259018901263 L527.9709474909823,446.4259018901263" id="d61" />
<path d="M427.9709474909823,436.4259018901263 L527.9709474909823,436.4259018901263" id="d62" />
<path d="M427.9709474909823,426.4259018901263 L527.9709474909823,426.4259018901263" id="d63" />
<path d="M427.9709474909823,416.42590189012634 L527.9709474909823,416.42590189012634" id="d64" />
<path d="M427.9709474909823,406.4259018901263 L527.9709474909823,406.4259018901263" id="d65" />
<path d="M427.9709474909824,396.4259018901263 L527.9709474909823,396.4259018901263" id="d66" />
<path d="M427.9709474909823,386.42590189012634 L527.9709474909823,386.42590189012634" id="d67" />
<path d="M427.9709474909823,376.42590189012634 L527.9709474909823,376.42590189012634" id="d68" />
<path d="M427.9709474909823,366.4259018901263 L527.9709474909823,366.4259018901263" id="d69" />
<path d="M427.9709474909823,356.4259018901263 L527.9709474909823,356.4259018901263" id="d70" />
<path d="M427.9709474909823,346.4259018901263 L527.9709474909823,346.4259018901263" id="d71" />
<path d="M427.9709474909823,336.4259018901263 L527.9709474909823,336.4259018901263" id="d72" />
<path d="M427.9709474909823,326.4259018901262 L527.9709474909823,326.4259018901262" id="d73" />
<path d="M427.9709474909823,316.4259018901263 L527.9709474909823,316.4259018901263" id="d74" />
<path d="M427.9709474909823,306.4259018901262 L527.9709474909823,306.4259018901262" id="d75" />
<path d="M427.9709474909823,296.4259018901262 L527.9709474909823,296.4259018901262" id="d76" />
<path d="M427.9709474909823,286.4259018901263 L527.9709474909823,286.4259018901263" id="d77" />
<path d="M427.9709474909823,276.4259018901263 L527.9709474909823,276.4259018901263" id="d78" />
<path d="M427.9709474909823,266.4259018901263 L527.9709474909823,266.4259018901263" id="d79" />
<path d="M427.9709474909823,256.4259018901263 L527.9709474909823,256.4259018901263" id="d80" />
<path d="M427.9709474909823,246.42590189012628 L527.9709474909823,246.42590189012628" id="d81" />
<path d="M427.9709474909823,236.42590189012628 L527.9709474909823,236.42590189012628" id="d82" />
<path d="M427.9709474909823,226.42590189012634 L527.9709474909823,226.42590189012634" id="d83" />
<path d="M427.9709474909823,216.4259018901263 L527.9709474909823,216.4259018901263" id="d84" />
<path d="M427.9709474909823,206.42590189012623 L527.9709474909823,206.42590189012623" id="d85" />
<path d="M427.9709474909823,196.42590189012626 L527.9709474909823,196.42590189012626" id="d86" />
<path d="M427.9709474909823,186.42590189012628 L527.9709474909823,186.42590189012628" id="d87" />
<path d="M427.9709474909823,176.42590189012628 L527.9709474909823,176.42590189012628" id="d88" />
<path d="M427.9709474909823,166.42590189012628 L527.9709474909823,166.42590189012628" id="d89" />
<path d="M427.9709474909823,156.42590189012628 L527.9709474909823,156.42590189012628" id="d90" />
<path d="M427.9709474909823,146.4259018901263 L527.9709474909823,146.4259018901263" id="d91" />
<path d="M427.9709474909823,136.42590189012628 L527.9709474909823,136.42590189012628" id="d92" />
<path d="M427.9709474909823,126.42590189012633 L527.9709474909823,126.42590189012633" id="d93" />
<path d="M427.9709474909823,116.42590189012624 L527.9709474909823,116.42590189012624" id="d94" />
<path d="M427.9709474909823,106.42590189012626 L527.9709474909823,106.42590189012626" id="d95" />
<path d="M427.9709474909823,96.42590189012628 L527.9709474909823,96.42590189012628" id="d96" />
<path d="M427.9709474909823,86.42590189012627 L527.9709474909823,86.42590189012627" id="d97" />
<path d="M427.9709474909823,76.42590189012628 L527.9709474909823,76.42590189012628" id="d98" />
<path d="M427.9709474909823,66.4259018901263 L527.9709474909823,66.4259018901263" id="d99" />
<path d="M427.9709474909823,56.4259018901263 L527.9709474909823,56.4259018901263" id="d100" />
<path d="M427.9709474909823,46.42590189012631 L527.9709474909823,46.42590189012631" id="d101" />
<path d="M427.9709474909823,36.42590189012631 L527.9709474909823,36.42590189012631" id="d102" />
<path d="M427.9709474909823,26.425901890126255 L527.9709474909823,26.425901890126255" id="d103" />
<path d="M427.9709474909823,16.425901890126255 L527.9709474909823,16.425901890126255" id="d104" />
<path d="M427.9709474909823,6.425901890126255 L527.9709474909823,6.425901890126255" id="d105" />
<path d="M427.9709474909823,-3.5740981098737308 L527.9709474909823,-3.5740981098737308" id="d106" />
<path d="M427.9709474909823,-13.574098109873717 L527.9709474909823,-13.574098109873717" id="d107" />
<path d="M427.9709474909823,-23.574098109873702 L527.9709474909823,-23.574098109873702" id="d108" />
<path d="M427.9709474909823,-33.5740981098737 L527.9709474909823,-33.5740981098737" id="d109" />
<path d="M427.9709474909823,-43.574098109873695 L527.9709474909823,-43.574098109873695" id="d110" />
<path d="M427.9709474909823,-53.57409810987368 L527.9709474909823,-53.57409810987368" id="d111" />
<path d="M427.9709474909823,-63.57409810987376 L527.9709474909823,-63.57409810987376" id="d112" />
<path d="M427.9709474909823,-73.57409810987374 L527.9709474909823,-73.57409810987374" id="d113" />
<path d="M427.9709474909823,-83.57409810987374 L527.9709474909823,-83.57409810987374" id="d114" />
<path d="M427.9709474909823,-93.57409810987373 L527.9709474909823,-93.57409810987373" id="d115" />
</defs>
<g>
<g>
<circle cx="77.29383206010851" cy="238.21295094506314" r="1" fill="black" />
</g>
<g>
<circle cx="76.80932616555037" cy="223.0586003641165" r="1" fill="black" />
</g>
<g>
<circle cx="75.46347645844443" cy="209.09491492458326" r="1" fill="black" />
</g>
<g>
<circle cx="73.4177849036434" cy="196.20252302879192" r="1" fill="black" />
</g>
<g>
<circle cx="70.83375346599999" cy="184.26205307907094" r="1" fill="black" />
</g>
<g>
<circle cx="67.87288411036691" cy="173.15413347774876" r="1" fill="black" />
</g>
<g>
<circle cx="64.69667880159689" cy="162.75939262715394" r="1" fill="black" />
</g>
<g>
<circle cx="61.466639504542634" cy="152.9584589296149" r="1" fill="black" />
</g>
<g>
<circle cx="58.344268184056844" cy="143.63196078746012" r="1" fill="black" />
</g>
<g>
<circle cx="55.49106680499224" cy="134.66052660301807" r="1" fill="black" />
</g>
<g>
<circle cx="53.068537332201544" cy="125.92478477861727" r="1" fill="black" />
</g>
<g>
<circle cx="51.23818173053746" cy="117.30536371658613" r="1" fill="black" />
</g>
<g>
<circle cx="50.161501964852704" cy="108.68289181925317" r="1" fill="black" />
</g>
<g>
<circle cx="50.0" cy="99.93799748894685" r="1" fill="black" />
</g>
<g>
<circle cx="50.91517780083204" cy="90.95130912799567" r="1" fill="black" />
</g>
<g>
<circle cx="53.068537332201544" cy="81.60345513872807" r="1" fill="black" />
</g>
<g>
<circle cx="56.62158055896123" cy="71.77506392347254" r="1" fill="black" />
</g>
<g>
<circle cx="61.73580944596382" cy="61.34676388455756" r="1" fill="black" />
</g>
<g>
<circle cx="68.572725958062" cy="50.19918342431163" r="1" fill="black" />
</g>
<g>
<circle cx="77.29383206010851" cy="38.21295094506314" r="1" fill="black" />
</g>
<g>
<circle cx="87.14980146075109" cy="25.959367277394534" r="1" fill="black" />
</g>
<g>
<circle cx="96.72707903437689" cy="14.846890522984609" r="1" fill="black" />
</g>
<g>
<circle cx="106.08798973847573" cy="4.862815632832763" r="1" fill="black" />
</g>
<g>
<circle cx="115.29485853053748" cy="-4.005562442061574" r="1" fill="black" />
</g>
<g>
<circle cx="124.41001036805199" cy="-11.770948750698892" r="1" fill="black" />
</g>
<g>
<circle cx="133.4957702085091" cy="-18.44604834207962" r="1" fill="black" />
</g>
<g>
<circle cx="142.61446300939863" cy="-24.043566265204504" r="1" fill="black" />
</g>
<g>
<circle cx="151.82841372821048" cy="-28.57620756907403" r="1" fill="black" />
</g>
<g>
<circle cx="161.19994732243447" cy="-32.05667730268868" r="1" fill="black" />
</g>
<g>
<circle cx="170.79138874956044" cy="-34.497680515048955" r="1" fill="black" />
</g>
<g>
<circle cx="180.66506296707826" cy="-35.9119222551555" r="1" fill="black" />
</g>
<g>
<circle cx="190.88329493247772" cy="-36.31210757200881" r="1" fill="black" />
</g>
<g>
<circle cx="201.50840960324877" cy="-35.71094151460943" r="1" fill="black" />
</g>
<g>
<circle cx="212.60273193688116" cy="-34.1211291319579" r="1" fill="black" />
</g>
<g>
<circle cx="224.2285868908648" cy="-31.555375473054767" r="1" fill="black" />
</g>
<g>
<circle cx="236.44829942268947" cy="-28.026385586900517" r="1" fill="black" />
</g>
<g>
<circle cx="249.32419448984513" cy="-23.54686452249581" r="1" fill="black" />
</g>
<g>
<circle cx="262.9185970498215" cy="-18.12951732884102" r="1" fill="black" />
</g>
<g>
<circle cx="277.2938320601085" cy="-11.787049054936858" r="1" fill="black" />
</g>
<g>
<circle cx="284.452932511419" cy="-7.643755788546031" r="1" fill="black" />
</g>
<g>
<circle cx="290.0201946275604" cy="-2.673073662254268" r="1" fill="black" />
</g>
<g>
<circle cx="294.18775612446575" cy="3.000945655100111" r="1" fill="black" />
</g>
<g>
<circle cx="297.1477547180679" cy="9.254250494678303" r="1" fill="black" />
</g>
<g>
<circle cx="299.0923281242999" cy="15.962789187642045" r="1" fill="black" />
</g>
<g>
<circle cx="300.2136140590944" cy="23.002510065152904" r="1" fill="black" />
</g>
<g>
<circle cx="300.7037502383847" cy="30.249361458372277" r="1" fill="black" />
</g>
<g>
<circle cx="300.7548743781034" cy="37.579291698461645" r="1" fill="black" />
</g>
<g>
<circle cx="300.5591241941836" cy="44.86824911658263" r="1" fill="black" />
</g>
<g>
<circle cx="300.30863740255813" cy="51.99218204389675" r="1" fill="black" />
</g>
<g>
<circle cx="300.19555171916" cy="58.827038811565444" r="1" fill="black" />
</g>
<g>
<circle cx="300.4120048599221" cy="65.24876775075029" r="1" fill="black" />
</g>
<g>
<circle cx="301.15013454077734" cy="71.13331719261276" r="1" fill="black" />
</g>
<g>
<circle cx="302.6020784776586" cy="76.35663546831441" r="1" fill="black" />
</g>
<g>
<circle cx="304.9599743864989" cy="80.79467090901676" r="1" fill="black" />
</g>
<g>
<circle cx="308.4159599832311" cy="84.32337184588124" r="1" fill="black" />
</g>
<g>
<circle cx="313.1621729837882" cy="86.81868661006948" r="1" fill="black" />
</g>
<g>
<circle cx="319.39075110410295" cy="88.15656353274295" r="1" fill="black" />
</g>
<g>
<circle cx="327.2938320601085" cy="88.21295094506314" r="1" fill="black" />
</g>
<g>
<circle cx="338.67304554990943" cy="86.80642673170979" r="1" fill="black" />
</g>
<g>
<circle cx="348.0315285167523" cy="84.390556624504" r="1" fill="black" />
</g>
<g>
<circle cx="355.55435821875835" cy="81.01624063160102" r="1" fill="black" />
</g>
<g>
<circle cx="361.4266119140492" cy="76.73437876115617" r="1" fill="black" />
</g>
<g>
<circle cx="365.83336686074614" cy="71.59587102132468" r="1" fill="black" />
</g>
<g>
<circle cx="368.9597003169703" cy="65.65161742026203" r="1" fill="black" />
</g>
<g>
<circle cx="370.9906895408434" cy="58.95251796612337" r="1" fill="black" />
</g>
<g>
<circle cx="372.1114117904867" cy="51.54947266706398" r="1" fill="black" />
</g>
<g>
<circle cx="372.50694432402156" cy="43.493381531239265" r="1" fill="black" />
</g>
<g>
<circle cx="372.3623643995693" cy="34.83514456680447" r="1" fill="black" />
</g>
<g>
<circle cx="371.86274927525136" cy="25.625661781914914" r="1" fill="black" />
</g>
<g>
<circle cx="371.1931762091892" cy="15.915833184725898" r="1" fill="black" />
</g>
<g>
<circle cx="370.53872245950396" cy="5.756558783392705" r="1" fill="black" />
</g>
<g>
<circle cx="370.0844652843172" cy="-4.801261413929296" r="1" fill="black" />
</g>
<g>
<circle cx="370.01548194175035" cy="-15.706727399084912" r="1" fill="black" />
</g>
<g>
<circle cx="370.5168496899246" cy="-26.908939163918717" r="1" fill="black" />
</g>
<g>
<circle cx="371.7736457869615" cy="-38.3569967002756" r="1" fill="black" />
</g>
<g>
<circle cx="373.9709474909823" cy="-50.0" r="1" fill="black" />
</g>
</g>
<g>
<g>
<circle cx="76.45372441147995" cy="576.4259018901263" r="1" fill="black" />
</g>
<g>
<circle cx="75.0253938890076" cy="551.4790238488745" r="1" fill="black" />
</g>
<g>
<circle cx="70.93721606710733" cy="526.8351182426736" r="1" fill="black" />
</g>
<g>
<circle cx="64.39016257595766" cy="502.7186238100718" r="1" fill="black" />
</g>
<g>
<circle cx="56.58910024123121" cy="478.96765138054747" r="1" fill="black" />
</g>
<g>
<circle cx="50.30786810040411" cy="454.7959099455155" r="1" fill="black" />
</g>
<g>
<circle cx="49.99999999999999" cy="429.9014196309595" r="1" fill="black" />
</g>
<g>
<circle cx="57.63761312272143" cy="406.2032043962711" r="1" fill="black" />
</g>
<g>
<circle cx="70.39394933797398" cy="384.7544180156156" r="1" fill="black" />
</g>
<g>
<circle cx="85.66712819900553" cy="364.9711976814161" r="1" fill="black" />
</g>
<g>
<circle cx="102.25113166541433" cy="346.27201335456164" r="1" fill="black" />
</g>
<g>
<circle cx="120.41907746969059" cy="329.12625536878596" r="1" fill="black" />
</g>
<g>
<circle cx="140.8257493338486" cy="314.75168735784325" r="1" fill="black" />
</g>
<g>
<circle cx="163.86944598416454" cy="305.26308565360387" r="1" fill="black" />
</g>
<g>
<circle cx="188.56810610171044" cy="301.95861323307093" r="1" fill="black" />
</g>
<g>
<circle cx="213.39731492809932" cy="304.45258783908463" r="1" fill="black" />
</g>
<g>
<circle cx="237.54373221430788" cy="310.85993945199243" r="1" fill="black" />
</g>
<g>
<circle cx="260.94741176556465" cy="319.63270102770684" r="1" fill="black" />
</g>
<g>
<circle cx="283.43849041915684" cy="330.4682999768336" r="1" fill="black" />
</g>
<g>
<circle cx="297.24771115073486" cy="350.7103067105558" r="1" fill="black" />
</g>
<g>
<circle cx="299.91246470966684" cy="375.46219025150845" r="1" fill="black" />
</g>
<g>
<circle cx="299.47045992223894" cy="400.45227853550534" r="1" fill="black" />
</g>
<g>
<circle cx="308.17076144419036" cy="422.84909541289164" r="1" fill="black" />
</g>
<g>
<circle cx="332.44413490179943" cy="425.6854590282262" r="1" fill="black" />
</g>
<g>
<circle cx="356.0555190210581" cy="418.2511809974097" r="1" fill="black" />
</g>
<g>
<circle cx="369.8333527665171" cy="398.21183067313905" r="1" fill="black" />
</g>
<g>
<circle cx="371.5273662529278" cy="373.3540804481729" r="1" fill="black" />
</g>
<g>
<circle cx="369.98419112587635" cy="348.4025932702825" r="1" fill="black" />
</g>
<g>
<circle cx="369.18116552285426" cy="323.42174976593105" r="1" fill="black" />
</g>
<g>
<circle cx="371.1846720481582" cy="298.5252526231501" r="1" fill="black" />
</g>
<g>
<circle cx="373.1308398423538" cy="288.21295094506314" r="1" fill="black" />
</g>
<text x="202.69747387485805" y="388.4215736023445" font-size="12" stroke="none" fill="black" text-anchor="middle" dy="0em">Re-sampled</text>
</g>
<g>
<g>
<path d="M-7.105427357601002e-15,626.4259018901263 L423.9709474909823,626.4259018901263" fill="none" stroke="#999999" />
</g>
<path d="M-7.105427357601002e-15,626.4259018901263 L-7.105427357601002e-15,629.4259018901263" stroke="#999999" />
<text font-size="6" stroke="none" fill="#999999"><textPath xlink:href="#d0">
<tspan dy="0em">0mm</tspan>
</textPath></text>
<path d="M9.999999999999993,626.4259018901263 L9.999999999999993,629.4259018901263" stroke="#999999" />
<text font-size="6" stroke="none" fill="#999999"><textPath xlink:href="#d1">
<tspan dy="0em">10mm</tspan>
</textPath></text>
<path d="M19.999999999999993,626.4259018901264 L19.999999999999993,629.4259018901264" stroke="#999999" />
<text font-size="6" stroke="none" fill="#999999"><textPath xlink:href="#d2">
<tspan dy="0em">20mm</tspan>
</textPath></text>
<path d="M29.99999999999999,626.4259018901263 L29.99999999999999,629.4259018901263" stroke="#999999" />
<text font-size="6" stroke="none" fill="#999999"><textPath xlink:href="#d3">
<tspan dy="0em">30mm</tspan>
</textPath></text>
<path d="M39.99999999999999,626.4259018901263 L39.99999999999999,629.4259018901263" stroke="#999999" />
<text font-size="6" stroke="none" fill="#999999"><textPath xlink:href="#d4">
<tspan dy="0em">40mm</tspan>
</textPath></text>
<path d="M49.99999999999999,626.4259018901262 L49.99999999999999,629.4259018901262" stroke="#999999" />
<text font-size="6" stroke="none" fill="#999999"><textPath xlink:href="#d5">
<tspan dy="0em">50mm</tspan>
</textPath></text>
<path d="M59.999999999999986,626.4259018901264 L59.999999999999986,629.4259018901264" stroke="#999999" />
<text font-size="6" stroke="none" fill="#999999"><textPath xlink:href="#d6">
<tspan dy="0em">60mm</tspan>
</textPath></text>
<path d="M70.0,626.4259018901263 L70.0,629.4259018901263" stroke="#999999" />
<text font-size="6" stroke="none" fill="#999999"><textPath xlink:href="#d7">
<tspan dy="0em">70mm</tspan>
</textPath></text>
<path d="M80.0,626.4259018901263 L80.0,629.4259018901263" stroke="#999999" />
<text font-size="6" stroke="none" fill="#999999"><textPath xlink:href="#d8">
<tspan dy="0em">80mm</tspan>
</textPath></text>
<path d="M90.0,626.4259018901263 L90.0,629.4259018901263" stroke="#999999" />
<text font-size="6" stroke="none" fill="#999999"><textPath xlink:href="#d9">
<tspan dy="0em">90mm</tspan>
</textPath></text>
<path d="M100.0,626.4259018901263 L100.0,629.4259018901263" stroke="#999999" />
<text font-size="6" stroke="none" fill="#999999"><textPath xlink:href="#d10">
<tspan dy="0em">100mm</tspan>
</textPath></text>
<path d="M110.0,626.4259018901263 L110.0,629.4259018901263" stroke="#999999" />
<text font-size="6" stroke="none" fill="#999999"><textPath xlink:href="#d11">
<tspan dy="0em">110mm</tspan>
</textPath></text>
<path d="M119.99999999999999,626.4259018901263 L119.99999999999999,629.4259018901263" stroke="#999999" />
<text font-size="6" stroke="none" fill="#999999"><textPath xlink:href="#d12">
<tspan dy="0em">120mm</tspan>
</textPath></text>
<path d="M130.0,626.4259018901264 L130.0,629.4259018901264" stroke="#999999" />
<text font-size="6" stroke="none" fill="#999999"><textPath xlink:href="#d13">
<tspan dy="0em">130mm</tspan>
</textPath></text>
<path d="M140.0,626.4259018901263 L140.0,629.4259018901263" stroke="#999999" />
<text font-size="6" stroke="none" fill="#999999"><textPath xlink:href="#d14">
<tspan dy="0em">140mm</tspan>
</textPath></text>
<path d="M150.0,626.4259018901263 L150.0,629.4259018901263" stroke="#999999" />
<text font-size="6" stroke="none" fill="#999999"><textPath xlink:href="#d15">
<tspan dy="0em">150mm</tspan>
</textPath></text>
<path d="M160.0,626.4259018901263 L160.0,629.4259018901263" stroke="#999999" />
<text font-size="6" stroke="none" fill="#999999"><textPath xlink:href="#d16">
<tspan dy="0em">160mm</tspan>
</textPath></text>
<path d="M170.0,626.4259018901263 L170.0,629.4259018901263" stroke="#999999" />
<text font-size="6" stroke="none" fill="#999999"><textPath xlink:href="#d17">
<tspan dy="0em">170mm</tspan>
</textPath></text>
<path d="M180.0,626.4259018901263 L180.0,629.4259018901263" stroke="#999999" />
<text font-size="6" stroke="none" fill="#999999"><textPath xlink:href="#d18">
<tspan dy="0em">180mm</tspan>
</textPath></text>
<path d="M190.0,626.4259018901263 L190.0,629.4259018901263" stroke="#999999" />
<text font-size="6" stroke="none" fill="#999999"><textPath xlink:href="#d19">
<tspan dy="0em">190mm</tspan>
</textPath></text>
<path d="M200.0,626.4259018901264 L200.0,629.4259018901264" stroke="#999999" />
<text font-size="6" stroke="none" fill="#999999"><textPath xlink:href="#d20">
<tspan dy="0em">200mm</tspan>
</textPath></text>
<path d="M210.0,626.4259018901263 L210.0,629.4259018901263" stroke="#999999" />
<text font-size="6" stroke="none" fill="#999999"><textPath xlink:href="#d21">
<tspan dy="0em">210mm</tspan>
</textPath></text>
<path d="M220.0,626.4259018901263 L220.0,629.4259018901263" stroke="#999999" />
<text font-size="6" stroke="none" fill="#999999"><textPath xlink:href="#d22">
<tspan dy="0em">220mm</tspan>
</textPath></text>
<path d="M230.00000000000003,626.4259018901263 L230.00000000000003,629.4259018901263" stroke="#999999" />
<text font-size="6" stroke="none" fill="#999999"><textPath xlink:href="#d23">
<tspan dy="0em">230mm</tspan>
</textPath></text>
<path d="M239.99999999999997,626.4259018901263 L239.99999999999997,629.4259018901263" stroke="#999999" />
<text font-size="6" stroke="none" fill="#999999"><textPath xlink:href="#d24">
<tspan dy="0em">240mm</tspan>
</textPath></text>
<path d="M250.0,626.4259018901263 L250.0,629.4259018901263" stroke="#999999" />
<text font-size="6" stroke="none" fill="#999999"><textPath xlink:href="#d25">
<tspan dy="0em">250mm</tspan>
</textPath></text>
<path d="M260.0,626.4259018901263 L260.0,629.4259018901263" stroke="#999999" />
<text font-size="6" stroke="none" fill="#999999"><textPath xlink:href="#d26">
<tspan dy="0em">260mm</tspan>
</textPath></text>
<path d="M270.0,626.4259018901263 L270.0,629.4259018901263" stroke="#999999" />
<text font-size="6" stroke="none" fill="#999999"><textPath xlink:href="#d27">
<tspan dy="0em">270mm</tspan>
</textPath></text>
<path d="M280.0,626.4259018901263 L280.0,629.4259018901263" stroke="#999999" />
<text font-size="6" stroke="none" fill="#999999"><textPath xlink:href="#d28">
<tspan dy="0em">280mm</tspan>
</textPath></text>
<path d="M290.0,626.4259018901263 L290.0,629.4259018901263" stroke="#999999" />
<text font-size="6" stroke="none" fill="#999999"><textPath xlink:href="#d29">
<tspan dy="0em">290mm</tspan>
</textPath></text>
<path d="M300.0,626.4259018901263 L300.0,629.4259018901263" stroke="#999999" />
<text font-size="6" stroke="none" fill="#999999"><textPath xlink:href="#d30">
<tspan dy="0em">300mm</tspan>
</textPath></text>
<path d="M310.0,626.4259018901263 L310.0,629.4259018901263" stroke="#999999" />
<text font-size="6" stroke="none" fill="#999999"><textPath xlink:href="#d31">
<tspan dy="0em">310mm</tspan>
</textPath></text>
<path d="M320.0,626.4259018901263 L320.0,629.4259018901263" stroke="#999999" />
<text font-size="6" stroke="none" fill="#999999"><textPath xlink:href="#d32">
<tspan dy="0em">320mm</tspan>
</textPath></text>
<path d="M330.0,626.4259018901263 L330.0,629.4259018901263" stroke="#999999" />
<text font-size="6" stroke="none" fill="#999999"><textPath xlink:href="#d33">
<tspan dy="0em">330mm</tspan>
</textPath></text>
<path d="M340.0,626.4259018901263 L340.0,629.4259018901263" stroke="#999999" />
<text font-size="6" stroke="none" fill="#999999"><textPath xlink:href="#d34">
<tspan dy="0em">340mm</tspan>
</textPath></text>
<path d="M350.0,626.4259018901263 L350.0,629.4259018901263" stroke="#999999" />
<text font-size="6" stroke="none" fill="#999999"><textPath xlink:href="#d35">
<tspan dy="0em">350mm</tspan>
</textPath></text>
<path d="M360.0,626.4259018901264 L360.0,629.4259018901264" stroke="#999999" />
<text font-size="6" stroke="none" fill="#999999"><textPath xlink:href="#d36">
<tspan dy="0em">360mm</tspan>
</textPath></text>
<path d="M370.0,626.4259018901263 L370.0,629.4259018901263" stroke="#999999" />
<text font-size="6" stroke="none" fill="#999999"><textPath xlink:href="#d37">
<tspan dy="0em">370mm</tspan>
</textPath></text>
<path d="M380.0,626.4259018901263 L380.0,629.4259018901263" stroke="#999999" />
<text font-size="6" stroke="none" fill="#999999"><textPath xlink:href="#d38">
<tspan dy="0em">380mm</tspan>
</textPath></text>
<path d="M390.0,626.4259018901263 L390.0,629.4259018901263" stroke="#999999" />
<text font-size="6" stroke="none" fill="#999999"><textPath xlink:href="#d39">
<tspan dy="0em">390mm</tspan>
</textPath></text>
<path d="M400.0,626.4259018901263 L400.0,629.4259018901263" stroke="#999999" />
<text font-size="6" stroke="none" fill="#999999"><textPath xlink:href="#d40">
<tspan dy="0em">400mm</tspan>
</textPath></text>
<path d="M410.0,626.4259018901263 L410.0,629.4259018901263" stroke="#999999" />
<text font-size="6" stroke="none" fill="#999999"><textPath xlink:href="#d41">
<tspan dy="0em">410mm</tspan>
</textPath></text>
<path d="M420.0,626.4259018901263 L420.0,629.4259018901263" stroke="#999999" />
<text font-size="6" stroke="none" fill="#999999"><textPath xlink:href="#d42">
<tspan dy="0em">420mm</tspan>
</textPath></text>
</g>
<g>
<g>
<path d="M423.9709474909823,626.4259018901263 L423.9709474909823,-100.0" fill="none" stroke="#999999" />
</g>
<path d="M423.9709474909823,626.4259018901263 L426.9709474909823,626.4259018901263" stroke="#999999" />
<text font-size="6" stroke="none" fill="#999999"><textPath xlink:href="#d43">
<tspan dy="0em">0mm</tspan>
</textPath></text>
<path d="M423.9709474909823,616.4259018901263 L426.9709474909823,616.4259018901263" stroke="#999999" />
<text font-size="6" stroke="none" fill="#999999"><textPath xlink:href="#d44">
<tspan dy="0em">10mm</tspan>
</textPath></text>
<path d="M423.9709474909823,606.4259018901263 L426.9709474909823,606.4259018901263" stroke="#999999" />
<text font-size="6" stroke="none" fill="#999999"><textPath xlink:href="#d45">
<tspan dy="0em">20mm</tspan>
</textPath></text>
<path d="M423.9709474909823,596.4259018901264 L426.9709474909823,596.4259018901264" stroke="#999999" />
<text font-size="6" stroke="none" fill="#999999"><textPath xlink:href="#d46">
<tspan dy="0em">30mm</tspan>
</textPath></text>
<path d="M423.9709474909823,586.4259018901264 L426.9709474909823,586.4259018901264" stroke="#999999" />
<text font-size="6" stroke="none" fill="#999999"><textPath xlink:href="#d47">
<tspan dy="0em">40mm</tspan>
</textPath></text>
<path d="M423.9709474909824,576.4259018901263 L426.9709474909824,576.4259018901263" stroke="#999999" />
<text font-size="6" stroke="none" fill="#999999"><textPath xlink:href="#d48">
<tspan dy="0em">50mm</tspan>
</textPath></text>
<path d="M423.97094749098227,566.4259018901262 L426.97094749098227,566.4259018901262" stroke="#999999" />
<text font-size="6" stroke="none" fill="#999999"><textPath xlink:href="#d49">
<tspan dy="0em">60mm</tspan>
</textPath></text>
<path d="M423.9709474909823,556.4259018901263 L426.9709474909823,556.4259018901263" stroke="#999999" />
<text font-size="6" stroke="none" fill="#999999"><textPath xlink:href="#d50">
<tspan dy="0em">70mm</tspan>
</textPath></text>
<path d="M423.9709474909823,546.4259018901263 L426.9709474909823,546.4259018901263" stroke="#999999" />
<text font-size="6" stroke="none" fill="#999999"><textPath xlink:href="#d51">
<tspan dy="0em">80mm</tspan>
</textPath></text>
<path d="M423.9709474909823,536.4259018901263 L426.9709474909823,536.4259018901263" stroke="#999999" />
<text font-size="6" stroke="none" fill="#999999"><textPath xlink:href="#d52">
<tspan dy="0em">90mm</tspan>
</textPath></text>
<path d="M423.9709474909823,526.4259018901263 L426.9709474909823,526.4259018901263" stroke="#999999" />
<text font-size="6" stroke="none" fill="#999999"><textPath xlink:href="#d53">
<tspan dy="0em">100mm</tspan>
</textPath></text>
<path d="M423.9709474909823,516.4259018901263 L426.9709474909823,516.4259018901263" stroke="#999999" />
<text font-size="6" stroke="none" fill="#999999"><textPath xlink:href="#d54">
<tspan dy="0em">110mm</tspan>
</textPath></text>
<path d="M423.9709474909823,506.4259018901263 L426.9709474909823,506.4259018901263" stroke="#999999" />
<text font-size="6" stroke="none" fill="#999999"><textPath xlink:href="#d55">
<tspan dy="0em">120mm</tspan>
</textPath></text>
<path d="M423.9709474909823,496.4259018901262 L426.9709474909823,496.4259018901262" stroke="#999999" />
<text font-size="6" stroke="none" fill="#999999"><textPath xlink:href="#d56">
<tspan dy="0em">130mm</tspan>
</textPath></text>
<path d="M423.97094749098227,486.4259018901262 L426.97094749098227,486.4259018901262" stroke="#999999" />
<text font-size="6" stroke="none" fill="#999999"><textPath xlink:href="#d57">
<tspan dy="0em">140mm</tspan>
</textPath></text>
<path d="M423.9709474909823,476.4259018901263 L426.9709474909823,476.4259018901263" stroke="#999999" />
<text font-size="6" stroke="none" fill="#999999"><textPath xlink:href="#d58">
<tspan dy="0em">150mm</tspan>
</textPath></text>
<path d="M423.9709474909823,466.4259018901263 L426.9709474909823,466.4259018901263" stroke="#999999" />
<text font-size="6" stroke="none" fill="#999999"><textPath xlink:href="#d59">
<tspan dy="0em">160mm</tspan>
</textPath></text>
<path d="M423.9709474909823,456.4259018901263 L426.9709474909823,456.4259018901263" stroke="#999999" />
<text font-size="6" stroke="none" fill="#999999"><textPath xlink:href="#d60">
<tspan dy="0em">170mm</tspan>
</textPath></text>
<path d="M423.9709474909823,446.4259018901263 L426.9709474909823,446.4259018901263" stroke="#999999" />
<text font-size="6" stroke="none" fill="#999999"><textPath xlink:href="#d61">
<tspan dy="0em">180mm</tspan>
</textPath></text>
<path d="M423.9709474909823,436.4259018901263 L426.9709474909823,436.4259018901263" stroke="#999999" />
<text font-size="6" stroke="none" fill="#999999"><textPath xlink:href="#d62">
<tspan dy="0em">190mm</tspan>
</textPath></text>
<path d="M423.9709474909823,426.4259018901263 L426.9709474909823,426.4259018901263" stroke="#999999" />
<text font-size="6" stroke="none" fill="#999999"><textPath xlink:href="#d63">
<tspan dy="0em">200mm</tspan>
</textPath></text>
<path d="M423.9709474909823,416.42590189012634 L426.9709474909823,416.42590189012634" stroke="#999999" />
<text font-size="6" stroke="none" fill="#999999"><textPath xlink:href="#d64">
<tspan dy="0em">210mm</tspan>
</textPath></text>
<path d="M423.9709474909823,406.4259018901263 L426.9709474909823,406.4259018901263" stroke="#999999" />
<text font-size="6" stroke="none" fill="#999999"><textPath xlink:href="#d65">
<tspan dy="0em">220mm</tspan>
</textPath></text>
<path d="M423.9709474909824,396.4259018901263 L426.9709474909824,396.4259018901263" stroke="#999999" />
<text font-size="6" stroke="none" fill="#999999"><textPath xlink:href="#d66">
<tspan dy="0em">230mm</tspan>
</textPath></text>
<path d="M423.9709474909823,386.42590189012634 L426.9709474909823,386.42590189012634" stroke="#999999" />
<text font-size="6" stroke="none" fill="#999999"><textPath xlink:href="#d67">
<tspan dy="0em">240mm</tspan>
</textPath></text>
<path d="M423.9709474909823,376.42590189012634 L426.9709474909823,376.42590189012634" stroke="#999999" />
<text font-size="6" stroke="none" fill="#999999"><textPath xlink:href="#d68">
<tspan dy="0em">250mm</tspan>
</textPath></text>
<path d="M423.9709474909823,366.4259018901263 L426.9709474909823,366.4259018901263" stroke="#999999" />
<text font-size="6" stroke="none" fill="#999999"><textPath xlink:href="#d69">
<tspan dy="0em">260mm</tspan>
</textPath></text>
<path d="M423.9709474909823,356.4259018901263 L426.9709474909823,356.4259018901263" stroke="#999999" />
<text font-size="6" stroke="none" fill="#999999"><textPath xlink:href="#d70">
<tspan dy="0em">270mm</tspan>
</textPath></text>
<path d="M423.9709474909823,346.4259018901263 L426.9709474909823,346.4259018901263" stroke="#999999" />
<text font-size="6" stroke="none" fill="#999999"><textPath xlink:href="#d71">
<tspan dy="0em">280mm</tspan>
</textPath></text>
<path d="M423.9709474909823,336.4259018901263 L426.9709474909823,336.4259018901263" stroke="#999999" />
<text font-size="6" stroke="none" fill="#999999"><textPath xlink:href="#d72">
<tspan dy="0em">290mm</tspan>
</textPath></text>
<path d="M423.9709474909823,326.4259018901262 L426.9709474909823,326.4259018901262" stroke="#999999" />
<text font-size="6" stroke="none" fill="#999999"><textPath xlink:href="#d73">
<tspan dy="0em">300mm</tspan>
</textPath></text>
<path d="M423.9709474909823,316.4259018901263 L426.9709474909823,316.4259018901263" stroke="#999999" />
<text font-size="6" stroke="none" fill="#999999"><textPath xlink:href="#d74">
<tspan dy="0em">310mm</tspan>
</textPath></text>
<path d="M423.9709474909823,306.4259018901262 L426.9709474909823,306.4259018901262" stroke="#999999" />
<text font-size="6" stroke="none" fill="#999999"><textPath xlink:href="#d75">
<tspan dy="0em">320mm</tspan>
</textPath></text>
<path d="M423.9709474909823,296.4259018901262 L426.9709474909823,296.4259018901262" stroke="#999999" />
<text font-size="6" stroke="none" fill="#999999"><textPath xlink:href="#d76">
<tspan dy="0em">330mm</tspan>
</textPath></text>
<path d="M423.9709474909823,286.4259018901263 L426.9709474909823,286.4259018901263" stroke="#999999" />
<text font-size="6" stroke="none" fill="#999999"><textPath xlink:href="#d77">
<tspan dy="0em">340mm</tspan>
</textPath></text>
<path d="M423.9709474909823,276.4259018901263 L426.9709474909823,276.4259018901263" stroke="#999999" />
<text font-size="6" stroke="none" fill="#999999"><textPath xlink:href="#d78">
<tspan dy="0em">350mm</tspan>
</textPath></text>
<path d="M423.9709474909823,266.4259018901263 L426.9709474909823,266.4259018901263" stroke="#999999" />
<text font-size="6" stroke="none" fill="#999999"><textPath xlink:href="#d79">
<tspan dy="0em">360mm</tspan>
</textPath></text>
<path d="M423.9709474909823,256.4259018901263 L426.9709474909823,256.4259018901263" stroke="#999999" />
<text font-size="6" stroke="none" fill="#999999"><textPath xlink:href="#d80">
<tspan dy="0em">370mm</tspan>
</textPath></text>
<path d="M423.9709474909823,246.42590189012628 L426.9709474909823,246.42590189012628" stroke="#999999" />
<text font-size="6" stroke="none" fill="#999999"><textPath xlink:href="#d81">
<tspan dy="0em">380mm</tspan>
</textPath></text>
<path d="M423.9709474909823,236.42590189012628 L426.9709474909823,236.42590189012628" stroke="#999999" />
<text font-size="6" stroke="none" fill="#999999"><textPath xlink:href="#d82">
<tspan dy="0em">390mm</tspan>
</textPath></text>
<path d="M423.9709474909823,226.42590189012634 L426.9709474909823,226.42590189012634" stroke="#999999" />
<text font-size="6" stroke="none" fill="#999999"><textPath xlink:href="#d83">
<tspan dy="0em">400mm</tspan>
</textPath></text>
<path d="M423.9709474909823,216.4259018901263 L426.9709474909823,216.4259018901263" stroke="#999999" />
<text font-size="6" stroke="none" fill="#999999"><textPath xlink:href="#d84">
<tspan dy="0em">410mm</tspan>
</textPath></text>
<path d="M423.9709474909823,206.42590189012623 L426.9709474909823,206.42590189012623" stroke="#999999" />
<text font-size="6" stroke="none" fill="#999999"><textPath xlink:href="#d85">
<tspan dy="0em">420mm</tspan>
</textPath></text>
<path d="M423.9709474909823,196.42590189012626 L426.9709474909823,196.42590189012626" stroke="#999999" />
<text font-size="6" stroke="none" fill="#999999"><textPath xlink:href="#d86">
<tspan dy="0em">430mm</tspan>
</textPath></text>
<path d="M423.9709474909823,186.42590189012628 L426.9709474909823,186.42590189012628" stroke="#999999" />
<text font-size="6" stroke="none" fill="#999999"><textPath xlink:href="#d87">
<tspan dy="0em">440mm</tspan>
</textPath></text>
<path d="M423.9709474909823,176.42590189012628 L426.9709474909823,176.42590189012628" stroke="#999999" />
<text font-size="6" stroke="none" fill="#999999"><textPath xlink:href="#d88">
<tspan dy="0em">450mm</tspan>
</textPath></text>
<path d="M423.9709474909823,166.42590189012628 L426.9709474909823,166.42590189012628" stroke="#999999" />
<text font-size="6" stroke="none" fill="#999999"><textPath xlink:href="#d89">
<tspan dy="0em">460mm</tspan>
</textPath></text>
<path d="M423.9709474909823,156.42590189012628 L426.9709474909823,156.42590189012628" stroke="#999999" />
<text font-size="6" stroke="none" fill="#999999"><textPath xlink:href="#d90">
<tspan dy="0em">470mm</tspan>
</textPath></text>
<path d="M423.9709474909823,146.4259018901263 L426.9709474909823,146.4259018901263" stroke="#999999" />
<text font-size="6" stroke="none" fill="#999999"><textPath xlink:href="#d91">
<tspan dy="0em">480mm</tspan>
</textPath></text>
<path d="M423.9709474909823,136.42590189012628 L426.9709474909823,136.42590189012628" stroke="#999999" />
<text font-size="6" stroke="none" fill="#999999"><textPath xlink:href="#d92">
<tspan dy="0em">490mm</tspan>
</textPath></text>
<path d="M423.9709474909823,126.42590189012633 L426.9709474909823,126.42590189012633" stroke="#999999" />
<text font-size="6" stroke="none" fill="#999999"><textPath xlink:href="#d93">
<tspan dy="0em">500mm</tspan>
</textPath></text>
<path d="M423.9709474909823,116.42590189012624 L426.9709474909823,116.42590189012624" stroke="#999999" />
<text font-size="6" stroke="none" fill="#999999"><textPath xlink:href="#d94">
<tspan dy="0em">510mm</tspan>
</textPath></text>
<path d="M423.9709474909823,106.42590189012626 L426.9709474909823,106.42590189012626" stroke="#999999" />
<text font-size="6" stroke="none" fill="#999999"><textPath xlink:href="#d95">
<tspan dy="0em">520mm</tspan>
</textPath></text>
<path d="M423.9709474909823,96.42590189012628 L426.9709474909823,96.42590189012628" stroke="#999999" />
<text font-size="6" stroke="none" fill="#999999"><textPath xlink:href="#d96">
<tspan dy="0em">530mm</tspan>
</textPath></text>
<path d="M423.9709474909823,86.42590189012627 L426.9709474909823,86.42590189012627" stroke="#999999" />
<text font-size="6" stroke="none" fill="#999999"><textPath xlink:href="#d97">
<tspan dy="0em">540mm</tspan>
</textPath></text>
<path d="M423.9709474909823,76.42590189012628 L426.9709474909823,76.42590189012628" stroke="#999999" />
<text font-size="6" stroke="none" fill="#999999"><textPath xlink:href="#d98">
<tspan dy="0em">550mm</tspan>
</textPath></text>
<path d="M423.9709474909823,66.4259018901263 L426.9709474909823,66.4259018901263" stroke="#999999" />
<text font-size="6" stroke="none" fill="#999999"><textPath xlink:href="#d99">
<tspan dy="0em">560mm</tspan>
</textPath></text>
<path d="M423.9709474909823,56.4259018901263 L426.9709474909823,56.4259018901263" stroke="#999999" />
<text font-size="6" stroke="none" fill="#999999"><textPath xlink:href="#d100">
<tspan dy="0em">570mm</tspan>
</textPath></text>
<path d="M423.9709474909823,46.42590189012631 L426.9709474909823,46.42590189012631" stroke="#999999" />
<text font-size="6" stroke="none" fill="#999999"><textPath xlink:href="#d101">
<tspan dy="0em">580mm</tspan>
</textPath></text>
<path d="M423.9709474909823,36.42590189012631 L426.9709474909823,36.42590189012631" stroke="#999999" />
<text font-size="6" stroke="none" fill="#999999"><textPath xlink:href="#d102">
<tspan dy="0em">590mm</tspan>
</textPath></text>
<path d="M423.9709474909823,26.425901890126255 L426.9709474909823,26.425901890126255" stroke="#999999" />
<text font-size="6" stroke="none" fill="#999999"><textPath xlink:href="#d103">
<tspan dy="0em">600mm</tspan>
</textPath></text>
<path d="M423.9709474909823,16.425901890126255 L426.9709474909823,16.425901890126255" stroke="#999999" />
<text font-size="6" stroke="none" fill="#999999"><textPath xlink:href="#d104">
<tspan dy="0em">610mm</tspan>
</textPath></text>
<path d="M423.9709474909823,6.425901890126255 L426.9709474909823,6.425901890126255" stroke="#999999" />
<text font-size="6" stroke="none" fill="#999999"><textPath xlink:href="#d105">
<tspan dy="0em">620mm</tspan>
</textPath></text>
<path d="M423.9709474909823,-3.5740981098737308 L426.9709474909823,-3.5740981098737308" stroke="#999999" />
<text font-size="6" stroke="none" fill="#999999"><textPath xlink:href="#d106">
<tspan dy="0em">630mm</tspan>
</textPath></text>
<path d="M423.9709474909823,-13.574098109873717 L426.9709474909823,-13.574098109873717" stroke="#999999" />
<text font-size="6" stroke="none" fill="#999999"><textPath xlink:href="#d107">
<tspan dy="0em">640mm</tspan>
</textPath></text>
<path d="M423.9709474909823,-23.574098109873702 L426.9709474909823,-23.574098109873702" stroke="#999999" />
<text font-size="6" stroke="none" fill="#999999"><textPath xlink:href="#d108">
<tspan dy="0em">650mm</tspan>
</textPath></text>
<path d="M423.9709474909823,-33.5740981098737 L426.9709474909823,-33.5740981098737" stroke="#999999" />
<text font-size="6" stroke="none" fill="#999999"><textPath xlink:href="#d109">
<tspan dy="0em">660mm</tspan>
</textPath></text>
<path d="M423.9709474909823,-43.574098109873695 L426.9709474909823,-43.574098109873695" stroke="#999999" />
<text font-size="6" stroke="none" fill="#999999"><textPath xlink:href="#d110">
<tspan dy="0em">670mm</tspan>
</textPath></text>
<path d="M423.9709474909823,-53.57409810987368 L426.9709474909823,-53.57409810987368" stroke="#999999" />
<text font-size="6" stroke="none" fill="#999999"><textPath xlink:href="#d111">
<tspan dy="0em">680mm</tspan>
</textPath></text>
<path d="M423.9709474909823,-63.57409810987376 L426.9709474909823,-63.57409810987376" stroke="#999999" />
<text font-size="6" stroke="none" fill="#999999"><textPath xlink:href="#d112">
<tspan dy="0em">690mm</tspan>
</textPath></text>
<path d="M423.9709474909823,-73.57409810987374 L426.9709474909823,-73.57409810987374" stroke="#999999" />
<text font-size="6" stroke="none" fill="#999999"><textPath xlink:href="#d113">
<tspan dy="0em">700mm</tspan>
</textPath></text>
<path d="M423.9709474909823,-83.57409810987374 L426.9709474909823,-83.57409810987374" stroke="#999999" />
<text font-size="6" stroke="none" fill="#999999"><textPath xlink:href="#d114">
<tspan dy="0em">710mm</tspan>
</textPath></text>
<path d="M423.9709474909823,-93.57409810987373 L426.9709474909823,-93.57409810987373" stroke="#999999" />
<text font-size="6" stroke="none" fill="#999999"><textPath xlink:href="#d115">
<tspan dy="0em">720mm</tspan>
</textPath></text>
</g>
</svg>
