<?xml version="1.0" encoding="UTF-8"?>
<svg xmlns="http://www.w3.org/2000/svg" xmlns:xlink="http://www.w3.org/1999/xlink"
     width="977.9330286853523" height="2012.6999999999955" viewBox="-488.96651434267613 -132.6999999999955 977.9330286853523 2012.6999999999955" stroke="black" fill="none">
<defs>
<path d="M-388.96651434267613,1784.0 L-388.96651434267613,1884.0" id="d0" />
<path d="M-378.96651434267613,1784.0000000000002 L-378.96651434267613,1884.0000000000002" id="d1" />
<path d="M-368.96651434267613,1784.0 L-368.96651434267613,1884.0" id="d2" />
<path d="M-358.96651434267613,1784.0 L-358.96651434267613,1884.0" id="d3" />
<path d="M-348.96651434267613,1784.0 L-348.96651434267613,1884.0" id="d4" />
<path d="M-338.96651434267613,1784.0 L-338.96651434267613,1884.0" id="d5" />
<path d="M-328.96651434267613,1784.0 L-328.96651434267613,1884.0" id="d6" />
<path d="M-318.96651434267613,1784.0 L-318.96651434267613,1884.0" id="d7" />
<path d="M-308.96651434267613,1784.0 L-308.96651434267613,1884.0" id="d8" />
<path d="M-298.96651434267613,1784.0000000000002 L-298.96651434267613,1884.0000000000002" id="d9" />
<path d="M-288.96651434267613,1784.0 L-288.96651434267613,1884.0" id="d10" />
<path d="M-278.96651434267613,1784.0 L-278.96651434267613,1884.0" id="d11" />
<path d="M-268.96651434267613,1784.0 L-268.96651434267613,1884.0" id="d12" />
<path d="M-258.96651434267613,1784.0 L-258.96651434267613,1884.0" id="d13" />
<path d="M-248.96651434267613,1784.0 L-248.96651434267613,1884.0" id="d14" />
<path d="M-238.96651434267613,1784.0 L-238.96651434267613,1884.0" id="d15" />
<path d="M-228.96651434267613,1784.0 L-228.96651434267613,1884.0" id="d16" />
<path d="M-218.96651434267613,1784.0 L-218.96651434267613,1884.0" id="d17" />
<path d="M-208.96651434267613,1784.0 L-208.96651434267613,1884.0" id="d18" />
<path d="M-198.96651434267613,1784.0 L-198.96651434267613,1884.0" id="d19" />
<path d="M-188.96651434267613,1784.0 L-188.96651434267613,1884.0" id="d20" />
<path d="M-178.96651434267613,1784.0 L-178.96651434267613,1884.0" id="d21" />
<path d="M-168.96651434267613,1784.0000000000002 L-168.96651434267613,1884.0000000000002" id="d22" />
<path d="M-158.96651434267613,1784.0 L-158.96651434267613,1884.0" id="d23" />
<path d="M-148.96651434267613,1784.0 L-148.96651434267613,1884.0" id="d24" />
<path d="M-138.96651434267613,1784.0 L-138.96651434267613,1884.0" id="d25" />
<path d="M-128.96651434267613,1784.0 L-128.96651434267613,1884.0" id="d26" />
<path d="M-118.96651434267613,1784.0 L-118.96651434267613,1884.0" id="d27" />
<path d="M-108.9665143426761,1784.0 L-108.9665143426761,1884.0" id="d28" />
<path d="M-98.96651434267613,1784.0 L-98.96651434267613,1884.0" id="d29" />
<path d="M-88.96651434267613,1784.0000000000002 L-88.96651434267613,1884.0000000000002" id="d30" />
<path d="M-78.96651434267616,1784.0 L-78.96651434267616,1884.0" id="d31" />
<path d="M-68.96651434267613,1784.0 L-68.96651434267613,1884.0" id="d32" />
<path d="M-58.966514342676135,1784.0 L-58.966514342676135,1884.0" id="d33" />
<path d="M-48.966514342676135,1784.0 L-48.966514342676135,1884.0" id="d34" />
<path d="M-38.96651434267616,1784.0 L-38.96651434267616,1884.0" id="d35" />
<path d="M-28.966514342676135,1784.0 L-28.966514342676135,1884.0" id="d36" />
<path d="M-18.966514342676106,1784.0 L-18.966514342676106,1884.0" id="d37" />
<path d="M-8.966514342676135,1784.0 L-8.966514342676135,1884.0" id="d38" />
<path d="M1.0334856573239222,1784.0 L1.0334856573239222,1884.0" id="d39" />
<path d="M11.033485657323865,1784.0 L11.033485657323865,1884.0" id="d40" />
<path d="M21.03348565732381,1784.0 L21.03348565732381,1884.0" id="d41" />
<path d="M31.033485657323865,1784.0 L31.033485657323865,1884.0" id="d42" />
<path d="M41.03348565732381,1784.0 L41.03348565732381,1884.0" id="d43" />
<path d="M51.033485657323865,1784.0 L51.033485657323865,1884.0" id="d44" />
<path d="M61.03348565732381,1784.0 L61.03348565732381,1884.0" id="d45" />
<path d="M71.03348565732387,1784.0 L71.03348565732387,1884.0" id="d46" />
<path d="M81.03348565732381,1784.0 L81.03348565732381,1884.0" id="d47" />
<path d="M91.03348565732387,1784.0 L91.03348565732387,1884.0" id="d48" />
<path d="M101.03348565732387,1784.0 L101.03348565732387,1884.0" id="d49" />
<path d="M111.03348565732387,1784.0 L111.03348565732387,1884.0" id="d50" />
<path d="M121.03348565732387,1784.0 L121.03348565732387,1884.0" id="d51" />
<path d="M131.03348565732387,1784.0 L131.03348565732387,1884.0" id="d52" />
<path d="M141.03348565732387,1784.0 L141.03348565732387,1884.0" id="d53" />
<path d="M151.03348565732387,1784.0 L151.03348565732387,1884.0" id="d54" />
<path d="M161.03348565732387,1784.0 L161.03348565732387,1884.0" id="d55" />
<path d="M171.03348565732387,1784.0 L171.03348565732387,1884.0" id="d56" />
<path d="M181.03348565732387,1784.0 L181.03348565732387,1884.0" id="d57" />
<path d="M191.03348565732387,1784.0 L191.03348565732387,1884.0" id="d58" />
<path d="M201.03348565732387,1784.0 L201.03348565732387,1884.0" id="d59" />
<path d="M211.03348565732387,1784.0 L211.03348565732387,1884.0" id="d60" />
<path d="M221.03348565732387,1784.0 L221.03348565732387,1884.0" id="d61" />
<path d="M231.03348565732387,1784.0 L231.03348565732387,1884.0" id="d62" />
<path d="M241.03348565732387,1784.0 L241.03348565732387,1884.0" id="d63" />
<path d="M251.03348565732387,1784.0 L251.03348565732387,1884.0" id="d64" />
<path d="M261.03348565732387,1784.0 L261.03348565732387,1884.0" id="d65" />
<path d="M271.03348565732387,1784.0 L271.03348565732387,1884.0" id="d66" />
<path d="M281.03348565732387,1784.0 L281.03348565732387,1884.0" id="d67" />
<path d="M291.03348565732387,1784.0 L291.03348565732387,1884.0" id="d68" />
<path d="M301.03348565732387,1784.0 L301.03348565732387,1884.0" id="d69" />
<path d="M311.03348565732387,1784.0 L311.03348565732387,1884.0" id="d70" />
<path d="M321.03348565732387,1784.0 L321.03348565732387,1884.0" id="d71" />
<path d="M331.03348565732387,1784.0 L331.03348565732387,1884.0" id="d72" />
<path d="M341.03348565732387,1784.0 L341.03348565732387,1884.0" id="d73" />
<path d="M351.03348565732387,1784.0 L351.03348565732387,1884.0" id="d74" />
<path d="M361.03348565732387,1784.0 L361.03348565732387,1884.0" id="d75" />
<path d="M371.03348565732387,1784.0 L371.03348565732387,1884.0" id="d76" />
<path d="M381.03348565732387,1784.0 L381.03348565732387,1884.0" id="d77" />
<path d="M392.96651434267613,1780.0 L492.96651434267613,1780.0" id="d78" />
<path d="M392.9665143426761,1770.0 L492.9665143426761,1770.0" id="d79" />
<path d="M392.96651434267613,1760.0 L492.96651434267613,1760.0" id="d80" />
<path d="M392.9665143426761,1750.0 L492.9665143426761,1750.0" id="d81" />
<path d="M392.96651434267613,1740.0 L492.96651434267613,1740.0" id="d82" />
<path d="M392.96651434267613,1729.9999999999998 L492.96651434267613,1729.9999999999998" id="d83" />
<path d="M392.9665143426762,1720.0 L492.9665143426762,1720.0" id="d84" />
<path d="M392.96651434267613,1710.0 L492.96651434267613,1710.0" id="d85" />
<path d="M392.96651434267613,1700.0 L492.96651434267613,1700.0" id="d86" />
<path d="M392.96651434267613,1690.0 L492.96651434267613,1690.0" id="d87" />
<path d="M392.96651434267613,1680.0000000000002 L492.96651434267613,1680.0000000000002" id="d88" />
<path d="M392.96651434267613,1670.0 L492.96651434267613,1670.0" id="d89" />
<path d="M392.96651434267613,1660.0 L492.96651434267613,1660.0" id="d90" />
<path d="M392.9665143426761,1650.0 L492.9665143426761,1650.0" id="d91" />
<path d="M392.96651434267613,1640.0 L492.96651434267613,1640.0" id="d92" />
<path d="M392.96651434267613,1630.0 L492.96651434267613,1630.0" id="d93" />
<path d="M392.9665143426762,1620.0000000000002 L492.9665143426762,1620.0000000000002" id="d94" />
<path d="M392.96651434267613,1610.0 L492.96651434267613,1610.0" id="d95" />
<path d="M392.96651434267613,1600.0 L492.96651434267613,1600.0" id="d96" />
<path d="M392.96651434267613,1590.0 L492.96651434267613,1590.0" id="d97" />
<path d="M392.96651434267613,1580.0 L492.96651434267613,1580.0" id="d98" />
<path d="M392.96651434267613,1570.0 L492.96651434267613,1570.0" id="d99" />
<path d="M392.9665143426761,1560.0 L492.9665143426761,1560.0" id="d100" />
<path d="M392.96651434267613,1550.0 L492.96651434267613,1550.0" id="d101" />
<path d="M392.96651434267613,1540.0 L492.96651434267613,1540.0" id="d102" />
<path d="M392.9665143426762,1530.0 L492.9665143426762,1530.0" id="d103" />
<path d="M392.96651434267613,1520.0 L492.96651434267613,1520.0" id="d104" />
<path d="M392.96651434267613,1510.0 L492.96651434267613,1510.0" id="d105" />
<path d="M392.96651434267613,1500.0 L492.96651434267613,1500.0" id="d106" />
<path d="M392.96651434267613,1490.0 L492.96651434267613,1490.0" id="d107" />
<path d="M392.9665143426761,1480.0 L492.9665143426761,1480.0" id="d108" />
<path d="M392.96651434267613,1470.0 L492.96651434267613,1470.0" id="d109" />
<path d="M392.9665143426761,1460.0 L492.9665143426761,1460.0" id="d110" />
<path d="M392.96651434267613,1450.0000000000002 L492.96651434267613,1450.0000000000002" id="d111" />
<path d="M392.96651434267613,1439.9999999999998 L492.96651434267613,1439.9999999999998" id="d112" />
<path d="M392.96651434267613,1429.9999999999998 L492.96651434267613,1429.9999999999998" id="d113" />
<path d="M392.96651434267613,1420.0 L492.96651434267613,1420.0" id="d114" />
<path d="M392.9665143426762,1410.0 L492.9665143426762,1410.0" id="d115" />
<path d="M392.96651434267613,1400.0 L492.96651434267613,1400.0" id="d116" />
<path d="M392.9665143426761,1390.0 L492.9665143426761,1390.0" id="d117" />
<path d="M392.96651434267613,1380.0 L492.96651434267613,1380.0" id="d118" />
<path d="M392.96651434267613,1370.0000000000002 L492.96651434267613,1370.0000000000002" id="d119" />
<path d="M392.96651434267613,1360.0 L492.96651434267613,1360.0" id="d120" />
<path d="M392.96651434267613,1349.9999999999998 L492.96651434267613,1349.9999999999998" id="d121" />
<path d="M392.9665143426762,1340.0 L492.9665143426762,1340.0" id="d122" />
<path d="M392.96651434267613,1330.0 L492.96651434267613,1330.0" id="d123" />
<path d="M392.96651434267613,1320.0 L492.96651434267613,1320.0" id="d124" />
<path d="M392.96651434267613,1310.0 L492.96651434267613,1310.0" id="d125" />
<path d="M392.9665143426761,1300.0 L492.9665143426761,1300.0" id="d126" />
<path d="M392.96651434267613,1289.9999999999998 L492.96651434267613,1289.9999999999998" id="d127" />
<path d="M392.96651434267613,1280.0 L492.96651434267613,1280.0" id="d128" />
<path d="M392.9665143426761,1270.0 L492.9665143426761,1270.0" id="d129" />
<path d="M392.96651434267613,1259.9999999999998 L492.96651434267613,1259.9999999999998" id="d130" />
<path d="M392.96651434267613,1250.0 L492.96651434267613,1250.0" id="d131" />
<path d="M392.9665143426762,1240.0000000000002 L492.9665143426762,1240.0000000000002" id="d132" />
<path d="M392.96651434267613,1230.0 L492.96651434267613,1230.0" id="d133" />
<path d="M392.9665143426761,1220.0 L492.9665143426761,1220.0" id="d134" />
<path d="M392.96651434267613,1210.0 L492.96651434267613,1210.0" id="d135" />
<path d="M392.96651434267613,1200.0 L492.96651434267613,1200.0" id="d136" />
<path d="M392.96651434267613,1190.0 L492.96651434267613,1190.0" id="d137" />
<path d="M392.9665143426761,1180.0 L492.9665143426761,1180.0" id="d138" />
<path d="M392.9665143426761,1170.0 L492.9665143426761,1170.0" id="d139" />
<path d="M392.9665143426762,1160.0000000000002 L492.9665143426762,1160.0000000000002" id="d140" />
<path d="M392.96651434267613,1150.0000000000002 L492.96651434267613,1150.0000000000002" id="d141" />
<path d="M392.9665143426761,1139.9999999999998 L492.9665143426761,1139.9999999999998" id="d142" />
<path d="M392.9665143426761,1129.9999999999998 L492.9665143426761,1129.9999999999998" id="d143" />
<path d="M392.96651434267613,1120.0 L492.96651434267613,1120.0" id="d144" />
<path d="M392.9665143426762,1110.0 L492.9665143426762,1110.0" id="d145" />
<path d="M392.96651434267613,1100.0 L492.96651434267613,1100.0" id="d146" />
<path d="M392.9665143426761,1090.0 L492.9665143426761,1090.0" id="d147" />
<path d="M392.96651434267613,1080.0 L492.96651434267613,1080.0" id="d148" />
<path d="M392.9665143426762,1070.0000000000002 L492.9665143426762,1070.0000000000002" id="d149" />
<path d="M392.96651434267613,1060.0 L492.96651434267613,1060.0" id="d150" />
<path d="M392.9665143426761,1049.9999999999998 L492.9665143426761,1049.9999999999998" id="d151" />
<path d="M392.96651434267613,1040.0 L492.96651434267613,1040.0" id="d152" />
<path d="M392.9665143426762,1030.0 L492.9665143426762,1030.0" id="d153" />
<path d="M392.96651434267613,1020.0 L492.96651434267613,1020.0" id="d154" />
<path d="M392.96651434267613,1009.9999999999999 L492.96651434267613,1009.9999999999999" id="d155" />
<path d="M392.96651434267613,1000.0 L492.96651434267613,1000.0" id="d156" />
<path d="M392.9665143426762,990.0000000000001 L492.9665143426762,990.0000000000001" id="d157" />
<path d="M392.96651434267613,980.0000000000001 L492.96651434267613,980.0000000000001" id="d158" />
<path d="M392.9665143426761,969.9999999999999 L492.9665143426761,969.9999999999999" id="d159" />
<path d="M392.96651434267613,960.0 L492.96651434267613,960.0" id="d160" />
<path d="M392.96651434267613,950.0000000000001 L492.96651434267613,950.0000000000001" id="d161" />
<path d="M392.9665143426762,940.0000000000001 L492.9665143426762,940.0000000000001" id="d162" />
<path d="M392.96651434267613,929.9999999999999 L492.96651434267613,929.9999999999999" id="d163" />
<path d="M392.96651434267613,919.9999999999999 L492.96651434267613,919.9999999999999" id="d164" />
<path d="M392.96651434267613,910.0 L492.96651434267613,910.0" id="d165" />
<path d="M392.9665143426762,900.0 L492.9665143426762,900.0" id="d166" />
<path d="M392.96651434267613,890.0 L492.96651434267613,890.0" id="d167" />
<path d="M392.9665143426761,879.9999999999999 L492.9665143426761,879.9999999999999" id="d168" />
<path d="M392.96651434267613,870.0 L492.96651434267613,870.0" id="d169" />
<path d="M392.96651434267613,860.0 L492.96651434267613,860.0" id="d170" />
<path d="M392.96651434267613,850.0 L492.96651434267613,850.0" id="d171" />
<path d="M392.96651434267613,839.9999999999999 L492.96651434267613,839.9999999999999" id="d172" />
<path d="M392.96651434267613,830.0000000000001 L492.96651434267613,830.0000000000001" id="d173" />
<path d="M392.96651434267613,819.9999999999999 L492.96651434267613,819.9999999999999" id="d174" />
<path d="M392.96651434267613,810.0 L492.96651434267613,810.0" id="d175" />
<path d="M392.96651434267613,800.0 L492.96651434267613,800.0" id="d176" />
<path d="M392.96651434267613,790.0000000000001 L492.96651434267613,790.0000000000001" id="d177" />
<path d="M392.96651434267613,779.9999999999999 L492.96651434267613,779.9999999999999" id="d178" />
<path d="M392.96651434267613,770.0 L492.96651434267613,770.0" id="d179" />
<path d="M392.96651434267613,760.0 L492.96651434267613,760.0" id="d180" />
<path d="M392.96651434267613,750.0 L492.96651434267613,750.0" id="d181" />
<path d="M392.96651434267613,739.9999999999999 L492.96651434267613,739.9999999999999" id="d182" />
<path d="M392.96651434267613,730.0000000000001 L492.96651434267613,730.0000000000001" id="d183" />
<path d="M392.96651434267613,720.0 L492.96651434267613,720.0" id="d184" />
<path d="M392.96651434267613,710.0 L492.96651434267613,710.0" id="d185" />
<path d="M392.96651434267613,700.0 L492.96651434267613,700.0" id="d186" />
<path d="M392.96651434267613,690.0000000000001 L492.96651434267613,690.0000000000001" id="d187" />
<path d="M392.96651434267613,680.0 L492.96651434267613,680.0" id="d188" />
<path d="M392.96651434267613,669.9999999999999 L492.96651434267613,669.9999999999999" id="d189" />
<path d="M392.96651434267613,660.0 L492.96651434267613,660.0" id="d190" />
<path d="M392.96651434267613,649.9999999999999 L492.96651434267613,649.9999999999999" id="d191" />
<path d="M392.96651434267613,640.0000000000001 L492.96651434267613,640.0000000000001" id="d192" />
<path d="M392.96651434267613,629.9999999999999 L492.96651434267613,629.9999999999999" id="d193" />
<path d="M392.96651434267613,620.0 L492.96651434267613,620.0" id="d194" />
<path d="M392.96651434267613,610.0 L492.96651434267613,610.0" id="d195" />
<path d="M392.96651434267613,600.0 L492.96651434267613,600.0" id="d196" />
<path d="M392.96651434267613,589.9999999999999 L492.96651434267613,589.9999999999999" id="d197" />
<path d="M392.9665143426761,580.0000000000001 L492.9665143426761,580.0000000000001" id="d198" />
<path d="M392.96651434267613,570.0 L492.96651434267613,570.0" id="d199" />
<path d="M392.96651434267613,560.0 L492.96651434267613,560.0" id="d200" />
<path d="M392.96651434267613,550.0 L492.96651434267613,550.0" id="d201" />
<path d="M392.96651434267613,540.0000000000001 L492.96651434267613,540.0000000000001" id="d202" />
<path d="M392.96651434267613,530.0 L492.96651434267613,530.0" id="d203" />
<path d="M392.96651434267613,520.0 L492.96651434267613,520.0" id="d204" />
<path d="M392.9665143426761,510.0 L492.9665143426761,510.0" id="d205" />
<path d="M392.9665143426761,500.0000000000001 L492.9665143426761,500.0000000000001" id="d206" />
<path d="M392.96651434267613,489.99999999999994 L492.96651434267613,489.99999999999994" id="d207" />
<path d="M392.96651434267613,479.9999999999999 L492.96651434267613,479.9999999999999" id="d208" />
<path d="M392.96651434267613,470.0 L492.96651434267613,470.0" id="d209" />
<path d="M392.96651434267613,459.9999999999999 L492.96651434267613,459.9999999999999" id="d210" />
<path d="M392.96651434267613,450.0 L492.96651434267613,450.0" id="d211" />
<path d="M392.96651434267613,439.9999999999999 L492.96651434267613,439.9999999999999" id="d212" />
<path d="M392.96651434267613,430.00000000000006 L492.96651434267613,430.00000000000006" id="d213" />
<path d="M392.9665143426761,419.99999999999994 L492.9665143426761,419.99999999999994" id="d214" />
<path d="M392.9665143426761,410.00000000000006 L492.9665143426761,410.00000000000006" id="d215" />
<path d="M392.96651434267613,399.99999999999994 L492.96651434267613,399.99999999999994" id="d216" />
<path d="M392.96651434267613,390.00000000000006 L492.96651434267613,390.00000000000006" id="d217" />
<path d="M392.96651434267613,379.99999999999994 L492.96651434267613,379.99999999999994" id="d218" />
<path d="M392.96651434267613,370.0000000000001 L492.96651434267613,370.0000000000001" id="d219" />
<path d="M392.96651434267613,359.99999999999994 L492.96651434267613,359.99999999999994" id="d220" />
<path d="M392.96651434267613,350.0000000000001 L492.96651434267613,350.0000000000001" id="d221" />
<path d="M392.96651434267613,340.0 L492.96651434267613,340.0" id="d222" />
<path d="M392.96651434267613,330.0000000000001 L492.96651434267613,330.0000000000001" id="d223" />
<path d="M392.9665143426761,320.0 L492.9665143426761,320.0" id="d224" />
<path d="M392.9665143426761,310.00000000000006 L492.9665143426761,310.00000000000006" id="d225" />
<path d="M392.96651434267613,300.0 L492.96651434267613,300.0" id="d226" />
<path d="M392.96651434267613,289.9999999999999 L492.96651434267613,289.9999999999999" id="d227" />
<path d="M392.96651434267613,280.0 L492.96651434267613,280.0" id="d228" />
<path d="M392.96651434267613,269.9999999999999 L492.96651434267613,269.9999999999999" id="d229" />
<path d="M392.96651434267613,260.00000000000006 L492.96651434267613,260.00000000000006" id="d230" />
<path d="M392.96651434267613,249.99999999999994 L492.96651434267613,249.99999999999994" id="d231" />
<path d="M392.96651434267613,240.00000000000003 L492.96651434267613,240.00000000000003" id="d232" />
<path d="M392.96651434267613,229.99999999999994 L492.96651434267613,229.99999999999994" id="d233" />
<path d="M392.96651434267613,220.00000000000003 L492.96651434267613,220.00000000000003" id="d234" />
<path d="M392.96651434267613,209.99999999999994 L492.96651434267613,209.99999999999994" id="d235" />
<path d="M392.96651434267613,200.00000000000006 L492.96651434267613,200.00000000000006" id="d236" />
<path d="M392.96651434267613,189.99999999999997 L492.96651434267613,189.99999999999997" id="d237" />
<path d="M392.96651434267613,180.00000000000006 L492.96651434267613,180.00000000000006" id="d238" />
<path d="M392.96651434267613,169.99999999999997 L492.96651434267613,169.99999999999997" id="d239" />
<path d="M392.96651434267613,160.00000000000009 L492.96651434267613,160.00000000000009" id="d240" />
<path d="M392.96651434267613,150.0 L492.96651434267613,150.0" id="d241" />
<path d="M392.96651434267613,140.00000000000009 L492.96651434267613,140.00000000000009" id="d242" />
<path d="M392.96651434267613,130.0 L492.96651434267613,130.0" id="d243" />
<path d="M392.96651434267613,120.0000000000001 L492.96651434267613,120.0000000000001" id="d244" />
<path d="M392.96651434267613,110.00000000000001 L492.96651434267613,110.00000000000001" id="d245" />
<path d="M392.96651434267613,99.99999999999991 L492.96651434267613,99.99999999999991" id="d246" />
<path d="M392.96651434267613,90.00000000000003 L492.96651434267613,90.00000000000003" id="d247" />
<path d="M392.96651434267613,79.99999999999991 L492.96651434267613,79.99999999999991" id="d248" />
<path d="M392.96651434267613,70.00000000000003 L492.96651434267613,70.00000000000003" id="d249" />
<path d="M392.96651434267613,59.99999999999993 L492.96651434267613,59.99999999999993" id="d250" />
<path d="M392.96651434267613,50.00000000000004 L492.96651434267613,50.00000000000004" id="d251" />
<path d="M392.96651434267613,39.99999999999994 L492.96651434267613,39.99999999999994" id="d252" />
<path d="M392.96651434267613,30.000000000000046 L492.96651434267613,30.000000000000046" id="d253" />
<path d="M392.96651434267613,19.99999999999995 L492.96651434267613,19.99999999999995" id="d254" />
<path d="M392.96651434267613,10.000000000000057 L492.96651434267613,10.000000000000057" id="d255" />
<path d="M392.96651434267613,-4.263256414560601e-14 L492.96651434267613,-4.263256414560601e-14" id="d256" />
<path d="M392.96651434267613,-9.999999999999932 L492.96651434267613,-9.999999999999932" id="d257" />
<path d="M392.96651434267613,-20.000000000000025 L492.96651434267613,-20.000000000000025" id="d258" />
<path d="M392.96651434267613,-29.99999999999992 L492.96651434267613,-29.99999999999992" id="d259" />
</defs>
<g>
<path d="M119.20330310823094,1730.0 L119.59516713706375,1712.7 L121.0199030220862,1695.4 L123.46489992074767,1678.1000000000001 L126.93607739726863,1660.8000000000002 L131.4622323878945,1643.5000000000002 L136.94062989303353,1626.2000000000003 L143.28797748111646,1608.9000000000003 L150.48969527836124,1591.6000000000004 L158.459203735524,1574.3000000000004 L167.09629822988458,1557.0000000000005 L176.3278110828135,1539.7000000000005 L186.12935706999832,1522.4000000000005 L196.33191916612193,1505.1000000000006 L206.84142106607322,1487.8000000000006 L217.56835252036825,1470.5000000000007 L228.4131844437157,1453.2000000000007 L239.2647864978973,1435.9000000000008 L250.01969352571018,1418.6000000000008 L260.56389401930835,1401.3000000000009 L270.7908606150773,1384.000000000001 L280.62129551329156,1366.700000000001 L289.9696598039044,1349.400000000001 L298.7064383365156,1332.100000000001 L306.7601043262458,1314.800000000001 L314.0464498875422,1297.5000000000011 L320.5249033190714,1280.2000000000012 L326.06543401701754,1262.9000000000012 L330.68887537307666,1245.6000000000013 L334.3550669075834,1228.3000000000013 L336.99635895157763,1211.0000000000014 L338.50245728636133,1193.7000000000014 L338.96651434267613,1176.4000000000015 L338.393760334778,1159.1000000000015 L336.72610856281693,1141.8000000000015 L334.0119812460185,1124.5000000000016 L330.3070064715022,1107.2000000000016 L325.61463587366353,1089.9000000000017 L319.9003284962476,1072.6000000000017 L313.33108235406377,1055.3000000000018 L305.96762228997636,1038.0000000000018 L297.8581702836665,1020.7000000000019 L289.0543449636652,1003.4000000000019 L279.6784193650787,986.100000000002 L269.8000110957279,968.800000000002 L259.5171320326806,951.500000000002 L248.94091748108218,934.2000000000021 L238.1794099737872,916.9000000000021 L227.32617892639422,899.6000000000022 L216.48551414562326,882.3000000000022 L205.77409385621803,865.0000000000023 L195.29027556138425,847.7000000000023 L185.1289871636548,830.4000000000024 L175.4171730172716,813.1000000000024 L166.21452152449334,795.8000000000025 L157.6011320420396,778.5000000000025 L149.69896949326855,761.2000000000025 L142.61954894898142,743.9000000000026 L136.36154011521492,726.6000000000026 L130.97791165282382,709.3000000000027 L126.58262968773742,692.0000000000027 L123.17842916528559,674.7000000000028 L120.77834593327687,657.4000000000028 L119.26790195549515,640.1000000000029 L117.91265976646802,622.8000000000029 L116.55752554762076,605.500000000003 L115.20239132877347,588.200000000003 L113.84725710992618,570.900000000003 L112.49212289107886,553.6000000000031 L111.13698867223161,536.3000000000031 L109.78185445338431,519.0000000000032 L108.42672023453702,501.70000000000323 L107.07158601568975,484.4000000000033 L105.71645179684245,467.1000000000033 L104.36131757799515,449.80000000000337 L103.00618335914787,432.5000000000034 L101.65104914030059,415.20000000000346 L100.2959149214533,397.9000000000035 L98.94078070260602,380.60000000000355 L97.58564648375874,363.3000000000036 L96.23051226491143,346.00000000000364 L94.87537804606416,328.7000000000037 L93.52024382721686,311.40000000000373 L92.16510960836958,294.1000000000038 L90.80997538952228,276.8000000000038 L89.54291870237661,259.50000000000387 L88.4067241222182,242.2000000000039 L87.27052954205976,224.90000000000396 L86.13433496190135,207.600000000004 L84.99814038174293,190.30000000000405 L83.8619458015845,173.0000000000041 L82.72575122142608,155.70000000000414 L81.58955664126768,138.40000000000418 L80.45336206110925,121.10000000000423 L79.31716748095081,103.80000000000427 L78.1809729007924,86.50000000000432 L77.04477832063398,69.20000000000437 L75.90858374047556,51.90000000000441 L74.77238916031715,34.60000000000446 L73.63619458015873,17.300000000004502 L-73.63619458015873,17.300000000004502 L-74.77238916031715,34.60000000000446 L-75.90858374047556,51.90000000000441 L-77.04477832063398,69.20000000000437 L-78.1809729007924,86.50000000000432 L-79.31716748095081,103.80000000000427 L-80.45336206110925,121.10000000000423 L-81.58955664126768,138.40000000000418 L-82.72575122142608,155.70000000000414 L-83.8619458015845,173.0000000000041 L-84.99814038174293,190.30000000000405 L-86.13433496190135,207.600000000004 L-87.27052954205976,224.90000000000396 L-88.4067241222182,242.2000000000039 L-89.54291870237661,259.50000000000387 L-90.80997538952228,276.8000000000038 L-92.16510960836958,294.1000000000038 L-93.52024382721686,311.40000000000373 L-94.87537804606416,328.7000000000037 L-96.23051226491143,346.00000000000364 L-97.58564648375874,363.3000000000036 L-98.94078070260602,380.60000000000355 L-100.2959149214533,397.9000000000035 L-101.65104914030059,415.20000000000346 L-103.00618335914787,432.5000000000034 L-104.36131757799515,449.80000000000337 L-105.71645179684245,467.1000000000033 L-107.07158601568975,484.4000000000033 L-108.42672023453702,501.70000000000323 L-109.78185445338431,519.0000000000032 L-111.13698867223161,536.3000000000031 L-112.49212289107886,553.6000000000031 L-113.84725710992618,570.900000000003 L-115.20239132877347,588.200000000003 L-116.55752554762076,605.500000000003 L-117.91265976646802,622.8000000000029 L-119.26790195549515,640.1000000000029 L-120.77834593327687,657.4000000000028 L-123.17842916528559,674.7000000000028 L-126.58262968773742,692.0000000000027 L-130.97791165282382,709.3000000000027 L-136.36154011521492,726.6000000000026 L-142.61954894898142,743.9000000000026 L-149.69896949326855,761.2000000000025 L-157.6011320420396,778.5000000000025 L-166.21452152449334,795.8000000000025 L-175.4171730172716,813.1000000000024 L-185.1289871636548,830.4000000000024 L-195.29027556138425,847.7000000000023 L-205.77409385621803,865.0000000000023 L-216.48551414562326,882.3000000000022 L-227.32617892639422,899.6000000000022 L-238.1794099737872,916.9000000000021 L-248.94091748108218,934.2000000000021 L-259.5171320326806,951.500000000002 L-269.8000110957279,968.800000000002 L-279.6784193650787,986.100000000002 L-289.0543449636652,1003.4000000000019 L-297.8581702836665,1020.7000000000019 L-305.96762228997636,1038.0000000000018 L-313.33108235406377,1055.3000000000018 L-319.9003284962476,1072.6000000000017 L-325.61463587366353,1089.9000000000017 L-330.3070064715022,1107.2000000000016 L-334.0119812460185,1124.5000000000016 L-336.72610856281693,1141.8000000000015 L-338.393760334778,1159.1000000000015 L-338.96651434267613,1176.4000000000015 L-338.50245728636133,1193.7000000000014 L-336.99635895157763,1211.0000000000014 L-334.3550669075834,1228.3000000000013 L-330.68887537307666,1245.6000000000013 L-326.06543401701754,1262.9000000000012 L-320.5249033190714,1280.2000000000012 L-314.0464498875422,1297.5000000000011 L-306.7601043262458,1314.800000000001 L-298.7064383365156,1332.100000000001 L-289.9696598039044,1349.400000000001 L-280.62129551329156,1366.700000000001 L-270.7908606150773,1384.000000000001 L-260.56389401930835,1401.3000000000009 L-250.01969352571018,1418.6000000000008 L-239.2647864978973,1435.9000000000008 L-228.4131844437157,1453.2000000000007 L-217.56835252036825,1470.5000000000007 L-206.84142106607322,1487.8000000000006 L-196.33191916612193,1505.1000000000006 L-186.12935706999832,1522.4000000000005 L-176.3278110828135,1539.7000000000005 L-167.09629822988458,1557.0000000000005 L-158.459203735524,1574.3000000000004 L-150.48969527836124,1591.6000000000004 L-143.28797748111646,1608.9000000000003 L-136.94062989303353,1626.2000000000003 L-131.4622323878945,1643.5000000000002 L-126.93607739726863,1660.8000000000002 L-123.46489992074767,1678.1000000000001 L-121.0199030220862,1695.4 L-119.59516713706375,1712.7 L-119.20330310823094,1730.0 L119.20330310823094,1730.0" fill="#E6E6FA" stroke="black" />
</g>
<g>
<path d="M0.0,17.300000000004502 L0.0,1730.0" fill="none" stroke="black" stroke-dasharray="3" />
</g>
<g>
<g>
<path d="M-388.96651434267613,1780.0 L388.96651434267613,1780.0" fill="none" stroke="#999999" />
</g>
<path d="M-388.96651434267613,1780.0 L-388.96651434267613,1783.0" stroke="#999999" />
<text font-size="6" stroke="none" fill="#999999"><textPath xlink:href="#d0">
<tspan dy="0em">0mm</tspan>
</textPath></text>
<path d="M-378.96651434267613,1780.0000000000002 L-378.96651434267613,1783.0000000000002" stroke="#999999" />
<text font-size="6" stroke="none" fill="#999999"><textPath xlink:href="#d1">
<tspan dy="0em">10mm</tspan>
</textPath></text>
<path d="M-368.96651434267613,1780.0 L-368.96651434267613,1783.0" stroke="#999999" />
<text font-size="6" stroke="none" fill="#999999"><textPath xlink:href="#d2">
<tspan dy="0em">20mm</tspan>
</textPath></text>
<path d="M-358.96651434267613,1780.0 L-358.96651434267613,1783.0" stroke="#999999" />
<text font-size="6" stroke="none" fill="#999999"><textPath xlink:href="#d3">
<tspan dy="0em">30mm</tspan>
</textPath></text>
<path d="M-348.96651434267613,1780.0 L-348.96651434267613,1783.0" stroke="#999999" />
<text font-size="6" stroke="none" fill="#999999"><textPath xlink:href="#d4">
<tspan dy="0em">40mm</tspan>
</textPath></text>
<path d="M-338.96651434267613,1780.0 L-338.96651434267613,1783.0" stroke="#999999" />
<text font-size="6" stroke="none" fill="#999999"><textPath xlink:href="#d5">
<tspan dy="0em">50mm</tspan>
</textPath></text>
<path d="M-328.96651434267613,1780.0 L-328.96651434267613,1783.0" stroke="#999999" />
<text font-size="6" stroke="none" fill="#999999"><textPath xlink:href="#d6">
<tspan dy="0em">60mm</tspan>
</textPath></text>
<path d="M-318.96651434267613,1780.0 L-318.96651434267613,1783.0" stroke="#999999" />
<text font-size="6" stroke="none" fill="#999999"><textPath xlink:href="#d7">
<tspan dy="0em">70mm</tspan>
</textPath></text>
<path d="M-308.96651434267613,1780.0 L-308.96651434267613,1783.0" stroke="#999999" />
<text font-size="6" stroke="none" fill="#999999"><textPath xlink:href="#d8">
<tspan dy="0em">80mm</tspan>
</textPath></text>
<path d="M-298.96651434267613,1780.0000000000002 L-298.96651434267613,1783.0000000000002" stroke="#999999" />
<text font-size="6" stroke="none" fill="#999999"><textPath xlink:href="#d9">
<tspan dy="0em">90mm</tspan>
</textPath></text>
<path d="M-288.96651434267613,1780.0 L-288.96651434267613,1783.0" stroke="#999999" />
<text font-size="6" stroke="none" fill="#999999"><textPath xlink:href="#d10">
<tspan dy="0em">100mm</tspan>
</textPath></text>
<path d="M-278.96651434267613,1780.0 L-278.96651434267613,1783.0" stroke="#999999" />
<text font-size="6" stroke="none" fill="#999999"><textPath xlink:href="#d11">
<tspan dy="0em">110mm</tspan>
</textPath></text>
<path d="M-268.96651434267613,1780.0 L-268.96651434267613,1783.0" stroke="#999999" />
<text font-size="6" stroke="none" fill="#999999"><textPath xlink:href="#d12">
<tspan dy="0em">120mm</tspan>
</textPath></text>
<path d="M-258.96651434267613,1780.0 L-258.96651434267613,1783.0" stroke="#999999" />
<text font-size="6" stroke="none" fill="#999999"><textPath xlink:href="#d13">
<tspan dy="0em">130mm</tspan>
</textPath></text>
<path d="M-248.96651434267613,1780.0 L-248.96651434267613,1783.0" stroke="#999999" />
<text font-size="6" stroke="none" fill="#999999"><textPath xlink:href="#d14">
<tspan dy="0em">140mm</tspan>
</textPath></text>
<path d="M-238.96651434267613,1780.0 L-238.96651434267613,1783.0" stroke="#999999" />
<text font-size="6" stroke="none" fill="#999999"><textPath xlink:href="#d15">
<tspan dy="0em">150mm</tspan>
</textPath></text>
<path d="M-228.96651434267613,1780.0 L-228.96651434267613,1783.0" stroke="#999999" />
<text font-size="6" stroke="none" fill="#999999"><textPath xlink:href="#d16">
<tspan dy="0em">160mm</tspan>
</textPath></text>
<path d="M-218.96651434267613,1780.0 L-218.96651434267613,1783.0" stroke="#999999" />
<text font-size="6" stroke="none" fill="#999999"><textPath xlink:href="#d17">
<tspan dy="0em">170mm</tspan>
</textPath></text>
<path d="M-208.96651434267613,1780.0 L-208.96651434267613,1783.0" stroke="#999999" />
<text font-size="6" stroke="none" fill="#999999"><textPath xlink:href="#d18">
<tspan dy="0em">180mm</tspan>
</textPath></text>
<path d="M-198.96651434267613,1780.0 L-198.96651434267613,1783.0" stroke="#999999" />
<text font-size="6" stroke="none" fill="#999999"><textPath xlink:href="#d19">
<tspan dy="0em">190mm</tspan>
</textPath></text>
<path d="M-188.96651434267613,1780.0 L-188.96651434267613,1783.0" stroke="#999999" />
<text font-size="6" stroke="none" fill="#999999"><textPath xlink:href="#d20">
<tspan dy="0em">200mm</tspan>
</textPath></text>
<path d="M-178.96651434267613,1780.0 L-178.96651434267613,1783.0" stroke="#999999" />
<text font-size="6" stroke="none" fill="#999999"><textPath xlink:href="#d21">
<tspan dy="0em">210mm</tspan>
</textPath></text>
<path d="M-168.96651434267613,1780.0000000000002 L-168.96651434267613,1783.0000000000002" stroke="#999999" />
<text font-size="6" stroke="none" fill="#999999"><textPath xlink:href="#d22">
<tspan dy="0em">220mm</tspan>
</textPath></text>
<path d="M-158.96651434267613,1780.0 L-158.96651434267613,1783.0" stroke="#999999" />
<text font-size="6" stroke="none" fill="#999999"><textPath xlink:href="#d23">
<tspan dy="0em">230mm</tspan>
</textPath></text>
<path d="M-148.96651434267613,1780.0 L-148.96651434267613,1783.0" stroke="#999999" />
<text font-size="6" stroke="none" fill="#999999"><textPath xlink:href="#d24">
<tspan dy="0em">240mm</tspan>
</textPath></text>
<path d="M-138.96651434267613,1780.0 L-138.96651434267613,1783.0" stroke="#999999" />
<text font-size="6" stroke="none" fill="#999999"><textPath xlink:href="#d25">
<tspan dy="0em">250mm</tspan>
</textPath></text>
<path d="M-128.96651434267613,1780.0 L-128.96651434267613,1783.0" stroke="#999999" />
<text font-size="6" stroke="none" fill="#999999"><textPath xlink:href="#d26">
<tspan dy="0em">260mm</tspan>
</textPath></text>
<path d="M-118.96651434267613,1780.0 L-118.96651434267613,1783.0" stroke="#999999" />
<text font-size="6" stroke="none" fill="#999999"><textPath xlink:href="#d27">
<tspan dy="0em">270mm</tspan>
</textPath></text>
<path d="M-108.9665143426761,1780.0 L-108.9665143426761,1783.0" stroke="#999999" />
<text font-size="6" stroke="none" fill="#999999"><textPath xlink:href="#d28">
<tspan dy="0em">280mm</tspan>
</textPath></text>
<path d="M-98.96651434267613,1780.0 L-98.96651434267613,1783.0" stroke="#999999" />
<text font-size="6" stroke="none" fill="#999999"><textPath xlink:href="#d29">
<tspan dy="0em">290mm</tspan>
</textPath></text>
<path d="M-88.96651434267613,1780.0000000000002 L-88.96651434267613,1783.0000000000002" stroke="#999999" />
<text font-size="6" stroke="none" fill="#999999"><textPath xlink:href="#d30">
<tspan dy="0em">300mm</tspan>
</textPath></text>
<path d="M-78.96651434267616,1780.0 L-78.96651434267616,1783.0" stroke="#999999" />
<text font-size="6" stroke="none" fill="#999999"><textPath xlink:href="#d31">
<tspan dy="0em">310mm</tspan>
</textPath></text>
<path d="M-68.96651434267613,1780.0 L-68.96651434267613,1783.0" stroke="#999999" />
<text font-size="6" stroke="none" fill="#999999"><textPath xlink:href="#d32">
<tspan dy="0em">320mm</tspan>
</textPath></text>
<path d="M-58.966514342676135,1780.0 L-58.966514342676135,1783.0" stroke="#999999" />
<text font-size="6" stroke="none" fill="#999999"><textPath xlink:href="#d33">
<tspan dy="0em">330mm</tspan>
</textPath></text>
<path d="M-48.966514342676135,1780.0 L-48.966514342676135,1783.0" stroke="#999999" />
<text font-size="6" stroke="none" fill="#999999"><textPath xlink:href="#d34">
<tspan dy="0em">340mm</tspan>
</textPath></text>
<path d="M-38.96651434267616,1780.0 L-38.96651434267616,1783.0" stroke="#999999" />
<text font-size="6" stroke="none" fill="#999999"><textPath xlink:href="#d35">
<tspan dy="0em">350mm</tspan>
</textPath></text>
<path d="M-28.966514342676135,1780.0 L-28.966514342676135,1783.0" stroke="#999999" />
<text font-size="6" stroke="none" fill="#999999"><textPath xlink:href="#d36">
<tspan dy="0em">360mm</tspan>
</textPath></text>
<path d="M-18.966514342676106,1780.0 L-18.966514342676106,1783.0" stroke="#999999" />
<text font-size="6" stroke="none" fill="#999999"><textPath xlink:href="#d37">
<tspan dy="0em">370mm</tspan>
</textPath></text>
<path d="M-8.966514342676135,1780.0 L-8.966514342676135,1783.0" stroke="#999999" />
<text font-size="6" stroke="none" fill="#999999"><textPath xlink:href="#d38">
<tspan dy="0em">380mm</tspan>
</textPath></text>
<path d="M1.0334856573239222,1780.0 L1.0334856573239222,1783.0" stroke="#999999" />
<text font-size="6" stroke="none" fill="#999999"><textPath xlink:href="#d39">
<tspan dy="0em">390mm</tspan>
</textPath></text>
<path d="M11.033485657323865,1780.0 L11.033485657323865,1783.0" stroke="#999999" />
<text font-size="6" stroke="none" fill="#999999"><textPath xlink:href="#d40">
<tspan dy="0em">400mm</tspan>
</textPath></text>
<path d="M21.03348565732381,1780.0 L21.03348565732381,1783.0" stroke="#999999" />
<text font-size="6" stroke="none" fill="#999999"><textPath xlink:href="#d41">
<tspan dy="0em">410mm</tspan>
</textPath></text>
<path d="M31.033485657323865,1780.0 L31.033485657323865,1783.0" stroke="#999999" />
<text font-size="6" stroke="none" fill="#999999"><textPath xlink:href="#d42">
<tspan dy="0em">420mm</tspan>
</textPath></text>
<path d="M41.03348565732381,1780.0 L41.03348565732381,1783.0" stroke="#999999" />
<text font-size="6" stroke="none" fill="#999999"><textPath xlink:href="#d43">
<tspan dy="0em">430mm</tspan>
</textPath></text>
<path d="M51.033485657323865,1780.0 L51.033485657323865,1783.0" stroke="#999999" />
<text font-size="6" stroke="none" fill="#999999"><textPath xlink:href="#d44">
<tspan dy="0em">440mm</tspan>
</textPath></text>
<path d="M61.03348565732381,1780.0 L61.03348565732381,1783.0" stroke="#999999" />
<text font-size="6" stroke="none" fill="#999999"><textPath xlink:href="#d45">
<tspan dy="0em">450mm</tspan>
</textPath></text>
<path d="M71.03348565732387,1780.0 L71.03348565732387,1783.0" stroke="#999999" />
<text font-size="6" stroke="none" fill="#999999"><textPath xlink:href="#d46">
<tspan dy="0em">460mm</tspan>
</textPath></text>
<path d="M81.03348565732381,1780.0 L81.03348565732381,1783.0" stroke="#999999" />
<text font-size="6" stroke="none" fill="#999999"><textPath xlink:href="#d47">
<tspan dy="0em">470mm</tspan>
</textPath></text>
<path d="M91.03348565732387,1780.0 L91.03348565732387,1783.0" stroke="#999999" />
<text font-size="6" stroke="none" fill="#999999"><textPath xlink:href="#d48">
<tspan dy="0em">480mm</tspan>
</textPath></text>
<path d="M101.03348565732387,1780.0 L101.03348565732387,1783.0" stroke="#999999" />
<text font-size="6" stroke="none" fill="#999999"><textPath xlink:href="#d49">
<tspan dy="0em">490mm</tspan>
</textPath></text>
<path d="M111.03348565732387,1780.0 L111.03348565732387,1783.0" stroke="#999999" />
<text font-size="6" stroke="none" fill="#999999"><textPath xlink:href="#d50">
<tspan dy="0em">500mm</tspan>
</textPath></text>
<path d="M121.03348565732387,1780.0 L121.03348565732387,1783.0" stroke="#999999" />
<text font-size="6" stroke="none" fill="#999999"><textPath xlink:href="#d51">
<tspan dy="0em">510mm</tspan>
</textPath></text>
<path d="M131.03348565732387,1780.0 L131.03348565732387,1783.0" stroke="#999999" />
<text font-size="6" stroke="none" fill="#999999"><textPath xlink:href="#d52">
<tspan dy="0em">520mm</tspan>
</textPath></text>
<path d="M141.03348565732387,1780.0 L141.03348565732387,1783.0" stroke="#999999" />
<text font-size="6" stroke="none" fill="#999999"><textPath xlink:href="#d53">
<tspan dy="0em">530mm</tspan>
</textPath></text>
<path d="M151.03348565732387,1780.0 L151.03348565732387,1783.0" stroke="#999999" />
<text font-size="6" stroke="none" fill="#999999"><textPath xlink:href="#d54">
<tspan dy="0em">540mm</tspan>
</textPath></text>
<path d="M161.03348565732387,1780.0 L161.03348565732387,1783.0" stroke="#999999" />
<text font-size="6" stroke="none" fill="#999999"><textPath xlink:href="#d55">
<tspan dy="0em">550mm</tspan>
</textPath></text>
<path d="M171.03348565732387,1780.0 L171.03348565732387,1783.0" stroke="#999999" />
<text font-size="6" stroke="none" fill="#999999"><textPath xlink:href="#d56">
<tspan dy="0em">560mm</tspan>
</textPath></text>
<path d="M181.03348565732387,1780.0 L181.03348565732387,1783.0" stroke="#999999" />
<text font-size="6" stroke="none" fill="#999999"><textPath xlink:href="#d57">
<tspan dy="0em">570mm</tspan>
</textPath></text>
<path d="M191.03348565732387,1780.0 L191.03348565732387,1783.0" stroke="#999999" />
<text font-size="6" stroke="none" fill="#999999"><textPath xlink:href="#d58">
<tspan dy="0em">580mm</tspan>
</textPath></text>
<path d="M201.03348565732387,1780.0 L201.03348565732387,1783.0" stroke="#999999" />
<text font-size="6" stroke="none" fill="#999999"><textPath xlink:href="#d59">
<tspan dy="0em">590mm</tspan>
</textPath></text>
<path d="M211.03348565732387,1780.0 L211.03348565732387,1783.0" stroke="#999999" />
<text font-size="6" stroke="none" fill="#999999"><textPath xlink:href="#d60">
<tspan dy="0em">600mm</tspan>
</textPath></text>
<path d="M221.03348565732387,1780.0 L221.03348565732387,1783.0" stroke="#999999" />
<text font-size="6" stroke="none" fill="#999999"><textPath xlink:href="#d61">
<tspan dy="0em">610mm</tspan>
</textPath></text>
<path d="M231.03348565732387,1780.0 L231.03348565732387,1783.0" stroke="#999999" />
<text font-size="6" stroke="none" fill="#999999"><textPath xlink:href="#d62">
<tspan dy="0em">620mm</tspan>
</textPath></text>
<path d="M241.03348565732387,1780.0 L241.03348565732387,1783.0" stroke="#999999" />
<text font-size="6" stroke="none" fill="#999999"><textPath xlink:href="#d63">
<tspan dy="0em">630mm</tspan>
</textPath></text>
<path d="M251.03348565732387,1780.0 L251.03348565732387,1783.0" stroke="#999999" />
<text font-size="6" stroke="none" fill="#999999"><textPath xlink:href="#d64">
<tspan dy="0em">640mm</tspan>
</textPath></text>
<path d="M261.03348565732387,1780.0 L261.03348565732387,1783.0" stroke="#999999" />
<text font-size="6" stroke="none" fill="#999999"><textPath xlink:href="#d65">
<tspan dy="0em">650mm</tspan>
</textPath></text>
<path d="M271.03348565732387,1780.0 L271.03348565732387,1783.0" stroke="#999999" />
<text font-size="6" stroke="none" fill="#999999"><textPath xlink:href="#d66">
<tspan dy="0em">660mm</tspan>
</textPath></text>
<path d="M281.03348565732387,1780.0 L281.03348565732387,1783.0" stroke="#999999" />
<text font-size="6" stroke="none" fill="#999999"><textPath xlink:href="#d67">
<tspan dy="0em">670mm</tspan>
</textPath></text>
<path d="M291.03348565732387,1780.0 L291.03348565732387,1783.0" stroke="#999999" />
<text font-size="6" stroke="none" fill="#999999"><textPath xlink:href="#d68">
<tspan dy="0em">680mm</tspan>
</textPath></text>
<path d="M301.03348565732387,1780.0 L301.03348565732387,1783.0" stroke="#999999" />
<text font-size="6" stroke="none" fill="#999999"><textPath xlink:href="#d69">
<tspan dy="0em">690mm</tspan>
</textPath></text>
<path d="M311.03348565732387,1780.0 L311.03348565732387,1783.0" stroke="#999999" />
<text font-size="6" stroke="none" fill="#999999"><textPath xlink:href="#d70">
<tspan dy="0em">700mm</tspan>
</textPath></text>
<path d="M321.03348565732387,1780.0 L321.03348565732387,1783.0" stroke="#999999" />
<text font-size="6" stroke="none" fill="#999999"><textPath xlink:href="#d71">
<tspan dy="0em">710mm</tspan>
</textPath></text>
<path d="M331.03348565732387,1780.0 L331.03348565732387,1783.0" stroke="#999999" />
<text font-size="6" stroke="none" fill="#999999"><textPath xlink:href="#d72">
<tspan dy="0em">720mm</tspan>
</textPath></text>
<path d="M341.03348565732387,1780.0 L341.03348565732387,1783.0" stroke="#999999" />
<text font-size="6" stroke="none" fill="#999999"><textPath xlink:href="#d73">
<tspan dy="0em">730mm</tspan>
</textPath></text>
<path d="M351.03348565732387,1780.0 L351.03348565732387,1783.0" stroke="#999999" />
<text font-size="6" stroke="none" fill="#999999"><textPath xlink:href="#d74">
<tspan dy="0em">740mm</tspan>
</textPath></text>
<path d="M361.03348565732387,1780.0 L361.03348565732387,1783.0" stroke="#999999" />
<text font-size="6" stroke="none" fill="#999999"><textPath xlink:href="#d75">
<tspan dy="0em">750mm</tspan>
</textPath></text>
<path d="M371.03348565732387,1780.0 L371.03348565732387,1783.0" stroke="#999999" />
<text font-size="6" stroke="none" fill="#999999"><textPath xlink:href="#d76">
<tspan dy="0em">760mm</tspan>
</textPath></text>
<path d="M381.03348565732387,1780.0 L381.03348565732387,1783.0" stroke="#999999" />
<text font-size="6" stroke="none" fill="#999999"><textPath xlink:href="#d77">
<tspan dy="0em">770mm</tspan>
</textPath></text>
</g>
<g>
<g>
<path d="M388.96651434267613,1780.0 L388.96651434267613,-32.6999999999955" fill="none" stroke="#999999" />
</g>
<path d="M388.96651434267613,1780.0 L391.96651434267613,1780.0" stroke="#999999" />
<text font-size="6" stroke="none" fill="#999999"><textPath xlink:href="#d78">
<tspan dy="0em">0mm</tspan>
</textPath></text>
<path d="M388.9665143426761,1770.0 L391.9665143426761,1770.0" stroke="#999999" />
<text font-size="6" stroke="none" fill="#999999"><textPath xlink:href="#d79">
<tspan dy="0em">10mm</tspan>
</textPath></text>
<path d="M388.96651434267613,1760.0 L391.96651434267613,1760.0" stroke="#999999" />
<text font-size="6" stroke="none" fill="#999999"><textPath xlink:href="#d80">
<tspan dy="0em">20mm</tspan>
</textPath></text>
<path d="M388.9665143426761,1750.0 L391.9665143426761,1750.0" stroke="#999999" />
<text font-size="6" stroke="none" fill="#999999"><textPath xlink:href="#d81">
<tspan dy="0em">30mm</tspan>
</textPath></text>
<path d="M388.96651434267613,1740.0 L391.96651434267613,1740.0" stroke="#999999" />
<text font-size="6" stroke="none" fill="#999999"><textPath xlink:href="#d82">
<tspan dy="0em">40mm</tspan>
</textPath></text>
<path d="M388.96651434267613,1729.9999999999998 L391.96651434267613,1729.9999999999998" stroke="#999999" />
<text font-size="6" stroke="none" fill="#999999"><textPath xlink:href="#d83">
<tspan dy="0em">50mm</tspan>
</textPath></text>
<path d="M388.9665143426762,1720.0 L391.9665143426762,1720.0" stroke="#999999" />
<text font-size="6" stroke="none" fill="#999999"><textPath xlink:href="#d84">
<tspan dy="0em">60mm</tspan>
</textPath></text>
<path d="M388.96651434267613,1710.0 L391.96651434267613,1710.0" stroke="#999999" />
<text font-size="6" stroke="none" fill="#999999"><textPath xlink:href="#d85">
<tspan dy="0em">70mm</tspan>
</textPath></text>
<path d="M388.96651434267613,1700.0 L391.96651434267613,1700.0" stroke="#999999" />
<text font-size="6" stroke="none" fill="#999999"><textPath xlink:href="#d86">
<tspan dy="0em">80mm</tspan>
</textPath></text>
<path d="M388.96651434267613,1690.0 L391.96651434267613,1690.0" stroke="#999999" />
<text font-size="6" stroke="none" fill="#999999"><textPath xlink:href="#d87">
<tspan dy="0em">90mm</tspan>
</textPath></text>
<path d="M388.96651434267613,1680.0000000000002 L391.96651434267613,1680.0000000000002" stroke="#999999" />
<text font-size="6" stroke="none" fill="#999999"><textPath xlink:href="#d88">
<tspan dy="0em">100mm</tspan>
</textPath></text>
<path d="M388.96651434267613,1670.0 L391.96651434267613,1670.0" stroke="#999999" />
<text font-size="6" stroke="none" fill="#999999"><textPath xlink:href="#d89">
<tspan dy="0em">110mm</tspan>
</textPath></text>
<path d="M388.96651434267613,1660.0 L391.96651434267613,1660.0" stroke="#999999" />
<text font-size="6" stroke="none" fill="#999999"><textPath xlink:href="#d90">
<tspan dy="0em">120mm</tspan>
</textPath></text>
<path d="M388.9665143426761,1650.0 L391.9665143426761,1650.0" stroke="#999999" />
<text font-size="6" stroke="none" fill="#999999"><textPath xlink:href="#d91">
<tspan dy="0em">130mm</tspan>
</textPath></text>
<path d="M388.96651434267613,1640.0 L391.96651434267613,1640.0" stroke="#999999" />
<text font-size="6" stroke="none" fill="#999999"><textPath xlink:href="#d92">
<tspan dy="0em">140mm</tspan>
</textPath></text>
<path d="M388.96651434267613,1630.0 L391.96651434267613,1630.0" stroke="#999999" />
<text font-size="6" stroke="none" fill="#999999"><textPath xlink:href="#d93">
<tspan dy="0em">150mm</tspan>
</textPath></text>
<path d="M388.9665143426762,1620.0000000000002 L391.9665143426762,1620.0000000000002" stroke="#999999" />
<text font-size="6" stroke="none" fill="#999999"><textPath xlink:href="#d94">
<tspan dy="0em">160mm</tspan>
</textPath></text>
<path d="M388.96651434267613,1610.0 L391.96651434267613,1610.0" stroke="#999999" />
<text font-size="6" stroke="none" fill="#999999"><textPath xlink:href="#d95">
<tspan dy="0em">170mm</tspan>
</textPath></text>
<path d="M388.96651434267613,1600.0 L391.96651434267613,1600.0" stroke="#999999" />
<text font-size="6" stroke="none" fill="#999999"><textPath xlink:href="#d96">
<tspan dy="0em">180mm</tspan>
</textPath></text>
<path d="M388.96651434267613,1590.0 L391.96651434267613,1590.0" stroke="#999999" />
<text font-size="6" stroke="none" fill="#999999"><textPath xlink:href="#d97">
<tspan dy="0em">190mm</tspan>
</textPath></text>
<path d="M388.96651434267613,1580.0 L391.96651434267613,1580.0" stroke="#999999" />
<text font-size="6" stroke="none" fill="#999999"><textPath xlink:href="#d98">
<tspan dy="0em">200mm</tspan>
</textPath></text>
<path d="M388.96651434267613,1570.0 L391.96651434267613,1570.0" stroke="#999999" />
<text font-size="6" stroke="none" fill="#999999"><textPath xlink:href="#d99">
<tspan dy="0em">210mm</tspan>
</textPath></text>
<path d="M388.9665143426761,1560.0 L391.9665143426761,1560.0" stroke="#999999" />
<text font-size="6" stroke="none" fill="#999999"><textPath xlink:href="#d100">
<tspan dy="0em">220mm</tspan>
</textPath></text>
<path d="M388.96651434267613,1550.0 L391.96651434267613,1550.0" stroke="#999999" />
<text font-size="6" stroke="none" fill="#999999"><textPath xlink:href="#d101">
<tspan dy="0em">230mm</tspan>
</textPath></text>
<path d="M388.96651434267613,1540.0 L391.96651434267613,1540.0" stroke="#999999" />
<text font-size="6" stroke="none" fill="#999999"><textPath xlink:href="#d102">
<tspan dy="0em">240mm</tspan>
</textPath></text>
<path d="M388.9665143426762,1530.0 L391.9665143426762,1530.0" stroke="#999999" />
<text font-size="6" stroke="none" fill="#999999"><textPath xlink:href="#d103">
<tspan dy="0em">250mm</tspan>
</textPath></text>
<path d="M388.96651434267613,1520.0 L391.96651434267613,1520.0" stroke="#999999" />
<text font-size="6" stroke="none" fill="#999999"><textPath xlink:href="#d104">
<tspan dy="0em">260mm</tspan>
</textPath></text>
<path d="M388.96651434267613,1510.0 L391.96651434267613,1510.0" stroke="#999999" />
<text font-size="6" stroke="none" fill="#999999"><textPath xlink:href="#d105">
<tspan dy="0em">270mm</tspan>
</textPath></text>
<path d="M388.96651434267613,1500.0 L391.96651434267613,1500.0" stroke="#999999" />
<text font-size="6" stroke="none" fill="#999999"><textPath xlink:href="#d106">
<tspan dy="0em">280mm</tspan>
</textPath></text>
<path d="M388.96651434267613,1490.0 L391.96651434267613,1490.0" stroke="#999999" />
<text font-size="6" stroke="none" fill="#999999"><textPath xlink:href="#d107">
<tspan dy="0em">290mm</tspan>
</textPath></text>
<path d="M388.9665143426761,1480.0 L391.9665143426761,1480.0" stroke="#999999" />
<text font-size="6" stroke="none" fill="#999999"><textPath xlink:href="#d108">
<tspan dy="0em">300mm</tspan>
</textPath></text>
<path d="M388.96651434267613,1470.0 L391.96651434267613,1470.0" stroke="#999999" />
<text font-size="6" stroke="none" fill="#999999"><textPath xlink:href="#d109">
<tspan dy="0em">310mm</tspan>
</textPath></text>
<path d="M388.9665143426761,1460.0 L391.9665143426761,1460.0" stroke="#999999" />
<text font-size="6" stroke="none" fill="#999999"><textPath xlink:href="#d110">
<tspan dy="0em">320mm</tspan>
</textPath></text>
<path d="M388.96651434267613,1450.0000000000002 L391.96651434267613,1450.0000000000002" stroke="#999999" />
<text font-size="6" stroke="none" fill="#999999"><textPath xlink:href="#d111">
<tspan dy="0em">330mm</tspan>
</textPath></text>
<path d="M388.96651434267613,1439.9999999999998 L391.96651434267613,1439.9999999999998" stroke="#999999" />
<text font-size="6" stroke="none" fill="#999999"><textPath xlink:href="#d112">
<tspan dy="0em">340mm</tspan>
</textPath></text>
<path d="M388.96651434267613,1429.9999999999998 L391.96651434267613,1429.9999999999998" stroke="#999999" />
<text font-size="6" stroke="none" fill="#999999"><textPath xlink:href="#d113">
<tspan dy="0em">350mm</tspan>
</textPath></text>
<path d="M388.96651434267613,1420.0 L391.96651434267613,1420.0" stroke="#999999" />
<text font-size="6" stroke="none" fill="#999999"><textPath xlink:href="#d114">
<tspan dy="0em">360mm</tspan>
</textPath></text>
<path d="M388.9665143426762,1410.0 L391.9665143426762,1410.0" stroke="#999999" />
<text font-size="6" stroke="none" fill="#999999"><textPath xlink:href="#d115">
<tspan dy="0em">370mm</tspan>
</textPath></text>
<path d="M388.96651434267613,1400.0 L391.96651434267613,1400.0" stroke="#999999" />
<text font-size="6" stroke="none" fill="#999999"><textPath xlink:href="#d116">
<tspan dy="0em">380mm</tspan>
</textPath></text>
<path d="M388.9665143426761,1390.0 L391.9665143426761,1390.0" stroke="#999999" />
<text font-size="6" stroke="none" fill="#999999"><textPath xlink:href="#d117">
<tspan dy="0em">390mm</tspan>
</textPath></text>
<path d="M388.96651434267613,1380.0 L391.96651434267613,1380.0" stroke="#999999" />
<text font-size="6" stroke="none" fill="#999999"><textPath xlink:href="#d118">
<tspan dy="0em">400mm</tspan>
</textPath></text>
<path d="M388.96651434267613,1370.0000000000002 L391.96651434267613,1370.0000000000002" stroke="#999999" />
<text font-size="6" stroke="none" fill="#999999"><textPath xlink:href="#d119">
<tspan dy="0em">410mm</tspan>
</textPath></text>
<path d="M388.96651434267613,1360.0 L391.96651434267613,1360.0" stroke="#999999" />
<text font-size="6" stroke="none" fill="#999999"><textPath xlink:href="#d120">
<tspan dy="0em">420mm</tspan>
</textPath></text>
<path d="M388.96651434267613,1349.9999999999998 L391.96651434267613,1349.9999999999998" stroke="#999999" />
<text font-size="6" stroke="none" fill="#999999"><textPath xlink:href="#d121">
<tspan dy="0em">430mm</tspan>
</textPath></text>
<path d="M388.9665143426762,1340.0 L391.9665143426762,1340.0" stroke="#999999" />
<text font-size="6" stroke="none" fill="#999999"><textPath xlink:href="#d122">
<tspan dy="0em">440mm</tspan>
</textPath></text>
<path d="M388.96651434267613,1330.0 L391.96651434267613,1330.0" stroke="#999999" />
<text font-size="6" stroke="none" fill="#999999"><textPath xlink:href="#d123">
<tspan dy="0em">450mm</tspan>
</textPath></text>
<path d="M388.96651434267613,1320.0 L391.96651434267613,1320.0" stroke="#999999" />
<text font-size="6" stroke="none" fill="#999999"><textPath xlink:href="#d124">
<tspan dy="0em">460mm</tspan>
</textPath></text>
<path d="M388.96651434267613,1310.0 L391.96651434267613,1310.0" stroke="#999999" />
<text font-size="6" stroke="none" fill="#999999"><textPath xlink:href="#d125">
<tspan dy="0em">470mm</tspan>
</textPath></text>
<path d="M388.9665143426761,1300.0 L391.9665143426761,1300.0" stroke="#999999" />
<text font-size="6" stroke="none" fill="#999999"><textPath xlink:href="#d126">
<tspan dy="0em">480mm</tspan>
</textPath></text>
<path d="M388.96651434267613,1289.9999999999998 L391.96651434267613,1289.9999999999998" stroke="#999999" />
<text font-size="6" stroke="none" fill="#999999"><textPath xlink:href="#d127">
<tspan dy="0em">490mm</tspan>
</textPath></text>
<path d="M388.96651434267613,1280.0 L391.96651434267613,1280.0" stroke="#999999" />
<text font-size="6" stroke="none" fill="#999999"><textPath xlink:href="#d128">
<tspan dy="0em">500mm</tspan>
</textPath></text>
<path d="M388.9665143426761,1270.0 L391.9665143426761,1270.0" stroke="#999999" />
<text font-size="6" stroke="none" fill="#999999"><textPath xlink:href="#d129">
<tspan dy="0em">510mm</tspan>
</textPath></text>
<path d="M388.96651434267613,1259.9999999999998 L391.96651434267613,1259.9999999999998" stroke="#999999" />
<text font-size="6" stroke="none" fill="#999999"><textPath xlink:href="#d130">
<tspan dy="0em">520mm</tspan>
</textPath></text>
<path d="M388.96651434267613,1250.0 L391.96651434267613,1250.0" stroke="#999999" />
<text font-size="6" stroke="none" fill="#999999"><textPath xlink:href="#d131">
<tspan dy="0em">530mm</tspan>
</textPath></text>
<path d="M388.9665143426762,1240.0000000000002 L391.9665143426762,1240.0000000000002" stroke="#999999" />
<text font-size="6" stroke="none" fill="#999999"><textPath xlink:href="#d132">
<tspan dy="0em">540mm</tspan>
</textPath></text>
<path d="M388.96651434267613,1230.0 L391.96651434267613,1230.0" stroke="#999999" />
<text font-size="6" stroke="none" fill="#999999"><textPath xlink:href="#d133">
<tspan dy="0em">550mm</tspan>
</textPath></text>
<path d="M388.9665143426761,1220.0 L391.9665143426761,1220.0" stroke="#999999" />
<text font-size="6" stroke="none" fill="#999999"><textPath xlink:href="#d134">
<tspan dy="0em">560mm</tspan>
</textPath></text>
<path d="M388.96651434267613,1210.0 L391.96651434267613,1210.0" stroke="#999999" />
<text font-size="6" stroke="none" fill="#999999"><textPath xlink:href="#d135">
<tspan dy="0em">570mm</tspan>
</textPath></text>
<path d="M388.96651434267613,1200.0 L391.96651434267613,1200.0" stroke="#999999" />
<text font-size="6" stroke="none" fill="#999999"><textPath xlink:href="#d136">
<tspan dy="0em">580mm</tspan>
</textPath></text>
<path d="M388.96651434267613,1190.0 L391.96651434267613,1190.0" stroke="#999999" />
<text font-size="6" stroke="none" fill="#999999"><textPath xlink:href="#d137">
<tspan dy="0em">590mm</tspan>
</textPath></text>
<path d="M388.9665143426761,1180.0 L391.9665143426761,1180.0" stroke="#999999" />
<text font-size="6" stroke="none" fill="#999999"><textPath xlink:href="#d138">
<tspan dy="0em">600mm</tspan>
</textPath></text>
<path d="M388.9665143426761,1170.0 L391.9665143426761,1170.0" stroke="#999999" />
<text font-size="6" stroke="none" fill="#999999"><textPath xlink:href="#d139">
<tspan dy="0em">610mm</tspan>
</textPath></text>
<path d="M388.9665143426762,1160.0000000000002 L391.9665143426762,1160.0000000000002" stroke="#999999" />
<text font-size="6" stroke="none" fill="#999999"><textPath xlink:href="#d140">
<tspan dy="0em">620mm</tspan>
</textPath></text>
<path d="M388.96651434267613,1150.0000000000002 L391.96651434267613,1150.0000000000002" stroke="#999999" />
<text font-size="6" stroke="none" fill="#999999"><textPath xlink:href="#d141">
<tspan dy="0em">630mm</tspan>
</textPath></text>
<path d="M388.9665143426761,1139.9999999999998 L391.9665143426761,1139.9999999999998" stroke="#999999" />
<text font-size="6" stroke="none" fill="#999999"><textPath xlink:href="#d142">
<tspan dy="0em">640mm</tspan>
</textPath></text>
<path d="M388.9665143426761,1129.9999999999998 L391.9665143426761,1129.9999999999998" stroke="#999999" />
<text font-size="6" stroke="none" fill="#999999"><textPath xlink:href="#d143">
<tspan dy="0em">650mm</tspan>
</textPath></text>
<path d="M388.96651434267613,1120.0 L391.96651434267613,1120.0" stroke="#999999" />
<text font-size="6" stroke="none" fill="#999999"><textPath xlink:href="#d144">
<tspan dy="0em">660mm</tspan>
</textPath></text>
<path d="M388.9665143426762,1110.0 L391.9665143426762,1110.0" stroke="#999999" />
<text font-size="6" stroke="none" fill="#999999"><textPath xlink:href="#d145">
<tspan dy="0em">670mm</tspan>
</textPath></text>
<path d="M388.96651434267613,1100.0 L391.96651434267613,1100.0" stroke="#999999" />
<text font-size="6" stroke="none" fill="#999999"><textPath xlink:href="#d146">
<tspan dy="0em">680mm</tspan>
</textPath></text>
<path d="M388.9665143426761,1090.0 L391.9665143426761,1090.0" stroke="#999999" />
<text font-size="6" stroke="none" fill="#999999"><textPath xlink:href="#d147">
<tspan dy="0em">690mm</tspan>
</textPath></text>
<path d="M388.96651434267613,1080.0 L391.96651434267613,1080.0" stroke="#999999" />
<text font-size="6" stroke="none" fill="#999999"><textPath xlink:href="#d148">
<tspan dy="0em">700mm</tspan>
</textPath></text>
<path d="M388.9665143426762,1070.0000000000002 L391.9665143426762,1070.0000000000002" stroke="#999999" />
<text font-size="6" stroke="none" fill="#999999"><textPath xlink:href="#d149">
<tspan dy="0em">710mm</tspan>
</textPath></text>
<path d="M388.96651434267613,1060.0 L391.96651434267613,1060.0" stroke="#999999" />
<text font-size="6" stroke="none" fill="#999999"><textPath xlink:href="#d150">
<tspan dy="0em">720mm</tspan>
</textPath></text>
<path d="M388.9665143426761,1049.9999999999998 L391.9665143426761,1049.9999999999998" stroke="#999999" />
<text font-size="6" stroke="none" fill="#999999"><textPath xlink:href="#d151">
<tspan dy="0em">730mm</tspan>
</textPath></text>
<path d="M388.96651434267613,1040.0 L391.96651434267613,1040.0" stroke="#999999" />
<text font-size="6" stroke="none" fill="#999999"><textPath xlink:href="#d152">
<tspan dy="0em">740mm</tspan>
</textPath></text>
<path d="M388.9665143426762,1030.0 L391.9665143426762,1030.0" stroke="#999999" />
<text font-size="6" stroke="none" fill="#999999"><textPath xlink:href="#d153">
<tspan dy="0em">750mm</tspan>
</textPath></text>
<path d="M388.96651434267613,1020.0 L391.96651434267613,1020.0" stroke="#999999" />
<text font-size="6" stroke="none" fill="#999999"><textPath xlink:href="#d154">
<tspan dy="0em">760mm</tspan>
</textPath></text>
<path d="M388.96651434267613,1009.9999999999999 L391.96651434267613,1009.9999999999999" stroke="#999999" />
<text font-size="6" stroke="none" fill="#999999"><textPath xlink:href="#d155">
<tspan dy="0em">770mm</tspan>
</textPath></text>
<path d="M388.96651434267613,1000.0 L391.96651434267613,1000.0" stroke="#999999" />
<text font-size="6" stroke="none" fill="#999999"><textPath xlink:href="#d156">
<tspan dy="0em">780mm</tspan>
</textPath></text>
<path d="M388.9665143426762,990.0000000000001 L391.9665143426762,990.0000000000001" stroke="#999999" />
<text font-size="6" stroke="none" fill="#999999"><textPath xlink:href="#d157">
<tspan dy="0em">790mm</tspan>
</textPath></text>
<path d="M388.96651434267613,980.0000000000001 L391.96651434267613,980.0000000000001" stroke="#999999" />
<text font-size="6" stroke="none" fill="#999999"><textPath xlink:href="#d158">
<tspan dy="0em">800mm</tspan>
</textPath></text>
<path d="M388.9665143426761,969.9999999999999 L391.9665143426761,969.9999999999999" stroke="#999999" />
<text font-size="6" stroke="none" fill="#999999"><textPath xlink:href="#d159">
<tspan dy="0em">810mm</tspan>
</textPath></text>
<path d="M388.96651434267613,960.0 L391.96651434267613,960.0" stroke="#999999" />
<text font-size="6" stroke="none" fill="#999999"><textPath xlink:href="#d160">
<tspan dy="0em">820mm</tspan>
</textPath></text>
<path d="M388.96651434267613,950.0000000000001 L391.96651434267613,950.0000000000001" stroke="#999999" />
<text font-size="6" stroke="none" fill="#999999"><textPath xlink:href="#d161">
<tspan dy="0em">830mm</tspan>
</textPath></text>
<path d="M388.9665143426762,940.0000000000001 L391.9665143426762,940.0000000000001" stroke="#999999" />
<text font-size="6" stroke="none" fill="#999999"><textPath xlink:href="#d162">
<tspan dy="0em">840mm</tspan>
</textPath></text>
<path d="M388.96651434267613,929.9999999999999 L391.96651434267613,929.9999999999999" stroke="#999999" />
<text font-size="6" stroke="none" fill="#999999"><textPath xlink:href="#d163">
<tspan dy="0em">850mm</tspan>
</textPath></text>
<path d="M388.96651434267613,919.9999999999999 L391.96651434267613,919.9999999999999" stroke="#999999" />
<text font-size="6" stroke="none" fill="#999999"><textPath xlink:href="#d164">
<tspan dy="0em">860mm</tspan>
</textPath></text>
<path d="M388.96651434267613,910.0 L391.96651434267613,910.0" stroke="#999999" />
<text font-size="6" stroke="none" fill="#999999"><textPath xlink:href="#d165">
<tspan dy="0em">870mm</tspan>
</textPath></text>
<path d="M388.9665143426762,900.0 L391.9665143426762,900.0" stroke="#999999" />
<text font-size="6" stroke="none" fill="#999999"><textPath xlink:href="#d166">
<tspan dy="0em">880mm</tspan>
</textPath></text>
<path d="M388.96651434267613,890.0 L391.96651434267613,890.0" stroke="#999999" />
<text font-size="6" stroke="none" fill="#999999"><textPath xlink:href="#d167">
<tspan dy="0em">890mm</tspan>
</textPath></text>
<path d="M388.9665143426761,879.9999999999999 L391.9665143426761,879.9999999999999" stroke="#999999" />
<text font-size="6" stroke="none" fill="#999999"><textPath xlink:href="#d168">
<tspan dy="0em">900mm</tspan>
</textPath></text>
<path d="M388.96651434267613,870.0 L391.96651434267613,870.0" stroke="#999999" />
<text font-size="6" stroke="none" fill="#999999"><textPath xlink:href="#d169">
<tspan dy="0em">910mm</tspan>
</textPath></text>
<path d="M388.96651434267613,860.0 L391.96651434267613,860.0" stroke="#999999" />
<text font-size="6" stroke="none" fill="#999999"><textPath xlink:href="#d170">
<tspan dy="0em">920mm</tspan>
</textPath></text>
<path d="M388.96651434267613,850.0 L391.96651434267613,850.0" stroke="#999999" />
<text font-size="6" stroke="none" fill="#999999"><textPath xlink:href="#d171">
<tspan dy="0em">930mm</tspan>
</textPath></text>
<path d="M388.96651434267613,839.9999999999999 L391.96651434267613,839.9999999999999" stroke="#999999" />
<text font-size="6" stroke="none" fill="#999999"><textPath xlink:href="#d172">
<tspan dy="0em">940mm</tspan>
</textPath></text>
<path d="M388.96651434267613,830.0000000000001 L391.96651434267613,830.0000000000001" stroke="#999999" />
<text font-size="6" stroke="none" fill="#999999"><textPath xlink:href="#d173">
<tspan dy="0em">950mm</tspan>
</textPath></text>
<path d="M388.96651434267613,819.9999999999999 L391.96651434267613,819.9999999999999" stroke="#999999" />
<text font-size="6" stroke="none" fill="#999999"><textPath xlink:href="#d174">
<tspan dy="0em">960mm</tspan>
</textPath></text>
<path d="M388.96651434267613,810.0 L391.96651434267613,810.0" stroke="#999999" />
<text font-size="6" stroke="none" fill="#999999"><textPath xlink:href="#d175">
<tspan dy="0em">970mm</tspan>
</textPath></text>
<path d="M388.96651434267613,800.0 L391.96651434267613,800.0" stroke="#999999" />
<text font-size="6" stroke="none" fill="#999999"><textPath xlink:href="#d176">
<tspan dy="0em">980mm</tspan>
</textPath></text>
<path d="M388.96651434267613,790.0000000000001 L391.96651434267613,790.0000000000001" stroke="#999999" />
<text font-size="6" stroke="none" fill="#999999"><textPath xlink:href="#d177">
<tspan dy="0em">990mm</tspan>
</textPath></text>
<path d="M388.96651434267613,779.9999999999999 L391.96651434267613,779.9999999999999" stroke="#999999" />
<text font-size="6" stroke="none" fill="#999999"><textPath xlink:href="#d178">
<tspan dy="0em">1000mm</tspan>
</textPath></text>
<path d="M388.96651434267613,770.0 L391.96651434267613,770.0" stroke="#999999" />
<text font-size="6" stroke="none" fill="#999999"><textPath xlink:href="#d179">
<tspan dy="0em">1010mm</tspan>
</textPath></text>
<path d="M388.96651434267613,760.0 L391.96651434267613,760.0" stroke="#999999" />
<text font-size="6" stroke="none" fill="#999999"><textPath xlink:href="#d180">
<tspan dy="0em">1020mm</tspan>
</textPath></text>
<path d="M388.96651434267613,750.0 L391.96651434267613,750.0" stroke="#999999" />
<text font-size="6" stroke="none" fill="#999999"><textPath xlink:href="#d181">
<tspan dy="0em">1030mm</tspan>
</textPath></text>
<path d="M388.96651434267613,739.9999999999999 L391.96651434267613,739.9999999999999" stroke="#999999" />
<text font-size="6" stroke="none" fill="#999999"><textPath xlink:href="#d182">
<tspan dy="0em">1040mm</tspan>
</textPath></text>
<path d="M388.96651434267613,730.0000000000001 L391.96651434267613,730.0000000000001" stroke="#999999" />
<text font-size="6" stroke="none" fill="#999999"><textPath xlink:href="#d183">
<tspan dy="0em">1050mm</tspan>
</textPath></text>
<path d="M388.96651434267613,720.0 L391.96651434267613,720.0" stroke="#999999" />
<text font-size="6" stroke="none" fill="#999999"><textPath xlink:href="#d184">
<tspan dy="0em">1060mm</tspan>
</textPath></text>
<path d="M388.96651434267613,710.0 L391.96651434267613,710.0" stroke="#999999" />
<text font-size="6" stroke="none" fill="#999999"><textPath xlink:href="#d185">
<tspan dy="0em">1070mm</tspan>
</textPath></text>
<path d="M388.96651434267613,700.0 L391.96651434267613,700.0" stroke="#999999" />
<text font-size="6" stroke="none" fill="#999999"><textPath xlink:href="#d186">
<tspan dy="0em">1080mm</tspan>
</textPath></text>
<path d="M388.96651434267613,690.0000000000001 L391.96651434267613,690.0000000000001" stroke="#999999" />
<text font-size="6" stroke="none" fill="#999999"><textPath xlink:href="#d187">
<tspan dy="0em">1090mm</tspan>
</textPath></text>
<path d="M388.96651434267613,680.0 L391.96651434267613,680.0" stroke="#999999" />
<text font-size="6" stroke="none" fill="#999999"><textPath xlink:href="#d188">
<tspan dy="0em">1100mm</tspan>
</textPath></text>
<path d="M388.96651434267613,669.9999999999999 L391.96651434267613,669.9999999999999" stroke="#999999" />
<text font-size="6" stroke="none" fill="#999999"><textPath xlink:href="#d189">
<tspan dy="0em">1110mm</tspan>
</textPath></text>
<path d="M388.96651434267613,660.0 L391.96651434267613,660.0" stroke="#999999" />
<text font-size="6" stroke="none" fill="#999999"><textPath xlink:href="#d190">
<tspan dy="0em">1120mm</tspan>
</textPath></text>
<path d="M388.96651434267613,649.9999999999999 L391.96651434267613,649.9999999999999" stroke="#999999" />
<text font-size="6" stroke="none" fill="#999999"><textPath xlink:href="#d191">
<tspan dy="0em">1130mm</tspan>
</textPath></text>
<path d="M388.96651434267613,640.0000000000001 L391.96651434267613,640.0000000000001" stroke="#999999" />
<text font-size="6" stroke="none" fill="#999999"><textPath xlink:href="#d192">
<tspan dy="0em">1140mm</tspan>
</textPath></text>
<path d="M388.96651434267613,629.9999999999999 L391.96651434267613,629.9999999999999" stroke="#999999" />
<text font-size="6" stroke="none" fill="#999999"><textPath xlink:href="#d193">
<tspan dy="0em">1150mm</tspan>
</textPath></text>
<path d="M388.96651434267613,620.0 L391.96651434267613,620.0" stroke="#999999" />
<text font-size="6" stroke="none" fill="#999999"><textPath xlink:href="#d194">
<tspan dy="0em">1160mm</tspan>
</textPath></text>
<path d="M388.96651434267613,610.0 L391.96651434267613,610.0" stroke="#999999" />
<text font-size="6" stroke="none" fill="#999999"><textPath xlink:href="#d195">
<tspan dy="0em">1170mm</tspan>
</textPath></text>
<path d="M388.96651434267613,600.0 L391.96651434267613,600.0" stroke="#999999" />
<text font-size="6" stroke="none" fill="#999999"><textPath xlink:href="#d196">
<tspan dy="0em">1180mm</tspan>
</textPath></text>
<path d="M388.96651434267613,589.9999999999999 L391.96651434267613,589.9999999999999" stroke="#999999" />
<text font-size="6" stroke="none" fill="#999999"><textPath xlink:href="#d197">
<tspan dy="0em">1190mm</tspan>
</textPath></text>
<path d="M388.9665143426761,580.0000000000001 L391.9665143426761,580.0000000000001" stroke="#999999" />
<text font-size="6" stroke="none" fill="#999999"><textPath xlink:href="#d198">
<tspan dy="0em">1200mm</tspan>
</textPath></text>
<path d="M388.96651434267613,570.0 L391.96651434267613,570.0" stroke="#999999" />
<text font-size="6" stroke="none" fill="#999999"><textPath xlink:href="#d199">
<tspan dy="0em">1210mm</tspan>
</textPath></text>
<path d="M388.96651434267613,560.0 L391.96651434267613,560.0" stroke="#999999" />
<text font-size="6" stroke="none" fill="#999999"><textPath xlink:href="#d200">
<tspan dy="0em">1220mm</tspan>
</textPath></text>
<path d="M388.96651434267613,550.0 L391.96651434267613,550.0" stroke="#999999" />
<text font-size="6" stroke="none" fill="#999999"><textPath xlink:href="#d201">
<tspan dy="0em">1230mm</tspan>
</textPath></text>
<path d="M388.96651434267613,540.0000000000001 L391.96651434267613,540.0000000000001" stroke="#999999" />
<text font-size="6" stroke="none" fill="#999999"><textPath xlink:href="#d202">
<tspan dy="0em">1240mm</tspan>
</textPath></text>
<path d="M388.96651434267613,530.0 L391.96651434267613,530.0" stroke="#999999" />
<text font-size="6" stroke="none" fill="#999999"><textPath xlink:href="#d203">
<tspan dy="0em">1250mm</tspan>
</textPath></text>
<path d="M388.96651434267613,520.0 L391.96651434267613,520.0" stroke="#999999" />
<text font-size="6" stroke="none" fill="#999999"><textPath xlink:href="#d204">
<tspan dy="0em">1260mm</tspan>
</textPath></text>
<path d="M388.9665143426761,510.0 L391.9665143426761,510.0" stroke="#999999" />
<text font-size="6" stroke="none" fill="#999999"><textPath xlink:href="#d205">
<tspan dy="0em">1270mm</tspan>
</textPath></text>
<path d="M388.9665143426761,500.0000000000001 L391.9665143426761,500.0000000000001" stroke="#999999" />
<text font-size="6" stroke="none" fill="#999999"><textPath xlink:href="#d206">
<tspan dy="0em">1280mm</tspan>
</textPath></text>
<path d="M388.96651434267613,489.99999999999994 L391.96651434267613,489.99999999999994" stroke="#999999" />
<text font-size="6" stroke="none" fill="#999999"><textPath xlink:href="#d207">
<tspan dy="0em">1290mm</tspan>
</textPath></text>
<path d="M388.96651434267613,479.9999999999999 L391.96651434267613,479.9999999999999" stroke="#999999" />
<text font-size="6" stroke="none" fill="#999999"><textPath xlink:href="#d208">
<tspan dy="0em">1300mm</tspan>
</textPath></text>
<path d="M388.96651434267613,470.0 L391.96651434267613,470.0" stroke="#999999" />
<text font-size="6" stroke="none" fill="#999999"><textPath xlink:href="#d209">
<tspan dy="0em">1310mm</tspan>
</textPath></text>
<path d="M388.96651434267613,459.9999999999999 L391.96651434267613,459.9999999999999" stroke="#999999" />
<text font-size="6" stroke="none" fill="#999999"><textPath xlink:href="#d210">
<tspan dy="0em">1320mm</tspan>
</textPath></text>
<path d="M388.96651434267613,450.0 L391.96651434267613,450.0" stroke="#999999" />
<text font-size="6" stroke="none" fill="#999999"><textPath xlink:href="#d211">
<tspan dy="0em">1330mm</tspan>
</textPath></text>
<path d="M388.96651434267613,439.9999999999999 L391.96651434267613,439.9999999999999" stroke="#999999" />
<text font-size="6" stroke="none" fill="#999999"><textPath xlink:href="#d212">
<tspan dy="0em">1340mm</tspan>
</textPath></text>
<path d="M388.96651434267613,430.00000000000006 L391.96651434267613,430.00000000000006" stroke="#999999" />
<text font-size="6" stroke="none" fill="#999999"><textPath xlink:href="#d213">
<tspan dy="0em">1350mm</tspan>
</textPath></text>
<path d="M388.9665143426761,419.99999999999994 L391.9665143426761,419.99999999999994" stroke="#999999" />
<text font-size="6" stroke="none" fill="#999999"><textPath xlink:href="#d214">
<tspan dy="0em">1360mm</tspan>
</textPath></text>
<path d="M388.9665143426761,410.00000000000006 L391.9665143426761,410.00000000000006" stroke="#999999" />
<text font-size="6" stroke="none" fill="#999999"><textPath xlink:href="#d215">
<tspan dy="0em">1370mm</tspan>
</textPath></text>
<path d="M388.96651434267613,399.99999999999994 L391.96651434267613,399.99999999999994" stroke="#999999" />
<text font-size="6" stroke="none" fill="#999999"><textPath xlink:href="#d216">
<tspan dy="0em">1380mm</tspan>
</textPath></text>
<path d="M388.96651434267613,390.00000000000006 L391.96651434267613,390.00000000000006" stroke="#999999" />
<text font-size="6" stroke="none" fill="#999999"><textPath xlink:href="#d217">
<tspan dy="0em">1390mm</tspan>
</textPath></text>
<path d="M388.96651434267613,379.99999999999994 L391.96651434267613,379.99999999999994" stroke="#999999" />
<text font-size="6" stroke="none" fill="#999999"><textPath xlink:href="#d218">
<tspan dy="0em">1400mm</tspan>
</textPath></text>
<path d="M388.96651434267613,370.0000000000001 L391.96651434267613,370.0000000000001" stroke="#999999" />
<text font-size="6" stroke="none" fill="#999999"><textPath xlink:href="#d219">
<tspan dy="0em">1410mm</tspan>
</textPath></text>
<path d="M388.96651434267613,359.99999999999994 L391.96651434267613,359.99999999999994" stroke="#999999" />
<text font-size="6" stroke="none" fill="#999999"><textPath xlink:href="#d220">
<tspan dy="0em">1420mm</tspan>
</textPath></text>
<path d="M388.96651434267613,350.0000000000001 L391.96651434267613,350.0000000000001" stroke="#999999" />
<text font-size="6" stroke="none" fill="#999999"><textPath xlink:href="#d221">
<tspan dy="0em">1430mm</tspan>
</textPath></text>
<path d="M388.96651434267613,340.0 L391.96651434267613,340.0" stroke="#999999" />
<text font-size="6" stroke="none" fill="#999999"><textPath xlink:href="#d222">
<tspan dy="0em">1440mm</tspan>
</textPath></text>
<path d="M388.96651434267613,330.0000000000001 L391.96651434267613,330.0000000000001" stroke="#999999" />
<text font-size="6" stroke="none" fill="#999999"><textPath xlink:href="#d223">
<tspan dy="0em">1450mm</tspan>
</textPath></text>
<path d="M388.9665143426761,320.0 L391.9665143426761,320.0" stroke="#999999" />
<text font-size="6" stroke="none" fill="#999999"><textPath xlink:href="#d224">
<tspan dy="0em">1460mm</tspan>
</textPath></text>
<path d="M388.9665143426761,310.00000000000006 L391.9665143426761,310.00000000000006" stroke="#999999" />
<text font-size="6" stroke="none" fill="#999999"><textPath xlink:href="#d225">
<tspan dy="0em">1470mm</tspan>
</textPath></text>
<path d="M388.96651434267613,300.0 L391.96651434267613,300.0" stroke="#999999" />
<text font-size="6" stroke="none" fill="#999999"><textPath xlink:href="#d226">
<tspan dy="0em">1480mm</tspan>
</textPath></text>
<path d="M388.96651434267613,289.9999999999999 L391.96651434267613,289.9999999999999" stroke="#999999" />
<text font-size="6" stroke="none" fill="#999999"><textPath xlink:href="#d227">
<tspan dy="0em">1490mm</tspan>
</textPath></text>
<path d="M388.96651434267613,280.0 L391.96651434267613,280.0" stroke="#999999" />
<text font-size="6" stroke="none" fill="#999999"><textPath xlink:href="#d228">
<tspan dy="0em">1500mm</tspan>
</textPath></text>
<path d="M388.96651434267613,269.9999999999999 L391.96651434267613,269.9999999999999" stroke="#999999" />
<text font-size="6" stroke="none" fill="#999999"><textPath xlink:href="#d229">
<tspan dy="0em">1510mm</tspan>
</textPath></text>
<path d="M388.96651434267613,260.00000000000006 L391.96651434267613,260.00000000000006" stroke="#999999" />
<text font-size="6" stroke="none" fill="#999999"><textPath xlink:href="#d230">
<tspan dy="0em">1520mm</tspan>
</textPath></text>
<path d="M388.96651434267613,249.99999999999994 L391.96651434267613,249.99999999999994" stroke="#999999" />
<text font-size="6" stroke="none" fill="#999999"><textPath xlink:href="#d231">
<tspan dy="0em">1530mm</tspan>
</textPath></text>
<path d="M388.96651434267613,240.00000000000003 L391.96651434267613,240.00000000000003" stroke="#999999" />
<text font-size="6" stroke="none" fill="#999999"><textPath xlink:href="#d232">
<tspan dy="0em">1540mm</tspan>
</textPath></text>
<path d="M388.96651434267613,229.99999999999994 L391.96651434267613,229.99999999999994" stroke="#999999" />
<text font-size="6" stroke="none" fill="#999999"><textPath xlink:href="#d233">
<tspan dy="0em">1550mm</tspan>
</textPath></text>
<path d="M388.96651434267613,220.00000000000003 L391.96651434267613,220.00000000000003" stroke="#999999" />
<text font-size="6" stroke="none" fill="#999999"><textPath xlink:href="#d234">
<tspan dy="0em">1560mm</tspan>
</textPath></text>
<path d="M388.96651434267613,209.99999999999994 L391.96651434267613,209.99999999999994" stroke="#999999" />
<text font-size="6" stroke="none" fill="#999999"><textPath xlink:href="#d235">
<tspan dy="0em">1570mm</tspan>
</textPath></text>
<path d="M388.96651434267613,200.00000000000006 L391.96651434267613,200.00000000000006" stroke="#999999" />
<text font-size="6" stroke="none" fill="#999999"><textPath xlink:href="#d236">
<tspan dy="0em">1580mm</tspan>
</textPath></text>
<path d="M388.96651434267613,189.99999999999997 L391.96651434267613,189.99999999999997" stroke="#999999" />
<text font-size="6" stroke="none" fill="#999999"><textPath xlink:href="#d237">
<tspan dy="0em">1590mm</tspan>
</textPath></text>
<path d="M388.96651434267613,180.00000000000006 L391.96651434267613,180.00000000000006" stroke="#999999" />
<text font-size="6" stroke="none" fill="#999999"><textPath xlink:href="#d238">
<tspan dy="0em">1600mm</tspan>
</textPath></text>
<path d="M388.96651434267613,169.99999999999997 L391.96651434267613,169.99999999999997" stroke="#999999" />
<text font-size="6" stroke="none" fill="#999999"><textPath xlink:href="#d239">
<tspan dy="0em">1610mm</tspan>
</textPath></text>
<path d="M388.96651434267613,160.00000000000009 L391.96651434267613,160.00000000000009" stroke="#999999" />
<text font-size="6" stroke="none" fill="#999999"><textPath xlink:href="#d240">
<tspan dy="0em">1620mm</tspan>
</textPath></text>
<path d="M388.96651434267613,150.0 L391.96651434267613,150.0" stroke="#999999" />
<text font-size="6" stroke="none" fill="#999999"><textPath xlink:href="#d241">
<tspan dy="0em">1630mm</tspan>
</textPath></text>
<path d="M388.96651434267613,140.00000000000009 L391.96651434267613,140.00000000000009" stroke="#999999" />
<text font-size="6" stroke="none" fill="#999999"><textPath xlink:href="#d242">
<tspan dy="0em">1640mm</tspan>
</textPath></text>
<path d="M388.96651434267613,130.0 L391.96651434267613,130.0" stroke="#999999" />
<text font-size="6" stroke="none" fill="#999999"><textPath xlink:href="#d243">
<tspan dy="0em">1650mm</tspan>
</textPath></text>
<path d="M388.96651434267613,120.0000000000001 L391.96651434267613,120.0000000000001" stroke="#999999" />
<text font-size="6" stroke="none" fill="#999999"><textPath xlink:href="#d244">
<tspan dy="0em">1660mm</tspan>
</textPath></text>
<path d="M388.96651434267613,110.00000000000001 L391.96651434267613,110.00000000000001" stroke="#999999" />
<text font-size="6" stroke="none" fill="#999999"><textPath xlink:href="#d245">
<tspan dy="0em">1670mm</tspan>
</textPath></text>
<path d="M388.96651434267613,99.99999999999991 L391.96651434267613,99.99999999999991" stroke="#999999" />
<text font-size="6" stroke="none" fill="#999999"><textPath xlink:href="#d246">
<tspan dy="0em">1680mm</tspan>
</textPath></text>
<path d="M388.96651434267613,90.00000000000003 L391.96651434267613,90.00000000000003" stroke="#999999" />
<text font-size="6" stroke="none" fill="#999999"><textPath xlink:href="#d247">
<tspan dy="0em">1690mm</tspan>
</textPath></text>
<path d="M388.96651434267613,79.99999999999991 L391.96651434267613,79.99999999999991" stroke="#999999" />
<text font-size="6" stroke="none" fill="#999999"><textPath xlink:href="#d248">
<tspan dy="0em">1700mm</tspan>
</textPath></text>
<path d="M388.96651434267613,70.00000000000003 L391.96651434267613,70.00000000000003" stroke="#999999" />
<text font-size="6" stroke="none" fill="#999999"><textPath xlink:href="#d249">
<tspan dy="0em">1710mm</tspan>
</textPath></text>
<path d="M388.96651434267613,59.99999999999993 L391.96651434267613,59.99999999999993" stroke="#999999" />
<text font-size="6" stroke="none" fill="#999999"><textPath xlink:href="#d250">
<tspan dy="0em">1720mm</tspan>
</textPath></text>
<path d="M388.96651434267613,50.00000000000004 L391.96651434267613,50.00000000000004" stroke="#999999" />
<text font-size="6" stroke="none" fill="#999999"><textPath xlink:href="#d251">
<tspan dy="0em">1730mm</tspan>
</textPath></text>
<path d="M388.96651434267613,39.99999999999994 L391.96651434267613,39.99999999999994" stroke="#999999" />
<text font-size="6" stroke="none" fill="#999999"><textPath xlink:href="#d252">
<tspan dy="0em">1740mm</tspan>
</textPath></text>
<path d="M388.96651434267613,30.000000000000046 L391.96651434267613,30.000000000000046" stroke="#999999" />
<text font-size="6" stroke="none" fill="#999999"><textPath xlink:href="#d253">
<tspan dy="0em">1750mm</tspan>
</textPath></text>
<path d="M388.96651434267613,19.99999999999995 L391.96651434267613,19.99999999999995" stroke="#999999" />
<text font-size="6" stroke="none" fill="#999999"><textPath xlink:href="#d254">
<tspan dy="0em">1760mm</tspan>
</textPath></text>
<path d="M388.96651434267613,10.000000000000057 L391.96651434267613,10.000000000000057" stroke="#999999" />
<text font-size="6" stroke="none" fill="#999999"><textPath xlink:href="#d255">
<tspan dy="0em">1770mm</tspan>
</textPath></text>
<path d="M388.96651434267613,-4.263256414560601e-14 L391.96651434267613,-4.263256414560601e-14" stroke="#999999" />
<text font-size="6" stroke="none" fill="#999999"><textPath xlink:href="#d256">
<tspan dy="0em">1780mm</tspan>
</textPath></text>
<path d="M388.96651434267613,-9.999999999999932 L391.96651434267613,-9.999999999999932" stroke="#999999" />
<text font-size="6" stroke="none" fill="#999999"><textPath xlink:href="#d257">
<tspan dy="0em">1790mm</tspan>
</textPath></text>
<path d="M388.96651434267613,-20.000000000000025 L391.96651434267613,-20.000000000000025" stroke="#999999" />
<text font-size="6" stroke="none" fill="#999999"><textPath xlink:href="#d258">
<tspan dy="0em">1800mm</tspan>
</textPath></text>
<path d="M388.96651434267613,-29.99999999999992 L391.96651434267613,-29.99999999999992" stroke="#999999" />
<text font-size="6" stroke="none" fill="#999999"><textPath xlink:href="#d259">
<tspan dy="0em">1810mm</tspan>
</textPath></text>
</g>
</svg>
