<?xml version="1.0" encoding="UTF-8"?>
<svg xmlns="http://www.w3.org/2000/svg" xmlns:xlink="http://www.w3.org/1999/xlink"
     width="639.970954436438" height="1936.6999999999955" viewBox="-75.0 -125.0 639.970954436438 1936.6999999999955" stroke="black" fill="none">
<defs>
<path d="M274.08712877233444,1707.1028500029022 L274.28306078675087,1689.8028500029022 L274.9954287292621,1672.5028500029023 L276.2179271785928,1655.2028500029023 L277.9535159168533,1637.9028500029024 L280.2165934121662,1620.6028500029024 L282.9557921647357,1603.3028500029025 L286.1294659587772,1586.0028500029025 L289.7303248573996,1568.7028500029026 L293.71507908598096,1551.4028500029026 L298.03362633316124,1534.1028500029026 L302.6493827596257,1516.8028500029027 L307.5501557532181,1499.5028500029027 L312.65143680127994,1482.2028500029028 L317.9061877512556,1464.9028500029028 L323.2696534784031,1447.6028500029029 L328.6920694400768,1430.302850002903 L334.1178704671676,1413.002850002903 L339.4953239810741,1395.702850002903 L344.7674242278731,1378.402850002903 L349.8809075257576,1361.102850002903 L354.7961249748647,1343.8028500029031 L359.4703071201711,1326.5028500029032 L363.8386963864767,1309.2028500029032 L367.86552938134184,1291.9028500029033 L371.5087021619901,1274.6028500029033 L374.7479288777547,1257.3028500029034 L377.5181942267277,1240.0028500029034 L379.8299149047573,1222.7028500029035 L381.66301067201067,1205.4028500029035 L382.9836566940078,1188.1028500029036 L383.7367058613996,1170.8028500029036 L383.968734389557,1153.5028500029036 L383.68235738560793,1136.2028500029037 L382.8485314996274,1118.9028500029037 L381.4914678412282,1101.6028500029038 L379.63898045397,1084.3028500029038 L377.2927951550507,1067.0028500029039 L374.43564146634276,1049.702850002904 L371.15101839525084,1032.402850002904 L367.46928836320717,1015.102850002904 L363.4145623600522,997.802850002904 L359.01264970005155,980.5028500029041 L354.3246869007583,963.2028500029041 L349.3854827660829,945.9028500029042 L344.2440432345593,928.6028500029042 L338.95593595876005,911.3028500029043 L333.5751822051126,894.0028500029043 L328.14856668141607,876.7028500029044 L322.7282342910306,859.4028500029044 L317.372524146328,842.1028500029045 L312.1306149989111,824.8028500029045 L307.04997080004637,807.5028500029046 L302.1940637268548,790.2028500029046 L297.59273798046564,772.9028500029046 L293.2860432392388,755.6028500029047 L289.3349619648532,738.3028500029047 L285.79525169270966,721.0028500029048 L282.66624727582644,703.7028500029048 L279.97443304463087,686.4028500029049 L277.7767920620877,669.1028500029049 L276.07469180086173,651.802850002905 L274.8746501848574,634.502850002905 L274.1194281959665,617.202850002905 L273.441807101453,599.9028500029051 L272.76423999202933,582.6028500029051 L272.0866728826057,565.3028500029052 L271.40910577318203,548.0028500029052 L270.7315386637584,530.7028500029053 L270.0539715543348,513.4028500029053 L269.37640444491115,496.1028500029053 L268.6988373354875,478.80285000290536 L268.02127022606385,461.5028500029054 L267.3437031166402,444.20285000290545 L266.66613600721655,426.9028500029055 L265.9885688977929,409.60285000290554 L265.31100178836925,392.3028500029056 L264.6334346789456,375.00285000290563 L263.95586756952196,357.7028500029057 L263.2783004600983,340.4028500029057 L262.60073335067466,323.10285000290577 L261.923166241251,305.8028500029058 L261.24559913182736,288.50285000290586 L260.56803202240377,271.2028500029059 L259.8904649129801,253.90285000290595 L259.2569365694073,236.602850002906 L258.6888392793281,219.30285000290604 L258.1207419892488,202.0028500029061 L257.5526446991696,184.70285000290613 L256.9845474090904,167.40285000290618 L256.4164501190112,150.10285000290622 L255.848352828932,132.80285000290627 L255.2802555388528,115.50285000290633 L254.7121582487736,98.20285000290637 L254.14406095869435,80.90285000290642 L253.57596366861515,63.602850002906465 L253.00786637853594,46.30285000290651 L252.43976908845673,29.002850002906552 L251.87167179837752,11.702850002906597 L251.3035745082983,-5.597149997093357 L251.3035745082983,-5.597149997093361 L256.154287009025,-25.0 L270.7974170286447,-21.339217495095042 L271.86089717330987,11.0464439470521 L272.428994463389,28.346443947052297 L272.9970917534683,45.64644394705208 L273.5651890435475,62.946443947051804 L274.1332863336267,80.24644394705199 L274.70138362370585,97.54644394705174 L275.26948091378506,114.84644394705232 L275.8375782038643,132.14644394705203 L276.40567549394353,149.4464439470518 L276.97377278402274,166.74644394705152 L277.541870074102,184.0464439470531 L278.10996736418116,201.3464439470519 L278.67806465426054,218.64644394705255 L279.2449221292874,235.90868844147815 L279.8761378028873,253.14553548086388 L280.55271010431613,270.4201355196281 L281.2302772137397,287.7201355196266 L281.9078443231633,305.0201355196273 L282.5854114325869,322.3201355196243 L283.2629785420108,339.6201355196293 L283.94054565143426,356.92013551962737 L284.61811276085797,374.22013551962715 L285.29567987028156,391.5201355196286 L285.9732469797052,408.82013551962507 L286.650814089129,426.12013551962986 L287.32838119855245,443.4201355196232 L288.00594830797627,460.7201355196274 L288.6835154173998,478.0201355196246 L289.3610825268236,495.32013551962933 L290.0386496362467,512.6201355196265 L290.71621674567047,529.9201355196274 L291.39378385509406,547.2201355196278 L292.0713509645183,564.520135519632 L292.7489180739418,581.8201355196298 L293.4264839639958,599.1201043860389 L294.1023512325943,616.3753283473812 L294.8444421568173,633.3745327904477 L296.0068053888687,650.1313549258651 L297.6529937488461,666.8630711921589 L299.7796982405123,683.6046536426464 L302.39067047511054,700.3850908418714 L305.4351956158996,717.2180120903838 L308.8834901537155,734.0712263135046 L312.7406959182595,750.9601878641597 L316.96182662660163,767.9164770005293 L321.4869029829858,784.929795613513 L326.2733745090096,801.9824195933577 L331.2960830984339,819.0851442077785 L336.4957311774556,836.2456689779193 L341.82358633227693,853.4556918671476 L347.2327493690045,870.7200427954002 L352.665604166446,888.0399335422783 L358.06805515365676,905.4096936832968 L363.3931761767852,922.8307838570403 L368.5874522651678,940.3085691695144 L373.59324290247184,957.8417942932496 L378.3569143121525,975.4211819538999 L382.8436649706414,993.0546046015543 L386.9884620967118,1010.7389044100275 L390.75885370192856,1028.4555143196528 L394.12930788091603,1046.2075838979347 L397.07255776248,1064.028894369369 L399.4953520751766,1081.8937840815977 L401.40801328026384,1099.7557350323211 L402.8108389599362,1117.639114421411 L403.6743856479688,1135.5557537992029 L403.9709544364373,1153.4714382632678 L403.7308716245191,1171.371964026904 L402.95051911997683,1189.2992108962583 L401.58262835328503,1207.21810049241 L399.68983847336915,1225.081468848561 L397.30762794112,1242.9089869391214 L394.45473123286695,1260.7250106175304 L391.12573917490636,1278.504427637779 L387.3927223268962,1296.2310619093184 L383.275697652037,1313.9185416150506 L378.82115154539025,1331.5597459462215 L374.0700640084118,1349.1443868169852 L369.0905905983765,1366.6705473349173 L363.92329883576195,1384.1525927989558 L358.61046406858,1401.5862600605135 L353.2089402848797,1418.9636973951847 L347.77605209401355,1436.2862945993013 L342.36345780419396,1453.5549589503466 L337.02619574595644,1470.7704383259513 L331.81179884268647,1487.9375823610123 L326.7637976320209,1505.0568941812633 L321.9339236887987,1522.1066166081068 L317.39917040587625,1539.1030142829895 L313.1638165093778,1556.0697436518228 L309.26753533857067,1572.985633663679 L305.75828171435603,1589.845524430886 L302.67154827844934,1606.6716042067821 L300.0126694811655,1623.4643262207762 L297.82358686393485,1640.1986755113107 L296.1474242799143,1656.9063275398794 L294.96640053189395,1673.619404641894 L294.27839989460506,1690.327639691229 L294.08584621489615,1707.329346476559 L274.08712877233444,1707.1028500029022" fill="none" stroke="black" id="d0" />
<path d="M177.6673799281396,-5.597149997093357 L177.0992826380604,11.702850002906597 L176.5311853479812,29.002850002906552 L175.96308805790198,46.30285000290651 L175.39499076782278,63.602850002906465 L174.82689347774357,80.90285000290642 L174.25879618766433,98.20285000290637 L173.69069889758512,115.50285000290633 L173.1226016075059,132.80285000290627 L172.5545043174267,150.10285000290622 L171.9864070273475,167.40285000290618 L171.4183097372683,184.70285000290613 L170.85021244718908,202.0028500029061 L170.28211515710987,219.30285000290604 L169.71401786703066,236.602850002906 L169.08048952345783,253.90285000290595 L168.40292241403418,271.2028500029059 L167.72535530461053,288.50285000290586 L167.04778819518688,305.8028500029058 L166.37022108576326,323.10285000290577 L165.69265397633959,340.4028500029057 L165.01508686691596,357.7028500029057 L164.33751975749232,375.00285000290563 L163.65995264806867,392.3028500029056 L162.98238553864502,409.60285000290554 L162.30481842922137,426.9028500029055 L161.62725131979772,444.20285000290545 L160.94968421037407,461.5028500029054 L160.27211710095045,478.80285000290536 L159.5945499915268,496.1028500029053 L158.91698288210316,513.4028500029053 L158.23941577267954,530.7028500029053 L157.5618486632559,548.0028500029052 L156.88428155383224,565.3028500029052 L156.2067144444086,582.6028500029051 L155.52914733498494,599.9028500029051 L154.8515262404714,617.202850002905 L154.09630425158053,634.502850002905 L152.89626263557616,651.802850002905 L151.19416237435024,669.1028500029049 L148.99652139180705,686.4028500029049 L146.30470716061149,703.7028500029048 L143.17570274372827,721.0028500029048 L139.6359924715847,738.3028500029047 L135.68491119719914,755.6028500029047 L131.37821645597228,772.9028500029046 L126.77689070958316,790.2028500029046 L121.92098363639155,807.5028500029046 L116.84033943752684,824.8028500029045 L111.59843029010995,842.1028500029045 L106.24272014540733,859.4028500029044 L100.82238775502185,876.7028500029044 L95.39577223132537,894.0028500029043 L90.01501847767787,911.3028500029043 L84.72691120187866,928.6028500029042 L79.58547167035502,945.9028500029042 L74.64626753567961,963.2028500029041 L69.95830473638637,980.5028500029041 L65.55639207638572,997.802850002904 L61.50166607323078,1015.102850002904 L57.81993604118708,1032.402850002904 L54.53531297009516,1049.702850002904 L51.678159281387195,1067.0028500029039 L49.33197398246787,1084.3028500029038 L47.47948659520972,1101.6028500029038 L46.122422936810494,1118.9028500029037 L45.288597050829964,1136.2028500029037 L45.00222004688089,1153.5028500029036 L45.23424857503829,1170.8028500029036 L45.987297742430144,1188.1028500029036 L47.30794376442725,1205.4028500029035 L49.14103953168063,1222.7028500029035 L51.45276020971019,1240.0028500029034 L54.22302555868325,1257.3028500029034 L57.46225227444785,1274.6028500029033 L61.10542505509605,1291.9028500029033 L65.13225804996117,1309.2028500029032 L69.50064731626676,1326.5028500029032 L74.17482946157318,1343.8028500029031 L79.09004691068031,1361.102850002903 L84.20353020856479,1378.402850002903 L89.47563045536387,1395.702850002903 L94.85308396927032,1413.002850002903 L100.27888499636111,1430.302850002903 L105.70130095803484,1447.6028500029029 L111.06476668518235,1464.9028500029028 L116.319517635158,1482.2028500029028 L121.4207986832198,1499.5028500029027 L126.32157167681221,1516.8028500029027 L130.93732810327668,1534.1028500029026 L135.25587535045696,1551.4028500029026 L139.24062957903834,1568.7028500029026 L142.84148847766073,1586.0028500029025 L146.0151622717022,1603.3028500029025 L148.7543610242717,1620.6028500029024 L151.01743851958463,1637.9028500029024 L152.75302725784513,1655.2028500029023 L153.97552570717585,1672.5028500029023 L154.68789364968708,1689.8028500029022 L154.88382566410348,1707.1028500029022 L134.8851082215418,1707.329346476559 L134.69255454183235,1690.327639691229 L134.0045539045443,1673.6194046418939 L132.82353015652382,1656.9063275398792 L131.14736757250435,1640.1986755113107 L128.95828495527076,1623.4643262207765 L126.29940615799015,1606.6716042067817 L123.2126727220811,1589.8455244308861 L119.7034190978672,1572.9856336636788 L115.80713792706051,1556.0697436518226 L111.57178403056321,1539.103014282989 L107.03703074763798,1522.106616608107 L102.20715680441658,1505.0568941812633 L97.15915559375351,1487.937582361012 L91.94475869047947,1470.7704383259515 L86.60749663224469,1453.5549589503462 L81.19490234242397,1436.2862945993013 L75.76201415155828,1418.9636973951845 L70.3604903678592,1401.586260060513 L65.04765560067531,1384.152592798956 L59.880363838060475,1366.6705473349173 L54.90089042802734,1349.1443868169847 L50.14980289104773,1331.5597459462215 L45.695256784400016,1313.918541615051 L41.57823210954197,1296.2310619093187 L37.84521526153114,1278.5044276377791 L34.516223203570945,1260.7250106175304 L31.66332649531705,1242.9089869391214 L29.281115963068885,1225.0814688485611 L27.388326083152577,1207.2181004924103 L26.020435316461857,1189.299210896258 L25.240082811918597,1171.371964026904 L25.0,1153.4714382632676 L25.296568788468136,1135.5557537992029 L26.16011547650362,1117.6391144214113 L27.56294115617237,1099.7557350323211 L29.475602361261537,1081.8937840815977 L31.89839667395728,1064.0288943693688 L34.84164655552357,1046.207583897935 L38.2121007345082,1028.4555143196524 L41.98249233972692,1010.7389044100275 L46.12728946579688,993.0546046015543 L50.61404012428491,975.4211819539 L55.377711533966675,957.8417942932496 L60.38350217126904,940.3085691695142 L65.57777825965255,922.83078385704 L70.90289928278128,905.4096936832968 L76.30535026999206,888.0399335422783 L81.73820506743334,870.7200427954002 L87.14736810416123,853.4556918671477 L92.47522325898233,836.2456689779194 L97.6748713380041,819.0851442077785 L102.69757992742869,801.9824195933579 L107.48405145345228,784.929795613513 L112.00912780983592,767.9164770005292 L116.23025851817846,750.9601878641597 L120.08746428272228,734.0712263135048 L123.53575882053875,717.2180120903838 L126.58028396132696,700.3850908418711 L129.1912561959261,683.6046536426464 L131.31796068759135,666.8630711921589 L132.96414904756946,650.1313549258653 L134.12651227962075,633.3745327904477 L134.86860320384318,616.3753283473814 L135.54447047244227,599.1201043860387 L136.2220363624961,581.8201355196298 L136.89960347192,564.520135519632 L137.5771705813438,547.2201355196277 L138.2547376907675,529.9201355196275 L138.93230480019076,512.6201355196265 L139.6098719096143,495.32013551962933 L140.28743901903812,478.0201355196245 L140.96500612846165,460.7201355196275 L141.64257323788547,443.4201355196232 L142.3201403473089,426.12013551962986 L142.99770745673285,408.82013551962507 L143.67527456615625,391.5201355196286 L144.35284167558007,374.22013551962715 L145.03040878500357,356.92013551962737 L145.70797589442714,339.6201355196293 L146.38554300385107,322.3201355196243 L147.06311011327455,305.0201355196273 L147.7406772226982,287.7201355196266 L148.41824433212201,270.4201355196281 L149.09481663355052,253.14553548086388 L149.72603230715038,235.9086884414782 L150.29288978217753,218.64644394705257 L150.86098707225676,201.3464439470519 L151.4290843623359,184.0464439470531 L151.99718165241518,166.74644394705152 L152.5652789424944,149.4464439470518 L153.13337623257368,132.14644394705203 L153.70147352265283,114.84644394705232 L154.269570812732,97.54644394705173 L154.83766810281122,80.24644394705199 L155.40576539289043,62.94644394705219 L155.97386268296967,45.64644394705245 L156.54195997304885,28.346443947052297 L157.11005726312808,11.046443947052108 L157.6781545532073,-6.253556052947786 L177.6673799281396,-5.597149997093357" fill="none" stroke="black" id="d1" />
<path d="M440.9709544364373,1699.6999999999955 L452.9709544364373,1699.6999999999955 L452.9709544364373,-13.0 L440.9709544364373,-13.0 L440.9709544364373,1699.6999999999955" fill="none" stroke="black" id="d2" />
<path d="M440.9709544364373,1699.6999999999955 L452.9709544364373,1699.6999999999955 L452.9709544364373,-13.0 L440.9709544364373,-13.0 L440.9709544364373,1699.6999999999955 L428.9709544364373,1699.6999999999955 L428.9709544364373,-25.0 L464.9709544364373,-24.99999999999997 L464.9709544364379,1711.6999999999955 L440.9709544364373,1711.6999999999955 L440.9709544364373,1699.6999999999955" fill="none" stroke="black" id="d3" />
</defs>
<path d="M-75.0,1811.6999999999955 L564.970954436438,1811.6999999999955" stroke="#dddddd" />
<path d="M-75.0,1601.6999999999955 L564.970954436438,1601.6999999999955" stroke="#dddddd" />
<path d="M-75.0,1391.6999999999955 L564.970954436438,1391.6999999999955" stroke="#dddddd" />
<path d="M-75.0,1181.6999999999955 L564.970954436438,1181.6999999999955" stroke="#dddddd" />
<path d="M-75.0,971.6999999999955 L564.970954436438,971.6999999999955" stroke="#dddddd" />
<path d="M-75.0,761.6999999999955 L564.970954436438,761.6999999999955" stroke="#dddddd" />
<path d="M-75.0,551.6999999999955 L564.970954436438,551.6999999999955" stroke="#dddddd" />
<path d="M-75.0,341.6999999999955 L564.970954436438,341.6999999999955" stroke="#dddddd" />
<path d="M-75.0,131.6999999999955 L564.970954436438,131.6999999999955" stroke="#dddddd" />
<path d="M-75.0,-78.3000000000045 L564.970954436438,-78.3000000000045" stroke="#dddddd" />
<path d="M-75.0,1811.6999999999955 L-75.0,-125.0" stroke="#dddddd" />
<path d="M222.0,1811.6999999999955 L222.0,-125.0" stroke="#dddddd" />
<path d="M519.0,1811.6999999999955 L519.0,-125.0" stroke="#dddddd" />
<text x="73.5" y="1706.6999999999955" font-size="10" stroke="none" fill="#dddddd" dy="0em">A0</text>
<text x="73.5" y="1496.6999999999955" font-size="10" stroke="none" fill="#dddddd" dy="0em">A1</text>
<text x="73.5" y="1286.6999999999955" font-size="10" stroke="none" fill="#dddddd" dy="0em">A2</text>
<text x="73.5" y="1076.6999999999955" font-size="10" stroke="none" fill="#dddddd" dy="0em">A3</text>
<text x="73.5" y="866.6999999999955" font-size="10" stroke="none" fill="#dddddd" dy="0em">A4</text>
<text x="73.5" y="656.6999999999955" font-size="10" stroke="none" fill="#dddddd" dy="0em">A5</text>
<text x="73.5" y="446.6999999999955" font-size="10" stroke="none" fill="#dddddd" dy="0em">A6</text>
<text x="73.5" y="236.6999999999955" font-size="10" stroke="none" fill="#dddddd" dy="0em">A7</text>
<text x="73.5" y="26.699999999995498" font-size="10" stroke="none" fill="#dddddd" dy="0em">A8</text>
<text x="370.5" y="1706.6999999999955" font-size="10" stroke="none" fill="#dddddd" dy="0em">B0</text>
<text x="370.5" y="1496.6999999999955" font-size="10" stroke="none" fill="#dddddd" dy="0em">B1</text>
<text x="370.5" y="1286.6999999999955" font-size="10" stroke="none" fill="#dddddd" dy="0em">B2</text>
<text x="370.5" y="1076.6999999999955" font-size="10" stroke="none" fill="#dddddd" dy="0em">B3</text>
<text x="370.5" y="866.6999999999955" font-size="10" stroke="none" fill="#dddddd" dy="0em">B4</text>
<text x="370.5" y="656.6999999999955" font-size="10" stroke="none" fill="#dddddd" dy="0em">B5</text>
<text x="370.5" y="446.6999999999955" font-size="10" stroke="none" fill="#dddddd" dy="0em">B6</text>
<text x="370.5" y="236.6999999999955" font-size="10" stroke="none" fill="#dddddd" dy="0em">B7</text>
<text x="370.5" y="26.699999999995498" font-size="10" stroke="none" fill="#dddddd" dy="0em">B8</text>
<path d="M-75.0,1811.6999999999955 L564.970954436438,1811.6999999999955" stroke="#ffcccc66" stroke-dasharray="5" />
<text x="-74.0" y="1809.6999999999955" font-size="8" stroke="none" fill="#ffcccc66" dy="0em">-100mm</text>
<path d="M-75.0,1761.6999999999955 L564.970954436438,1761.6999999999955" stroke="#ffcccc66" stroke-dasharray="5" />
<text x="-74.0" y="1759.6999999999955" font-size="8" stroke="none" fill="#ffcccc66" dy="0em">-50mm</text>
<path d="M-75.0,1711.6999999999955 L564.970954436438,1711.6999999999955" stroke="#ffcccc66" stroke-dasharray="5" />
<text x="-74.0" y="1709.6999999999955" font-size="8" stroke="none" fill="#ffcccc66" dy="0em">0mm</text>
<path d="M-75.0,1661.6999999999955 L564.970954436438,1661.6999999999955" stroke="#ffcccc66" stroke-dasharray="5" />
<text x="-74.0" y="1659.6999999999955" font-size="8" stroke="none" fill="#ffcccc66" dy="0em">50mm</text>
<path d="M-75.0,1611.6999999999955 L564.970954436438,1611.6999999999955" stroke="#ffcccc66" stroke-dasharray="5" />
<text x="-74.0" y="1609.6999999999955" font-size="8" stroke="none" fill="#ffcccc66" dy="0em">100mm</text>
<path d="M-75.0,1561.6999999999955 L564.970954436438,1561.6999999999955" stroke="#ffcccc66" stroke-dasharray="5" />
<text x="-74.0" y="1559.6999999999955" font-size="8" stroke="none" fill="#ffcccc66" dy="0em">150mm</text>
<path d="M-75.0,1511.6999999999955 L564.970954436438,1511.6999999999955" stroke="#ffcccc66" stroke-dasharray="5" />
<text x="-74.0" y="1509.6999999999955" font-size="8" stroke="none" fill="#ffcccc66" dy="0em">200mm</text>
<path d="M-75.0,1461.6999999999955 L564.970954436438,1461.6999999999955" stroke="#ffcccc66" stroke-dasharray="5" />
<text x="-74.0" y="1459.6999999999955" font-size="8" stroke="none" fill="#ffcccc66" dy="0em">250mm</text>
<path d="M-75.0,1411.6999999999955 L564.970954436438,1411.6999999999955" stroke="#ffcccc66" stroke-dasharray="5" />
<text x="-74.0" y="1409.6999999999955" font-size="8" stroke="none" fill="#ffcccc66" dy="0em">300mm</text>
<path d="M-75.0,1361.6999999999955 L564.970954436438,1361.6999999999955" stroke="#ffcccc66" stroke-dasharray="5" />
<text x="-74.0" y="1359.6999999999955" font-size="8" stroke="none" fill="#ffcccc66" dy="0em">350mm</text>
<path d="M-75.0,1311.6999999999955 L564.970954436438,1311.6999999999955" stroke="#ffcccc66" stroke-dasharray="5" />
<text x="-74.0" y="1309.6999999999955" font-size="8" stroke="none" fill="#ffcccc66" dy="0em">400mm</text>
<path d="M-75.0,1261.6999999999955 L564.970954436438,1261.6999999999955" stroke="#ffcccc66" stroke-dasharray="5" />
<text x="-74.0" y="1259.6999999999955" font-size="8" stroke="none" fill="#ffcccc66" dy="0em">450mm</text>
<path d="M-75.0,1211.6999999999955 L564.970954436438,1211.6999999999955" stroke="#ffcccc66" stroke-dasharray="5" />
<text x="-74.0" y="1209.6999999999955" font-size="8" stroke="none" fill="#ffcccc66" dy="0em">500mm</text>
<path d="M-75.0,1161.6999999999955 L564.970954436438,1161.6999999999955" stroke="#ffcccc66" stroke-dasharray="5" />
<text x="-74.0" y="1159.6999999999955" font-size="8" stroke="none" fill="#ffcccc66" dy="0em">550mm</text>
<path d="M-75.0,1111.6999999999955 L564.970954436438,1111.6999999999955" stroke="#ffcccc66" stroke-dasharray="5" />
<text x="-74.0" y="1109.6999999999955" font-size="8" stroke="none" fill="#ffcccc66" dy="0em">600mm</text>
<path d="M-75.0,1061.6999999999955 L564.970954436438,1061.6999999999955" stroke="#ffcccc66" stroke-dasharray="5" />
<text x="-74.0" y="1059.6999999999955" font-size="8" stroke="none" fill="#ffcccc66" dy="0em">650mm</text>
<path d="M-75.0,1011.6999999999955 L564.970954436438,1011.6999999999955" stroke="#ffcccc66" stroke-dasharray="5" />
<text x="-74.0" y="1009.6999999999955" font-size="8" stroke="none" fill="#ffcccc66" dy="0em">700mm</text>
<path d="M-75.0,961.6999999999955 L564.970954436438,961.6999999999955" stroke="#ffcccc66" stroke-dasharray="5" />
<text x="-74.0" y="959.6999999999955" font-size="8" stroke="none" fill="#ffcccc66" dy="0em">750mm</text>
<path d="M-75.0,911.6999999999955 L564.970954436438,911.6999999999955" stroke="#ffcccc66" stroke-dasharray="5" />
<text x="-74.0" y="909.6999999999955" font-size="8" stroke="none" fill="#ffcccc66" dy="0em">800mm</text>
<path d="M-75.0,861.6999999999955 L564.970954436438,861.6999999999955" stroke="#ffcccc66" stroke-dasharray="5" />
<text x="-74.0" y="859.6999999999955" font-size="8" stroke="none" fill="#ffcccc66" dy="0em">850mm</text>
<path d="M-75.0,811.6999999999955 L564.970954436438,811.6999999999955" stroke="#ffcccc66" stroke-dasharray="5" />
<text x="-74.0" y="809.6999999999955" font-size="8" stroke="none" fill="#ffcccc66" dy="0em">900mm</text>
<path d="M-75.0,761.6999999999955 L564.970954436438,761.6999999999955" stroke="#ffcccc66" stroke-dasharray="5" />
<text x="-74.0" y="759.6999999999955" font-size="8" stroke="none" fill="#ffcccc66" dy="0em">950mm</text>
<path d="M-75.0,711.6999999999955 L564.970954436438,711.6999999999955" stroke="#ffcccc66" stroke-dasharray="5" />
<text x="-74.0" y="709.6999999999955" font-size="8" stroke="none" fill="#ffcccc66" dy="0em">1000mm</text>
<path d="M-75.0,661.6999999999955 L564.970954436438,661.6999999999955" stroke="#ffcccc66" stroke-dasharray="5" />
<text x="-74.0" y="659.6999999999955" font-size="8" stroke="none" fill="#ffcccc66" dy="0em">1050mm</text>
<path d="M-75.0,611.6999999999955 L564.970954436438,611.6999999999955" stroke="#ffcccc66" stroke-dasharray="5" />
<text x="-74.0" y="609.6999999999955" font-size="8" stroke="none" fill="#ffcccc66" dy="0em">1100mm</text>
<path d="M-75.0,561.6999999999955 L564.970954436438,561.6999999999955" stroke="#ffcccc66" stroke-dasharray="5" />
<text x="-74.0" y="559.6999999999955" font-size="8" stroke="none" fill="#ffcccc66" dy="0em">1150mm</text>
<path d="M-75.0,511.6999999999955 L564.970954436438,511.6999999999955" stroke="#ffcccc66" stroke-dasharray="5" />
<text x="-74.0" y="509.6999999999955" font-size="8" stroke="none" fill="#ffcccc66" dy="0em">1200mm</text>
<path d="M-75.0,461.6999999999955 L564.970954436438,461.6999999999955" stroke="#ffcccc66" stroke-dasharray="5" />
<text x="-74.0" y="459.6999999999955" font-size="8" stroke="none" fill="#ffcccc66" dy="0em">1250mm</text>
<path d="M-75.0,411.6999999999955 L564.970954436438,411.6999999999955" stroke="#ffcccc66" stroke-dasharray="5" />
<text x="-74.0" y="409.6999999999955" font-size="8" stroke="none" fill="#ffcccc66" dy="0em">1300mm</text>
<path d="M-75.0,361.6999999999955 L564.970954436438,361.6999999999955" stroke="#ffcccc66" stroke-dasharray="5" />
<text x="-74.0" y="359.6999999999955" font-size="8" stroke="none" fill="#ffcccc66" dy="0em">1350mm</text>
<path d="M-75.0,311.6999999999955 L564.970954436438,311.6999999999955" stroke="#ffcccc66" stroke-dasharray="5" />
<text x="-74.0" y="309.6999999999955" font-size="8" stroke="none" fill="#ffcccc66" dy="0em">1400mm</text>
<path d="M-75.0,261.6999999999955 L564.970954436438,261.6999999999955" stroke="#ffcccc66" stroke-dasharray="5" />
<text x="-74.0" y="259.6999999999955" font-size="8" stroke="none" fill="#ffcccc66" dy="0em">1450mm</text>
<path d="M-75.0,211.6999999999955 L564.970954436438,211.6999999999955" stroke="#ffcccc66" stroke-dasharray="5" />
<text x="-74.0" y="209.6999999999955" font-size="8" stroke="none" fill="#ffcccc66" dy="0em">1500mm</text>
<path d="M-75.0,161.6999999999955 L564.970954436438,161.6999999999955" stroke="#ffcccc66" stroke-dasharray="5" />
<text x="-74.0" y="159.6999999999955" font-size="8" stroke="none" fill="#ffcccc66" dy="0em">1550mm</text>
<path d="M-75.0,111.6999999999955 L564.970954436438,111.6999999999955" stroke="#ffcccc66" stroke-dasharray="5" />
<text x="-74.0" y="109.6999999999955" font-size="8" stroke="none" fill="#ffcccc66" dy="0em">1600mm</text>
<path d="M-75.0,61.6999999999955 L564.970954436438,61.6999999999955" stroke="#ffcccc66" stroke-dasharray="5" />
<text x="-74.0" y="59.6999999999955" font-size="8" stroke="none" fill="#ffcccc66" dy="0em">1650mm</text>
<path d="M-75.0,11.699999999995498 L564.970954436438,11.699999999995498" stroke="#ffcccc66" stroke-dasharray="5" />
<text x="-74.0" y="9.699999999995498" font-size="8" stroke="none" fill="#ffcccc66" dy="0em">1700mm</text>
<path d="M-75.0,-38.3000000000045 L564.970954436438,-38.3000000000045" stroke="#ffcccc66" stroke-dasharray="5" />
<text x="-74.0" y="-40.3000000000045" font-size="8" stroke="none" fill="#ffcccc66" dy="0em">1750mm</text>
<path d="M-75.0,-88.3000000000045 L564.970954436438,-88.3000000000045" stroke="#ffcccc66" stroke-dasharray="5" />
<text x="-74.0" y="-90.3000000000045" font-size="8" stroke="none" fill="#ffcccc66" dy="0em">1800mm</text>
<path d="M-75.0,1811.6999999999955 L-75.0,-125.0" stroke="#ffcccc66" stroke-dasharray="5" />
<text x="-73.0" y="1810.6999999999955" font-size="8" stroke="none" fill="#ffcccc66" dy="0em">-100mm</text>
<path d="M-25.0,1811.6999999999955 L-25.0,-125.0" stroke="#ffcccc66" stroke-dasharray="5" />
<text x="-23.0" y="1810.6999999999955" font-size="8" stroke="none" fill="#ffcccc66" dy="0em">-50mm</text>
<path d="M25.0,1811.6999999999955 L25.0,-125.0" stroke="#ffcccc66" stroke-dasharray="5" />
<text x="27.0" y="1810.6999999999955" font-size="8" stroke="none" fill="#ffcccc66" dy="0em">0mm</text>
<path d="M75.0,1811.6999999999955 L75.0,-125.0" stroke="#ffcccc66" stroke-dasharray="5" />
<text x="77.0" y="1810.6999999999955" font-size="8" stroke="none" fill="#ffcccc66" dy="0em">50mm</text>
<path d="M125.0,1811.6999999999955 L125.0,-125.0" stroke="#ffcccc66" stroke-dasharray="5" />
<text x="127.0" y="1810.6999999999955" font-size="8" stroke="none" fill="#ffcccc66" dy="0em">100mm</text>
<path d="M175.0,1811.6999999999955 L175.0,-125.0" stroke="#ffcccc66" stroke-dasharray="5" />
<text x="177.0" y="1810.6999999999955" font-size="8" stroke="none" fill="#ffcccc66" dy="0em">150mm</text>
<path d="M225.0,1811.6999999999955 L225.0,-125.0" stroke="#ffcccc66" stroke-dasharray="5" />
<text x="227.0" y="1810.6999999999955" font-size="8" stroke="none" fill="#ffcccc66" dy="0em">200mm</text>
<path d="M275.0,1811.6999999999955 L275.0,-125.0" stroke="#ffcccc66" stroke-dasharray="5" />
<text x="277.0" y="1810.6999999999955" font-size="8" stroke="none" fill="#ffcccc66" dy="0em">250mm</text>
<path d="M325.0,1811.6999999999955 L325.0,-125.0" stroke="#ffcccc66" stroke-dasharray="5" />
<text x="327.0" y="1810.6999999999955" font-size="8" stroke="none" fill="#ffcccc66" dy="0em">300mm</text>
<path d="M375.0,1811.6999999999955 L375.0,-125.0" stroke="#ffcccc66" stroke-dasharray="5" />
<text x="377.0" y="1810.6999999999955" font-size="8" stroke="none" fill="#ffcccc66" dy="0em">350mm</text>
<path d="M425.0,1811.6999999999955 L425.0,-125.0" stroke="#ffcccc66" stroke-dasharray="5" />
<text x="427.0" y="1810.6999999999955" font-size="8" stroke="none" fill="#ffcccc66" dy="0em">400mm</text>
<path d="M475.0,1811.6999999999955 L475.0,-125.0" stroke="#ffcccc66" stroke-dasharray="5" />
<text x="477.0" y="1810.6999999999955" font-size="8" stroke="none" fill="#ffcccc66" dy="0em">450mm</text>
<path d="M525.0,1811.6999999999955 L525.0,-125.0" stroke="#ffcccc66" stroke-dasharray="5" />
<text x="527.0" y="1810.6999999999955" font-size="8" stroke="none" fill="#ffcccc66" dy="0em">500mm</text>
<g>
<g>
<path d="M274.08712877233444,1707.1028500029022 L274.28306078675087,1689.8028500029022 L274.9954287292621,1672.5028500029023 L276.2179271785928,1655.2028500029023 L277.9535159168533,1637.9028500029024 L280.2165934121662,1620.6028500029024 L282.9557921647357,1603.3028500029025 L286.1294659587772,1586.0028500029025 L289.7303248573996,1568.7028500029026 L293.71507908598096,1551.4028500029026 L298.03362633316124,1534.1028500029026 L302.6493827596257,1516.8028500029027 L307.5501557532181,1499.5028500029027 L312.65143680127994,1482.2028500029028 L317.9061877512556,1464.9028500029028 L323.2696534784031,1447.6028500029029 L328.6920694400768,1430.302850002903 L334.1178704671676,1413.002850002903 L339.4953239810741,1395.702850002903 L344.7674242278731,1378.402850002903 L349.8809075257576,1361.102850002903 L354.7961249748647,1343.8028500029031 L359.4703071201711,1326.5028500029032 L363.8386963864767,1309.2028500029032 L367.86552938134184,1291.9028500029033 L371.5087021619901,1274.6028500029033 L374.7479288777547,1257.3028500029034 L377.5181942267277,1240.0028500029034 L379.8299149047573,1222.7028500029035 L381.66301067201067,1205.4028500029035 L382.9836566940078,1188.1028500029036 L383.7367058613996,1170.8028500029036 L383.968734389557,1153.5028500029036 L383.68235738560793,1136.2028500029037 L382.8485314996274,1118.9028500029037 L381.4914678412282,1101.6028500029038 L379.63898045397,1084.3028500029038 L377.2927951550507,1067.0028500029039 L374.43564146634276,1049.702850002904 L371.15101839525084,1032.402850002904 L367.46928836320717,1015.102850002904 L363.4145623600522,997.802850002904 L359.01264970005155,980.5028500029041 L354.3246869007583,963.2028500029041 L349.3854827660829,945.9028500029042 L344.2440432345593,928.6028500029042 L338.95593595876005,911.3028500029043 L333.5751822051126,894.0028500029043 L328.14856668141607,876.7028500029044 L322.7282342910306,859.4028500029044 L317.372524146328,842.1028500029045 L312.1306149989111,824.8028500029045 L307.04997080004637,807.5028500029046 L302.1940637268548,790.2028500029046 L297.59273798046564,772.9028500029046 L293.2860432392388,755.6028500029047 L289.3349619648532,738.3028500029047 L285.79525169270966,721.0028500029048 L282.66624727582644,703.7028500029048 L279.97443304463087,686.4028500029049 L277.7767920620877,669.1028500029049 L276.07469180086173,651.802850002905 L274.8746501848574,634.502850002905 L274.1194281959665,617.202850002905 L273.441807101453,599.9028500029051 L272.76423999202933,582.6028500029051 L272.0866728826057,565.3028500029052 L271.40910577318203,548.0028500029052 L270.7315386637584,530.7028500029053 L270.0539715543348,513.4028500029053 L269.37640444491115,496.1028500029053 L268.6988373354875,478.80285000290536 L268.02127022606385,461.5028500029054 L267.3437031166402,444.20285000290545 L266.66613600721655,426.9028500029055 L265.9885688977929,409.60285000290554 L265.31100178836925,392.3028500029056 L264.6334346789456,375.00285000290563 L263.95586756952196,357.7028500029057 L263.2783004600983,340.4028500029057 L262.60073335067466,323.10285000290577 L261.923166241251,305.8028500029058 L261.24559913182736,288.50285000290586 L260.56803202240377,271.2028500029059 L259.8904649129801,253.90285000290595 L259.2569365694073,236.602850002906 L258.6888392793281,219.30285000290604 L258.1207419892488,202.0028500029061 L257.5526446991696,184.70285000290613 L256.9845474090904,167.40285000290618 L256.4164501190112,150.10285000290622 L255.848352828932,132.80285000290627 L255.2802555388528,115.50285000290633 L254.7121582487736,98.20285000290637 L254.14406095869435,80.90285000290642 L253.57596366861515,63.602850002906465 L253.00786637853594,46.30285000290651 L252.43976908845673,29.002850002906552 L251.87167179837752,11.702850002906597 L251.3035745082983,-5.597149997093357 L177.6673799281396,-5.597149997093357 L177.0992826380604,11.702850002906597 L176.5311853479812,29.002850002906552 L175.96308805790198,46.30285000290651 L175.39499076782278,63.602850002906465 L174.82689347774357,80.90285000290642 L174.25879618766433,98.20285000290637 L173.69069889758512,115.50285000290633 L173.1226016075059,132.80285000290627 L172.5545043174267,150.10285000290622 L171.9864070273475,167.40285000290618 L171.4183097372683,184.70285000290613 L170.85021244718908,202.0028500029061 L170.28211515710987,219.30285000290604 L169.71401786703066,236.602850002906 L169.08048952345783,253.90285000290595 L168.40292241403418,271.2028500029059 L167.72535530461053,288.50285000290586 L167.04778819518688,305.8028500029058 L166.37022108576326,323.10285000290577 L165.69265397633959,340.4028500029057 L165.01508686691596,357.7028500029057 L164.33751975749232,375.00285000290563 L163.65995264806867,392.3028500029056 L162.98238553864502,409.60285000290554 L162.30481842922137,426.9028500029055 L161.62725131979772,444.20285000290545 L160.94968421037407,461.5028500029054 L160.27211710095045,478.80285000290536 L159.5945499915268,496.1028500029053 L158.91698288210316,513.4028500029053 L158.23941577267954,530.7028500029053 L157.5618486632559,548.0028500029052 L156.88428155383224,565.3028500029052 L156.2067144444086,582.6028500029051 L155.52914733498494,599.9028500029051 L154.8515262404714,617.202850002905 L154.09630425158053,634.502850002905 L152.89626263557616,651.802850002905 L151.19416237435024,669.1028500029049 L148.99652139180705,686.4028500029049 L146.30470716061149,703.7028500029048 L143.17570274372827,721.0028500029048 L139.6359924715847,738.3028500029047 L135.68491119719914,755.6028500029047 L131.37821645597228,772.9028500029046 L126.77689070958316,790.2028500029046 L121.92098363639155,807.5028500029046 L116.84033943752684,824.8028500029045 L111.59843029010995,842.1028500029045 L106.24272014540733,859.4028500029044 L100.82238775502185,876.7028500029044 L95.39577223132537,894.0028500029043 L90.01501847767787,911.3028500029043 L84.72691120187866,928.6028500029042 L79.58547167035502,945.9028500029042 L74.64626753567961,963.2028500029041 L69.95830473638637,980.5028500029041 L65.55639207638572,997.802850002904 L61.50166607323078,1015.102850002904 L57.81993604118708,1032.402850002904 L54.53531297009516,1049.702850002904 L51.678159281387195,1067.0028500029039 L49.33197398246787,1084.3028500029038 L47.47948659520972,1101.6028500029038 L46.122422936810494,1118.9028500029037 L45.288597050829964,1136.2028500029037 L45.00222004688089,1153.5028500029036 L45.23424857503829,1170.8028500029036 L45.987297742430144,1188.1028500029036 L47.30794376442725,1205.4028500029035 L49.14103953168063,1222.7028500029035 L51.45276020971019,1240.0028500029034 L54.22302555868325,1257.3028500029034 L57.46225227444785,1274.6028500029033 L61.10542505509605,1291.9028500029033 L65.13225804996117,1309.2028500029032 L69.50064731626676,1326.5028500029032 L74.17482946157318,1343.8028500029031 L79.09004691068031,1361.102850002903 L84.20353020856479,1378.402850002903 L89.47563045536387,1395.702850002903 L94.85308396927032,1413.002850002903 L100.27888499636111,1430.302850002903 L105.70130095803484,1447.6028500029029 L111.06476668518235,1464.9028500029028 L116.319517635158,1482.2028500029028 L121.4207986832198,1499.5028500029027 L126.32157167681221,1516.8028500029027 L130.93732810327668,1534.1028500029026 L135.25587535045696,1551.4028500029026 L139.24062957903834,1568.7028500029026 L142.84148847766073,1586.0028500029025 L146.0151622717022,1603.3028500029025 L148.7543610242717,1620.6028500029024 L151.01743851958463,1637.9028500029024 L152.75302725784513,1655.2028500029023 L153.97552570717585,1672.5028500029023 L154.68789364968708,1689.8028500029022 L154.88382566410348,1707.1028500029022 L274.08712877233444,1707.1028500029022" fill="#E6E6FA66" stroke="black" />
</g>
<g>
<path d="M274.08712877233444,1707.1028500029022 L274.28306078675087,1689.8028500029022 L274.9954287292621,1672.5028500029023 L276.2179271785928,1655.2028500029023 L277.9535159168533,1637.9028500029024 L280.2165934121662,1620.6028500029024 L282.9557921647357,1603.3028500029025 L286.1294659587772,1586.0028500029025 L289.7303248573996,1568.7028500029026 L293.71507908598096,1551.4028500029026 L298.03362633316124,1534.1028500029026 L302.6493827596257,1516.8028500029027 L307.5501557532181,1499.5028500029027 L312.65143680127994,1482.2028500029028 L317.9061877512556,1464.9028500029028 L323.2696534784031,1447.6028500029029 L328.6920694400768,1430.302850002903 L334.1178704671676,1413.002850002903 L339.4953239810741,1395.702850002903 L344.7674242278731,1378.402850002903 L349.8809075257576,1361.102850002903 L354.7961249748647,1343.8028500029031 L359.4703071201711,1326.5028500029032 L363.8386963864767,1309.2028500029032 L367.86552938134184,1291.9028500029033 L371.5087021619901,1274.6028500029033 L374.7479288777547,1257.3028500029034 L377.5181942267277,1240.0028500029034 L379.8299149047573,1222.7028500029035 L381.66301067201067,1205.4028500029035 L382.9836566940078,1188.1028500029036 L383.7367058613996,1170.8028500029036 L383.968734389557,1153.5028500029036 L383.68235738560793,1136.2028500029037 L382.8485314996274,1118.9028500029037 L381.4914678412282,1101.6028500029038 L379.63898045397,1084.3028500029038 L377.2927951550507,1067.0028500029039 L374.43564146634276,1049.702850002904 L371.15101839525084,1032.402850002904 L367.46928836320717,1015.102850002904 L363.4145623600522,997.802850002904 L359.01264970005155,980.5028500029041 L354.3246869007583,963.2028500029041 L349.3854827660829,945.9028500029042 L344.2440432345593,928.6028500029042 L338.95593595876005,911.3028500029043 L333.5751822051126,894.0028500029043 L328.14856668141607,876.7028500029044 L322.7282342910306,859.4028500029044 L317.372524146328,842.1028500029045 L312.1306149989111,824.8028500029045 L307.04997080004637,807.5028500029046 L302.1940637268548,790.2028500029046 L297.59273798046564,772.9028500029046 L293.2860432392388,755.6028500029047 L289.3349619648532,738.3028500029047 L285.79525169270966,721.0028500029048 L282.66624727582644,703.7028500029048 L279.97443304463087,686.4028500029049 L277.7767920620877,669.1028500029049 L276.07469180086173,651.802850002905 L274.8746501848574,634.502850002905 L274.1194281959665,617.202850002905 L273.441807101453,599.9028500029051 L272.76423999202933,582.6028500029051 L272.0866728826057,565.3028500029052 L271.40910577318203,548.0028500029052 L270.7315386637584,530.7028500029053 L270.0539715543348,513.4028500029053 L269.37640444491115,496.1028500029053 L268.6988373354875,478.80285000290536 L268.02127022606385,461.5028500029054 L267.3437031166402,444.20285000290545 L266.66613600721655,426.9028500029055 L265.9885688977929,409.60285000290554 L265.31100178836925,392.3028500029056 L264.6334346789456,375.00285000290563 L263.95586756952196,357.7028500029057 L263.2783004600983,340.4028500029057 L262.60073335067466,323.10285000290577 L261.923166241251,305.8028500029058 L261.24559913182736,288.50285000290586 L260.56803202240377,271.2028500029059 L259.8904649129801,253.90285000290595 L259.2569365694073,236.602850002906 L258.6888392793281,219.30285000290604 L258.1207419892488,202.0028500029061 L257.5526446991696,184.70285000290613 L256.9845474090904,167.40285000290618 L256.4164501190112,150.10285000290622 L255.848352828932,132.80285000290627 L255.2802555388528,115.50285000290633 L254.7121582487736,98.20285000290637 L254.14406095869435,80.90285000290642 L253.57596366861515,63.602850002906465 L253.00786637853594,46.30285000290651 L252.43976908845673,29.002850002906552 L251.87167179837752,11.702850002906597 L251.3035745082983,-5.597149997093357 L251.3035745082983,-5.597149997093361 L256.154287009025,-25.0 L270.7974170286447,-21.339217495095042 L271.86089717330987,11.0464439470521 L272.428994463389,28.346443947052297 L272.9970917534683,45.64644394705208 L273.5651890435475,62.946443947051804 L274.1332863336267,80.24644394705199 L274.70138362370585,97.54644394705174 L275.26948091378506,114.84644394705232 L275.8375782038643,132.14644394705203 L276.40567549394353,149.4464439470518 L276.97377278402274,166.74644394705152 L277.541870074102,184.0464439470531 L278.10996736418116,201.3464439470519 L278.67806465426054,218.64644394705255 L279.2449221292874,235.90868844147815 L279.8761378028873,253.14553548086388 L280.55271010431613,270.4201355196281 L281.2302772137397,287.7201355196266 L281.9078443231633,305.0201355196273 L282.5854114325869,322.3201355196243 L283.2629785420108,339.6201355196293 L283.94054565143426,356.92013551962737 L284.61811276085797,374.22013551962715 L285.29567987028156,391.5201355196286 L285.9732469797052,408.82013551962507 L286.650814089129,426.12013551962986 L287.32838119855245,443.4201355196232 L288.00594830797627,460.7201355196274 L288.6835154173998,478.0201355196246 L289.3610825268236,495.32013551962933 L290.0386496362467,512.6201355196265 L290.71621674567047,529.9201355196274 L291.39378385509406,547.2201355196278 L292.0713509645183,564.520135519632 L292.7489180739418,581.8201355196298 L293.4264839639958,599.1201043860389 L294.1023512325943,616.3753283473812 L294.8444421568173,633.3745327904477 L296.0068053888687,650.1313549258651 L297.6529937488461,666.8630711921589 L299.7796982405123,683.6046536426464 L302.39067047511054,700.3850908418714 L305.4351956158996,717.2180120903838 L308.8834901537155,734.0712263135046 L312.7406959182595,750.9601878641597 L316.96182662660163,767.9164770005293 L321.4869029829858,784.929795613513 L326.2733745090096,801.9824195933577 L331.2960830984339,819.0851442077785 L336.4957311774556,836.2456689779193 L341.82358633227693,853.4556918671476 L347.2327493690045,870.7200427954002 L352.665604166446,888.0399335422783 L358.06805515365676,905.4096936832968 L363.3931761767852,922.8307838570403 L368.5874522651678,940.3085691695144 L373.59324290247184,957.8417942932496 L378.3569143121525,975.4211819538999 L382.8436649706414,993.0546046015543 L386.9884620967118,1010.7389044100275 L390.75885370192856,1028.4555143196528 L394.12930788091603,1046.2075838979347 L397.07255776248,1064.028894369369 L399.4953520751766,1081.8937840815977 L401.40801328026384,1099.7557350323211 L402.8108389599362,1117.639114421411 L403.6743856479688,1135.5557537992029 L403.9709544364373,1153.4714382632678 L403.7308716245191,1171.371964026904 L402.95051911997683,1189.2992108962583 L401.58262835328503,1207.21810049241 L399.68983847336915,1225.081468848561 L397.30762794112,1242.9089869391214 L394.45473123286695,1260.7250106175304 L391.12573917490636,1278.504427637779 L387.3927223268962,1296.2310619093184 L383.275697652037,1313.9185416150506 L378.82115154539025,1331.5597459462215 L374.0700640084118,1349.1443868169852 L369.0905905983765,1366.6705473349173 L363.92329883576195,1384.1525927989558 L358.61046406858,1401.5862600605135 L353.2089402848797,1418.9636973951847 L347.77605209401355,1436.2862945993013 L342.36345780419396,1453.5549589503466 L337.02619574595644,1470.7704383259513 L331.81179884268647,1487.9375823610123 L326.7637976320209,1505.0568941812633 L321.9339236887987,1522.1066166081068 L317.39917040587625,1539.1030142829895 L313.1638165093778,1556.0697436518228 L309.26753533857067,1572.985633663679 L305.75828171435603,1589.845524430886 L302.67154827844934,1606.6716042067821 L300.0126694811655,1623.4643262207762 L297.82358686393485,1640.1986755113107 L296.1474242799143,1656.9063275398794 L294.96640053189395,1673.619404641894 L294.27839989460506,1690.327639691229 L294.08584621489615,1707.329346476559 L274.08712877233444,1707.1028500029022" fill="#E6E6FA66" stroke="black" />
<text font-size="12" stroke="none" fill="#000000"><textPath xlink:href="#d0" startOffset="10">
<tspan dy="-1em">20.0mm allowance</tspan>
</textPath></text>
</g>
<g>
<path d="M177.6673799281396,-5.597149997093357 L177.0992826380604,11.702850002906597 L176.5311853479812,29.002850002906552 L175.96308805790198,46.30285000290651 L175.39499076782278,63.602850002906465 L174.82689347774357,80.90285000290642 L174.25879618766433,98.20285000290637 L173.69069889758512,115.50285000290633 L173.1226016075059,132.80285000290627 L172.5545043174267,150.10285000290622 L171.9864070273475,167.40285000290618 L171.4183097372683,184.70285000290613 L170.85021244718908,202.0028500029061 L170.28211515710987,219.30285000290604 L169.71401786703066,236.602850002906 L169.08048952345783,253.90285000290595 L168.40292241403418,271.2028500029059 L167.72535530461053,288.50285000290586 L167.04778819518688,305.8028500029058 L166.37022108576326,323.10285000290577 L165.69265397633959,340.4028500029057 L165.01508686691596,357.7028500029057 L164.33751975749232,375.00285000290563 L163.65995264806867,392.3028500029056 L162.98238553864502,409.60285000290554 L162.30481842922137,426.9028500029055 L161.62725131979772,444.20285000290545 L160.94968421037407,461.5028500029054 L160.27211710095045,478.80285000290536 L159.5945499915268,496.1028500029053 L158.91698288210316,513.4028500029053 L158.23941577267954,530.7028500029053 L157.5618486632559,548.0028500029052 L156.88428155383224,565.3028500029052 L156.2067144444086,582.6028500029051 L155.52914733498494,599.9028500029051 L154.8515262404714,617.202850002905 L154.09630425158053,634.502850002905 L152.89626263557616,651.802850002905 L151.19416237435024,669.1028500029049 L148.99652139180705,686.4028500029049 L146.30470716061149,703.7028500029048 L143.17570274372827,721.0028500029048 L139.6359924715847,738.3028500029047 L135.68491119719914,755.6028500029047 L131.37821645597228,772.9028500029046 L126.77689070958316,790.2028500029046 L121.92098363639155,807.5028500029046 L116.84033943752684,824.8028500029045 L111.59843029010995,842.1028500029045 L106.24272014540733,859.4028500029044 L100.82238775502185,876.7028500029044 L95.39577223132537,894.0028500029043 L90.01501847767787,911.3028500029043 L84.72691120187866,928.6028500029042 L79.58547167035502,945.9028500029042 L74.64626753567961,963.2028500029041 L69.95830473638637,980.5028500029041 L65.55639207638572,997.802850002904 L61.50166607323078,1015.102850002904 L57.81993604118708,1032.402850002904 L54.53531297009516,1049.702850002904 L51.678159281387195,1067.0028500029039 L49.33197398246787,1084.3028500029038 L47.47948659520972,1101.6028500029038 L46.122422936810494,1118.9028500029037 L45.288597050829964,1136.2028500029037 L45.00222004688089,1153.5028500029036 L45.23424857503829,1170.8028500029036 L45.987297742430144,1188.1028500029036 L47.30794376442725,1205.4028500029035 L49.14103953168063,1222.7028500029035 L51.45276020971019,1240.0028500029034 L54.22302555868325,1257.3028500029034 L57.46225227444785,1274.6028500029033 L61.10542505509605,1291.9028500029033 L65.13225804996117,1309.2028500029032 L69.50064731626676,1326.5028500029032 L74.17482946157318,1343.8028500029031 L79.09004691068031,1361.102850002903 L84.20353020856479,1378.402850002903 L89.47563045536387,1395.702850002903 L94.85308396927032,1413.002850002903 L100.27888499636111,1430.302850002903 L105.70130095803484,1447.6028500029029 L111.06476668518235,1464.9028500029028 L116.319517635158,1482.2028500029028 L121.4207986832198,1499.5028500029027 L126.32157167681221,1516.8028500029027 L130.93732810327668,1534.1028500029026 L135.25587535045696,1551.4028500029026 L139.24062957903834,1568.7028500029026 L142.84148847766073,1586.0028500029025 L146.0151622717022,1603.3028500029025 L148.7543610242717,1620.6028500029024 L151.01743851958463,1637.9028500029024 L152.75302725784513,1655.2028500029023 L153.97552570717585,1672.5028500029023 L154.68789364968708,1689.8028500029022 L154.88382566410348,1707.1028500029022 L134.8851082215418,1707.329346476559 L134.69255454183235,1690.327639691229 L134.0045539045443,1673.6194046418939 L132.82353015652382,1656.9063275398792 L131.14736757250435,1640.1986755113107 L128.95828495527076,1623.4643262207765 L126.29940615799015,1606.6716042067817 L123.2126727220811,1589.8455244308861 L119.7034190978672,1572.9856336636788 L115.80713792706051,1556.0697436518226 L111.57178403056321,1539.103014282989 L107.03703074763798,1522.106616608107 L102.20715680441658,1505.0568941812633 L97.15915559375351,1487.937582361012 L91.94475869047947,1470.7704383259515 L86.60749663224469,1453.5549589503462 L81.19490234242397,1436.2862945993013 L75.76201415155828,1418.9636973951845 L70.3604903678592,1401.586260060513 L65.04765560067531,1384.152592798956 L59.880363838060475,1366.6705473349173 L54.90089042802734,1349.1443868169847 L50.14980289104773,1331.5597459462215 L45.695256784400016,1313.918541615051 L41.57823210954197,1296.2310619093187 L37.84521526153114,1278.5044276377791 L34.516223203570945,1260.7250106175304 L31.66332649531705,1242.9089869391214 L29.281115963068885,1225.0814688485611 L27.388326083152577,1207.2181004924103 L26.020435316461857,1189.299210896258 L25.240082811918597,1171.371964026904 L25.0,1153.4714382632676 L25.296568788468136,1135.5557537992029 L26.16011547650362,1117.6391144214113 L27.56294115617237,1099.7557350323211 L29.475602361261537,1081.8937840815977 L31.89839667395728,1064.0288943693688 L34.84164655552357,1046.207583897935 L38.2121007345082,1028.4555143196524 L41.98249233972692,1010.7389044100275 L46.12728946579688,993.0546046015543 L50.61404012428491,975.4211819539 L55.377711533966675,957.8417942932496 L60.38350217126904,940.3085691695142 L65.57777825965255,922.83078385704 L70.90289928278128,905.4096936832968 L76.30535026999206,888.0399335422783 L81.73820506743334,870.7200427954002 L87.14736810416123,853.4556918671477 L92.47522325898233,836.2456689779194 L97.6748713380041,819.0851442077785 L102.69757992742869,801.9824195933579 L107.48405145345228,784.929795613513 L112.00912780983592,767.9164770005292 L116.23025851817846,750.9601878641597 L120.08746428272228,734.0712263135048 L123.53575882053875,717.2180120903838 L126.58028396132696,700.3850908418711 L129.1912561959261,683.6046536426464 L131.31796068759135,666.8630711921589 L132.96414904756946,650.1313549258653 L134.12651227962075,633.3745327904477 L134.86860320384318,616.3753283473814 L135.54447047244227,599.1201043860387 L136.2220363624961,581.8201355196298 L136.89960347192,564.520135519632 L137.5771705813438,547.2201355196277 L138.2547376907675,529.9201355196275 L138.93230480019076,512.6201355196265 L139.6098719096143,495.32013551962933 L140.28743901903812,478.0201355196245 L140.96500612846165,460.7201355196275 L141.64257323788547,443.4201355196232 L142.3201403473089,426.12013551962986 L142.99770745673285,408.82013551962507 L143.67527456615625,391.5201355196286 L144.35284167558007,374.22013551962715 L145.03040878500357,356.92013551962737 L145.70797589442714,339.6201355196293 L146.38554300385107,322.3201355196243 L147.06311011327455,305.0201355196273 L147.7406772226982,287.7201355196266 L148.41824433212201,270.4201355196281 L149.09481663355052,253.14553548086388 L149.72603230715038,235.9086884414782 L150.29288978217753,218.64644394705257 L150.86098707225676,201.3464439470519 L151.4290843623359,184.0464439470531 L151.99718165241518,166.74644394705152 L152.5652789424944,149.4464439470518 L153.13337623257368,132.14644394705203 L153.70147352265283,114.84644394705232 L154.269570812732,97.54644394705173 L154.83766810281122,80.24644394705199 L155.40576539289043,62.94644394705219 L155.97386268296967,45.64644394705245 L156.54195997304885,28.346443947052297 L157.11005726312808,11.046443947052108 L157.6781545532073,-6.253556052947786 L177.6673799281396,-5.597149997093357" fill="#E6E6FA66" stroke="black" />
<text font-size="12" stroke="none" fill="#000000"><textPath xlink:href="#d1" startOffset="10">
<tspan dy="-1em">20.0mm allowance</tspan>
</textPath></text>
</g>
<g>
<path d="M214.48547721821896,-5.597149997093357 L214.48547721821896,1707.1028500029022" fill="none" stroke="black" stroke-dasharray="3" />
</g>
<g>
<circle cx="274.08712877233444" cy="1707.1028500029022" r="1" fill="black" />
<text x="276.08712877233444" y="1705.1028500029022" font-size="12" fill="#000000" stroke="none" dy="0em">0</text>
</g>
<g>
<circle cx="251.3035745082983" cy="-5.597149997093357" r="1" fill="black" />
<text x="253.3035745082983" y="-7.597149997093357" font-size="12" fill="#000000" stroke="none" dy="0em">1</text>
</g>
<g>
<circle cx="177.6673799281396" cy="-5.597149997093357" r="1" fill="black" />
<text x="179.6673799281396" y="-7.597149997093357" font-size="12" fill="#000000" stroke="none" dy="0em">2</text>
</g>
<g>
<circle cx="154.88382566410348" cy="1707.1028500029022" r="1" fill="black" />
<text x="156.88382566410348" y="1705.1028500029022" font-size="12" fill="#000000" stroke="none" dy="0em">3</text>
</g>
</g>
<g>
<g>
<path d="M440.9709544364373,1699.6999999999955 L452.9709544364373,1699.6999999999955 L452.9709544364373,-13.0 L440.9709544364373,-13.0 L440.9709544364373,1699.6999999999955" fill="#E6E6FA66" stroke="black" />
<text font-size="12" stroke="none" fill="#000000"><textPath xlink:href="#d2" startOffset="10">
<tspan dy="-1em">12mm boning channel</tspan>
</textPath></text>
</g>
<g>
<path d="M440.9709544364373,1699.6999999999955 L452.9709544364373,1699.6999999999955 L452.9709544364373,-13.0 L440.9709544364373,-13.0 L440.9709544364373,1699.6999999999955 L428.9709544364373,1699.6999999999955 L428.9709544364373,-25.0 L464.9709544364373,-24.99999999999997 L464.9709544364379,1711.6999999999955 L440.9709544364373,1711.6999999999955 L440.9709544364373,1699.6999999999955" fill="#E6E6FA66" stroke="black" />
<text font-size="12" stroke="none" fill="#000000"><textPath xlink:href="#d3" startOffset="10">
<tspan dy="-1em">12.0mm allowance</tspan>
</textPath></text>
</g>
</g>
</svg>