<?xml version="1.0" encoding="UTF-8"?>
<svg xmlns="http://www.w3.org/2000/svg" xmlns:xlink="http://www.w3.org/1999/xlink"
     width="3589.9855625361565" height="1930.0" viewBox="-100 -100.0 3589.9855625361565 1930.0" stroke="black" fill="none">
<defs>
</defs>
<path d="M-100,1830.0 L3489.9855625361565,1830.0" stroke="#dddddd" />
<path d="M-100,1620.0 L3489.9855625361565,1620.0" stroke="#dddddd" />
<path d="M-100,1410.0 L3489.9855625361565,1410.0" stroke="#dddddd" />
<path d="M-100,1200.0 L3489.9855625361565,1200.0" stroke="#dddddd" />
<path d="M-100,990.0 L3489.9855625361565,990.0" stroke="#dddddd" />
<path d="M-100,780.0 L3489.9855625361565,780.0" stroke="#dddddd" />
<path d="M-100,570.0 L3489.9855625361565,570.0" stroke="#dddddd" />
<path d="M-100,360.0 L3489.9855625361565,360.0" stroke="#dddddd" />
<path d="M-100,150.0 L3489.9855625361565,150.0" stroke="#dddddd" />
<path d="M-100,-60.0 L3489.9855625361565,-60.0" stroke="#dddddd" />
<path d="M-100.0,1830.0 L-100.0,-100.0" stroke="#dddddd" />
<path d="M197.0,1830.0 L197.0,-100.0" stroke="#dddddd" />
<path d="M494.0,1830.0 L494.0,-100.0" stroke="#dddddd" />
<path d="M791.0,1830.0 L791.0,-100.0" stroke="#dddddd" />
<path d="M1088.0,1830.0 L1088.0,-100.0" stroke="#dddddd" />
<path d="M1385.0,1830.0 L1385.0,-100.0" stroke="#dddddd" />
<path d="M1682.0,1830.0 L1682.0,-100.0" stroke="#dddddd" />
<path d="M1979.0,1830.0 L1979.0,-100.0" stroke="#dddddd" />
<path d="M2276.0,1830.0 L2276.0,-100.0" stroke="#dddddd" />
<path d="M2573.0,1830.0 L2573.0,-100.0" stroke="#dddddd" />
<path d="M2870.0,1830.0 L2870.0,-100.0" stroke="#dddddd" />
<path d="M3167.0,1830.0 L3167.0,-100.0" stroke="#dddddd" />
<path d="M3464.0,1830.0 L3464.0,-100.0" stroke="#dddddd" />
<text x="48.5" y="1725.0" font-size="10" stroke="none" fill="#dddddd" dy="0em">α0</text>
<text x="48.5" y="1515.0" font-size="10" stroke="none" fill="#dddddd" dy="0em">α1</text>
<text x="48.5" y="1305.0" font-size="10" stroke="none" fill="#dddddd" dy="0em">α2</text>
<text x="48.5" y="1095.0" font-size="10" stroke="none" fill="#dddddd" dy="0em">α3</text>
<text x="48.5" y="885.0" font-size="10" stroke="none" fill="#dddddd" dy="0em">α4</text>
<text x="48.5" y="675.0" font-size="10" stroke="none" fill="#dddddd" dy="0em">α5</text>
<text x="48.5" y="465.0" font-size="10" stroke="none" fill="#dddddd" dy="0em">α6</text>
<text x="48.5" y="255.0" font-size="10" stroke="none" fill="#dddddd" dy="0em">α7</text>
<text x="48.5" y="45.0" font-size="10" stroke="none" fill="#dddddd" dy="0em">α8</text>
<text x="345.5" y="1725.0" font-size="10" stroke="none" fill="#dddddd" dy="0em">β0</text>
<text x="345.5" y="1515.0" font-size="10" stroke="none" fill="#dddddd" dy="0em">β1</text>
<text x="345.5" y="1305.0" font-size="10" stroke="none" fill="#dddddd" dy="0em">β2</text>
<text x="345.5" y="1095.0" font-size="10" stroke="none" fill="#dddddd" dy="0em">β3</text>
<text x="345.5" y="885.0" font-size="10" stroke="none" fill="#dddddd" dy="0em">β4</text>
<text x="345.5" y="675.0" font-size="10" stroke="none" fill="#dddddd" dy="0em">β5</text>
<text x="345.5" y="465.0" font-size="10" stroke="none" fill="#dddddd" dy="0em">β6</text>
<text x="345.5" y="255.0" font-size="10" stroke="none" fill="#dddddd" dy="0em">β7</text>
<text x="345.5" y="45.0" font-size="10" stroke="none" fill="#dddddd" dy="0em">β8</text>
<text x="642.5" y="1725.0" font-size="10" stroke="none" fill="#dddddd" dy="0em">γ0</text>
<text x="642.5" y="1515.0" font-size="10" stroke="none" fill="#dddddd" dy="0em">γ1</text>
<text x="642.5" y="1305.0" font-size="10" stroke="none" fill="#dddddd" dy="0em">γ2</text>
<text x="642.5" y="1095.0" font-size="10" stroke="none" fill="#dddddd" dy="0em">γ3</text>
<text x="642.5" y="885.0" font-size="10" stroke="none" fill="#dddddd" dy="0em">γ4</text>
<text x="642.5" y="675.0" font-size="10" stroke="none" fill="#dddddd" dy="0em">γ5</text>
<text x="642.5" y="465.0" font-size="10" stroke="none" fill="#dddddd" dy="0em">γ6</text>
<text x="642.5" y="255.0" font-size="10" stroke="none" fill="#dddddd" dy="0em">γ7</text>
<text x="642.5" y="45.0" font-size="10" stroke="none" fill="#dddddd" dy="0em">γ8</text>
<text x="939.5" y="1725.0" font-size="10" stroke="none" fill="#dddddd" dy="0em">δ0</text>
<text x="939.5" y="1515.0" font-size="10" stroke="none" fill="#dddddd" dy="0em">δ1</text>
<text x="939.5" y="1305.0" font-size="10" stroke="none" fill="#dddddd" dy="0em">δ2</text>
<text x="939.5" y="1095.0" font-size="10" stroke="none" fill="#dddddd" dy="0em">δ3</text>
<text x="939.5" y="885.0" font-size="10" stroke="none" fill="#dddddd" dy="0em">δ4</text>
<text x="939.5" y="675.0" font-size="10" stroke="none" fill="#dddddd" dy="0em">δ5</text>
<text x="939.5" y="465.0" font-size="10" stroke="none" fill="#dddddd" dy="0em">δ6</text>
<text x="939.5" y="255.0" font-size="10" stroke="none" fill="#dddddd" dy="0em">δ7</text>
<text x="939.5" y="45.0" font-size="10" stroke="none" fill="#dddddd" dy="0em">δ8</text>
<text x="1236.5" y="1725.0" font-size="10" stroke="none" fill="#dddddd" dy="0em">ε0</text>
<text x="1236.5" y="1515.0" font-size="10" stroke="none" fill="#dddddd" dy="0em">ε1</text>
<text x="1236.5" y="1305.0" font-size="10" stroke="none" fill="#dddddd" dy="0em">ε2</text>
<text x="1236.5" y="1095.0" font-size="10" stroke="none" fill="#dddddd" dy="0em">ε3</text>
<text x="1236.5" y="885.0" font-size="10" stroke="none" fill="#dddddd" dy="0em">ε4</text>
<text x="1236.5" y="675.0" font-size="10" stroke="none" fill="#dddddd" dy="0em">ε5</text>
<text x="1236.5" y="465.0" font-size="10" stroke="none" fill="#dddddd" dy="0em">ε6</text>
<text x="1236.5" y="255.0" font-size="10" stroke="none" fill="#dddddd" dy="0em">ε7</text>
<text x="1236.5" y="45.0" font-size="10" stroke="none" fill="#dddddd" dy="0em">ε8</text>
<text x="1533.5" y="1725.0" font-size="10" stroke="none" fill="#dddddd" dy="0em">ζ0</text>
<text x="1533.5" y="1515.0" font-size="10" stroke="none" fill="#dddddd" dy="0em">ζ1</text>
<text x="1533.5" y="1305.0" font-size="10" stroke="none" fill="#dddddd" dy="0em">ζ2</text>
<text x="1533.5" y="1095.0" font-size="10" stroke="none" fill="#dddddd" dy="0em">ζ3</text>
<text x="1533.5" y="885.0" font-size="10" stroke="none" fill="#dddddd" dy="0em">ζ4</text>
<text x="1533.5" y="675.0" font-size="10" stroke="none" fill="#dddddd" dy="0em">ζ5</text>
<text x="1533.5" y="465.0" font-size="10" stroke="none" fill="#dddddd" dy="0em">ζ6</text>
<text x="1533.5" y="255.0" font-size="10" stroke="none" fill="#dddddd" dy="0em">ζ7</text>
<text x="1533.5" y="45.0" font-size="10" stroke="none" fill="#dddddd" dy="0em">ζ8</text>
<text x="1830.5" y="1725.0" font-size="10" stroke="none" fill="#dddddd" dy="0em">η0</text>
<text x="1830.5" y="1515.0" font-size="10" stroke="none" fill="#dddddd" dy="0em">η1</text>
<text x="1830.5" y="1305.0" font-size="10" stroke="none" fill="#dddddd" dy="0em">η2</text>
<text x="1830.5" y="1095.0" font-size="10" stroke="none" fill="#dddddd" dy="0em">η3</text>
<text x="1830.5" y="885.0" font-size="10" stroke="none" fill="#dddddd" dy="0em">η4</text>
<text x="1830.5" y="675.0" font-size="10" stroke="none" fill="#dddddd" dy="0em">η5</text>
<text x="1830.5" y="465.0" font-size="10" stroke="none" fill="#dddddd" dy="0em">η6</text>
<text x="1830.5" y="255.0" font-size="10" stroke="none" fill="#dddddd" dy="0em">η7</text>
<text x="1830.5" y="45.0" font-size="10" stroke="none" fill="#dddddd" dy="0em">η8</text>
<text x="2127.5" y="1725.0" font-size="10" stroke="none" fill="#dddddd" dy="0em">θ0</text>
<text x="2127.5" y="1515.0" font-size="10" stroke="none" fill="#dddddd" dy="0em">θ1</text>
<text x="2127.5" y="1305.0" font-size="10" stroke="none" fill="#dddddd" dy="0em">θ2</text>
<text x="2127.5" y="1095.0" font-size="10" stroke="none" fill="#dddddd" dy="0em">θ3</text>
<text x="2127.5" y="885.0" font-size="10" stroke="none" fill="#dddddd" dy="0em">θ4</text>
<text x="2127.5" y="675.0" font-size="10" stroke="none" fill="#dddddd" dy="0em">θ5</text>
<text x="2127.5" y="465.0" font-size="10" stroke="none" fill="#dddddd" dy="0em">θ6</text>
<text x="2127.5" y="255.0" font-size="10" stroke="none" fill="#dddddd" dy="0em">θ7</text>
<text x="2127.5" y="45.0" font-size="10" stroke="none" fill="#dddddd" dy="0em">θ8</text>
<text x="2424.5" y="1725.0" font-size="10" stroke="none" fill="#dddddd" dy="0em">ι0</text>
<text x="2424.5" y="1515.0" font-size="10" stroke="none" fill="#dddddd" dy="0em">ι1</text>
<text x="2424.5" y="1305.0" font-size="10" stroke="none" fill="#dddddd" dy="0em">ι2</text>
<text x="2424.5" y="1095.0" font-size="10" stroke="none" fill="#dddddd" dy="0em">ι3</text>
<text x="2424.5" y="885.0" font-size="10" stroke="none" fill="#dddddd" dy="0em">ι4</text>
<text x="2424.5" y="675.0" font-size="10" stroke="none" fill="#dddddd" dy="0em">ι5</text>
<text x="2424.5" y="465.0" font-size="10" stroke="none" fill="#dddddd" dy="0em">ι6</text>
<text x="2424.5" y="255.0" font-size="10" stroke="none" fill="#dddddd" dy="0em">ι7</text>
<text x="2424.5" y="45.0" font-size="10" stroke="none" fill="#dddddd" dy="0em">ι8</text>
<text x="2721.5" y="1725.0" font-size="10" stroke="none" fill="#dddddd" dy="0em">κ0</text>
<text x="2721.5" y="1515.0" font-size="10" stroke="none" fill="#dddddd" dy="0em">κ1</text>
<text x="2721.5" y="1305.0" font-size="10" stroke="none" fill="#dddddd" dy="0em">κ2</text>
<text x="2721.5" y="1095.0" font-size="10" stroke="none" fill="#dddddd" dy="0em">κ3</text>
<text x="2721.5" y="885.0" font-size="10" stroke="none" fill="#dddddd" dy="0em">κ4</text>
<text x="2721.5" y="675.0" font-size="10" stroke="none" fill="#dddddd" dy="0em">κ5</text>
<text x="2721.5" y="465.0" font-size="10" stroke="none" fill="#dddddd" dy="0em">κ6</text>
<text x="2721.5" y="255.0" font-size="10" stroke="none" fill="#dddddd" dy="0em">κ7</text>
<text x="2721.5" y="45.0" font-size="10" stroke="none" fill="#dddddd" dy="0em">κ8</text>
<text x="3018.5" y="1725.0" font-size="10" stroke="none" fill="#dddddd" dy="0em">λ0</text>
<text x="3018.5" y="1515.0" font-size="10" stroke="none" fill="#dddddd" dy="0em">λ1</text>
<text x="3018.5" y="1305.0" font-size="10" stroke="none" fill="#dddddd" dy="0em">λ2</text>
<text x="3018.5" y="1095.0" font-size="10" stroke="none" fill="#dddddd" dy="0em">λ3</text>
<text x="3018.5" y="885.0" font-size="10" stroke="none" fill="#dddddd" dy="0em">λ4</text>
<text x="3018.5" y="675.0" font-size="10" stroke="none" fill="#dddddd" dy="0em">λ5</text>
<text x="3018.5" y="465.0" font-size="10" stroke="none" fill="#dddddd" dy="0em">λ6</text>
<text x="3018.5" y="255.0" font-size="10" stroke="none" fill="#dddddd" dy="0em">λ7</text>
<text x="3018.5" y="45.0" font-size="10" stroke="none" fill="#dddddd" dy="0em">λ8</text>
<text x="3315.5" y="1725.0" font-size="10" stroke="none" fill="#dddddd" dy="0em">μ0</text>
<text x="3315.5" y="1515.0" font-size="10" stroke="none" fill="#dddddd" dy="0em">μ1</text>
<text x="3315.5" y="1305.0" font-size="10" stroke="none" fill="#dddddd" dy="0em">μ2</text>
<text x="3315.5" y="1095.0" font-size="10" stroke="none" fill="#dddddd" dy="0em">μ3</text>
<text x="3315.5" y="885.0" font-size="10" stroke="none" fill="#dddddd" dy="0em">μ4</text>
<text x="3315.5" y="675.0" font-size="10" stroke="none" fill="#dddddd" dy="0em">μ5</text>
<text x="3315.5" y="465.0" font-size="10" stroke="none" fill="#dddddd" dy="0em">μ6</text>
<text x="3315.5" y="255.0" font-size="10" stroke="none" fill="#dddddd" dy="0em">μ7</text>
<text x="3315.5" y="45.0" font-size="10" stroke="none" fill="#dddddd" dy="0em">μ8</text>
<path d="M-100,1830.0 L3489.9855625361565,1830.0" stroke="#ffcccc66" stroke-dasharray="5" />
<text x="-99" y="1828.0" font-size="8" stroke="none" fill="#ffcccc66" dy="0em">-100mm</text>
<path d="M-100,1780.0 L3489.9855625361565,1780.0" stroke="#ffcccc66" stroke-dasharray="5" />
<text x="-99" y="1778.0" font-size="8" stroke="none" fill="#ffcccc66" dy="0em">-50mm</text>
<path d="M-100,1730.0 L3489.9855625361565,1730.0" stroke="#ffcccc66" stroke-dasharray="5" />
<text x="-99" y="1728.0" font-size="8" stroke="none" fill="#ffcccc66" dy="0em">0mm</text>
<path d="M-100,1680.0 L3489.9855625361565,1680.0" stroke="#ffcccc66" stroke-dasharray="5" />
<text x="-99" y="1678.0" font-size="8" stroke="none" fill="#ffcccc66" dy="0em">50mm</text>
<path d="M-100,1630.0 L3489.9855625361565,1630.0" stroke="#ffcccc66" stroke-dasharray="5" />
<text x="-99" y="1628.0" font-size="8" stroke="none" fill="#ffcccc66" dy="0em">100mm</text>
<path d="M-100,1580.0 L3489.9855625361565,1580.0" stroke="#ffcccc66" stroke-dasharray="5" />
<text x="-99" y="1578.0" font-size="8" stroke="none" fill="#ffcccc66" dy="0em">150mm</text>
<path d="M-100,1530.0 L3489.9855625361565,1530.0" stroke="#ffcccc66" stroke-dasharray="5" />
<text x="-99" y="1528.0" font-size="8" stroke="none" fill="#ffcccc66" dy="0em">200mm</text>
<path d="M-100,1480.0 L3489.9855625361565,1480.0" stroke="#ffcccc66" stroke-dasharray="5" />
<text x="-99" y="1478.0" font-size="8" stroke="none" fill="#ffcccc66" dy="0em">250mm</text>
<path d="M-100,1430.0 L3489.9855625361565,1430.0" stroke="#ffcccc66" stroke-dasharray="5" />
<text x="-99" y="1428.0" font-size="8" stroke="none" fill="#ffcccc66" dy="0em">300mm</text>
<path d="M-100,1380.0 L3489.9855625361565,1380.0" stroke="#ffcccc66" stroke-dasharray="5" />
<text x="-99" y="1378.0" font-size="8" stroke="none" fill="#ffcccc66" dy="0em">350mm</text>
<path d="M-100,1330.0 L3489.9855625361565,1330.0" stroke="#ffcccc66" stroke-dasharray="5" />
<text x="-99" y="1328.0" font-size="8" stroke="none" fill="#ffcccc66" dy="0em">400mm</text>
<path d="M-100,1280.0 L3489.9855625361565,1280.0" stroke="#ffcccc66" stroke-dasharray="5" />
<text x="-99" y="1278.0" font-size="8" stroke="none" fill="#ffcccc66" dy="0em">450mm</text>
<path d="M-100,1230.0 L3489.9855625361565,1230.0" stroke="#ffcccc66" stroke-dasharray="5" />
<text x="-99" y="1228.0" font-size="8" stroke="none" fill="#ffcccc66" dy="0em">500mm</text>
<path d="M-100,1180.0 L3489.9855625361565,1180.0" stroke="#ffcccc66" stroke-dasharray="5" />
<text x="-99" y="1178.0" font-size="8" stroke="none" fill="#ffcccc66" dy="0em">550mm</text>
<path d="M-100,1130.0 L3489.9855625361565,1130.0" stroke="#ffcccc66" stroke-dasharray="5" />
<text x="-99" y="1128.0" font-size="8" stroke="none" fill="#ffcccc66" dy="0em">600mm</text>
<path d="M-100,1080.0 L3489.9855625361565,1080.0" stroke="#ffcccc66" stroke-dasharray="5" />
<text x="-99" y="1078.0" font-size="8" stroke="none" fill="#ffcccc66" dy="0em">650mm</text>
<path d="M-100,1030.0 L3489.9855625361565,1030.0" stroke="#ffcccc66" stroke-dasharray="5" />
<text x="-99" y="1028.0" font-size="8" stroke="none" fill="#ffcccc66" dy="0em">700mm</text>
<path d="M-100,980.0 L3489.9855625361565,980.0" stroke="#ffcccc66" stroke-dasharray="5" />
<text x="-99" y="978.0" font-size="8" stroke="none" fill="#ffcccc66" dy="0em">750mm</text>
<path d="M-100,930.0 L3489.9855625361565,930.0" stroke="#ffcccc66" stroke-dasharray="5" />
<text x="-99" y="928.0" font-size="8" stroke="none" fill="#ffcccc66" dy="0em">800mm</text>
<path d="M-100,880.0 L3489.9855625361565,880.0" stroke="#ffcccc66" stroke-dasharray="5" />
<text x="-99" y="878.0" font-size="8" stroke="none" fill="#ffcccc66" dy="0em">850mm</text>
<path d="M-100,830.0 L3489.9855625361565,830.0" stroke="#ffcccc66" stroke-dasharray="5" />
<text x="-99" y="828.0" font-size="8" stroke="none" fill="#ffcccc66" dy="0em">900mm</text>
<path d="M-100,780.0 L3489.9855625361565,780.0" stroke="#ffcccc66" stroke-dasharray="5" />
<text x="-99" y="778.0" font-size="8" stroke="none" fill="#ffcccc66" dy="0em">950mm</text>
<path d="M-100,730.0 L3489.9855625361565,730.0" stroke="#ffcccc66" stroke-dasharray="5" />
<text x="-99" y="728.0" font-size="8" stroke="none" fill="#ffcccc66" dy="0em">1000mm</text>
<path d="M-100,680.0 L3489.9855625361565,680.0" stroke="#ffcccc66" stroke-dasharray="5" />
<text x="-99" y="678.0" font-size="8" stroke="none" fill="#ffcccc66" dy="0em">1050mm</text>
<path d="M-100,630.0 L3489.9855625361565,630.0" stroke="#ffcccc66" stroke-dasharray="5" />
<text x="-99" y="628.0" font-size="8" stroke="none" fill="#ffcccc66" dy="0em">1100mm</text>
<path d="M-100,580.0 L3489.9855625361565,580.0" stroke="#ffcccc66" stroke-dasharray="5" />
<text x="-99" y="578.0" font-size="8" stroke="none" fill="#ffcccc66" dy="0em">1150mm</text>
<path d="M-100,530.0 L3489.9855625361565,530.0" stroke="#ffcccc66" stroke-dasharray="5" />
<text x="-99" y="528.0" font-size="8" stroke="none" fill="#ffcccc66" dy="0em">1200mm</text>
<path d="M-100,480.0 L3489.9855625361565,480.0" stroke="#ffcccc66" stroke-dasharray="5" />
<text x="-99" y="478.0" font-size="8" stroke="none" fill="#ffcccc66" dy="0em">1250mm</text>
<path d="M-100,430.0 L3489.9855625361565,430.0" stroke="#ffcccc66" stroke-dasharray="5" />
<text x="-99" y="428.0" font-size="8" stroke="none" fill="#ffcccc66" dy="0em">1300mm</text>
<path d="M-100,380.0 L3489.9855625361565,380.0" stroke="#ffcccc66" stroke-dasharray="5" />
<text x="-99" y="378.0" font-size="8" stroke="none" fill="#ffcccc66" dy="0em">1350mm</text>
<path d="M-100,330.0 L3489.9855625361565,330.0" stroke="#ffcccc66" stroke-dasharray="5" />
<text x="-99" y="328.0" font-size="8" stroke="none" fill="#ffcccc66" dy="0em">1400mm</text>
<path d="M-100,280.0 L3489.9855625361565,280.0" stroke="#ffcccc66" stroke-dasharray="5" />
<text x="-99" y="278.0" font-size="8" stroke="none" fill="#ffcccc66" dy="0em">1450mm</text>
<path d="M-100,230.0 L3489.9855625361565,230.0" stroke="#ffcccc66" stroke-dasharray="5" />
<text x="-99" y="228.0" font-size="8" stroke="none" fill="#ffcccc66" dy="0em">1500mm</text>
<path d="M-100,180.0 L3489.9855625361565,180.0" stroke="#ffcccc66" stroke-dasharray="5" />
<text x="-99" y="178.0" font-size="8" stroke="none" fill="#ffcccc66" dy="0em">1550mm</text>
<path d="M-100,130.0 L3489.9855625361565,130.0" stroke="#ffcccc66" stroke-dasharray="5" />
<text x="-99" y="128.0" font-size="8" stroke="none" fill="#ffcccc66" dy="0em">1600mm</text>
<path d="M-100,80.0 L3489.9855625361565,80.0" stroke="#ffcccc66" stroke-dasharray="5" />
<text x="-99" y="78.0" font-size="8" stroke="none" fill="#ffcccc66" dy="0em">1650mm</text>
<path d="M-100,30.0 L3489.9855625361565,30.0" stroke="#ffcccc66" stroke-dasharray="5" />
<text x="-99" y="28.0" font-size="8" stroke="none" fill="#ffcccc66" dy="0em">1700mm</text>
<path d="M-100,-20.0 L3489.9855625361565,-20.0" stroke="#ffcccc66" stroke-dasharray="5" />
<text x="-99" y="-22.0" font-size="8" stroke="none" fill="#ffcccc66" dy="0em">1750mm</text>
<path d="M-100,-70.0 L3489.9855625361565,-70.0" stroke="#ffcccc66" stroke-dasharray="5" />
<text x="-99" y="-72.0" font-size="8" stroke="none" fill="#ffcccc66" dy="0em">1800mm</text>
<path d="M-100.0,1830.0 L-100.0,-100.0" stroke="#ffcccc66" stroke-dasharray="5" />
<text x="-98.0" y="1829.0" font-size="8" stroke="none" fill="#ffcccc66" dy="0em">-100mm</text>
<path d="M-50.0,1830.0 L-50.0,-100.0" stroke="#ffcccc66" stroke-dasharray="5" />
<text x="-48.0" y="1829.0" font-size="8" stroke="none" fill="#ffcccc66" dy="0em">-50mm</text>
<path d="M0.0,1830.0 L0.0,-100.0" stroke="#ffcccc66" stroke-dasharray="5" />
<text x="2.0" y="1829.0" font-size="8" stroke="none" fill="#ffcccc66" dy="0em">0mm</text>
<path d="M50.0,1830.0 L50.0,-100.0" stroke="#ffcccc66" stroke-dasharray="5" />
<text x="52.0" y="1829.0" font-size="8" stroke="none" fill="#ffcccc66" dy="0em">50mm</text>
<path d="M100.0,1830.0 L100.0,-100.0" stroke="#ffcccc66" stroke-dasharray="5" />
<text x="102.0" y="1829.0" font-size="8" stroke="none" fill="#ffcccc66" dy="0em">100mm</text>
<path d="M150.0,1830.0 L150.0,-100.0" stroke="#ffcccc66" stroke-dasharray="5" />
<text x="152.0" y="1829.0" font-size="8" stroke="none" fill="#ffcccc66" dy="0em">150mm</text>
<path d="M200.0,1830.0 L200.0,-100.0" stroke="#ffcccc66" stroke-dasharray="5" />
<text x="202.0" y="1829.0" font-size="8" stroke="none" fill="#ffcccc66" dy="0em">200mm</text>
<path d="M250.0,1830.0 L250.0,-100.0" stroke="#ffcccc66" stroke-dasharray="5" />
<text x="252.0" y="1829.0" font-size="8" stroke="none" fill="#ffcccc66" dy="0em">250mm</text>
<path d="M300.0,1830.0 L300.0,-100.0" stroke="#ffcccc66" stroke-dasharray="5" />
<text x="302.0" y="1829.0" font-size="8" stroke="none" fill="#ffcccc66" dy="0em">300mm</text>
<path d="M350.0,1830.0 L350.0,-100.0" stroke="#ffcccc66" stroke-dasharray="5" />
<text x="352.0" y="1829.0" font-size="8" stroke="none" fill="#ffcccc66" dy="0em">350mm</text>
<path d="M400.0,1830.0 L400.0,-100.0" stroke="#ffcccc66" stroke-dasharray="5" />
<text x="402.0" y="1829.0" font-size="8" stroke="none" fill="#ffcccc66" dy="0em">400mm</text>
<path d="M450.0,1830.0 L450.0,-100.0" stroke="#ffcccc66" stroke-dasharray="5" />
<text x="452.0" y="1829.0" font-size="8" stroke="none" fill="#ffcccc66" dy="0em">450mm</text>
<path d="M500.0,1830.0 L500.0,-100.0" stroke="#ffcccc66" stroke-dasharray="5" />
<text x="502.0" y="1829.0" font-size="8" stroke="none" fill="#ffcccc66" dy="0em">500mm</text>
<path d="M550.0,1830.0 L550.0,-100.0" stroke="#ffcccc66" stroke-dasharray="5" />
<text x="552.0" y="1829.0" font-size="8" stroke="none" fill="#ffcccc66" dy="0em">550mm</text>
<path d="M600.0,1830.0 L600.0,-100.0" stroke="#ffcccc66" stroke-dasharray="5" />
<text x="602.0" y="1829.0" font-size="8" stroke="none" fill="#ffcccc66" dy="0em">600mm</text>
<path d="M650.0,1830.0 L650.0,-100.0" stroke="#ffcccc66" stroke-dasharray="5" />
<text x="652.0" y="1829.0" font-size="8" stroke="none" fill="#ffcccc66" dy="0em">650mm</text>
<path d="M700.0,1830.0 L700.0,-100.0" stroke="#ffcccc66" stroke-dasharray="5" />
<text x="702.0" y="1829.0" font-size="8" stroke="none" fill="#ffcccc66" dy="0em">700mm</text>
<path d="M750.0,1830.0 L750.0,-100.0" stroke="#ffcccc66" stroke-dasharray="5" />
<text x="752.0" y="1829.0" font-size="8" stroke="none" fill="#ffcccc66" dy="0em">750mm</text>
<path d="M800.0,1830.0 L800.0,-100.0" stroke="#ffcccc66" stroke-dasharray="5" />
<text x="802.0" y="1829.0" font-size="8" stroke="none" fill="#ffcccc66" dy="0em">800mm</text>
<path d="M850.0,1830.0 L850.0,-100.0" stroke="#ffcccc66" stroke-dasharray="5" />
<text x="852.0" y="1829.0" font-size="8" stroke="none" fill="#ffcccc66" dy="0em">850mm</text>
<path d="M900.0,1830.0 L900.0,-100.0" stroke="#ffcccc66" stroke-dasharray="5" />
<text x="902.0" y="1829.0" font-size="8" stroke="none" fill="#ffcccc66" dy="0em">900mm</text>
<path d="M950.0,1830.0 L950.0,-100.0" stroke="#ffcccc66" stroke-dasharray="5" />
<text x="952.0" y="1829.0" font-size="8" stroke="none" fill="#ffcccc66" dy="0em">950mm</text>
<path d="M1000.0,1830.0 L1000.0,-100.0" stroke="#ffcccc66" stroke-dasharray="5" />
<text x="1002.0" y="1829.0" font-size="8" stroke="none" fill="#ffcccc66" dy="0em">1000mm</text>
<path d="M1050.0,1830.0 L1050.0,-100.0" stroke="#ffcccc66" stroke-dasharray="5" />
<text x="1052.0" y="1829.0" font-size="8" stroke="none" fill="#ffcccc66" dy="0em">1050mm</text>
<path d="M1100.0,1830.0 L1100.0,-100.0" stroke="#ffcccc66" stroke-dasharray="5" />
<text x="1102.0" y="1829.0" font-size="8" stroke="none" fill="#ffcccc66" dy="0em">1100mm</text>
<path d="M1150.0,1830.0 L1150.0,-100.0" stroke="#ffcccc66" stroke-dasharray="5" />
<text x="1152.0" y="1829.0" font-size="8" stroke="none" fill="#ffcccc66" dy="0em">1150mm</text>
<path d="M1200.0,1830.0 L1200.0,-100.0" stroke="#ffcccc66" stroke-dasharray="5" />
<text x="1202.0" y="1829.0" font-size="8" stroke="none" fill="#ffcccc66" dy="0em">1200mm</text>
<path d="M1250.0,1830.0 L1250.0,-100.0" stroke="#ffcccc66" stroke-dasharray="5" />
<text x="1252.0" y="1829.0" font-size="8" stroke="none" fill="#ffcccc66" dy="0em">1250mm</text>
<path d="M1300.0,1830.0 L1300.0,-100.0" stroke="#ffcccc66" stroke-dasharray="5" />
<text x="1302.0" y="1829.0" font-size="8" stroke="none" fill="#ffcccc66" dy="0em">1300mm</text>
<path d="M1350.0,1830.0 L1350.0,-100.0" stroke="#ffcccc66" stroke-dasharray="5" />
<text x="1352.0" y="1829.0" font-size="8" stroke="none" fill="#ffcccc66" dy="0em">1350mm</text>
<path d="M1400.0,1830.0 L1400.0,-100.0" stroke="#ffcccc66" stroke-dasharray="5" />
<text x="1402.0" y="1829.0" font-size="8" stroke="none" fill="#ffcccc66" dy="0em">1400mm</text>
<path d="M1450.0,1830.0 L1450.0,-100.0" stroke="#ffcccc66" stroke-dasharray="5" />
<text x="1452.0" y="1829.0" font-size="8" stroke="none" fill="#ffcccc66" dy="0em">1450mm</text>
<path d="M1500.0,1830.0 L1500.0,-100.0" stroke="#ffcccc66" stroke-dasharray="5" />
<text x="1502.0" y="1829.0" font-size="8" stroke="none" fill="#ffcccc66" dy="0em">1500mm</text>
<path d="M1550.0,1830.0 L1550.0,-100.0" stroke="#ffcccc66" stroke-dasharray="5" />
<text x="1552.0" y="1829.0" font-size="8" stroke="none" fill="#ffcccc66" dy="0em">1550mm</text>
<path d="M1600.0,1830.0 L1600.0,-100.0" stroke="#ffcccc66" stroke-dasharray="5" />
<text x="1602.0" y="1829.0" font-size="8" stroke="none" fill="#ffcccc66" dy="0em">1600mm</text>
<path d="M1650.0,1830.0 L1650.0,-100.0" stroke="#ffcccc66" stroke-dasharray="5" />
<text x="1652.0" y="1829.0" font-size="8" stroke="none" fill="#ffcccc66" dy="0em">1650mm</text>
<path d="M1700.0,1830.0 L1700.0,-100.0" stroke="#ffcccc66" stroke-dasharray="5" />
<text x="1702.0" y="1829.0" font-size="8" stroke="none" fill="#ffcccc66" dy="0em">1700mm</text>
<path d="M1750.0,1830.0 L1750.0,-100.0" stroke="#ffcccc66" stroke-dasharray="5" />
<text x="1752.0" y="1829.0" font-size="8" stroke="none" fill="#ffcccc66" dy="0em">1750mm</text>
<path d="M1800.0,1830.0 L1800.0,-100.0" stroke="#ffcccc66" stroke-dasharray="5" />
<text x="1802.0" y="1829.0" font-size="8" stroke="none" fill="#ffcccc66" dy="0em">1800mm</text>
<path d="M1850.0,1830.0 L1850.0,-100.0" stroke="#ffcccc66" stroke-dasharray="5" />
<text x="1852.0" y="1829.0" font-size="8" stroke="none" fill="#ffcccc66" dy="0em">1850mm</text>
<path d="M1900.0,1830.0 L1900.0,-100.0" stroke="#ffcccc66" stroke-dasharray="5" />
<text x="1902.0" y="1829.0" font-size="8" stroke="none" fill="#ffcccc66" dy="0em">1900mm</text>
<path d="M1950.0,1830.0 L1950.0,-100.0" stroke="#ffcccc66" stroke-dasharray="5" />
<text x="1952.0" y="1829.0" font-size="8" stroke="none" fill="#ffcccc66" dy="0em">1950mm</text>
<path d="M2000.0,1830.0 L2000.0,-100.0" stroke="#ffcccc66" stroke-dasharray="5" />
<text x="2002.0" y="1829.0" font-size="8" stroke="none" fill="#ffcccc66" dy="0em">2000mm</text>
<path d="M2050.0,1830.0 L2050.0,-100.0" stroke="#ffcccc66" stroke-dasharray="5" />
<text x="2052.0" y="1829.0" font-size="8" stroke="none" fill="#ffcccc66" dy="0em">2050mm</text>
<path d="M2100.0,1830.0 L2100.0,-100.0" stroke="#ffcccc66" stroke-dasharray="5" />
<text x="2102.0" y="1829.0" font-size="8" stroke="none" fill="#ffcccc66" dy="0em">2100mm</text>
<path d="M2150.0,1830.0 L2150.0,-100.0" stroke="#ffcccc66" stroke-dasharray="5" />
<text x="2152.0" y="1829.0" font-size="8" stroke="none" fill="#ffcccc66" dy="0em">2150mm</text>
<path d="M2200.0,1830.0 L2200.0,-100.0" stroke="#ffcccc66" stroke-dasharray="5" />
<text x="2202.0" y="1829.0" font-size="8" stroke="none" fill="#ffcccc66" dy="0em">2200mm</text>
<path d="M2250.0,1830.0 L2250.0,-100.0" stroke="#ffcccc66" stroke-dasharray="5" />
<text x="2252.0" y="1829.0" font-size="8" stroke="none" fill="#ffcccc66" dy="0em">2250mm</text>
<path d="M2300.0,1830.0 L2300.0,-100.0" stroke="#ffcccc66" stroke-dasharray="5" />
<text x="2302.0" y="1829.0" font-size="8" stroke="none" fill="#ffcccc66" dy="0em">2300mm</text>
<path d="M2350.0,1830.0 L2350.0,-100.0" stroke="#ffcccc66" stroke-dasharray="5" />
<text x="2352.0" y="1829.0" font-size="8" stroke="none" fill="#ffcccc66" dy="0em">2350mm</text>
<path d="M2400.0,1830.0 L2400.0,-100.0" stroke="#ffcccc66" stroke-dasharray="5" />
<text x="2402.0" y="1829.0" font-size="8" stroke="none" fill="#ffcccc66" dy="0em">2400mm</text>
<path d="M2450.0,1830.0 L2450.0,-100.0" stroke="#ffcccc66" stroke-dasharray="5" />
<text x="2452.0" y="1829.0" font-size="8" stroke="none" fill="#ffcccc66" dy="0em">2450mm</text>
<path d="M2500.0,1830.0 L2500.0,-100.0" stroke="#ffcccc66" stroke-dasharray="5" />
<text x="2502.0" y="1829.0" font-size="8" stroke="none" fill="#ffcccc66" dy="0em">2500mm</text>
<path d="M2550.0,1830.0 L2550.0,-100.0" stroke="#ffcccc66" stroke-dasharray="5" />
<text x="2552.0" y="1829.0" font-size="8" stroke="none" fill="#ffcccc66" dy="0em">2550mm</text>
<path d="M2600.0,1830.0 L2600.0,-100.0" stroke="#ffcccc66" stroke-dasharray="5" />
<text x="2602.0" y="1829.0" font-size="8" stroke="none" fill="#ffcccc66" dy="0em">2600mm</text>
<path d="M2650.0,1830.0 L2650.0,-100.0" stroke="#ffcccc66" stroke-dasharray="5" />
<text x="2652.0" y="1829.0" font-size="8" stroke="none" fill="#ffcccc66" dy="0em">2650mm</text>
<path d="M2700.0,1830.0 L2700.0,-100.0" stroke="#ffcccc66" stroke-dasharray="5" />
<text x="2702.0" y="1829.0" font-size="8" stroke="none" fill="#ffcccc66" dy="0em">2700mm</text>
<path d="M2750.0,1830.0 L2750.0,-100.0" stroke="#ffcccc66" stroke-dasharray="5" />
<text x="2752.0" y="1829.0" font-size="8" stroke="none" fill="#ffcccc66" dy="0em">2750mm</text>
<path d="M2800.0,1830.0 L2800.0,-100.0" stroke="#ffcccc66" stroke-dasharray="5" />
<text x="2802.0" y="1829.0" font-size="8" stroke="none" fill="#ffcccc66" dy="0em">2800mm</text>
<path d="M2850.0,1830.0 L2850.0,-100.0" stroke="#ffcccc66" stroke-dasharray="5" />
<text x="2852.0" y="1829.0" font-size="8" stroke="none" fill="#ffcccc66" dy="0em">2850mm</text>
<path d="M2900.0,1830.0 L2900.0,-100.0" stroke="#ffcccc66" stroke-dasharray="5" />
<text x="2902.0" y="1829.0" font-size="8" stroke="none" fill="#ffcccc66" dy="0em">2900mm</text>
<path d="M2950.0,1830.0 L2950.0,-100.0" stroke="#ffcccc66" stroke-dasharray="5" />
<text x="2952.0" y="1829.0" font-size="8" stroke="none" fill="#ffcccc66" dy="0em">2950mm</text>
<path d="M3000.0,1830.0 L3000.0,-100.0" stroke="#ffcccc66" stroke-dasharray="5" />
<text x="3002.0" y="1829.0" font-size="8" stroke="none" fill="#ffcccc66" dy="0em">3000mm</text>
<path d="M3050.0,1830.0 L3050.0,-100.0" stroke="#ffcccc66" stroke-dasharray="5" />
<text x="3052.0" y="1829.0" font-size="8" stroke="none" fill="#ffcccc66" dy="0em">3050mm</text>
<path d="M3100.0,1830.0 L3100.0,-100.0" stroke="#ffcccc66" stroke-dasharray="5" />
<text x="3102.0" y="1829.0" font-size="8" stroke="none" fill="#ffcccc66" dy="0em">3100mm</text>
<path d="M3150.0,1830.0 L3150.0,-100.0" stroke="#ffcccc66" stroke-dasharray="5" />
<text x="3152.0" y="1829.0" font-size="8" stroke="none" fill="#ffcccc66" dy="0em">3150mm</text>
<path d="M3200.0,1830.0 L3200.0,-100.0" stroke="#ffcccc66" stroke-dasharray="5" />
<text x="3202.0" y="1829.0" font-size="8" stroke="none" fill="#ffcccc66" dy="0em">3200mm</text>
<path d="M3250.0,1830.0 L3250.0,-100.0" stroke="#ffcccc66" stroke-dasharray="5" />
<text x="3252.0" y="1829.0" font-size="8" stroke="none" fill="#ffcccc66" dy="0em">3250mm</text>
<path d="M3300.0,1830.0 L3300.0,-100.0" stroke="#ffcccc66" stroke-dasharray="5" />
<text x="3302.0" y="1829.0" font-size="8" stroke="none" fill="#ffcccc66" dy="0em">3300mm</text>
<path d="M3350.0,1830.0 L3350.0,-100.0" stroke="#ffcccc66" stroke-dasharray="5" />
<text x="3352.0" y="1829.0" font-size="8" stroke="none" fill="#ffcccc66" dy="0em">3350mm</text>
<path d="M3400.0,1830.0 L3400.0,-100.0" stroke="#ffcccc66" stroke-dasharray="5" />
<text x="3402.0" y="1829.0" font-size="8" stroke="none" fill="#ffcccc66" dy="0em">3400mm</text>
<path d="M3450.0,1830.0 L3450.0,-100.0" stroke="#ffcccc66" stroke-dasharray="5" />
<text x="3452.0" y="1829.0" font-size="8" stroke="none" fill="#ffcccc66" dy="0em">3450mm</text>
<g>
<path d="M725.0,0.0 L731.5675987292394,10.0 L738.135197458479,20.0 L744.7027961877184,30.0 L751.2703949169578,40.0 L757.8379936461972,50.0 L764.4055923754368,60.0 L770.9731911046762,70.0 L777.5407898339155,80.0 L784.1083885631549,90.0 L790.6759872923944,100.0 L797.2435860216339,110.0 L803.8111847508734,120.0 L810.3787834801128,130.0 L816.9463822093524,140.0 L823.5139809385917,150.0 L830.081579667831,160.0 L836.6491783970705,170.0 L843.21677712631,180.0 L849.7843758555495,190.0 L856.3519745847889,200.0 L862.9195733140283,210.0 L869.4871720432676,220.0 L876.0547707725071,230.0 L882.6223695017467,240.0 L889.189968230986,250.0 L895.7575669602255,260.0 L902.7732147691149,270.0 L910.6063605427986,280.0 L918.4395063164824,290.0 L926.2726520901662,300.0 L934.10579786385,310.0 L941.9389436375338,320.0 L949.7720894112175,330.0 L957.6052351849012,340.0 L965.4383809585848,350.0 L973.271526732269,360.0 L981.1046725059526,370.0 L988.9378182796363,380.0 L996.77096405332,390.0 L1004.6041098270039,400.0 L1012.4372556006876,410.0 L1020.2704013743713,420.0 L1028.1035471480552,430.0 L1035.9366929217388,440.0 L1043.7698386954225,450.0 L1051.6029844691063,460.0 L1059.4361302427901,470.0 L1067.2692760164741,480.0 L1075.1024217901577,490.0 L1082.9355675638415,500.0 L1090.7687133375252,510.0 L1098.601859111209,520.0 L1106.4350048848928,530.0 L1114.2681506585766,540.0 L1122.1012964322601,550.0 L1129.934442205944,560.0 L1137.767587979628,570.0 L1145.6007337533115,580.0 L1153.4338795269955,590.0 L1161.267025300679,600.0 L1169.1001710743628,610.0 L1176.9333168480466,620.0 L1184.7664626217304,630.0 L1192.5996083954142,640.0 L1200.54072434893,650.0 L1210.3282040568163,660.0 L1223.8223291103793,670.0 L1240.7626749454262,680.0 L1261.0946043001047,690.0 L1284.7530671864206,700.0 L1311.6627976614857,710.0 L1341.7385394227408,720.0 L1374.885299618801,730.0 L1410.9986302004488,740.0 L1449.9649360705907,750.0 L1491.6618092277097,760.0 L1536.0608567690801,770.0 L1583.0614022412026,780.0 L1632.3368274775996,790.0 L1683.7305994902222,800.0 L1737.0797234855268,810.0 L1792.21522892803,820.0 L1848.9626723158954,830.0 L1907.1426553318718,840.0 L1966.571356996751,850.0 L2027.061078419184,860.0 L2088.4207987051486,870.0 L2150.4724869873216,880.0 L2213.005767286874,890.0 L2275.772456846306,900.0 L2338.5740051513553,910.0 L2401.2118233926644,920.0 L2463.487873797541,930.0 L2525.2052571624645,940.0 L2586.168797033374,950.0 L2646.1856189895034,960.0 L2705.0657234983255,970.0 L2762.6225508240914,980.0 L2818.625243982591,990.0 L2872.7769734868098,1000.0 L2925.0313151039636,1010.0 L2975.2236542790893,1020.0 L3023.19577653004,1030.0 L3068.796334492184,1040.0 L3111.8812953406805,1050.0 L3152.3143674160574,1060.0 L3189.9674049290365,1070.0 L3224.72078967301,1080.0 L3256.4637887271715,1090.0 L3285.0263614369815,1100.0 L3310.0870604342545,1110.0 L3331.845236130232,1120.0 L3350.23318353012,1130.0 L3365.1935874421774,1140.0 L3376.6796884754554,1150.0 L3384.655419104382,1160.0 L3389.095509454503,1170.0 L3389.9855625361565,1180.0 L3387.3220987258474,1190.0 L3381.1125693684608,1200.0 L3371.325089660574,1210.0 L3357.7100882126124,1220.0 L3340.6505470839666,1230.0 L3320.20157394586,1240.0 L3296.428680704627,1250.0 L3269.4075849074866,1260.0 L3239.223982365048,1270.0 L3205.9732916059215,1280.0 L3169.7603708457773,1290.0 L3130.699208218643,1300.0 L3088.912586082321,1310.0 L3044.513538540951,1320.0 L2997.4287060656325,1330.0 L2948.0747884443417,1340.0 L2896.6086284387115,1350.0 L2843.1935065246203,1360.0 L2787.998653701188,1370.0 L2731.198747687249,1380.0 L2672.9733938460718,1390.0 L2613.506592214784,1400.0 L2552.986192047897,1410.0 L2491.60333531442,1420.0 L2429.551647032247,1430.0 L2367.0028638911126,1440.0 L2304.228366278661,1450.0 L2241.4267355239745,1460.0 L2178.796560761801,1470.0 L2116.535849599512,1480.0 L2054.8414407036457,1490.0 L1993.9084198585301,1500.0 L1933.9295410402806,1510.0 L1875.0946540371906,1520.0 L1817.5901401321735,1530.0 L1761.5983573445078,1540.0 L1707.4949203480487,1550.0 L1655.3064374206194,1560.0 L1605.186352832188,1570.0 L1557.2925959090578,1580.0 L1511.7762047437122,1590.0 L1468.7808799930986,1600.0 L1428.4425595639607,1610.0 L1390.8890153041173,1620.0 L1356.239472765761,1630.0 L1324.6042550519528,1640.0 L1296.0844517005035,1650.0 L1271.092278456249,1660.0 L1249.4484724117187,1670.0 L1231.1775178385806,1680.0 L1216.3362682113398,1690.0 L1204.971012673418,1700.0 L1197.1173418284263,1710.0 L1192.800043836616,1720.0 L1192.0330310823094,1730.0 L0,1730.0 L0,0.0 L725.0,0.0" fill="#E6E6FA66" stroke="black" />
</g>
</svg>