<?xml version="1.0" encoding="UTF-8"?>
<svg xmlns="http://www.w3.org/2000/svg" xmlns:xlink="http://www.w3.org/1999/xlink"
     width="1130.0" height="891.95" viewBox="-340.0 -147.5 1130.0 891.95" stroke="black" fill="none">
<defs>
<path d="M465.0,-0.0 L339.1479006990711,-7.720987687173553 L323.0432102050694,91.47900699071141 L319.18543263426216,-8.94567897949312 L261.25,-12.5 L240.0,265 L240.0,600.0 L465.0,600.0 L465.0,0" fill="none" stroke="black" id="d0" />
<path d="M0.0,-0.0 L0,600.0 L240.0,600.0 L240.0,265 L223.75,-12.5 L159.15109809326995,-8.891122798506702 L156.13903498133365,116.4720594992067 L139.18223524006356,-7.775543868159976 L84.56776475993651,-4.724456131840029 L82.39238584576032,135.61537330577818 L64.5989019067301,-3.6088772014933017 L0,0" fill="none" stroke="black" id="d1" />
<path d="M465.0,-0.0 L590.8520993009289,-7.720987687173553 L606.9567897949306,91.47900699071141 L610.8145673657378,-8.94567897949312 L668.75,-12.5 L690.0,265 L690.0,600.0 L465.0,600.0 L465.0,0" fill="none" stroke="black" id="d2" />
<path d="M0.0,-0.0 L0.0,600.0 L-240.0,600.0 L-240.0,265 L-223.75,-12.5 L-159.15109809326995,-8.891122798506702 L-156.13903498133365,116.4720594992067 L-139.18223524006356,-7.775543868159976 L-84.56776475993651,-4.724456131840029 L-82.39238584576032,135.61537330577818 L-64.5989019067301,-3.6088772014933017 L0.0,0" fill="none" stroke="black" id="d3" />
<path d="M-223.75,-12.5 L-159.15109809326995,-8.891122798506702 L-139.18223524006356,-7.775543868159976 L-84.56776475993651,-4.724456131840029 L-64.5989019067301,-3.6088772014933017 L0.0,0 L64.5989019067301,-3.6088772014933017 L84.56776475993651,-4.724456131840029 L139.18223524006356,-7.775543868159976 L159.15109809326995,-8.891122798506702 L223.75,-12.5 L261.25,-12.5 L319.18543263426216,-8.94567897949312 L339.1479006990711,-7.720987687173553 L465.0,-0.0 L590.8520993009289,-7.720987687173553 L610.8145673657378,-8.94567897949312 L668.75,-12.5 L666.6067902384408,-47.43431911341564 L608.671357604177,-43.879998092908615 L588.7088895393673,-42.65530680058907 L465.0,-35.065804374861 L341.2911104606303,-42.65530680058912 L321.3286423958215,-43.879998092908764 L262.32261131023364,-47.5 L222.77310799520293,-47.50000000000002 L157.1988349651631,-43.83663279161789 L137.22997211195678,-42.72105386127118 L82.61550163182974,-39.66996612495125 L62.646638778623355,-38.5543871946045 L2.146473651767051e-15,-35.05457497233504 L-62.646638778623355,-38.55438719460452 L-82.61550163182976,-39.66996612495122 L-137.22997211195676,-42.721053861271166 L-157.19883496516312,-43.8366327916179 L-221.79773687189322,-47.4455099931112 L-223.75,-12.5" fill="none" stroke="black" id="d4" />
<path d="M-240.0,600.0 L0.0,600.0 L240.0,600.0 L465.0,600.0 L690.0,600.0 L690.0,644.45 L465.0,644.45 L240.0,644.45 L-2.721777511104996e-15,644.45 L-240.0,644.45 L-240.0,600.0" fill="none" stroke="black" id="d5" />
</defs>
<path d="M-340.0,744.45 L790.0,744.45" stroke="#dddddd" />
<path d="M-340.0,534.45 L790.0,534.45" stroke="#dddddd" />
<path d="M-340.0,324.45000000000005 L790.0,324.45000000000005" stroke="#dddddd" />
<path d="M-340.0,114.45000000000005 L790.0,114.45000000000005" stroke="#dddddd" />
<path d="M-340.0,-95.54999999999995 L790.0,-95.54999999999995" stroke="#dddddd" />
<path d="M-340.0,744.45 L-340.0,-147.50000000000003" stroke="#dddddd" />
<path d="M-43.0,744.45 L-43.0,-147.50000000000003" stroke="#dddddd" />
<path d="M254.0,744.45 L254.0,-147.50000000000003" stroke="#dddddd" />
<path d="M551.0,744.45 L551.0,-147.50000000000003" stroke="#dddddd" />
<text x="-191.5" y="639.45" font-size="10" stroke="none" fill="#dddddd" dy="0em">A0</text>
<text x="-191.5" y="429.45000000000005" font-size="10" stroke="none" fill="#dddddd" dy="0em">A1</text>
<text x="-191.5" y="219.45000000000005" font-size="10" stroke="none" fill="#dddddd" dy="0em">A2</text>
<text x="-191.5" y="9.450000000000045" font-size="10" stroke="none" fill="#dddddd" dy="0em">A3</text>
<text x="105.5" y="639.45" font-size="10" stroke="none" fill="#dddddd" dy="0em">B0</text>
<text x="105.5" y="429.45000000000005" font-size="10" stroke="none" fill="#dddddd" dy="0em">B1</text>
<text x="105.5" y="219.45000000000005" font-size="10" stroke="none" fill="#dddddd" dy="0em">B2</text>
<text x="105.5" y="9.450000000000045" font-size="10" stroke="none" fill="#dddddd" dy="0em">B3</text>
<text x="402.5" y="639.45" font-size="10" stroke="none" fill="#dddddd" dy="0em">C0</text>
<text x="402.5" y="429.45000000000005" font-size="10" stroke="none" fill="#dddddd" dy="0em">C1</text>
<text x="402.5" y="219.45000000000005" font-size="10" stroke="none" fill="#dddddd" dy="0em">C2</text>
<text x="402.5" y="9.450000000000045" font-size="10" stroke="none" fill="#dddddd" dy="0em">C3</text>
<text x="699.5" y="639.45" font-size="10" stroke="none" fill="#dddddd" dy="0em">D0</text>
<text x="699.5" y="429.45000000000005" font-size="10" stroke="none" fill="#dddddd" dy="0em">D1</text>
<text x="699.5" y="219.45000000000005" font-size="10" stroke="none" fill="#dddddd" dy="0em">D2</text>
<text x="699.5" y="9.450000000000045" font-size="10" stroke="none" fill="#dddddd" dy="0em">D3</text>
<path d="M-340.0,744.45 L790.0,744.45" stroke="#ffcccc66" stroke-dasharray="5" />
<text x="-339.0" y="742.45" font-size="8" stroke="none" fill="#ffcccc66" dy="0em">-100mm</text>
<path d="M-340.0,694.45 L790.0,694.45" stroke="#ffcccc66" stroke-dasharray="5" />
<text x="-339.0" y="692.45" font-size="8" stroke="none" fill="#ffcccc66" dy="0em">-50mm</text>
<path d="M-340.0,644.45 L790.0,644.45" stroke="#ffcccc66" stroke-dasharray="5" />
<text x="-339.0" y="642.45" font-size="8" stroke="none" fill="#ffcccc66" dy="0em">0mm</text>
<path d="M-340.0,594.45 L790.0,594.45" stroke="#ffcccc66" stroke-dasharray="5" />
<text x="-339.0" y="592.45" font-size="8" stroke="none" fill="#ffcccc66" dy="0em">50mm</text>
<path d="M-340.0,544.45 L790.0,544.45" stroke="#ffcccc66" stroke-dasharray="5" />
<text x="-339.0" y="542.45" font-size="8" stroke="none" fill="#ffcccc66" dy="0em">100mm</text>
<path d="M-340.0,494.45000000000005 L790.0,494.45000000000005" stroke="#ffcccc66" stroke-dasharray="5" />
<text x="-339.0" y="492.45000000000005" font-size="8" stroke="none" fill="#ffcccc66" dy="0em">150mm</text>
<path d="M-340.0,444.45000000000005 L790.0,444.45000000000005" stroke="#ffcccc66" stroke-dasharray="5" />
<text x="-339.0" y="442.45000000000005" font-size="8" stroke="none" fill="#ffcccc66" dy="0em">200mm</text>
<path d="M-340.0,394.45000000000005 L790.0,394.45000000000005" stroke="#ffcccc66" stroke-dasharray="5" />
<text x="-339.0" y="392.45000000000005" font-size="8" stroke="none" fill="#ffcccc66" dy="0em">250mm</text>
<path d="M-340.0,344.45000000000005 L790.0,344.45000000000005" stroke="#ffcccc66" stroke-dasharray="5" />
<text x="-339.0" y="342.45000000000005" font-size="8" stroke="none" fill="#ffcccc66" dy="0em">300mm</text>
<path d="M-340.0,294.45000000000005 L790.0,294.45000000000005" stroke="#ffcccc66" stroke-dasharray="5" />
<text x="-339.0" y="292.45000000000005" font-size="8" stroke="none" fill="#ffcccc66" dy="0em">350mm</text>
<path d="M-340.0,244.45000000000005 L790.0,244.45000000000005" stroke="#ffcccc66" stroke-dasharray="5" />
<text x="-339.0" y="242.45000000000005" font-size="8" stroke="none" fill="#ffcccc66" dy="0em">400mm</text>
<path d="M-340.0,194.45000000000005 L790.0,194.45000000000005" stroke="#ffcccc66" stroke-dasharray="5" />
<text x="-339.0" y="192.45000000000005" font-size="8" stroke="none" fill="#ffcccc66" dy="0em">450mm</text>
<path d="M-340.0,144.45000000000005 L790.0,144.45000000000005" stroke="#ffcccc66" stroke-dasharray="5" />
<text x="-339.0" y="142.45000000000005" font-size="8" stroke="none" fill="#ffcccc66" dy="0em">500mm</text>
<path d="M-340.0,94.45000000000005 L790.0,94.45000000000005" stroke="#ffcccc66" stroke-dasharray="5" />
<text x="-339.0" y="92.45000000000005" font-size="8" stroke="none" fill="#ffcccc66" dy="0em">550mm</text>
<path d="M-340.0,44.450000000000045 L790.0,44.450000000000045" stroke="#ffcccc66" stroke-dasharray="5" />
<text x="-339.0" y="42.450000000000045" font-size="8" stroke="none" fill="#ffcccc66" dy="0em">600mm</text>
<path d="M-340.0,-5.5499999999999545 L790.0,-5.5499999999999545" stroke="#ffcccc66" stroke-dasharray="5" />
<text x="-339.0" y="-7.5499999999999545" font-size="8" stroke="none" fill="#ffcccc66" dy="0em">650mm</text>
<path d="M-340.0,-55.549999999999955 L790.0,-55.549999999999955" stroke="#ffcccc66" stroke-dasharray="5" />
<text x="-339.0" y="-57.549999999999955" font-size="8" stroke="none" fill="#ffcccc66" dy="0em">700mm</text>
<path d="M-340.0,-105.54999999999995 L790.0,-105.54999999999995" stroke="#ffcccc66" stroke-dasharray="5" />
<text x="-339.0" y="-107.54999999999995" font-size="8" stroke="none" fill="#ffcccc66" dy="0em">750mm</text>
<path d="M-340.0,744.45 L-340.0,-147.50000000000003" stroke="#ffcccc66" stroke-dasharray="5" />
<text x="-338.0" y="743.45" font-size="8" stroke="none" fill="#ffcccc66" dy="0em">-100mm</text>
<path d="M-290.0,744.45 L-290.0,-147.50000000000003" stroke="#ffcccc66" stroke-dasharray="5" />
<text x="-288.0" y="743.45" font-size="8" stroke="none" fill="#ffcccc66" dy="0em">-50mm</text>
<path d="M-240.0,744.45 L-240.0,-147.50000000000003" stroke="#ffcccc66" stroke-dasharray="5" />
<text x="-238.0" y="743.45" font-size="8" stroke="none" fill="#ffcccc66" dy="0em">0mm</text>
<path d="M-190.0,744.45 L-190.0,-147.50000000000003" stroke="#ffcccc66" stroke-dasharray="5" />
<text x="-188.0" y="743.45" font-size="8" stroke="none" fill="#ffcccc66" dy="0em">50mm</text>
<path d="M-140.0,744.45 L-140.0,-147.50000000000003" stroke="#ffcccc66" stroke-dasharray="5" />
<text x="-138.0" y="743.45" font-size="8" stroke="none" fill="#ffcccc66" dy="0em">100mm</text>
<path d="M-90.0,744.45 L-90.0,-147.50000000000003" stroke="#ffcccc66" stroke-dasharray="5" />
<text x="-88.0" y="743.45" font-size="8" stroke="none" fill="#ffcccc66" dy="0em">150mm</text>
<path d="M-40.0,744.45 L-40.0,-147.50000000000003" stroke="#ffcccc66" stroke-dasharray="5" />
<text x="-38.0" y="743.45" font-size="8" stroke="none" fill="#ffcccc66" dy="0em">200mm</text>
<path d="M10.0,744.45 L10.0,-147.50000000000003" stroke="#ffcccc66" stroke-dasharray="5" />
<text x="12.0" y="743.45" font-size="8" stroke="none" fill="#ffcccc66" dy="0em">250mm</text>
<path d="M60.0,744.45 L60.0,-147.50000000000003" stroke="#ffcccc66" stroke-dasharray="5" />
<text x="62.0" y="743.45" font-size="8" stroke="none" fill="#ffcccc66" dy="0em">300mm</text>
<path d="M110.0,744.45 L110.0,-147.50000000000003" stroke="#ffcccc66" stroke-dasharray="5" />
<text x="112.0" y="743.45" font-size="8" stroke="none" fill="#ffcccc66" dy="0em">350mm</text>
<path d="M160.0,744.45 L160.0,-147.50000000000003" stroke="#ffcccc66" stroke-dasharray="5" />
<text x="162.0" y="743.45" font-size="8" stroke="none" fill="#ffcccc66" dy="0em">400mm</text>
<path d="M210.0,744.45 L210.0,-147.50000000000003" stroke="#ffcccc66" stroke-dasharray="5" />
<text x="212.0" y="743.45" font-size="8" stroke="none" fill="#ffcccc66" dy="0em">450mm</text>
<path d="M260.0,744.45 L260.0,-147.50000000000003" stroke="#ffcccc66" stroke-dasharray="5" />
<text x="262.0" y="743.45" font-size="8" stroke="none" fill="#ffcccc66" dy="0em">500mm</text>
<path d="M310.0,744.45 L310.0,-147.50000000000003" stroke="#ffcccc66" stroke-dasharray="5" />
<text x="312.0" y="743.45" font-size="8" stroke="none" fill="#ffcccc66" dy="0em">550mm</text>
<path d="M360.0,744.45 L360.0,-147.50000000000003" stroke="#ffcccc66" stroke-dasharray="5" />
<text x="362.0" y="743.45" font-size="8" stroke="none" fill="#ffcccc66" dy="0em">600mm</text>
<path d="M410.0,744.45 L410.0,-147.50000000000003" stroke="#ffcccc66" stroke-dasharray="5" />
<text x="412.0" y="743.45" font-size="8" stroke="none" fill="#ffcccc66" dy="0em">650mm</text>
<path d="M460.0,744.45 L460.0,-147.50000000000003" stroke="#ffcccc66" stroke-dasharray="5" />
<text x="462.0" y="743.45" font-size="8" stroke="none" fill="#ffcccc66" dy="0em">700mm</text>
<path d="M510.0,744.45 L510.0,-147.50000000000003" stroke="#ffcccc66" stroke-dasharray="5" />
<text x="512.0" y="743.45" font-size="8" stroke="none" fill="#ffcccc66" dy="0em">750mm</text>
<path d="M560.0,744.45 L560.0,-147.50000000000003" stroke="#ffcccc66" stroke-dasharray="5" />
<text x="562.0" y="743.45" font-size="8" stroke="none" fill="#ffcccc66" dy="0em">800mm</text>
<path d="M610.0,744.45 L610.0,-147.50000000000003" stroke="#ffcccc66" stroke-dasharray="5" />
<text x="612.0" y="743.45" font-size="8" stroke="none" fill="#ffcccc66" dy="0em">850mm</text>
<path d="M660.0,744.45 L660.0,-147.50000000000003" stroke="#ffcccc66" stroke-dasharray="5" />
<text x="662.0" y="743.45" font-size="8" stroke="none" fill="#ffcccc66" dy="0em">900mm</text>
<path d="M710.0,744.45 L710.0,-147.50000000000003" stroke="#ffcccc66" stroke-dasharray="5" />
<text x="712.0" y="743.45" font-size="8" stroke="none" fill="#ffcccc66" dy="0em">950mm</text>
<path d="M760.0,744.45 L760.0,-147.50000000000003" stroke="#ffcccc66" stroke-dasharray="5" />
<text x="762.0" y="743.45" font-size="8" stroke="none" fill="#ffcccc66" dy="0em">1000mm</text>
<g>
<g>
<path d="M465.0,-0.0 L339.1479006990711,-7.720987687173553 L323.0432102050694,91.47900699071141 L319.18543263426216,-8.94567897949312 L261.25,-12.5 L240.0,265 L240.0,600.0 L465.0,600.0 L465.0,0" fill="#E6E6FA66" stroke="black" />
<text font-size="12" stroke="none" fill="#000000"><textPath xlink:href="#d0" startOffset="10">
<tspan dy="-1em">front</tspan>
</textPath></text>
</g>
<g>
<path d="M0.0,-0.0 L0,600.0 L240.0,600.0 L240.0,265 L223.75,-12.5 L159.15109809326995,-8.891122798506702 L156.13903498133365,116.4720594992067 L139.18223524006356,-7.775543868159976 L84.56776475993651,-4.724456131840029 L82.39238584576032,135.61537330577818 L64.5989019067301,-3.6088772014933017 L0,0" fill="#E6E6FA66" stroke="black" />
<text font-size="12" stroke="none" fill="#000000"><textPath xlink:href="#d1" startOffset="10">
<tspan dy="-1em">back</tspan>
</textPath></text>
</g>
<g>
<path d="M465.0,-0.0 L590.8520993009289,-7.720987687173553 L606.9567897949306,91.47900699071141 L610.8145673657378,-8.94567897949312 L668.75,-12.5 L690.0,265 L690.0,600.0 L465.0,600.0 L465.0,0" fill="#E6E6FA66" stroke="black" />
<text font-size="12" stroke="none" fill="#000000"><textPath xlink:href="#d2" startOffset="10">
<tspan dy="-1em">front</tspan>
</textPath></text>
</g>
<g>
<path d="M0.0,-0.0 L0.0,600.0 L-240.0,600.0 L-240.0,265 L-223.75,-12.5 L-159.15109809326995,-8.891122798506702 L-156.13903498133365,116.4720594992067 L-139.18223524006356,-7.775543868159976 L-84.56776475993651,-4.724456131840029 L-82.39238584576032,135.61537330577818 L-64.5989019067301,-3.6088772014933017 L0.0,0" fill="#E6E6FA66" stroke="black" />
<text font-size="12" stroke="none" fill="#000000"><textPath xlink:href="#d3" startOffset="10">
<tspan dy="-1em">back</tspan>
</textPath></text>
</g>
<g>
<g>
<path d="M-223.75,-12.5 L-159.15109809326995,-8.891122798506702 L-139.18223524006356,-7.775543868159976 L-84.56776475993651,-4.724456131840029 L-64.5989019067301,-3.6088772014933017 L0.0,0 L64.5989019067301,-3.6088772014933017 L84.56776475993651,-4.724456131840029 L139.18223524006356,-7.775543868159976 L159.15109809326995,-8.891122798506702 L223.75,-12.5 L261.25,-12.5 L319.18543263426216,-8.94567897949312 L339.1479006990711,-7.720987687173553 L465.0,-0.0 L590.8520993009289,-7.720987687173553 L610.8145673657378,-8.94567897949312 L668.75,-12.5 L666.6067902384408,-47.43431911341564 L608.671357604177,-43.879998092908615 L588.7088895393673,-42.65530680058907 L465.0,-35.065804374861 L341.2911104606303,-42.65530680058912 L321.3286423958215,-43.879998092908764 L262.32261131023364,-47.5 L222.77310799520293,-47.50000000000002 L157.1988349651631,-43.83663279161789 L137.22997211195678,-42.72105386127118 L82.61550163182974,-39.66996612495125 L62.646638778623355,-38.5543871946045 L2.146473651767051e-15,-35.05457497233504 L-62.646638778623355,-38.55438719460452 L-82.61550163182976,-39.66996612495122 L-137.22997211195676,-42.721053861271166 L-157.19883496516312,-43.8366327916179 L-221.79773687189322,-47.4455099931112 L-223.75,-12.5" fill="#E6E6FA66" stroke="black" />
<text font-size="12" stroke="none" fill="#000000"><textPath xlink:href="#d4" startOffset="10">
<tspan dy="-1em">35.0mm allowance</tspan>
</textPath></text>
</g>
<g>
<path d="M-222.63442106965329,-32.4688628532064 L-158.03551916292312,-28.85998565171311 L-138.0666563097168,-27.74440672136638 L-83.45218582958978,-24.693318985046428 L-63.483322976383384,-23.57774005469971 L1.226556372438315e-15,-20.031185698477167 L63.48332297638339,-23.577740054699706 L83.4521858295898,-24.693318985046435 L138.0666563097168,-27.744406721366374 L158.03551916292312,-28.859985651713107 L223.19177599725887,-32.50000000000002 L261.86292074870505,-32.5 L320.4101239265819,-28.90814704430207 L340.3725919913908,-27.683455751982496 L465.0,-20.037602499920567 L589.6274080086077,-27.683455751982375 L609.5898760734174,-28.90814704430204 L667.5253087076804,-32.46246806480894" fill="none" stroke="black" stroke-dasharray="3" />
</g>
</g>
<g>
<g>
<path d="M-240.0,600.0 L0.0,600.0 L240.0,600.0 L465.0,600.0 L690.0,600.0 L690.0,644.45 L465.0,644.45 L240.0,644.45 L-2.721777511104996e-15,644.45 L-240.0,644.45 L-240.0,600.0" fill="#E6E6FA66" stroke="black" />
<text font-size="12" stroke="none" fill="#000000"><textPath xlink:href="#d5" startOffset="10">
<tspan dy="-1em">44.4mm allowance</tspan>
</textPath></text>
</g>
<g>
<path d="M-240.0,625.4 L-1.5553014349171406e-15,625.4 L240.0,625.4 L465.0,625.4 L690.0,625.4" fill="none" stroke="black" stroke-dasharray="3" />
</g>
</g>
<g>
<circle cx="0" cy="0" r="1" fill="black" />
<text x="2" y="-2" font-size="12" fill="#000000" stroke="none" dy="0em">14</text>
</g>
<g>
<circle cx="0" cy="0" r="1" fill="black" />
<text x="2" y="-2" font-size="12" fill="#000000" stroke="none" dy="0em">1</text>
</g>
<g>
<circle cx="465.0" cy="0" r="1" fill="black" />
<text x="467.0" y="-2" font-size="12" fill="#000000" stroke="none" dy="0em">2</text>
</g>
<g>
<circle cx="0" cy="600.0" r="1" fill="black" />
<text x="2" y="598.0" font-size="12" fill="#000000" stroke="none" dy="0em">3</text>
</g>
<g>
<circle cx="465.0" cy="600.0" r="1" fill="black" />
<text x="467.0" y="598.0" font-size="12" fill="#000000" stroke="none" dy="0em">4</text>
</g>
<g>
<circle cx="0" cy="265" r="1" fill="black" />
<text x="2" y="263" font-size="12" fill="#000000" stroke="none" dy="0em">5</text>
</g>
<g>
<circle cx="465.0" cy="265" r="1" fill="black" />
<text x="467.0" y="263" font-size="12" fill="#000000" stroke="none" dy="0em">6</text>
</g>
<g>
<circle cx="240.0" cy="265" r="1" fill="black" />
<text x="242.0" y="263" font-size="12" fill="#000000" stroke="none" dy="0em">7</text>
</g>
<g>
<circle cx="240.0" cy="600.0" r="1" fill="black" />
<text x="242.0" y="598.0" font-size="12" fill="#000000" stroke="none" dy="0em">8</text>
</g>
<g>
<circle cx="223.75" cy="0" r="1" fill="black" />
<text x="225.75" y="-2" font-size="12" fill="#000000" stroke="none" dy="0em">9</text>
</g>
<g>
<circle cx="223.75" cy="-12.5" r="1" fill="black" />
<text x="225.75" y="-14.5" font-size="12" fill="#000000" stroke="none" dy="0em">10</text>
</g>
<g>
<circle cx="74.58333333333333" cy="-4.166666666666666" r="1" fill="black" />
<text x="76.58333333333333" y="-6.166666666666666" font-size="12" fill="#000000" stroke="none" dy="0em">11</text>
</g>
<g>
<circle cx="149.16666666666666" cy="-8.333333333333332" r="1" fill="black" />
<text x="151.16666666666666" y="-10.333333333333332" font-size="12" fill="#000000" stroke="none" dy="0em">12</text>
</g>
<g>
<circle cx="0" cy="0" r="1" fill="black" />
<text x="2" y="-2" font-size="12" fill="#000000" stroke="none" dy="0em">14</text>
</g>
<g>
<circle cx="0" cy="0" r="1" fill="black" />
<text x="2" y="-2" font-size="12" fill="#000000" stroke="none" dy="0em">14</text>
</g>
<g>
<circle cx="261.25" cy="0" r="1" fill="black" />
<text x="263.25" y="-2" font-size="12" fill="#000000" stroke="none" dy="0em">15</text>
</g>
<g>
<circle cx="261.25" cy="-12.5" r="1" fill="black" />
<text x="263.25" y="-14.5" font-size="12" fill="#000000" stroke="none" dy="0em">16</text>
</g>
<g>
<circle cx="329.16666666666663" cy="-8.333333333333334" r="1" fill="black" />
<text x="331.16666666666663" y="-10.333333333333334" font-size="12" fill="#000000" stroke="none" dy="0em">17</text>
</g>
<text x="197.74837319608926" y="174.6059151817099" font-size="12" fill="#000000" stroke="none"><tspan x="197.74837319608926" dy="0em">Tailored Skirt Block</tspan><tspan x="197.74837319608926" dy="1em">waist=725</tspan><tspan x="197.74837319608926" dy="1em">hips=900</tspan><tspan x="197.74837319608926" dy="1em">waist_to_hip=265</tspan><tspan x="197.74837319608926" dy="1em">skirt_length=600.0</tspan></text>
</g>
</svg>