<?xml version="1.0" encoding="UTF-8"?>
<svg xmlns="http://www.w3.org/2000/svg" xmlns:xlink="http://www.w3.org/1999/xlink"
     width="3589.9855625361565" height="1930.0" viewBox="-100 -100.0 3589.9855625361565 1930.0" stroke="black" fill="none">
<defs>
</defs>
<g>
<path d="M725.0,0.0 L731.5675987292394,10.0 L738.135197458479,20.0 L744.7027961877184,30.0 L751.2703949169578,40.0 L757.8379936461972,50.0 L764.4055923754368,60.0 L770.9731911046762,70.0 L777.5407898339155,80.0 L784.1083885631549,90.0 L790.6759872923944,100.0 L797.2435860216339,110.0 L803.8111847508734,120.0 L810.3787834801128,130.0 L816.9463822093524,140.0 L823.5139809385917,150.0 L830.081579667831,160.0 L836.6491783970705,170.0 L843.21677712631,180.0 L849.7843758555495,190.0 L856.3519745847889,200.0 L862.9195733140283,210.0 L869.4871720432676,220.0 L876.0547707725071,230.0 L882.6223695017467,240.0 L889.189968230986,250.0 L895.7575669602255,260.0 L902.7732147691149,270.0 L910.6063605427986,280.0 L918.4395063164824,290.0 L926.2726520901662,300.0 L934.10579786385,310.0 L941.9389436375338,320.0 L949.7720894112175,330.0 L957.6052351849012,340.0 L965.4383809585848,350.0 L973.271526732269,360.0 L981.1046725059526,370.0 L988.9378182796363,380.0 L996.77096405332,390.0 L1004.6041098270039,400.0 L1012.4372556006876,410.0 L1020.2704013743713,420.0 L1028.1035471480552,430.0 L1035.9366929217388,440.0 L1043.7698386954225,450.0 L1051.6029844691063,460.0 L1059.4361302427901,470.0 L1067.2692760164741,480.0 L1075.1024217901577,490.0 L1082.9355675638415,500.0 L1090.7687133375252,510.0 L1098.601859111209,520.0 L1106.4350048848928,530.0 L1114.2681506585766,540.0 L1122.1012964322601,550.0 L1129.934442205944,560.0 L1137.767587979628,570.0 L1145.6007337533115,580.0 L1153.4338795269955,590.0 L1161.267025300679,600.0 L1169.1001710743628,610.0 L1176.9333168480466,620.0 L1184.7664626217304,630.0 L1192.5996083954142,640.0 L1200.54072434893,650.0 L1210.3282040568163,660.0 L1223.8223291103793,670.0 L1240.7626749454262,680.0 L1261.0946043001047,690.0 L1284.7530671864206,700.0 L1311.6627976614857,710.0 L1341.7385394227408,720.0 L1374.885299618801,730.0 L1410.9986302004488,740.0 L1449.9649360705907,750.0 L1491.6618092277097,760.0 L1536.0608567690801,770.0 L1583.0614022412026,780.0 L1632.3368274775996,790.0 L1683.7305994902222,800.0 L1737.0797234855268,810.0 L1792.21522892803,820.0 L1848.9626723158954,830.0 L1907.1426553318718,840.0 L1966.571356996751,850.0 L2027.061078419184,860.0 L2088.4207987051486,870.0 L2150.4724869873216,880.0 L2213.005767286874,890.0 L2275.772456846306,900.0 L2338.5740051513553,910.0 L2401.2118233926644,920.0 L2463.487873797541,930.0 L2525.2052571624645,940.0 L2586.168797033374,950.0 L2646.1856189895034,960.0 L2705.0657234983255,970.0 L2762.6225508240914,980.0 L2818.625243982591,990.0 L2872.7769734868098,1000.0 L2925.0313151039636,1010.0 L2975.2236542790893,1020.0 L3023.19577653004,1030.0 L3068.796334492184,1040.0 L3111.8812953406805,1050.0 L3152.3143674160574,1060.0 L3189.9674049290365,1070.0 L3224.72078967301,1080.0 L3256.4637887271715,1090.0 L3285.0263614369815,1100.0 L3310.0870604342545,1110.0 L3331.845236130232,1120.0 L3350.23318353012,1130.0 L3365.1935874421774,1140.0 L3376.6796884754554,1150.0 L3384.655419104382,1160.0 L3389.095509454503,1170.0 L3389.9855625361565,1180.0 L3387.3220987258474,1190.0 L3381.1125693684608,1200.0 L3371.325089660574,1210.0 L3357.7100882126124,1220.0 L3340.6505470839666,1230.0 L3320.20157394586,1240.0 L3296.428680704627,1250.0 L3269.4075849074866,1260.0 L3239.223982365048,1270.0 L3205.9732916059215,1280.0 L3169.7603708457773,1290.0 L3130.699208218643,1300.0 L3088.912586082321,1310.0 L3044.513538540951,1320.0 L2997.4287060656325,1330.0 L2948.0747884443417,1340.0 L2896.6086284387115,1350.0 L2843.1935065246203,1360.0 L2787.998653701188,1370.0 L2731.198747687249,1380.0 L2672.9733938460718,1390.0 L2613.506592214784,1400.0 L2552.986192047897,1410.0 L2491.60333531442,1420.0 L2429.551647032247,1430.0 L2367.0028638911126,1440.0 L2304.228366278661,1450.0 L2241.4267355239745,1460.0 L2178.796560761801,1470.0 L2116.535849599512,1480.0 L2054.8414407036457,1490.0 L1993.9084198585301,1500.0 L1933.9295410402806,1510.0 L1875.0946540371906,1520.0 L1817.5901401321735,1530.0 L1761.5983573445078,1540.0 L1707.4949203480487,1550.0 L1655.3064374206194,1560.0 L1605.186352832188,1570.0 L1557.2925959090578,1580.0 L1511.7762047437122,1590.0 L1468.7808799930986,1600.0 L1428.4425595639607,1610.0 L1390.8890153041173,1620.0 L1356.239472765761,1630.0 L1324.6042550519528,1640.0 L1296.0844517005035,1650.0 L1271.092278456249,1660.0 L1249.4484724117187,1670.0 L1231.1775178385806,1680.0 L1216.3362682113398,1690.0 L1204.971012673418,1700.0 L1197.1173418284263,1710.0 L1192.800043836616,1720.0 L1192.0330310823094,1730.0 L0,1730.0 L0,0.0 L725.0,0.0" fill="#E6E6FA" stroke="black" />
</g>
</svg>
