<?xml version="1.0" encoding="UTF-8"?>
<svg xmlns="http://www.w3.org/2000/svg" xmlns:xlink="http://www.w3.org/1999/xlink"
     width="491.25" height="1300.9722222222222" viewBox="-251.25 -100.0 491.25 1300.9722222222222" stroke="black" fill="none">
<defs>
<path d="M-151.25,328.97222222222223 L-134.38888888888889,664.9722222222222 L-105.0,1100.9722222222222 L105.0,1100.9722222222222 L134.38888888888889,664.9722222222222 L140.0,265 L123.75,0 L10.0,-0.0 L-7.105427357601002e-15,100.0 L-10.0,-0.0 L-80.0,0 L-90.0,265 L-151.25,328.97222222222223" fill="none" stroke="black" id="d0" />
</defs>
<path d="M-251.25,1200.9722222222222 L240.0,1200.9722222222222" stroke="#dddddd" />
<path d="M-251.25,990.9722222222222 L240.0,990.9722222222222" stroke="#dddddd" />
<path d="M-251.25,780.9722222222222 L240.0,780.9722222222222" stroke="#dddddd" />
<path d="M-251.25,570.9722222222222 L240.0,570.9722222222222" stroke="#dddddd" />
<path d="M-251.25,360.9722222222222 L240.0,360.9722222222222" stroke="#dddddd" />
<path d="M-251.25,150.97222222222217 L240.0,150.97222222222217" stroke="#dddddd" />
<path d="M-251.25,-59.02777777777783 L240.0,-59.02777777777783" stroke="#dddddd" />
<path d="M-251.25,1200.9722222222222 L-251.25,-100" stroke="#dddddd" />
<path d="M45.75,1200.9722222222222 L45.75,-100" stroke="#dddddd" />
<text x="-102.75" y="1095.9722222222222" font-size="10" stroke="none" fill="#dddddd" dy="0em">A0</text>
<text x="-102.75" y="885.9722222222222" font-size="10" stroke="none" fill="#dddddd" dy="0em">A1</text>
<text x="-102.75" y="675.9722222222222" font-size="10" stroke="none" fill="#dddddd" dy="0em">A2</text>
<text x="-102.75" y="465.9722222222222" font-size="10" stroke="none" fill="#dddddd" dy="0em">A3</text>
<text x="-102.75" y="255.97222222222217" font-size="10" stroke="none" fill="#dddddd" dy="0em">A4</text>
<text x="-102.75" y="45.97222222222217" font-size="10" stroke="none" fill="#dddddd" dy="0em">A5</text>
<text x="194.25" y="1095.9722222222222" font-size="10" stroke="none" fill="#dddddd" dy="0em">B0</text>
<text x="194.25" y="885.9722222222222" font-size="10" stroke="none" fill="#dddddd" dy="0em">B1</text>
<text x="194.25" y="675.9722222222222" font-size="10" stroke="none" fill="#dddddd" dy="0em">B2</text>
<text x="194.25" y="465.9722222222222" font-size="10" stroke="none" fill="#dddddd" dy="0em">B3</text>
<text x="194.25" y="255.97222222222217" font-size="10" stroke="none" fill="#dddddd" dy="0em">B4</text>
<text x="194.25" y="45.97222222222217" font-size="10" stroke="none" fill="#dddddd" dy="0em">B5</text>
<path d="M-251.25,1200.9722222222222 L240.0,1200.9722222222222" stroke="#ffcccc66" stroke-dasharray="5" />
<text x="-250.25" y="1198.9722222222222" font-size="8" stroke="none" fill="#ffcccc66" dy="0em">-100mm</text>
<path d="M-251.25,1150.9722222222222 L240.0,1150.9722222222222" stroke="#ffcccc66" stroke-dasharray="5" />
<text x="-250.25" y="1148.9722222222222" font-size="8" stroke="none" fill="#ffcccc66" dy="0em">-50mm</text>
<path d="M-251.25,1100.9722222222222 L240.0,1100.9722222222222" stroke="#ffcccc66" stroke-dasharray="5" />
<text x="-250.25" y="1098.9722222222222" font-size="8" stroke="none" fill="#ffcccc66" dy="0em">0mm</text>
<path d="M-251.25,1050.9722222222222 L240.0,1050.9722222222222" stroke="#ffcccc66" stroke-dasharray="5" />
<text x="-250.25" y="1048.9722222222222" font-size="8" stroke="none" fill="#ffcccc66" dy="0em">50mm</text>
<path d="M-251.25,1000.9722222222222 L240.0,1000.9722222222222" stroke="#ffcccc66" stroke-dasharray="5" />
<text x="-250.25" y="998.9722222222222" font-size="8" stroke="none" fill="#ffcccc66" dy="0em">100mm</text>
<path d="M-251.25,950.9722222222222 L240.0,950.9722222222222" stroke="#ffcccc66" stroke-dasharray="5" />
<text x="-250.25" y="948.9722222222222" font-size="8" stroke="none" fill="#ffcccc66" dy="0em">150mm</text>
<path d="M-251.25,900.9722222222222 L240.0,900.9722222222222" stroke="#ffcccc66" stroke-dasharray="5" />
<text x="-250.25" y="898.9722222222222" font-size="8" stroke="none" fill="#ffcccc66" dy="0em">200mm</text>
<path d="M-251.25,850.9722222222222 L240.0,850.9722222222222" stroke="#ffcccc66" stroke-dasharray="5" />
<text x="-250.25" y="848.9722222222222" font-size="8" stroke="none" fill="#ffcccc66" dy="0em">250mm</text>
<path d="M-251.25,800.9722222222222 L240.0,800.9722222222222" stroke="#ffcccc66" stroke-dasharray="5" />
<text x="-250.25" y="798.9722222222222" font-size="8" stroke="none" fill="#ffcccc66" dy="0em">300mm</text>
<path d="M-251.25,750.9722222222222 L240.0,750.9722222222222" stroke="#ffcccc66" stroke-dasharray="5" />
<text x="-250.25" y="748.9722222222222" font-size="8" stroke="none" fill="#ffcccc66" dy="0em">350mm</text>
<path d="M-251.25,700.9722222222222 L240.0,700.9722222222222" stroke="#ffcccc66" stroke-dasharray="5" />
<text x="-250.25" y="698.9722222222222" font-size="8" stroke="none" fill="#ffcccc66" dy="0em">400mm</text>
<path d="M-251.25,650.9722222222222 L240.0,650.9722222222222" stroke="#ffcccc66" stroke-dasharray="5" />
<text x="-250.25" y="648.9722222222222" font-size="8" stroke="none" fill="#ffcccc66" dy="0em">450mm</text>
<path d="M-251.25,600.9722222222222 L240.0,600.9722222222222" stroke="#ffcccc66" stroke-dasharray="5" />
<text x="-250.25" y="598.9722222222222" font-size="8" stroke="none" fill="#ffcccc66" dy="0em">500mm</text>
<path d="M-251.25,550.9722222222222 L240.0,550.9722222222222" stroke="#ffcccc66" stroke-dasharray="5" />
<text x="-250.25" y="548.9722222222222" font-size="8" stroke="none" fill="#ffcccc66" dy="0em">550mm</text>
<path d="M-251.25,500.9722222222222 L240.0,500.9722222222222" stroke="#ffcccc66" stroke-dasharray="5" />
<text x="-250.25" y="498.9722222222222" font-size="8" stroke="none" fill="#ffcccc66" dy="0em">600mm</text>
<path d="M-251.25,450.9722222222222 L240.0,450.9722222222222" stroke="#ffcccc66" stroke-dasharray="5" />
<text x="-250.25" y="448.9722222222222" font-size="8" stroke="none" fill="#ffcccc66" dy="0em">650mm</text>
<path d="M-251.25,400.9722222222222 L240.0,400.9722222222222" stroke="#ffcccc66" stroke-dasharray="5" />
<text x="-250.25" y="398.9722222222222" font-size="8" stroke="none" fill="#ffcccc66" dy="0em">700mm</text>
<path d="M-251.25,350.9722222222222 L240.0,350.9722222222222" stroke="#ffcccc66" stroke-dasharray="5" />
<text x="-250.25" y="348.9722222222222" font-size="8" stroke="none" fill="#ffcccc66" dy="0em">750mm</text>
<path d="M-251.25,300.9722222222222 L240.0,300.9722222222222" stroke="#ffcccc66" stroke-dasharray="5" />
<text x="-250.25" y="298.9722222222222" font-size="8" stroke="none" fill="#ffcccc66" dy="0em">800mm</text>
<path d="M-251.25,250.97222222222217 L240.0,250.97222222222217" stroke="#ffcccc66" stroke-dasharray="5" />
<text x="-250.25" y="248.97222222222217" font-size="8" stroke="none" fill="#ffcccc66" dy="0em">850mm</text>
<path d="M-251.25,200.97222222222217 L240.0,200.97222222222217" stroke="#ffcccc66" stroke-dasharray="5" />
<text x="-250.25" y="198.97222222222217" font-size="8" stroke="none" fill="#ffcccc66" dy="0em">900mm</text>
<path d="M-251.25,150.97222222222217 L240.0,150.97222222222217" stroke="#ffcccc66" stroke-dasharray="5" />
<text x="-250.25" y="148.97222222222217" font-size="8" stroke="none" fill="#ffcccc66" dy="0em">950mm</text>
<path d="M-251.25,100.97222222222217 L240.0,100.97222222222217" stroke="#ffcccc66" stroke-dasharray="5" />
<text x="-250.25" y="98.97222222222217" font-size="8" stroke="none" fill="#ffcccc66" dy="0em">1000mm</text>
<path d="M-251.25,50.97222222222217 L240.0,50.97222222222217" stroke="#ffcccc66" stroke-dasharray="5" />
<text x="-250.25" y="48.97222222222217" font-size="8" stroke="none" fill="#ffcccc66" dy="0em">1050mm</text>
<path d="M-251.25,0.9722222222221717 L240.0,0.9722222222221717" stroke="#ffcccc66" stroke-dasharray="5" />
<text x="-250.25" y="-1.0277777777778283" font-size="8" stroke="none" fill="#ffcccc66" dy="0em">1100mm</text>
<path d="M-251.25,-49.02777777777783 L240.0,-49.02777777777783" stroke="#ffcccc66" stroke-dasharray="5" />
<text x="-250.25" y="-51.02777777777783" font-size="8" stroke="none" fill="#ffcccc66" dy="0em">1150mm</text>
<path d="M-251.25,-99.02777777777783 L240.0,-99.02777777777783" stroke="#ffcccc66" stroke-dasharray="5" />
<text x="-250.25" y="-101.02777777777783" font-size="8" stroke="none" fill="#ffcccc66" dy="0em">1200mm</text>
<path d="M-251.25,1200.9722222222222 L-251.25,-100" stroke="#ffcccc66" stroke-dasharray="5" />
<text x="-249.25" y="1199.9722222222222" font-size="8" stroke="none" fill="#ffcccc66" dy="0em">-100mm</text>
<path d="M-201.25,1200.9722222222222 L-201.25,-100" stroke="#ffcccc66" stroke-dasharray="5" />
<text x="-199.25" y="1199.9722222222222" font-size="8" stroke="none" fill="#ffcccc66" dy="0em">-50mm</text>
<path d="M-151.25,1200.9722222222222 L-151.25,-100" stroke="#ffcccc66" stroke-dasharray="5" />
<text x="-149.25" y="1199.9722222222222" font-size="8" stroke="none" fill="#ffcccc66" dy="0em">0mm</text>
<path d="M-101.25,1200.9722222222222 L-101.25,-100" stroke="#ffcccc66" stroke-dasharray="5" />
<text x="-99.25" y="1199.9722222222222" font-size="8" stroke="none" fill="#ffcccc66" dy="0em">50mm</text>
<path d="M-51.25,1200.9722222222222 L-51.25,-100" stroke="#ffcccc66" stroke-dasharray="5" />
<text x="-49.25" y="1199.9722222222222" font-size="8" stroke="none" fill="#ffcccc66" dy="0em">100mm</text>
<path d="M-1.25,1200.9722222222222 L-1.25,-100" stroke="#ffcccc66" stroke-dasharray="5" />
<text x="0.75" y="1199.9722222222222" font-size="8" stroke="none" fill="#ffcccc66" dy="0em">150mm</text>
<path d="M48.75,1200.9722222222222 L48.75,-100" stroke="#ffcccc66" stroke-dasharray="5" />
<text x="50.75" y="1199.9722222222222" font-size="8" stroke="none" fill="#ffcccc66" dy="0em">200mm</text>
<path d="M98.75,1200.9722222222222 L98.75,-100" stroke="#ffcccc66" stroke-dasharray="5" />
<text x="100.75" y="1199.9722222222222" font-size="8" stroke="none" fill="#ffcccc66" dy="0em">250mm</text>
<path d="M148.75,1200.9722222222222 L148.75,-100" stroke="#ffcccc66" stroke-dasharray="5" />
<text x="150.75" y="1199.9722222222222" font-size="8" stroke="none" fill="#ffcccc66" dy="0em">300mm</text>
<path d="M198.75,1200.9722222222222 L198.75,-100" stroke="#ffcccc66" stroke-dasharray="5" />
<text x="200.75" y="1199.9722222222222" font-size="8" stroke="none" fill="#ffcccc66" dy="0em">350mm</text>
<g>
<g>
<path d="M-151.25,328.97222222222223 L-134.38888888888889,664.9722222222222 L-105.0,1100.9722222222222 L105.0,1100.9722222222222 L134.38888888888889,664.9722222222222 L140.0,265 L123.75,0 L10.0,-0.0 L-7.105427357601002e-15,100.0 L-10.0,-0.0 L-80.0,0 L-90.0,265 L-151.25,328.97222222222223" fill="#E6E6FA66" stroke="black" />
<text font-size="12" stroke="none" fill="#000000"><textPath xlink:href="#d0" startOffset="10">
<tspan dy="-1em">Classic Tailored Trouser Block - Front</tspan>
</textPath></text>
</g>
<g>
<circle cx="0" cy="0" r="1" fill="black" />
<text x="2" y="-2" font-size="12" fill="#000000" stroke="none" dy="0em">0</text>
</g>
<g>
<circle cx="0" cy="328.97222222222223" r="1" fill="black" />
<text x="2" y="326.97222222222223" font-size="12" fill="#000000" stroke="none" dy="0em">1</text>
</g>
<g>
<circle cx="0" cy="265" r="1" fill="black" />
<text x="2" y="263" font-size="12" fill="#000000" stroke="none" dy="0em">2</text>
</g>
<g>
<circle cx="0" cy="1100.9722222222222" r="1" fill="black" />
<text x="2" y="1098.9722222222222" font-size="12" fill="#000000" stroke="none" dy="0em">3</text>
</g>
<g>
<circle cx="0.0" cy="664.9722222222222" r="1" fill="black" />
<text x="2.0" y="662.9722222222222" font-size="12" fill="#000000" stroke="none" dy="0em">4</text>
</g>
<g>
<circle cx="-90.0" cy="328.97222222222223" r="1" fill="black" />
<text x="-88.0" y="326.97222222222223" font-size="12" fill="#000000" stroke="none" dy="0em">5</text>
</g>
<g>
<circle cx="-90.0" cy="265" r="1" fill="black" />
<text x="-88.0" y="263" font-size="12" fill="#000000" stroke="none" dy="0em">6</text>
</g>
<g>
<circle cx="-90.0" cy="0" r="1" fill="black" />
<text x="-88.0" y="-2" font-size="12" fill="#000000" stroke="none" dy="0em">7</text>
</g>
<g>
<circle cx="140.0" cy="265" r="1" fill="black" />
<text x="142.0" y="263" font-size="12" fill="#000000" stroke="none" dy="0em">8</text>
</g>
<g>
<circle cx="-151.25" cy="328.97222222222223" r="1" fill="black" />
<text x="-149.25" y="326.97222222222223" font-size="12" fill="#000000" stroke="none" dy="0em">9</text>
</g>
<g>
<circle cx="-80.0" cy="0" r="1" fill="black" />
<text x="-78.0" y="-2" font-size="12" fill="#000000" stroke="none" dy="0em">10</text>
</g>
<g>
<circle cx="123.75" cy="0" r="1" fill="black" />
<text x="125.75" y="-2" font-size="12" fill="#000000" stroke="none" dy="0em">11</text>
</g>
<g>
<circle cx="105.0" cy="1100.9722222222222" r="1" fill="black" />
<text x="107.0" y="1098.9722222222222" font-size="12" fill="#000000" stroke="none" dy="0em">12</text>
</g>
<g>
<circle cx="134.38888888888889" cy="664.9722222222222" r="1" fill="black" />
<text x="136.38888888888889" y="662.9722222222222" font-size="12" fill="#000000" stroke="none" dy="0em">13</text>
</g>
<g>
<circle cx="-105.0" cy="1100.9722222222222" r="1" fill="black" />
<text x="-103.0" y="1098.9722222222222" font-size="12" fill="#000000" stroke="none" dy="0em">14</text>
</g>
<g>
<circle cx="-134.38888888888889" cy="664.9722222222222" r="1" fill="black" />
<text x="-132.38888888888889" y="662.9722222222222" font-size="12" fill="#000000" stroke="none" dy="0em">15</text>
</g>
</g>
</svg>