<?xml version="1.0" encoding="UTF-8"?>
<svg xmlns="http://www.w3.org/2000/svg" xmlns:xlink="http://www.w3.org/1999/xlink"
     width="638.9665143426762" height="2012.6999999999955" viewBox="-319.4832571713381 -132.6999999999955 638.9665143426762 2012.6999999999955" stroke="black" fill="none">
<defs>
<path d="M-219.48325717133807,1784.0 L-219.48325717133807,1884.0" id="d0" />
<path d="M-199.48325717133807,1784.0 L-199.48325717133807,1884.0" id="d1" />
<path d="M-179.48325717133807,1784.0 L-179.48325717133807,1884.0" id="d2" />
<path d="M-159.48325717133807,1783.9999999999998 L-159.48325717133807,1883.9999999999998" id="d3" />
<path d="M-139.48325717133807,1784.0 L-139.48325717133807,1884.0" id="d4" />
<path d="M-119.48325717133807,1784.0 L-119.48325717133807,1884.0" id="d5" />
<path d="M-99.48325717133807,1784.0 L-99.48325717133807,1884.0" id="d6" />
<path d="M-79.48325717133807,1784.0 L-79.48325717133807,1884.0" id="d7" />
<path d="M-59.48325717133804,1784.0 L-59.48325717133804,1884.0" id="d8" />
<path d="M-39.48325717133807,1784.0 L-39.48325717133807,1884.0" id="d9" />
<path d="M-19.483257171338053,1784.0 L-19.483257171338053,1884.0" id="d10" />
<path d="M0.5167428286619327,1784.0 L0.5167428286619327,1884.0" id="d11" />
<path d="M20.516742828661933,1784.0 L20.516742828661933,1884.0" id="d12" />
<path d="M40.51674282866193,1784.0 L40.51674282866193,1884.0" id="d13" />
<path d="M60.51674282866193,1784.0 L60.51674282866193,1884.0" id="d14" />
<path d="M80.51674282866192,1784.0 L80.51674282866192,1884.0" id="d15" />
<path d="M100.51674282866193,1784.0 L100.51674282866193,1884.0" id="d16" />
<path d="M120.51674282866193,1784.0 L120.51674282866193,1884.0" id="d17" />
<path d="M140.51674282866193,1784.0 L140.51674282866193,1884.0" id="d18" />
<path d="M160.51674282866193,1784.0 L160.51674282866193,1884.0" id="d19" />
<path d="M180.51674282866193,1784.0 L180.51674282866193,1884.0" id="d20" />
<path d="M200.51674282866193,1784.0 L200.51674282866193,1884.0" id="d21" />
<path d="M223.48325717133807,1780.0 L323.4832571713381,1780.0" id="d22" />
<path d="M223.48325717133807,1760.0 L323.4832571713381,1760.0" id="d23" />
<path d="M223.48325717133807,1740.0 L323.4832571713381,1740.0" id="d24" />
<path d="M223.4832571713381,1720.0 L323.4832571713381,1720.0" id="d25" />
<path d="M223.4832571713381,1700.0 L323.4832571713381,1700.0" id="d26" />
<path d="M223.48325717133807,1680.0000000000002 L323.4832571713381,1680.0000000000002" id="d27" />
<path d="M223.48325717133807,1660.0 L323.4832571713381,1660.0" id="d28" />
<path d="M223.48325717133807,1640.0 L323.4832571713381,1640.0" id="d29" />
<path d="M223.48325717133807,1620.0000000000002 L323.4832571713381,1620.0000000000002" id="d30" />
<path d="M223.48325717133804,1600.0 L323.48325717133804,1600.0" id="d31" />
<path d="M223.4832571713381,1580.0 L323.4832571713381,1580.0" id="d32" />
<path d="M223.48325717133807,1560.0 L323.4832571713381,1560.0" id="d33" />
<path d="M223.48325717133807,1540.0 L323.4832571713381,1540.0" id="d34" />
<path d="M223.48325717133807,1520.0 L323.4832571713381,1520.0" id="d35" />
<path d="M223.48325717133804,1500.0 L323.48325717133804,1500.0" id="d36" />
<path d="M223.48325717133804,1480.0 L323.48325717133804,1480.0" id="d37" />
<path d="M223.48325717133807,1460.0 L323.4832571713381,1460.0" id="d38" />
<path d="M223.48325717133807,1439.9999999999998 L323.4832571713381,1439.9999999999998" id="d39" />
<path d="M223.48325717133807,1420.0 L323.4832571713381,1420.0" id="d40" />
<path d="M223.48325717133807,1400.0 L323.4832571713381,1400.0" id="d41" />
<path d="M223.48325717133807,1380.0 L323.4832571713381,1380.0" id="d42" />
<path d="M223.4832571713381,1360.0 L323.4832571713381,1360.0" id="d43" />
<path d="M223.48325717133807,1340.0 L323.4832571713381,1340.0" id="d44" />
<path d="M223.48325717133807,1320.0 L323.4832571713381,1320.0" id="d45" />
<path d="M223.48325717133804,1300.0 L323.48325717133804,1300.0" id="d46" />
<path d="M223.4832571713381,1280.0 L323.4832571713381,1280.0" id="d47" />
<path d="M223.48325717133804,1259.9999999999998 L323.48325717133804,1259.9999999999998" id="d48" />
<path d="M223.4832571713381,1240.0000000000002 L323.4832571713381,1240.0000000000002" id="d49" />
<path d="M223.48325717133807,1220.0 L323.4832571713381,1220.0" id="d50" />
<path d="M223.4832571713381,1200.0 L323.4832571713381,1200.0" id="d51" />
<path d="M223.48325717133807,1180.0 L323.4832571713381,1180.0" id="d52" />
<path d="M223.48325717133807,1160.0000000000002 L323.4832571713381,1160.0000000000002" id="d53" />
<path d="M223.48325717133804,1139.9999999999998 L323.48325717133804,1139.9999999999998" id="d54" />
<path d="M223.48325717133807,1120.0 L323.4832571713381,1120.0" id="d55" />
<path d="M223.48325717133807,1100.0 L323.4832571713381,1100.0" id="d56" />
<path d="M223.48325717133807,1080.0 L323.4832571713381,1080.0" id="d57" />
<path d="M223.48325717133807,1060.0 L323.4832571713381,1060.0" id="d58" />
<path d="M223.4832571713381,1040.0 L323.4832571713381,1040.0" id="d59" />
<path d="M223.48325717133807,1020.0 L323.4832571713381,1020.0" id="d60" />
<path d="M223.48325717133807,1000.0 L323.4832571713381,1000.0" id="d61" />
<path d="M223.48325717133807,980.0000000000001 L323.4832571713381,980.0000000000001" id="d62" />
<path d="M223.48325717133807,960.0 L323.4832571713381,960.0" id="d63" />
<path d="M223.4832571713381,940.0000000000001 L323.4832571713381,940.0000000000001" id="d64" />
<path d="M223.48325717133804,919.9999999999999 L323.48325717133804,919.9999999999999" id="d65" />
<path d="M223.4832571713381,900.0 L323.4832571713381,900.0" id="d66" />
<path d="M223.48325717133804,879.9999999999999 L323.48325717133804,879.9999999999999" id="d67" />
<path d="M223.48325717133807,860.0 L323.4832571713381,860.0" id="d68" />
<path d="M223.48325717133807,839.9999999999999 L323.4832571713381,839.9999999999999" id="d69" />
<path d="M223.48325717133807,819.9999999999999 L323.4832571713381,819.9999999999999" id="d70" />
<path d="M223.48325717133807,800.0 L323.4832571713381,800.0" id="d71" />
<path d="M223.48325717133807,779.9999999999999 L323.4832571713381,779.9999999999999" id="d72" />
<path d="M223.48325717133807,760.0 L323.4832571713381,760.0" id="d73" />
<path d="M223.48325717133807,739.9999999999999 L323.4832571713381,739.9999999999999" id="d74" />
<path d="M223.48325717133807,720.0 L323.4832571713381,720.0" id="d75" />
<path d="M223.48325717133804,700.0 L323.48325717133804,700.0" id="d76" />
<path d="M223.48325717133804,680.0 L323.48325717133804,680.0" id="d77" />
<path d="M223.4832571713381,660.0 L323.4832571713381,660.0" id="d78" />
<path d="M223.4832571713381,640.0000000000001 L323.4832571713381,640.0000000000001" id="d79" />
<path d="M223.48325717133807,620.0 L323.4832571713381,620.0" id="d80" />
<path d="M223.48325717133807,600.0 L323.4832571713381,600.0" id="d81" />
<path d="M223.48325717133807,580.0000000000001 L323.4832571713381,580.0000000000001" id="d82" />
<path d="M223.48325717133807,560.0 L323.4832571713381,560.0" id="d83" />
<path d="M223.48325717133804,540.0000000000001 L323.48325717133804,540.0000000000001" id="d84" />
<path d="M223.48325717133804,520.0 L323.48325717133804,520.0" id="d85" />
<path d="M223.4832571713381,500.0000000000001 L323.4832571713381,500.0000000000001" id="d86" />
<path d="M223.48325717133804,479.9999999999999 L323.48325717133804,479.9999999999999" id="d87" />
<path d="M223.4832571713381,459.9999999999999 L323.4832571713381,459.9999999999999" id="d88" />
<path d="M223.48325717133807,439.9999999999999 L323.4832571713381,439.9999999999999" id="d89" />
<path d="M223.48325717133807,419.99999999999994 L323.4832571713381,419.99999999999994" id="d90" />
<path d="M223.48325717133807,399.99999999999994 L323.4832571713381,399.99999999999994" id="d91" />
<path d="M223.48325717133807,379.99999999999994 L323.4832571713381,379.99999999999994" id="d92" />
<path d="M223.48325717133807,359.99999999999994 L323.4832571713381,359.99999999999994" id="d93" />
<path d="M223.48325717133807,340.0 L323.4832571713381,340.0" id="d94" />
<path d="M223.48325717133804,320.0 L323.48325717133804,320.0" id="d95" />
<path d="M223.4832571713381,300.0 L323.4832571713381,300.0" id="d96" />
<path d="M223.48325717133807,280.0 L323.4832571713381,280.0" id="d97" />
<path d="M223.48325717133807,260.00000000000006 L323.4832571713381,260.00000000000006" id="d98" />
<path d="M223.48325717133807,240.00000000000003 L323.4832571713381,240.00000000000003" id="d99" />
<path d="M223.48325717133807,220.00000000000003 L323.4832571713381,220.00000000000003" id="d100" />
<path d="M223.48325717133807,200.00000000000006 L323.4832571713381,200.00000000000006" id="d101" />
<path d="M223.48325717133807,180.00000000000006 L323.4832571713381,180.00000000000006" id="d102" />
<path d="M223.48325717133804,160.00000000000009 L323.48325717133804,160.00000000000009" id="d103" />
<path d="M223.48325717133807,140.00000000000009 L323.4832571713381,140.00000000000009" id="d104" />
<path d="M223.48325717133807,120.0000000000001 L323.4832571713381,120.0000000000001" id="d105" />
<path d="M223.48325717133807,99.99999999999991 L323.4832571713381,99.99999999999991" id="d106" />
<path d="M223.48325717133807,79.99999999999991 L323.4832571713381,79.99999999999991" id="d107" />
<path d="M223.48325717133807,59.99999999999993 L323.4832571713381,59.99999999999993" id="d108" />
<path d="M223.48325717133807,39.99999999999994 L323.4832571713381,39.99999999999994" id="d109" />
<path d="M223.48325717133807,19.99999999999995 L323.4832571713381,19.99999999999995" id="d110" />
<path d="M223.48325717133807,-4.263256414560601e-14 L323.4832571713381,-4.263256414560601e-14" id="d111" />
<path d="M223.48325717133807,-20.000000000000025 L323.4832571713381,-20.000000000000025" id="d112" />
</defs>
<g>
<path d="M59.60165155411547,1730.0 L59.79758356853188,1712.7 L60.5099515110431,1695.4 L61.732449960373835,1678.1000000000001 L63.46803869863432,1660.8000000000002 L65.73111619394724,1643.5000000000002 L68.47031494651677,1626.2000000000003 L71.64398874055823,1608.9000000000003 L75.24484763918062,1591.6000000000004 L79.229601867762,1574.3000000000004 L83.54814911494229,1557.0000000000005 L88.16390554140675,1539.7000000000005 L93.06467853499916,1522.4000000000005 L98.16595958306097,1505.1000000000006 L103.42071053303661,1487.8000000000006 L108.78417626018413,1470.5000000000007 L114.20659222185785,1453.2000000000007 L119.63239324894865,1435.9000000000008 L125.00984676285509,1418.6000000000008 L130.28194700965417,1401.3000000000009 L135.39543030753865,1384.000000000001 L140.31064775664578,1366.700000000001 L144.9848299019522,1349.400000000001 L149.3532191682578,1332.100000000001 L153.3800521631229,1314.800000000001 L157.0232249437711,1297.5000000000011 L160.2624516595357,1280.2000000000012 L163.03271700850877,1262.9000000000012 L165.34443768653833,1245.6000000000013 L167.1775334537917,1228.3000000000013 L168.49817947578882,1211.0000000000014 L169.25122864318067,1193.7000000000014 L169.48325717133807,1176.4000000000015 L169.196880167389,1159.1000000000015 L168.36305428140847,1141.8000000000015 L167.00599062300924,1124.5000000000016 L165.1535032357511,1107.2000000000016 L162.80731793683177,1089.9000000000017 L159.9501642481238,1072.6000000000017 L156.66554117703188,1055.3000000000018 L152.98381114498818,1038.0000000000018 L148.92908514183324,1020.7000000000019 L144.5271724818326,1003.4000000000019 L139.83920968253935,986.100000000002 L134.90000554786394,968.800000000002 L129.7585660163403,951.500000000002 L124.47045874054109,934.2000000000021 L119.0897049868936,916.9000000000021 L113.66308946319711,899.6000000000022 L108.24275707281163,882.3000000000022 L102.88704692810902,865.0000000000023 L97.64513778069212,847.7000000000023 L92.5644935818274,830.4000000000024 L87.7085865086358,813.1000000000024 L83.10726076224667,795.8000000000025 L78.8005660210198,778.5000000000025 L74.84948474663427,761.2000000000025 L71.30977447449071,743.9000000000026 L68.18077005760746,726.6000000000026 L65.48895582641191,709.3000000000027 L63.29131484386871,692.0000000000027 L61.589214582642796,674.7000000000028 L60.389172966638434,657.4000000000028 L59.633950977747574,640.1000000000029 L58.95632988323401,622.8000000000029 L58.27876277381038,605.500000000003 L57.601195664386736,588.200000000003 L56.92362855496309,570.900000000003 L56.24606144553943,553.6000000000031 L55.568494336115805,536.3000000000031 L54.890927226692156,519.0000000000032 L54.21336011726851,501.70000000000323 L53.53579300784487,484.4000000000033 L52.858225898421225,467.1000000000033 L52.180658788997576,449.80000000000337 L51.503091679573934,432.5000000000034 L50.82552457015029,415.20000000000346 L50.14795746072665,397.9000000000035 L49.47039035130301,380.60000000000355 L48.79282324187937,363.3000000000036 L48.11525613245571,346.00000000000364 L47.43768902303208,328.7000000000037 L46.76012191360843,311.40000000000373 L46.08255480418479,294.1000000000038 L45.40498769476114,276.8000000000038 L44.771459351188305,259.50000000000387 L44.2033620611091,242.2000000000039 L43.63526477102988,224.90000000000396 L43.06716748095067,207.600000000004 L42.499070190871464,190.30000000000405 L41.93097290079225,173.0000000000041 L41.36287561071304,155.70000000000414 L40.79477832063384,138.40000000000418 L40.22668103055462,121.10000000000423 L39.65858374047541,103.80000000000427 L39.0904864503962,86.50000000000432 L38.52238916031699,69.20000000000437 L37.95429187023778,51.90000000000441 L37.38619458015857,34.60000000000446 L36.818097290079365,17.300000000004502 L-36.818097290079365,17.300000000004502 L-37.38619458015857,34.60000000000446 L-37.95429187023778,51.90000000000441 L-38.52238916031699,69.20000000000437 L-39.0904864503962,86.50000000000432 L-39.65858374047541,103.80000000000427 L-40.22668103055462,121.10000000000423 L-40.79477832063384,138.40000000000418 L-41.36287561071304,155.70000000000414 L-41.93097290079225,173.0000000000041 L-42.499070190871464,190.30000000000405 L-43.06716748095067,207.600000000004 L-43.63526477102988,224.90000000000396 L-44.2033620611091,242.2000000000039 L-44.771459351188305,259.50000000000387 L-45.40498769476114,276.8000000000038 L-46.08255480418479,294.1000000000038 L-46.76012191360843,311.40000000000373 L-47.43768902303208,328.7000000000037 L-48.11525613245571,346.00000000000364 L-48.79282324187937,363.3000000000036 L-49.47039035130301,380.60000000000355 L-50.14795746072665,397.9000000000035 L-50.82552457015029,415.20000000000346 L-51.503091679573934,432.5000000000034 L-52.180658788997576,449.80000000000337 L-52.858225898421225,467.1000000000033 L-53.53579300784487,484.4000000000033 L-54.21336011726851,501.70000000000323 L-54.890927226692156,519.0000000000032 L-55.568494336115805,536.3000000000031 L-56.24606144553943,553.6000000000031 L-56.92362855496309,570.900000000003 L-57.601195664386736,588.200000000003 L-58.27876277381038,605.500000000003 L-58.95632988323401,622.8000000000029 L-59.633950977747574,640.1000000000029 L-60.389172966638434,657.4000000000028 L-61.589214582642796,674.7000000000028 L-63.29131484386871,692.0000000000027 L-65.48895582641191,709.3000000000027 L-68.18077005760746,726.6000000000026 L-71.30977447449071,743.9000000000026 L-74.84948474663427,761.2000000000025 L-78.8005660210198,778.5000000000025 L-83.10726076224667,795.8000000000025 L-87.7085865086358,813.1000000000024 L-92.5644935818274,830.4000000000024 L-97.64513778069212,847.7000000000023 L-102.88704692810902,865.0000000000023 L-108.24275707281163,882.3000000000022 L-113.66308946319711,899.6000000000022 L-119.0897049868936,916.9000000000021 L-124.47045874054109,934.2000000000021 L-129.7585660163403,951.500000000002 L-134.90000554786394,968.800000000002 L-139.83920968253935,986.100000000002 L-144.5271724818326,1003.4000000000019 L-148.92908514183324,1020.7000000000019 L-152.98381114498818,1038.0000000000018 L-156.66554117703188,1055.3000000000018 L-159.9501642481238,1072.6000000000017 L-162.80731793683177,1089.9000000000017 L-165.1535032357511,1107.2000000000016 L-167.00599062300924,1124.5000000000016 L-168.36305428140847,1141.8000000000015 L-169.196880167389,1159.1000000000015 L-169.48325717133807,1176.4000000000015 L-169.25122864318067,1193.7000000000014 L-168.49817947578882,1211.0000000000014 L-167.1775334537917,1228.3000000000013 L-165.34443768653833,1245.6000000000013 L-163.03271700850877,1262.9000000000012 L-160.2624516595357,1280.2000000000012 L-157.0232249437711,1297.5000000000011 L-153.3800521631229,1314.800000000001 L-149.3532191682578,1332.100000000001 L-144.9848299019522,1349.400000000001 L-140.31064775664578,1366.700000000001 L-135.39543030753865,1384.000000000001 L-130.28194700965417,1401.3000000000009 L-125.00984676285509,1418.6000000000008 L-119.63239324894865,1435.9000000000008 L-114.20659222185785,1453.2000000000007 L-108.78417626018413,1470.5000000000007 L-103.42071053303661,1487.8000000000006 L-98.16595958306097,1505.1000000000006 L-93.06467853499916,1522.4000000000005 L-88.16390554140675,1539.7000000000005 L-83.54814911494229,1557.0000000000005 L-79.229601867762,1574.3000000000004 L-75.24484763918062,1591.6000000000004 L-71.64398874055823,1608.9000000000003 L-68.47031494651677,1626.2000000000003 L-65.73111619394724,1643.5000000000002 L-63.46803869863432,1660.8000000000002 L-61.732449960373835,1678.1000000000001 L-60.5099515110431,1695.4 L-59.79758356853188,1712.7 L-59.60165155411547,1730.0 L59.60165155411547,1730.0" fill="#E6E6FA" stroke="black" />
</g>
<g>
<g>
<path d="M-219.48325717133807,1780.0 L219.48325717133807,1780.0" fill="none" stroke="#999999" />
</g>
<path d="M-219.48325717133807,1780.0 L-219.48325717133807,1783.0" stroke="#999999" />
<text font-size="12" stroke="none" fill="#999999"><textPath xlink:href="#d0">
<tspan dy="0em">0mm</tspan>
</textPath></text>
<path d="M-199.48325717133807,1780.0 L-199.48325717133807,1783.0" stroke="#999999" />
<text font-size="12" stroke="none" fill="#999999"><textPath xlink:href="#d1">
<tspan dy="0em">20mm</tspan>
</textPath></text>
<path d="M-179.48325717133807,1780.0 L-179.48325717133807,1783.0" stroke="#999999" />
<text font-size="12" stroke="none" fill="#999999"><textPath xlink:href="#d2">
<tspan dy="0em">40mm</tspan>
</textPath></text>
<path d="M-159.48325717133807,1779.9999999999998 L-159.48325717133807,1782.9999999999998" stroke="#999999" />
<text font-size="12" stroke="none" fill="#999999"><textPath xlink:href="#d3">
<tspan dy="0em">60mm</tspan>
</textPath></text>
<path d="M-139.48325717133807,1780.0 L-139.48325717133807,1783.0" stroke="#999999" />
<text font-size="12" stroke="none" fill="#999999"><textPath xlink:href="#d4">
<tspan dy="0em">80mm</tspan>
</textPath></text>
<path d="M-119.48325717133807,1780.0 L-119.48325717133807,1783.0" stroke="#999999" />
<text font-size="12" stroke="none" fill="#999999"><textPath xlink:href="#d5">
<tspan dy="0em">100mm</tspan>
</textPath></text>
<path d="M-99.48325717133807,1780.0 L-99.48325717133807,1783.0" stroke="#999999" />
<text font-size="12" stroke="none" fill="#999999"><textPath xlink:href="#d6">
<tspan dy="0em">120mm</tspan>
</textPath></text>
<path d="M-79.48325717133807,1780.0 L-79.48325717133807,1783.0" stroke="#999999" />
<text font-size="12" stroke="none" fill="#999999"><textPath xlink:href="#d7">
<tspan dy="0em">140mm</tspan>
</textPath></text>
<path d="M-59.48325717133804,1780.0 L-59.48325717133804,1783.0" stroke="#999999" />
<text font-size="12" stroke="none" fill="#999999"><textPath xlink:href="#d8">
<tspan dy="0em">160mm</tspan>
</textPath></text>
<path d="M-39.48325717133807,1780.0 L-39.48325717133807,1783.0" stroke="#999999" />
<text font-size="12" stroke="none" fill="#999999"><textPath xlink:href="#d9">
<tspan dy="0em">180mm</tspan>
</textPath></text>
<path d="M-19.483257171338053,1780.0 L-19.483257171338053,1783.0" stroke="#999999" />
<text font-size="12" stroke="none" fill="#999999"><textPath xlink:href="#d10">
<tspan dy="0em">200mm</tspan>
</textPath></text>
<path d="M0.5167428286619327,1780.0 L0.5167428286619327,1783.0" stroke="#999999" />
<text font-size="12" stroke="none" fill="#999999"><textPath xlink:href="#d11">
<tspan dy="0em">220mm</tspan>
</textPath></text>
<path d="M20.516742828661933,1780.0 L20.516742828661933,1783.0" stroke="#999999" />
<text font-size="12" stroke="none" fill="#999999"><textPath xlink:href="#d12">
<tspan dy="0em">240mm</tspan>
</textPath></text>
<path d="M40.51674282866193,1780.0 L40.51674282866193,1783.0" stroke="#999999" />
<text font-size="12" stroke="none" fill="#999999"><textPath xlink:href="#d13">
<tspan dy="0em">260mm</tspan>
</textPath></text>
<path d="M60.51674282866193,1780.0 L60.51674282866193,1783.0" stroke="#999999" />
<text font-size="12" stroke="none" fill="#999999"><textPath xlink:href="#d14">
<tspan dy="0em">280mm</tspan>
</textPath></text>
<path d="M80.51674282866192,1780.0 L80.51674282866192,1783.0" stroke="#999999" />
<text font-size="12" stroke="none" fill="#999999"><textPath xlink:href="#d15">
<tspan dy="0em">300mm</tspan>
</textPath></text>
<path d="M100.51674282866193,1780.0 L100.51674282866193,1783.0" stroke="#999999" />
<text font-size="12" stroke="none" fill="#999999"><textPath xlink:href="#d16">
<tspan dy="0em">320mm</tspan>
</textPath></text>
<path d="M120.51674282866193,1780.0 L120.51674282866193,1783.0" stroke="#999999" />
<text font-size="12" stroke="none" fill="#999999"><textPath xlink:href="#d17">
<tspan dy="0em">340mm</tspan>
</textPath></text>
<path d="M140.51674282866193,1780.0 L140.51674282866193,1783.0" stroke="#999999" />
<text font-size="12" stroke="none" fill="#999999"><textPath xlink:href="#d18">
<tspan dy="0em">360mm</tspan>
</textPath></text>
<path d="M160.51674282866193,1780.0 L160.51674282866193,1783.0" stroke="#999999" />
<text font-size="12" stroke="none" fill="#999999"><textPath xlink:href="#d19">
<tspan dy="0em">380mm</tspan>
</textPath></text>
<path d="M180.51674282866193,1780.0 L180.51674282866193,1783.0" stroke="#999999" />
<text font-size="12" stroke="none" fill="#999999"><textPath xlink:href="#d20">
<tspan dy="0em">400mm</tspan>
</textPath></text>
<path d="M200.51674282866193,1780.0 L200.51674282866193,1783.0" stroke="#999999" />
<text font-size="12" stroke="none" fill="#999999"><textPath xlink:href="#d21">
<tspan dy="0em">420mm</tspan>
</textPath></text>
</g>
<g>
<g>
<path d="M219.48325717133807,1780.0 L219.48325717133807,-32.6999999999955" fill="none" stroke="#999999" />
</g>
<path d="M219.48325717133807,1780.0 L222.48325717133807,1780.0" stroke="#999999" />
<text font-size="12" stroke="none" fill="#999999"><textPath xlink:href="#d22">
<tspan dy="0em">0mm</tspan>
</textPath></text>
<path d="M219.48325717133807,1760.0 L222.48325717133807,1760.0" stroke="#999999" />
<text font-size="12" stroke="none" fill="#999999"><textPath xlink:href="#d23">
<tspan dy="0em">20mm</tspan>
</textPath></text>
<path d="M219.48325717133807,1740.0 L222.48325717133807,1740.0" stroke="#999999" />
<text font-size="12" stroke="none" fill="#999999"><textPath xlink:href="#d24">
<tspan dy="0em">40mm</tspan>
</textPath></text>
<path d="M219.4832571713381,1720.0 L222.4832571713381,1720.0" stroke="#999999" />
<text font-size="12" stroke="none" fill="#999999"><textPath xlink:href="#d25">
<tspan dy="0em">60mm</tspan>
</textPath></text>
<path d="M219.4832571713381,1700.0 L222.4832571713381,1700.0" stroke="#999999" />
<text font-size="12" stroke="none" fill="#999999"><textPath xlink:href="#d26">
<tspan dy="0em">80mm</tspan>
</textPath></text>
<path d="M219.48325717133807,1680.0000000000002 L222.48325717133807,1680.0000000000002" stroke="#999999" />
<text font-size="12" stroke="none" fill="#999999"><textPath xlink:href="#d27">
<tspan dy="0em">100mm</tspan>
</textPath></text>
<path d="M219.48325717133807,1660.0 L222.48325717133807,1660.0" stroke="#999999" />
<text font-size="12" stroke="none" fill="#999999"><textPath xlink:href="#d28">
<tspan dy="0em">120mm</tspan>
</textPath></text>
<path d="M219.48325717133807,1640.0 L222.48325717133807,1640.0" stroke="#999999" />
<text font-size="12" stroke="none" fill="#999999"><textPath xlink:href="#d29">
<tspan dy="0em">140mm</tspan>
</textPath></text>
<path d="M219.48325717133807,1620.0000000000002 L222.48325717133807,1620.0000000000002" stroke="#999999" />
<text font-size="12" stroke="none" fill="#999999"><textPath xlink:href="#d30">
<tspan dy="0em">160mm</tspan>
</textPath></text>
<path d="M219.48325717133804,1600.0 L222.48325717133804,1600.0" stroke="#999999" />
<text font-size="12" stroke="none" fill="#999999"><textPath xlink:href="#d31">
<tspan dy="0em">180mm</tspan>
</textPath></text>
<path d="M219.4832571713381,1580.0 L222.4832571713381,1580.0" stroke="#999999" />
<text font-size="12" stroke="none" fill="#999999"><textPath xlink:href="#d32">
<tspan dy="0em">200mm</tspan>
</textPath></text>
<path d="M219.48325717133807,1560.0 L222.48325717133807,1560.0" stroke="#999999" />
<text font-size="12" stroke="none" fill="#999999"><textPath xlink:href="#d33">
<tspan dy="0em">220mm</tspan>
</textPath></text>
<path d="M219.48325717133807,1540.0 L222.48325717133807,1540.0" stroke="#999999" />
<text font-size="12" stroke="none" fill="#999999"><textPath xlink:href="#d34">
<tspan dy="0em">240mm</tspan>
</textPath></text>
<path d="M219.48325717133807,1520.0 L222.48325717133807,1520.0" stroke="#999999" />
<text font-size="12" stroke="none" fill="#999999"><textPath xlink:href="#d35">
<tspan dy="0em">260mm</tspan>
</textPath></text>
<path d="M219.48325717133804,1500.0 L222.48325717133804,1500.0" stroke="#999999" />
<text font-size="12" stroke="none" fill="#999999"><textPath xlink:href="#d36">
<tspan dy="0em">280mm</tspan>
</textPath></text>
<path d="M219.48325717133804,1480.0 L222.48325717133804,1480.0" stroke="#999999" />
<text font-size="12" stroke="none" fill="#999999"><textPath xlink:href="#d37">
<tspan dy="0em">300mm</tspan>
</textPath></text>
<path d="M219.48325717133807,1460.0 L222.48325717133807,1460.0" stroke="#999999" />
<text font-size="12" stroke="none" fill="#999999"><textPath xlink:href="#d38">
<tspan dy="0em">320mm</tspan>
</textPath></text>
<path d="M219.48325717133807,1439.9999999999998 L222.48325717133807,1439.9999999999998" stroke="#999999" />
<text font-size="12" stroke="none" fill="#999999"><textPath xlink:href="#d39">
<tspan dy="0em">340mm</tspan>
</textPath></text>
<path d="M219.48325717133807,1420.0 L222.48325717133807,1420.0" stroke="#999999" />
<text font-size="12" stroke="none" fill="#999999"><textPath xlink:href="#d40">
<tspan dy="0em">360mm</tspan>
</textPath></text>
<path d="M219.48325717133807,1400.0 L222.48325717133807,1400.0" stroke="#999999" />
<text font-size="12" stroke="none" fill="#999999"><textPath xlink:href="#d41">
<tspan dy="0em">380mm</tspan>
</textPath></text>
<path d="M219.48325717133807,1380.0 L222.48325717133807,1380.0" stroke="#999999" />
<text font-size="12" stroke="none" fill="#999999"><textPath xlink:href="#d42">
<tspan dy="0em">400mm</tspan>
</textPath></text>
<path d="M219.4832571713381,1360.0 L222.4832571713381,1360.0" stroke="#999999" />
<text font-size="12" stroke="none" fill="#999999"><textPath xlink:href="#d43">
<tspan dy="0em">420mm</tspan>
</textPath></text>
<path d="M219.48325717133807,1340.0 L222.48325717133807,1340.0" stroke="#999999" />
<text font-size="12" stroke="none" fill="#999999"><textPath xlink:href="#d44">
<tspan dy="0em">440mm</tspan>
</textPath></text>
<path d="M219.48325717133807,1320.0 L222.48325717133807,1320.0" stroke="#999999" />
<text font-size="12" stroke="none" fill="#999999"><textPath xlink:href="#d45">
<tspan dy="0em">460mm</tspan>
</textPath></text>
<path d="M219.48325717133804,1300.0 L222.48325717133804,1300.0" stroke="#999999" />
<text font-size="12" stroke="none" fill="#999999"><textPath xlink:href="#d46">
<tspan dy="0em">480mm</tspan>
</textPath></text>
<path d="M219.4832571713381,1280.0 L222.4832571713381,1280.0" stroke="#999999" />
<text font-size="12" stroke="none" fill="#999999"><textPath xlink:href="#d47">
<tspan dy="0em">500mm</tspan>
</textPath></text>
<path d="M219.48325717133804,1259.9999999999998 L222.48325717133804,1259.9999999999998" stroke="#999999" />
<text font-size="12" stroke="none" fill="#999999"><textPath xlink:href="#d48">
<tspan dy="0em">520mm</tspan>
</textPath></text>
<path d="M219.4832571713381,1240.0000000000002 L222.4832571713381,1240.0000000000002" stroke="#999999" />
<text font-size="12" stroke="none" fill="#999999"><textPath xlink:href="#d49">
<tspan dy="0em">540mm</tspan>
</textPath></text>
<path d="M219.48325717133807,1220.0 L222.48325717133807,1220.0" stroke="#999999" />
<text font-size="12" stroke="none" fill="#999999"><textPath xlink:href="#d50">
<tspan dy="0em">560mm</tspan>
</textPath></text>
<path d="M219.4832571713381,1200.0 L222.4832571713381,1200.0" stroke="#999999" />
<text font-size="12" stroke="none" fill="#999999"><textPath xlink:href="#d51">
<tspan dy="0em">580mm</tspan>
</textPath></text>
<path d="M219.48325717133807,1180.0 L222.48325717133807,1180.0" stroke="#999999" />
<text font-size="12" stroke="none" fill="#999999"><textPath xlink:href="#d52">
<tspan dy="0em">600mm</tspan>
</textPath></text>
<path d="M219.48325717133807,1160.0000000000002 L222.48325717133807,1160.0000000000002" stroke="#999999" />
<text font-size="12" stroke="none" fill="#999999"><textPath xlink:href="#d53">
<tspan dy="0em">620mm</tspan>
</textPath></text>
<path d="M219.48325717133804,1139.9999999999998 L222.48325717133804,1139.9999999999998" stroke="#999999" />
<text font-size="12" stroke="none" fill="#999999"><textPath xlink:href="#d54">
<tspan dy="0em">640mm</tspan>
</textPath></text>
<path d="M219.48325717133807,1120.0 L222.48325717133807,1120.0" stroke="#999999" />
<text font-size="12" stroke="none" fill="#999999"><textPath xlink:href="#d55">
<tspan dy="0em">660mm</tspan>
</textPath></text>
<path d="M219.48325717133807,1100.0 L222.48325717133807,1100.0" stroke="#999999" />
<text font-size="12" stroke="none" fill="#999999"><textPath xlink:href="#d56">
<tspan dy="0em">680mm</tspan>
</textPath></text>
<path d="M219.48325717133807,1080.0 L222.48325717133807,1080.0" stroke="#999999" />
<text font-size="12" stroke="none" fill="#999999"><textPath xlink:href="#d57">
<tspan dy="0em">700mm</tspan>
</textPath></text>
<path d="M219.48325717133807,1060.0 L222.48325717133807,1060.0" stroke="#999999" />
<text font-size="12" stroke="none" fill="#999999"><textPath xlink:href="#d58">
<tspan dy="0em">720mm</tspan>
</textPath></text>
<path d="M219.4832571713381,1040.0 L222.4832571713381,1040.0" stroke="#999999" />
<text font-size="12" stroke="none" fill="#999999"><textPath xlink:href="#d59">
<tspan dy="0em">740mm</tspan>
</textPath></text>
<path d="M219.48325717133807,1020.0 L222.48325717133807,1020.0" stroke="#999999" />
<text font-size="12" stroke="none" fill="#999999"><textPath xlink:href="#d60">
<tspan dy="0em">760mm</tspan>
</textPath></text>
<path d="M219.48325717133807,1000.0 L222.48325717133807,1000.0" stroke="#999999" />
<text font-size="12" stroke="none" fill="#999999"><textPath xlink:href="#d61">
<tspan dy="0em">780mm</tspan>
</textPath></text>
<path d="M219.48325717133807,980.0000000000001 L222.48325717133807,980.0000000000001" stroke="#999999" />
<text font-size="12" stroke="none" fill="#999999"><textPath xlink:href="#d62">
<tspan dy="0em">800mm</tspan>
</textPath></text>
<path d="M219.48325717133807,960.0 L222.48325717133807,960.0" stroke="#999999" />
<text font-size="12" stroke="none" fill="#999999"><textPath xlink:href="#d63">
<tspan dy="0em">820mm</tspan>
</textPath></text>
<path d="M219.4832571713381,940.0000000000001 L222.4832571713381,940.0000000000001" stroke="#999999" />
<text font-size="12" stroke="none" fill="#999999"><textPath xlink:href="#d64">
<tspan dy="0em">840mm</tspan>
</textPath></text>
<path d="M219.48325717133804,919.9999999999999 L222.48325717133804,919.9999999999999" stroke="#999999" />
<text font-size="12" stroke="none" fill="#999999"><textPath xlink:href="#d65">
<tspan dy="0em">860mm</tspan>
</textPath></text>
<path d="M219.4832571713381,900.0 L222.4832571713381,900.0" stroke="#999999" />
<text font-size="12" stroke="none" fill="#999999"><textPath xlink:href="#d66">
<tspan dy="0em">880mm</tspan>
</textPath></text>
<path d="M219.48325717133804,879.9999999999999 L222.48325717133804,879.9999999999999" stroke="#999999" />
<text font-size="12" stroke="none" fill="#999999"><textPath xlink:href="#d67">
<tspan dy="0em">900mm</tspan>
</textPath></text>
<path d="M219.48325717133807,860.0 L222.48325717133807,860.0" stroke="#999999" />
<text font-size="12" stroke="none" fill="#999999"><textPath xlink:href="#d68">
<tspan dy="0em">920mm</tspan>
</textPath></text>
<path d="M219.48325717133807,839.9999999999999 L222.48325717133807,839.9999999999999" stroke="#999999" />
<text font-size="12" stroke="none" fill="#999999"><textPath xlink:href="#d69">
<tspan dy="0em">940mm</tspan>
</textPath></text>
<path d="M219.48325717133807,819.9999999999999 L222.48325717133807,819.9999999999999" stroke="#999999" />
<text font-size="12" stroke="none" fill="#999999"><textPath xlink:href="#d70">
<tspan dy="0em">960mm</tspan>
</textPath></text>
<path d="M219.48325717133807,800.0 L222.48325717133807,800.0" stroke="#999999" />
<text font-size="12" stroke="none" fill="#999999"><textPath xlink:href="#d71">
<tspan dy="0em">980mm</tspan>
</textPath></text>
<path d="M219.48325717133807,779.9999999999999 L222.48325717133807,779.9999999999999" stroke="#999999" />
<text font-size="12" stroke="none" fill="#999999"><textPath xlink:href="#d72">
<tspan dy="0em">1000mm</tspan>
</textPath></text>
<path d="M219.48325717133807,760.0 L222.48325717133807,760.0" stroke="#999999" />
<text font-size="12" stroke="none" fill="#999999"><textPath xlink:href="#d73">
<tspan dy="0em">1020mm</tspan>
</textPath></text>
<path d="M219.48325717133807,739.9999999999999 L222.48325717133807,739.9999999999999" stroke="#999999" />
<text font-size="12" stroke="none" fill="#999999"><textPath xlink:href="#d74">
<tspan dy="0em">1040mm</tspan>
</textPath></text>
<path d="M219.48325717133807,720.0 L222.48325717133807,720.0" stroke="#999999" />
<text font-size="12" stroke="none" fill="#999999"><textPath xlink:href="#d75">
<tspan dy="0em">1060mm</tspan>
</textPath></text>
<path d="M219.48325717133804,700.0 L222.48325717133804,700.0" stroke="#999999" />
<text font-size="12" stroke="none" fill="#999999"><textPath xlink:href="#d76">
<tspan dy="0em">1080mm</tspan>
</textPath></text>
<path d="M219.48325717133804,680.0 L222.48325717133804,680.0" stroke="#999999" />
<text font-size="12" stroke="none" fill="#999999"><textPath xlink:href="#d77">
<tspan dy="0em">1100mm</tspan>
</textPath></text>
<path d="M219.4832571713381,660.0 L222.4832571713381,660.0" stroke="#999999" />
<text font-size="12" stroke="none" fill="#999999"><textPath xlink:href="#d78">
<tspan dy="0em">1120mm</tspan>
</textPath></text>
<path d="M219.4832571713381,640.0000000000001 L222.4832571713381,640.0000000000001" stroke="#999999" />
<text font-size="12" stroke="none" fill="#999999"><textPath xlink:href="#d79">
<tspan dy="0em">1140mm</tspan>
</textPath></text>
<path d="M219.48325717133807,620.0 L222.48325717133807,620.0" stroke="#999999" />
<text font-size="12" stroke="none" fill="#999999"><textPath xlink:href="#d80">
<tspan dy="0em">1160mm</tspan>
</textPath></text>
<path d="M219.48325717133807,600.0 L222.48325717133807,600.0" stroke="#999999" />
<text font-size="12" stroke="none" fill="#999999"><textPath xlink:href="#d81">
<tspan dy="0em">1180mm</tspan>
</textPath></text>
<path d="M219.48325717133807,580.0000000000001 L222.48325717133807,580.0000000000001" stroke="#999999" />
<text font-size="12" stroke="none" fill="#999999"><textPath xlink:href="#d82">
<tspan dy="0em">1200mm</tspan>
</textPath></text>
<path d="M219.48325717133807,560.0 L222.48325717133807,560.0" stroke="#999999" />
<text font-size="12" stroke="none" fill="#999999"><textPath xlink:href="#d83">
<tspan dy="0em">1220mm</tspan>
</textPath></text>
<path d="M219.48325717133804,540.0000000000001 L222.48325717133804,540.0000000000001" stroke="#999999" />
<text font-size="12" stroke="none" fill="#999999"><textPath xlink:href="#d84">
<tspan dy="0em">1240mm</tspan>
</textPath></text>
<path d="M219.48325717133804,520.0 L222.48325717133804,520.0" stroke="#999999" />
<text font-size="12" stroke="none" fill="#999999"><textPath xlink:href="#d85">
<tspan dy="0em">1260mm</tspan>
</textPath></text>
<path d="M219.4832571713381,500.0000000000001 L222.4832571713381,500.0000000000001" stroke="#999999" />
<text font-size="12" stroke="none" fill="#999999"><textPath xlink:href="#d86">
<tspan dy="0em">1280mm</tspan>
</textPath></text>
<path d="M219.48325717133804,479.9999999999999 L222.48325717133804,479.9999999999999" stroke="#999999" />
<text font-size="12" stroke="none" fill="#999999"><textPath xlink:href="#d87">
<tspan dy="0em">1300mm</tspan>
</textPath></text>
<path d="M219.4832571713381,459.9999999999999 L222.4832571713381,459.9999999999999" stroke="#999999" />
<text font-size="12" stroke="none" fill="#999999"><textPath xlink:href="#d88">
<tspan dy="0em">1320mm</tspan>
</textPath></text>
<path d="M219.48325717133807,439.9999999999999 L222.48325717133807,439.9999999999999" stroke="#999999" />
<text font-size="12" stroke="none" fill="#999999"><textPath xlink:href="#d89">
<tspan dy="0em">1340mm</tspan>
</textPath></text>
<path d="M219.48325717133807,419.99999999999994 L222.48325717133807,419.99999999999994" stroke="#999999" />
<text font-size="12" stroke="none" fill="#999999"><textPath xlink:href="#d90">
<tspan dy="0em">1360mm</tspan>
</textPath></text>
<path d="M219.48325717133807,399.99999999999994 L222.48325717133807,399.99999999999994" stroke="#999999" />
<text font-size="12" stroke="none" fill="#999999"><textPath xlink:href="#d91">
<tspan dy="0em">1380mm</tspan>
</textPath></text>
<path d="M219.48325717133807,379.99999999999994 L222.48325717133807,379.99999999999994" stroke="#999999" />
<text font-size="12" stroke="none" fill="#999999"><textPath xlink:href="#d92">
<tspan dy="0em">1400mm</tspan>
</textPath></text>
<path d="M219.48325717133807,359.99999999999994 L222.48325717133807,359.99999999999994" stroke="#999999" />
<text font-size="12" stroke="none" fill="#999999"><textPath xlink:href="#d93">
<tspan dy="0em">1420mm</tspan>
</textPath></text>
<path d="M219.48325717133807,340.0 L222.48325717133807,340.0" stroke="#999999" />
<text font-size="12" stroke="none" fill="#999999"><textPath xlink:href="#d94">
<tspan dy="0em">1440mm</tspan>
</textPath></text>
<path d="M219.48325717133804,320.0 L222.48325717133804,320.0" stroke="#999999" />
<text font-size="12" stroke="none" fill="#999999"><textPath xlink:href="#d95">
<tspan dy="0em">1460mm</tspan>
</textPath></text>
<path d="M219.4832571713381,300.0 L222.4832571713381,300.0" stroke="#999999" />
<text font-size="12" stroke="none" fill="#999999"><textPath xlink:href="#d96">
<tspan dy="0em">1480mm</tspan>
</textPath></text>
<path d="M219.48325717133807,280.0 L222.48325717133807,280.0" stroke="#999999" />
<text font-size="12" stroke="none" fill="#999999"><textPath xlink:href="#d97">
<tspan dy="0em">1500mm</tspan>
</textPath></text>
<path d="M219.48325717133807,260.00000000000006 L222.48325717133807,260.00000000000006" stroke="#999999" />
<text font-size="12" stroke="none" fill="#999999"><textPath xlink:href="#d98">
<tspan dy="0em">1520mm</tspan>
</textPath></text>
<path d="M219.48325717133807,240.00000000000003 L222.48325717133807,240.00000000000003" stroke="#999999" />
<text font-size="12" stroke="none" fill="#999999"><textPath xlink:href="#d99">
<tspan dy="0em">1540mm</tspan>
</textPath></text>
<path d="M219.48325717133807,220.00000000000003 L222.48325717133807,220.00000000000003" stroke="#999999" />
<text font-size="12" stroke="none" fill="#999999"><textPath xlink:href="#d100">
<tspan dy="0em">1560mm</tspan>
</textPath></text>
<path d="M219.48325717133807,200.00000000000006 L222.48325717133807,200.00000000000006" stroke="#999999" />
<text font-size="12" stroke="none" fill="#999999"><textPath xlink:href="#d101">
<tspan dy="0em">1580mm</tspan>
</textPath></text>
<path d="M219.48325717133807,180.00000000000006 L222.48325717133807,180.00000000000006" stroke="#999999" />
<text font-size="12" stroke="none" fill="#999999"><textPath xlink:href="#d102">
<tspan dy="0em">1600mm</tspan>
</textPath></text>
<path d="M219.48325717133804,160.00000000000009 L222.48325717133804,160.00000000000009" stroke="#999999" />
<text font-size="12" stroke="none" fill="#999999"><textPath xlink:href="#d103">
<tspan dy="0em">1620mm</tspan>
</textPath></text>
<path d="M219.48325717133807,140.00000000000009 L222.48325717133807,140.00000000000009" stroke="#999999" />
<text font-size="12" stroke="none" fill="#999999"><textPath xlink:href="#d104">
<tspan dy="0em">1640mm</tspan>
</textPath></text>
<path d="M219.48325717133807,120.0000000000001 L222.48325717133807,120.0000000000001" stroke="#999999" />
<text font-size="12" stroke="none" fill="#999999"><textPath xlink:href="#d105">
<tspan dy="0em">1660mm</tspan>
</textPath></text>
<path d="M219.48325717133807,99.99999999999991 L222.48325717133807,99.99999999999991" stroke="#999999" />
<text font-size="12" stroke="none" fill="#999999"><textPath xlink:href="#d106">
<tspan dy="0em">1680mm</tspan>
</textPath></text>
<path d="M219.48325717133807,79.99999999999991 L222.48325717133807,79.99999999999991" stroke="#999999" />
<text font-size="12" stroke="none" fill="#999999"><textPath xlink:href="#d107">
<tspan dy="0em">1700mm</tspan>
</textPath></text>
<path d="M219.48325717133807,59.99999999999993 L222.48325717133807,59.99999999999993" stroke="#999999" />
<text font-size="12" stroke="none" fill="#999999"><textPath xlink:href="#d108">
<tspan dy="0em">1720mm</tspan>
</textPath></text>
<path d="M219.48325717133807,39.99999999999994 L222.48325717133807,39.99999999999994" stroke="#999999" />
<text font-size="12" stroke="none" fill="#999999"><textPath xlink:href="#d109">
<tspan dy="0em">1740mm</tspan>
</textPath></text>
<path d="M219.48325717133807,19.99999999999995 L222.48325717133807,19.99999999999995" stroke="#999999" />
<text font-size="12" stroke="none" fill="#999999"><textPath xlink:href="#d110">
<tspan dy="0em">1760mm</tspan>
</textPath></text>
<path d="M219.48325717133807,-4.263256414560601e-14 L222.48325717133807,-4.263256414560601e-14" stroke="#999999" />
<text font-size="12" stroke="none" fill="#999999"><textPath xlink:href="#d111">
<tspan dy="0em">1780mm</tspan>
</textPath></text>
<path d="M219.48325717133807,-20.000000000000025 L222.48325717133807,-20.000000000000025" stroke="#999999" />
<text font-size="12" stroke="none" fill="#999999"><textPath xlink:href="#d112">
<tspan dy="0em">1800mm</tspan>
</textPath></text>
</g>
</svg>