<?xml version="1.0" encoding="UTF-8"?>
<svg xmlns="http://www.w3.org/2000/svg" xmlns:xlink="http://www.w3.org/1999/xlink"
     width="505.8199138250138" height="300" viewBox="-25.0 -175 505.8199138250138 300" stroke="black" fill="none">
<defs>
<marker markerWidth="15.2" markerHeight="8.0" viewBox="-1.0 -0.5 1.9 1.0" orient="auto" id="d0">
<path d="M-1.0,0.5 L-1.0,-0.5 L0.0,0 Z" fill="black" stroke="none" />
</marker>
<path d="M167.95272905355262,25.0 L167.75540189637977,18.720948047068664 L167.1641991850004,12.466676643569574 L166.1814541264215,6.2618685414275355 L164.81104516641574,0.13101128351452118 L163.05838068306798,-5.901699437494745 L160.93037764237778,-11.8124552684678 L158.43543430015455,-17.577929156507274 L155.58339705793898,-23.175367410171532 L152.3855216037541,-28.58267949789967 L148.85442849104737,-33.778525229247315 L145.00405333113153,-38.742398974868976 L140.84959179569375,-43.45471059286888 L136.4074396464215,-47.89686274214115 L131.69512802842158,-52.05132427757894 L126.73125428279992,-55.901699437494756 L121.53540855145226,-59.43279255020151 L116.12809646372413,-62.630668004386365 L110.53065821005988,-65.48270524660195 L104.7651843220204,-67.97764858882515 L98.85442849104737,-70.10565162951536 L92.82171777003809,-71.85831611286312 L86.69086051212507,-73.22872507286887 L80.48605240998305,-74.21147013144778 L75.0,-74.73005476749935" fill="none" stroke="black" id="d1" />
<marker markerWidth="15.2" markerHeight="8.0" viewBox="-1.0 -0.5 1.9 1.0" orient="auto" id="d2">
<path d="M-1.0,0.5 L-1.0,-0.5 L0.0,0 Z" fill="black" stroke="none" />
</marker>
<path d="M380.8199138250138,25.0 L380.622586667841,18.720948047068664 L380.0313839564616,12.466676643569574 L379.0486388978827,6.2618685414275355 L377.67822993787695,0.13101128351452118 L375.9255654545292,-5.901699437494745 L373.797562413839,-11.8124552684678 L371.30261907161577,-17.577929156507274 L368.4505818294002,-23.175367410171532 L365.2527063752153,-28.58267949789967 L361.7216132625086,-33.778525229247315 L357.87123810259277,-38.742398974868976 L353.71677656715497,-43.45471059286888 L349.2746244178827,-47.89686274214115 L347.9527290535526,-49.062270272493265" fill="none" stroke="black" id="d3" />
</defs>
<path d="M-25.0,125 L480.8199138250138,125" stroke="#dddddd" />
<path d="M-25.0,75 L480.8199138250138,75" stroke="#dddddd" stroke-dasharray="5" />
<path d="M-25.0,25 L480.8199138250138,25" stroke="#dddddd" stroke-dasharray="5" />
<path d="M-25.0,-25 L480.8199138250138,-25" stroke="#dddddd" stroke-dasharray="5" />
<path d="M-25.0,-75 L480.8199138250138,-75" stroke="#dddddd" stroke-dasharray="5" />
<path d="M-25.0,-125 L480.8199138250138,-125" stroke="#dddddd" />
<path d="M-25.0,125 L-25.0,-175" stroke="#dddddd" />
<path d="M25.0,125 L25.0,-175" stroke="#dddddd" stroke-dasharray="5" />
<path d="M75.0,125 L75.0,-175" stroke="#dddddd" stroke-dasharray="5" />
<path d="M125.0,125 L125.0,-175" stroke="#dddddd" stroke-dasharray="5" />
<path d="M175.0,125 L175.0,-175" stroke="#dddddd" stroke-dasharray="5" />
<path d="M225.0,125 L225.0,-175" stroke="#dddddd" />
<path d="M275.0,125 L275.0,-175" stroke="#dddddd" stroke-dasharray="5" />
<path d="M325.0,125 L325.0,-175" stroke="#dddddd" stroke-dasharray="5" />
<path d="M375.0,125 L375.0,-175" stroke="#dddddd" stroke-dasharray="5" />
<path d="M425.0,125 L425.0,-175" stroke="#dddddd" stroke-dasharray="5" />
<path d="M475.0,125 L475.0,-175" stroke="#dddddd" />
<g>
<g>
<circle cx="157.95272905355262" cy="-75" r="1" fill="black" />
<text x="159.95272905355262" y="-77" font-size="12" fill="#000000" stroke="none" dy="0em">P</text>
</g>
<g>
<circle cx="167.95272905355262" cy="25" r="1" fill="black" />
<text x="169.95272905355262" y="23" font-size="12" fill="#000000" stroke="none" dy="0em">Q</text>
</g>
<g>
<path d="M157.95272905355262,-75 L135.0855442820914,-49.062270272493265" fill="none" stroke="black" marker-end="url(#d0)" stroke-dasharray="3" />
</g>
<g>
<path d="M167.95272905355262,25.0 L167.75540189637977,18.720948047068664 L167.1641991850004,12.466676643569574 L166.1814541264215,6.2618685414275355 L164.81104516641574,0.13101128351452118 L163.05838068306798,-5.901699437494745 L160.93037764237778,-11.8124552684678 L158.43543430015455,-17.577929156507274 L155.58339705793898,-23.175367410171532 L152.3855216037541,-28.58267949789967 L148.85442849104737,-33.778525229247315 L145.00405333113153,-38.742398974868976 L140.84959179569375,-43.45471059286888 L136.4074396464215,-47.89686274214115 L131.69512802842158,-52.05132427757894 L126.73125428279992,-55.901699437494756 L121.53540855145226,-59.43279255020151 L116.12809646372413,-62.630668004386365 L110.53065821005988,-65.48270524660195 L104.7651843220204,-67.97764858882515 L98.85442849104737,-70.10565162951536 L92.82171777003809,-71.85831611286312 L86.69086051212507,-73.22872507286887 L80.48605240998305,-74.21147013144778 L75.0,-74.73005476749935" fill="none" stroke="black" />
<text font-size="12" stroke="none" fill="#000000"><textPath xlink:href="#d1" startOffset="10">
<tspan dy="-1em">Original</tspan>
</textPath></text>
</g>
</g>
<g>
<path d="M242.95272905355262,-75 L272.9527290535526,-75" fill="none" stroke="black" marker-end="url(#d2)" />
</g>
<g>
<g>
<path d="M380.8199138250138,25.0 L380.622586667841,18.720948047068664 L380.0313839564616,12.466676643569574 L379.0486388978827,6.2618685414275355 L377.67822993787695,0.13101128351452118 L375.9255654545292,-5.901699437494745 L373.797562413839,-11.8124552684678 L371.30261907161577,-17.577929156507274 L368.4505818294002,-23.175367410171532 L365.2527063752153,-28.58267949789967 L361.7216132625086,-33.778525229247315 L357.87123810259277,-38.742398974868976 L353.71677656715497,-43.45471059286888 L349.2746244178827,-47.89686274214115 L347.9527290535526,-49.062270272493265" fill="none" stroke="black" />
<text font-size="12" stroke="none" fill="#000000"><textPath xlink:href="#d3" startOffset="10">
<tspan dy="-1em">sliced</tspan>
</textPath></text>
</g>
<g>
<circle cx="380.8199138250138" cy="25.0" r="1" fill="black" />
</g>
<g>
<circle cx="380.622586667841" cy="18.720948047068664" r="1" fill="black" />
</g>
<g>
<circle cx="380.0313839564616" cy="12.466676643569574" r="1" fill="black" />
</g>
<g>
<circle cx="379.0486388978827" cy="6.2618685414275355" r="1" fill="black" />
</g>
<g>
<circle cx="377.67822993787695" cy="0.13101128351452118" r="1" fill="black" />
</g>
<g>
<circle cx="375.9255654545292" cy="-5.901699437494745" r="1" fill="black" />
</g>
<g>
<circle cx="373.797562413839" cy="-11.8124552684678" r="1" fill="black" />
</g>
<g>
<circle cx="371.30261907161577" cy="-17.577929156507274" r="1" fill="black" />
</g>
<g>
<circle cx="368.4505818294002" cy="-23.175367410171532" r="1" fill="black" />
</g>
<g>
<circle cx="365.2527063752153" cy="-28.58267949789967" r="1" fill="black" />
</g>
<g>
<circle cx="361.7216132625086" cy="-33.778525229247315" r="1" fill="black" />
</g>
<g>
<circle cx="357.87123810259277" cy="-38.742398974868976" r="1" fill="black" />
</g>
<g>
<circle cx="353.71677656715497" cy="-43.45471059286888" r="1" fill="black" />
</g>
<g>
<circle cx="349.2746244178827" cy="-47.89686274214115" r="1" fill="black" />
</g>
<g>
<circle cx="347.9527290535526" cy="-49.062270272493265" r="1" fill="black" />
</g>
<g>
<circle cx="370.8199138250138" cy="-75" r="1" fill="black" />
<text x="372.8199138250138" y="-77" font-size="12" fill="#000000" stroke="none" dy="0em">P</text>
</g>
<g>
<circle cx="380.8199138250138" cy="25" r="1" fill="black" />
<text x="382.8199138250138" y="23" font-size="12" fill="#000000" stroke="none" dy="0em">Q</text>
</g>
</g>
</svg>