<?xml version="1.0" encoding="UTF-8"?>
<svg xmlns="http://www.w3.org/2000/svg" xmlns:xlink="http://www.w3.org/1999/xlink"
     width="555.0" height="300" viewBox="-25 -175 555.0 300" stroke="black" fill="none">
<defs>
<marker markerWidth="15.2" markerHeight="8.0" viewBox="-1.0 -0.5 1.9 1.0" orient="auto" id="d0">
<path d="M-1.0,0.5 L-1.0,-0.5 L0.0,0 Z" fill="black" stroke="none" />
</marker>
</defs>
<path d="M-25,125 L530.0,125" stroke="#dddddd" />
<path d="M-25,75 L530.0,75" stroke="#dddddd" stroke-dasharray="5" />
<path d="M-25,25 L530.0,25" stroke="#dddddd" stroke-dasharray="5" />
<path d="M-25,-25 L530.0,-25" stroke="#dddddd" stroke-dasharray="5" />
<path d="M-25,-75 L530.0,-75" stroke="#dddddd" stroke-dasharray="5" />
<path d="M-25,-125 L530.0,-125" stroke="#dddddd" />
<path d="M-25.0,125 L-25.0,-175" stroke="#dddddd" />
<path d="M25.0,125 L25.0,-175" stroke="#dddddd" stroke-dasharray="5" />
<path d="M75.0,125 L75.0,-175" stroke="#dddddd" stroke-dasharray="5" />
<path d="M125.0,125 L125.0,-175" stroke="#dddddd" stroke-dasharray="5" />
<path d="M175.0,125 L175.0,-175" stroke="#dddddd" stroke-dasharray="5" />
<path d="M225.0,125 L225.0,-175" stroke="#dddddd" />
<path d="M275.0,125 L275.0,-175" stroke="#dddddd" stroke-dasharray="5" />
<path d="M325.0,125 L325.0,-175" stroke="#dddddd" stroke-dasharray="5" />
<path d="M375.0,125 L375.0,-175" stroke="#dddddd" stroke-dasharray="5" />
<path d="M425.0,125 L425.0,-175" stroke="#dddddd" stroke-dasharray="5" />
<path d="M475.0,125 L475.0,-175" stroke="#dddddd" />
<path d="M525.0,125 L525.0,-175" stroke="#dddddd" stroke-dasharray="5" />
<g>
<g>
<path d="M75,25 L175,25 L175,-75 L75,-75 L75,25" fill="#E6E6FA66" stroke="black" />
<text x="125.0" y="-25.0" font-size="12" stroke="none" fill="black" text-anchor="middle" dy="0em">a square</text>
</g>
<g>
<circle cx="100.0" cy="25.0" r="1" fill="black" />
<text x="102.0" y="23.0" font-size="12" fill="#000000" stroke="none" dy="0em">P</text>
</g>
<g>
<circle cx="175.0" cy="-50.0" r="1" fill="black" />
<text x="177.0" y="-52.0" font-size="12" fill="#000000" stroke="none" dy="0em">Q</text>
</g>
</g>
<g>
<path d="M250,-75 L280,-75" fill="none" stroke="black" marker-end="url(#d0)" />
</g>
<g>
<g>
<path d="M355.0,-0.0 L430.0,-0.0 L430.0,-75.0" fill="none" stroke="black" />
</g>
<g>
<circle cx="355.0" cy="-0.0" r="1" fill="black" />
<text x="357.0" y="-2.0" font-size="12" fill="#000000" stroke="none" dy="0em">P</text>
</g>
<g>
<circle cx="430.0" cy="-75.0" r="1" fill="black" />
<text x="432.0" y="-77.0" font-size="12" fill="#000000" stroke="none" dy="0em">Q</text>
</g>
</g>
</svg>