<?xml version="1.0" encoding="UTF-8"?>
<svg xmlns="http://www.w3.org/2000/svg" xmlns:xlink="http://www.w3.org/1999/xlink"
     width="509.87999999999994" height="1203.3" viewBox="-100 -1103.3 509.87999999999994 1203.3" stroke="black" fill="none">
<defs>
<marker markerWidth="15.2" markerHeight="8.0" viewBox="-1.0 -0.5 1.9 1.0" orient="auto" id="d0">
<path d="M-1.0,0.5 L-1.0,-0.5 L0.0,0 Z" fill="black" stroke="none" />
</marker>
<marker markerWidth="15.2" markerHeight="8.0" viewBox="-1.0 -0.5 1.9 1.0" orient="auto" id="d1">
<path d="M-1.0,0.5 L-1.0,-0.5 L0.0,0 Z" fill="black" stroke="none" />
</marker>
<marker markerWidth="15.2" markerHeight="8.0" viewBox="-1.0 -0.5 1.9 1.0" orient="auto" id="d2">
<path d="M-1.0,0.5 L-1.0,-0.5 L0.0,0 Z" fill="black" stroke="none" />
</marker>
<marker markerWidth="15.2" markerHeight="8.0" viewBox="-1.0 -0.5 1.9 1.0" orient="auto" id="d3">
<path d="M-1.0,0.5 L-1.0,-0.5 L0.0,0 Z" fill="black" stroke="none" />
</marker>
<marker markerWidth="15.2" markerHeight="8.0" viewBox="-1.0 -0.5 1.9 1.0" orient="auto" id="d4">
<path d="M-1.0,0.5 L-1.0,-0.5 L0.0,0 Z" fill="black" stroke="none" />
</marker>
<marker markerWidth="15.2" markerHeight="8.0" viewBox="-1.0 -0.5 1.9 1.0" orient="auto" id="d5">
<path d="M-1.0,0.5 L-1.0,-0.5 L0.0,0 Z" fill="black" stroke="none" />
</marker>
<marker markerWidth="15.2" markerHeight="8.0" viewBox="-1.0 -0.5 1.9 1.0" orient="auto" id="d6">
<path d="M-1.0,0.5 L-1.0,-0.5 L0.0,0 Z" fill="black" stroke="none" />
</marker>
<marker markerWidth="15.2" markerHeight="8.0" viewBox="-1.0 -0.5 1.9 1.0" orient="auto" id="d7">
<path d="M-1.0,0.5 L-1.0,-0.5 L0.0,0 Z" fill="black" stroke="none" />
</marker>
<marker markerWidth="15.2" markerHeight="8.0" viewBox="-1.0 -0.5 1.9 1.0" orient="auto" id="d8">
<path d="M-1.0,0.5 L-1.0,-0.5 L0.0,0 Z" fill="black" stroke="none" />
</marker>
<marker markerWidth="15.2" markerHeight="8.0" viewBox="-1.0 -0.5 1.9 1.0" orient="auto" id="d9">
<path d="M-1.0,0.5 L-1.0,-0.5 L0.0,0 Z" fill="black" stroke="none" />
</marker>
<marker markerWidth="15.2" markerHeight="8.0" viewBox="-1.0 -0.5 1.9 1.0" orient="auto" id="d10">
<path d="M-1.0,0.5 L-1.0,-0.5 L0.0,0 Z" fill="black" stroke="none" />
</marker>
<marker markerWidth="15.2" markerHeight="8.0" viewBox="-1.0 -0.5 1.9 1.0" orient="auto" id="d11">
<path d="M-1.0,0.5 L-1.0,-0.5 L0.0,0 Z" fill="black" stroke="none" />
</marker>
<marker markerWidth="15.2" markerHeight="8.0" viewBox="-1.0 -0.5 1.9 1.0" orient="auto" id="d12">
<path d="M-1.0,0.5 L-1.0,-0.5 L0.0,0 Z" fill="black" stroke="none" />
</marker>
<marker markerWidth="15.2" markerHeight="8.0" viewBox="-1.0 -0.5 1.9 1.0" orient="auto" id="d13">
<path d="M-1.0,0.5 L-1.0,-0.5 L0.0,0 Z" fill="black" stroke="none" />
</marker>
<marker markerWidth="15.2" markerHeight="8.0" viewBox="-1.0 -0.5 1.9 1.0" orient="auto" id="d14">
<path d="M-1.0,0.5 L-1.0,-0.5 L0.0,0 Z" fill="black" stroke="none" />
</marker>
<marker markerWidth="15.2" markerHeight="8.0" viewBox="-1.0 -0.5 1.9 1.0" orient="auto" id="d15">
<path d="M-1.0,0.5 L-1.0,-0.5 L0.0,0 Z" fill="black" stroke="none" />
</marker>
<marker markerWidth="15.2" markerHeight="8.0" viewBox="-1.0 -0.5 1.9 1.0" orient="auto" id="d16">
<path d="M-1.0,0.5 L-1.0,-0.5 L0.0,0 Z" fill="black" stroke="none" />
</marker>
<marker markerWidth="15.2" markerHeight="8.0" viewBox="-1.0 -0.5 1.9 1.0" orient="auto" id="d17">
<path d="M-1.0,0.5 L-1.0,-0.5 L0.0,0 Z" fill="black" stroke="none" />
</marker>
<marker markerWidth="15.2" markerHeight="8.0" viewBox="-1.0 -0.5 1.9 1.0" orient="auto" id="d18">
<path d="M-1.0,0.5 L-1.0,-0.5 L0.0,0 Z" fill="black" stroke="none" />
</marker>
<marker markerWidth="15.2" markerHeight="8.0" viewBox="-1.0 -0.5 1.9 1.0" orient="auto" id="d19">
<path d="M-1.0,0.5 L-1.0,-0.5 L0.0,0 Z" fill="black" stroke="none" />
</marker>
<marker markerWidth="15.2" markerHeight="8.0" viewBox="-1.0 -0.5 1.9 1.0" orient="auto" id="d20">
<path d="M-1.0,0.5 L-1.0,-0.5 L0.0,0 Z" fill="black" stroke="none" />
</marker>
<marker markerWidth="15.2" markerHeight="8.0" viewBox="-1.0 -0.5 1.9 1.0" orient="auto" id="d21">
<path d="M-1.0,0.5 L-1.0,-0.5 L0.0,0 Z" fill="black" stroke="none" />
</marker>
<marker markerWidth="15.2" markerHeight="8.0" viewBox="-1.0 -0.5 1.9 1.0" orient="auto" id="d22">
<path d="M-1.0,0.5 L-1.0,-0.5 L0.0,0 Z" fill="black" stroke="none" />
</marker>
<marker markerWidth="15.2" markerHeight="8.0" viewBox="-1.0 -0.5 1.9 1.0" orient="auto" id="d23">
<path d="M-1.0,0.5 L-1.0,-0.5 L0.0,0 Z" fill="black" stroke="none" />
</marker>
<marker markerWidth="15.2" markerHeight="8.0" viewBox="-1.0 -0.5 1.9 1.0" orient="auto" id="d24">
<path d="M-1.0,0.5 L-1.0,-0.5 L0.0,0 Z" fill="black" stroke="none" />
</marker>
<marker markerWidth="15.2" markerHeight="8.0" viewBox="-1.0 -0.5 1.9 1.0" orient="auto" id="d25">
<path d="M-1.0,0.5 L-1.0,-0.5 L0.0,0 Z" fill="black" stroke="none" />
</marker>
<marker markerWidth="15.2" markerHeight="8.0" viewBox="-1.0 -0.5 1.9 1.0" orient="auto" id="d26">
<path d="M-1.0,0.5 L-1.0,-0.5 L0.0,0 Z" fill="black" stroke="none" />
</marker>
<marker markerWidth="15.2" markerHeight="8.0" viewBox="-1.0 -0.5 1.9 1.0" orient="auto" id="d27">
<path d="M-1.0,0.5 L-1.0,-0.5 L0.0,0 Z" fill="black" stroke="none" />
</marker>
<marker markerWidth="15.2" markerHeight="8.0" viewBox="-1.0 -0.5 1.9 1.0" orient="auto" id="d28">
<path d="M-1.0,0.5 L-1.0,-0.5 L0.0,0 Z" fill="black" stroke="none" />
</marker>
<marker markerWidth="15.2" markerHeight="8.0" viewBox="-1.0 -0.5 1.9 1.0" orient="auto" id="d29">
<path d="M-1.0,0.5 L-1.0,-0.5 L0.0,0 Z" fill="black" stroke="none" />
</marker>
<marker markerWidth="15.2" markerHeight="8.0" viewBox="-1.0 -0.5 1.9 1.0" orient="auto" id="d30">
<path d="M-1.0,0.5 L-1.0,-0.5 L0.0,0 Z" fill="black" stroke="none" />
</marker>
<marker markerWidth="15.2" markerHeight="8.0" viewBox="-1.0 -0.5 1.9 1.0" orient="auto" id="d31">
<path d="M-1.0,0.5 L-1.0,-0.5 L0.0,0 Z" fill="black" stroke="none" />
</marker>
<marker markerWidth="15.2" markerHeight="8.0" viewBox="-1.0 -0.5 1.9 1.0" orient="auto" id="d32">
<path d="M-1.0,0.5 L-1.0,-0.5 L0.0,0 Z" fill="black" stroke="none" />
</marker>
<marker markerWidth="15.2" markerHeight="8.0" viewBox="-1.0 -0.5 1.9 1.0" orient="auto" id="d33">
<path d="M-1.0,0.5 L-1.0,-0.5 L0.0,0 Z" fill="black" stroke="none" />
</marker>
<marker markerWidth="15.2" markerHeight="8.0" viewBox="-1.0 -0.5 1.9 1.0" orient="auto" id="d34">
<path d="M-1.0,0.5 L-1.0,-0.5 L0.0,0 Z" fill="black" stroke="none" />
</marker>
<marker markerWidth="15.2" markerHeight="8.0" viewBox="-1.0 -0.5 1.9 1.0" orient="auto" id="d35">
<path d="M-1.0,0.5 L-1.0,-0.5 L0.0,0 Z" fill="black" stroke="none" />
</marker>
<marker markerWidth="15.2" markerHeight="8.0" viewBox="-1.0 -0.5 1.9 1.0" orient="auto" id="d36">
<path d="M-1.0,0.5 L-1.0,-0.5 L0.0,0 Z" fill="black" stroke="none" />
</marker>
<marker markerWidth="15.2" markerHeight="8.0" viewBox="-1.0 -0.5 1.9 1.0" orient="auto" id="d37">
<path d="M-1.0,0.5 L-1.0,-0.5 L0.0,0 Z" fill="black" stroke="none" />
</marker>
<marker markerWidth="15.2" markerHeight="8.0" viewBox="-1.0 -0.5 1.9 1.0" orient="auto" id="d38">
<path d="M-1.0,0.5 L-1.0,-0.5 L0.0,0 Z" fill="black" stroke="none" />
</marker>
<marker markerWidth="15.2" markerHeight="8.0" viewBox="-1.0 -0.5 1.9 1.0" orient="auto" id="d39">
<path d="M-1.0,0.5 L-1.0,-0.5 L0.0,0 Z" fill="black" stroke="none" />
</marker>
<marker markerWidth="15.2" markerHeight="8.0" viewBox="-1.0 -0.5 1.9 1.0" orient="auto" id="d40">
<path d="M-1.0,0.5 L-1.0,-0.5 L0.0,0 Z" fill="black" stroke="none" />
</marker>
<marker markerWidth="15.2" markerHeight="8.0" viewBox="-1.0 -0.5 1.9 1.0" orient="auto" id="d41">
<path d="M-1.0,0.5 L-1.0,-0.5 L0.0,0 Z" fill="black" stroke="none" />
</marker>
<marker markerWidth="15.2" markerHeight="8.0" viewBox="-1.0 -0.5 1.9 1.0" orient="auto" id="d42">
<path d="M-1.0,0.5 L-1.0,-0.5 L0.0,0 Z" fill="black" stroke="none" />
</marker>
<marker markerWidth="15.2" markerHeight="8.0" viewBox="-1.0 -0.5 1.9 1.0" orient="auto" id="d43">
<path d="M-1.0,0.5 L-1.0,-0.5 L0.0,0 Z" fill="black" stroke="none" />
</marker>
</defs>
<g>
<path d="M264.15999999999997,-1003.3 L264.15999999999997,-977.9 L261.62,-952.5 L261.62,-927.1 L259.08,-901.7 L256.53999999999996,-876.3000000000001 L248.92000000000002,-850.9000000000001 L241.29999999999998,-825.5000000000001 L231.14,-800.1000000000001 L220.97999999999996,-774.7000000000002 L210.82,-749.3000000000002 L208.27999999999997,-723.9000000000002 L210.82,-698.5000000000002 L215.89999999999998,-673.1000000000003 L220.97999999999996,-647.7000000000003 L233.67999999999998,-622.3000000000003 L246.37999999999997,-596.9000000000003 L259.08,-571.5000000000003 L271.78,-546.1000000000004 L281.94,-520.7000000000004 L292.09999999999997,-495.3000000000004 L297.17999999999995,-469.90000000000043 L297.17999999999995,-444.50000000000045 L299.72,-419.1000000000005 L299.72,-393.7000000000005 L299.72,-368.3000000000005 L302.26,-342.90000000000055 L304.79999999999995,-317.50000000000057 L304.79999999999995,-292.1000000000006 L304.79999999999995,-266.7000000000006 L304.79999999999995,-241.3000000000006 L304.79999999999995,-215.9000000000006 L304.79999999999995,-190.5000000000006 L304.79999999999995,-165.1000000000006 L307.34,-139.70000000000059 L307.34,-114.30000000000058 L309.87999999999994,-88.90000000000057 L309.87999999999994,-63.500000000000576 L309.87999999999994,-38.10000000000058 L309.87999999999994,-12.700000000000578 L309.87999999999994,0 L0,0 L0,-1003.3 L264.15999999999997,-1003.3" fill="#E6E6FA" stroke="black" />
<text x="139.89098552205968" y="-494.50575205817455" font-size="12" stroke="none" fill="black" text-anchor="middle" dy="0em">Die Lemma Dress Block</text>
</g>
<g>
<path d="M239.15999999999997,-1003.3 L239.1599999999998,-979.1468905280252 L236.6199999999994,-953.7468905280169 L236.6200000000008,-928.3468905280114 L234.20407024474807,-904.1875929755041 L231.90334955693444,-881.1803860973687 L224.97434286946716,-858.0836971391461 L217.6744070179067,-833.7505776339462 L207.92808272785948,-809.3847669088289 L197.7680827278671,-783.9847669088515 L186.29568927481574,-755.3037832762187 L183.15531094719748,-723.8999999999941 L186.06571946236164,-694.7959148483632 L191.38548310772757,-668.1970966215458 L197.12207053255872,-639.5141594973843 L211.31932022500274,-611.1196601125004 L224.01932022499642,-585.7196601125121 L236.71932022500354,-560.3196601124979 L248.95427869663018,-535.8497431692458 L258.728082727869,-511.415233091148 L268.0356288997452,-488.1463676614547 L272.17999999999773,-467.4245121601902 L272.18000000000035,-443.25310947197147 L274.7200000000003,-417.8531094719779 L274.7200000000005,-393.70000000001164 L274.7199999999999,-367.0531094719815 L277.3840702447495,-340.4124070244834 L279.7999999999993,-316.2531094719797 L279.8000000000002,-292.1000000000058 L279.7999999999996,-266.6999999999971 L279.79999999999984,-241.29999999998836 L279.8000000000002,-215.90000000000876 L279.79999999999984,-190.5 L279.8000000000001,-163.85310947197587 L282.3400000000001,-138.453109471975 L282.34,-113.05310947198006 L284.87999999999994,-87.65310947197918 L284.87999999999994,-63.5 L284.88,-38.100000000000364 L284.87999999999994,-12.700000000000728 L284.87999999999994,-24.99999999999979 L25.000000000000007,-25.0 L25.000000000000004,-978.2999999999997 L264.15999999999997,-978.3" fill="none" stroke="black" />
</g>
<g>
<path d="M264.15999999999997,-1003.3 L239.15999999999997,-1003.3" fill="none" stroke="black" marker-end="url(#d0)" stroke-dasharray="3" />
</g>
<g>
<path d="M264.15999999999997,-977.9 L239.1599999999998,-979.1468905280252" fill="none" stroke="black" marker-end="url(#d1)" stroke-dasharray="3" />
</g>
<g>
<path d="M261.62,-952.5 L236.6199999999994,-953.7468905280169" fill="none" stroke="black" marker-end="url(#d2)" stroke-dasharray="3" />
</g>
<g>
<path d="M261.62,-927.1 L236.6200000000008,-928.3468905280114" fill="none" stroke="black" marker-end="url(#d3)" stroke-dasharray="3" />
</g>
<g>
<path d="M259.08,-901.7 L234.20407024474807,-904.1875929755041" fill="none" stroke="black" marker-end="url(#d4)" stroke-dasharray="3" />
</g>
<g>
<path d="M256.53999999999996,-876.3000000000001 L231.90334955693444,-881.1803860973687" fill="none" stroke="black" marker-end="url(#d5)" stroke-dasharray="3" />
</g>
<g>
<path d="M248.92000000000002,-850.9000000000001 L224.97434286946716,-858.0836971391461" fill="none" stroke="black" marker-end="url(#d6)" stroke-dasharray="3" />
</g>
<g>
<path d="M241.29999999999998,-825.5000000000001 L217.6744070179067,-833.7505776339462" fill="none" stroke="black" marker-end="url(#d7)" stroke-dasharray="3" />
</g>
<g>
<path d="M231.14,-800.1000000000001 L207.92808272785948,-809.3847669088289" fill="none" stroke="black" marker-end="url(#d8)" stroke-dasharray="3" />
</g>
<g>
<path d="M220.97999999999996,-774.7000000000002 L197.7680827278671,-783.9847669088515" fill="none" stroke="black" marker-end="url(#d9)" stroke-dasharray="3" />
</g>
<g>
<path d="M210.82,-749.3000000000002 L186.29568927481574,-755.3037832762187" fill="none" stroke="black" marker-end="url(#d10)" stroke-dasharray="3" />
</g>
<g>
<path d="M208.27999999999997,-723.9000000000002 L183.15531094719748,-723.8999999999941" fill="none" stroke="black" marker-end="url(#d11)" stroke-dasharray="3" />
</g>
<g>
<path d="M210.82,-698.5000000000002 L186.06571946236164,-694.7959148483632" fill="none" stroke="black" marker-end="url(#d12)" stroke-dasharray="3" />
</g>
<g>
<path d="M215.89999999999998,-673.1000000000003 L191.38548310772757,-668.1970966215458" fill="none" stroke="black" marker-end="url(#d13)" stroke-dasharray="3" />
</g>
<g>
<path d="M220.97999999999996,-647.7000000000003 L197.12207053255872,-639.5141594973843" fill="none" stroke="black" marker-end="url(#d14)" stroke-dasharray="3" />
</g>
<g>
<path d="M233.67999999999998,-622.3000000000003 L211.31932022500274,-611.1196601125004" fill="none" stroke="black" marker-end="url(#d15)" stroke-dasharray="3" />
</g>
<g>
<path d="M246.37999999999997,-596.9000000000003 L224.01932022499642,-585.7196601125121" fill="none" stroke="black" marker-end="url(#d16)" stroke-dasharray="3" />
</g>
<g>
<path d="M259.08,-571.5000000000003 L236.71932022500354,-560.3196601124979" fill="none" stroke="black" marker-end="url(#d17)" stroke-dasharray="3" />
</g>
<g>
<path d="M271.78,-546.1000000000004 L248.95427869663018,-535.8497431692458" fill="none" stroke="black" marker-end="url(#d18)" stroke-dasharray="3" />
</g>
<g>
<path d="M281.94,-520.7000000000004 L258.728082727869,-511.415233091148" fill="none" stroke="black" marker-end="url(#d19)" stroke-dasharray="3" />
</g>
<g>
<path d="M292.09999999999997,-495.3000000000004 L268.0356288997452,-488.1463676614547" fill="none" stroke="black" marker-end="url(#d20)" stroke-dasharray="3" />
</g>
<g>
<path d="M297.17999999999995,-469.90000000000043 L272.17999999999773,-467.4245121601902" fill="none" stroke="black" marker-end="url(#d21)" stroke-dasharray="3" />
</g>
<g>
<path d="M297.17999999999995,-444.50000000000045 L272.18000000000035,-443.25310947197147" fill="none" stroke="black" marker-end="url(#d22)" stroke-dasharray="3" />
</g>
<g>
<path d="M299.72,-419.1000000000005 L274.7200000000003,-417.8531094719779" fill="none" stroke="black" marker-end="url(#d23)" stroke-dasharray="3" />
</g>
<g>
<path d="M299.72,-393.7000000000005 L274.7200000000005,-393.70000000001164" fill="none" stroke="black" marker-end="url(#d24)" stroke-dasharray="3" />
</g>
<g>
<path d="M299.72,-368.3000000000005 L274.7199999999999,-367.0531094719815" fill="none" stroke="black" marker-end="url(#d25)" stroke-dasharray="3" />
</g>
<g>
<path d="M302.26,-342.90000000000055 L277.3840702447495,-340.4124070244834" fill="none" stroke="black" marker-end="url(#d26)" stroke-dasharray="3" />
</g>
<g>
<path d="M304.79999999999995,-317.50000000000057 L279.7999999999993,-316.2531094719797" fill="none" stroke="black" marker-end="url(#d27)" stroke-dasharray="3" />
</g>
<g>
<path d="M304.79999999999995,-292.1000000000006 L279.8000000000002,-292.1000000000058" fill="none" stroke="black" marker-end="url(#d28)" stroke-dasharray="3" />
</g>
<g>
<path d="M304.79999999999995,-266.7000000000006 L279.7999999999996,-266.6999999999971" fill="none" stroke="black" marker-end="url(#d29)" stroke-dasharray="3" />
</g>
<g>
<path d="M304.79999999999995,-241.3000000000006 L279.79999999999984,-241.29999999998836" fill="none" stroke="black" marker-end="url(#d30)" stroke-dasharray="3" />
</g>
<g>
<path d="M304.79999999999995,-215.9000000000006 L279.8000000000002,-215.90000000000876" fill="none" stroke="black" marker-end="url(#d31)" stroke-dasharray="3" />
</g>
<g>
<path d="M304.79999999999995,-190.5000000000006 L279.79999999999984,-190.5" fill="none" stroke="black" marker-end="url(#d32)" stroke-dasharray="3" />
</g>
<g>
<path d="M304.79999999999995,-165.1000000000006 L279.8000000000001,-163.85310947197587" fill="none" stroke="black" marker-end="url(#d33)" stroke-dasharray="3" />
</g>
<g>
<path d="M307.34,-139.70000000000059 L282.3400000000001,-138.453109471975" fill="none" stroke="black" marker-end="url(#d34)" stroke-dasharray="3" />
</g>
<g>
<path d="M307.34,-114.30000000000058 L282.34,-113.05310947198006" fill="none" stroke="black" marker-end="url(#d35)" stroke-dasharray="3" />
</g>
<g>
<path d="M309.87999999999994,-88.90000000000057 L284.87999999999994,-87.65310947197918" fill="none" stroke="black" marker-end="url(#d36)" stroke-dasharray="3" />
</g>
<g>
<path d="M309.87999999999994,-63.500000000000576 L284.87999999999994,-63.5" fill="none" stroke="black" marker-end="url(#d37)" stroke-dasharray="3" />
</g>
<g>
<path d="M309.87999999999994,-38.10000000000058 L284.88,-38.100000000000364" fill="none" stroke="black" marker-end="url(#d38)" stroke-dasharray="3" />
</g>
<g>
<path d="M309.87999999999994,-12.700000000000578 L284.87999999999994,-12.700000000000728" fill="none" stroke="black" marker-end="url(#d39)" stroke-dasharray="3" />
</g>
<g>
<path d="M309.87999999999994,0 L284.87999999999994,-24.99999999999979" fill="none" stroke="black" marker-end="url(#d40)" stroke-dasharray="3" />
</g>
<g>
<path d="M0,0 L25.000000000000007,-25.0" fill="none" stroke="black" marker-end="url(#d41)" stroke-dasharray="3" />
</g>
<g>
<path d="M0,-1003.3 L25.000000000000004,-978.2999999999997" fill="none" stroke="black" marker-end="url(#d42)" stroke-dasharray="3" />
</g>
<g>
<path d="M264.15999999999997,-1003.3 L264.15999999999997,-978.3" fill="none" stroke="black" marker-end="url(#d43)" stroke-dasharray="3" />
</g>
<g>
<circle cx="264.15999999999997" cy="-1003.3" r="1" fill="black" />
</g>
<g>
<circle cx="264.15999999999997" cy="-977.9" r="1" fill="black" />
</g>
<g>
<circle cx="261.62" cy="-952.5" r="1" fill="black" />
</g>
<g>
<circle cx="261.62" cy="-927.1" r="1" fill="black" />
</g>
<g>
<circle cx="259.08" cy="-901.7" r="1" fill="black" />
</g>
<g>
<circle cx="256.53999999999996" cy="-876.3000000000001" r="1" fill="black" />
</g>
<g>
<circle cx="248.92000000000002" cy="-850.9000000000001" r="1" fill="black" />
</g>
<g>
<circle cx="241.29999999999998" cy="-825.5000000000001" r="1" fill="black" />
</g>
<g>
<circle cx="231.14" cy="-800.1000000000001" r="1" fill="black" />
</g>
<g>
<circle cx="220.97999999999996" cy="-774.7000000000002" r="1" fill="black" />
</g>
<g>
<circle cx="210.82" cy="-749.3000000000002" r="1" fill="black" />
</g>
<g>
<circle cx="208.27999999999997" cy="-723.9000000000002" r="1" fill="black" />
</g>
<g>
<circle cx="210.82" cy="-698.5000000000002" r="1" fill="black" />
</g>
<g>
<circle cx="215.89999999999998" cy="-673.1000000000003" r="1" fill="black" />
</g>
<g>
<circle cx="220.97999999999996" cy="-647.7000000000003" r="1" fill="black" />
</g>
<g>
<circle cx="233.67999999999998" cy="-622.3000000000003" r="1" fill="black" />
</g>
<g>
<circle cx="246.37999999999997" cy="-596.9000000000003" r="1" fill="black" />
</g>
<g>
<circle cx="259.08" cy="-571.5000000000003" r="1" fill="black" />
</g>
<g>
<circle cx="271.78" cy="-546.1000000000004" r="1" fill="black" />
</g>
<g>
<circle cx="281.94" cy="-520.7000000000004" r="1" fill="black" />
</g>
<g>
<circle cx="292.09999999999997" cy="-495.3000000000004" r="1" fill="black" />
</g>
<g>
<circle cx="297.17999999999995" cy="-469.90000000000043" r="1" fill="black" />
</g>
<g>
<circle cx="297.17999999999995" cy="-444.50000000000045" r="1" fill="black" />
</g>
<g>
<circle cx="299.72" cy="-419.1000000000005" r="1" fill="black" />
</g>
<g>
<circle cx="299.72" cy="-393.7000000000005" r="1" fill="black" />
</g>
<g>
<circle cx="299.72" cy="-368.3000000000005" r="1" fill="black" />
</g>
<g>
<circle cx="302.26" cy="-342.90000000000055" r="1" fill="black" />
</g>
<g>
<circle cx="304.79999999999995" cy="-317.50000000000057" r="1" fill="black" />
</g>
<g>
<circle cx="304.79999999999995" cy="-292.1000000000006" r="1" fill="black" />
</g>
<g>
<circle cx="304.79999999999995" cy="-266.7000000000006" r="1" fill="black" />
</g>
<g>
<circle cx="304.79999999999995" cy="-241.3000000000006" r="1" fill="black" />
</g>
<g>
<circle cx="304.79999999999995" cy="-215.9000000000006" r="1" fill="black" />
</g>
<g>
<circle cx="304.79999999999995" cy="-190.5000000000006" r="1" fill="black" />
</g>
<g>
<circle cx="304.79999999999995" cy="-165.1000000000006" r="1" fill="black" />
</g>
<g>
<circle cx="307.34" cy="-139.70000000000059" r="1" fill="black" />
</g>
<g>
<circle cx="307.34" cy="-114.30000000000058" r="1" fill="black" />
</g>
<g>
<circle cx="309.87999999999994" cy="-88.90000000000057" r="1" fill="black" />
</g>
<g>
<circle cx="309.87999999999994" cy="-63.500000000000576" r="1" fill="black" />
</g>
<g>
<circle cx="309.87999999999994" cy="-38.10000000000058" r="1" fill="black" />
</g>
<g>
<circle cx="309.87999999999994" cy="-12.700000000000578" r="1" fill="black" />
</g>
<g>
<circle cx="309.87999999999994" cy="0" r="1" fill="black" />
</g>
<g>
<circle cx="0" cy="0" r="1" fill="black" />
</g>
<g>
<circle cx="0" cy="-1003.3" r="1" fill="black" />
</g>
<g>
<circle cx="264.15999999999997" cy="-1003.3" r="1" fill="black" />
</g>
</svg>