<?xml version="1.0" encoding="UTF-8"?>
<svg xmlns="http://www.w3.org/2000/svg" xmlns:xlink="http://www.w3.org/1999/xlink"
     width="475" height="475" viewBox="-100 -375 475 475" stroke="black" fill="none">
<defs>
</defs>
<path d="M-100,100 L375,100" stroke="#dddddd" />
<path d="M-100,-110 L375,-110" stroke="#dddddd" />
<path d="M-100,-320 L375,-320" stroke="#dddddd" />
<path d="M-100,100 L-100,-375" stroke="#dddddd" />
<path d="M197,100 L197,-375" stroke="#dddddd" />
<text x="48.5" y="-5.0" font-size="10" stroke="none" fill="#dddddd" dy="0em">α0</text>
<text x="48.5" y="-215.0" font-size="10" stroke="none" fill="#dddddd" dy="0em">α1</text>
<text x="345.5" y="-5.0" font-size="10" stroke="none" fill="#dddddd" dy="0em">β0</text>
<text x="345.5" y="-215.0" font-size="10" stroke="none" fill="#dddddd" dy="0em">β1</text>
<path d="M-100,100 L375,100" stroke="#ffcccc66" stroke-dasharray="5" />
<text x="-99" y="98" font-size="8" stroke="none" fill="#ffcccc66" dy="0em">-100mm</text>
<path d="M-100,50 L375,50" stroke="#ffcccc66" stroke-dasharray="5" />
<text x="-99" y="48" font-size="8" stroke="none" fill="#ffcccc66" dy="0em">-50mm</text>
<path d="M-100,0 L375,0" stroke="#ffcccc66" stroke-dasharray="5" />
<text x="-99" y="-2" font-size="8" stroke="none" fill="#ffcccc66" dy="0em">0mm</text>
<path d="M-100,-50 L375,-50" stroke="#ffcccc66" stroke-dasharray="5" />
<text x="-99" y="-52" font-size="8" stroke="none" fill="#ffcccc66" dy="0em">50mm</text>
<path d="M-100,-100 L375,-100" stroke="#ffcccc66" stroke-dasharray="5" />
<text x="-99" y="-102" font-size="8" stroke="none" fill="#ffcccc66" dy="0em">100mm</text>
<path d="M-100,-150 L375,-150" stroke="#ffcccc66" stroke-dasharray="5" />
<text x="-99" y="-152" font-size="8" stroke="none" fill="#ffcccc66" dy="0em">150mm</text>
<path d="M-100,-200 L375,-200" stroke="#ffcccc66" stroke-dasharray="5" />
<text x="-99" y="-202" font-size="8" stroke="none" fill="#ffcccc66" dy="0em">200mm</text>
<path d="M-100,-250 L375,-250" stroke="#ffcccc66" stroke-dasharray="5" />
<text x="-99" y="-252" font-size="8" stroke="none" fill="#ffcccc66" dy="0em">250mm</text>
<path d="M-100,-300 L375,-300" stroke="#ffcccc66" stroke-dasharray="5" />
<text x="-99" y="-302" font-size="8" stroke="none" fill="#ffcccc66" dy="0em">300mm</text>
<path d="M-100,-350 L375,-350" stroke="#ffcccc66" stroke-dasharray="5" />
<text x="-99" y="-352" font-size="8" stroke="none" fill="#ffcccc66" dy="0em">350mm</text>
<path d="M-100,100 L-100,-375" stroke="#ffcccc66" stroke-dasharray="5" />
<text x="-98" y="99" font-size="8" stroke="none" fill="#ffcccc66" dy="0em">-100mm</text>
<path d="M-50,100 L-50,-375" stroke="#ffcccc66" stroke-dasharray="5" />
<text x="-48" y="99" font-size="8" stroke="none" fill="#ffcccc66" dy="0em">-50mm</text>
<path d="M0,100 L0,-375" stroke="#ffcccc66" stroke-dasharray="5" />
<text x="2" y="99" font-size="8" stroke="none" fill="#ffcccc66" dy="0em">0mm</text>
<path d="M50,100 L50,-375" stroke="#ffcccc66" stroke-dasharray="5" />
<text x="52" y="99" font-size="8" stroke="none" fill="#ffcccc66" dy="0em">50mm</text>
<path d="M100,100 L100,-375" stroke="#ffcccc66" stroke-dasharray="5" />
<text x="102" y="99" font-size="8" stroke="none" fill="#ffcccc66" dy="0em">100mm</text>
<path d="M150,100 L150,-375" stroke="#ffcccc66" stroke-dasharray="5" />
<text x="152" y="99" font-size="8" stroke="none" fill="#ffcccc66" dy="0em">150mm</text>
<path d="M200,100 L200,-375" stroke="#ffcccc66" stroke-dasharray="5" />
<text x="202" y="99" font-size="8" stroke="none" fill="#ffcccc66" dy="0em">200mm</text>
<path d="M250,100 L250,-375" stroke="#ffcccc66" stroke-dasharray="5" />
<text x="252" y="99" font-size="8" stroke="none" fill="#ffcccc66" dy="0em">250mm</text>
<path d="M300,100 L300,-375" stroke="#ffcccc66" stroke-dasharray="5" />
<text x="302" y="99" font-size="8" stroke="none" fill="#ffcccc66" dy="0em">300mm</text>
<path d="M350,100 L350,-375" stroke="#ffcccc66" stroke-dasharray="5" />
<text x="352" y="99" font-size="8" stroke="none" fill="#ffcccc66" dy="0em">350mm</text>
<g>
<g>
<path d="M0.0,-25.0 L25.0,-25.0 L0.0,-0.0 L0.0,-25.0" fill="#E6E6FA66" stroke="black" />
</g>
<g>
<path d="M25.0,-25.0 L50.0,-25.0 L25.0,-0.0 L25.0,-25.0" fill="#E6E6FA66" stroke="black" />
</g>
<g>
<path d="M50.0,-25.0 L75.0,-25.0 L50.0,-0.0 L50.0,-25.0" fill="#E6E6FA66" stroke="black" />
</g>
<g>
<path d="M75.0,-25.0 L100.0,-25.0 L75.0,-0.0 L75.0,-25.0" fill="#E6E6FA66" stroke="black" />
</g>
<g>
<path d="M100.0,-25.0 L125.0,-25.0 L100.0,-0.0 L100.0,-25.0" fill="#E6E6FA66" stroke="black" />
</g>
<g>
<path d="M125.0,-25.0 L150.0,-25.0 L125.0,-0.0 L125.0,-25.0" fill="#E6E6FA66" stroke="black" />
</g>
<g>
<path d="M150.0,-25.0 L175.0,-25.0 L150.0,-0.0 L150.0,-25.0" fill="#E6E6FA66" stroke="black" />
</g>
<g>
<path d="M175.0,-25.0 L200.0,-25.0 L175.0,-0.0 L175.0,-25.0" fill="#E6E6FA66" stroke="black" />
</g>
<g>
<path d="M200.0,-25.0 L225.0,-25.0 L200.0,-0.0 L200.0,-25.0" fill="#E6E6FA66" stroke="black" />
</g>
<g>
<path d="M225.0,-25.0 L250.0,-25.0 L225.0,-0.0 L225.0,-25.0" fill="#E6E6FA66" stroke="black" />
</g>
<g>
<path d="M250.0,-25.0 L275.0,-25.0 L250.0,-0.0 L250.0,-25.0" fill="#E6E6FA66" stroke="black" />
</g>
<g>
<path d="M25.0,-25.0 L25.0,-0.0 L0.0,-0.0 L25.0,-25.0" fill="#E6E6FA66" stroke="black" />
</g>
<g>
<path d="M50.0,-25.0 L50.0,-0.0 L25.0,-0.0 L50.0,-25.0" fill="#E6E6FA66" stroke="black" />
</g>
<g>
<path d="M75.0,-25.0 L75.0,-0.0 L50.0,-0.0 L75.0,-25.0" fill="#E6E6FA66" stroke="black" />
</g>
<g>
<path d="M100.0,-25.0 L100.0,-0.0 L75.0,-0.0 L100.0,-25.0" fill="#E6E6FA66" stroke="black" />
</g>
<g>
<path d="M125.0,-25.0 L125.0,-0.0 L100.0,-0.0 L125.0,-25.0" fill="#E6E6FA66" stroke="black" />
</g>
<g>
<path d="M150.0,-25.0 L150.0,-0.0 L125.0,-0.0 L150.0,-25.0" fill="#E6E6FA66" stroke="black" />
</g>
<g>
<path d="M175.0,-25.0 L175.0,-0.0 L150.0,-0.0 L175.0,-25.0" fill="#E6E6FA66" stroke="black" />
</g>
<g>
<path d="M200.0,-25.0 L200.0,-0.0 L175.0,-0.0 L200.0,-25.0" fill="#E6E6FA66" stroke="black" />
</g>
<g>
<path d="M225.0,-25.0 L225.0,-0.0 L200.0,-0.0 L225.0,-25.0" fill="#E6E6FA66" stroke="black" />
</g>
<g>
<path d="M250.0,-25.0 L250.0,-0.0 L225.0,-0.0 L250.0,-25.0" fill="#E6E6FA66" stroke="black" />
</g>
<g>
<path d="M275.0,-25.0 L275.0,-0.0 L250.0,-0.0 L275.0,-25.0" fill="#E6E6FA66" stroke="black" />
</g>
<g>
<path d="M0.0,-50.0 L25.0,-50.0 L0.0,-25.0 L0.0,-50.0" fill="#E6E6FA66" stroke="black" />
</g>
<g>
<path d="M25.0,-50.0 L50.0,-50.0 L25.0,-25.0 L25.0,-50.0" fill="#E6E6FA66" stroke="black" />
</g>
<g>
<path d="M50.0,-50.0 L75.0,-50.0 L50.0,-25.0 L50.0,-50.0" fill="#E6E6FA66" stroke="black" />
</g>
<g>
<path d="M75.0,-50.0 L100.0,-50.0 L75.0,-25.0 L75.0,-50.0" fill="#E6E6FA66" stroke="black" />
</g>
<g>
<path d="M100.0,-50.0 L125.0,-50.0 L100.0,-25.0 L100.0,-50.0" fill="#E6E6FA66" stroke="black" />
</g>
<g>
<path d="M125.0,-50.0 L150.0,-50.0 L125.0,-25.0 L125.0,-50.0" fill="#E6E6FA66" stroke="black" />
</g>
<g>
<path d="M150.0,-50.0 L175.0,-50.0 L150.0,-25.0 L150.0,-50.0" fill="#E6E6FA66" stroke="black" />
</g>
<g>
<path d="M175.0,-50.0 L200.0,-50.0 L175.0,-25.0 L175.0,-50.0" fill="#E6E6FA66" stroke="black" />
</g>
<g>
<path d="M200.0,-50.0 L225.0,-50.0 L200.0,-25.0 L200.0,-50.0" fill="#E6E6FA66" stroke="black" />
</g>
<g>
<path d="M225.0,-50.0 L250.0,-50.0 L225.0,-25.0 L225.0,-50.0" fill="#E6E6FA66" stroke="black" />
</g>
<g>
<path d="M250.0,-50.0 L275.0,-50.0 L250.0,-25.0 L250.0,-50.0" fill="#E6E6FA66" stroke="black" />
</g>
<g>
<path d="M25.0,-50.0 L25.0,-25.0 L0.0,-25.0 L25.0,-50.0" fill="#E6E6FA66" stroke="black" />
</g>
<g>
<path d="M50.0,-50.0 L50.0,-25.0 L25.0,-25.0 L50.0,-50.0" fill="#E6E6FA66" stroke="black" />
</g>
<g>
<path d="M75.0,-50.0 L75.0,-25.0 L50.0,-25.0 L75.0,-50.0" fill="#E6E6FA66" stroke="black" />
</g>
<g>
<path d="M100.0,-50.0 L100.0,-25.0 L75.0,-25.0 L100.0,-50.0" fill="#E6E6FA66" stroke="black" />
</g>
<g>
<path d="M125.0,-50.0 L125.0,-25.0 L100.0,-25.0 L125.0,-50.0" fill="#E6E6FA66" stroke="black" />
</g>
<g>
<path d="M150.0,-50.0 L150.0,-25.0 L125.0,-25.0 L150.0,-50.0" fill="#E6E6FA66" stroke="black" />
</g>
<g>
<path d="M175.0,-50.0 L175.0,-25.0 L150.0,-25.0 L175.0,-50.0" fill="#E6E6FA66" stroke="black" />
</g>
<g>
<path d="M200.0,-50.0 L200.0,-25.0 L175.0,-25.0 L200.0,-50.0" fill="#E6E6FA66" stroke="black" />
</g>
<g>
<path d="M225.0,-50.0 L225.0,-25.0 L200.0,-25.0 L225.0,-50.0" fill="#E6E6FA66" stroke="black" />
</g>
<g>
<path d="M250.0,-50.0 L250.0,-25.0 L225.0,-25.0 L250.0,-50.0" fill="#E6E6FA66" stroke="black" />
</g>
<g>
<path d="M275.0,-50.0 L275.0,-25.0 L250.0,-25.0 L275.0,-50.0" fill="#E6E6FA66" stroke="black" />
</g>
<g>
<path d="M0.0,-75.0 L25.0,-75.0 L0.0,-50.0 L0.0,-75.0" fill="#E6E6FA66" stroke="black" />
</g>
<g>
<path d="M25.0,-75.0 L50.0,-75.0 L25.0,-50.0 L25.0,-75.0" fill="#E6E6FA66" stroke="black" />
</g>
<g>
<path d="M50.0,-75.0 L75.0,-75.0 L50.0,-50.0 L50.0,-75.0" fill="#E6E6FA66" stroke="black" />
</g>
<g>
<path d="M75.0,-75.0 L100.0,-75.0 L75.0,-50.0 L75.0,-75.0" fill="#E6E6FA66" stroke="black" />
</g>
<g>
<path d="M100.0,-75.0 L125.0,-75.0 L100.0,-50.0 L100.0,-75.0" fill="#E6E6FA66" stroke="black" />
</g>
<g>
<path d="M125.0,-75.0 L150.0,-75.0 L125.0,-50.0 L125.0,-75.0" fill="#E6E6FA66" stroke="black" />
</g>
<g>
<path d="M150.0,-75.0 L175.0,-75.0 L150.0,-50.0 L150.0,-75.0" fill="#E6E6FA66" stroke="black" />
</g>
<g>
<path d="M175.0,-75.0 L200.0,-75.0 L175.0,-50.0 L175.0,-75.0" fill="#E6E6FA66" stroke="black" />
</g>
<g>
<path d="M200.0,-75.0 L225.0,-75.0 L200.0,-50.0 L200.0,-75.0" fill="#E6E6FA66" stroke="black" />
</g>
<g>
<path d="M225.0,-75.0 L250.0,-75.0 L225.0,-50.0 L225.0,-75.0" fill="#E6E6FA66" stroke="black" />
</g>
<g>
<path d="M250.0,-75.0 L275.0,-75.0 L250.0,-50.0 L250.0,-75.0" fill="#E6E6FA66" stroke="black" />
</g>
<g>
<path d="M25.0,-75.0 L25.0,-50.0 L0.0,-50.0 L25.0,-75.0" fill="#E6E6FA66" stroke="black" />
</g>
<g>
<path d="M50.0,-75.0 L50.0,-50.0 L25.0,-50.0 L50.0,-75.0" fill="#E6E6FA66" stroke="black" />
</g>
<g>
<path d="M75.0,-75.0 L75.0,-50.0 L50.0,-50.0 L75.0,-75.0" fill="#E6E6FA66" stroke="black" />
</g>
<g>
<path d="M100.0,-75.0 L100.0,-50.0 L75.0,-50.0 L100.0,-75.0" fill="#E6E6FA66" stroke="black" />
</g>
<g>
<path d="M125.0,-75.0 L125.0,-50.0 L100.0,-50.0 L125.0,-75.0" fill="#E6E6FA66" stroke="black" />
</g>
<g>
<path d="M150.0,-75.0 L150.0,-50.0 L125.0,-50.0 L150.0,-75.0" fill="#E6E6FA66" stroke="black" />
</g>
<g>
<path d="M175.0,-75.0 L175.0,-50.0 L150.0,-50.0 L175.0,-75.0" fill="#E6E6FA66" stroke="black" />
</g>
<g>
<path d="M200.0,-75.0 L200.0,-50.0 L175.0,-50.0 L200.0,-75.0" fill="#E6E6FA66" stroke="black" />
</g>
<g>
<path d="M225.0,-75.0 L225.0,-50.0 L200.0,-50.0 L225.0,-75.0" fill="#E6E6FA66" stroke="black" />
</g>
<g>
<path d="M250.0,-75.0 L250.0,-50.0 L225.0,-50.0 L250.0,-75.0" fill="#E6E6FA66" stroke="black" />
</g>
<g>
<path d="M275.0,-75.0 L275.0,-50.0 L250.0,-50.0 L275.0,-75.0" fill="#E6E6FA66" stroke="black" />
</g>
<g>
<path d="M0.0,-100.0 L25.0,-100.0 L0.0,-75.0 L0.0,-100.0" fill="#E6E6FA66" stroke="black" />
</g>
<g>
<path d="M25.0,-100.0 L50.0,-100.0 L25.0,-75.0 L25.0,-100.0" fill="#E6E6FA66" stroke="black" />
</g>
<g>
<path d="M50.0,-100.0 L75.0,-100.0 L50.0,-75.0 L50.0,-100.0" fill="#E6E6FA66" stroke="black" />
</g>
<g>
<path d="M75.0,-100.0 L100.0,-100.0 L75.0,-75.0 L75.0,-100.0" fill="#E6E6FA66" stroke="black" />
</g>
<g>
<path d="M100.0,-100.0 L125.0,-100.0 L100.0,-75.0 L100.0,-100.0" fill="#E6E6FA66" stroke="black" />
</g>
<g>
<path d="M125.0,-100.0 L150.0,-100.0 L125.0,-75.0 L125.0,-100.0" fill="#E6E6FA66" stroke="black" />
</g>
<g>
<path d="M150.0,-100.0 L175.0,-100.0 L150.0,-75.0 L150.0,-100.0" fill="#E6E6FA66" stroke="black" />
</g>
<g>
<path d="M175.0,-100.0 L200.0,-100.0 L175.0,-75.0 L175.0,-100.0" fill="#E6E6FA66" stroke="black" />
</g>
<g>
<path d="M200.0,-100.0 L225.0,-100.0 L200.0,-75.0 L200.0,-100.0" fill="#E6E6FA66" stroke="black" />
</g>
<g>
<path d="M225.0,-100.0 L250.0,-100.0 L225.0,-75.0 L225.0,-100.0" fill="#E6E6FA66" stroke="black" />
</g>
<g>
<path d="M250.0,-100.0 L275.0,-100.0 L250.0,-75.0 L250.0,-100.0" fill="#E6E6FA66" stroke="black" />
</g>
<g>
<path d="M25.0,-100.0 L25.0,-75.0 L0.0,-75.0 L25.0,-100.0" fill="#E6E6FA66" stroke="black" />
</g>
<g>
<path d="M50.0,-100.0 L50.0,-75.0 L25.0,-75.0 L50.0,-100.0" fill="#E6E6FA66" stroke="black" />
</g>
<g>
<path d="M75.0,-100.0 L75.0,-75.0 L50.0,-75.0 L75.0,-100.0" fill="#E6E6FA66" stroke="black" />
</g>
<g>
<path d="M100.0,-100.0 L100.0,-75.0 L75.0,-75.0 L100.0,-100.0" fill="#E6E6FA66" stroke="black" />
</g>
<g>
<path d="M125.0,-100.0 L125.0,-75.0 L100.0,-75.0 L125.0,-100.0" fill="#E6E6FA66" stroke="black" />
</g>
<g>
<path d="M150.0,-100.0 L150.0,-75.0 L125.0,-75.0 L150.0,-100.0" fill="#E6E6FA66" stroke="black" />
</g>
<g>
<path d="M175.0,-100.0 L175.0,-75.0 L150.0,-75.0 L175.0,-100.0" fill="#E6E6FA66" stroke="black" />
</g>
<g>
<path d="M200.0,-100.0 L200.0,-75.0 L175.0,-75.0 L200.0,-100.0" fill="#E6E6FA66" stroke="black" />
</g>
<g>
<path d="M225.0,-100.0 L225.0,-75.0 L200.0,-75.0 L225.0,-100.0" fill="#E6E6FA66" stroke="black" />
</g>
<g>
<path d="M250.0,-100.0 L250.0,-75.0 L225.0,-75.0 L250.0,-100.0" fill="#E6E6FA66" stroke="black" />
</g>
<g>
<path d="M275.0,-100.0 L275.0,-75.0 L250.0,-75.0 L275.0,-100.0" fill="#E6E6FA66" stroke="black" />
</g>
<g>
<path d="M0.0,-125.0 L25.0,-125.0 L0.0,-100.0 L0.0,-125.0" fill="#E6E6FA66" stroke="black" />
</g>
<g>
<path d="M25.0,-125.0 L50.0,-125.0 L25.0,-100.0 L25.0,-125.0" fill="#E6E6FA66" stroke="black" />
</g>
<g>
<path d="M50.0,-125.0 L75.0,-125.0 L50.0,-100.0 L50.0,-125.0" fill="#E6E6FA66" stroke="black" />
</g>
<g>
<path d="M75.0,-125.0 L100.0,-125.0 L75.0,-100.0 L75.0,-125.0" fill="#E6E6FA66" stroke="black" />
</g>
<g>
<path d="M100.0,-125.0 L125.0,-125.0 L100.0,-100.0 L100.0,-125.0" fill="#E6E6FA66" stroke="black" />
</g>
<g>
<path d="M125.0,-125.0 L150.0,-125.0 L125.0,-100.0 L125.0,-125.0" fill="#E6E6FA66" stroke="black" />
</g>
<g>
<path d="M150.0,-125.0 L175.0,-125.0 L150.0,-100.0 L150.0,-125.0" fill="#E6E6FA66" stroke="black" />
</g>
<g>
<path d="M175.0,-125.0 L200.0,-125.0 L175.0,-100.0 L175.0,-125.0" fill="#E6E6FA66" stroke="black" />
</g>
<g>
<path d="M200.0,-125.0 L225.0,-125.0 L200.0,-100.0 L200.0,-125.0" fill="#E6E6FA66" stroke="black" />
</g>
<g>
<path d="M225.0,-125.0 L250.0,-125.0 L225.0,-100.0 L225.0,-125.0" fill="#E6E6FA66" stroke="black" />
</g>
<g>
<path d="M250.0,-125.0 L275.0,-125.0 L250.0,-100.0 L250.0,-125.0" fill="#E6E6FA66" stroke="black" />
</g>
<g>
<path d="M25.0,-125.0 L25.0,-100.0 L0.0,-100.0 L25.0,-125.0" fill="#E6E6FA66" stroke="black" />
</g>
<g>
<path d="M50.0,-125.0 L50.0,-100.0 L25.0,-100.0 L50.0,-125.0" fill="#E6E6FA66" stroke="black" />
</g>
<g>
<path d="M75.0,-125.0 L75.0,-100.0 L50.0,-100.0 L75.0,-125.0" fill="#E6E6FA66" stroke="black" />
</g>
<g>
<path d="M100.0,-125.0 L100.0,-100.0 L75.0,-100.0 L100.0,-125.0" fill="#E6E6FA66" stroke="black" />
</g>
<g>
<path d="M125.0,-125.0 L125.0,-100.0 L100.0,-100.0 L125.0,-125.0" fill="#E6E6FA66" stroke="black" />
</g>
<g>
<path d="M150.0,-125.0 L150.0,-100.0 L125.0,-100.0 L150.0,-125.0" fill="#E6E6FA66" stroke="black" />
</g>
<g>
<path d="M175.0,-125.0 L175.0,-100.0 L150.0,-100.0 L175.0,-125.0" fill="#E6E6FA66" stroke="black" />
</g>
<g>
<path d="M200.0,-125.0 L200.0,-100.0 L175.0,-100.0 L200.0,-125.0" fill="#E6E6FA66" stroke="black" />
</g>
<g>
<path d="M225.0,-125.0 L225.0,-100.0 L200.0,-100.0 L225.0,-125.0" fill="#E6E6FA66" stroke="black" />
</g>
<g>
<path d="M250.0,-125.0 L250.0,-100.0 L225.0,-100.0 L250.0,-125.0" fill="#E6E6FA66" stroke="black" />
</g>
<g>
<path d="M275.0,-125.0 L275.0,-100.0 L250.0,-100.0 L275.0,-125.0" fill="#E6E6FA66" stroke="black" />
</g>
<g>
<path d="M0.0,-150.0 L25.0,-150.0 L0.0,-125.0 L0.0,-150.0" fill="#E6E6FA66" stroke="black" />
</g>
<g>
<path d="M25.0,-150.0 L50.0,-150.0 L25.0,-125.0 L25.0,-150.0" fill="#E6E6FA66" stroke="black" />
</g>
<g>
<path d="M50.0,-150.0 L75.0,-150.0 L50.0,-125.0 L50.0,-150.0" fill="#E6E6FA66" stroke="black" />
</g>
<g>
<path d="M75.0,-150.0 L100.0,-150.0 L75.0,-125.0 L75.0,-150.0" fill="#E6E6FA66" stroke="black" />
</g>
<g>
<path d="M100.0,-150.0 L125.0,-150.0 L100.0,-125.0 L100.0,-150.0" fill="#E6E6FA66" stroke="black" />
</g>
<g>
<path d="M125.0,-150.0 L150.0,-150.0 L125.0,-125.0 L125.0,-150.0" fill="#E6E6FA66" stroke="black" />
</g>
<g>
<path d="M150.0,-150.0 L175.0,-150.0 L150.0,-125.0 L150.0,-150.0" fill="#E6E6FA66" stroke="black" />
</g>
<g>
<path d="M175.0,-150.0 L200.0,-150.0 L175.0,-125.0 L175.0,-150.0" fill="#E6E6FA66" stroke="black" />
</g>
<g>
<path d="M200.0,-150.0 L225.0,-150.0 L200.0,-125.0 L200.0,-150.0" fill="#E6E6FA66" stroke="black" />
</g>
<g>
<path d="M225.0,-150.0 L250.0,-150.0 L225.0,-125.0 L225.0,-150.0" fill="#E6E6FA66" stroke="black" />
</g>
<g>
<path d="M250.0,-150.0 L275.0,-150.0 L250.0,-125.0 L250.0,-150.0" fill="#E6E6FA66" stroke="black" />
</g>
<g>
<path d="M25.0,-150.0 L25.0,-125.0 L0.0,-125.0 L25.0,-150.0" fill="#E6E6FA66" stroke="black" />
</g>
<g>
<path d="M50.0,-150.0 L50.0,-125.0 L25.0,-125.0 L50.0,-150.0" fill="#E6E6FA66" stroke="black" />
</g>
<g>
<path d="M75.0,-150.0 L75.0,-125.0 L50.0,-125.0 L75.0,-150.0" fill="#E6E6FA66" stroke="black" />
</g>
<g>
<path d="M100.0,-150.0 L100.0,-125.0 L75.0,-125.0 L100.0,-150.0" fill="#E6E6FA66" stroke="black" />
</g>
<g>
<path d="M125.0,-150.0 L125.0,-125.0 L100.0,-125.0 L125.0,-150.0" fill="#E6E6FA66" stroke="black" />
</g>
<g>
<path d="M150.0,-150.0 L150.0,-125.0 L125.0,-125.0 L150.0,-150.0" fill="#E6E6FA66" stroke="black" />
</g>
<g>
<path d="M175.0,-150.0 L175.0,-125.0 L150.0,-125.0 L175.0,-150.0" fill="#E6E6FA66" stroke="black" />
</g>
<g>
<path d="M200.0,-150.0 L200.0,-125.0 L175.0,-125.0 L200.0,-150.0" fill="#E6E6FA66" stroke="black" />
</g>
<g>
<path d="M225.0,-150.0 L225.0,-125.0 L200.0,-125.0 L225.0,-150.0" fill="#E6E6FA66" stroke="black" />
</g>
<g>
<path d="M250.0,-150.0 L250.0,-125.0 L225.0,-125.0 L250.0,-150.0" fill="#E6E6FA66" stroke="black" />
</g>
<g>
<path d="M275.0,-150.0 L275.0,-125.0 L250.0,-125.0 L275.0,-150.0" fill="#E6E6FA66" stroke="black" />
</g>
<g>
<path d="M0.0,-175.0 L25.0,-175.0 L0.0,-150.0 L0.0,-175.0" fill="#E6E6FA66" stroke="black" />
</g>
<g>
<path d="M25.0,-175.0 L50.0,-175.0 L25.0,-150.0 L25.0,-175.0" fill="#E6E6FA66" stroke="black" />
</g>
<g>
<path d="M50.0,-175.0 L75.0,-175.0 L50.0,-150.0 L50.0,-175.0" fill="#E6E6FA66" stroke="black" />
</g>
<g>
<path d="M75.0,-175.0 L100.0,-175.0 L75.0,-150.0 L75.0,-175.0" fill="#E6E6FA66" stroke="black" />
</g>
<g>
<path d="M100.0,-175.0 L125.0,-175.0 L100.0,-150.0 L100.0,-175.0" fill="#E6E6FA66" stroke="black" />
</g>
<g>
<path d="M125.0,-175.0 L150.0,-175.0 L125.0,-150.0 L125.0,-175.0" fill="#E6E6FA66" stroke="black" />
</g>
<g>
<path d="M150.0,-175.0 L175.0,-175.0 L150.0,-150.0 L150.0,-175.0" fill="#E6E6FA66" stroke="black" />
</g>
<g>
<path d="M175.0,-175.0 L200.0,-175.0 L175.0,-150.0 L175.0,-175.0" fill="#E6E6FA66" stroke="black" />
</g>
<g>
<path d="M200.0,-175.0 L225.0,-175.0 L200.0,-150.0 L200.0,-175.0" fill="#E6E6FA66" stroke="black" />
</g>
<g>
<path d="M225.0,-175.0 L250.0,-175.0 L225.0,-150.0 L225.0,-175.0" fill="#E6E6FA66" stroke="black" />
</g>
<g>
<path d="M250.0,-175.0 L275.0,-175.0 L250.0,-150.0 L250.0,-175.0" fill="#E6E6FA66" stroke="black" />
</g>
<g>
<path d="M25.0,-175.0 L25.0,-150.0 L0.0,-150.0 L25.0,-175.0" fill="#E6E6FA66" stroke="black" />
</g>
<g>
<path d="M50.0,-175.0 L50.0,-150.0 L25.0,-150.0 L50.0,-175.0" fill="#E6E6FA66" stroke="black" />
</g>
<g>
<path d="M75.0,-175.0 L75.0,-150.0 L50.0,-150.0 L75.0,-175.0" fill="#E6E6FA66" stroke="black" />
</g>
<g>
<path d="M100.0,-175.0 L100.0,-150.0 L75.0,-150.0 L100.0,-175.0" fill="#E6E6FA66" stroke="black" />
</g>
<g>
<path d="M125.0,-175.0 L125.0,-150.0 L100.0,-150.0 L125.0,-175.0" fill="#E6E6FA66" stroke="black" />
</g>
<g>
<path d="M150.0,-175.0 L150.0,-150.0 L125.0,-150.0 L150.0,-175.0" fill="#E6E6FA66" stroke="black" />
</g>
<g>
<path d="M175.0,-175.0 L175.0,-150.0 L150.0,-150.0 L175.0,-175.0" fill="#E6E6FA66" stroke="black" />
</g>
<g>
<path d="M200.0,-175.0 L200.0,-150.0 L175.0,-150.0 L200.0,-175.0" fill="#E6E6FA66" stroke="black" />
</g>
<g>
<path d="M225.0,-175.0 L225.0,-150.0 L200.0,-150.0 L225.0,-175.0" fill="#E6E6FA66" stroke="black" />
</g>
<g>
<path d="M250.0,-175.0 L250.0,-150.0 L225.0,-150.0 L250.0,-175.0" fill="#E6E6FA66" stroke="black" />
</g>
<g>
<path d="M275.0,-175.0 L275.0,-150.0 L250.0,-150.0 L275.0,-175.0" fill="#E6E6FA66" stroke="black" />
</g>
<g>
<path d="M0.0,-200.0 L25.0,-200.0 L0.0,-175.0 L0.0,-200.0" fill="#E6E6FA66" stroke="black" />
</g>
<g>
<path d="M25.0,-200.0 L50.0,-200.0 L25.0,-175.0 L25.0,-200.0" fill="#E6E6FA66" stroke="black" />
</g>
<g>
<path d="M50.0,-200.0 L75.0,-200.0 L50.0,-175.0 L50.0,-200.0" fill="#E6E6FA66" stroke="black" />
</g>
<g>
<path d="M75.0,-200.0 L100.0,-200.0 L75.0,-175.0 L75.0,-200.0" fill="#E6E6FA66" stroke="black" />
</g>
<g>
<path d="M100.0,-200.0 L125.0,-200.0 L100.0,-175.0 L100.0,-200.0" fill="#E6E6FA66" stroke="black" />
</g>
<g>
<path d="M125.0,-200.0 L150.0,-200.0 L125.0,-175.0 L125.0,-200.0" fill="#E6E6FA66" stroke="black" />
</g>
<g>
<path d="M150.0,-200.0 L175.0,-200.0 L150.0,-175.0 L150.0,-200.0" fill="#E6E6FA66" stroke="black" />
</g>
<g>
<path d="M175.0,-200.0 L200.0,-200.0 L175.0,-175.0 L175.0,-200.0" fill="#E6E6FA66" stroke="black" />
</g>
<g>
<path d="M200.0,-200.0 L225.0,-200.0 L200.0,-175.0 L200.0,-200.0" fill="#E6E6FA66" stroke="black" />
</g>
<g>
<path d="M225.0,-200.0 L250.0,-200.0 L225.0,-175.0 L225.0,-200.0" fill="#E6E6FA66" stroke="black" />
</g>
<g>
<path d="M250.0,-200.0 L275.0,-200.0 L250.0,-175.0 L250.0,-200.0" fill="#E6E6FA66" stroke="black" />
</g>
<g>
<path d="M25.0,-200.0 L25.0,-175.0 L0.0,-175.0 L25.0,-200.0" fill="#E6E6FA66" stroke="black" />
</g>
<g>
<path d="M50.0,-200.0 L50.0,-175.0 L25.0,-175.0 L50.0,-200.0" fill="#E6E6FA66" stroke="black" />
</g>
<g>
<path d="M75.0,-200.0 L75.0,-175.0 L50.0,-175.0 L75.0,-200.0" fill="#E6E6FA66" stroke="black" />
</g>
<g>
<path d="M100.0,-200.0 L100.0,-175.0 L75.0,-175.0 L100.0,-200.0" fill="#E6E6FA66" stroke="black" />
</g>
<g>
<path d="M125.0,-200.0 L125.0,-175.0 L100.0,-175.0 L125.0,-200.0" fill="#E6E6FA66" stroke="black" />
</g>
<g>
<path d="M150.0,-200.0 L150.0,-175.0 L125.0,-175.0 L150.0,-200.0" fill="#E6E6FA66" stroke="black" />
</g>
<g>
<path d="M175.0,-200.0 L175.0,-175.0 L150.0,-175.0 L175.0,-200.0" fill="#E6E6FA66" stroke="black" />
</g>
<g>
<path d="M200.0,-200.0 L200.0,-175.0 L175.0,-175.0 L200.0,-200.0" fill="#E6E6FA66" stroke="black" />
</g>
<g>
<path d="M225.0,-200.0 L225.0,-175.0 L200.0,-175.0 L225.0,-200.0" fill="#E6E6FA66" stroke="black" />
</g>
<g>
<path d="M250.0,-200.0 L250.0,-175.0 L225.0,-175.0 L250.0,-200.0" fill="#E6E6FA66" stroke="black" />
</g>
<g>
<path d="M275.0,-200.0 L275.0,-175.0 L250.0,-175.0 L275.0,-200.0" fill="#E6E6FA66" stroke="black" />
</g>
<g>
<path d="M0.0,-225.0 L25.0,-225.0 L0.0,-200.0 L0.0,-225.0" fill="#E6E6FA66" stroke="black" />
</g>
<g>
<path d="M25.0,-225.0 L50.0,-225.0 L25.0,-200.0 L25.0,-225.0" fill="#E6E6FA66" stroke="black" />
</g>
<g>
<path d="M50.0,-225.0 L75.0,-225.0 L50.0,-200.0 L50.0,-225.0" fill="#E6E6FA66" stroke="black" />
</g>
<g>
<path d="M75.0,-225.0 L100.0,-225.0 L75.0,-200.0 L75.0,-225.0" fill="#E6E6FA66" stroke="black" />
</g>
<g>
<path d="M100.0,-225.0 L125.0,-225.0 L100.0,-200.0 L100.0,-225.0" fill="#E6E6FA66" stroke="black" />
</g>
<g>
<path d="M125.0,-225.0 L150.0,-225.0 L125.0,-200.0 L125.0,-225.0" fill="#E6E6FA66" stroke="black" />
</g>
<g>
<path d="M150.0,-225.0 L175.0,-225.0 L150.0,-200.0 L150.0,-225.0" fill="#E6E6FA66" stroke="black" />
</g>
<g>
<path d="M175.0,-225.0 L200.0,-225.0 L175.0,-200.0 L175.0,-225.0" fill="#E6E6FA66" stroke="black" />
</g>
<g>
<path d="M200.0,-225.0 L225.0,-225.0 L200.0,-200.0 L200.0,-225.0" fill="#E6E6FA66" stroke="black" />
</g>
<g>
<path d="M225.0,-225.0 L250.0,-225.0 L225.0,-200.0 L225.0,-225.0" fill="#E6E6FA66" stroke="black" />
</g>
<g>
<path d="M250.0,-225.0 L275.0,-225.0 L250.0,-200.0 L250.0,-225.0" fill="#E6E6FA66" stroke="black" />
</g>
<g>
<path d="M25.0,-225.0 L25.0,-200.0 L0.0,-200.0 L25.0,-225.0" fill="#E6E6FA66" stroke="black" />
</g>
<g>
<path d="M50.0,-225.0 L50.0,-200.0 L25.0,-200.0 L50.0,-225.0" fill="#E6E6FA66" stroke="black" />
</g>
<g>
<path d="M75.0,-225.0 L75.0,-200.0 L50.0,-200.0 L75.0,-225.0" fill="#E6E6FA66" stroke="black" />
</g>
<g>
<path d="M100.0,-225.0 L100.0,-200.0 L75.0,-200.0 L100.0,-225.0" fill="#E6E6FA66" stroke="black" />
</g>
<g>
<path d="M125.0,-225.0 L125.0,-200.0 L100.0,-200.0 L125.0,-225.0" fill="#E6E6FA66" stroke="black" />
</g>
<g>
<path d="M150.0,-225.0 L150.0,-200.0 L125.0,-200.0 L150.0,-225.0" fill="#E6E6FA66" stroke="black" />
</g>
<g>
<path d="M175.0,-225.0 L175.0,-200.0 L150.0,-200.0 L175.0,-225.0" fill="#E6E6FA66" stroke="black" />
</g>
<g>
<path d="M200.0,-225.0 L200.0,-200.0 L175.0,-200.0 L200.0,-225.0" fill="#E6E6FA66" stroke="black" />
</g>
<g>
<path d="M225.0,-225.0 L225.0,-200.0 L200.0,-200.0 L225.0,-225.0" fill="#E6E6FA66" stroke="black" />
</g>
<g>
<path d="M250.0,-225.0 L250.0,-200.0 L225.0,-200.0 L250.0,-225.0" fill="#E6E6FA66" stroke="black" />
</g>
<g>
<path d="M275.0,-225.0 L275.0,-200.0 L250.0,-200.0 L275.0,-225.0" fill="#E6E6FA66" stroke="black" />
</g>
<g>
<path d="M0.0,-250.0 L25.0,-250.0 L0.0,-225.0 L0.0,-250.0" fill="#E6E6FA66" stroke="black" />
</g>
<g>
<path d="M25.0,-250.0 L50.0,-250.0 L25.0,-225.0 L25.0,-250.0" fill="#E6E6FA66" stroke="black" />
</g>
<g>
<path d="M50.0,-250.0 L75.0,-250.0 L50.0,-225.0 L50.0,-250.0" fill="#E6E6FA66" stroke="black" />
</g>
<g>
<path d="M75.0,-250.0 L100.0,-250.0 L75.0,-225.0 L75.0,-250.0" fill="#E6E6FA66" stroke="black" />
</g>
<g>
<path d="M100.0,-250.0 L125.0,-250.0 L100.0,-225.0 L100.0,-250.0" fill="#E6E6FA66" stroke="black" />
</g>
<g>
<path d="M125.0,-250.0 L150.0,-250.0 L125.0,-225.0 L125.0,-250.0" fill="#E6E6FA66" stroke="black" />
</g>
<g>
<path d="M150.0,-250.0 L175.0,-250.0 L150.0,-225.0 L150.0,-250.0" fill="#E6E6FA66" stroke="black" />
</g>
<g>
<path d="M175.0,-250.0 L200.0,-250.0 L175.0,-225.0 L175.0,-250.0" fill="#E6E6FA66" stroke="black" />
</g>
<g>
<path d="M200.0,-250.0 L225.0,-250.0 L200.0,-225.0 L200.0,-250.0" fill="#E6E6FA66" stroke="black" />
</g>
<g>
<path d="M225.0,-250.0 L250.0,-250.0 L225.0,-225.0 L225.0,-250.0" fill="#E6E6FA66" stroke="black" />
</g>
<g>
<path d="M250.0,-250.0 L275.0,-250.0 L250.0,-225.0 L250.0,-250.0" fill="#E6E6FA66" stroke="black" />
</g>
<g>
<path d="M25.0,-250.0 L25.0,-225.0 L0.0,-225.0 L25.0,-250.0" fill="#E6E6FA66" stroke="black" />
</g>
<g>
<path d="M50.0,-250.0 L50.0,-225.0 L25.0,-225.0 L50.0,-250.0" fill="#E6E6FA66" stroke="black" />
</g>
<g>
<path d="M75.0,-250.0 L75.0,-225.0 L50.0,-225.0 L75.0,-250.0" fill="#E6E6FA66" stroke="black" />
</g>
<g>
<path d="M100.0,-250.0 L100.0,-225.0 L75.0,-225.0 L100.0,-250.0" fill="#E6E6FA66" stroke="black" />
</g>
<g>
<path d="M125.0,-250.0 L125.0,-225.0 L100.0,-225.0 L125.0,-250.0" fill="#E6E6FA66" stroke="black" />
</g>
<g>
<path d="M150.0,-250.0 L150.0,-225.0 L125.0,-225.0 L150.0,-250.0" fill="#E6E6FA66" stroke="black" />
</g>
<g>
<path d="M175.0,-250.0 L175.0,-225.0 L150.0,-225.0 L175.0,-250.0" fill="#E6E6FA66" stroke="black" />
</g>
<g>
<path d="M200.0,-250.0 L200.0,-225.0 L175.0,-225.0 L200.0,-250.0" fill="#E6E6FA66" stroke="black" />
</g>
<g>
<path d="M225.0,-250.0 L225.0,-225.0 L200.0,-225.0 L225.0,-250.0" fill="#E6E6FA66" stroke="black" />
</g>
<g>
<path d="M250.0,-250.0 L250.0,-225.0 L225.0,-225.0 L250.0,-250.0" fill="#E6E6FA66" stroke="black" />
</g>
<g>
<path d="M275.0,-250.0 L275.0,-225.0 L250.0,-225.0 L275.0,-250.0" fill="#E6E6FA66" stroke="black" />
</g>
<g>
<path d="M0.0,-275.0 L25.0,-275.0 L0.0,-250.0 L0.0,-275.0" fill="#E6E6FA66" stroke="black" />
</g>
<g>
<path d="M25.0,-275.0 L50.0,-275.0 L25.0,-250.0 L25.0,-275.0" fill="#E6E6FA66" stroke="black" />
</g>
<g>
<path d="M50.0,-275.0 L75.0,-275.0 L50.0,-250.0 L50.0,-275.0" fill="#E6E6FA66" stroke="black" />
</g>
<g>
<path d="M75.0,-275.0 L100.0,-275.0 L75.0,-250.0 L75.0,-275.0" fill="#E6E6FA66" stroke="black" />
</g>
<g>
<path d="M100.0,-275.0 L125.0,-275.0 L100.0,-250.0 L100.0,-275.0" fill="#E6E6FA66" stroke="black" />
</g>
<g>
<path d="M125.0,-275.0 L150.0,-275.0 L125.0,-250.0 L125.0,-275.0" fill="#E6E6FA66" stroke="black" />
</g>
<g>
<path d="M150.0,-275.0 L175.0,-275.0 L150.0,-250.0 L150.0,-275.0" fill="#E6E6FA66" stroke="black" />
</g>
<g>
<path d="M175.0,-275.0 L200.0,-275.0 L175.0,-250.0 L175.0,-275.0" fill="#E6E6FA66" stroke="black" />
</g>
<g>
<path d="M200.0,-275.0 L225.0,-275.0 L200.0,-250.0 L200.0,-275.0" fill="#E6E6FA66" stroke="black" />
</g>
<g>
<path d="M225.0,-275.0 L250.0,-275.0 L225.0,-250.0 L225.0,-275.0" fill="#E6E6FA66" stroke="black" />
</g>
<g>
<path d="M250.0,-275.0 L275.0,-275.0 L250.0,-250.0 L250.0,-275.0" fill="#E6E6FA66" stroke="black" />
</g>
<g>
<path d="M25.0,-275.0 L25.0,-250.0 L0.0,-250.0 L25.0,-275.0" fill="#E6E6FA66" stroke="black" />
</g>
<g>
<path d="M50.0,-275.0 L50.0,-250.0 L25.0,-250.0 L50.0,-275.0" fill="#E6E6FA66" stroke="black" />
</g>
<g>
<path d="M75.0,-275.0 L75.0,-250.0 L50.0,-250.0 L75.0,-275.0" fill="#E6E6FA66" stroke="black" />
</g>
<g>
<path d="M100.0,-275.0 L100.0,-250.0 L75.0,-250.0 L100.0,-275.0" fill="#E6E6FA66" stroke="black" />
</g>
<g>
<path d="M125.0,-275.0 L125.0,-250.0 L100.0,-250.0 L125.0,-275.0" fill="#E6E6FA66" stroke="black" />
</g>
<g>
<path d="M150.0,-275.0 L150.0,-250.0 L125.0,-250.0 L150.0,-275.0" fill="#E6E6FA66" stroke="black" />
</g>
<g>
<path d="M175.0,-275.0 L175.0,-250.0 L150.0,-250.0 L175.0,-275.0" fill="#E6E6FA66" stroke="black" />
</g>
<g>
<path d="M200.0,-275.0 L200.0,-250.0 L175.0,-250.0 L200.0,-275.0" fill="#E6E6FA66" stroke="black" />
</g>
<g>
<path d="M225.0,-275.0 L225.0,-250.0 L200.0,-250.0 L225.0,-275.0" fill="#E6E6FA66" stroke="black" />
</g>
<g>
<path d="M250.0,-275.0 L250.0,-250.0 L225.0,-250.0 L250.0,-275.0" fill="#E6E6FA66" stroke="black" />
</g>
<g>
<path d="M275.0,-275.0 L275.0,-250.0 L250.0,-250.0 L275.0,-275.0" fill="#E6E6FA66" stroke="black" />
</g>
</g>
</svg>