<?xml version="1.0" encoding="UTF-8"?>
<svg xmlns="http://www.w3.org/2000/svg" xmlns:xlink="http://www.w3.org/1999/xlink"
     width="847.5612949949698" height="759.2355883884893" viewBox="-286.4691603005426 -609.2355883884893 847.5612949949698 759.2355883884893" stroke="black" fill="none">
<defs>
<path d="M-186.4691603005426,54.0 L-186.4691603005426,154.0" id="d0" />
<path d="M-166.4691603005426,54.0 L-166.4691603005426,154.0" id="d1" />
<path d="M-146.4691603005426,54.0 L-146.4691603005426,154.0" id="d2" />
<path d="M-126.4691603005426,54.00000000000001 L-126.4691603005426,154.0" id="d3" />
<path d="M-106.4691603005426,54.0 L-106.4691603005426,154.0" id="d4" />
<path d="M-86.4691603005426,53.99999999999999 L-86.4691603005426,154.0" id="d5" />
<path d="M-66.46916030054263,54.0 L-66.46916030054263,154.0" id="d6" />
<path d="M-46.4691603005426,54.0 L-46.4691603005426,154.0" id="d7" />
<path d="M-26.469160300542597,54.0 L-26.469160300542597,154.0" id="d8" />
<path d="M-6.4691603005425975,54.0 L-6.4691603005425975,154.0" id="d9" />
<path d="M13.530839699457403,54.0 L13.530839699457403,154.0" id="d10" />
<path d="M33.53083969945739,54.0 L33.53083969945739,154.0" id="d11" />
<path d="M53.53083969945739,54.0 L53.53083969945739,154.0" id="d12" />
<path d="M73.53083969945737,54.0 L73.53083969945737,154.0" id="d13" />
<path d="M93.53083969945739,54.0 L93.53083969945739,154.0" id="d14" />
<path d="M113.53083969945739,54.0 L113.53083969945739,154.0" id="d15" />
<path d="M133.53083969945737,54.0 L133.53083969945737,154.0" id="d16" />
<path d="M153.53083969945743,54.0 L153.53083969945743,154.0" id="d17" />
<path d="M173.53083969945737,54.0 L173.53083969945737,154.0" id="d18" />
<path d="M193.53083969945737,54.0 L193.53083969945737,154.0" id="d19" />
<path d="M213.53083969945737,54.0 L213.53083969945737,154.0" id="d20" />
<path d="M233.53083969945743,54.0 L233.53083969945743,154.0" id="d21" />
<path d="M253.53083969945737,54.0 L253.53083969945737,154.0" id="d22" />
<path d="M273.5308396994574,54.0 L273.5308396994574,154.0" id="d23" />
<path d="M293.5308396994574,54.0 L293.5308396994574,154.0" id="d24" />
<path d="M313.53083969945743,54.0 L313.53083969945743,154.0" id="d25" />
<path d="M333.5308396994574,54.0 L333.5308396994574,154.0" id="d26" />
<path d="M353.5308396994574,54.0 L353.5308396994574,154.0" id="d27" />
<path d="M373.5308396994574,54.0 L373.5308396994574,154.0" id="d28" />
<path d="M393.5308396994573,54.0 L393.5308396994573,154.0" id="d29" />
<path d="M413.5308396994574,54.0 L413.5308396994574,154.0" id="d30" />
<path d="M433.53083969945743,54.0 L433.53083969945743,154.0" id="d31" />
<path d="M453.5308396994574,54.0 L453.5308396994574,154.0" id="d32" />
<path d="M465.09213469442716,50.0 L565.0921346944272,50.0" id="d33" />
<path d="M465.0921346944271,30.0 L565.0921346944272,30.0" id="d34" />
<path d="M465.0921346944272,10.0 L565.0921346944272,10.0" id="d35" />
<path d="M465.09213469442716,-9.999999999999993 L565.0921346944272,-9.999999999999993" id="d36" />
<path d="M465.09213469442716,-30.0 L565.0921346944272,-30.0" id="d37" />
<path d="M465.0921346944272,-49.999999999999986 L565.0921346944272,-49.999999999999986" id="d38" />
<path d="M465.09213469442716,-69.99999999999999 L565.0921346944272,-69.99999999999999" id="d39" />
<path d="M465.0921346944271,-89.99999999999999 L565.0921346944272,-89.99999999999999" id="d40" />
<path d="M465.09213469442716,-110.0 L565.0921346944272,-110.0" id="d41" />
<path d="M465.09213469442716,-129.99999999999997 L565.0921346944272,-129.99999999999997" id="d42" />
<path d="M465.09213469442716,-149.99999999999997 L565.0921346944272,-149.99999999999997" id="d43" />
<path d="M465.09213469442716,-170.0 L565.0921346944272,-170.0" id="d44" />
<path d="M465.09213469442716,-189.99999999999997 L565.0921346944272,-189.99999999999997" id="d45" />
<path d="M465.09213469442716,-209.99999999999997 L565.0921346944272,-209.99999999999997" id="d46" />
<path d="M465.09213469442716,-229.99999999999997 L565.0921346944272,-229.99999999999997" id="d47" />
<path d="M465.09213469442716,-250.0 L565.0921346944272,-250.0" id="d48" />
<path d="M465.09213469442716,-270.0 L565.0921346944272,-270.0" id="d49" />
<path d="M465.09213469442716,-289.99999999999994 L565.0921346944272,-289.99999999999994" id="d50" />
<path d="M465.09213469442716,-309.99999999999994 L565.0921346944272,-309.99999999999994" id="d51" />
<path d="M465.09213469442716,-330.0 L565.0921346944272,-330.0" id="d52" />
<path d="M465.09213469442716,-349.99999999999994 L565.0921346944272,-349.99999999999994" id="d53" />
<path d="M465.09213469442716,-369.99999999999994 L565.0921346944272,-369.99999999999994" id="d54" />
<path d="M465.09213469442716,-390.0 L565.0921346944272,-390.0" id="d55" />
<path d="M465.09213469442716,-409.99999999999994 L565.0921346944272,-409.99999999999994" id="d56" />
<path d="M465.09213469442716,-429.99999999999994 L565.0921346944272,-429.99999999999994" id="d57" />
<path d="M465.09213469442716,-450.0 L565.0921346944272,-450.0" id="d58" />
<path d="M465.09213469442716,-469.99999999999994 L565.0921346944272,-469.99999999999994" id="d59" />
<path d="M465.09213469442716,-489.99999999999994 L565.0921346944272,-489.99999999999994" id="d60" />
</defs>
<g>
<path d="M0,0 L0,-200 L200,-250 L250,-150 L300,-300" fill="none" stroke="black" />
</g>
<g>
<path d="M0.0,-0.0 L-0.12112647363953484,-4.991386887108654 L-0.45758890041602046,-11.915753355608379 L-0.9690117891162784,-20.540513379417707 L-1.615019648527131,-30.633080932455186 L-2.3552369874354,-41.960869988639345 L-3.1492883146279054,-54.29129452188873 L-3.9567981388914704,-67.39176850612185 L-4.7373909690129175,-81.02970591525728 L-5.4506913137790685,-94.97252072321356 L-6.056323681976742,-108.98762690390917 L-6.513912582392763,-122.8424384312627 L-6.783082523813952,-136.30436927919268 L-6.823458015027129,-149.14083342161763 L-6.594663564819119,-161.1192448324561 L-6.056323681976742,-172.00701748562665 L-5.168062875286821,-181.57156535504774 L-3.8895056535361743,-189.580302414638 L-2.180276525511629,-195.80064263831588 L0.0,-200.0 L3.666791592032639,-203.36409572738515 L9.494556094055504,-207.00057619314174 L17.236445819941707,-210.84701042814504 L26.645613083564378,-214.84096746327046 L37.475210198796624,-218.92001632939323 L49.47838947951158,-223.02172605738855 L62.40830323958233,-227.08366567813187 L76.01810379288203,-231.04340422249842 L90.06094345328378,-234.83851072136355 L104.28997453466069,-238.40655420560248 L118.4583493508859,-241.68510370609053 L132.3192202158325,-244.61172825370303 L145.62573944337362,-247.1239968793153 L158.1310593473824,-249.1594786138026 L169.58833224173193,-250.65574248804018 L179.75071044029534,-251.55035753290343 L188.37134625694574,-251.78089277926767 L195.20339200555625,-251.28491725800802 L200.0,-250.0 L202.09047492329563,-248.3627770624663 L204.34065172948507,-245.40338397658516 L206.73295761617675,-241.28404812231577 L209.24981978097918,-236.16699687961764 L211.8736654215006,-230.21445762844996 L214.58692173534936,-223.58865774877188 L217.372015920134,-216.45182462054282 L220.21137517346284,-208.9661856237221 L223.08742669294438,-201.293968138269 L225.98259767618683,-193.59739954414277 L228.87931532079875,-186.03870722130273 L231.76000682438846,-178.78011854970816 L234.60709938456438,-171.9838609093183 L237.40302019893483,-165.81216168009257 L240.13019646510833,-160.42724824199018 L242.77105538069316,-155.99134797497044 L245.30802414329784,-152.66668825899262 L247.7235299505306,-150.61549647401606 L250.0,-150.0 L253.14550318291828,-151.25373048474233 L256.3434852017831,-154.4327818430061 L259.5746081397499,-159.32760737862793 L262.81953407997446,-165.72866039544456 L266.05892510561216,-173.4263941972927 L269.2734432998183,-182.21126208800885 L272.4437507457486,-191.87371737142976 L275.5505095265587,-202.20421335139218 L278.57438172540384,-212.99320333173267 L281.49602942543964,-224.0311406162879 L284.2961147098216,-235.10847850889468 L286.9552996617052,-246.01567031338945 L289.45424636424605,-256.54316933360906 L291.7736169005995,-266.48142887339003 L293.89407335392116,-275.6209022365691 L295.79627780736655,-283.752042726983 L297.4608923440911,-290.66530364846835 L298.8685790472505,-296.1511383048618" fill="none" stroke="black" />
</g>
<g>
<path d="M0.0,-0.0 L-0.24225294727906968,-8.37904145172132 L-0.9151778008320409,-17.64984757723221 L-1.9380235782325568,-27.697151558368883 L-3.230039297054262,-38.40568657696754 L-4.7104739748708,-49.66018581486436 L-6.298576629255811,-61.34538245389556 L-7.913596277782941,-73.34600967589732 L-9.474781938025835,-85.54680066270588 L-10.901382627558137,-97.83248859615739 L-12.112647363953483,-110.08780665808808 L-13.027825164785526,-122.19748803033414 L-13.566165047627903,-134.04626589473176 L-13.646916030054259,-145.51887343311722 L-13.189327129638238,-156.50004382732655 L-12.112647363953483,-166.87451025919614 L-10.336125750573641,-176.52700591056202 L-7.779011307072349,-185.34226396326054 L-4.360553051023258,-193.20501759912776 L0.0,-200.0 L5.729850861569287,-206.3272583741463 L12.807453054126459,-212.45573760278734 L21.089016439416877,-218.3480520561735 L30.430750879185904,-223.96681610455522 L40.68886623517891,-229.27464411818283 L51.71957236914124,-234.23415046730662 L63.37907914281825,-238.80794952217713 L75.52359641795533,-242.95865565304464 L88.00933405629783,-246.64888323015964 L100.6925019195911,-249.84124662377235 L113.4293098695805,-252.49836020413323 L126.0759677680114,-254.58283834149267 L138.48868547662914,-256.05729540610105 L150.52367285717912,-256.88434576820873 L162.03713977140671,-257.0266037980661 L172.8852960810572,-256.4466838659235 L182.92435164787602,-255.10720034203143 L192.01051633360848,-252.9707675966401 L200.0,-250.0 L203.78001676596725,-247.52742028618061 L207.135888675474,-243.89759752016258 L210.11994643223693,-239.26003384486484 L212.7845207399726,-233.7642314032067 L215.1819423023975,-227.55969233810697 L217.36454182322822,-220.79591879248463 L219.38465000618135,-213.6224129092588 L221.29459755497356,-206.18867683134857 L223.1467151733213,-198.64421270167284 L224.9933335649411,-191.13852266315064 L226.88678343354965,-183.821108858701 L228.8793954828635,-176.84147343124306 L231.02350041659918,-170.34911852369567 L233.3714289384733,-164.49354627897796 L235.97551175220235,-159.42425884000892 L238.88807956150296,-155.29075834970757 L242.16146307009177,-152.24254695099296 L245.84799298168522,-150.42912678678408 L250.0,-150.0 L255.89007328521248,-151.30466172761268 L261.14155562007,-154.22931933552377 L265.8032474793832,-158.617308356906 L269.9239493379632,-164.31196432493206 L273.5524616706206,-171.15662277277463 L276.7375849521661,-178.99461923360627 L279.5281196574107,-187.66928924059977 L281.9728662611652,-197.02396832692784 L284.1206252382402,-206.9019920257631 L286.0201970634467,-217.1466958702782 L287.7203822115953,-227.60141539364582 L289.269981157497,-238.10948612903871 L290.7177943759625,-248.51424360962952 L292.11262234180253,-258.65902336859085 L293.503265529828,-268.38716093909545 L294.9385244148497,-277.541991854316 L296.46719947167844,-285.96685164742513 L298.13809117512494,-293.50507585159556" fill="none" stroke="black" />
</g>
<g>
<path d="M0.0,-0.0 L-0.3633794209186045,-11.766696016333983 L-1.3727667012480613,-23.383941798856046 L-2.907035367348836,-34.85378973732005 L-4.845058945581393,-46.17829222147988 L-7.065710962306198,-57.35950164108936 L-9.447864943883715,-68.39947038590238 L-11.870394416674413,-79.30025084567278 L-14.212172907038752,-90.06389541015444 L-16.352073941337203,-100.69245646910122 L-18.168971045930224,-111.18798641226698 L-19.541737747178285,-121.55253762940559 L-20.34924757144185,-131.78816251027087 L-20.47037404508139,-141.89691344461676 L-19.783990694457355,-151.880842822197 L-18.168971045930224,-161.74200303276558 L-15.504188625860463,-171.4824464660763 L-11.668516960608523,-181.10422551188304 L-6.540829576534887,-190.60939255993964 L0.0,-200.0 L7.792910131105934,-209.29042102090744 L16.120350014197417,-217.9108990124329 L24.94158705889205,-225.8490936842019 L34.215888674807445,-233.09266474583993 L43.902522271561196,-239.6292719069724 L53.96075525877091,-245.4465748772247 L64.34985504605419,-250.53223336622236 L75.02908904302865,-254.87390708359086 L85.9577246593119,-258.45925573895573 L97.0950293045215,-261.27593904194225 L108.40027038827512,-263.3116167021759 L119.83271532019032,-264.55394842928234 L131.3516315098847,-264.9905939328868 L142.9162863669759,-264.6092129226149 L154.4859473010815,-263.397465108092 L166.01988172181908,-261.3430101989436 L177.4773570388063,-258.4335079047952 L188.81764066166073,-254.65661793527212 L200.0,-250.0 L205.46955860863886,-246.6920635098949 L209.93112562146294,-242.39181106374 L213.50693524829703,-237.23601956741396 L216.319221698966,-231.3614659267958 L218.49021918329444,-224.90492704776406 L220.14216191110708,-218.00317983619746 L221.39728409222874,-210.79300119797486 L222.3778199364842,-203.41116803897506 L223.2060036536982,-195.99445726507668 L224.0040694536954,-188.67964578215853 L224.8942515463006,-181.60351049609937 L225.99878414133852,-174.90282831277796 L227.43990144863403,-168.71437613807302 L229.3398376780117,-163.17493087786335 L231.82082703929638,-158.42126943802765 L235.0051037423128,-154.59016872444477 L239.01490199688575,-151.81840564299333 L243.97245601283984,-150.24275709955214 L250.0,-150.0 L258.6346433875067,-151.355592970483 L265.9396260383569,-154.02585682804147 L272.0318868190165,-157.90700933518403 L277.0283645959519,-162.8952682544195 L281.0459982356291,-168.88685134825653 L284.20172660451396,-175.7779763792037 L286.61248856907275,-183.46486110976977 L288.3952229957717,-191.84372330246347 L289.66686875107666,-200.81078071979348 L290.54436470145373,-210.2622511242684 L291.14464971336906,-220.09435227839703 L291.5846626532888,-230.20330194468798 L291.981342387679,-240.48531788564995 L292.4516277830056,-250.83661786379162 L293.11245770573487,-261.1534196416218 L294.0807710223329,-271.3319409816489 L295.4735065992657,-281.2683996463819 L297.40760330299935,-290.85901339832935" fill="none" stroke="black" />
</g>
<g>
<path d="M0.0,-0.0 L-0.48450589455813936,-15.15435058094665 L-1.8303556016640818,-29.118036020479877 L-3.8760471564651136,-42.01042791627122 L-6.460078594108524,-53.95089786599222 L-9.4209479497416,-65.05881746731438 L-12.597153258511621,-75.4535583179092 L-15.827192555565881,-85.25449201544824 L-18.94956387605167,-94.58099015760301 L-21.802765255116274,-103.55242434204507 L-24.225294727906967,-112.28816616644588 L-26.05565032957105,-120.90758722847701 L-27.132330095255806,-129.53005912580997 L-27.293832060108517,-138.2749534561163 L-26.378654259276477,-147.26164181706747 L-24.225294727906967,-156.60949580633508 L-20.672251501147283,-166.4378870215906 L-15.558022614144697,-176.86618706050558 L-8.721106102046516,-188.01376752075151 L0.0,-200.0 L9.855969400642584,-212.2535836676686 L19.433246974268375,-223.36606042207853 L28.794157678367217,-233.35013531223038 L38.001026470428975,-242.21851338712472 L47.11617830794348,-249.98389969576203 L56.201938148400586,-256.65899928714276 L65.32063094929012,-262.25651721026765 L74.53458166810196,-266.78915851413717 L83.90611526232595,-270.2696282477518 L93.49755668945193,-272.7106314601121 L103.37123090696973,-274.12487320021864 L113.58946287236921,-274.52505851707195 L124.21457754314025,-273.9238924596726 L135.30889987677264,-272.33408007702104 L146.93475483075628,-269.7683264181179 L159.15446736258096,-266.23933653196366 L172.0303624297366,-261.75981546755895 L185.624764989713,-256.34246827390416 L200.0,-250.0 L207.15910045131048,-245.85670673360917 L212.72636256745187,-240.8860246073174 L216.8939240643572,-235.21200528996303 L219.8539226579594,-228.95870045038484 L221.79849606419137,-222.2501617574211 L222.91978199898594,-215.21044087991024 L223.40991817827617,-207.96358948669086 L223.46104231799487,-200.6336592466015 L223.26529213407508,-193.3447018284805 L223.01480534244965,-186.2207689011664 L222.90171965905148,-179.3859121334977 L223.11817279981358,-172.96418319431285 L223.85630248066883,-167.07963375245038 L225.3082464175501,-161.85631547674873 L227.6661423263904,-157.41828003604638 L231.1221279231226,-153.8895790991819 L235.86834092367968,-151.39426433499366 L242.09691904399446,-150.0563874123202 L250.0,-150.0 L261.3792134898009,-151.40652421335335 L270.7376964566438,-153.82239432055914 L278.26052615864984,-157.19671031346212 L284.1327798539407,-161.47857218390698 L288.5395348006376,-166.61707992373846 L291.6658682568618,-172.5613335248011 L293.6968574807349,-179.26043297893978 L294.8175797303782,-186.66347827799916 L295.21311226391305,-194.71956941382388 L295.0685323394608,-203.37780637825867 L294.56891721514285,-212.58728916314823 L293.89934414908066,-222.29711776033724 L293.24489039939544,-232.45639216167044 L292.7906332242087,-243.01421235899244 L292.72164988164184,-253.91967834414805 L293.22301762981607,-265.12189010898186 L294.47981372685297,-276.56994764533874 L296.6771154308738,-288.21295094506314" fill="none" stroke="black" />
</g>
<g>
<path d="M0.0,-0.0 L-0.6056323681976742,-18.54200514555931 L-2.2879445020801024,-34.852130242103705 L-4.8450589455813935,-49.16706609522239 L-8.075098242635656,-61.72350351050455 L-11.776184937177,-72.75813329353937 L-15.74644157313953,-82.50764624991602 L-19.783990694457355,-91.20873318522368 L-23.68695484506459,-99.09808490505159 L-27.253456568895338,-106.4123922149889 L-30.28161840988371,-113.38834592062477 L-32.569562911963814,-120.26263682754843 L-33.915412619069755,-127.27195574134905 L-34.11729007513565,-134.65299346761583 L-32.973317824095595,-142.64244081193792 L-30.281618409883713,-151.47698857990457 L-25.840314376434108,-161.39332757710486 L-19.447528267680873,-172.62814860912812 L-10.901382627558146,-185.4181424815634 L0.0,-200.0 L11.919028670179236,-215.21674631442974 L22.746143934339337,-228.82122183172413 L32.64672829784239,-240.8511769402588 L41.78616426605052,-251.34436202840942 L50.32983434432577,-260.3385274845516 L58.443121038030256,-267.8714236970609 L66.29140685252605,-273.98080105431285 L74.04007429317528,-278.7044099446834 L81.85450586534003,-282.0800007565479 L89.90008407438235,-284.145323878282 L98.34219142566435,-284.9381296982614 L107.34621042454813,-284.4961686048616 L117.07752357639579,-282.8571909864583 L127.70151338656939,-280.0589472314272 L139.38356236043106,-276.13918772814384 L152.28905300334284,-271.1356628649838 L166.5833678206669,-265.0861230303227 L182.4318893177652,-258.0283186125362 L200.0,-250.0 L208.8486422939821,-245.02134995732348 L215.52159951344083,-239.3802381508948 L220.28091288041733,-233.18799101251216 L223.38862361695286,-226.55593497397393 L225.10677294508832,-219.59539646707816 L225.69740208686483,-212.41770192362304 L225.4225522643235,-205.1341777754069 L224.5442646995056,-197.85615045422796 L223.324580614452,-190.69494639188434 L222.0255412312039,-183.7618920201743 L220.9091877718024,-177.16831377089602 L220.23756145828864,-171.0255380758478 L220.27270351270363,-165.44489136682773 L221.27665515708856,-160.53770007563412 L223.51145761348442,-156.41529063406517 L227.2391521039324,-153.18898947391904 L232.72177985047364,-150.97012302699403 L240.22138207514908,-149.87001772508825 L250.0,-150.0 L264.12378359209515,-151.45745545622367 L275.53576687493074,-153.6189318130768 L284.48916549828317,-156.48641129174015 L291.23719511192945,-160.06187611339442 L296.0330713656461,-164.34730849922036 L299.1300099092096,-169.34469067039856 L300.78122639239695,-175.05600484810978 L301.2399364649847,-181.48323325353482 L300.75935577674943,-188.6283581078543 L299.5926999774678,-196.4933616322489 L297.9931847169166,-205.08022604789943 L296.21402564487244,-214.3909335759865 L294.5084384111119,-224.4274664376909 L293.1296386654118,-235.19180685419323 L292.3308420575487,-246.68593704667433 L292.3652642372993,-258.91183923631485 L293.4861208544403,-271.8714956442955 L295.9466275587483,-285.56688849179693" fill="none" stroke="black" />
</g>
<g>
<path d="M0.0,-0.0 L-0.726758841837209,-21.929659710171972 L-2.7455334024961227,-40.58622446372755 L-5.814070734697672,-56.323704274173565 L-9.690117891162785,-69.4961091550169 L-14.131421924612397,-80.45744911976438 L-18.89572988776743,-89.56173418192284 L-23.740788833348827,-97.16297435499915 L-28.424345814077505,-103.61517965250017 L-32.704147882674405,-109.27236008793273 L-36.33794209186045,-114.48852567480367 L-39.08347549435657,-119.61768642661987 L-40.6984951428837,-125.01385235688815 L-40.94074809016278,-131.03103347911537 L-39.56798138891471,-138.02323980680836 L-36.33794209186045,-146.34448135347404 L-31.008377251720926,-156.34876813261917 L-23.337033921217046,-168.39011015775066 L-13.081659153069774,-182.82251744237527 L0.0,-200.0 L13.982087939715878,-218.1799089611909 L26.059040894410288,-234.27638324136973 L36.49929891731755,-248.3522185682872 L45.57130206167204,-260.4702106696942 L53.54349038070805,-270.6931552733412 L60.68430392765992,-279.0838481069789 L67.26218275576198,-285.70508489835817 L73.5455669182486,-290.61966137522967 L79.80289646835408,-293.890373265344 L86.30261145931274,-295.58001629645184 L93.31315194435896,-295.75138619630405 L101.10295797672704,-294.46727869265123 L109.94046960965133,-291.7904895132441 L120.09412689636613,-287.78381438583335 L131.83236989010584,-282.5100490381697 L145.42363864410473,-276.0319891980038 L161.13637321159717,-268.41243059308647 L179.23901364581747,-259.7141689511683 L200.0,-250.0 L210.5381841366537,-244.18599318103776 L218.31683645942977,-237.87445169447224 L223.66790169647751,-231.16397673506125 L226.92332457594625,-224.153169497563 L228.41504982598525,-216.94063117673522 L228.47502217474366,-209.62496296733585 L227.43518635037088,-202.30476606412293 L225.62748708101623,-195.07864166185442 L223.38386909482892,-188.0451909552882 L221.03627711995816,-181.30301513918215 L218.91665588455334,-174.95071540829434 L217.35695011676367,-169.0868929573827 L216.68910454473843,-163.8101489812051 L217.24506389662696,-159.21908467451954 L219.35677290057845,-155.4123012320839 L223.35617628474222,-152.4883998486562 L229.5752187772676,-150.54598171899437 L238.3458451063037,-149.6836480378563 L250.0,-150.0 L266.8683536943894,-151.50838669909402 L280.3338372932176,-153.41546930559448 L290.7178048379165,-155.77611227001822 L298.3416103699182,-158.64518004288192 L303.5266079306546,-162.0775370747023 L306.5941515615575,-166.12804781599598 L307.865595304059,-170.85157671727978 L307.6622931995912,-176.3029882290705 L306.30559928958587,-182.53714680188466 L304.11686761547486,-189.60891688623914 L301.4174522186903,-197.57316293265063 L298.5287071406642,-206.48474939163577 L295.7719864228284,-216.39854071371133 L293.4686441066149,-227.36940134939405 L291.94003423345555,-239.45219574920065 L291.5075108447825,-252.70178836364778 L292.49242798202755,-267.1730436432523 L295.21613968662274,-282.9208260385307" fill="none" stroke="black" />
</g>
<g>
<path d="M0.0,-0.0 L-0.8478853154767437,-25.31731427478464 L-3.2031223029121425,-46.320318685351374 L-6.783082523813948,-63.48034245312474 L-11.305137539689914,-77.26871479952923 L-16.486658912047794,-88.1567649459894 L-22.045018202395337,-96.61582211392967 L-27.69758697224029,-103.11721552477461 L-33.16173678309042,-108.13227439994874 L-38.15483919645347,-112.13232796087658 L-42.39426577383718,-115.58870542898258 L-45.597388076749326,-118.97273602569132 L-47.48157766669764,-122.75574897242726 L-47.76420610518989,-127.40907349061493 L-46.16264495373383,-133.40403880167884 L-42.39426577383718,-141.21197412704353 L-36.17644012700774,-151.30420868813346 L-27.226539574753215,-164.1520717063732 L-15.261935678581402,-180.22689240318718 L0.0,-200.0 L16.045147209252526,-221.14307160795204 L29.371937854481253,-239.73154465101535 L40.35186953679273,-255.8532601963157 L49.35643985729358,-269.596059310979 L56.75714641709034,-281.0477830621308 L62.925486817289595,-290.29627251689703 L68.23295865899792,-297.4293687424034 L73.05105954332191,-302.5349128057759 L77.75128707136814,-305.7007457741401 L82.70513884424315,-307.01470871462175 L88.28411246305356,-306.56464269434673 L94.85970552890595,-304.4383887804409 L102.80341564290686,-300.7237880400299 L112.48674040616288,-295.50868154023954 L124.28117741978062,-288.88091034819564 L138.55822428486658,-280.92831553102394 L155.68937860252746,-271.7387381558502 L176.0461379738697,-261.4000192898003 L200.0,-250.0 L212.2277259793253,-243.35063640475207 L221.1120734054187,-236.36866523804963 L227.05489051253764,-229.13996245761032 L230.4580255349397,-221.75040402115204 L231.72332670688223,-214.28586588639226 L231.25264226262257,-206.83222401104862 L229.4478204364183,-199.47535435283896 L226.71070946252692,-192.30113286948088 L223.44315757520584,-185.395435518692 L220.04701300871244,-178.84413825819007 L216.92412399730424,-172.7331170456927 L214.47633877523876,-167.1482478389176 L213.10550557677328,-162.17540659558244 L213.21347263616536,-157.9004692734049 L215.20208818767247,-154.40931183010264 L219.47320046555203,-151.78781022339336 L226.42865770406155,-150.1218404109947 L236.47030813745832,-149.49727835062436 L250.0,-150.0 L269.6129237966836,-151.55931794196437 L285.13190771150454,-153.21200679811218 L296.9464441775498,-155.06581324829625 L305.4460256279069,-157.22848397236936 L311.0201444956631,-159.8077656501842 L314.0582932139053,-162.9114049615934 L314.9499642157211,-166.6471485864498 L314.0846499341976,-171.12274320460614 L311.8518428024222,-176.44593549591508 L308.6410352534819,-182.72447214022938 L304.8417197204641,-190.06609981740178 L300.843388636456,-198.578565207285 L297.03553443454484,-208.36961498973182 L293.8076495478179,-219.54699584459485 L291.5492264093624,-232.21845445172693 L290.64975745226565,-246.49173749098074 L291.4987351096148,-262.4745916422091 L294.4856518144972,-280.2747635852645" fill="none" stroke="black" />
</g>
<g>
<path d="M0.0,-0.0 L-0.9690117891162787,-28.704968839397306 L-3.6607112033281637,-52.05441290697521 L-7.752094312930227,-70.63698063207592 L-12.920157188217049,-85.0413204440416 L-18.8418958994832,-95.8560807722144 L-25.194306517023243,-103.6699100459365 L-31.654385111131763,-109.07145669455006 L-37.89912775210334,-112.64936914739732 L-43.60553051023255,-114.9922958338204 L-48.45058945581393,-116.6888851831615 L-52.1113006591421,-118.32778562476273 L-54.26466019051161,-120.49764558796636 L-54.587664120217035,-123.78711350211448 L-52.757308518552954,-128.7848377965493 L-48.45058945581393,-136.079466900613 L-41.344503002294566,-146.25964924364774 L-31.116045228289394,-159.91403325499573 L-17.442212204093032,-177.63126736399906 L0.0,-200.0 L18.108206478789175,-224.1062342547132 L32.6848348145522,-245.1867060606609 L44.20444015626789,-263.3543018243441 L53.1415776529151,-278.7219079522637 L59.970802453472615,-291.4024108509204 L65.16666970691925,-301.50869692681505 L69.20373456223385,-309.1536525864487 L72.55655216839521,-314.4501642363221 L75.6996776743822,-317.51111828293614 L79.10766622917357,-318.44940113279165 L83.25507298174819,-317.3778991923894 L88.61645308108484,-314.4094988682305 L95.66636167616241,-309.6570865668156 L104.87935391595963,-303.23354869464566 L116.7299849494554,-295.2517716582215 L131.69280992562847,-285.824641864044 L150.24238399345776,-275.065045718614 L172.85326230192194,-263.08586962843236 L200.0,-250.0 L213.91726782199692,-242.51527962846635 L223.90731035140763,-234.86287878162707 L230.4418793285978,-227.11594818015945 L233.9927264939331,-219.34763854474113 L235.03160358777913,-211.63110059604935 L234.0302623505014,-204.03948505476146 L231.46045452246565,-196.64594264155497 L227.7939318440376,-189.5236240771073 L223.50244605558277,-182.74568008209584 L219.0577488974667,-176.38526137719796 L214.93159211005516,-170.51551868309102 L211.59572743371376,-165.20960272045252 L209.52190660880808,-160.5406642099598 L209.1818813757038,-156.5818538722903 L211.0474034747665,-153.40632242812137 L215.59022464636183,-151.0872205981305 L223.28209663085548,-149.69769910299505 L234.59477116861294,-149.3109086633924 L250.0,-150.0 L272.35749389897785,-151.6102491848347 L289.92997812979144,-153.00854429062986 L303.1750835171831,-154.35551422657431 L312.5504408858957,-155.8117879018568 L318.5136810606716,-157.5379942256661 L321.52243486625315,-159.69476210719083 L322.03433312738315,-162.4427204556198 L320.50700666880414,-165.94249818014177 L317.39808631525864,-170.3547241899455 L313.165202891489,-175.84002739421962 L308.26598722223787,-182.55903670215298 L303.1580701322478,-190.67238102293427 L298.2990824462613,-200.34068926575227 L294.146654989021,-211.72459033979564 L291.1584185852693,-224.98471315425323 L289.7920040597488,-240.2816866183137 L290.50504223720213,-257.77613964116586 L293.75516394237167,-277.62870113199835" fill="none" stroke="black" />
</g>
<g>
<path d="M0.0,-0.0 L-1.0901382627558136,-32.09262340400997 L-4.118300103744184,-57.78850712859904 L-8.721106102046507,-77.79361881102707 L-14.53517683674418,-92.81392608855393 L-21.197132886918595,-103.55539659843942 L-28.34359483165115,-110.72399797794331 L-35.61118325002323,-115.02569786432554 L-42.63651872111626,-117.1664638948459 L-49.056221824011615,-117.85226370676426 L-54.506913137790676,-117.78906493734038 L-58.625213241534865,-117.68283522383418 L-61.04774271432556,-118.23954220350544 L-61.411122135244156,-120.16515351361403 L-59.35197208337207,-124.16563679141976 L-54.50691313779068,-130.9469596741825 L-46.51256587758139,-141.21508979916203 L-35.00555088182557,-155.67599480361827 L-19.62248872960466,-175.03564232481094 L0.0,-200.0 L20.171265748325826,-227.06939690147433 L35.997731774623155,-250.64186747030655 L48.05701077574306,-270.85534345237255 L56.92671544853663,-287.84775659354847 L63.18445848985491,-301.75703863971006 L67.40785259654892,-312.7211213367332 L70.17451046546978,-320.877936430494 L72.06204479346854,-326.36541566686844 L73.64806827739625,-329.32149079173223 L75.51019361410398,-329.88409355096155 L78.2260335004428,-328.1911556904322 L82.37320063326376,-324.38060895602024 L88.52930770941795,-318.5903850936014 L97.27196742575639,-310.95841584905185 L109.17879247913018,-301.62263296824744 L124.82739556639036,-290.72096819706405 L144.79538938438805,-278.3913532813778 L169.6603866299742,-264.7717199670644 L200.0,-250.0 L215.60680966466856,-241.67992285218065 L226.70254729739656,-233.35709232520446 L233.82886814465792,-225.09193390270855 L237.52742745292653,-216.94487306833017 L238.33988046867609,-208.97633530570639 L236.80788243838026,-201.24674609847423 L233.47308860851302,-193.816530930271 L228.87715422554825,-186.7461152847338 L223.56173453595966,-180.09592464549968 L218.06848478622095,-173.92638449620583 L212.93906022280606,-168.29792032048937 L208.71511609218882,-163.27095760198745 L205.9383076408429,-158.90592182433716 L205.15029011524223,-155.26323847117567 L206.89271876186052,-152.40333302614013 L211.70724882717167,-150.38663097286766 L220.13553555764943,-149.2735577949954 L232.71923419976756,-149.12453897616047 L250.0,-150.0 L275.1020640012721,-151.66118042770503 L294.7280485480783,-152.80508178314756 L309.4037228568164,-153.64521520485238 L319.6548561438844,-154.3950918313443 L326.00721762567997,-155.26822280114803 L328.986576518601,-156.47811925278825 L329.1187020390452,-158.2382923247898 L326.92936340341066,-160.76225315567743 L322.94432982809496,-164.2635128839759 L317.689370529496,-168.95558264820986 L311.6902547240116,-175.05197358690418 L305.4727516280396,-182.76619683858354 L299.5626304579778,-192.31176354177273 L294.485660430224,-203.90218483499646 L290.76761076117623,-217.75097185677953 L288.93425066723205,-234.07163574564663 L289.5113493647894,-253.07768764012263 L293.0246760702461,-274.98263867873214" fill="none" stroke="black" />
</g>
<g>
<path d="M0.0,-0.0 L-1.2112647363953484,-35.48027796862263 L-4.575889004160205,-63.52260135022288 L-9.690117891162787,-84.95025698997826 L-16.150196485271312,-100.58653173306625 L-23.552369874354,-111.2547124246644 L-31.49288314627906,-117.77808590995014 L-39.56798138891471,-120.97993903410098 L-47.37390969012918,-121.68355864229449 L-54.506913137790676,-120.71223157970809 L-60.56323681976742,-118.88924469151928 L-65.13912582392763,-117.03788482290558 L-67.83082523813951,-115.98143881904451 L-68.2345801502713,-116.54319352511357 L-65.94663564819119,-119.5464357862902 L-60.563236819767425,-125.81445244775196 L-51.680628752868216,-136.17053035467632 L-38.895056535361746,-151.43795635224078 L-21.80276525511629,-172.44001728562282 L0.0,-200.0 L22.234325017862478,-230.0325595482355 L39.31062873469412,-256.0970288799522 L51.90958139521825,-278.3563850804009 L60.711853244158185,-296.9736052348332 L66.3981145262372,-312.11166642849963 L69.6490354861786,-323.93354574665125 L71.14528636870571,-332.6022202745392 L71.56753741854186,-338.28066709741466 L71.59645888041032,-341.1318633005284 L71.9127209990344,-341.31878596913145 L73.1969940191374,-339.0044121884749 L76.12994818544269,-334.35171904380985 L81.39225374267349,-327.52368362038715 L89.66458093555313,-318.68328300345803 L101.62760000880498,-307.9934942782733 L117.96198120715223,-295.6172945300841 L139.34839477531833,-281.71766084414156 L166.46751095802642,-266.4575703056965 L200.0,-250.0 L217.29635150734015,-240.84456607589493 L229.49778424338552,-231.8513058687819 L237.21585696071807,-223.06791962525764 L241.06212841191999,-214.54210759191926 L241.648157349573,-206.32157001536348 L239.58550252625915,-198.45400714218704 L235.48572269456045,-190.987119218987 L229.96037660705895,-183.96860649236027 L223.62102301633658,-177.4461692089035 L217.07922067497523,-171.4675076152137 L210.946528335557,-166.08032195788766 L205.83450475066385,-161.33231248352234 L202.35470867287773,-157.2711794387145 L201.11869885478063,-153.94462307006108 L202.73803404895455,-151.4003436241589 L207.82427300798145,-149.68604134760483 L216.9889744844434,-148.84941648699575 L230.84369723092217,-148.93816928892852 L250.0,-150.0 L277.8466341035663,-151.71211167057535 L299.5261189663653,-152.60161927566523 L315.6323621964497,-152.9349161831304 L326.75927140187315,-152.97839576083175 L333.50075419068855,-152.99845137662993 L336.4507181709488,-153.26147639838567 L336.20307095070734,-154.0338641939598 L333.3517201380172,-155.5820081312131 L328.4905733409314,-158.17230157800628 L322.21353816750303,-162.0711379022001 L315.1145222257853,-167.54491047165536 L307.7874331238314,-174.8600126542328 L300.82617846969424,-184.2828378177932 L294.8246658714271,-196.07977933019725 L290.3768029370831,-210.51723055930583 L288.0764972747152,-227.8615848729796 L288.51765649237666,-248.3792356390794 L292.29418819812054,-272.33657622546593" fill="none" stroke="black" />
</g>
<g>
<path d="M0.0,-0.0 L-1.332391210034883,-38.8679325332353 L-5.033477904576225,-69.25669557184672 L-10.659129680279063,-92.10689516892943 L-17.76521613379844,-108.3591373775786 L-25.907606861789393,-118.95402825088942 L-34.64217146090696,-124.83217384195696 L-43.524779527806174,-126.93418020387645 L-52.111300659142096,-126.20065338974304 L-59.95760445156974,-123.57219945265194 L-66.61956050174415,-119.9894244456982 L-71.65303840632038,-116.39293442197705 L-74.61390776195344,-113.72333543458365 L-75.05803816529841,-112.92123353661313 L-72.5412992130103,-114.92723478116066 L-66.61956050174415,-120.68194522132146 L-56.84869162815502,-131.1259709101906 L-42.78456218889791,-147.1999179008633 L-23.983041780627918,-169.8443922464347 L0.0,-200.0 L24.297384287399122,-232.9957221949966 L42.62352569476508,-261.5521902895977 L55.762152014693406,-285.85742670842933 L64.49699103977969,-306.0994538761179 L69.61177056261947,-322.46629421728915 L71.89021837580825,-335.14597015656926 L72.11606227194163,-344.32650411858447 L71.07303004361515,-350.1959185279608 L69.54484948342434,-352.9422358093244 L68.31524838396479,-352.75347838730124 L68.167954537832,-349.8176686865175 L69.88669573762157,-344.32282913159946 L74.25519977592899,-336.45698214717294 L82.05719444534985,-326.4081501578641 L94.07640753847973,-314.3643555882992 L111.09656684791409,-300.5136208631042 L133.9014001662486,-285.0439684069053 L163.27463528607868,-268.1434206443285 L200.0,-250.0 L218.98589335001176,-240.00920929960924 L232.29302118937443,-230.3455194123593 L240.60284577677825,-221.0439053478067 L244.59682937091338,-212.13934211550833 L244.95643423046994,-203.6668047250205 L242.363122614138,-195.66126818589987 L237.49835678060785,-188.15770750770307 L231.0435989885696,-181.19109769998673 L223.68031149671344,-174.79641377230737 L216.0899565637295,-169.0086307342216 L208.95399644830792,-163.86272359528604 L202.95389340913889,-159.39366736505727 L198.77110970491253,-155.63643705309187 L197.08710759431904,-152.62600766894647 L198.58334933604857,-150.39735422217763 L203.94129718879128,-148.985451722342 L213.84241341123735,-148.42527517899612 L228.9681602620768,-148.75179960169658 L250.0,-150.0 L280.59120420586055,-151.76304291344567 L304.32418938465213,-152.39815676818293 L321.86100153608305,-152.22461716140847 L333.86368665986197,-151.5616996903192 L340.994290755697,-150.72867995211186 L343.9148598232967,-150.04483354398312 L343.2874398623694,-149.8294360631298 L339.7740768726237,-150.40176310674875 L334.03681685376785,-152.08109027203668 L326.73770580551013,-155.18669315619033 L318.5387897275591,-160.03784735640656 L310.1021146196232,-166.95382846988207 L302.08972648141076,-176.25391209381365 L295.16367131263024,-188.25737382539808 L289.98599511298994,-203.28348926183213 L287.2187438821984,-221.65153400031255 L287.523963619964,-243.6807836380362 L291.563700325995,-269.6905137721997" fill="none" stroke="black" />
</g>
<g>
<path d="M0.0,-0.0 L-1.453517683674418,-42.25558709784796 L-5.491066804992245,-74.99078979347055 L-11.628141469395343,-99.2635333478806 L-19.38023578232557,-116.13174302209096 L-28.262843849224794,-126.65334407711441 L-37.79145977553486,-131.88626177396375 L-47.48157766669765,-132.8884213736519 L-56.84869162815501,-130.71774813719162 L-65.40829576534881,-126.43216732559577 L-72.6758841837209,-121.08960419987707 L-78.16695098871314,-115.74798402104845 L-81.3969902857674,-111.46523205012272 L-81.88149618032556,-109.29927354811267 L-79.13596277782942,-110.30803377603111 L-72.6758841837209,-115.54943799489092 L-62.01675450344185,-126.08141146570487 L-46.67406784243409,-142.96187944948585 L-26.163318306139548,-167.24876720724657 L0.0,-200.0 L26.360443556935763,-235.95888484175777 L45.93642265483603,-267.0073516992434 L59.61472263416857,-293.3584683364578 L68.28212883540124,-315.22530251740267 L72.82542659900176,-332.8209220060788 L74.13140126543793,-346.35839456648733 L73.08683817517756,-356.0507879626297 L70.57852266868848,-362.1111699585071 L67.49324008643845,-364.7526083181205 L64.71777576889521,-364.18817080547115 L63.138915056526635,-360.6309251845602 L63.643443289800494,-354.29393921938913 L67.11814580918457,-345.39028067395867 L74.44980795514664,-334.13301731227034 L86.52521506815454,-320.7352168983252 L104.23115248867599,-305.40994719612434 L128.45440555717892,-288.3702759696691 L160.08175961413093,-269.82927098296057 L200.0,-250.0 L220.67543519268338,-239.17385252332355 L235.08825813536342,-228.83973295593674 L243.98983459283838,-219.01989107035584 L248.13153032990678,-209.7365766390974 L248.26471111136686,-201.0120394346776 L245.14074270201687,-192.86852922961265 L239.51099086665522,-185.3282957964191 L232.12682137008028,-178.4135889076132 L223.7395999770904,-172.1466583357112 L215.10069245248374,-166.54975385322948 L206.96146456105882,-161.64512523268436 L200.07328206761392,-157.4550222465922 L195.1875107369474,-154.00169466746922 L193.0555163338575,-151.30739226783186 L194.4286646231426,-149.39436482019642 L200.05832136960106,-148.28486209707916 L210.6958523380313,-148.00113387099645 L227.0926232932314,-148.56542991446463 L250.0,-150.0 L283.3357743081548,-151.81397415631602 L309.122259802939,-152.1946942607006 L328.0896408757163,-151.51431813968654 L340.9681019178507,-150.1450036198067 L348.4878273207056,-148.45890852759376 L351.37900147564454,-146.82819068958054 L350.37180877403154,-145.6250079322998 L346.19643360723023,-145.22151808228443 L339.5830603666042,-145.9898789660671 L331.2618734435172,-148.3022484101806 L321.9630572293329,-152.53078424115773 L312.41679611541497,-159.04764428553133 L303.35327449312723,-168.2249863698341 L295.50267675383327,-180.43496832059884 L289.5951872888968,-196.0497479643584 L286.36099048968157,-215.44148312764548 L286.53027074755124,-238.98233163699297 L290.83321245386946,-267.0444513189335" fill="none" stroke="black" />
</g>
<g>
<path d="M0.0,-0.0 L-1.5746441573139527,-45.643241662460625 L-5.948655705408266,-80.72488401509437 L-12.59715325851162,-106.42017152683177 L-20.995255430852698,-123.9043486666033 L-30.61808083666019,-134.35265990333946 L-40.940748090162764,-138.94034970597062 L-51.43837580558911,-138.84266254342737 L-61.58608259716793,-135.2348428846402 L-70.85898707912789,-129.2921351985396 L-78.73220786569763,-122.18978395405598 L-84.6808635711059,-115.1030336201199 L-88.18007280958135,-109.20712866566183 L-88.70495419535266,-105.67731355961222 L-85.73062634264855,-105.68883277090157 L-78.73220786569763,-110.41693076846042 L-67.18481737872867,-121.03685202121918 L-50.56357349597026,-138.7238409981084 L-28.343594831651174,-164.65314216805845 L0.0,-200.0 L28.423502826472422,-238.9220474885189 L49.249319614906995,-272.4625131088889 L63.46729325364374,-300.8595099644862 L72.06726663102278,-324.3511511586874 L76.03908263538406,-343.17554979486846 L76.37258415506761,-357.5708189764054 L74.05761407841351,-367.775071806675 L70.0840152937618,-374.0264213890533 L65.4416306894525,-376.5629808269166 L61.120303153825645,-375.62286322364105 L58.10987557522126,-371.44418168260296 L57.400190841979416,-364.26504930717874 L59.98109184244011,-354.32357920074446 L66.84242146494338,-341.85788446667647 L78.97402259782933,-327.10607820835105 L97.36573812943787,-310.3062735291444 L123.0074109481092,-291.69658353243284 L156.88888394218316,-271.51512132159263 L200.0,-250.0 L222.36497703535497,-238.33849574703783 L237.88349508135235,-227.33394649951413 L247.37682340889853,-216.9958767929049 L251.66623128890024,-207.33381116268646 L251.57298799226382,-198.35727414433464 L247.91836278989575,-190.07579027332548 L241.52362495270262,-182.4988840851351 L233.21004375159097,-175.63608011523962 L223.7988884574673,-169.496902899115 L214.11142834123802,-164.09087697223734 L204.96893267380975,-159.4275268700827 L197.192670726089,-155.5163771281271 L191.6039117689822,-152.36695228184658 L189.0239250733959,-149.98877686671725 L190.27397991023665,-148.39137541821515 L196.1753455504109,-147.5842724718163 L207.54929126482523,-147.5769925629968 L225.21708632438603,-148.37906022723269 L250.0,-150.0 L286.08034441044896,-151.86490539918637 L313.920330221226,-151.99123175321827 L334.3182802153496,-150.80401911796457 L348.0725171758394,-148.72830754929416 L355.981363885714,-146.1891371030757 L358.84314312799233,-143.61154783517796 L357.4561776856935,-141.4205798014698 L352.6187903418367,-140.04127305782012 L345.12930387944056,-139.8986676600975 L335.78604108152416,-141.41780366417083 L325.38732473110656,-145.02372112590893 L314.73147761120674,-151.1414601011806 L304.61682250484364,-160.19606064585457 L295.84168219503636,-172.61256281579966 L289.2043794648037,-188.81600666688473 L285.50323709716474,-209.23143225497844 L285.5365778751385,-234.28387963594977 L290.1027245817439,-264.3983888656673" fill="none" stroke="black" />
</g>
<g>
<path d="M0.0,-0.0 L-1.6957706309534875,-49.03089622707329 L-6.406244605824285,-86.45897823671822 L-13.566165047627896,-113.57680970578295 L-22.61027507937983,-131.67695431111562 L-32.97331782409559,-142.05197572956445 L-44.09003640479067,-145.99443763797743 L-55.39517394448058,-144.79690371320282 L-66.32347356618084,-139.75193763208875 L-76.30967839290695,-132.15210307148342 L-84.78853154767437,-123.2899637082349 L-91.19477615349865,-114.45808321919134 L-94.96315533339528,-106.94902528120093 L-95.52841221037978,-102.05535357111177 L-92.32528990746766,-101.06963176577203 L-84.78853154767437,-105.2844235420299 L-72.35288025401547,-115.99229257673346 L-54.45307914950643,-134.48580254673092 L-30.523871357162804,-162.05751712887033 L0.0,-200.0 L30.486562096009067,-241.8852101352801 L52.56221657497795,-277.91767451853457 L67.31986387311892,-308.3605515925147 L75.85240442664431,-333.4769997999722 L79.25273867176634,-353.5301775836581 L78.61376704469728,-368.78324338632353 L75.02838998164944,-379.49935565072036 L69.58950791883511,-385.94167281959966 L63.39002129246656,-388.37335333571275 L57.52283053875604,-387.05755564181095 L53.08083609391585,-382.2574381806457 L51.15693839415832,-374.23615939496847 L52.84403787569563,-363.25687772753025 L59.23503497474011,-349.58275162108265 L71.42283012750408,-333.4769395183769 L90.50032377019974,-315.2025998621645 L117.56041633903948,-295.02289109519666 L153.6960082702354,-273.2009716602247 L200.0,-250.0 L224.0545188780266,-237.5031389707521 L240.67873202734128,-225.82816004309157 L250.76381222495866,-214.971862515454 L255.2009322478937,-204.9310456862755 L254.88126487316077,-195.7025088539917 L250.6959828777746,-187.28305131703826 L243.53625903875,-179.66947237385114 L234.29326613310164,-172.8585713228661 L223.8581769378442,-166.84714746251888 L213.1221642299923,-161.63200009124526 L202.97640078656065,-157.209928507481 L194.31205938456404,-153.577732009662 L188.02031280101698,-150.73220989622394 L184.99233381293436,-148.67016146560263 L186.11929519733067,-147.38838601623388 L192.2923697312207,-146.88368284655346 L204.40273019161918,-147.15285125499713 L223.34154935554065,-148.19269054000074 L250.0,-150.0 L288.82491451274325,-151.9158366420567 L318.7184006395128,-151.78776924573594 L340.5469195549829,-150.09372009624266 L355.17693243382814,-147.3116114787816 L363.4749004507225,-143.91936567855763 L366.3072847803402,-140.39490498077538 L364.54054659735556,-137.21615167063982 L359.0411470764431,-134.86102803335575 L350.67554739227694,-133.80745635412788 L340.3102087195312,-134.53335891816107 L328.8115922328803,-137.5166580106601 L317.0461591069985,-143.23527591682986 L305.8803705165601,-152.16713492187503 L296.1806876362394,-164.79015731100046 L288.8135716407106,-181.582265369411 L284.645483704648,-203.0213813823114 L284.5428850027258,-229.58542763490652 L289.3722367096184,-261.7523264124011" fill="none" stroke="black" />
</g>
<g>
<path d="M0.0,-0.0 L-1.8168971045930224,-52.41855079168596 L-6.863833506240307,-92.19307245834206 L-14.53517683674418,-120.73344788473409 L-24.225294727906967,-139.449559955628 L-35.32855481153099,-149.75129155578944 L-47.23932471941858,-153.04852556998426 L-59.35197208337207,-150.75114488297825 L-71.06086453519377,-144.26903237953735 L-81.76036970668603,-135.01207094442725 L-90.84485522965113,-124.39014346241377 L-97.70868873589144,-113.81313281826273 L-101.74623785720927,-104.69092189673998 L-102.35187022540694,-98.43339358261127 L-98.91995347228678,-96.45043076064246 L-90.84485522965113,-100.15191631559935 L-77.52094312930232,-110.94773313224772 L-58.34258480304262,-130.24776409535343 L-32.704147882674434,-159.4618920896822 L0.0,-200.0 L32.54962136554572,-244.8483727820412 L55.8751135350489,-283.37283592818017 L71.17243449259409,-315.8615932205431 L79.63754222226582,-342.60284844125687 L82.46639470814861,-363.8848053724476 L80.85494993432695,-379.9956677962416 L75.99916588488536,-391.22363949476556 L69.09500054390843,-397.8569242501458 L61.33841189548062,-400.1837258445088 L53.92535792368645,-398.49224805998074 L48.051796612610474,-393.0706946786884 L44.91368594633722,-384.207269482758 L45.706983908951166,-372.19017625431593 L51.62764848453687,-357.3076187754888 L63.871637657178866,-339.8478008284028 L83.63490941096163,-320.09892619518456 L112.11342172996976,-298.3491986579604 L150.50313259828764,-274.8868219988567 L200.0,-250.0 L225.74406072069823,-236.6677821944664 L243.47396897333024,-224.32237358666896 L254.15080104101884,-212.9478482380031 L258.73563320688714,-202.52828020986456 L258.1895417540577,-193.04774356364877 L253.4736029656535,-184.49031236075106 L245.54889312479742,-176.84006066256714 L235.37648851461233,-170.08106253049257 L223.91746541822113,-164.1973920259227 L212.1329001187466,-159.17312321025312 L200.98386889931157,-154.99233014487933 L191.43144804303907,-151.63908689119694 L184.43671383305184,-149.0974675106013 L180.96074255247277,-147.35154606448802 L181.9646104844247,-146.3853966142526 L188.4093939120305,-146.1830932212906 L201.25616911841314,-146.7287099469975 L221.46601238669527,-148.00632085276877 L250.0,-150.0 L291.5694846150375,-151.966767884927 L323.5164710577998,-151.58430673825364 L346.77555889461627,-149.3834210745207 L362.28134769181685,-145.89491540826907 L370.96843701573096,-141.64959425403953 L373.771426432688,-137.17826212637283 L371.6249155090177,-133.01172353980982 L365.46350381104963,-129.6807830088914 L356.22179090511327,-127.71624504815831 L344.83437635753825,-127.64891417215134 L332.235859734654,-130.00959489541134 L319.3608406027904,-135.32909173247913 L307.1439185282767,-144.13820919789552 L296.51969307744247,-156.9677518062013 L288.4227638166175,-174.34852407193733 L283.7877303121311,-196.81133050964436 L283.5491921303131,-224.88697563386333 L288.64174883749286,-259.1062639591349" fill="none" stroke="black" />
</g>
<g>
<path d="M0.0,-0.0 L-1.9380235782325574,-55.806205356298626 L-7.321422406656327,-97.92716667996588 L-15.504188625860454,-127.89008606368529 L-25.840314376434097,-147.22216560014036 L-37.6837917989664,-157.45060738201448 L-50.388613034046486,-160.1026135019911 L-63.308770222263526,-156.70538605275374 L-75.79825550420668,-148.78612712698592 L-87.2110610204651,-137.8720388173711 L-96.90117891162787,-125.49032321659271 L-104.2226013182842,-113.16818241733418 L-108.52932038102323,-102.43281851227911 L-109.17532824043407,-94.81143359411087 L-105.51461703710591,-91.83122975551294 L-96.90117891162787,-95.01940908916887 L-82.68900600458913,-105.90317368776203 L-62.23209045657879,-126.009725643976 L-34.884424408186064,-156.8662670504941 L0.0,-200.0 L34.61268063508237,-247.81153542880236 L59.18801049511986,-288.8279973378257 L75.02500511206925,-323.36263484857153 L83.42268001788736,-351.7286970825416 L85.68005074453089,-374.2394331612372 L83.09613282395662,-391.2080922061596 L76.9699417881213,-402.94792333881077 L68.60049316898173,-409.77217568069204 L59.28680249849468,-411.9940983533049 L50.32788530861687,-409.92694047815064 L43.022757131305084,-403.88395117673116 L38.670433498516125,-394.17837957054763 L38.56992994220672,-381.1234747811018 L44.02026199433363,-365.0324859298949 L56.32044518685367,-346.2186621384287 L76.76949505172351,-324.9952525282047 L106.66642712090005,-301.6755062207242 L147.3102569263399,-276.57267233748877 L200.0,-250.0 L227.43360256336985,-235.8324254181807 L246.26920591931915,-222.81658713024638 L257.53778985707896,-210.9238339605522 L262.2703341658805,-200.12551473345366 L261.4978186349546,-190.39297827330583 L256.2512230535323,-181.6975734044639 L247.56152721084476,-174.0106489512832 L236.459710896123,-167.30355373811904 L223.97675389859802,-161.54763658932654 L211.14363600750085,-156.71424632926102 L198.99133701206247,-152.7747317822777 L188.55083670151416,-149.70044177273184 L180.85311486508664,-147.46272512497865 L176.92915129201117,-146.0329306633734 L177.80992577151875,-145.38240721227137 L184.52641809284034,-145.48250359602775 L198.1096080452071,-146.30456863899786 L219.5904754178499,-147.81995116553682 L250.0,-150.0 L294.3140547173317,-152.01769912779736 L328.3145414760867,-151.38084423077132 L353.00419823424954,-148.67312205279876 L369.38576294980567,-144.4782193377565 L378.4619735807395,-139.37982282952146 L381.2355680850358,-133.96161927197025 L378.70928442067975,-128.80729540897983 L371.8858605456562,-124.50053798442704 L361.7680344179497,-121.62503374218868 L349.3585439955453,-120.76446942614155 L335.6601272364278,-122.5025317801625 L321.6755220985822,-127.42290754812836 L308.4074665399931,-136.10928347391595 L296.85869851864555,-149.14534630140207 L288.03195599252433,-167.1147827744636 L282.9299769196143,-190.6012796369773 L282.55549925790035,-220.1885236328201 L287.9112609653673,-256.46020150586867" fill="none" stroke="black" />
</g>
<g>
<path d="M0.0,-0.0 L-2.059150051872092,-59.19385992091128 L-7.779011307072347,-103.66126090158971 L-16.473200414976734,-135.04672424263643 L-27.45533402496123,-154.99477124465264 L-40.03902878640179,-165.14992320823947 L-53.53790134867439,-167.1567014339979 L-67.265568361155,-162.65962722252917 L-80.5356464732196,-153.30322187443446 L-92.66175233424416,-140.73200669031493 L-102.9575025936046,-126.59050297077155 L-110.73651390067695,-112.5232320164056 L-115.31240290483716,-100.17471512781819 L-115.99878625546118,-91.18947360561037 L-112.10928060192502,-87.2120287503834 L-102.95750259360462,-89.88690186273831 L-87.85706887987595,-100.85861424327629 L-66.12159611011495,-121.7716871925985 L-37.064700933697694,-154.27064201130597 L0.0,-200.0 L36.67573990461902,-250.7746980755635 L62.500907455190834,-294.2831587474713 L78.87757573154443,-330.8636764766 L87.20781781350891,-360.8545457238264 L88.89370678091319,-384.59406095002674 L85.33731571358629,-402.42051661607775 L77.94071769135724,-414.672207182856 L68.10598579405506,-421.68742711123826 L57.23519310150872,-423.80447086210097 L46.73041269354728,-421.36163289632054 L37.99371764999968,-414.6972076747738 L32.42718105069503,-404.14948965833725 L31.43287597546223,-390.05677330788745 L36.412875504130355,-372.75735308430103 L48.76925271652843,-352.58952344845466 L69.90408069248537,-329.8915788612247 L101.21943251183032,-305.00181378348793 L144.11738125439211,-278.25852267612083 L200.0,-250.0 L229.12314440604143,-234.99706864189497 L249.06444286530805,-221.31080067382376 L260.9247786731391,-208.8998196831013 L265.80503512487394,-197.72274925704272 L264.80609551585155,-187.7382129829629 L259.0288431414112,-178.90483444817664 L249.57416129689213,-171.18123723999923 L237.5429332776337,-164.52604494574547 L224.03604237897497,-158.89788115273038 L210.15437189625507,-154.2553694482689 L196.99880512481337,-150.55713341967603 L185.6702253599892,-147.76179665426673 L177.26951589712147,-145.827982739356 L172.89756003154963,-144.7143152622588 L173.65524105861277,-144.37941781029014 L180.64344227365012,-144.78191397076492 L194.96304697200105,-145.8804273309982 L217.71493844900453,-147.63358147830488 L250.0,-150.0 L297.05862481962595,-152.0686303706677 L333.1126118943736,-151.17738172328902 L359.23283757388293,-147.96282303107682 L376.49017820779443,-143.06152326724398 L385.955510145748,-137.11005140500333 L388.6997097373837,-130.74497641756767 L385.7936533323419,-124.60286727814983 L378.3082172802627,-119.32029295996269 L367.31427793078615,-115.5338224362191 L353.88271163355245,-113.88002468013178 L339.08439473820164,-114.9954686649137 L323.99020359437407,-119.51672336377763 L309.6710145517096,-128.0803577499364 L297.19770395984864,-141.3229407966029 L287.6411481684312,-159.8810414769899 L282.07222352709755,-184.39122876431026 L281.56180638548767,-215.49007163177689 L287.1807730932417,-253.81413905260246" fill="none" stroke="black" />
</g>
<g>
<path d="M0.0,-0.0 L-2.180276525511627,-62.58151448552395 L-8.236600207488369,-109.39535512321355 L-17.442212204093014,-142.2033624215876 L-29.07035367348836,-162.767376889165 L-42.39426577383719,-172.8492390344645 L-56.6871896633023,-174.21078936600472 L-71.22236650004646,-168.61386839230468 L-85.27303744223252,-157.82031662188308 L-98.11244364802323,-143.5919745632588 L-109.01382627558135,-127.69068272495049 L-117.25042648306973,-111.87828161547705 L-122.09548542865112,-97.91661174335732 L-122.82224427048831,-87.56751361710997 L-118.70394416674414,-82.59282774525387 L-109.01382627558137,-84.75439463630784 L-93.02513175516277,-95.81405479879061 L-70.01110176365114,-117.53364874122106 L-39.24497745920932,-151.67501697211787 L0.0,-200.0 L38.738799174155666,-253.73786072232465 L65.81380441526177,-299.73832015711696 L82.73014635101958,-338.3647181046284 L90.99295560913042,-369.9803943651112 L92.10736281729547,-394.94868873881643 L87.57849860321596,-413.6329410259959 L78.91149359459317,-426.3964910269014 L67.61147841912837,-433.6026785417846 L55.18358370452281,-435.61484337089706 L43.1329400784777,-432.79632531449045 L32.964678168694306,-425.5104641728165 L26.183928602873955,-414.120599746127 L24.295822008717813,-398.9900718346733 L28.805489013927136,-380.48222023870727 L41.21806024620323,-358.96038475848053 L63.038666333247264,-334.7879051942448 L95.77243790276063,-308.3281213462517 L140.9245055824444,-279.94437301475284 L200.0,-250.0 L230.81268624871308,-234.16171186560928 L251.859679811297,-219.80501421740118 L264.31176748919927,-206.87580540565037 L269.33973608386736,-195.31998378063176 L268.11437239674854,-185.08344769261993 L261.8064632292901,-176.11209549188948 L251.58679538293958,-168.3518255287152 L238.62615565914436,-161.74853615337196 L224.09533085935186,-156.2481257161342 L209.1651077850094,-151.79649256727677 L195.00627323756433,-148.33953505707433 L182.78961401846425,-145.82315153580163 L173.6859169291563,-144.19324035373336 L168.86596877108803,-143.39569986114418 L169.5005563457068,-143.37642840830887 L176.76046645445996,-144.08132434550208 L191.816485898795,-145.45628602299854 L215.83940148015915,-147.44721179107293 L250.0,-150.0 L299.8031949219201,-152.11956161353805 L337.9106823126605,-150.97391921580672 L365.4614769135162,-147.25252400935486 L383.5945934657831,-141.64482719673148 L393.4490467107565,-134.8402799804853 L396.16385138973146,-127.52833356316512 L392.8780222440039,-120.39843914731983 L384.73057401486915,-114.14004793549834 L372.8605214436225,-109.44261113024949 L358.40687927155943,-106.99557993412202 L342.50866223997537,-107.48840554966489 L326.3048850901658,-111.6105391794269 L310.934562563426,-120.05143202595688 L297.53670940105167,-133.5005352918037 L287.2503403443381,-152.6473001795162 L281.21447013458067,-178.1811778916432 L280.56811351307493,-210.79161963073366 L286.4502852211162,-251.16807659933625" fill="none" stroke="black" />
</g>
<g>
<path d="M0.0,-0.0 L-2.3014029991511613,-65.9691690501366 L-8.694189107904387,-115.1294493448374 L-18.41122399320929,-149.36000060053877 L-30.685373322015487,-170.53998253367737 L-44.74950276127259,-180.54855486068945 L-59.836477977930194,-181.26487729801156 L-75.17916463893792,-174.5681095620801 L-90.01042841124543,-162.33741136933165 L-103.56313496180229,-146.45194243620264 L-115.07014995755806,-128.7908624791294 L-123.76433906546248,-111.23333121454847 L-128.87856795246506,-95.6585083588964 L-129.64570228551543,-83.94555362860949 L-125.29860773156327,-77.97362674012432 L-115.07014995755809,-79.6218874098773 L-98.19319463044958,-90.7694953543049 L-73.9006074171873,-113.2956102898436 L-41.425253984720946,-149.07939193292975 L0.0,-200.0 L40.80185844369231,-256.7010233690858 L69.12670137533276,-305.19348156676256 L86.58271697049479,-345.86575973265684 L94.77809340475196,-379.1062430063958 L95.32101885367777,-405.303316527606 L89.81968149284563,-424.84536543591383 L79.8822694978291,-438.12077487094655 L67.11697104420169,-445.5179299723307 L53.13197430753687,-447.4252158796931 L39.535467463408125,-444.23101773266023 L27.935638687388945,-436.32372067085913 L19.940676155052863,-424.0917098339166 L17.158768041973353,-407.92337036145904 L21.198102523723882,-388.2070873931134 L33.66686777587803,-365.3312460685064 L56.173251974009155,-339.6842315272649 L90.32544329369094,-311.65442890901545 L137.73162991049662,-281.6302233533849 L200.0,-250.0 L232.50222809138467,-233.32635508932356 L254.65491675728592,-218.2992277609786 L267.6987563052594,-204.85179112819947 L272.87443704286073,-192.91721830422085 L271.42264927764546,-182.428682402277 L264.5840833171689,-173.31935653560228 L253.59942946898693,-165.52241381743127 L239.70937804065503,-158.9710273609984 L224.15461933972875,-153.59837027953805 L208.1758436737636,-149.33761568628466 L193.0137413503152,-146.12193669447268 L179.90900267693925,-143.88450641733658 L170.1023179611911,-142.55849796811071 L164.83437751062644,-142.0770844600296 L165.34587163280082,-142.3734390063276 L172.87749063526974,-143.38073472023922 L188.66992482558894,-145.03214471499888 L213.96386451131374,-147.260842103841 L250.0,-150.0 L302.54776502421436,-152.17049285640834 L342.70875273094737,-150.7704567083244 L371.6901162531495,-146.54222498763292 L390.6990087237719,-140.22813112621893 L400.942583275765,-132.5705085559672 L403.62799304207937,-124.31169070876254 L399.96239115566607,-116.19401101648984 L391.1529307494756,-108.95980291103402 L378.4067649564589,-103.35139982427988 L362.9310469095665,-100.11113518811227 L345.9329297417491,-99.98134243441608 L328.6195665859576,-103.70435499507616 L312.19811057514255,-112.02250630197734 L297.87571484225475,-125.67812978700448 L286.859532520245,-145.4135588820425 L280.3567167420639,-171.97112701897615 L279.5744206406622,-206.09316762969044 L285.71979734899065,-248.52201414607003" fill="none" stroke="black" />
</g>
<g>
<path d="M0.0,-0.0 L-2.4225294727906967,-69.35682361474927 L-9.15177800832041,-120.86354356646122 L-19.380235782325574,-156.51663877948997 L-32.300392970542624,-178.31258817818966 L-47.104739748708,-188.24787068691447 L-62.98576629255812,-188.31896523001836 L-79.13596277782942,-180.52235073185554 L-94.74781938025836,-166.85450611678024 L-109.01382627558135,-149.3119103091464 L-121.12647363953484,-129.89104223330827 L-130.27825164785526,-110.58838081361988 L-135.66165047627902,-93.40040497443545 L-136.4691603005426,-80.32359364010902 L-131.89327129638238,-73.35442573499475 L-121.12647363953485,-74.48938018344676 L-103.36125750573643,-85.72493590981915 L-77.79011307072349,-109.0575718384661 L-43.60553051023258,-146.48376689374163 L0.0,-200.0 L42.86491771322897,-259.66418601584695 L72.43959833540372,-310.6486429764081 L90.43528758996996,-353.3668013606853 L98.56323120037352,-388.23209164768065 L98.53467489006005,-415.65794431639563 L92.06086438247532,-436.05778984583196 L80.85304540106503,-449.84505871499186 L66.622463669275,-457.433181402877 L51.080364910550934,-459.23558838848925 L35.93799484833852,-455.66571015083025 L22.90659920608354,-447.1369771689019 L13.69742370723177,-434.06281992170625 L10.021714075228886,-416.85666888824477 L13.590716033520621,-395.9319545475196 L26.115675305552813,-371.70210737853233 L49.30783761477102,-344.58055786028496 L84.87844868462119,-314.9807364717792 L134.53875423854885,-283.31607369201697 L200.0,-250.0 L234.1917699340563,-232.49099831303784 L257.4501537032749,-216.793441304556 L271.0857451213196,-202.82777685074856 L276.4091380018542,-190.51445282780992 L274.7309261585424,-179.77391711193403 L267.3617034050478,-170.52661757931506 L255.61206355503433,-162.69300210614728 L240.79260042216572,-156.19351856862485 L224.2139078201057,-150.94861484294188 L207.1865795625179,-146.87873880529253 L191.02120946306616,-143.904338331871 L177.0283913354143,-141.94586129887148 L166.51871899322595,-140.92375558248807 L160.80278625016487,-140.75846905891495 L161.19118691989485,-141.37044960434633 L168.99451481607957,-142.68014509497638 L185.5233637523829,-144.60800340699922 L212.08832754246836,-147.07447241660904 L250.0,-150.0 L305.2923351265086,-152.2214240992787 L347.50682314923426,-150.56699420084203 L377.9187555927828,-145.83192596591098 L397.8034239817606,-138.81143505570637 L408.4361198407734,-130.30073713144913 L411.09213469442716,-121.09504785435995 L407.046760067328,-111.98958288565984 L397.57528748408214,-103.77955788656966 L383.95300846929524,-97.26018851831029 L367.45521454757346,-93.2266904421025 L349.3571972435228,-92.47427931916727 L330.9342480817494,-95.79817081072541 L313.461658586859,-103.99358057799779 L298.21472028345784,-117.85572428220529 L286.46872469615187,-138.1798175845688 L279.49896334954707,-165.7610761463091 L278.5807277682495,-201.39471562864722 L284.9893094768651,-245.87595169280382" fill="none" stroke="black" />
</g>
<g>
<g>
<path d="M-186.4691603005426,50 L461.09213469442716,50" fill="none" stroke="#999999" />
</g>
<path d="M-186.4691603005426,50.0 L-186.4691603005426,53.0" stroke="#999999" />
<text font-size="12" stroke="none" fill="#999999"><textPath xlink:href="#d0">
<tspan dy="0em">0mm</tspan>
</textPath></text>
<path d="M-166.4691603005426,50.0 L-166.4691603005426,53.0" stroke="#999999" />
<text font-size="12" stroke="none" fill="#999999"><textPath xlink:href="#d1">
<tspan dy="0em">20mm</tspan>
</textPath></text>
<path d="M-146.4691603005426,50.0 L-146.4691603005426,53.0" stroke="#999999" />
<text font-size="12" stroke="none" fill="#999999"><textPath xlink:href="#d2">
<tspan dy="0em">40mm</tspan>
</textPath></text>
<path d="M-126.4691603005426,50.00000000000001 L-126.4691603005426,53.00000000000001" stroke="#999999" />
<text font-size="12" stroke="none" fill="#999999"><textPath xlink:href="#d3">
<tspan dy="0em">60mm</tspan>
</textPath></text>
<path d="M-106.4691603005426,50.0 L-106.4691603005426,53.0" stroke="#999999" />
<text font-size="12" stroke="none" fill="#999999"><textPath xlink:href="#d4">
<tspan dy="0em">80mm</tspan>
</textPath></text>
<path d="M-86.4691603005426,49.99999999999999 L-86.4691603005426,52.99999999999999" stroke="#999999" />
<text font-size="12" stroke="none" fill="#999999"><textPath xlink:href="#d5">
<tspan dy="0em">100mm</tspan>
</textPath></text>
<path d="M-66.46916030054263,50.0 L-66.46916030054263,53.0" stroke="#999999" />
<text font-size="12" stroke="none" fill="#999999"><textPath xlink:href="#d6">
<tspan dy="0em">120mm</tspan>
</textPath></text>
<path d="M-46.4691603005426,50.0 L-46.4691603005426,53.0" stroke="#999999" />
<text font-size="12" stroke="none" fill="#999999"><textPath xlink:href="#d7">
<tspan dy="0em">140mm</tspan>
</textPath></text>
<path d="M-26.469160300542597,50.0 L-26.469160300542597,53.0" stroke="#999999" />
<text font-size="12" stroke="none" fill="#999999"><textPath xlink:href="#d8">
<tspan dy="0em">160mm</tspan>
</textPath></text>
<path d="M-6.4691603005425975,50.0 L-6.4691603005425975,53.0" stroke="#999999" />
<text font-size="12" stroke="none" fill="#999999"><textPath xlink:href="#d9">
<tspan dy="0em">180mm</tspan>
</textPath></text>
<path d="M13.530839699457403,50.0 L13.530839699457403,53.0" stroke="#999999" />
<text font-size="12" stroke="none" fill="#999999"><textPath xlink:href="#d10">
<tspan dy="0em">200mm</tspan>
</textPath></text>
<path d="M33.53083969945739,50.0 L33.53083969945739,53.0" stroke="#999999" />
<text font-size="12" stroke="none" fill="#999999"><textPath xlink:href="#d11">
<tspan dy="0em">220mm</tspan>
</textPath></text>
<path d="M53.53083969945739,50.0 L53.53083969945739,53.0" stroke="#999999" />
<text font-size="12" stroke="none" fill="#999999"><textPath xlink:href="#d12">
<tspan dy="0em">240mm</tspan>
</textPath></text>
<path d="M73.53083969945737,50.0 L73.53083969945737,53.0" stroke="#999999" />
<text font-size="12" stroke="none" fill="#999999"><textPath xlink:href="#d13">
<tspan dy="0em">260mm</tspan>
</textPath></text>
<path d="M93.53083969945739,50.0 L93.53083969945739,53.0" stroke="#999999" />
<text font-size="12" stroke="none" fill="#999999"><textPath xlink:href="#d14">
<tspan dy="0em">280mm</tspan>
</textPath></text>
<path d="M113.53083969945739,50.0 L113.53083969945739,53.0" stroke="#999999" />
<text font-size="12" stroke="none" fill="#999999"><textPath xlink:href="#d15">
<tspan dy="0em">300mm</tspan>
</textPath></text>
<path d="M133.53083969945737,50.0 L133.53083969945737,53.0" stroke="#999999" />
<text font-size="12" stroke="none" fill="#999999"><textPath xlink:href="#d16">
<tspan dy="0em">320mm</tspan>
</textPath></text>
<path d="M153.53083969945743,50.0 L153.53083969945743,53.0" stroke="#999999" />
<text font-size="12" stroke="none" fill="#999999"><textPath xlink:href="#d17">
<tspan dy="0em">340mm</tspan>
</textPath></text>
<path d="M173.53083969945737,50.0 L173.53083969945737,53.0" stroke="#999999" />
<text font-size="12" stroke="none" fill="#999999"><textPath xlink:href="#d18">
<tspan dy="0em">360mm</tspan>
</textPath></text>
<path d="M193.53083969945737,50.0 L193.53083969945737,53.0" stroke="#999999" />
<text font-size="12" stroke="none" fill="#999999"><textPath xlink:href="#d19">
<tspan dy="0em">380mm</tspan>
</textPath></text>
<path d="M213.53083969945737,50.0 L213.53083969945737,53.0" stroke="#999999" />
<text font-size="12" stroke="none" fill="#999999"><textPath xlink:href="#d20">
<tspan dy="0em">400mm</tspan>
</textPath></text>
<path d="M233.53083969945743,50.0 L233.53083969945743,53.0" stroke="#999999" />
<text font-size="12" stroke="none" fill="#999999"><textPath xlink:href="#d21">
<tspan dy="0em">420mm</tspan>
</textPath></text>
<path d="M253.53083969945737,50.0 L253.53083969945737,53.0" stroke="#999999" />
<text font-size="12" stroke="none" fill="#999999"><textPath xlink:href="#d22">
<tspan dy="0em">440mm</tspan>
</textPath></text>
<path d="M273.5308396994574,50.0 L273.5308396994574,53.0" stroke="#999999" />
<text font-size="12" stroke="none" fill="#999999"><textPath xlink:href="#d23">
<tspan dy="0em">460mm</tspan>
</textPath></text>
<path d="M293.5308396994574,50.0 L293.5308396994574,53.0" stroke="#999999" />
<text font-size="12" stroke="none" fill="#999999"><textPath xlink:href="#d24">
<tspan dy="0em">480mm</tspan>
</textPath></text>
<path d="M313.53083969945743,50.0 L313.53083969945743,53.0" stroke="#999999" />
<text font-size="12" stroke="none" fill="#999999"><textPath xlink:href="#d25">
<tspan dy="0em">500mm</tspan>
</textPath></text>
<path d="M333.5308396994574,50.0 L333.5308396994574,53.0" stroke="#999999" />
<text font-size="12" stroke="none" fill="#999999"><textPath xlink:href="#d26">
<tspan dy="0em">520mm</tspan>
</textPath></text>
<path d="M353.5308396994574,50.0 L353.5308396994574,53.0" stroke="#999999" />
<text font-size="12" stroke="none" fill="#999999"><textPath xlink:href="#d27">
<tspan dy="0em">540mm</tspan>
</textPath></text>
<path d="M373.5308396994574,50.0 L373.5308396994574,53.0" stroke="#999999" />
<text font-size="12" stroke="none" fill="#999999"><textPath xlink:href="#d28">
<tspan dy="0em">560mm</tspan>
</textPath></text>
<path d="M393.5308396994573,50.0 L393.5308396994573,53.0" stroke="#999999" />
<text font-size="12" stroke="none" fill="#999999"><textPath xlink:href="#d29">
<tspan dy="0em">580mm</tspan>
</textPath></text>
<path d="M413.5308396994574,50.0 L413.5308396994574,53.0" stroke="#999999" />
<text font-size="12" stroke="none" fill="#999999"><textPath xlink:href="#d30">
<tspan dy="0em">600mm</tspan>
</textPath></text>
<path d="M433.53083969945743,50.0 L433.53083969945743,53.0" stroke="#999999" />
<text font-size="12" stroke="none" fill="#999999"><textPath xlink:href="#d31">
<tspan dy="0em">620mm</tspan>
</textPath></text>
<path d="M453.5308396994574,50.0 L453.5308396994574,53.0" stroke="#999999" />
<text font-size="12" stroke="none" fill="#999999"><textPath xlink:href="#d32">
<tspan dy="0em">640mm</tspan>
</textPath></text>
</g>
<g>
<g>
<path d="M461.09213469442716,50 L461.09213469442716,-509.23558838848925" fill="none" stroke="#999999" />
</g>
<path d="M461.09213469442716,50.0 L464.09213469442716,50.0" stroke="#999999" />
<text font-size="12" stroke="none" fill="#999999"><textPath xlink:href="#d33">
<tspan dy="0em">0mm</tspan>
</textPath></text>
<path d="M461.0921346944271,30.0 L464.0921346944271,30.0" stroke="#999999" />
<text font-size="12" stroke="none" fill="#999999"><textPath xlink:href="#d34">
<tspan dy="0em">20mm</tspan>
</textPath></text>
<path d="M461.0921346944272,10.0 L464.0921346944272,10.0" stroke="#999999" />
<text font-size="12" stroke="none" fill="#999999"><textPath xlink:href="#d35">
<tspan dy="0em">40mm</tspan>
</textPath></text>
<path d="M461.09213469442716,-9.999999999999993 L464.09213469442716,-9.999999999999993" stroke="#999999" />
<text font-size="12" stroke="none" fill="#999999"><textPath xlink:href="#d36">
<tspan dy="0em">60mm</tspan>
</textPath></text>
<path d="M461.09213469442716,-30.0 L464.09213469442716,-30.0" stroke="#999999" />
<text font-size="12" stroke="none" fill="#999999"><textPath xlink:href="#d37">
<tspan dy="0em">80mm</tspan>
</textPath></text>
<path d="M461.0921346944272,-49.999999999999986 L464.0921346944272,-49.999999999999986" stroke="#999999" />
<text font-size="12" stroke="none" fill="#999999"><textPath xlink:href="#d38">
<tspan dy="0em">100mm</tspan>
</textPath></text>
<path d="M461.09213469442716,-69.99999999999999 L464.09213469442716,-69.99999999999999" stroke="#999999" />
<text font-size="12" stroke="none" fill="#999999"><textPath xlink:href="#d39">
<tspan dy="0em">120mm</tspan>
</textPath></text>
<path d="M461.0921346944271,-89.99999999999999 L464.0921346944271,-89.99999999999999" stroke="#999999" />
<text font-size="12" stroke="none" fill="#999999"><textPath xlink:href="#d40">
<tspan dy="0em">140mm</tspan>
</textPath></text>
<path d="M461.09213469442716,-110.0 L464.09213469442716,-110.0" stroke="#999999" />
<text font-size="12" stroke="none" fill="#999999"><textPath xlink:href="#d41">
<tspan dy="0em">160mm</tspan>
</textPath></text>
<path d="M461.09213469442716,-129.99999999999997 L464.09213469442716,-129.99999999999997" stroke="#999999" />
<text font-size="12" stroke="none" fill="#999999"><textPath xlink:href="#d42">
<tspan dy="0em">180mm</tspan>
</textPath></text>
<path d="M461.09213469442716,-149.99999999999997 L464.09213469442716,-149.99999999999997" stroke="#999999" />
<text font-size="12" stroke="none" fill="#999999"><textPath xlink:href="#d43">
<tspan dy="0em">200mm</tspan>
</textPath></text>
<path d="M461.09213469442716,-170.0 L464.09213469442716,-170.0" stroke="#999999" />
<text font-size="12" stroke="none" fill="#999999"><textPath xlink:href="#d44">
<tspan dy="0em">220mm</tspan>
</textPath></text>
<path d="M461.09213469442716,-189.99999999999997 L464.09213469442716,-189.99999999999997" stroke="#999999" />
<text font-size="12" stroke="none" fill="#999999"><textPath xlink:href="#d45">
<tspan dy="0em">240mm</tspan>
</textPath></text>
<path d="M461.09213469442716,-209.99999999999997 L464.09213469442716,-209.99999999999997" stroke="#999999" />
<text font-size="12" stroke="none" fill="#999999"><textPath xlink:href="#d46">
<tspan dy="0em">260mm</tspan>
</textPath></text>
<path d="M461.09213469442716,-229.99999999999997 L464.09213469442716,-229.99999999999997" stroke="#999999" />
<text font-size="12" stroke="none" fill="#999999"><textPath xlink:href="#d47">
<tspan dy="0em">280mm</tspan>
</textPath></text>
<path d="M461.09213469442716,-250.0 L464.09213469442716,-250.0" stroke="#999999" />
<text font-size="12" stroke="none" fill="#999999"><textPath xlink:href="#d48">
<tspan dy="0em">300mm</tspan>
</textPath></text>
<path d="M461.09213469442716,-270.0 L464.09213469442716,-270.0" stroke="#999999" />
<text font-size="12" stroke="none" fill="#999999"><textPath xlink:href="#d49">
<tspan dy="0em">320mm</tspan>
</textPath></text>
<path d="M461.09213469442716,-289.99999999999994 L464.09213469442716,-289.99999999999994" stroke="#999999" />
<text font-size="12" stroke="none" fill="#999999"><textPath xlink:href="#d50">
<tspan dy="0em">340mm</tspan>
</textPath></text>
<path d="M461.09213469442716,-309.99999999999994 L464.09213469442716,-309.99999999999994" stroke="#999999" />
<text font-size="12" stroke="none" fill="#999999"><textPath xlink:href="#d51">
<tspan dy="0em">360mm</tspan>
</textPath></text>
<path d="M461.09213469442716,-330.0 L464.09213469442716,-330.0" stroke="#999999" />
<text font-size="12" stroke="none" fill="#999999"><textPath xlink:href="#d52">
<tspan dy="0em">380mm</tspan>
</textPath></text>
<path d="M461.09213469442716,-349.99999999999994 L464.09213469442716,-349.99999999999994" stroke="#999999" />
<text font-size="12" stroke="none" fill="#999999"><textPath xlink:href="#d53">
<tspan dy="0em">400mm</tspan>
</textPath></text>
<path d="M461.09213469442716,-369.99999999999994 L464.09213469442716,-369.99999999999994" stroke="#999999" />
<text font-size="12" stroke="none" fill="#999999"><textPath xlink:href="#d54">
<tspan dy="0em">420mm</tspan>
</textPath></text>
<path d="M461.09213469442716,-390.0 L464.09213469442716,-390.0" stroke="#999999" />
<text font-size="12" stroke="none" fill="#999999"><textPath xlink:href="#d55">
<tspan dy="0em">440mm</tspan>
</textPath></text>
<path d="M461.09213469442716,-409.99999999999994 L464.09213469442716,-409.99999999999994" stroke="#999999" />
<text font-size="12" stroke="none" fill="#999999"><textPath xlink:href="#d56">
<tspan dy="0em">460mm</tspan>
</textPath></text>
<path d="M461.09213469442716,-429.99999999999994 L464.09213469442716,-429.99999999999994" stroke="#999999" />
<text font-size="12" stroke="none" fill="#999999"><textPath xlink:href="#d57">
<tspan dy="0em">480mm</tspan>
</textPath></text>
<path d="M461.09213469442716,-450.0 L464.09213469442716,-450.0" stroke="#999999" />
<text font-size="12" stroke="none" fill="#999999"><textPath xlink:href="#d58">
<tspan dy="0em">500mm</tspan>
</textPath></text>
<path d="M461.09213469442716,-469.99999999999994 L464.09213469442716,-469.99999999999994" stroke="#999999" />
<text font-size="12" stroke="none" fill="#999999"><textPath xlink:href="#d59">
<tspan dy="0em">520mm</tspan>
</textPath></text>
<path d="M461.09213469442716,-489.99999999999994 L464.09213469442716,-489.99999999999994" stroke="#999999" />
<text font-size="12" stroke="none" fill="#999999"><textPath xlink:href="#d60">
<tspan dy="0em">540mm</tspan>
</textPath></text>
</g>
</svg>