<?xml version="1.0" encoding="UTF-8"?>
<svg xmlns="http://www.w3.org/2000/svg" xmlns:xlink="http://www.w3.org/1999/xlink"
     width="609.8799999999999" height="1303.3" viewBox="-150 -1153.3 609.8799999999999 1303.3" stroke="black" fill="none">
<defs>
<path d="M-50.0,54.0 L-50.0,154.0" id="d0" />
<path d="M-40.0,54.0 L-40.0,154.0" id="d1" />
<path d="M-30.0,54.0 L-30.0,154.0" id="d2" />
<path d="M-19.999999999999996,54.0 L-19.999999999999996,154.0" id="d3" />
<path d="M-10.0,54.0 L-10.0,154.0" id="d4" />
<path d="M7.105427357601002e-15,54.0 L7.105427357601002e-15,154.0" id="d5" />
<path d="M10.0,54.0 L10.0,154.0" id="d6" />
<path d="M19.999999999999993,54.0 L19.999999999999993,154.0" id="d7" />
<path d="M30.0,54.0 L30.0,154.0" id="d8" />
<path d="M39.99999999999999,54.0 L39.99999999999999,154.0" id="d9" />
<path d="M50.00000000000001,54.0 L50.00000000000001,154.0" id="d10" />
<path d="M60.00000000000001,54.0 L60.00000000000001,154.0" id="d11" />
<path d="M70.0,53.99999999999999 L70.0,154.0" id="d12" />
<path d="M80.0,54.0 L80.0,154.0" id="d13" />
<path d="M90.0,54.0 L90.0,154.0" id="d14" />
<path d="M100.00000000000001,54.0 L100.00000000000001,154.0" id="d15" />
<path d="M110.0,54.0 L110.0,154.0" id="d16" />
<path d="M119.99999999999999,54.0 L119.99999999999999,154.0" id="d17" />
<path d="M130.0,54.0 L130.0,154.0" id="d18" />
<path d="M140.0,54.0 L140.0,154.0" id="d19" />
<path d="M150.0,54.0 L150.0,154.0" id="d20" />
<path d="M160.0,54.0 L160.0,154.0" id="d21" />
<path d="M170.0,54.0 L170.0,154.0" id="d22" />
<path d="M180.0,54.0 L180.0,154.0" id="d23" />
<path d="M190.0,54.0 L190.0,154.0" id="d24" />
<path d="M200.00000000000003,54.0 L200.00000000000003,154.0" id="d25" />
<path d="M210.0,54.0 L210.0,154.0" id="d26" />
<path d="M220.0,54.0 L220.0,154.0" id="d27" />
<path d="M230.0,54.0 L230.0,154.0" id="d28" />
<path d="M240.0,54.0 L240.0,154.0" id="d29" />
<path d="M250.00000000000003,54.0 L250.00000000000003,154.0" id="d30" />
<path d="M259.99999999999994,54.0 L259.99999999999994,154.0" id="d31" />
<path d="M270.0,54.0 L270.0,154.0" id="d32" />
<path d="M280.0,54.0 L280.0,154.0" id="d33" />
<path d="M289.99999999999994,54.0 L289.99999999999994,154.0" id="d34" />
<path d="M300.0,54.0 L300.0,154.0" id="d35" />
<path d="M310.0,54.0 L310.0,154.0" id="d36" />
<path d="M320.00000000000006,54.0 L320.00000000000006,154.0" id="d37" />
<path d="M330.0,54.0 L330.0,154.0" id="d38" />
<path d="M340.0,54.0 L340.0,154.0" id="d39" />
<path d="M350.00000000000006,54.0 L350.00000000000006,154.0" id="d40" />
<path d="M363.87999999999994,50.0 L463.87999999999994,50.0" id="d41" />
<path d="M363.87999999999994,40.0 L463.87999999999994,40.0" id="d42" />
<path d="M363.87999999999994,30.0 L463.87999999999994,30.0" id="d43" />
<path d="M363.8799999999999,20.0 L463.8799999999999,20.0" id="d44" />
<path d="M363.87999999999994,10.000000000000007 L463.87999999999994,10.000000000000007" id="d45" />
<path d="M363.88,-7.105427357601002e-15 L463.88,-7.105427357601002e-15" id="d46" />
<path d="M363.87999999999994,-10.0 L463.87999999999994,-10.0" id="d47" />
<path d="M363.87999999999994,-20.0 L463.87999999999994,-20.0" id="d48" />
<path d="M363.87999999999994,-30.0 L463.87999999999994,-30.0" id="d49" />
<path d="M363.87999999999994,-40.0 L463.87999999999994,-40.0" id="d50" />
<path d="M363.87999999999994,-50.00000000000001 L463.87999999999994,-50.00000000000001" id="d51" />
<path d="M363.87999999999994,-59.99999999999999 L463.87999999999994,-59.99999999999999" id="d52" />
<path d="M363.87999999999994,-70.0 L463.87999999999994,-70.0" id="d53" />
<path d="M363.88,-80.0 L463.88,-80.0" id="d54" />
<path d="M363.8799999999999,-90.0 L463.8799999999999,-90.0" id="d55" />
<path d="M363.87999999999994,-100.0 L463.87999999999994,-100.0" id="d56" />
<path d="M363.87999999999994,-110.0 L463.87999999999994,-110.0" id="d57" />
<path d="M363.87999999999994,-120.00000000000001 L463.87999999999994,-120.00000000000001" id="d58" />
<path d="M363.87999999999994,-130.0 L463.87999999999994,-130.0" id="d59" />
<path d="M363.87999999999994,-139.99999999999997 L463.87999999999994,-139.99999999999997" id="d60" />
<path d="M363.87999999999994,-150.00000000000003 L463.87999999999994,-150.00000000000003" id="d61" />
<path d="M363.8799999999999,-160.0 L463.8799999999999,-160.0" id="d62" />
<path d="M363.88,-170.0 L463.88,-170.0" id="d63" />
<path d="M363.88,-180.0 L463.88,-180.0" id="d64" />
<path d="M363.87999999999994,-190.0 L463.87999999999994,-190.0" id="d65" />
<path d="M363.87999999999994,-200.0 L463.87999999999994,-200.0" id="d66" />
<path d="M363.87999999999994,-210.0 L463.87999999999994,-210.0" id="d67" />
<path d="M363.87999999999994,-220.0 L463.87999999999994,-220.0" id="d68" />
<path d="M363.87999999999994,-230.0 L463.87999999999994,-230.0" id="d69" />
<path d="M363.8799999999999,-239.99999999999997 L463.8799999999999,-239.99999999999997" id="d70" />
<path d="M363.8799999999999,-250.00000000000003 L463.8799999999999,-250.00000000000003" id="d71" />
<path d="M363.88,-259.99999999999994 L463.88,-259.99999999999994" id="d72" />
<path d="M363.87999999999994,-270.0 L463.87999999999994,-270.0" id="d73" />
<path d="M363.87999999999994,-280.0 L463.87999999999994,-280.0" id="d74" />
<path d="M363.87999999999994,-290.0 L463.87999999999994,-290.0" id="d75" />
<path d="M363.88,-300.0 L463.88,-300.0" id="d76" />
<path d="M363.87999999999994,-310.0 L463.87999999999994,-310.0" id="d77" />
<path d="M363.87999999999994,-320.0 L463.87999999999994,-320.0" id="d78" />
<path d="M363.87999999999994,-329.99999999999994 L463.87999999999994,-329.99999999999994" id="d79" />
<path d="M363.87999999999994,-340.0 L463.87999999999994,-340.0" id="d80" />
<path d="M363.87999999999994,-350.00000000000006 L463.87999999999994,-350.00000000000006" id="d81" />
<path d="M363.8799999999999,-360.0 L463.8799999999999,-360.0" id="d82" />
<path d="M363.87999999999994,-370.0 L463.87999999999994,-370.0" id="d83" />
<path d="M363.8799999999999,-380.0 L463.8799999999999,-380.0" id="d84" />
<path d="M363.87999999999994,-390.0 L463.87999999999994,-390.0" id="d85" />
<path d="M363.87999999999994,-399.99999999999994 L463.87999999999994,-399.99999999999994" id="d86" />
<path d="M363.87999999999994,-410.0 L463.87999999999994,-410.0" id="d87" />
<path d="M363.87999999999994,-420.00000000000006 L463.87999999999994,-420.00000000000006" id="d88" />
<path d="M363.88,-430.0 L463.88,-430.0" id="d89" />
<path d="M363.87999999999994,-440.0 L463.87999999999994,-440.0" id="d90" />
<path d="M363.88,-450.0 L463.88,-450.0" id="d91" />
<path d="M363.87999999999994,-460.0 L463.87999999999994,-460.0" id="d92" />
<path d="M363.87999999999994,-470.0 L463.87999999999994,-470.0" id="d93" />
<path d="M363.87999999999994,-480.0 L463.87999999999994,-480.0" id="d94" />
<path d="M363.8799999999999,-490.0 L463.8799999999999,-490.0" id="d95" />
<path d="M363.8799999999999,-500.00000000000006 L463.8799999999999,-500.00000000000006" id="d96" />
<path d="M363.87999999999994,-510.0 L463.87999999999994,-510.0" id="d97" />
<path d="M363.87999999999994,-520.0 L463.87999999999994,-520.0" id="d98" />
<path d="M363.87999999999994,-530.0 L463.87999999999994,-530.0" id="d99" />
<path d="M363.87999999999994,-540.0 L463.87999999999994,-540.0" id="d100" />
<path d="M363.87999999999994,-550.0 L463.87999999999994,-550.0" id="d101" />
<path d="M363.87999999999994,-560.0000000000001 L463.87999999999994,-560.0000000000001" id="d102" />
<path d="M363.87999999999994,-569.9999999999999 L463.87999999999994,-569.9999999999999" id="d103" />
<path d="M363.87999999999994,-579.9999999999999 L463.87999999999994,-579.9999999999999" id="d104" />
<path d="M363.87999999999994,-590.0 L463.87999999999994,-590.0" id="d105" />
<path d="M363.87999999999994,-600.0 L463.87999999999994,-600.0" id="d106" />
<path d="M363.87999999999994,-610.0000000000001 L463.87999999999994,-610.0000000000001" id="d107" />
<path d="M363.87999999999994,-620.0 L463.87999999999994,-620.0" id="d108" />
<path d="M363.87999999999994,-630.0 L463.87999999999994,-630.0" id="d109" />
<path d="M363.87999999999994,-640.0 L463.87999999999994,-640.0" id="d110" />
<path d="M363.87999999999994,-650.0 L463.87999999999994,-650.0" id="d111" />
<path d="M363.87999999999994,-660.0 L463.87999999999994,-660.0" id="d112" />
<path d="M363.87999999999994,-670.0 L463.87999999999994,-670.0" id="d113" />
<path d="M363.87999999999994,-680.0 L463.87999999999994,-680.0" id="d114" />
<path d="M363.87999999999994,-690.0 L463.87999999999994,-690.0" id="d115" />
<path d="M363.87999999999994,-700.0 L463.87999999999994,-700.0" id="d116" />
<path d="M363.87999999999994,-709.9999999999999 L463.87999999999994,-709.9999999999999" id="d117" />
<path d="M363.87999999999994,-720.0 L463.87999999999994,-720.0" id="d118" />
<path d="M363.87999999999994,-730.0 L463.87999999999994,-730.0" id="d119" />
<path d="M363.87999999999994,-740.0 L463.87999999999994,-740.0" id="d120" />
<path d="M363.87999999999994,-750.0000000000001 L463.87999999999994,-750.0000000000001" id="d121" />
<path d="M363.88,-760.0 L463.88,-760.0" id="d122" />
<path d="M363.87999999999994,-769.9999999999999 L463.87999999999994,-769.9999999999999" id="d123" />
<path d="M363.87999999999994,-780.0 L463.87999999999994,-780.0" id="d124" />
<path d="M363.88,-790.0 L463.88,-790.0" id="d125" />
<path d="M363.87999999999994,-800.0 L463.87999999999994,-800.0" id="d126" />
<path d="M363.87999999999994,-810.0 L463.87999999999994,-810.0" id="d127" />
<path d="M363.87999999999994,-820.0 L463.87999999999994,-820.0" id="d128" />
<path d="M363.87999999999994,-830.0 L463.87999999999994,-830.0" id="d129" />
<path d="M363.87999999999994,-840.0 L463.87999999999994,-840.0" id="d130" />
<path d="M363.87999999999994,-849.9999999999999 L463.87999999999994,-849.9999999999999" id="d131" />
<path d="M363.87999999999994,-860.0 L463.87999999999994,-860.0" id="d132" />
<path d="M363.87999999999994,-870.0 L463.87999999999994,-870.0" id="d133" />
<path d="M363.87999999999994,-880.0000000000001 L463.87999999999994,-880.0000000000001" id="d134" />
<path d="M363.87999999999994,-890.0000000000001 L463.87999999999994,-890.0000000000001" id="d135" />
<path d="M363.87999999999994,-899.9999999999999 L463.87999999999994,-899.9999999999999" id="d136" />
<path d="M363.87999999999994,-910.0 L463.87999999999994,-910.0" id="d137" />
<path d="M363.87999999999994,-920.0 L463.87999999999994,-920.0" id="d138" />
<path d="M363.87999999999994,-930.0 L463.87999999999994,-930.0" id="d139" />
<path d="M363.8799999999999,-940.0 L463.8799999999999,-940.0" id="d140" />
<path d="M363.87999999999994,-950.0 L463.87999999999994,-950.0" id="d141" />
<path d="M363.87999999999994,-960.0000000000001 L463.87999999999994,-960.0000000000001" id="d142" />
<path d="M363.87999999999994,-970.0 L463.87999999999994,-970.0" id="d143" />
<path d="M363.87999999999994,-980.0 L463.87999999999994,-980.0" id="d144" />
<path d="M363.87999999999994,-990.0 L463.87999999999994,-990.0" id="d145" />
<path d="M363.87999999999994,-1000.0 L463.87999999999994,-1000.0" id="d146" />
<path d="M363.87999999999994,-1010.0 L463.87999999999994,-1010.0" id="d147" />
<path d="M363.87999999999994,-1020.0000000000001 L463.87999999999994,-1020.0000000000001" id="d148" />
<path d="M363.87999999999994,-1030.0 L463.87999999999994,-1030.0" id="d149" />
<path d="M363.87999999999994,-1040.0 L463.87999999999994,-1040.0" id="d150" />
<path d="M363.87999999999994,-1050.0 L463.87999999999994,-1050.0" id="d151" />
</defs>
<g>
<path d="M264.15999999999997,-1003.3 L264.15999999999997,-977.9 L261.62,-952.5 L261.62,-927.1 L259.08,-901.7 L256.53999999999996,-876.3000000000001 L248.92000000000002,-850.9000000000001 L241.29999999999998,-825.5000000000001 L231.14,-800.1000000000001 L220.97999999999996,-774.7000000000002 L210.82,-749.3000000000002 L208.27999999999997,-723.9000000000002 L210.82,-698.5000000000002 L215.89999999999998,-673.1000000000003 L220.97999999999996,-647.7000000000003 L233.67999999999998,-622.3000000000003 L246.37999999999997,-596.9000000000003 L259.08,-571.5000000000003 L271.78,-546.1000000000004 L281.94,-520.7000000000004 L292.09999999999997,-495.3000000000004 L297.17999999999995,-469.90000000000043 L297.17999999999995,-444.50000000000045 L299.72,-419.1000000000005 L299.72,-393.7000000000005 L299.72,-368.3000000000005 L302.26,-342.90000000000055 L304.79999999999995,-317.50000000000057 L304.79999999999995,-292.1000000000006 L304.79999999999995,-266.7000000000006 L304.79999999999995,-241.3000000000006 L304.79999999999995,-215.9000000000006 L304.79999999999995,-190.5000000000006 L304.79999999999995,-165.1000000000006 L307.34,-139.70000000000059 L307.34,-114.30000000000058 L309.87999999999994,-88.90000000000057 L309.87999999999994,-63.500000000000576 L309.87999999999994,-38.10000000000058 L309.87999999999994,-12.700000000000578 L309.87999999999994,0 L0,0 L0,-1003.3 L264.15999999999997,-1003.3" fill="#E6E6FA" stroke="black" />
<text x="139.70159211934052" y="-494.4032361434292" font-size="12" stroke="none" fill="black" text-anchor="middle" dy="0em">Die Lemma Dress Block</text>
</g>
<g>
<g>
<path d="M-50,50 L359.87999999999994,50" fill="none" stroke="#999999" />
</g>
<path d="M-50.0,50.0 L-50.0,53.0" stroke="#999999" />
<text font-size="6" stroke="none" fill="#999999"><textPath xlink:href="#d0">
<tspan dy="0em">0mm</tspan>
</textPath></text>
<path d="M-40.0,50.0 L-40.0,53.0" stroke="#999999" />
<text font-size="6" stroke="none" fill="#999999"><textPath xlink:href="#d1">
<tspan dy="0em">10mm</tspan>
</textPath></text>
<path d="M-30.0,50.0 L-30.0,53.0" stroke="#999999" />
<text font-size="6" stroke="none" fill="#999999"><textPath xlink:href="#d2">
<tspan dy="0em">20mm</tspan>
</textPath></text>
<path d="M-19.999999999999996,50.0 L-19.999999999999996,53.0" stroke="#999999" />
<text font-size="6" stroke="none" fill="#999999"><textPath xlink:href="#d3">
<tspan dy="0em">30mm</tspan>
</textPath></text>
<path d="M-10.0,50.0 L-10.0,53.0" stroke="#999999" />
<text font-size="6" stroke="none" fill="#999999"><textPath xlink:href="#d4">
<tspan dy="0em">40mm</tspan>
</textPath></text>
<path d="M7.105427357601002e-15,50.0 L7.105427357601002e-15,53.0" stroke="#999999" />
<text font-size="6" stroke="none" fill="#999999"><textPath xlink:href="#d5">
<tspan dy="0em">50mm</tspan>
</textPath></text>
<path d="M10.0,50.0 L10.0,53.0" stroke="#999999" />
<text font-size="6" stroke="none" fill="#999999"><textPath xlink:href="#d6">
<tspan dy="0em">60mm</tspan>
</textPath></text>
<path d="M19.999999999999993,50.0 L19.999999999999993,53.0" stroke="#999999" />
<text font-size="6" stroke="none" fill="#999999"><textPath xlink:href="#d7">
<tspan dy="0em">70mm</tspan>
</textPath></text>
<path d="M30.0,50.0 L30.0,53.0" stroke="#999999" />
<text font-size="6" stroke="none" fill="#999999"><textPath xlink:href="#d8">
<tspan dy="0em">80mm</tspan>
</textPath></text>
<path d="M39.99999999999999,50.0 L39.99999999999999,53.0" stroke="#999999" />
<text font-size="6" stroke="none" fill="#999999"><textPath xlink:href="#d9">
<tspan dy="0em">90mm</tspan>
</textPath></text>
<path d="M50.00000000000001,50.0 L50.00000000000001,53.0" stroke="#999999" />
<text font-size="6" stroke="none" fill="#999999"><textPath xlink:href="#d10">
<tspan dy="0em">100mm</tspan>
</textPath></text>
<path d="M60.00000000000001,50.0 L60.00000000000001,53.0" stroke="#999999" />
<text font-size="6" stroke="none" fill="#999999"><textPath xlink:href="#d11">
<tspan dy="0em">110mm</tspan>
</textPath></text>
<path d="M70.0,49.99999999999999 L70.0,52.99999999999999" stroke="#999999" />
<text font-size="6" stroke="none" fill="#999999"><textPath xlink:href="#d12">
<tspan dy="0em">120mm</tspan>
</textPath></text>
<path d="M80.0,50.0 L80.0,53.0" stroke="#999999" />
<text font-size="6" stroke="none" fill="#999999"><textPath xlink:href="#d13">
<tspan dy="0em">130mm</tspan>
</textPath></text>
<path d="M90.0,50.0 L90.0,53.0" stroke="#999999" />
<text font-size="6" stroke="none" fill="#999999"><textPath xlink:href="#d14">
<tspan dy="0em">140mm</tspan>
</textPath></text>
<path d="M100.00000000000001,50.0 L100.00000000000001,53.0" stroke="#999999" />
<text font-size="6" stroke="none" fill="#999999"><textPath xlink:href="#d15">
<tspan dy="0em">150mm</tspan>
</textPath></text>
<path d="M110.0,50.0 L110.0,53.0" stroke="#999999" />
<text font-size="6" stroke="none" fill="#999999"><textPath xlink:href="#d16">
<tspan dy="0em">160mm</tspan>
</textPath></text>
<path d="M119.99999999999999,50.0 L119.99999999999999,53.0" stroke="#999999" />
<text font-size="6" stroke="none" fill="#999999"><textPath xlink:href="#d17">
<tspan dy="0em">170mm</tspan>
</textPath></text>
<path d="M130.0,50.0 L130.0,53.0" stroke="#999999" />
<text font-size="6" stroke="none" fill="#999999"><textPath xlink:href="#d18">
<tspan dy="0em">180mm</tspan>
</textPath></text>
<path d="M140.0,50.0 L140.0,53.0" stroke="#999999" />
<text font-size="6" stroke="none" fill="#999999"><textPath xlink:href="#d19">
<tspan dy="0em">190mm</tspan>
</textPath></text>
<path d="M150.0,50.0 L150.0,53.0" stroke="#999999" />
<text font-size="6" stroke="none" fill="#999999"><textPath xlink:href="#d20">
<tspan dy="0em">200mm</tspan>
</textPath></text>
<path d="M160.0,50.0 L160.0,53.0" stroke="#999999" />
<text font-size="6" stroke="none" fill="#999999"><textPath xlink:href="#d21">
<tspan dy="0em">210mm</tspan>
</textPath></text>
<path d="M170.0,50.0 L170.0,53.0" stroke="#999999" />
<text font-size="6" stroke="none" fill="#999999"><textPath xlink:href="#d22">
<tspan dy="0em">220mm</tspan>
</textPath></text>
<path d="M180.0,50.0 L180.0,53.0" stroke="#999999" />
<text font-size="6" stroke="none" fill="#999999"><textPath xlink:href="#d23">
<tspan dy="0em">230mm</tspan>
</textPath></text>
<path d="M190.0,50.0 L190.0,53.0" stroke="#999999" />
<text font-size="6" stroke="none" fill="#999999"><textPath xlink:href="#d24">
<tspan dy="0em">240mm</tspan>
</textPath></text>
<path d="M200.00000000000003,50.0 L200.00000000000003,53.0" stroke="#999999" />
<text font-size="6" stroke="none" fill="#999999"><textPath xlink:href="#d25">
<tspan dy="0em">250mm</tspan>
</textPath></text>
<path d="M210.0,50.0 L210.0,53.0" stroke="#999999" />
<text font-size="6" stroke="none" fill="#999999"><textPath xlink:href="#d26">
<tspan dy="0em">260mm</tspan>
</textPath></text>
<path d="M220.0,50.0 L220.0,53.0" stroke="#999999" />
<text font-size="6" stroke="none" fill="#999999"><textPath xlink:href="#d27">
<tspan dy="0em">270mm</tspan>
</textPath></text>
<path d="M230.0,50.0 L230.0,53.0" stroke="#999999" />
<text font-size="6" stroke="none" fill="#999999"><textPath xlink:href="#d28">
<tspan dy="0em">280mm</tspan>
</textPath></text>
<path d="M240.0,50.0 L240.0,53.0" stroke="#999999" />
<text font-size="6" stroke="none" fill="#999999"><textPath xlink:href="#d29">
<tspan dy="0em">290mm</tspan>
</textPath></text>
<path d="M250.00000000000003,50.0 L250.00000000000003,53.0" stroke="#999999" />
<text font-size="6" stroke="none" fill="#999999"><textPath xlink:href="#d30">
<tspan dy="0em">300mm</tspan>
</textPath></text>
<path d="M259.99999999999994,50.0 L259.99999999999994,53.0" stroke="#999999" />
<text font-size="6" stroke="none" fill="#999999"><textPath xlink:href="#d31">
<tspan dy="0em">310mm</tspan>
</textPath></text>
<path d="M270.0,50.0 L270.0,53.0" stroke="#999999" />
<text font-size="6" stroke="none" fill="#999999"><textPath xlink:href="#d32">
<tspan dy="0em">320mm</tspan>
</textPath></text>
<path d="M280.0,50.0 L280.0,53.0" stroke="#999999" />
<text font-size="6" stroke="none" fill="#999999"><textPath xlink:href="#d33">
<tspan dy="0em">330mm</tspan>
</textPath></text>
<path d="M289.99999999999994,50.0 L289.99999999999994,53.0" stroke="#999999" />
<text font-size="6" stroke="none" fill="#999999"><textPath xlink:href="#d34">
<tspan dy="0em">340mm</tspan>
</textPath></text>
<path d="M300.0,50.0 L300.0,53.0" stroke="#999999" />
<text font-size="6" stroke="none" fill="#999999"><textPath xlink:href="#d35">
<tspan dy="0em">350mm</tspan>
</textPath></text>
<path d="M310.0,50.0 L310.0,53.0" stroke="#999999" />
<text font-size="6" stroke="none" fill="#999999"><textPath xlink:href="#d36">
<tspan dy="0em">360mm</tspan>
</textPath></text>
<path d="M320.00000000000006,50.0 L320.00000000000006,53.0" stroke="#999999" />
<text font-size="6" stroke="none" fill="#999999"><textPath xlink:href="#d37">
<tspan dy="0em">370mm</tspan>
</textPath></text>
<path d="M330.0,50.0 L330.0,53.0" stroke="#999999" />
<text font-size="6" stroke="none" fill="#999999"><textPath xlink:href="#d38">
<tspan dy="0em">380mm</tspan>
</textPath></text>
<path d="M340.0,50.0 L340.0,53.0" stroke="#999999" />
<text font-size="6" stroke="none" fill="#999999"><textPath xlink:href="#d39">
<tspan dy="0em">390mm</tspan>
</textPath></text>
<path d="M350.00000000000006,50.0 L350.00000000000006,53.0" stroke="#999999" />
<text font-size="6" stroke="none" fill="#999999"><textPath xlink:href="#d40">
<tspan dy="0em">400mm</tspan>
</textPath></text>
</g>
<g>
<g>
<path d="M359.87999999999994,50 L359.87999999999994,-1053.3" fill="none" stroke="#999999" />
</g>
<path d="M359.87999999999994,50.0 L362.87999999999994,50.0" stroke="#999999" />
<text font-size="6" stroke="none" fill="#999999"><textPath xlink:href="#d41">
<tspan dy="0em">0mm</tspan>
</textPath></text>
<path d="M359.87999999999994,40.0 L362.87999999999994,40.0" stroke="#999999" />
<text font-size="6" stroke="none" fill="#999999"><textPath xlink:href="#d42">
<tspan dy="0em">10mm</tspan>
</textPath></text>
<path d="M359.87999999999994,30.0 L362.87999999999994,30.0" stroke="#999999" />
<text font-size="6" stroke="none" fill="#999999"><textPath xlink:href="#d43">
<tspan dy="0em">20mm</tspan>
</textPath></text>
<path d="M359.8799999999999,20.0 L362.8799999999999,20.0" stroke="#999999" />
<text font-size="6" stroke="none" fill="#999999"><textPath xlink:href="#d44">
<tspan dy="0em">30mm</tspan>
</textPath></text>
<path d="M359.87999999999994,10.000000000000007 L362.87999999999994,10.000000000000007" stroke="#999999" />
<text font-size="6" stroke="none" fill="#999999"><textPath xlink:href="#d45">
<tspan dy="0em">40mm</tspan>
</textPath></text>
<path d="M359.88,-7.105427357601002e-15 L362.88,-7.105427357601002e-15" stroke="#999999" />
<text font-size="6" stroke="none" fill="#999999"><textPath xlink:href="#d46">
<tspan dy="0em">50mm</tspan>
</textPath></text>
<path d="M359.87999999999994,-10.0 L362.87999999999994,-10.0" stroke="#999999" />
<text font-size="6" stroke="none" fill="#999999"><textPath xlink:href="#d47">
<tspan dy="0em">60mm</tspan>
</textPath></text>
<path d="M359.87999999999994,-20.0 L362.87999999999994,-20.0" stroke="#999999" />
<text font-size="6" stroke="none" fill="#999999"><textPath xlink:href="#d48">
<tspan dy="0em">70mm</tspan>
</textPath></text>
<path d="M359.87999999999994,-30.0 L362.87999999999994,-30.0" stroke="#999999" />
<text font-size="6" stroke="none" fill="#999999"><textPath xlink:href="#d49">
<tspan dy="0em">80mm</tspan>
</textPath></text>
<path d="M359.87999999999994,-40.0 L362.87999999999994,-40.0" stroke="#999999" />
<text font-size="6" stroke="none" fill="#999999"><textPath xlink:href="#d50">
<tspan dy="0em">90mm</tspan>
</textPath></text>
<path d="M359.87999999999994,-50.00000000000001 L362.87999999999994,-50.00000000000001" stroke="#999999" />
<text font-size="6" stroke="none" fill="#999999"><textPath xlink:href="#d51">
<tspan dy="0em">100mm</tspan>
</textPath></text>
<path d="M359.87999999999994,-59.99999999999999 L362.87999999999994,-59.99999999999999" stroke="#999999" />
<text font-size="6" stroke="none" fill="#999999"><textPath xlink:href="#d52">
<tspan dy="0em">110mm</tspan>
</textPath></text>
<path d="M359.87999999999994,-70.0 L362.87999999999994,-70.0" stroke="#999999" />
<text font-size="6" stroke="none" fill="#999999"><textPath xlink:href="#d53">
<tspan dy="0em">120mm</tspan>
</textPath></text>
<path d="M359.88,-80.0 L362.88,-80.0" stroke="#999999" />
<text font-size="6" stroke="none" fill="#999999"><textPath xlink:href="#d54">
<tspan dy="0em">130mm</tspan>
</textPath></text>
<path d="M359.8799999999999,-90.0 L362.8799999999999,-90.0" stroke="#999999" />
<text font-size="6" stroke="none" fill="#999999"><textPath xlink:href="#d55">
<tspan dy="0em">140mm</tspan>
</textPath></text>
<path d="M359.87999999999994,-100.0 L362.87999999999994,-100.0" stroke="#999999" />
<text font-size="6" stroke="none" fill="#999999"><textPath xlink:href="#d56">
<tspan dy="0em">150mm</tspan>
</textPath></text>
<path d="M359.87999999999994,-110.0 L362.87999999999994,-110.0" stroke="#999999" />
<text font-size="6" stroke="none" fill="#999999"><textPath xlink:href="#d57">
<tspan dy="0em">160mm</tspan>
</textPath></text>
<path d="M359.87999999999994,-120.00000000000001 L362.87999999999994,-120.00000000000001" stroke="#999999" />
<text font-size="6" stroke="none" fill="#999999"><textPath xlink:href="#d58">
<tspan dy="0em">170mm</tspan>
</textPath></text>
<path d="M359.87999999999994,-130.0 L362.87999999999994,-130.0" stroke="#999999" />
<text font-size="6" stroke="none" fill="#999999"><textPath xlink:href="#d59">
<tspan dy="0em">180mm</tspan>
</textPath></text>
<path d="M359.87999999999994,-139.99999999999997 L362.87999999999994,-139.99999999999997" stroke="#999999" />
<text font-size="6" stroke="none" fill="#999999"><textPath xlink:href="#d60">
<tspan dy="0em">190mm</tspan>
</textPath></text>
<path d="M359.87999999999994,-150.00000000000003 L362.87999999999994,-150.00000000000003" stroke="#999999" />
<text font-size="6" stroke="none" fill="#999999"><textPath xlink:href="#d61">
<tspan dy="0em">200mm</tspan>
</textPath></text>
<path d="M359.8799999999999,-160.0 L362.8799999999999,-160.0" stroke="#999999" />
<text font-size="6" stroke="none" fill="#999999"><textPath xlink:href="#d62">
<tspan dy="0em">210mm</tspan>
</textPath></text>
<path d="M359.88,-170.0 L362.88,-170.0" stroke="#999999" />
<text font-size="6" stroke="none" fill="#999999"><textPath xlink:href="#d63">
<tspan dy="0em">220mm</tspan>
</textPath></text>
<path d="M359.88,-180.0 L362.88,-180.0" stroke="#999999" />
<text font-size="6" stroke="none" fill="#999999"><textPath xlink:href="#d64">
<tspan dy="0em">230mm</tspan>
</textPath></text>
<path d="M359.87999999999994,-190.0 L362.87999999999994,-190.0" stroke="#999999" />
<text font-size="6" stroke="none" fill="#999999"><textPath xlink:href="#d65">
<tspan dy="0em">240mm</tspan>
</textPath></text>
<path d="M359.87999999999994,-200.0 L362.87999999999994,-200.0" stroke="#999999" />
<text font-size="6" stroke="none" fill="#999999"><textPath xlink:href="#d66">
<tspan dy="0em">250mm</tspan>
</textPath></text>
<path d="M359.87999999999994,-210.0 L362.87999999999994,-210.0" stroke="#999999" />
<text font-size="6" stroke="none" fill="#999999"><textPath xlink:href="#d67">
<tspan dy="0em">260mm</tspan>
</textPath></text>
<path d="M359.87999999999994,-220.0 L362.87999999999994,-220.0" stroke="#999999" />
<text font-size="6" stroke="none" fill="#999999"><textPath xlink:href="#d68">
<tspan dy="0em">270mm</tspan>
</textPath></text>
<path d="M359.87999999999994,-230.0 L362.87999999999994,-230.0" stroke="#999999" />
<text font-size="6" stroke="none" fill="#999999"><textPath xlink:href="#d69">
<tspan dy="0em">280mm</tspan>
</textPath></text>
<path d="M359.8799999999999,-239.99999999999997 L362.8799999999999,-239.99999999999997" stroke="#999999" />
<text font-size="6" stroke="none" fill="#999999"><textPath xlink:href="#d70">
<tspan dy="0em">290mm</tspan>
</textPath></text>
<path d="M359.8799999999999,-250.00000000000003 L362.8799999999999,-250.00000000000003" stroke="#999999" />
<text font-size="6" stroke="none" fill="#999999"><textPath xlink:href="#d71">
<tspan dy="0em">300mm</tspan>
</textPath></text>
<path d="M359.88,-259.99999999999994 L362.88,-259.99999999999994" stroke="#999999" />
<text font-size="6" stroke="none" fill="#999999"><textPath xlink:href="#d72">
<tspan dy="0em">310mm</tspan>
</textPath></text>
<path d="M359.87999999999994,-270.0 L362.87999999999994,-270.0" stroke="#999999" />
<text font-size="6" stroke="none" fill="#999999"><textPath xlink:href="#d73">
<tspan dy="0em">320mm</tspan>
</textPath></text>
<path d="M359.87999999999994,-280.0 L362.87999999999994,-280.0" stroke="#999999" />
<text font-size="6" stroke="none" fill="#999999"><textPath xlink:href="#d74">
<tspan dy="0em">330mm</tspan>
</textPath></text>
<path d="M359.87999999999994,-290.0 L362.87999999999994,-290.0" stroke="#999999" />
<text font-size="6" stroke="none" fill="#999999"><textPath xlink:href="#d75">
<tspan dy="0em">340mm</tspan>
</textPath></text>
<path d="M359.88,-300.0 L362.88,-300.0" stroke="#999999" />
<text font-size="6" stroke="none" fill="#999999"><textPath xlink:href="#d76">
<tspan dy="0em">350mm</tspan>
</textPath></text>
<path d="M359.87999999999994,-310.0 L362.87999999999994,-310.0" stroke="#999999" />
<text font-size="6" stroke="none" fill="#999999"><textPath xlink:href="#d77">
<tspan dy="0em">360mm</tspan>
</textPath></text>
<path d="M359.87999999999994,-320.0 L362.87999999999994,-320.0" stroke="#999999" />
<text font-size="6" stroke="none" fill="#999999"><textPath xlink:href="#d78">
<tspan dy="0em">370mm</tspan>
</textPath></text>
<path d="M359.87999999999994,-329.99999999999994 L362.87999999999994,-329.99999999999994" stroke="#999999" />
<text font-size="6" stroke="none" fill="#999999"><textPath xlink:href="#d79">
<tspan dy="0em">380mm</tspan>
</textPath></text>
<path d="M359.87999999999994,-340.0 L362.87999999999994,-340.0" stroke="#999999" />
<text font-size="6" stroke="none" fill="#999999"><textPath xlink:href="#d80">
<tspan dy="0em">390mm</tspan>
</textPath></text>
<path d="M359.87999999999994,-350.00000000000006 L362.87999999999994,-350.00000000000006" stroke="#999999" />
<text font-size="6" stroke="none" fill="#999999"><textPath xlink:href="#d81">
<tspan dy="0em">400mm</tspan>
</textPath></text>
<path d="M359.8799999999999,-360.0 L362.8799999999999,-360.0" stroke="#999999" />
<text font-size="6" stroke="none" fill="#999999"><textPath xlink:href="#d82">
<tspan dy="0em">410mm</tspan>
</textPath></text>
<path d="M359.87999999999994,-370.0 L362.87999999999994,-370.0" stroke="#999999" />
<text font-size="6" stroke="none" fill="#999999"><textPath xlink:href="#d83">
<tspan dy="0em">420mm</tspan>
</textPath></text>
<path d="M359.8799999999999,-380.0 L362.8799999999999,-380.0" stroke="#999999" />
<text font-size="6" stroke="none" fill="#999999"><textPath xlink:href="#d84">
<tspan dy="0em">430mm</tspan>
</textPath></text>
<path d="M359.87999999999994,-390.0 L362.87999999999994,-390.0" stroke="#999999" />
<text font-size="6" stroke="none" fill="#999999"><textPath xlink:href="#d85">
<tspan dy="0em">440mm</tspan>
</textPath></text>
<path d="M359.87999999999994,-399.99999999999994 L362.87999999999994,-399.99999999999994" stroke="#999999" />
<text font-size="6" stroke="none" fill="#999999"><textPath xlink:href="#d86">
<tspan dy="0em">450mm</tspan>
</textPath></text>
<path d="M359.87999999999994,-410.0 L362.87999999999994,-410.0" stroke="#999999" />
<text font-size="6" stroke="none" fill="#999999"><textPath xlink:href="#d87">
<tspan dy="0em">460mm</tspan>
</textPath></text>
<path d="M359.87999999999994,-420.00000000000006 L362.87999999999994,-420.00000000000006" stroke="#999999" />
<text font-size="6" stroke="none" fill="#999999"><textPath xlink:href="#d88">
<tspan dy="0em">470mm</tspan>
</textPath></text>
<path d="M359.88,-430.0 L362.88,-430.0" stroke="#999999" />
<text font-size="6" stroke="none" fill="#999999"><textPath xlink:href="#d89">
<tspan dy="0em">480mm</tspan>
</textPath></text>
<path d="M359.87999999999994,-440.0 L362.87999999999994,-440.0" stroke="#999999" />
<text font-size="6" stroke="none" fill="#999999"><textPath xlink:href="#d90">
<tspan dy="0em">490mm</tspan>
</textPath></text>
<path d="M359.88,-450.0 L362.88,-450.0" stroke="#999999" />
<text font-size="6" stroke="none" fill="#999999"><textPath xlink:href="#d91">
<tspan dy="0em">500mm</tspan>
</textPath></text>
<path d="M359.87999999999994,-460.0 L362.87999999999994,-460.0" stroke="#999999" />
<text font-size="6" stroke="none" fill="#999999"><textPath xlink:href="#d92">
<tspan dy="0em">510mm</tspan>
</textPath></text>
<path d="M359.87999999999994,-470.0 L362.87999999999994,-470.0" stroke="#999999" />
<text font-size="6" stroke="none" fill="#999999"><textPath xlink:href="#d93">
<tspan dy="0em">520mm</tspan>
</textPath></text>
<path d="M359.87999999999994,-480.0 L362.87999999999994,-480.0" stroke="#999999" />
<text font-size="6" stroke="none" fill="#999999"><textPath xlink:href="#d94">
<tspan dy="0em">530mm</tspan>
</textPath></text>
<path d="M359.8799999999999,-490.0 L362.8799999999999,-490.0" stroke="#999999" />
<text font-size="6" stroke="none" fill="#999999"><textPath xlink:href="#d95">
<tspan dy="0em">540mm</tspan>
</textPath></text>
<path d="M359.8799999999999,-500.00000000000006 L362.8799999999999,-500.00000000000006" stroke="#999999" />
<text font-size="6" stroke="none" fill="#999999"><textPath xlink:href="#d96">
<tspan dy="0em">550mm</tspan>
</textPath></text>
<path d="M359.87999999999994,-510.0 L362.87999999999994,-510.0" stroke="#999999" />
<text font-size="6" stroke="none" fill="#999999"><textPath xlink:href="#d97">
<tspan dy="0em">560mm</tspan>
</textPath></text>
<path d="M359.87999999999994,-520.0 L362.87999999999994,-520.0" stroke="#999999" />
<text font-size="6" stroke="none" fill="#999999"><textPath xlink:href="#d98">
<tspan dy="0em">570mm</tspan>
</textPath></text>
<path d="M359.87999999999994,-530.0 L362.87999999999994,-530.0" stroke="#999999" />
<text font-size="6" stroke="none" fill="#999999"><textPath xlink:href="#d99">
<tspan dy="0em">580mm</tspan>
</textPath></text>
<path d="M359.87999999999994,-540.0 L362.87999999999994,-540.0" stroke="#999999" />
<text font-size="6" stroke="none" fill="#999999"><textPath xlink:href="#d100">
<tspan dy="0em">590mm</tspan>
</textPath></text>
<path d="M359.87999999999994,-550.0 L362.87999999999994,-550.0" stroke="#999999" />
<text font-size="6" stroke="none" fill="#999999"><textPath xlink:href="#d101">
<tspan dy="0em">600mm</tspan>
</textPath></text>
<path d="M359.87999999999994,-560.0000000000001 L362.87999999999994,-560.0000000000001" stroke="#999999" />
<text font-size="6" stroke="none" fill="#999999"><textPath xlink:href="#d102">
<tspan dy="0em">610mm</tspan>
</textPath></text>
<path d="M359.87999999999994,-569.9999999999999 L362.87999999999994,-569.9999999999999" stroke="#999999" />
<text font-size="6" stroke="none" fill="#999999"><textPath xlink:href="#d103">
<tspan dy="0em">620mm</tspan>
</textPath></text>
<path d="M359.87999999999994,-579.9999999999999 L362.87999999999994,-579.9999999999999" stroke="#999999" />
<text font-size="6" stroke="none" fill="#999999"><textPath xlink:href="#d104">
<tspan dy="0em">630mm</tspan>
</textPath></text>
<path d="M359.87999999999994,-590.0 L362.87999999999994,-590.0" stroke="#999999" />
<text font-size="6" stroke="none" fill="#999999"><textPath xlink:href="#d105">
<tspan dy="0em">640mm</tspan>
</textPath></text>
<path d="M359.87999999999994,-600.0 L362.87999999999994,-600.0" stroke="#999999" />
<text font-size="6" stroke="none" fill="#999999"><textPath xlink:href="#d106">
<tspan dy="0em">650mm</tspan>
</textPath></text>
<path d="M359.87999999999994,-610.0000000000001 L362.87999999999994,-610.0000000000001" stroke="#999999" />
<text font-size="6" stroke="none" fill="#999999"><textPath xlink:href="#d107">
<tspan dy="0em">660mm</tspan>
</textPath></text>
<path d="M359.87999999999994,-620.0 L362.87999999999994,-620.0" stroke="#999999" />
<text font-size="6" stroke="none" fill="#999999"><textPath xlink:href="#d108">
<tspan dy="0em">670mm</tspan>
</textPath></text>
<path d="M359.87999999999994,-630.0 L362.87999999999994,-630.0" stroke="#999999" />
<text font-size="6" stroke="none" fill="#999999"><textPath xlink:href="#d109">
<tspan dy="0em">680mm</tspan>
</textPath></text>
<path d="M359.87999999999994,-640.0 L362.87999999999994,-640.0" stroke="#999999" />
<text font-size="6" stroke="none" fill="#999999"><textPath xlink:href="#d110">
<tspan dy="0em">690mm</tspan>
</textPath></text>
<path d="M359.87999999999994,-650.0 L362.87999999999994,-650.0" stroke="#999999" />
<text font-size="6" stroke="none" fill="#999999"><textPath xlink:href="#d111">
<tspan dy="0em">700mm</tspan>
</textPath></text>
<path d="M359.87999999999994,-660.0 L362.87999999999994,-660.0" stroke="#999999" />
<text font-size="6" stroke="none" fill="#999999"><textPath xlink:href="#d112">
<tspan dy="0em">710mm</tspan>
</textPath></text>
<path d="M359.87999999999994,-670.0 L362.87999999999994,-670.0" stroke="#999999" />
<text font-size="6" stroke="none" fill="#999999"><textPath xlink:href="#d113">
<tspan dy="0em">720mm</tspan>
</textPath></text>
<path d="M359.87999999999994,-680.0 L362.87999999999994,-680.0" stroke="#999999" />
<text font-size="6" stroke="none" fill="#999999"><textPath xlink:href="#d114">
<tspan dy="0em">730mm</tspan>
</textPath></text>
<path d="M359.87999999999994,-690.0 L362.87999999999994,-690.0" stroke="#999999" />
<text font-size="6" stroke="none" fill="#999999"><textPath xlink:href="#d115">
<tspan dy="0em">740mm</tspan>
</textPath></text>
<path d="M359.87999999999994,-700.0 L362.87999999999994,-700.0" stroke="#999999" />
<text font-size="6" stroke="none" fill="#999999"><textPath xlink:href="#d116">
<tspan dy="0em">750mm</tspan>
</textPath></text>
<path d="M359.87999999999994,-709.9999999999999 L362.87999999999994,-709.9999999999999" stroke="#999999" />
<text font-size="6" stroke="none" fill="#999999"><textPath xlink:href="#d117">
<tspan dy="0em">760mm</tspan>
</textPath></text>
<path d="M359.87999999999994,-720.0 L362.87999999999994,-720.0" stroke="#999999" />
<text font-size="6" stroke="none" fill="#999999"><textPath xlink:href="#d118">
<tspan dy="0em">770mm</tspan>
</textPath></text>
<path d="M359.87999999999994,-730.0 L362.87999999999994,-730.0" stroke="#999999" />
<text font-size="6" stroke="none" fill="#999999"><textPath xlink:href="#d119">
<tspan dy="0em">780mm</tspan>
</textPath></text>
<path d="M359.87999999999994,-740.0 L362.87999999999994,-740.0" stroke="#999999" />
<text font-size="6" stroke="none" fill="#999999"><textPath xlink:href="#d120">
<tspan dy="0em">790mm</tspan>
</textPath></text>
<path d="M359.87999999999994,-750.0000000000001 L362.87999999999994,-750.0000000000001" stroke="#999999" />
<text font-size="6" stroke="none" fill="#999999"><textPath xlink:href="#d121">
<tspan dy="0em">800mm</tspan>
</textPath></text>
<path d="M359.88,-760.0 L362.88,-760.0" stroke="#999999" />
<text font-size="6" stroke="none" fill="#999999"><textPath xlink:href="#d122">
<tspan dy="0em">810mm</tspan>
</textPath></text>
<path d="M359.87999999999994,-769.9999999999999 L362.87999999999994,-769.9999999999999" stroke="#999999" />
<text font-size="6" stroke="none" fill="#999999"><textPath xlink:href="#d123">
<tspan dy="0em">820mm</tspan>
</textPath></text>
<path d="M359.87999999999994,-780.0 L362.87999999999994,-780.0" stroke="#999999" />
<text font-size="6" stroke="none" fill="#999999"><textPath xlink:href="#d124">
<tspan dy="0em">830mm</tspan>
</textPath></text>
<path d="M359.88,-790.0 L362.88,-790.0" stroke="#999999" />
<text font-size="6" stroke="none" fill="#999999"><textPath xlink:href="#d125">
<tspan dy="0em">840mm</tspan>
</textPath></text>
<path d="M359.87999999999994,-800.0 L362.87999999999994,-800.0" stroke="#999999" />
<text font-size="6" stroke="none" fill="#999999"><textPath xlink:href="#d126">
<tspan dy="0em">850mm</tspan>
</textPath></text>
<path d="M359.87999999999994,-810.0 L362.87999999999994,-810.0" stroke="#999999" />
<text font-size="6" stroke="none" fill="#999999"><textPath xlink:href="#d127">
<tspan dy="0em">860mm</tspan>
</textPath></text>
<path d="M359.87999999999994,-820.0 L362.87999999999994,-820.0" stroke="#999999" />
<text font-size="6" stroke="none" fill="#999999"><textPath xlink:href="#d128">
<tspan dy="0em">870mm</tspan>
</textPath></text>
<path d="M359.87999999999994,-830.0 L362.87999999999994,-830.0" stroke="#999999" />
<text font-size="6" stroke="none" fill="#999999"><textPath xlink:href="#d129">
<tspan dy="0em">880mm</tspan>
</textPath></text>
<path d="M359.87999999999994,-840.0 L362.87999999999994,-840.0" stroke="#999999" />
<text font-size="6" stroke="none" fill="#999999"><textPath xlink:href="#d130">
<tspan dy="0em">890mm</tspan>
</textPath></text>
<path d="M359.87999999999994,-849.9999999999999 L362.87999999999994,-849.9999999999999" stroke="#999999" />
<text font-size="6" stroke="none" fill="#999999"><textPath xlink:href="#d131">
<tspan dy="0em">900mm</tspan>
</textPath></text>
<path d="M359.87999999999994,-860.0 L362.87999999999994,-860.0" stroke="#999999" />
<text font-size="6" stroke="none" fill="#999999"><textPath xlink:href="#d132">
<tspan dy="0em">910mm</tspan>
</textPath></text>
<path d="M359.87999999999994,-870.0 L362.87999999999994,-870.0" stroke="#999999" />
<text font-size="6" stroke="none" fill="#999999"><textPath xlink:href="#d133">
<tspan dy="0em">920mm</tspan>
</textPath></text>
<path d="M359.87999999999994,-880.0000000000001 L362.87999999999994,-880.0000000000001" stroke="#999999" />
<text font-size="6" stroke="none" fill="#999999"><textPath xlink:href="#d134">
<tspan dy="0em">930mm</tspan>
</textPath></text>
<path d="M359.87999999999994,-890.0000000000001 L362.87999999999994,-890.0000000000001" stroke="#999999" />
<text font-size="6" stroke="none" fill="#999999"><textPath xlink:href="#d135">
<tspan dy="0em">940mm</tspan>
</textPath></text>
<path d="M359.87999999999994,-899.9999999999999 L362.87999999999994,-899.9999999999999" stroke="#999999" />
<text font-size="6" stroke="none" fill="#999999"><textPath xlink:href="#d136">
<tspan dy="0em">950mm</tspan>
</textPath></text>
<path d="M359.87999999999994,-910.0 L362.87999999999994,-910.0" stroke="#999999" />
<text font-size="6" stroke="none" fill="#999999"><textPath xlink:href="#d137">
<tspan dy="0em">960mm</tspan>
</textPath></text>
<path d="M359.87999999999994,-920.0 L362.87999999999994,-920.0" stroke="#999999" />
<text font-size="6" stroke="none" fill="#999999"><textPath xlink:href="#d138">
<tspan dy="0em">970mm</tspan>
</textPath></text>
<path d="M359.87999999999994,-930.0 L362.87999999999994,-930.0" stroke="#999999" />
<text font-size="6" stroke="none" fill="#999999"><textPath xlink:href="#d139">
<tspan dy="0em">980mm</tspan>
</textPath></text>
<path d="M359.8799999999999,-940.0 L362.8799999999999,-940.0" stroke="#999999" />
<text font-size="6" stroke="none" fill="#999999"><textPath xlink:href="#d140">
<tspan dy="0em">990mm</tspan>
</textPath></text>
<path d="M359.87999999999994,-950.0 L362.87999999999994,-950.0" stroke="#999999" />
<text font-size="6" stroke="none" fill="#999999"><textPath xlink:href="#d141">
<tspan dy="0em">1000mm</tspan>
</textPath></text>
<path d="M359.87999999999994,-960.0000000000001 L362.87999999999994,-960.0000000000001" stroke="#999999" />
<text font-size="6" stroke="none" fill="#999999"><textPath xlink:href="#d142">
<tspan dy="0em">1010mm</tspan>
</textPath></text>
<path d="M359.87999999999994,-970.0 L362.87999999999994,-970.0" stroke="#999999" />
<text font-size="6" stroke="none" fill="#999999"><textPath xlink:href="#d143">
<tspan dy="0em">1020mm</tspan>
</textPath></text>
<path d="M359.87999999999994,-980.0 L362.87999999999994,-980.0" stroke="#999999" />
<text font-size="6" stroke="none" fill="#999999"><textPath xlink:href="#d144">
<tspan dy="0em">1030mm</tspan>
</textPath></text>
<path d="M359.87999999999994,-990.0 L362.87999999999994,-990.0" stroke="#999999" />
<text font-size="6" stroke="none" fill="#999999"><textPath xlink:href="#d145">
<tspan dy="0em">1040mm</tspan>
</textPath></text>
<path d="M359.87999999999994,-1000.0 L362.87999999999994,-1000.0" stroke="#999999" />
<text font-size="6" stroke="none" fill="#999999"><textPath xlink:href="#d146">
<tspan dy="0em">1050mm</tspan>
</textPath></text>
<path d="M359.87999999999994,-1010.0 L362.87999999999994,-1010.0" stroke="#999999" />
<text font-size="6" stroke="none" fill="#999999"><textPath xlink:href="#d147">
<tspan dy="0em">1060mm</tspan>
</textPath></text>
<path d="M359.87999999999994,-1020.0000000000001 L362.87999999999994,-1020.0000000000001" stroke="#999999" />
<text font-size="6" stroke="none" fill="#999999"><textPath xlink:href="#d148">
<tspan dy="0em">1070mm</tspan>
</textPath></text>
<path d="M359.87999999999994,-1030.0 L362.87999999999994,-1030.0" stroke="#999999" />
<text font-size="6" stroke="none" fill="#999999"><textPath xlink:href="#d149">
<tspan dy="0em">1080mm</tspan>
</textPath></text>
<path d="M359.87999999999994,-1040.0 L362.87999999999994,-1040.0" stroke="#999999" />
<text font-size="6" stroke="none" fill="#999999"><textPath xlink:href="#d150">
<tspan dy="0em">1090mm</tspan>
</textPath></text>
<path d="M359.87999999999994,-1050.0 L362.87999999999994,-1050.0" stroke="#999999" />
<text font-size="6" stroke="none" fill="#999999"><textPath xlink:href="#d151">
<tspan dy="0em">1100mm</tspan>
</textPath></text>
</g>
</svg>
