<?xml version="1.0" encoding="UTF-8"?>
<svg xmlns="http://www.w3.org/2000/svg" xmlns:xlink="http://www.w3.org/1999/xlink"
     width="250.0" height="300.0" viewBox="-100.0 -200.0 250.0 300.0" stroke="black" fill="none">
<defs>
</defs>
<g>
<circle cx="0.0" cy="-0.0" r="1" fill="black" />
</g>
<g>
<circle cx="0.40093308062399763" cy="-7.493803761481267" r="1" fill="black" />
</g>
<g>
<circle cx="1.5454147834961363" cy="-14.244058900714387" r="1" fill="black" />
</g>
<g>
<circle cx="3.345968800116635" cy="-20.33824172619915" r="1" fill="black" />
</g>
<g>
<circle cx="5.715118821985711" cy="-25.863828546435343" r="1" fill="black" />
</g>
<g>
<circle cx="8.565388540603585" cy="-30.908295669922733" r="1" fill="black" />
</g>
<g>
<circle cx="11.809301647470477" cy="-35.559119405161105" r="1" fill="black" />
</g>
<g>
<circle cx="15.359381834086598" cy="-39.90377606065024" r="1" fill="black" />
</g>
<g>
<circle cx="19.12815279195218" cy="-44.02974194488993" r="1" fill="black" />
</g>
<g>
<circle cx="23.028138212567427" cy="-48.02449336637994" r="1" fill="black" />
</g>
<g>
<circle cx="26.971861787432566" cy="-51.97550663362006" r="1" fill="black" />
</g>
<g>
<circle cx="30.871847208047825" cy="-55.97025805511008" r="1" fill="black" />
</g>
<g>
<circle cx="34.640618165913395" cy="-60.096223939349755" r="1" fill="black" />
</g>
<g>
<circle cx="38.19069835252952" cy="-64.44088059483889" r="1" fill="black" />
</g>
<g>
<circle cx="41.43461145939641" cy="-69.09170433007726" r="1" fill="black" />
</g>
<g>
<circle cx="44.28488117801429" cy="-74.13617145356466" r="1" fill="black" />
</g>
<g>
<circle cx="46.65403119988336" cy="-79.66175827380084" r="1" fill="black" />
</g>
<g>
<circle cx="48.454585216503865" cy="-85.75594109928561" r="1" fill="black" />
</g>
<g>
<circle cx="49.599066919376" cy="-92.50619623851873" r="1" fill="black" />
</g>
<g>
<circle cx="50.0" cy="-100.0" r="1" fill="black" />
</g>
<g>
<circle cx="0" cy="0" r="1" fill="black" />
<text x="2" y="-2" font-size="12" fill="#000000" stroke="none" dy="0em">p0</text>
</g>
<g>
<circle cx="0" cy="-50" r="1" fill="black" />
<text x="2" y="-52" font-size="12" fill="#000000" stroke="none" dy="0em">p1</text>
</g>
<g>
<path d="M0,0 L0,-50" fill="none" stroke="black" stroke-dasharray="3" />
</g>
<g>
<circle cx="50" cy="-50" r="1" fill="black" />
<text x="52" y="-52" font-size="12" fill="#000000" stroke="none" dy="0em">p2</text>
</g>
<g>
<circle cx="50" cy="-100" r="1" fill="black" />
<text x="52" y="-102" font-size="12" fill="#000000" stroke="none" dy="0em">p3</text>
</g>
<g>
<path d="M50,-50 L50,-100" fill="none" stroke="black" stroke-dasharray="3" />
</g>
</svg>