<?xml version="1.0" encoding="UTF-8"?>
<svg xmlns="http://www.w3.org/2000/svg" xmlns:xlink="http://www.w3.org/1999/xlink"
     width="152.95272905355262" height="160.0" viewBox="-22.95272905355261 -130.0 152.95272905355262 160.0" stroke="black" fill="none">
<defs>
</defs>
<g>
<path d="M100.0,-0.0 L99.80267284282715,-6.279051952931337 L99.21147013144778,-12.533323356430426 L98.22872507286887,-18.738131458572465 L96.85831611286311,-24.86898871648548 L95.10565162951536,-30.901699437494745 L92.97764858882515,-36.8124552684678 L90.48270524660195,-42.577929156507274 L87.63066800438637,-48.17536741017153 L84.43279255020151,-53.58267949789967 L80.90169943749474,-58.778525229247315 L77.05132427757891,-63.742398974868976 L72.89686274214115,-68.45471059286888 L68.45471059286886,-72.89686274214115 L63.74239897486897,-77.05132427757894 L58.77852522924731,-80.90169943749476 L53.582679497899655,-84.43279255020151 L48.17536741017152,-87.63066800438637 L42.57792915650727,-90.48270524660195 L36.81245526846779,-92.97764858882515 L30.90169943749475,-95.10565162951536 L24.86898871648548,-96.85831611286312 L18.73813145857245,-98.22872507286887 L7.047270946447391,-99.73005476749935" />
</g>
<g>
<circle cx="90" cy="-100" r="1" fill="black" />
<text x="92" y="-102" font-size="12" fill="#000000" stroke="none" dy="0em">X</text>
</g>
<g>
<circle cx="67.13281522853877" cy="-74.06227027249327" r="1" fill="black" />
<text x="69.13281522853877" y="-76.06227027249327" font-size="12" fill="#000000" stroke="none" dy="0em">Y</text>
</g>
</svg>