<?xml version="1.0" encoding="UTF-8"?>
<svg xmlns="http://www.w3.org/2000/svg" xmlns:xlink="http://www.w3.org/1999/xlink"
     width="800.0" height="399.6053456856543" viewBox="-75.0 -125.0 800.0 399.6053456856543" stroke="black" fill="none">
<defs>
</defs>
<path d="M-75.0,274.6053456856543 L725.0,274.6053456856543" stroke="#dddddd" />
<path d="M-75.0,224.6053456856543 L725.0,224.6053456856543" stroke="#dddddd" stroke-dasharray="5" />
<path d="M-75.0,174.6053456856543 L725.0,174.6053456856543" stroke="#dddddd" stroke-dasharray="5" />
<path d="M-75.0,124.6053456856543 L725.0,124.6053456856543" stroke="#dddddd" stroke-dasharray="5" />
<path d="M-75.0,74.6053456856543 L725.0,74.6053456856543" stroke="#dddddd" stroke-dasharray="5" />
<path d="M-75.0,24.6053456856543 L725.0,24.6053456856543" stroke="#dddddd" />
<path d="M-75.0,-25.3946543143457 L725.0,-25.3946543143457" stroke="#dddddd" stroke-dasharray="5" />
<path d="M-75.0,-75.3946543143457 L725.0,-75.3946543143457" stroke="#dddddd" stroke-dasharray="5" />
<path d="M-75.0,274.6053456856543 L-75.0,-125.0" stroke="#dddddd" />
<path d="M-25.0,274.6053456856543 L-25.0,-125.0" stroke="#dddddd" stroke-dasharray="5" />
<path d="M25.0,274.6053456856543 L25.0,-125.0" stroke="#dddddd" stroke-dasharray="5" />
<path d="M75.0,274.6053456856543 L75.0,-125.0" stroke="#dddddd" stroke-dasharray="5" />
<path d="M125.0,274.6053456856543 L125.0,-125.0" stroke="#dddddd" stroke-dasharray="5" />
<path d="M175.0,274.6053456856543 L175.0,-125.0" stroke="#dddddd" />
<path d="M225.0,274.6053456856543 L225.0,-125.0" stroke="#dddddd" stroke-dasharray="5" />
<path d="M275.0,274.6053456856543 L275.0,-125.0" stroke="#dddddd" stroke-dasharray="5" />
<path d="M325.0,274.6053456856543 L325.0,-125.0" stroke="#dddddd" stroke-dasharray="5" />
<path d="M375.0,274.6053456856543 L375.0,-125.0" stroke="#dddddd" stroke-dasharray="5" />
<path d="M425.0,274.6053456856543 L425.0,-125.0" stroke="#dddddd" />
<path d="M475.0,274.6053456856543 L475.0,-125.0" stroke="#dddddd" stroke-dasharray="5" />
<path d="M525.0,274.6053456856543 L525.0,-125.0" stroke="#dddddd" stroke-dasharray="5" />
<path d="M575.0,274.6053456856543 L575.0,-125.0" stroke="#dddddd" stroke-dasharray="5" />
<path d="M625.0,274.6053456856543 L625.0,-125.0" stroke="#dddddd" stroke-dasharray="5" />
<path d="M675.0,274.6053456856543 L675.0,-125.0" stroke="#dddddd" />
<g>
<path d="M175.00000000000006,61.60254037844388 L25.000000000000057,-25.0 L25.0,148.2050807568877 L175.00000000000006,61.60254037844388" fill="#E6E6FA66" stroke="black" />
</g>
<g>
<path d="M400.00000000000006,61.60254037844388 L350.00000000000006,-24.999999999999986 L250.00000000000006,-25.0 L200.00000000000006,61.60254037844386 L250.0,148.2050807568877 L350.0,148.20508075688778 L400.00000000000006,61.60254037844388" fill="#E6E6FA66" stroke="black" />
</g>
<g>
<path d="M625.0,74.80267284282715 L624.2114701314478,62.26934948639672 L621.8583161128631,49.933684126341674 L617.9776485888251,37.99021757435935 L612.6306680043864,26.627305432655618 L605.9016994374947,16.024147613579835 L597.8968627421411,6.347962249958272 L588.7423989748689,-2.2486514347517925 L578.5826794978997,-9.630119707374362 L567.5779291565073,-15.680032403774803 L555.9016994374947,-20.302978786688215 L543.7381314585724,-23.42605223004172 L531.2790519529314,-25.0 L518.7209480470686,-25.0 L506.26186854142753,-23.42605223004172 L494.09830056250524,-20.3029787866882 L482.42207084349275,-15.680032403774803 L471.4173205021003,-9.630119707374348 L461.257601025131,-2.2486514347517783 L452.10313725785886,6.3479622499583 L444.0983005625053,16.024147613579828 L437.3693319956136,26.627305432655625 L432.02235141117484,37.99021757435938 L428.1416838871369,49.93368412634167 L425.78852986855225,62.26934948639674 L425.0,74.80267284282718 L425.78852986855225,87.33599619925758 L428.1416838871369,99.67166155931265 L432.0223514111749,111.61512811129498 L437.36933199561366,122.97804025299868 L444.0983005625053,133.58119807207447 L452.10313725785886,143.25738343569603 L461.25760102513107,151.8539971204061 L471.4173205021004,159.23546539302868 L482.4220708434928,165.28537808942912 L494.09830056250524,169.90832447234249 L506.26186854142753,173.031397915696 L518.7209480470686,174.6053456856543 L531.2790519529314,174.6053456856543 L543.7381314585725,173.031397915696 L555.9016994374947,169.9083244723425 L567.5779291565073,165.28537808942912 L578.5826794978997,159.23546539302865 L588.742398974869,151.85399712040606 L597.8968627421411,143.25738343569597 L605.9016994374948,133.58119807207441 L612.6306680043864,122.97804025299868 L617.9776485888251,111.61512811129494 L621.8583161128631,99.6716615593126 L624.2114701314478,87.33599619925752 L625.0,74.80267284282715" fill="#E6E6FA66" stroke="black" />
</g>
</svg>