<?xml version="1.0" encoding="UTF-8"?>
<svg xmlns="http://www.w3.org/2000/svg" xmlns:xlink="http://www.w3.org/1999/xlink"
     width="440.0" height="812.5" viewBox="-100.0 -112.5 440.0 812.5" stroke="black" fill="none">
<defs>
</defs>
<path d="M-100.0,700.0 L340.0,700.0" stroke="#dddddd" />
<path d="M-100.0,490.0 L340.0,490.0" stroke="#dddddd" />
<path d="M-100.0,280.0 L340.0,280.0" stroke="#dddddd" />
<path d="M-100.0,70.0 L340.0,70.0" stroke="#dddddd" />
<path d="M-100.0,700.0 L-100.0,-112.5" stroke="#dddddd" />
<path d="M197.0,700.0 L197.0,-112.5" stroke="#dddddd" />
<text x="48.5" y="595.0" font-size="10" stroke="none" fill="#dddddd" dy="0em">α0</text>
<text x="48.5" y="385.0" font-size="10" stroke="none" fill="#dddddd" dy="0em">α1</text>
<text x="48.5" y="175.0" font-size="10" stroke="none" fill="#dddddd" dy="0em">α2</text>
<text x="48.5" y="-35.0" font-size="10" stroke="none" fill="#dddddd" dy="0em">α3</text>
<path d="M-100.0,700.0 L340.0,700.0" stroke="#ffcccc66" stroke-dasharray="5" />
<text x="-99.0" y="698.0" font-size="8" stroke="none" fill="#ffcccc66" dy="0em">-100mm</text>
<path d="M-100.0,650.0 L340.0,650.0" stroke="#ffcccc66" stroke-dasharray="5" />
<text x="-99.0" y="648.0" font-size="8" stroke="none" fill="#ffcccc66" dy="0em">-50mm</text>
<path d="M-100.0,600.0 L340.0,600.0" stroke="#ffcccc66" stroke-dasharray="5" />
<text x="-99.0" y="598.0" font-size="8" stroke="none" fill="#ffcccc66" dy="0em">0mm</text>
<path d="M-100.0,550.0 L340.0,550.0" stroke="#ffcccc66" stroke-dasharray="5" />
<text x="-99.0" y="548.0" font-size="8" stroke="none" fill="#ffcccc66" dy="0em">50mm</text>
<path d="M-100.0,500.0 L340.0,500.0" stroke="#ffcccc66" stroke-dasharray="5" />
<text x="-99.0" y="498.0" font-size="8" stroke="none" fill="#ffcccc66" dy="0em">100mm</text>
<path d="M-100.0,450.0 L340.0,450.0" stroke="#ffcccc66" stroke-dasharray="5" />
<text x="-99.0" y="448.0" font-size="8" stroke="none" fill="#ffcccc66" dy="0em">150mm</text>
<path d="M-100.0,400.0 L340.0,400.0" stroke="#ffcccc66" stroke-dasharray="5" />
<text x="-99.0" y="398.0" font-size="8" stroke="none" fill="#ffcccc66" dy="0em">200mm</text>
<path d="M-100.0,350.0 L340.0,350.0" stroke="#ffcccc66" stroke-dasharray="5" />
<text x="-99.0" y="348.0" font-size="8" stroke="none" fill="#ffcccc66" dy="0em">250mm</text>
<path d="M-100.0,300.0 L340.0,300.0" stroke="#ffcccc66" stroke-dasharray="5" />
<text x="-99.0" y="298.0" font-size="8" stroke="none" fill="#ffcccc66" dy="0em">300mm</text>
<path d="M-100.0,250.0 L340.0,250.0" stroke="#ffcccc66" stroke-dasharray="5" />
<text x="-99.0" y="248.0" font-size="8" stroke="none" fill="#ffcccc66" dy="0em">350mm</text>
<path d="M-100.0,200.0 L340.0,200.0" stroke="#ffcccc66" stroke-dasharray="5" />
<text x="-99.0" y="198.0" font-size="8" stroke="none" fill="#ffcccc66" dy="0em">400mm</text>
<path d="M-100.0,150.0 L340.0,150.0" stroke="#ffcccc66" stroke-dasharray="5" />
<text x="-99.0" y="148.0" font-size="8" stroke="none" fill="#ffcccc66" dy="0em">450mm</text>
<path d="M-100.0,100.0 L340.0,100.0" stroke="#ffcccc66" stroke-dasharray="5" />
<text x="-99.0" y="98.0" font-size="8" stroke="none" fill="#ffcccc66" dy="0em">500mm</text>
<path d="M-100.0,50.0 L340.0,50.0" stroke="#ffcccc66" stroke-dasharray="5" />
<text x="-99.0" y="48.0" font-size="8" stroke="none" fill="#ffcccc66" dy="0em">550mm</text>
<path d="M-100.0,-0.0 L340.0,-0.0" stroke="#ffcccc66" stroke-dasharray="5" />
<text x="-99.0" y="-2.0" font-size="8" stroke="none" fill="#ffcccc66" dy="0em">600mm</text>
<path d="M-100.0,-50.0 L340.0,-50.0" stroke="#ffcccc66" stroke-dasharray="5" />
<text x="-99.0" y="-52.0" font-size="8" stroke="none" fill="#ffcccc66" dy="0em">650mm</text>
<path d="M-100.0,-100.0 L340.0,-100.0" stroke="#ffcccc66" stroke-dasharray="5" />
<text x="-99.0" y="-102.0" font-size="8" stroke="none" fill="#ffcccc66" dy="0em">700mm</text>
<path d="M-100.0,700.0 L-100.0,-112.5" stroke="#ffcccc66" stroke-dasharray="5" />
<text x="-98.0" y="699.0" font-size="8" stroke="none" fill="#ffcccc66" dy="0em">-100mm</text>
<path d="M-50.0,700.0 L-50.0,-112.5" stroke="#ffcccc66" stroke-dasharray="5" />
<text x="-48.0" y="699.0" font-size="8" stroke="none" fill="#ffcccc66" dy="0em">-50mm</text>
<path d="M0.0,700.0 L0.0,-112.5" stroke="#ffcccc66" stroke-dasharray="5" />
<text x="2.0" y="699.0" font-size="8" stroke="none" fill="#ffcccc66" dy="0em">0mm</text>
<path d="M50.0,700.0 L50.0,-112.5" stroke="#ffcccc66" stroke-dasharray="5" />
<text x="52.0" y="699.0" font-size="8" stroke="none" fill="#ffcccc66" dy="0em">50mm</text>
<path d="M100.0,700.0 L100.0,-112.5" stroke="#ffcccc66" stroke-dasharray="5" />
<text x="102.0" y="699.0" font-size="8" stroke="none" fill="#ffcccc66" dy="0em">100mm</text>
<path d="M150.0,700.0 L150.0,-112.5" stroke="#ffcccc66" stroke-dasharray="5" />
<text x="152.0" y="699.0" font-size="8" stroke="none" fill="#ffcccc66" dy="0em">150mm</text>
<path d="M200.0,700.0 L200.0,-112.5" stroke="#ffcccc66" stroke-dasharray="5" />
<text x="202.0" y="699.0" font-size="8" stroke="none" fill="#ffcccc66" dy="0em">200mm</text>
<path d="M250.0,700.0 L250.0,-112.5" stroke="#ffcccc66" stroke-dasharray="5" />
<text x="252.0" y="699.0" font-size="8" stroke="none" fill="#ffcccc66" dy="0em">250mm</text>
<path d="M300.0,700.0 L300.0,-112.5" stroke="#ffcccc66" stroke-dasharray="5" />
<text x="302.0" y="699.0" font-size="8" stroke="none" fill="#ffcccc66" dy="0em">300mm</text>
<g>
<g>
<path d="M0.0,-0.0 L0,600.0 L240.0,600.0" fill="#E6E6FA66" stroke="black" />
</g>
<g>
<path d="M240.0,600.0 L240.0,265 L223.75,-12.5" fill="#E6E6FA66" stroke="black" />
</g>
<g>
<path d="M240.0,600.0 L223.75,-12.5 L159.15109809326995,-8.891122798506702" fill="#E6E6FA66" stroke="black" />
</g>
<g>
<path d="M240.0,600.0 L159.15109809326995,-8.891122798506702 L156.13903498133365,116.4720594992067" fill="#E6E6FA66" stroke="black" />
</g>
<g>
<path d="M156.13903498133365,116.4720594992067 L139.18223524006356,-7.775543868159976 L84.56776475993651,-4.724456131840029" fill="#E6E6FA66" stroke="black" />
</g>
<g>
<path d="M156.13903498133365,116.4720594992067 L84.56776475993651,-4.724456131840029 L82.39238584576032,135.61537330577818" fill="#E6E6FA66" stroke="black" />
</g>
<g>
<path d="M82.39238584576032,135.61537330577818 L64.5989019067301,-3.6088772014933017 L0,0" fill="#E6E6FA66" stroke="black" />
</g>
<g>
<path d="M240.0,600.0 L156.13903498133365,116.4720594992067 L82.39238584576032,135.61537330577818" fill="#E6E6FA66" stroke="black" />
</g>
<g>
<path d="M0.0,-0.0 L240.0,600.0 L82.39238584576032,135.61537330577818" fill="#E6E6FA66" stroke="black" />
</g>
<g>
<path d="M0.0,-0.0 L82.39238584576032,135.61537330577818 L0,0" fill="#E6E6FA66" stroke="black" />
</g>
</g>
</svg>