<?xml version="1.0" encoding="UTF-8"?>
<svg xmlns="http://www.w3.org/2000/svg" xmlns:xlink="http://www.w3.org/1999/xlink"
     width="900.0" height="499.6053456856543" viewBox="-125.0 -175.0 900.0 499.6053456856543" stroke="black" fill="none">
<defs>
<path d="M-25.0,228.6053456856543 L-25.0,328.6053456856543" id="d0" />
<path d="M-15.000000000000004,228.6053456856543 L-15.000000000000004,328.6053456856543" id="d1" />
<path d="M-5.0,228.6053456856543 L-5.0,328.6053456856543" id="d2" />
<path d="M5.0,228.6053456856543 L5.0,328.6053456856543" id="d3" />
<path d="M15.0,228.6053456856543 L15.0,328.6053456856543" id="d4" />
<path d="M24.999999999999993,228.6053456856543 L24.999999999999993,328.6053456856543" id="d5" />
<path d="M35.0,228.60534568565427 L35.0,328.60534568565424" id="d6" />
<path d="M45.0,228.6053456856543 L45.0,328.6053456856543" id="d7" />
<path d="M55.0,228.60534568565427 L55.0,328.60534568565424" id="d8" />
<path d="M65.0,228.6053456856543 L65.0,328.6053456856543" id="d9" />
<path d="M74.99999999999999,228.60534568565433 L74.99999999999999,328.60534568565436" id="d10" />
<path d="M85.0,228.6053456856543 L85.0,328.6053456856543" id="d11" />
<path d="M95.00000000000001,228.6053456856543 L95.00000000000001,328.6053456856543" id="d12" />
<path d="M105.0,228.6053456856543 L105.0,328.6053456856543" id="d13" />
<path d="M115.0,228.60534568565433 L115.0,328.60534568565436" id="d14" />
<path d="M125.0,228.6053456856543 L125.0,328.6053456856543" id="d15" />
<path d="M135.0,228.6053456856543 L135.0,328.6053456856543" id="d16" />
<path d="M145.0,228.6053456856543 L145.0,328.6053456856543" id="d17" />
<path d="M154.99999999999997,228.6053456856543 L154.99999999999997,328.6053456856543" id="d18" />
<path d="M164.99999999999997,228.6053456856543 L164.99999999999997,328.6053456856543" id="d19" />
<path d="M174.99999999999997,228.6053456856543 L174.99999999999997,328.6053456856543" id="d20" />
<path d="M185.0,228.6053456856543 L185.0,328.6053456856543" id="d21" />
<path d="M195.0,228.6053456856543 L195.0,328.6053456856543" id="d22" />
<path d="M205.0,228.6053456856543 L205.0,328.6053456856543" id="d23" />
<path d="M215.00000000000003,228.6053456856543 L215.00000000000003,328.6053456856543" id="d24" />
<path d="M225.0,228.60534568565427 L225.0,328.60534568565424" id="d25" />
<path d="M235.0,228.6053456856543 L235.0,328.6053456856543" id="d26" />
<path d="M245.00000000000003,228.60534568565433 L245.00000000000003,328.60534568565436" id="d27" />
<path d="M255.0,228.6053456856543 L255.0,328.6053456856543" id="d28" />
<path d="M265.0,228.6053456856543 L265.0,328.6053456856543" id="d29" />
<path d="M275.0,228.6053456856543 L275.0,328.6053456856543" id="d30" />
<path d="M284.99999999999994,228.6053456856543 L284.99999999999994,328.6053456856543" id="d31" />
<path d="M295.0,228.6053456856543 L295.0,328.6053456856543" id="d32" />
<path d="M305.0,228.6053456856543 L305.0,328.6053456856543" id="d33" />
<path d="M315.0,228.6053456856543 L315.0,328.6053456856543" id="d34" />
<path d="M325.0,228.6053456856543 L325.0,328.6053456856543" id="d35" />
<path d="M334.99999999999994,228.6053456856543 L334.99999999999994,328.6053456856543" id="d36" />
<path d="M345.0,228.6053456856543 L345.0,328.6053456856543" id="d37" />
<path d="M354.99999999999994,228.6053456856543 L354.99999999999994,328.6053456856543" id="d38" />
<path d="M365.00000000000006,228.6053456856543 L365.00000000000006,328.6053456856543" id="d39" />
<path d="M374.99999999999994,228.6053456856543 L374.99999999999994,328.6053456856543" id="d40" />
<path d="M385.00000000000006,228.6053456856543 L385.00000000000006,328.6053456856543" id="d41" />
<path d="M395.0,228.6053456856543 L395.0,328.6053456856543" id="d42" />
<path d="M405.0,228.6053456856543 L405.0,328.6053456856543" id="d43" />
<path d="M415.0,228.6053456856543 L415.0,328.6053456856543" id="d44" />
<path d="M425.0,228.6053456856543 L425.0,328.6053456856543" id="d45" />
<path d="M435.0,228.6053456856543 L435.0,328.6053456856543" id="d46" />
<path d="M444.99999999999994,228.6053456856543 L444.99999999999994,328.6053456856543" id="d47" />
<path d="M455.00000000000006,228.6053456856543 L455.00000000000006,328.6053456856543" id="d48" />
<path d="M464.99999999999994,228.6053456856543 L464.99999999999994,328.6053456856543" id="d49" />
<path d="M475.0,228.6053456856543 L475.0,328.6053456856543" id="d50" />
<path d="M485.0,228.6053456856543 L485.0,328.6053456856543" id="d51" />
<path d="M495.0,228.6053456856543 L495.0,328.6053456856543" id="d52" />
<path d="M505.0,228.6053456856543 L505.0,328.6053456856543" id="d53" />
<path d="M515.0000000000001,228.6053456856543 L515.0000000000001,328.6053456856543" id="d54" />
<path d="M525.0,228.6053456856543 L525.0,328.6053456856543" id="d55" />
<path d="M535.0,228.6053456856543 L535.0,328.6053456856543" id="d56" />
<path d="M545.0,228.6053456856543 L545.0,328.6053456856543" id="d57" />
<path d="M555.0,228.6053456856543 L555.0,328.6053456856543" id="d58" />
<path d="M565.0,228.6053456856543 L565.0,328.6053456856543" id="d59" />
<path d="M575.0,228.6053456856543 L575.0,328.6053456856543" id="d60" />
<path d="M585.0000000000001,228.6053456856543 L585.0000000000001,328.6053456856543" id="d61" />
<path d="M594.9999999999999,228.6053456856543 L594.9999999999999,328.6053456856543" id="d62" />
<path d="M605.0,228.6053456856543 L605.0,328.6053456856543" id="d63" />
<path d="M615.0,228.6053456856543 L615.0,328.6053456856543" id="d64" />
<path d="M625.0,228.6053456856543 L625.0,328.6053456856543" id="d65" />
<path d="M635.0,228.6053456856543 L635.0,328.6053456856543" id="d66" />
<path d="M645.0,228.6053456856543 L645.0,328.6053456856543" id="d67" />
<path d="M655.0,228.6053456856543 L655.0,328.6053456856543" id="d68" />
<path d="M665.0,228.6053456856543 L665.0,328.6053456856543" id="d69" />
<path d="M679.0,224.6053456856543 L779.0,224.6053456856543" id="d70" />
<path d="M679.0,214.6053456856543 L779.0,214.6053456856543" id="d71" />
<path d="M679.0,204.6053456856543 L779.0,204.6053456856543" id="d72" />
<path d="M679.0,194.6053456856543 L779.0,194.6053456856543" id="d73" />
<path d="M678.9999999999999,184.6053456856543 L778.9999999999999,184.6053456856543" id="d74" />
<path d="M679.0,174.60534568565427 L779.0,174.60534568565427" id="d75" />
<path d="M679.0,164.6053456856543 L779.0,164.6053456856543" id="d76" />
<path d="M679.0,154.6053456856543 L779.0,154.6053456856543" id="d77" />
<path d="M679.0,144.60534568565427 L779.0,144.60534568565427" id="d78" />
<path d="M679.0,134.60534568565433 L779.0,134.60534568565433" id="d79" />
<path d="M679.0,124.6053456856543 L779.0,124.6053456856543" id="d80" />
<path d="M679.0,114.6053456856543 L779.0,114.6053456856543" id="d81" />
<path d="M679.0,104.60534568565429 L779.0,104.60534568565429" id="d82" />
<path d="M679.0,94.6053456856543 L779.0,94.6053456856543" id="d83" />
<path d="M679.0,84.6053456856543 L779.0,84.6053456856543" id="d84" />
<path d="M679.0,74.6053456856543 L779.0,74.6053456856543" id="d85" />
<path d="M679.0,64.6053456856543 L779.0,64.6053456856543" id="d86" />
<path d="M679.0,54.6053456856543 L779.0,54.6053456856543" id="d87" />
<path d="M679.0,44.60534568565429 L779.0,44.60534568565429" id="d88" />
<path d="M679.0,34.6053456856543 L779.0,34.6053456856543" id="d89" />
<path d="M679.0,24.605345685654292 L779.0,24.605345685654292" id="d90" />
<path d="M679.0,14.605345685654285 L779.0,14.605345685654285" id="d91" />
<path d="M679.0,4.605345685654292 L779.0,4.605345685654292" id="d92" />
<path d="M679.0,-5.394654314345708 L779.0,-5.394654314345708" id="d93" />
<path d="M679.0,-15.394654314345708 L779.0,-15.394654314345708" id="d94" />
<path d="M679.0,-25.394654314345715 L779.0,-25.394654314345715" id="d95" />
<path d="M679.0,-35.394654314345715 L779.0,-35.394654314345715" id="d96" />
<path d="M679.0,-45.394654314345686 L779.0,-45.394654314345686" id="d97" />
<path d="M679.0,-55.394654314345686 L779.0,-55.394654314345686" id="d98" />
<path d="M679.0,-65.39465431434569 L779.0,-65.39465431434569" id="d99" />
</defs>
<g>
<path d="M175.00000000000006,61.60254037844388 L25.000000000000057,-25.0 L25.0,148.2050807568877 L175.00000000000006,61.60254037844388" fill="#E6E6FA" stroke="black" />
</g>
<g>
<path d="M400.00000000000006,61.60254037844388 L350.00000000000006,-24.999999999999986 L250.00000000000006,-25.0 L200.00000000000006,61.60254037844386 L250.0,148.2050807568877 L350.0,148.20508075688778 L400.00000000000006,61.60254037844388" fill="#E6E6FA" stroke="black" />
</g>
<g>
<path d="M625.0,74.80267284282715 L624.2114701314478,62.26934948639672 L621.8583161128631,49.933684126341674 L617.9776485888251,37.99021757435935 L612.6306680043864,26.627305432655618 L605.9016994374947,16.024147613579835 L597.8968627421411,6.347962249958272 L588.7423989748689,-2.2486514347517925 L578.5826794978997,-9.630119707374362 L567.5779291565073,-15.680032403774803 L555.9016994374947,-20.302978786688215 L543.7381314585724,-23.42605223004172 L531.2790519529314,-25.0 L518.7209480470686,-25.0 L506.26186854142753,-23.42605223004172 L494.09830056250524,-20.3029787866882 L482.42207084349275,-15.680032403774803 L471.4173205021003,-9.630119707374348 L461.257601025131,-2.2486514347517783 L452.10313725785886,6.3479622499583 L444.0983005625053,16.024147613579828 L437.3693319956136,26.627305432655625 L432.02235141117484,37.99021757435938 L428.1416838871369,49.93368412634167 L425.78852986855225,62.26934948639674 L425.0,74.80267284282718 L425.78852986855225,87.33599619925758 L428.1416838871369,99.67166155931265 L432.0223514111749,111.61512811129498 L437.36933199561366,122.97804025299868 L444.0983005625053,133.58119807207447 L452.10313725785886,143.25738343569603 L461.25760102513107,151.8539971204061 L471.4173205021004,159.23546539302868 L482.4220708434928,165.28537808942912 L494.09830056250524,169.90832447234249 L506.26186854142753,173.031397915696 L518.7209480470686,174.6053456856543 L531.2790519529314,174.6053456856543 L543.7381314585725,173.031397915696 L555.9016994374947,169.9083244723425 L567.5779291565073,165.28537808942912 L578.5826794978997,159.23546539302865 L588.742398974869,151.85399712040606 L597.8968627421411,143.25738343569597 L605.9016994374948,133.58119807207441 L612.6306680043864,122.97804025299868 L617.9776485888251,111.61512811129494 L621.8583161128631,99.6716615593126 L624.2114701314478,87.33599619925752 L625.0,74.80267284282715" fill="#E6E6FA" stroke="black" />
</g>
<g>
<g>
<path d="M-25.0,224.6053456856543 L675.0,224.6053456856543" fill="none" stroke="#999999" />
</g>
<path d="M-25.0,224.6053456856543 L-25.0,227.6053456856543" stroke="#999999" />
<text font-size="6" stroke="none" fill="#999999"><textPath xlink:href="#d0">
<tspan dy="0em">0mm</tspan>
</textPath></text>
<path d="M-15.000000000000004,224.6053456856543 L-15.000000000000004,227.6053456856543" stroke="#999999" />
<text font-size="6" stroke="none" fill="#999999"><textPath xlink:href="#d1">
<tspan dy="0em">10mm</tspan>
</textPath></text>
<path d="M-5.0,224.6053456856543 L-5.0,227.6053456856543" stroke="#999999" />
<text font-size="6" stroke="none" fill="#999999"><textPath xlink:href="#d2">
<tspan dy="0em">20mm</tspan>
</textPath></text>
<path d="M5.0,224.6053456856543 L5.0,227.6053456856543" stroke="#999999" />
<text font-size="6" stroke="none" fill="#999999"><textPath xlink:href="#d3">
<tspan dy="0em">30mm</tspan>
</textPath></text>
<path d="M15.0,224.6053456856543 L15.0,227.6053456856543" stroke="#999999" />
<text font-size="6" stroke="none" fill="#999999"><textPath xlink:href="#d4">
<tspan dy="0em">40mm</tspan>
</textPath></text>
<path d="M24.999999999999993,224.6053456856543 L24.999999999999993,227.6053456856543" stroke="#999999" />
<text font-size="6" stroke="none" fill="#999999"><textPath xlink:href="#d5">
<tspan dy="0em">50mm</tspan>
</textPath></text>
<path d="M35.0,224.60534568565427 L35.0,227.60534568565427" stroke="#999999" />
<text font-size="6" stroke="none" fill="#999999"><textPath xlink:href="#d6">
<tspan dy="0em">60mm</tspan>
</textPath></text>
<path d="M45.0,224.6053456856543 L45.0,227.6053456856543" stroke="#999999" />
<text font-size="6" stroke="none" fill="#999999"><textPath xlink:href="#d7">
<tspan dy="0em">70mm</tspan>
</textPath></text>
<path d="M55.0,224.60534568565427 L55.0,227.60534568565427" stroke="#999999" />
<text font-size="6" stroke="none" fill="#999999"><textPath xlink:href="#d8">
<tspan dy="0em">80mm</tspan>
</textPath></text>
<path d="M65.0,224.6053456856543 L65.0,227.6053456856543" stroke="#999999" />
<text font-size="6" stroke="none" fill="#999999"><textPath xlink:href="#d9">
<tspan dy="0em">90mm</tspan>
</textPath></text>
<path d="M74.99999999999999,224.60534568565433 L74.99999999999999,227.60534568565433" stroke="#999999" />
<text font-size="6" stroke="none" fill="#999999"><textPath xlink:href="#d10">
<tspan dy="0em">100mm</tspan>
</textPath></text>
<path d="M85.0,224.6053456856543 L85.0,227.6053456856543" stroke="#999999" />
<text font-size="6" stroke="none" fill="#999999"><textPath xlink:href="#d11">
<tspan dy="0em">110mm</tspan>
</textPath></text>
<path d="M95.00000000000001,224.6053456856543 L95.00000000000001,227.6053456856543" stroke="#999999" />
<text font-size="6" stroke="none" fill="#999999"><textPath xlink:href="#d12">
<tspan dy="0em">120mm</tspan>
</textPath></text>
<path d="M105.0,224.6053456856543 L105.0,227.6053456856543" stroke="#999999" />
<text font-size="6" stroke="none" fill="#999999"><textPath xlink:href="#d13">
<tspan dy="0em">130mm</tspan>
</textPath></text>
<path d="M115.0,224.60534568565433 L115.0,227.60534568565433" stroke="#999999" />
<text font-size="6" stroke="none" fill="#999999"><textPath xlink:href="#d14">
<tspan dy="0em">140mm</tspan>
</textPath></text>
<path d="M125.0,224.6053456856543 L125.0,227.6053456856543" stroke="#999999" />
<text font-size="6" stroke="none" fill="#999999"><textPath xlink:href="#d15">
<tspan dy="0em">150mm</tspan>
</textPath></text>
<path d="M135.0,224.6053456856543 L135.0,227.6053456856543" stroke="#999999" />
<text font-size="6" stroke="none" fill="#999999"><textPath xlink:href="#d16">
<tspan dy="0em">160mm</tspan>
</textPath></text>
<path d="M145.0,224.6053456856543 L145.0,227.6053456856543" stroke="#999999" />
<text font-size="6" stroke="none" fill="#999999"><textPath xlink:href="#d17">
<tspan dy="0em">170mm</tspan>
</textPath></text>
<path d="M154.99999999999997,224.6053456856543 L154.99999999999997,227.6053456856543" stroke="#999999" />
<text font-size="6" stroke="none" fill="#999999"><textPath xlink:href="#d18">
<tspan dy="0em">180mm</tspan>
</textPath></text>
<path d="M164.99999999999997,224.6053456856543 L164.99999999999997,227.6053456856543" stroke="#999999" />
<text font-size="6" stroke="none" fill="#999999"><textPath xlink:href="#d19">
<tspan dy="0em">190mm</tspan>
</textPath></text>
<path d="M174.99999999999997,224.6053456856543 L174.99999999999997,227.6053456856543" stroke="#999999" />
<text font-size="6" stroke="none" fill="#999999"><textPath xlink:href="#d20">
<tspan dy="0em">200mm</tspan>
</textPath></text>
<path d="M185.0,224.6053456856543 L185.0,227.6053456856543" stroke="#999999" />
<text font-size="6" stroke="none" fill="#999999"><textPath xlink:href="#d21">
<tspan dy="0em">210mm</tspan>
</textPath></text>
<path d="M195.0,224.6053456856543 L195.0,227.6053456856543" stroke="#999999" />
<text font-size="6" stroke="none" fill="#999999"><textPath xlink:href="#d22">
<tspan dy="0em">220mm</tspan>
</textPath></text>
<path d="M205.0,224.6053456856543 L205.0,227.6053456856543" stroke="#999999" />
<text font-size="6" stroke="none" fill="#999999"><textPath xlink:href="#d23">
<tspan dy="0em">230mm</tspan>
</textPath></text>
<path d="M215.00000000000003,224.6053456856543 L215.00000000000003,227.6053456856543" stroke="#999999" />
<text font-size="6" stroke="none" fill="#999999"><textPath xlink:href="#d24">
<tspan dy="0em">240mm</tspan>
</textPath></text>
<path d="M225.0,224.60534568565427 L225.0,227.60534568565427" stroke="#999999" />
<text font-size="6" stroke="none" fill="#999999"><textPath xlink:href="#d25">
<tspan dy="0em">250mm</tspan>
</textPath></text>
<path d="M235.0,224.6053456856543 L235.0,227.6053456856543" stroke="#999999" />
<text font-size="6" stroke="none" fill="#999999"><textPath xlink:href="#d26">
<tspan dy="0em">260mm</tspan>
</textPath></text>
<path d="M245.00000000000003,224.60534568565433 L245.00000000000003,227.60534568565433" stroke="#999999" />
<text font-size="6" stroke="none" fill="#999999"><textPath xlink:href="#d27">
<tspan dy="0em">270mm</tspan>
</textPath></text>
<path d="M255.0,224.6053456856543 L255.0,227.6053456856543" stroke="#999999" />
<text font-size="6" stroke="none" fill="#999999"><textPath xlink:href="#d28">
<tspan dy="0em">280mm</tspan>
</textPath></text>
<path d="M265.0,224.6053456856543 L265.0,227.6053456856543" stroke="#999999" />
<text font-size="6" stroke="none" fill="#999999"><textPath xlink:href="#d29">
<tspan dy="0em">290mm</tspan>
</textPath></text>
<path d="M275.0,224.6053456856543 L275.0,227.6053456856543" stroke="#999999" />
<text font-size="6" stroke="none" fill="#999999"><textPath xlink:href="#d30">
<tspan dy="0em">300mm</tspan>
</textPath></text>
<path d="M284.99999999999994,224.6053456856543 L284.99999999999994,227.6053456856543" stroke="#999999" />
<text font-size="6" stroke="none" fill="#999999"><textPath xlink:href="#d31">
<tspan dy="0em">310mm</tspan>
</textPath></text>
<path d="M295.0,224.6053456856543 L295.0,227.6053456856543" stroke="#999999" />
<text font-size="6" stroke="none" fill="#999999"><textPath xlink:href="#d32">
<tspan dy="0em">320mm</tspan>
</textPath></text>
<path d="M305.0,224.6053456856543 L305.0,227.6053456856543" stroke="#999999" />
<text font-size="6" stroke="none" fill="#999999"><textPath xlink:href="#d33">
<tspan dy="0em">330mm</tspan>
</textPath></text>
<path d="M315.0,224.6053456856543 L315.0,227.6053456856543" stroke="#999999" />
<text font-size="6" stroke="none" fill="#999999"><textPath xlink:href="#d34">
<tspan dy="0em">340mm</tspan>
</textPath></text>
<path d="M325.0,224.6053456856543 L325.0,227.6053456856543" stroke="#999999" />
<text font-size="6" stroke="none" fill="#999999"><textPath xlink:href="#d35">
<tspan dy="0em">350mm</tspan>
</textPath></text>
<path d="M334.99999999999994,224.6053456856543 L334.99999999999994,227.6053456856543" stroke="#999999" />
<text font-size="6" stroke="none" fill="#999999"><textPath xlink:href="#d36">
<tspan dy="0em">360mm</tspan>
</textPath></text>
<path d="M345.0,224.6053456856543 L345.0,227.6053456856543" stroke="#999999" />
<text font-size="6" stroke="none" fill="#999999"><textPath xlink:href="#d37">
<tspan dy="0em">370mm</tspan>
</textPath></text>
<path d="M354.99999999999994,224.6053456856543 L354.99999999999994,227.6053456856543" stroke="#999999" />
<text font-size="6" stroke="none" fill="#999999"><textPath xlink:href="#d38">
<tspan dy="0em">380mm</tspan>
</textPath></text>
<path d="M365.00000000000006,224.6053456856543 L365.00000000000006,227.6053456856543" stroke="#999999" />
<text font-size="6" stroke="none" fill="#999999"><textPath xlink:href="#d39">
<tspan dy="0em">390mm</tspan>
</textPath></text>
<path d="M374.99999999999994,224.6053456856543 L374.99999999999994,227.6053456856543" stroke="#999999" />
<text font-size="6" stroke="none" fill="#999999"><textPath xlink:href="#d40">
<tspan dy="0em">400mm</tspan>
</textPath></text>
<path d="M385.00000000000006,224.6053456856543 L385.00000000000006,227.6053456856543" stroke="#999999" />
<text font-size="6" stroke="none" fill="#999999"><textPath xlink:href="#d41">
<tspan dy="0em">410mm</tspan>
</textPath></text>
<path d="M395.0,224.6053456856543 L395.0,227.6053456856543" stroke="#999999" />
<text font-size="6" stroke="none" fill="#999999"><textPath xlink:href="#d42">
<tspan dy="0em">420mm</tspan>
</textPath></text>
<path d="M405.0,224.6053456856543 L405.0,227.6053456856543" stroke="#999999" />
<text font-size="6" stroke="none" fill="#999999"><textPath xlink:href="#d43">
<tspan dy="0em">430mm</tspan>
</textPath></text>
<path d="M415.0,224.6053456856543 L415.0,227.6053456856543" stroke="#999999" />
<text font-size="6" stroke="none" fill="#999999"><textPath xlink:href="#d44">
<tspan dy="0em">440mm</tspan>
</textPath></text>
<path d="M425.0,224.6053456856543 L425.0,227.6053456856543" stroke="#999999" />
<text font-size="6" stroke="none" fill="#999999"><textPath xlink:href="#d45">
<tspan dy="0em">450mm</tspan>
</textPath></text>
<path d="M435.0,224.6053456856543 L435.0,227.6053456856543" stroke="#999999" />
<text font-size="6" stroke="none" fill="#999999"><textPath xlink:href="#d46">
<tspan dy="0em">460mm</tspan>
</textPath></text>
<path d="M444.99999999999994,224.6053456856543 L444.99999999999994,227.6053456856543" stroke="#999999" />
<text font-size="6" stroke="none" fill="#999999"><textPath xlink:href="#d47">
<tspan dy="0em">470mm</tspan>
</textPath></text>
<path d="M455.00000000000006,224.6053456856543 L455.00000000000006,227.6053456856543" stroke="#999999" />
<text font-size="6" stroke="none" fill="#999999"><textPath xlink:href="#d48">
<tspan dy="0em">480mm</tspan>
</textPath></text>
<path d="M464.99999999999994,224.6053456856543 L464.99999999999994,227.6053456856543" stroke="#999999" />
<text font-size="6" stroke="none" fill="#999999"><textPath xlink:href="#d49">
<tspan dy="0em">490mm</tspan>
</textPath></text>
<path d="M475.0,224.6053456856543 L475.0,227.6053456856543" stroke="#999999" />
<text font-size="6" stroke="none" fill="#999999"><textPath xlink:href="#d50">
<tspan dy="0em">500mm</tspan>
</textPath></text>
<path d="M485.0,224.6053456856543 L485.0,227.6053456856543" stroke="#999999" />
<text font-size="6" stroke="none" fill="#999999"><textPath xlink:href="#d51">
<tspan dy="0em">510mm</tspan>
</textPath></text>
<path d="M495.0,224.6053456856543 L495.0,227.6053456856543" stroke="#999999" />
<text font-size="6" stroke="none" fill="#999999"><textPath xlink:href="#d52">
<tspan dy="0em">520mm</tspan>
</textPath></text>
<path d="M505.0,224.6053456856543 L505.0,227.6053456856543" stroke="#999999" />
<text font-size="6" stroke="none" fill="#999999"><textPath xlink:href="#d53">
<tspan dy="0em">530mm</tspan>
</textPath></text>
<path d="M515.0000000000001,224.6053456856543 L515.0000000000001,227.6053456856543" stroke="#999999" />
<text font-size="6" stroke="none" fill="#999999"><textPath xlink:href="#d54">
<tspan dy="0em">540mm</tspan>
</textPath></text>
<path d="M525.0,224.6053456856543 L525.0,227.6053456856543" stroke="#999999" />
<text font-size="6" stroke="none" fill="#999999"><textPath xlink:href="#d55">
<tspan dy="0em">550mm</tspan>
</textPath></text>
<path d="M535.0,224.6053456856543 L535.0,227.6053456856543" stroke="#999999" />
<text font-size="6" stroke="none" fill="#999999"><textPath xlink:href="#d56">
<tspan dy="0em">560mm</tspan>
</textPath></text>
<path d="M545.0,224.6053456856543 L545.0,227.6053456856543" stroke="#999999" />
<text font-size="6" stroke="none" fill="#999999"><textPath xlink:href="#d57">
<tspan dy="0em">570mm</tspan>
</textPath></text>
<path d="M555.0,224.6053456856543 L555.0,227.6053456856543" stroke="#999999" />
<text font-size="6" stroke="none" fill="#999999"><textPath xlink:href="#d58">
<tspan dy="0em">580mm</tspan>
</textPath></text>
<path d="M565.0,224.6053456856543 L565.0,227.6053456856543" stroke="#999999" />
<text font-size="6" stroke="none" fill="#999999"><textPath xlink:href="#d59">
<tspan dy="0em">590mm</tspan>
</textPath></text>
<path d="M575.0,224.6053456856543 L575.0,227.6053456856543" stroke="#999999" />
<text font-size="6" stroke="none" fill="#999999"><textPath xlink:href="#d60">
<tspan dy="0em">600mm</tspan>
</textPath></text>
<path d="M585.0000000000001,224.6053456856543 L585.0000000000001,227.6053456856543" stroke="#999999" />
<text font-size="6" stroke="none" fill="#999999"><textPath xlink:href="#d61">
<tspan dy="0em">610mm</tspan>
</textPath></text>
<path d="M594.9999999999999,224.6053456856543 L594.9999999999999,227.6053456856543" stroke="#999999" />
<text font-size="6" stroke="none" fill="#999999"><textPath xlink:href="#d62">
<tspan dy="0em">620mm</tspan>
</textPath></text>
<path d="M605.0,224.6053456856543 L605.0,227.6053456856543" stroke="#999999" />
<text font-size="6" stroke="none" fill="#999999"><textPath xlink:href="#d63">
<tspan dy="0em">630mm</tspan>
</textPath></text>
<path d="M615.0,224.6053456856543 L615.0,227.6053456856543" stroke="#999999" />
<text font-size="6" stroke="none" fill="#999999"><textPath xlink:href="#d64">
<tspan dy="0em">640mm</tspan>
</textPath></text>
<path d="M625.0,224.6053456856543 L625.0,227.6053456856543" stroke="#999999" />
<text font-size="6" stroke="none" fill="#999999"><textPath xlink:href="#d65">
<tspan dy="0em">650mm</tspan>
</textPath></text>
<path d="M635.0,224.6053456856543 L635.0,227.6053456856543" stroke="#999999" />
<text font-size="6" stroke="none" fill="#999999"><textPath xlink:href="#d66">
<tspan dy="0em">660mm</tspan>
</textPath></text>
<path d="M645.0,224.6053456856543 L645.0,227.6053456856543" stroke="#999999" />
<text font-size="6" stroke="none" fill="#999999"><textPath xlink:href="#d67">
<tspan dy="0em">670mm</tspan>
</textPath></text>
<path d="M655.0,224.6053456856543 L655.0,227.6053456856543" stroke="#999999" />
<text font-size="6" stroke="none" fill="#999999"><textPath xlink:href="#d68">
<tspan dy="0em">680mm</tspan>
</textPath></text>
<path d="M665.0,224.6053456856543 L665.0,227.6053456856543" stroke="#999999" />
<text font-size="6" stroke="none" fill="#999999"><textPath xlink:href="#d69">
<tspan dy="0em">690mm</tspan>
</textPath></text>
</g>
<g>
<g>
<path d="M675.0,224.6053456856543 L675.0,-75.0" fill="none" stroke="#999999" />
</g>
<path d="M675.0,224.6053456856543 L678.0,224.6053456856543" stroke="#999999" />
<text font-size="6" stroke="none" fill="#999999"><textPath xlink:href="#d70">
<tspan dy="0em">0mm</tspan>
</textPath></text>
<path d="M675.0,214.6053456856543 L678.0,214.6053456856543" stroke="#999999" />
<text font-size="6" stroke="none" fill="#999999"><textPath xlink:href="#d71">
<tspan dy="0em">10mm</tspan>
</textPath></text>
<path d="M675.0,204.6053456856543 L678.0,204.6053456856543" stroke="#999999" />
<text font-size="6" stroke="none" fill="#999999"><textPath xlink:href="#d72">
<tspan dy="0em">20mm</tspan>
</textPath></text>
<path d="M675.0,194.6053456856543 L678.0,194.6053456856543" stroke="#999999" />
<text font-size="6" stroke="none" fill="#999999"><textPath xlink:href="#d73">
<tspan dy="0em">30mm</tspan>
</textPath></text>
<path d="M674.9999999999999,184.6053456856543 L677.9999999999999,184.6053456856543" stroke="#999999" />
<text font-size="6" stroke="none" fill="#999999"><textPath xlink:href="#d74">
<tspan dy="0em">40mm</tspan>
</textPath></text>
<path d="M675.0,174.60534568565427 L678.0,174.60534568565427" stroke="#999999" />
<text font-size="6" stroke="none" fill="#999999"><textPath xlink:href="#d75">
<tspan dy="0em">50mm</tspan>
</textPath></text>
<path d="M675.0,164.6053456856543 L678.0,164.6053456856543" stroke="#999999" />
<text font-size="6" stroke="none" fill="#999999"><textPath xlink:href="#d76">
<tspan dy="0em">60mm</tspan>
</textPath></text>
<path d="M675.0,154.6053456856543 L678.0,154.6053456856543" stroke="#999999" />
<text font-size="6" stroke="none" fill="#999999"><textPath xlink:href="#d77">
<tspan dy="0em">70mm</tspan>
</textPath></text>
<path d="M675.0,144.60534568565427 L678.0,144.60534568565427" stroke="#999999" />
<text font-size="6" stroke="none" fill="#999999"><textPath xlink:href="#d78">
<tspan dy="0em">80mm</tspan>
</textPath></text>
<path d="M675.0,134.60534568565433 L678.0,134.60534568565433" stroke="#999999" />
<text font-size="6" stroke="none" fill="#999999"><textPath xlink:href="#d79">
<tspan dy="0em">90mm</tspan>
</textPath></text>
<path d="M675.0,124.6053456856543 L678.0,124.6053456856543" stroke="#999999" />
<text font-size="6" stroke="none" fill="#999999"><textPath xlink:href="#d80">
<tspan dy="0em">100mm</tspan>
</textPath></text>
<path d="M675.0,114.6053456856543 L678.0,114.6053456856543" stroke="#999999" />
<text font-size="6" stroke="none" fill="#999999"><textPath xlink:href="#d81">
<tspan dy="0em">110mm</tspan>
</textPath></text>
<path d="M675.0,104.60534568565429 L678.0,104.60534568565429" stroke="#999999" />
<text font-size="6" stroke="none" fill="#999999"><textPath xlink:href="#d82">
<tspan dy="0em">120mm</tspan>
</textPath></text>
<path d="M675.0,94.6053456856543 L678.0,94.6053456856543" stroke="#999999" />
<text font-size="6" stroke="none" fill="#999999"><textPath xlink:href="#d83">
<tspan dy="0em">130mm</tspan>
</textPath></text>
<path d="M675.0,84.6053456856543 L678.0,84.6053456856543" stroke="#999999" />
<text font-size="6" stroke="none" fill="#999999"><textPath xlink:href="#d84">
<tspan dy="0em">140mm</tspan>
</textPath></text>
<path d="M675.0,74.6053456856543 L678.0,74.6053456856543" stroke="#999999" />
<text font-size="6" stroke="none" fill="#999999"><textPath xlink:href="#d85">
<tspan dy="0em">150mm</tspan>
</textPath></text>
<path d="M675.0,64.6053456856543 L678.0,64.6053456856543" stroke="#999999" />
<text font-size="6" stroke="none" fill="#999999"><textPath xlink:href="#d86">
<tspan dy="0em">160mm</tspan>
</textPath></text>
<path d="M675.0,54.6053456856543 L678.0,54.6053456856543" stroke="#999999" />
<text font-size="6" stroke="none" fill="#999999"><textPath xlink:href="#d87">
<tspan dy="0em">170mm</tspan>
</textPath></text>
<path d="M675.0,44.60534568565429 L678.0,44.60534568565429" stroke="#999999" />
<text font-size="6" stroke="none" fill="#999999"><textPath xlink:href="#d88">
<tspan dy="0em">180mm</tspan>
</textPath></text>
<path d="M675.0,34.6053456856543 L678.0,34.6053456856543" stroke="#999999" />
<text font-size="6" stroke="none" fill="#999999"><textPath xlink:href="#d89">
<tspan dy="0em">190mm</tspan>
</textPath></text>
<path d="M675.0,24.605345685654292 L678.0,24.605345685654292" stroke="#999999" />
<text font-size="6" stroke="none" fill="#999999"><textPath xlink:href="#d90">
<tspan dy="0em">200mm</tspan>
</textPath></text>
<path d="M675.0,14.605345685654285 L678.0,14.605345685654285" stroke="#999999" />
<text font-size="6" stroke="none" fill="#999999"><textPath xlink:href="#d91">
<tspan dy="0em">210mm</tspan>
</textPath></text>
<path d="M675.0,4.605345685654292 L678.0,4.605345685654292" stroke="#999999" />
<text font-size="6" stroke="none" fill="#999999"><textPath xlink:href="#d92">
<tspan dy="0em">220mm</tspan>
</textPath></text>
<path d="M675.0,-5.394654314345708 L678.0,-5.394654314345708" stroke="#999999" />
<text font-size="6" stroke="none" fill="#999999"><textPath xlink:href="#d93">
<tspan dy="0em">230mm</tspan>
</textPath></text>
<path d="M675.0,-15.394654314345708 L678.0,-15.394654314345708" stroke="#999999" />
<text font-size="6" stroke="none" fill="#999999"><textPath xlink:href="#d94">
<tspan dy="0em">240mm</tspan>
</textPath></text>
<path d="M675.0,-25.394654314345715 L678.0,-25.394654314345715" stroke="#999999" />
<text font-size="6" stroke="none" fill="#999999"><textPath xlink:href="#d95">
<tspan dy="0em">250mm</tspan>
</textPath></text>
<path d="M675.0,-35.394654314345715 L678.0,-35.394654314345715" stroke="#999999" />
<text font-size="6" stroke="none" fill="#999999"><textPath xlink:href="#d96">
<tspan dy="0em">260mm</tspan>
</textPath></text>
<path d="M675.0,-45.394654314345686 L678.0,-45.394654314345686" stroke="#999999" />
<text font-size="6" stroke="none" fill="#999999"><textPath xlink:href="#d97">
<tspan dy="0em">270mm</tspan>
</textPath></text>
<path d="M675.0,-55.394654314345686 L678.0,-55.394654314345686" stroke="#999999" />
<text font-size="6" stroke="none" fill="#999999"><textPath xlink:href="#d98">
<tspan dy="0em">280mm</tspan>
</textPath></text>
<path d="M675.0,-65.39465431434569 L678.0,-65.39465431434569" stroke="#999999" />
<text font-size="6" stroke="none" fill="#999999"><textPath xlink:href="#d99">
<tspan dy="0em">290mm</tspan>
</textPath></text>
</g>
</svg>
