<?xml version="1.0" encoding="UTF-8"?>
<svg xmlns="http://www.w3.org/2000/svg" xmlns:xlink="http://www.w3.org/1999/xlink"
     width="600.0" height="600.0" viewBox="-250.0 -350.0 600.0 600.0" stroke="black" fill="none">
<defs>
<path d="M-150.0,154.0 L-150.0,254.0" id="d0" />
<path d="M-140.0,154.0 L-140.0,254.0" id="d1" />
<path d="M-130.0,154.0 L-130.0,254.0" id="d2" />
<path d="M-120.0,154.0 L-120.0,254.0" id="d3" />
<path d="M-110.0,154.0 L-110.0,254.0" id="d4" />
<path d="M-100.0,154.0 L-100.0,254.0" id="d5" />
<path d="M-90.0,154.0 L-90.0,254.0" id="d6" />
<path d="M-80.0,154.0 L-80.0,254.0" id="d7" />
<path d="M-70.0,154.0 L-70.0,254.0" id="d8" />
<path d="M-60.0,154.0 L-60.0,254.0" id="d9" />
<path d="M-50.0,154.0 L-50.0,254.0" id="d10" />
<path d="M-40.0,154.0 L-40.0,254.0" id="d11" />
<path d="M-30.0,154.0 L-30.0,254.0" id="d12" />
<path d="M-20.0,154.0 L-20.0,254.0" id="d13" />
<path d="M-10.0,154.0 L-10.0,254.0" id="d14" />
<path d="M0.0,154.0 L0.0,254.0" id="d15" />
<path d="M10.0,154.0 L10.0,254.0" id="d16" />
<path d="M20.0,154.0 L20.0,254.0" id="d17" />
<path d="M30.0,154.0 L30.0,254.0" id="d18" />
<path d="M40.0,154.0 L40.0,254.0" id="d19" />
<path d="M50.0,154.0 L50.0,254.0" id="d20" />
<path d="M60.0,154.0 L60.0,254.0" id="d21" />
<path d="M70.0,154.0 L70.0,254.0" id="d22" />
<path d="M80.0,154.0 L80.0,254.0" id="d23" />
<path d="M90.0,154.0 L90.0,254.0" id="d24" />
<path d="M100.0,154.0 L100.0,254.0" id="d25" />
<path d="M110.0,154.0 L110.0,254.0" id="d26" />
<path d="M120.0,154.0 L120.0,254.0" id="d27" />
<path d="M130.0,154.0 L130.0,254.0" id="d28" />
<path d="M140.0,154.0 L140.0,254.0" id="d29" />
<path d="M150.0,154.0 L150.0,254.0" id="d30" />
<path d="M160.0,154.0 L160.0,254.0" id="d31" />
<path d="M170.0,154.0 L170.0,254.0" id="d32" />
<path d="M180.0,154.0 L180.0,254.0" id="d33" />
<path d="M190.0,154.0 L190.0,254.0" id="d34" />
<path d="M200.0,154.0 L200.0,254.0" id="d35" />
<path d="M210.0,154.0 L210.0,254.0" id="d36" />
<path d="M220.0,154.0 L220.0,254.0" id="d37" />
<path d="M230.0,154.0 L230.0,254.0" id="d38" />
<path d="M240.0,154.0 L240.0,254.0" id="d39" />
<path d="M254.0,150.0 L354.0,150.0" id="d40" />
<path d="M254.0,140.0 L354.0,140.0" id="d41" />
<path d="M254.0,130.0 L354.0,130.0" id="d42" />
<path d="M254.0,120.0 L354.0,120.0" id="d43" />
<path d="M254.0,110.0 L354.0,110.0" id="d44" />
<path d="M254.0,100.0 L354.0,100.0" id="d45" />
<path d="M254.0,90.0 L354.0,90.0" id="d46" />
<path d="M254.0,80.0 L354.0,80.0" id="d47" />
<path d="M254.0,70.0 L354.0,70.0" id="d48" />
<path d="M254.0,60.0 L354.0,60.0" id="d49" />
<path d="M254.0,50.0 L354.0,50.0" id="d50" />
<path d="M254.0,40.0 L354.0,40.0" id="d51" />
<path d="M254.0,30.0 L354.0,30.0" id="d52" />
<path d="M254.0,20.0 L354.0,20.0" id="d53" />
<path d="M254.0,10.0 L354.0,10.0" id="d54" />
<path d="M254.0,-0.0 L354.0,-0.0" id="d55" />
<path d="M254.0,-10.0 L354.0,-10.0" id="d56" />
<path d="M254.0,-20.0 L354.0,-20.0" id="d57" />
<path d="M254.0,-30.0 L354.0,-30.0" id="d58" />
<path d="M254.0,-40.0 L354.0,-40.0" id="d59" />
<path d="M254.0,-50.0 L354.0,-50.0" id="d60" />
<path d="M254.0,-60.0 L354.0,-60.0" id="d61" />
<path d="M254.0,-70.0 L354.0,-70.0" id="d62" />
<path d="M254.0,-80.0 L354.0,-80.0" id="d63" />
<path d="M254.0,-90.0 L354.0,-90.0" id="d64" />
<path d="M254.0,-100.0 L354.0,-100.0" id="d65" />
<path d="M254.0,-110.0 L354.0,-110.0" id="d66" />
<path d="M254.0,-120.0 L354.0,-120.0" id="d67" />
<path d="M254.0,-130.0 L354.0,-130.0" id="d68" />
<path d="M254.0,-140.0 L354.0,-140.0" id="d69" />
<path d="M254.0,-150.0 L354.0,-150.0" id="d70" />
<path d="M254.0,-160.0 L354.0,-160.0" id="d71" />
<path d="M254.0,-170.0 L354.0,-170.0" id="d72" />
<path d="M254.0,-180.0 L354.0,-180.0" id="d73" />
<path d="M254.0,-190.0 L354.0,-190.0" id="d74" />
<path d="M254.0,-200.0 L354.0,-200.0" id="d75" />
<path d="M254.0,-210.0 L354.0,-210.0" id="d76" />
<path d="M254.0,-220.0 L354.0,-220.0" id="d77" />
<path d="M254.0,-230.0 L354.0,-230.0" id="d78" />
<path d="M254.0,-240.0 L354.0,-240.0" id="d79" />
</defs>
<g>
<path d="M-100.0,-200.0 L99.99999999999997,-1.4210854715202004e-14 L100.0,-0.0 L99.80267284282715,-6.279051952931337 L99.21147013144778,-12.533323356430426 L98.22872507286887,-18.738131458572465 L96.85831611286311,-24.86898871648548 L95.10565162951536,-30.901699437494745 L92.97764858882515,-36.8124552684678 L90.48270524660195,-42.577929156507274 L87.63066800438637,-48.17536741017153 L84.43279255020151,-53.58267949789967 L80.90169943749474,-58.778525229247315 L77.05132427757891,-63.742398974868976 L72.89686274214115,-68.45471059286888 L68.45471059286886,-72.89686274214115 L63.74239897486897,-77.05132427757894 L58.77852522924731,-80.90169943749476 L53.582679497899655,-84.43279255020151 L48.17536741017152,-87.63066800438637 L42.57792915650727,-90.48270524660195 L36.81245526846779,-92.97764858882515 L30.90169943749475,-95.10565162951536 L24.86898871648548,-96.85831611286312 L18.73813145857245,-98.22872507286887 L12.533323356430426,-99.21147013144778 L7.047270946447391,-99.73005476749935 L3.6586080894740007,-96.341391910526 L200,100" fill="none" stroke="black" />
</g>
<g>
<g>
<path d="M-150.0,150 L250,150" fill="none" stroke="#999999" />
</g>
<path d="M-150.0,150.0 L-150.0,153.0" stroke="#999999" />
<text font-size="6" stroke="none" fill="#999999"><textPath xlink:href="#d0">
<tspan dy="0em">0mm</tspan>
</textPath></text>
<path d="M-140.0,150.0 L-140.0,153.0" stroke="#999999" />
<text font-size="6" stroke="none" fill="#999999"><textPath xlink:href="#d1">
<tspan dy="0em">10mm</tspan>
</textPath></text>
<path d="M-130.0,150.0 L-130.0,153.0" stroke="#999999" />
<text font-size="6" stroke="none" fill="#999999"><textPath xlink:href="#d2">
<tspan dy="0em">20mm</tspan>
</textPath></text>
<path d="M-120.0,150.0 L-120.0,153.0" stroke="#999999" />
<text font-size="6" stroke="none" fill="#999999"><textPath xlink:href="#d3">
<tspan dy="0em">30mm</tspan>
</textPath></text>
<path d="M-110.0,150.0 L-110.0,153.0" stroke="#999999" />
<text font-size="6" stroke="none" fill="#999999"><textPath xlink:href="#d4">
<tspan dy="0em">40mm</tspan>
</textPath></text>
<path d="M-100.0,150.0 L-100.0,153.0" stroke="#999999" />
<text font-size="6" stroke="none" fill="#999999"><textPath xlink:href="#d5">
<tspan dy="0em">50mm</tspan>
</textPath></text>
<path d="M-90.0,150.0 L-90.0,153.0" stroke="#999999" />
<text font-size="6" stroke="none" fill="#999999"><textPath xlink:href="#d6">
<tspan dy="0em">60mm</tspan>
</textPath></text>
<path d="M-80.0,150.0 L-80.0,153.0" stroke="#999999" />
<text font-size="6" stroke="none" fill="#999999"><textPath xlink:href="#d7">
<tspan dy="0em">70mm</tspan>
</textPath></text>
<path d="M-70.0,150.0 L-70.0,153.0" stroke="#999999" />
<text font-size="6" stroke="none" fill="#999999"><textPath xlink:href="#d8">
<tspan dy="0em">80mm</tspan>
</textPath></text>
<path d="M-60.0,150.0 L-60.0,153.0" stroke="#999999" />
<text font-size="6" stroke="none" fill="#999999"><textPath xlink:href="#d9">
<tspan dy="0em">90mm</tspan>
</textPath></text>
<path d="M-50.0,150.0 L-50.0,153.0" stroke="#999999" />
<text font-size="6" stroke="none" fill="#999999"><textPath xlink:href="#d10">
<tspan dy="0em">100mm</tspan>
</textPath></text>
<path d="M-40.0,150.0 L-40.0,153.0" stroke="#999999" />
<text font-size="6" stroke="none" fill="#999999"><textPath xlink:href="#d11">
<tspan dy="0em">110mm</tspan>
</textPath></text>
<path d="M-30.0,150.0 L-30.0,153.0" stroke="#999999" />
<text font-size="6" stroke="none" fill="#999999"><textPath xlink:href="#d12">
<tspan dy="0em">120mm</tspan>
</textPath></text>
<path d="M-20.0,150.0 L-20.0,153.0" stroke="#999999" />
<text font-size="6" stroke="none" fill="#999999"><textPath xlink:href="#d13">
<tspan dy="0em">130mm</tspan>
</textPath></text>
<path d="M-10.0,150.0 L-10.0,153.0" stroke="#999999" />
<text font-size="6" stroke="none" fill="#999999"><textPath xlink:href="#d14">
<tspan dy="0em">140mm</tspan>
</textPath></text>
<path d="M0.0,150.0 L0.0,153.0" stroke="#999999" />
<text font-size="6" stroke="none" fill="#999999"><textPath xlink:href="#d15">
<tspan dy="0em">150mm</tspan>
</textPath></text>
<path d="M10.0,150.0 L10.0,153.0" stroke="#999999" />
<text font-size="6" stroke="none" fill="#999999"><textPath xlink:href="#d16">
<tspan dy="0em">160mm</tspan>
</textPath></text>
<path d="M20.0,150.0 L20.0,153.0" stroke="#999999" />
<text font-size="6" stroke="none" fill="#999999"><textPath xlink:href="#d17">
<tspan dy="0em">170mm</tspan>
</textPath></text>
<path d="M30.0,150.0 L30.0,153.0" stroke="#999999" />
<text font-size="6" stroke="none" fill="#999999"><textPath xlink:href="#d18">
<tspan dy="0em">180mm</tspan>
</textPath></text>
<path d="M40.0,150.0 L40.0,153.0" stroke="#999999" />
<text font-size="6" stroke="none" fill="#999999"><textPath xlink:href="#d19">
<tspan dy="0em">190mm</tspan>
</textPath></text>
<path d="M50.0,150.0 L50.0,153.0" stroke="#999999" />
<text font-size="6" stroke="none" fill="#999999"><textPath xlink:href="#d20">
<tspan dy="0em">200mm</tspan>
</textPath></text>
<path d="M60.0,150.0 L60.0,153.0" stroke="#999999" />
<text font-size="6" stroke="none" fill="#999999"><textPath xlink:href="#d21">
<tspan dy="0em">210mm</tspan>
</textPath></text>
<path d="M70.0,150.0 L70.0,153.0" stroke="#999999" />
<text font-size="6" stroke="none" fill="#999999"><textPath xlink:href="#d22">
<tspan dy="0em">220mm</tspan>
</textPath></text>
<path d="M80.0,150.0 L80.0,153.0" stroke="#999999" />
<text font-size="6" stroke="none" fill="#999999"><textPath xlink:href="#d23">
<tspan dy="0em">230mm</tspan>
</textPath></text>
<path d="M90.0,150.0 L90.0,153.0" stroke="#999999" />
<text font-size="6" stroke="none" fill="#999999"><textPath xlink:href="#d24">
<tspan dy="0em">240mm</tspan>
</textPath></text>
<path d="M100.0,150.0 L100.0,153.0" stroke="#999999" />
<text font-size="6" stroke="none" fill="#999999"><textPath xlink:href="#d25">
<tspan dy="0em">250mm</tspan>
</textPath></text>
<path d="M110.0,150.0 L110.0,153.0" stroke="#999999" />
<text font-size="6" stroke="none" fill="#999999"><textPath xlink:href="#d26">
<tspan dy="0em">260mm</tspan>
</textPath></text>
<path d="M120.0,150.0 L120.0,153.0" stroke="#999999" />
<text font-size="6" stroke="none" fill="#999999"><textPath xlink:href="#d27">
<tspan dy="0em">270mm</tspan>
</textPath></text>
<path d="M130.0,150.0 L130.0,153.0" stroke="#999999" />
<text font-size="6" stroke="none" fill="#999999"><textPath xlink:href="#d28">
<tspan dy="0em">280mm</tspan>
</textPath></text>
<path d="M140.0,150.0 L140.0,153.0" stroke="#999999" />
<text font-size="6" stroke="none" fill="#999999"><textPath xlink:href="#d29">
<tspan dy="0em">290mm</tspan>
</textPath></text>
<path d="M150.0,150.0 L150.0,153.0" stroke="#999999" />
<text font-size="6" stroke="none" fill="#999999"><textPath xlink:href="#d30">
<tspan dy="0em">300mm</tspan>
</textPath></text>
<path d="M160.0,150.0 L160.0,153.0" stroke="#999999" />
<text font-size="6" stroke="none" fill="#999999"><textPath xlink:href="#d31">
<tspan dy="0em">310mm</tspan>
</textPath></text>
<path d="M170.0,150.0 L170.0,153.0" stroke="#999999" />
<text font-size="6" stroke="none" fill="#999999"><textPath xlink:href="#d32">
<tspan dy="0em">320mm</tspan>
</textPath></text>
<path d="M180.0,150.0 L180.0,153.0" stroke="#999999" />
<text font-size="6" stroke="none" fill="#999999"><textPath xlink:href="#d33">
<tspan dy="0em">330mm</tspan>
</textPath></text>
<path d="M190.0,150.0 L190.0,153.0" stroke="#999999" />
<text font-size="6" stroke="none" fill="#999999"><textPath xlink:href="#d34">
<tspan dy="0em">340mm</tspan>
</textPath></text>
<path d="M200.0,150.0 L200.0,153.0" stroke="#999999" />
<text font-size="6" stroke="none" fill="#999999"><textPath xlink:href="#d35">
<tspan dy="0em">350mm</tspan>
</textPath></text>
<path d="M210.0,150.0 L210.0,153.0" stroke="#999999" />
<text font-size="6" stroke="none" fill="#999999"><textPath xlink:href="#d36">
<tspan dy="0em">360mm</tspan>
</textPath></text>
<path d="M220.0,150.0 L220.0,153.0" stroke="#999999" />
<text font-size="6" stroke="none" fill="#999999"><textPath xlink:href="#d37">
<tspan dy="0em">370mm</tspan>
</textPath></text>
<path d="M230.0,150.0 L230.0,153.0" stroke="#999999" />
<text font-size="6" stroke="none" fill="#999999"><textPath xlink:href="#d38">
<tspan dy="0em">380mm</tspan>
</textPath></text>
<path d="M240.0,150.0 L240.0,153.0" stroke="#999999" />
<text font-size="6" stroke="none" fill="#999999"><textPath xlink:href="#d39">
<tspan dy="0em">390mm</tspan>
</textPath></text>
</g>
<g>
<g>
<path d="M250,150 L250,-250.0" fill="none" stroke="#999999" />
</g>
<path d="M250.0,150.0 L253.0,150.0" stroke="#999999" />
<text font-size="6" stroke="none" fill="#999999"><textPath xlink:href="#d40">
<tspan dy="0em">0mm</tspan>
</textPath></text>
<path d="M250.0,140.0 L253.0,140.0" stroke="#999999" />
<text font-size="6" stroke="none" fill="#999999"><textPath xlink:href="#d41">
<tspan dy="0em">10mm</tspan>
</textPath></text>
<path d="M250.0,130.0 L253.0,130.0" stroke="#999999" />
<text font-size="6" stroke="none" fill="#999999"><textPath xlink:href="#d42">
<tspan dy="0em">20mm</tspan>
</textPath></text>
<path d="M250.0,120.0 L253.0,120.0" stroke="#999999" />
<text font-size="6" stroke="none" fill="#999999"><textPath xlink:href="#d43">
<tspan dy="0em">30mm</tspan>
</textPath></text>
<path d="M250.0,110.0 L253.0,110.0" stroke="#999999" />
<text font-size="6" stroke="none" fill="#999999"><textPath xlink:href="#d44">
<tspan dy="0em">40mm</tspan>
</textPath></text>
<path d="M250.0,100.0 L253.0,100.0" stroke="#999999" />
<text font-size="6" stroke="none" fill="#999999"><textPath xlink:href="#d45">
<tspan dy="0em">50mm</tspan>
</textPath></text>
<path d="M250.0,90.0 L253.0,90.0" stroke="#999999" />
<text font-size="6" stroke="none" fill="#999999"><textPath xlink:href="#d46">
<tspan dy="0em">60mm</tspan>
</textPath></text>
<path d="M250.0,80.0 L253.0,80.0" stroke="#999999" />
<text font-size="6" stroke="none" fill="#999999"><textPath xlink:href="#d47">
<tspan dy="0em">70mm</tspan>
</textPath></text>
<path d="M250.0,70.0 L253.0,70.0" stroke="#999999" />
<text font-size="6" stroke="none" fill="#999999"><textPath xlink:href="#d48">
<tspan dy="0em">80mm</tspan>
</textPath></text>
<path d="M250.0,60.0 L253.0,60.0" stroke="#999999" />
<text font-size="6" stroke="none" fill="#999999"><textPath xlink:href="#d49">
<tspan dy="0em">90mm</tspan>
</textPath></text>
<path d="M250.0,50.0 L253.0,50.0" stroke="#999999" />
<text font-size="6" stroke="none" fill="#999999"><textPath xlink:href="#d50">
<tspan dy="0em">100mm</tspan>
</textPath></text>
<path d="M250.0,40.0 L253.0,40.0" stroke="#999999" />
<text font-size="6" stroke="none" fill="#999999"><textPath xlink:href="#d51">
<tspan dy="0em">110mm</tspan>
</textPath></text>
<path d="M250.0,30.0 L253.0,30.0" stroke="#999999" />
<text font-size="6" stroke="none" fill="#999999"><textPath xlink:href="#d52">
<tspan dy="0em">120mm</tspan>
</textPath></text>
<path d="M250.0,20.0 L253.0,20.0" stroke="#999999" />
<text font-size="6" stroke="none" fill="#999999"><textPath xlink:href="#d53">
<tspan dy="0em">130mm</tspan>
</textPath></text>
<path d="M250.0,10.0 L253.0,10.0" stroke="#999999" />
<text font-size="6" stroke="none" fill="#999999"><textPath xlink:href="#d54">
<tspan dy="0em">140mm</tspan>
</textPath></text>
<path d="M250.0,-0.0 L253.0,-0.0" stroke="#999999" />
<text font-size="6" stroke="none" fill="#999999"><textPath xlink:href="#d55">
<tspan dy="0em">150mm</tspan>
</textPath></text>
<path d="M250.0,-10.0 L253.0,-10.0" stroke="#999999" />
<text font-size="6" stroke="none" fill="#999999"><textPath xlink:href="#d56">
<tspan dy="0em">160mm</tspan>
</textPath></text>
<path d="M250.0,-20.0 L253.0,-20.0" stroke="#999999" />
<text font-size="6" stroke="none" fill="#999999"><textPath xlink:href="#d57">
<tspan dy="0em">170mm</tspan>
</textPath></text>
<path d="M250.0,-30.0 L253.0,-30.0" stroke="#999999" />
<text font-size="6" stroke="none" fill="#999999"><textPath xlink:href="#d58">
<tspan dy="0em">180mm</tspan>
</textPath></text>
<path d="M250.0,-40.0 L253.0,-40.0" stroke="#999999" />
<text font-size="6" stroke="none" fill="#999999"><textPath xlink:href="#d59">
<tspan dy="0em">190mm</tspan>
</textPath></text>
<path d="M250.0,-50.0 L253.0,-50.0" stroke="#999999" />
<text font-size="6" stroke="none" fill="#999999"><textPath xlink:href="#d60">
<tspan dy="0em">200mm</tspan>
</textPath></text>
<path d="M250.0,-60.0 L253.0,-60.0" stroke="#999999" />
<text font-size="6" stroke="none" fill="#999999"><textPath xlink:href="#d61">
<tspan dy="0em">210mm</tspan>
</textPath></text>
<path d="M250.0,-70.0 L253.0,-70.0" stroke="#999999" />
<text font-size="6" stroke="none" fill="#999999"><textPath xlink:href="#d62">
<tspan dy="0em">220mm</tspan>
</textPath></text>
<path d="M250.0,-80.0 L253.0,-80.0" stroke="#999999" />
<text font-size="6" stroke="none" fill="#999999"><textPath xlink:href="#d63">
<tspan dy="0em">230mm</tspan>
</textPath></text>
<path d="M250.0,-90.0 L253.0,-90.0" stroke="#999999" />
<text font-size="6" stroke="none" fill="#999999"><textPath xlink:href="#d64">
<tspan dy="0em">240mm</tspan>
</textPath></text>
<path d="M250.0,-100.0 L253.0,-100.0" stroke="#999999" />
<text font-size="6" stroke="none" fill="#999999"><textPath xlink:href="#d65">
<tspan dy="0em">250mm</tspan>
</textPath></text>
<path d="M250.0,-110.0 L253.0,-110.0" stroke="#999999" />
<text font-size="6" stroke="none" fill="#999999"><textPath xlink:href="#d66">
<tspan dy="0em">260mm</tspan>
</textPath></text>
<path d="M250.0,-120.0 L253.0,-120.0" stroke="#999999" />
<text font-size="6" stroke="none" fill="#999999"><textPath xlink:href="#d67">
<tspan dy="0em">270mm</tspan>
</textPath></text>
<path d="M250.0,-130.0 L253.0,-130.0" stroke="#999999" />
<text font-size="6" stroke="none" fill="#999999"><textPath xlink:href="#d68">
<tspan dy="0em">280mm</tspan>
</textPath></text>
<path d="M250.0,-140.0 L253.0,-140.0" stroke="#999999" />
<text font-size="6" stroke="none" fill="#999999"><textPath xlink:href="#d69">
<tspan dy="0em">290mm</tspan>
</textPath></text>
<path d="M250.0,-150.0 L253.0,-150.0" stroke="#999999" />
<text font-size="6" stroke="none" fill="#999999"><textPath xlink:href="#d70">
<tspan dy="0em">300mm</tspan>
</textPath></text>
<path d="M250.0,-160.0 L253.0,-160.0" stroke="#999999" />
<text font-size="6" stroke="none" fill="#999999"><textPath xlink:href="#d71">
<tspan dy="0em">310mm</tspan>
</textPath></text>
<path d="M250.0,-170.0 L253.0,-170.0" stroke="#999999" />
<text font-size="6" stroke="none" fill="#999999"><textPath xlink:href="#d72">
<tspan dy="0em">320mm</tspan>
</textPath></text>
<path d="M250.0,-180.0 L253.0,-180.0" stroke="#999999" />
<text font-size="6" stroke="none" fill="#999999"><textPath xlink:href="#d73">
<tspan dy="0em">330mm</tspan>
</textPath></text>
<path d="M250.0,-190.0 L253.0,-190.0" stroke="#999999" />
<text font-size="6" stroke="none" fill="#999999"><textPath xlink:href="#d74">
<tspan dy="0em">340mm</tspan>
</textPath></text>
<path d="M250.0,-200.0 L253.0,-200.0" stroke="#999999" />
<text font-size="6" stroke="none" fill="#999999"><textPath xlink:href="#d75">
<tspan dy="0em">350mm</tspan>
</textPath></text>
<path d="M250.0,-210.0 L253.0,-210.0" stroke="#999999" />
<text font-size="6" stroke="none" fill="#999999"><textPath xlink:href="#d76">
<tspan dy="0em">360mm</tspan>
</textPath></text>
<path d="M250.0,-220.0 L253.0,-220.0" stroke="#999999" />
<text font-size="6" stroke="none" fill="#999999"><textPath xlink:href="#d77">
<tspan dy="0em">370mm</tspan>
</textPath></text>
<path d="M250.0,-230.0 L253.0,-230.0" stroke="#999999" />
<text font-size="6" stroke="none" fill="#999999"><textPath xlink:href="#d78">
<tspan dy="0em">380mm</tspan>
</textPath></text>
<path d="M250.0,-240.0 L253.0,-240.0" stroke="#999999" />
<text font-size="6" stroke="none" fill="#999999"><textPath xlink:href="#d79">
<tspan dy="0em">390mm</tspan>
</textPath></text>
</g>
</svg>
