<?xml version="1.0" encoding="UTF-8"?>
<svg xmlns="http://www.w3.org/2000/svg" xmlns:xlink="http://www.w3.org/1999/xlink"
     width="1155.4" height="901.4000000000001" viewBox="-365.4 -156.95000000000005 1155.4 901.4000000000001" stroke="black" fill="none">
<defs>
<path d="M465.0,-0.0 L339.1479006990711,-7.720987687173553 L323.0432102050694,91.47900699071141 L319.18543263426216,-8.94567897949312 L261.25,-12.5 L240.0,265 L240.0,600 L465.0,600 L465.0,0" fill="none" stroke="black" id="d0" />
<path d="M0.0,-0.0 L0,600 L240.0,600 L240.0,265 L223.75,-12.5 L159.15109809326995,-8.891122798506702 L156.13903498133365,116.4720594992067 L139.18223524006356,-7.775543868159976 L84.56776475993651,-4.724456131840029 L82.39238584576032,135.61537330577818 L64.5989019067301,-3.6088772014933017 L0,0" fill="none" stroke="black" id="d1" />
<path d="M465.0,-0.0 L590.8520993009289,-7.720987687173553 L606.9567897949306,91.47900699071141 L610.8145673657378,-8.94567897949312 L668.75,-12.5 L690.0,265 L690.0,600 L465.0,600 L465.0,0" fill="none" stroke="black" id="d2" />
<path d="M0.0,-0.0 L0.0,600 L-240.0,600 L-240.0,265 L-223.75,-12.5 L-159.15109809326995,-8.891122798506702 L-156.13903498133365,116.4720594992067 L-139.18223524006356,-7.775543868159976 L-84.56776475993651,-4.724456131840029 L-82.39238584576032,135.61537330577818 L-64.5989019067301,-3.6088772014933017 L0.0,0" fill="none" stroke="black" id="d3" />
<path d="M-223.75,-12.5 L-159.15109809326995,-8.891122798506702 L-139.18223524006356,-7.775543868159976 L-84.56776475993651,-4.724456131840029 L-64.5989019067301,-3.6088772014933017 L0.0,0 L64.5989019067301,-3.6088772014933017 L84.56776475993651,-4.724456131840029 L139.18223524006356,-7.775543868159976 L159.15109809326995,-8.891122798506702 L223.75,-12.5 L261.25,-12.5 L319.18543263426216,-8.94567897949312 L339.1479006990711,-7.720987687173553 L465.0,-0.0 L590.8520993009289,-7.720987687173553 L610.8145673657378,-8.94567897949312 L668.75,-12.5 L666.0281236028197,-56.86658527403785 L608.0926909685555,-53.312264253530984 L588.1302229037458,-52.08757296121122 L465.0,-44.53357155607345 L341.86977709625125,-52.08757296121144 L321.90730903144237,-53.31226425353098 L262.6122163639966,-56.95 L222.5093471539077,-56.95000000000002 L156.67172392057427,-53.27192048975791 L136.70286106736793,-52.15634155941118 L82.08839058724092,-49.10525382309126 L62.11952773403453,-47.98967489274453 L2.726021537744155e-15,-44.5193102148655 L-62.11952773403452,-47.98967489274453 L-82.08839058724092,-49.10525382309124 L-136.70286106736793,-52.156341559411196 L-156.6717239205743,-53.27192048975792 L-221.2706258273044,-56.880797691251225 L-223.75,-12.5" fill="none" stroke="black" id="d4" />
<path d="M-240.0,600 L0.0,600 L240.0,600 L465.0,600 L690.0,600 L690.0,644.45 L465.0,644.45 L240.0,644.45 L-2.721777511104996e-15,644.45 L-240.0,644.45 L-240.0,600" fill="none" stroke="black" id="d5" />
<path d="M-240.0,600 L-240.0,265 L-223.75,-12.5 L-249.1065620523747,-13.984843723787707 L-265.4,264.25694276642434 L-265.4,600.0 L-240.0,600" fill="none" stroke="black" id="d6" />
<path d="M690.0,600 L690.0,265 L668.75,-12.5 L643.4241465095076,-10.560632840818148 L664.6,265.97110097618935 L664.6,600.0 L690.0,600" fill="none" stroke="black" id="d7" />
</defs>
<path d="M-365.4,744.45 L790.0,744.45" stroke="#dddddd" />
<path d="M-365.4,534.45 L790.0,534.45" stroke="#dddddd" />
<path d="M-365.4,324.45000000000005 L790.0,324.45000000000005" stroke="#dddddd" />
<path d="M-365.4,114.45000000000005 L790.0,114.45000000000005" stroke="#dddddd" />
<path d="M-365.4,-95.54999999999995 L790.0,-95.54999999999995" stroke="#dddddd" />
<path d="M-365.4,744.45 L-365.4,-156.95000000000002" stroke="#dddddd" />
<path d="M-68.39999999999998,744.45 L-68.39999999999998,-156.95000000000002" stroke="#dddddd" />
<path d="M228.60000000000002,744.45 L228.60000000000002,-156.95000000000002" stroke="#dddddd" />
<path d="M525.6,744.45 L525.6,-156.95000000000002" stroke="#dddddd" />
<text x="-216.89999999999998" y="639.45" font-size="10" stroke="none" fill="#dddddd" dy="0em">A0</text>
<text x="-216.89999999999998" y="429.45000000000005" font-size="10" stroke="none" fill="#dddddd" dy="0em">A1</text>
<text x="-216.89999999999998" y="219.45000000000005" font-size="10" stroke="none" fill="#dddddd" dy="0em">A2</text>
<text x="-216.89999999999998" y="9.450000000000045" font-size="10" stroke="none" fill="#dddddd" dy="0em">A3</text>
<text x="80.10000000000002" y="639.45" font-size="10" stroke="none" fill="#dddddd" dy="0em">B0</text>
<text x="80.10000000000002" y="429.45000000000005" font-size="10" stroke="none" fill="#dddddd" dy="0em">B1</text>
<text x="80.10000000000002" y="219.45000000000005" font-size="10" stroke="none" fill="#dddddd" dy="0em">B2</text>
<text x="80.10000000000002" y="9.450000000000045" font-size="10" stroke="none" fill="#dddddd" dy="0em">B3</text>
<text x="377.1" y="639.45" font-size="10" stroke="none" fill="#dddddd" dy="0em">C0</text>
<text x="377.1" y="429.45000000000005" font-size="10" stroke="none" fill="#dddddd" dy="0em">C1</text>
<text x="377.1" y="219.45000000000005" font-size="10" stroke="none" fill="#dddddd" dy="0em">C2</text>
<text x="377.1" y="9.450000000000045" font-size="10" stroke="none" fill="#dddddd" dy="0em">C3</text>
<text x="674.1" y="639.45" font-size="10" stroke="none" fill="#dddddd" dy="0em">D0</text>
<text x="674.1" y="429.45000000000005" font-size="10" stroke="none" fill="#dddddd" dy="0em">D1</text>
<text x="674.1" y="219.45000000000005" font-size="10" stroke="none" fill="#dddddd" dy="0em">D2</text>
<text x="674.1" y="9.450000000000045" font-size="10" stroke="none" fill="#dddddd" dy="0em">D3</text>
<path d="M-365.4,744.45 L790.0,744.45" stroke="#ffcccc66" stroke-dasharray="5" />
<text x="-364.4" y="742.45" font-size="8" stroke="none" fill="#ffcccc66" dy="0em">-100mm</text>
<path d="M-365.4,694.45 L790.0,694.45" stroke="#ffcccc66" stroke-dasharray="5" />
<text x="-364.4" y="692.45" font-size="8" stroke="none" fill="#ffcccc66" dy="0em">-50mm</text>
<path d="M-365.4,644.45 L790.0,644.45" stroke="#ffcccc66" stroke-dasharray="5" />
<text x="-364.4" y="642.45" font-size="8" stroke="none" fill="#ffcccc66" dy="0em">0mm</text>
<path d="M-365.4,594.45 L790.0,594.45" stroke="#ffcccc66" stroke-dasharray="5" />
<text x="-364.4" y="592.45" font-size="8" stroke="none" fill="#ffcccc66" dy="0em">50mm</text>
<path d="M-365.4,544.45 L790.0,544.45" stroke="#ffcccc66" stroke-dasharray="5" />
<text x="-364.4" y="542.45" font-size="8" stroke="none" fill="#ffcccc66" dy="0em">100mm</text>
<path d="M-365.4,494.45000000000005 L790.0,494.45000000000005" stroke="#ffcccc66" stroke-dasharray="5" />
<text x="-364.4" y="492.45000000000005" font-size="8" stroke="none" fill="#ffcccc66" dy="0em">150mm</text>
<path d="M-365.4,444.45000000000005 L790.0,444.45000000000005" stroke="#ffcccc66" stroke-dasharray="5" />
<text x="-364.4" y="442.45000000000005" font-size="8" stroke="none" fill="#ffcccc66" dy="0em">200mm</text>
<path d="M-365.4,394.45000000000005 L790.0,394.45000000000005" stroke="#ffcccc66" stroke-dasharray="5" />
<text x="-364.4" y="392.45000000000005" font-size="8" stroke="none" fill="#ffcccc66" dy="0em">250mm</text>
<path d="M-365.4,344.45000000000005 L790.0,344.45000000000005" stroke="#ffcccc66" stroke-dasharray="5" />
<text x="-364.4" y="342.45000000000005" font-size="8" stroke="none" fill="#ffcccc66" dy="0em">300mm</text>
<path d="M-365.4,294.45000000000005 L790.0,294.45000000000005" stroke="#ffcccc66" stroke-dasharray="5" />
<text x="-364.4" y="292.45000000000005" font-size="8" stroke="none" fill="#ffcccc66" dy="0em">350mm</text>
<path d="M-365.4,244.45000000000005 L790.0,244.45000000000005" stroke="#ffcccc66" stroke-dasharray="5" />
<text x="-364.4" y="242.45000000000005" font-size="8" stroke="none" fill="#ffcccc66" dy="0em">400mm</text>
<path d="M-365.4,194.45000000000005 L790.0,194.45000000000005" stroke="#ffcccc66" stroke-dasharray="5" />
<text x="-364.4" y="192.45000000000005" font-size="8" stroke="none" fill="#ffcccc66" dy="0em">450mm</text>
<path d="M-365.4,144.45000000000005 L790.0,144.45000000000005" stroke="#ffcccc66" stroke-dasharray="5" />
<text x="-364.4" y="142.45000000000005" font-size="8" stroke="none" fill="#ffcccc66" dy="0em">500mm</text>
<path d="M-365.4,94.45000000000005 L790.0,94.45000000000005" stroke="#ffcccc66" stroke-dasharray="5" />
<text x="-364.4" y="92.45000000000005" font-size="8" stroke="none" fill="#ffcccc66" dy="0em">550mm</text>
<path d="M-365.4,44.450000000000045 L790.0,44.450000000000045" stroke="#ffcccc66" stroke-dasharray="5" />
<text x="-364.4" y="42.450000000000045" font-size="8" stroke="none" fill="#ffcccc66" dy="0em">600mm</text>
<path d="M-365.4,-5.5499999999999545 L790.0,-5.5499999999999545" stroke="#ffcccc66" stroke-dasharray="5" />
<text x="-364.4" y="-7.5499999999999545" font-size="8" stroke="none" fill="#ffcccc66" dy="0em">650mm</text>
<path d="M-365.4,-55.549999999999955 L790.0,-55.549999999999955" stroke="#ffcccc66" stroke-dasharray="5" />
<text x="-364.4" y="-57.549999999999955" font-size="8" stroke="none" fill="#ffcccc66" dy="0em">700mm</text>
<path d="M-365.4,-105.54999999999995 L790.0,-105.54999999999995" stroke="#ffcccc66" stroke-dasharray="5" />
<text x="-364.4" y="-107.54999999999995" font-size="8" stroke="none" fill="#ffcccc66" dy="0em">750mm</text>
<path d="M-365.4,-155.54999999999995 L790.0,-155.54999999999995" stroke="#ffcccc66" stroke-dasharray="5" />
<text x="-364.4" y="-157.54999999999995" font-size="8" stroke="none" fill="#ffcccc66" dy="0em">800mm</text>
<path d="M-365.4,744.45 L-365.4,-156.95000000000002" stroke="#ffcccc66" stroke-dasharray="5" />
<text x="-363.4" y="743.45" font-size="8" stroke="none" fill="#ffcccc66" dy="0em">-100mm</text>
<path d="M-315.4,744.45 L-315.4,-156.95000000000002" stroke="#ffcccc66" stroke-dasharray="5" />
<text x="-313.4" y="743.45" font-size="8" stroke="none" fill="#ffcccc66" dy="0em">-50mm</text>
<path d="M-265.4,744.45 L-265.4,-156.95000000000002" stroke="#ffcccc66" stroke-dasharray="5" />
<text x="-263.4" y="743.45" font-size="8" stroke="none" fill="#ffcccc66" dy="0em">0mm</text>
<path d="M-215.39999999999998,744.45 L-215.39999999999998,-156.95000000000002" stroke="#ffcccc66" stroke-dasharray="5" />
<text x="-213.39999999999998" y="743.45" font-size="8" stroke="none" fill="#ffcccc66" dy="0em">50mm</text>
<path d="M-165.39999999999998,744.45 L-165.39999999999998,-156.95000000000002" stroke="#ffcccc66" stroke-dasharray="5" />
<text x="-163.39999999999998" y="743.45" font-size="8" stroke="none" fill="#ffcccc66" dy="0em">100mm</text>
<path d="M-115.39999999999998,744.45 L-115.39999999999998,-156.95000000000002" stroke="#ffcccc66" stroke-dasharray="5" />
<text x="-113.39999999999998" y="743.45" font-size="8" stroke="none" fill="#ffcccc66" dy="0em">150mm</text>
<path d="M-65.39999999999998,744.45 L-65.39999999999998,-156.95000000000002" stroke="#ffcccc66" stroke-dasharray="5" />
<text x="-63.39999999999998" y="743.45" font-size="8" stroke="none" fill="#ffcccc66" dy="0em">200mm</text>
<path d="M-15.399999999999977,744.45 L-15.399999999999977,-156.95000000000002" stroke="#ffcccc66" stroke-dasharray="5" />
<text x="-13.399999999999977" y="743.45" font-size="8" stroke="none" fill="#ffcccc66" dy="0em">250mm</text>
<path d="M34.60000000000002,744.45 L34.60000000000002,-156.95000000000002" stroke="#ffcccc66" stroke-dasharray="5" />
<text x="36.60000000000002" y="743.45" font-size="8" stroke="none" fill="#ffcccc66" dy="0em">300mm</text>
<path d="M84.60000000000002,744.45 L84.60000000000002,-156.95000000000002" stroke="#ffcccc66" stroke-dasharray="5" />
<text x="86.60000000000002" y="743.45" font-size="8" stroke="none" fill="#ffcccc66" dy="0em">350mm</text>
<path d="M134.60000000000002,744.45 L134.60000000000002,-156.95000000000002" stroke="#ffcccc66" stroke-dasharray="5" />
<text x="136.60000000000002" y="743.45" font-size="8" stroke="none" fill="#ffcccc66" dy="0em">400mm</text>
<path d="M184.60000000000002,744.45 L184.60000000000002,-156.95000000000002" stroke="#ffcccc66" stroke-dasharray="5" />
<text x="186.60000000000002" y="743.45" font-size="8" stroke="none" fill="#ffcccc66" dy="0em">450mm</text>
<path d="M234.60000000000002,744.45 L234.60000000000002,-156.95000000000002" stroke="#ffcccc66" stroke-dasharray="5" />
<text x="236.60000000000002" y="743.45" font-size="8" stroke="none" fill="#ffcccc66" dy="0em">500mm</text>
<path d="M284.6,744.45 L284.6,-156.95000000000002" stroke="#ffcccc66" stroke-dasharray="5" />
<text x="286.6" y="743.45" font-size="8" stroke="none" fill="#ffcccc66" dy="0em">550mm</text>
<path d="M334.6,744.45 L334.6,-156.95000000000002" stroke="#ffcccc66" stroke-dasharray="5" />
<text x="336.6" y="743.45" font-size="8" stroke="none" fill="#ffcccc66" dy="0em">600mm</text>
<path d="M384.6,744.45 L384.6,-156.95000000000002" stroke="#ffcccc66" stroke-dasharray="5" />
<text x="386.6" y="743.45" font-size="8" stroke="none" fill="#ffcccc66" dy="0em">650mm</text>
<path d="M434.6,744.45 L434.6,-156.95000000000002" stroke="#ffcccc66" stroke-dasharray="5" />
<text x="436.6" y="743.45" font-size="8" stroke="none" fill="#ffcccc66" dy="0em">700mm</text>
<path d="M484.6,744.45 L484.6,-156.95000000000002" stroke="#ffcccc66" stroke-dasharray="5" />
<text x="486.6" y="743.45" font-size="8" stroke="none" fill="#ffcccc66" dy="0em">750mm</text>
<path d="M534.6,744.45 L534.6,-156.95000000000002" stroke="#ffcccc66" stroke-dasharray="5" />
<text x="536.6" y="743.45" font-size="8" stroke="none" fill="#ffcccc66" dy="0em">800mm</text>
<path d="M584.6,744.45 L584.6,-156.95000000000002" stroke="#ffcccc66" stroke-dasharray="5" />
<text x="586.6" y="743.45" font-size="8" stroke="none" fill="#ffcccc66" dy="0em">850mm</text>
<path d="M634.6,744.45 L634.6,-156.95000000000002" stroke="#ffcccc66" stroke-dasharray="5" />
<text x="636.6" y="743.45" font-size="8" stroke="none" fill="#ffcccc66" dy="0em">900mm</text>
<path d="M684.6,744.45 L684.6,-156.95000000000002" stroke="#ffcccc66" stroke-dasharray="5" />
<text x="686.6" y="743.45" font-size="8" stroke="none" fill="#ffcccc66" dy="0em">950mm</text>
<path d="M734.6,744.45 L734.6,-156.95000000000002" stroke="#ffcccc66" stroke-dasharray="5" />
<text x="736.6" y="743.45" font-size="8" stroke="none" fill="#ffcccc66" dy="0em">1000mm</text>
<path d="M784.6,744.45 L784.6,-156.95000000000002" stroke="#ffcccc66" stroke-dasharray="5" />
<text x="786.6" y="743.45" font-size="8" stroke="none" fill="#ffcccc66" dy="0em">1050mm</text>
<g>
<g>
<g>
<path d="M465.0,-0.0 L339.1479006990711,-7.720987687173553 L323.0432102050694,91.47900699071141 L319.18543263426216,-8.94567897949312 L261.25,-12.5 L240.0,265 L240.0,600 L465.0,600 L465.0,0" fill="#E6E6FA66" stroke="black" />
<text font-size="12" stroke="none" fill="#000000"><textPath xlink:href="#d0" startOffset="10">
<tspan dy="-1em">front</tspan>
</textPath></text>
</g>
<g>
<path d="M0.0,-0.0 L0,600 L240.0,600 L240.0,265 L223.75,-12.5 L159.15109809326995,-8.891122798506702 L156.13903498133365,116.4720594992067 L139.18223524006356,-7.775543868159976 L84.56776475993651,-4.724456131840029 L82.39238584576032,135.61537330577818 L64.5989019067301,-3.6088772014933017 L0,0" fill="#E6E6FA66" stroke="black" />
<text font-size="12" stroke="none" fill="#000000"><textPath xlink:href="#d1" startOffset="10">
<tspan dy="-1em">back</tspan>
</textPath></text>
</g>
<g>
<circle cx="0" cy="0" r="1" fill="black" />
<text x="2" y="-2" font-size="12" fill="#000000" stroke="none" dy="0em">14</text>
</g>
<g>
<circle cx="0" cy="0" r="1" fill="black" />
<text x="2" y="-2" font-size="12" fill="#000000" stroke="none" dy="0em">1</text>
</g>
<g>
<circle cx="465.0" cy="0" r="1" fill="black" />
<text x="467.0" y="-2" font-size="12" fill="#000000" stroke="none" dy="0em">2</text>
</g>
<g>
<circle cx="0" cy="600" r="1" fill="black" />
<text x="2" y="598" font-size="12" fill="#000000" stroke="none" dy="0em">3</text>
</g>
<g>
<circle cx="465.0" cy="600" r="1" fill="black" />
<text x="467.0" y="598" font-size="12" fill="#000000" stroke="none" dy="0em">4</text>
</g>
<g>
<circle cx="0" cy="265" r="1" fill="black" />
<text x="2" y="263" font-size="12" fill="#000000" stroke="none" dy="0em">5</text>
</g>
<g>
<circle cx="465.0" cy="265" r="1" fill="black" />
<text x="467.0" y="263" font-size="12" fill="#000000" stroke="none" dy="0em">6</text>
</g>
<g>
<circle cx="240.0" cy="265" r="1" fill="black" />
<text x="242.0" y="263" font-size="12" fill="#000000" stroke="none" dy="0em">7</text>
</g>
<g>
<circle cx="240.0" cy="600" r="1" fill="black" />
<text x="242.0" y="598" font-size="12" fill="#000000" stroke="none" dy="0em">8</text>
</g>
<g>
<circle cx="223.75" cy="0" r="1" fill="black" />
<text x="225.75" y="-2" font-size="12" fill="#000000" stroke="none" dy="0em">9</text>
</g>
<g>
<circle cx="223.75" cy="-12.5" r="1" fill="black" />
<text x="225.75" y="-14.5" font-size="12" fill="#000000" stroke="none" dy="0em">10</text>
</g>
<g>
<circle cx="74.58333333333333" cy="-4.166666666666666" r="1" fill="black" />
<text x="76.58333333333333" y="-6.166666666666666" font-size="12" fill="#000000" stroke="none" dy="0em">11</text>
</g>
<g>
<circle cx="149.16666666666666" cy="-8.333333333333332" r="1" fill="black" />
<text x="151.16666666666666" y="-10.333333333333332" font-size="12" fill="#000000" stroke="none" dy="0em">12</text>
</g>
<g>
<circle cx="0" cy="0" r="1" fill="black" />
<text x="2" y="-2" font-size="12" fill="#000000" stroke="none" dy="0em">14</text>
</g>
<g>
<circle cx="0" cy="0" r="1" fill="black" />
<text x="2" y="-2" font-size="12" fill="#000000" stroke="none" dy="0em">14</text>
</g>
<g>
<circle cx="261.25" cy="0" r="1" fill="black" />
<text x="263.25" y="-2" font-size="12" fill="#000000" stroke="none" dy="0em">15</text>
</g>
<g>
<circle cx="261.25" cy="-12.5" r="1" fill="black" />
<text x="263.25" y="-14.5" font-size="12" fill="#000000" stroke="none" dy="0em">16</text>
</g>
<g>
<circle cx="329.16666666666663" cy="-8.333333333333334" r="1" fill="black" />
<text x="331.16666666666663" y="-10.333333333333334" font-size="12" fill="#000000" stroke="none" dy="0em">17</text>
</g>
<g>
<path d="M465.0,-0.0 L590.8520993009289,-7.720987687173553 L606.9567897949306,91.47900699071141 L610.8145673657378,-8.94567897949312 L668.75,-12.5 L690.0,265 L690.0,600 L465.0,600 L465.0,0" fill="#E6E6FA66" stroke="black" />
<text font-size="12" stroke="none" fill="#000000"><textPath xlink:href="#d2" startOffset="10">
<tspan dy="-1em">front</tspan>
</textPath></text>
</g>
<g>
<path d="M0.0,-0.0 L0.0,600 L-240.0,600 L-240.0,265 L-223.75,-12.5 L-159.15109809326995,-8.891122798506702 L-156.13903498133365,116.4720594992067 L-139.18223524006356,-7.775543868159976 L-84.56776475993651,-4.724456131840029 L-82.39238584576032,135.61537330577818 L-64.5989019067301,-3.6088772014933017 L0.0,0" fill="#E6E6FA66" stroke="black" />
<text font-size="12" stroke="none" fill="#000000"><textPath xlink:href="#d3" startOffset="10">
<tspan dy="-1em">back</tspan>
</textPath></text>
</g>
<text x="196.72348484848482" y="163.2769508064968" font-size="12" fill="#000000" stroke="none"><tspan x="196.72348484848482" dy="0em">Tailored Skirt Block</tspan><tspan x="196.72348484848482" dy="1em">waist=725</tspan><tspan x="196.72348484848482" dy="1em">hips=900</tspan><tspan x="196.72348484848482" dy="1em">waist_to_hip=265</tspan><tspan x="196.72348484848482" dy="1em">skirt_length=600</tspan></text>
</g>
<g>
<g>
<g>
<path d="M-223.75,-12.5 L-159.15109809326995,-8.891122798506702 L-139.18223524006356,-7.775543868159976 L-84.56776475993651,-4.724456131840029 L-64.5989019067301,-3.6088772014933017 L0.0,0 L64.5989019067301,-3.6088772014933017 L84.56776475993651,-4.724456131840029 L139.18223524006356,-7.775543868159976 L159.15109809326995,-8.891122798506702 L223.75,-12.5 L261.25,-12.5 L319.18543263426216,-8.94567897949312 L339.1479006990711,-7.720987687173553 L465.0,-0.0 L590.8520993009289,-7.720987687173553 L610.8145673657378,-8.94567897949312 L668.75,-12.5 L666.0281236028197,-56.86658527403785 L608.0926909685555,-53.312264253530984 L588.1302229037458,-52.08757296121122 L465.0,-44.53357155607345 L341.86977709625125,-52.08757296121144 L321.90730903144237,-53.31226425353098 L262.6122163639966,-56.95 L222.5093471539077,-56.95000000000002 L156.67172392057427,-53.27192048975791 L136.70286106736793,-52.15634155941118 L82.08839058724092,-49.10525382309126 L62.11952773403453,-47.98967489274453 L2.726021537744155e-15,-44.5193102148655 L-62.11952773403452,-47.98967489274453 L-82.08839058724092,-49.10525382309124 L-136.70286106736793,-52.156341559411196 L-156.6717239205743,-53.27192048975792 L-221.2706258273044,-56.880797691251225 L-223.75,-12.5" fill="#E6E6FA66" stroke="black" />
<text font-size="12" stroke="none" fill="#000000"><textPath xlink:href="#d4" startOffset="10">
<tspan dy="-1em">44.4mm allowance</tspan>
</textPath></text>
</g>
<g>
<path d="M-222.33321475845966,-37.860455823572124 L-157.73431285172953,-34.25157862207883 L-137.76544999852317,-33.135999691732096 L-83.15097951839617,-30.08491195541215 L-63.18211666518977,-28.96933302506544 L1.5577265929966603e-15,-25.439605837066004 L63.182116665189774,-28.96933302506544 L83.15097951839618,-30.084911955412164 L137.7654499985232,-33.135999691732096 L157.7343128517295,-34.25157862207882 L223.04105551651875,-37.90000000000001 L262.0284093508553,-37.9 L320.74079057550813,-34.29801342180045 L340.70325864031696,-33.07332212948084 L465.0,-25.44775517489911 L589.2967413596813,-33.073322129480786 L609.2592094244909,-34.29801342180054 L667.1946420587542,-37.85233444230735" fill="none" stroke="black" stroke-dasharray="3" />
</g>
</g>
<g>
<g>
<path d="M-240.0,600 L0.0,600 L240.0,600 L465.0,600 L690.0,600 L690.0,644.45 L465.0,644.45 L240.0,644.45 L-2.721777511104996e-15,644.45 L-240.0,644.45 L-240.0,600" fill="#E6E6FA66" stroke="black" />
<text font-size="12" stroke="none" fill="#000000"><textPath xlink:href="#d5" startOffset="10">
<tspan dy="-1em">44.4mm allowance</tspan>
</textPath></text>
</g>
<g>
<path d="M-240.0,625.4 L-1.5553014349171406e-15,625.4 L240.0,625.4 L465.0,625.4 L690.0,625.4" fill="none" stroke="black" stroke-dasharray="3" />
</g>
</g>
<g>
<g>
<g>
<path d="M-240.0,600 L-240.0,265 L-223.75,-12.5 L-249.1065620523747,-13.984843723787707 L-265.4,264.25694276642434 L-265.4,600.0 L-240.0,600" fill="#E6E6FA66" stroke="black" />
<text font-size="12" stroke="none" fill="#000000"><textPath xlink:href="#d6" startOffset="10">
<tspan dy="-1em">25.4mm allowance</tspan>
</textPath></text>
</g>
<g>
<path d="M-255.24,600.0 L-255.23999999999995,264.55416565985297 L-238.9639372314248,-13.390906234272624" fill="none" stroke="black" stroke-dasharray="3" />
</g>
<g>
<g>
<path d="M-265.4,548.5 L-240.0,548.5 L-240.0,551.5 L-265.4,551.5" fill="#000000" stroke="none" />
</g>
</g>
</g>
<g>
<g>
<path d="M690.0,600 L690.0,265 L668.75,-12.5 L643.4241465095076,-10.560632840818148 L664.6,265.97110097618935 L664.6,600.0 L690.0,600" fill="#E6E6FA66" stroke="black" />
<text font-size="12" stroke="none" fill="#000000"><textPath xlink:href="#d7" startOffset="10">
<tspan dy="-1em">25.4mm allowance</tspan>
</textPath></text>
</g>
<g>
<path d="M674.76,600.0 L674.76,265.5826605857093 L653.5544879057046,-11.33637970449089" fill="none" stroke="black" stroke-dasharray="3" />
</g>
<g>
<g>
<path d="M664.6,548.5 L690.0,548.5 L690.0,551.5 L664.6,551.5" fill="#000000" stroke="none" />
</g>
</g>
</g>
</g>
</g>
</g>
</svg>