<?xml version="1.0" encoding="UTF-8"?>
<svg xmlns="http://www.w3.org/2000/svg" xmlns:xlink="http://www.w3.org/1999/xlink"
     width="500" height="500" viewBox="-200 -300 500 500" stroke="black" fill="none">
<defs>
<path d="M-100,-200 L200,100" fill="none" stroke="black" id="d0" />
<path d="M100.0,-0.0 L99.80267284282715,-6.279051952931337 L99.21147013144778,-12.533323356430426 L98.22872507286887,-18.738131458572465 L96.85831611286311,-24.86898871648548 L95.10565162951536,-30.901699437494745 L92.97764858882515,-36.8124552684678 L90.48270524660195,-42.577929156507274 L87.63066800438637,-48.17536741017153 L84.43279255020151,-53.58267949789967 L80.90169943749474,-58.778525229247315 L77.05132427757891,-63.742398974868976 L72.89686274214115,-68.45471059286888 L68.45471059286886,-72.89686274214115 L63.74239897486897,-77.05132427757894 L58.77852522924731,-80.90169943749476 L53.582679497899655,-84.43279255020151 L48.17536741017152,-87.63066800438637 L42.57792915650727,-90.48270524660195 L36.81245526846779,-92.97764858882515 L30.90169943749475,-95.10565162951536 L24.86898871648548,-96.85831611286312 L18.73813145857245,-98.22872507286887 L12.533323356430426,-99.21147013144778 L7.047270946447391,-99.73005476749935" fill="none" stroke="black" id="d1" />
</defs>
<path d="M-200,200 L300,200" stroke="#dddddd" />
<path d="M-200,-10 L300,-10" stroke="#dddddd" />
<path d="M-200,-220 L300,-220" stroke="#dddddd" />
<path d="M-200,200 L-200,-300" stroke="#dddddd" />
<path d="M97,200 L97,-300" stroke="#dddddd" />
<text x="-51.5" y="95.0" font-size="10" stroke="none" fill="#dddddd" dy="0em">A0</text>
<text x="-51.5" y="-115.0" font-size="10" stroke="none" fill="#dddddd" dy="0em">A1</text>
<text x="245.5" y="95.0" font-size="10" stroke="none" fill="#dddddd" dy="0em">B0</text>
<text x="245.5" y="-115.0" font-size="10" stroke="none" fill="#dddddd" dy="0em">B1</text>
<path d="M-200,200 L300,200" stroke="#ffcccc66" stroke-dasharray="5" />
<path d="M-200,150 L300,150" stroke="#ffcccc66" stroke-dasharray="5" />
<path d="M-200,100 L300,100" stroke="#ffcccc66" stroke-dasharray="5" />
<path d="M-200,50 L300,50" stroke="#ffcccc66" stroke-dasharray="5" />
<path d="M-200,0 L300,0" stroke="#ffcccc66" stroke-dasharray="5" />
<path d="M-200,-50 L300,-50" stroke="#ffcccc66" stroke-dasharray="5" />
<path d="M-200,-100 L300,-100" stroke="#ffcccc66" stroke-dasharray="5" />
<path d="M-200,-150 L300,-150" stroke="#ffcccc66" stroke-dasharray="5" />
<path d="M-200,-200 L300,-200" stroke="#ffcccc66" stroke-dasharray="5" />
<path d="M-200,-250 L300,-250" stroke="#ffcccc66" stroke-dasharray="5" />
<path d="M-200,200 L-200,-300" stroke="#ffcccc66" stroke-dasharray="5" />
<path d="M-150,200 L-150,-300" stroke="#ffcccc66" stroke-dasharray="5" />
<path d="M-100,200 L-100,-300" stroke="#ffcccc66" stroke-dasharray="5" />
<path d="M-50,200 L-50,-300" stroke="#ffcccc66" stroke-dasharray="5" />
<path d="M0,200 L0,-300" stroke="#ffcccc66" stroke-dasharray="5" />
<path d="M50,200 L50,-300" stroke="#ffcccc66" stroke-dasharray="5" />
<path d="M100,200 L100,-300" stroke="#ffcccc66" stroke-dasharray="5" />
<path d="M150,200 L150,-300" stroke="#ffcccc66" stroke-dasharray="5" />
<path d="M200,200 L200,-300" stroke="#ffcccc66" stroke-dasharray="5" />
<path d="M250,200 L250,-300" stroke="#ffcccc66" stroke-dasharray="5" />
<g>
<path d="M-100,-200 L200,100" fill="none" stroke="black" />
<text font-size="12" stroke="none" fill="#000000"><textPath xlink:href="#d0" startOffset="10">
<tspan dy="-1em">a simple shape</tspan>
</textPath></text>
</g>
<g>
<path d="M100.0,-0.0 L99.80267284282715,-6.279051952931337 L99.21147013144778,-12.533323356430426 L98.22872507286887,-18.738131458572465 L96.85831611286311,-24.86898871648548 L95.10565162951536,-30.901699437494745 L92.97764858882515,-36.8124552684678 L90.48270524660195,-42.577929156507274 L87.63066800438637,-48.17536741017153 L84.43279255020151,-53.58267949789967 L80.90169943749474,-58.778525229247315 L77.05132427757891,-63.742398974868976 L72.89686274214115,-68.45471059286888 L68.45471059286886,-72.89686274214115 L63.74239897486897,-77.05132427757894 L58.77852522924731,-80.90169943749476 L53.582679497899655,-84.43279255020151 L48.17536741017152,-87.63066800438637 L42.57792915650727,-90.48270524660195 L36.81245526846779,-92.97764858882515 L30.90169943749475,-95.10565162951536 L24.86898871648548,-96.85831611286312 L18.73813145857245,-98.22872507286887 L12.533323356430426,-99.21147013144778 L7.047270946447391,-99.73005476749935" fill="none" stroke="black" />
<text font-size="12" stroke="none" fill="#000000"><textPath xlink:href="#d1" startOffset="10">
<tspan dy="-1em">replacement</tspan>
</textPath></text>
</g>
</svg>