<?xml version="1.0" encoding="UTF-8"?>
<svg xmlns="http://www.w3.org/2000/svg" xmlns:xlink="http://www.w3.org/1999/xlink"
     width="300" height="300" viewBox="-100 -200 300 300" stroke="black" fill="none">
<defs>
</defs>
<path d="M-100,100 L200,100" stroke="#dddddd" />
<path d="M-100,-197 L200,-197" stroke="#dddddd" />
<path d="M-100,100 L-100,-200" stroke="#dddddd" />
<path d="M110,100 L110,-200" stroke="#dddddd" />
<text x="5.0" y="-48.5" font-size="10" stroke="none" fill="#dddddd" dy="0em">A0</text>
<path d="M-100,100 L200,100" stroke="#ffcccc66" stroke-dasharray="5" />
<path d="M-100,50 L200,50" stroke="#ffcccc66" stroke-dasharray="5" />
<path d="M-100,0 L200,0" stroke="#ffcccc66" stroke-dasharray="5" />
<path d="M-100,-50 L200,-50" stroke="#ffcccc66" stroke-dasharray="5" />
<path d="M-100,-100 L200,-100" stroke="#ffcccc66" stroke-dasharray="5" />
<path d="M-100,-150 L200,-150" stroke="#ffcccc66" stroke-dasharray="5" />
<path d="M-100,100 L-100,-200" stroke="#ffcccc66" stroke-dasharray="5" />
<path d="M-50,100 L-50,-200" stroke="#ffcccc66" stroke-dasharray="5" />
<path d="M0,100 L0,-200" stroke="#ffcccc66" stroke-dasharray="5" />
<path d="M50,100 L50,-200" stroke="#ffcccc66" stroke-dasharray="5" />
<path d="M100,100 L100,-200" stroke="#ffcccc66" stroke-dasharray="5" />
<path d="M150,100 L150,-200" stroke="#ffcccc66" stroke-dasharray="5" />
<g>
<path d="M0,0 L100,0 L100,-100 L0,-100 L0,0" fill="#E6E6FA66" stroke="black" />
<text x="50.0" y="-50.0" font-size="12" stroke="none" fill="black" text-anchor="middle" dy="0em">a square</text>
</g>
<g>
<circle cx="100" cy="0" r="1" fill="black" />
<text x="102" y="-2" font-size="12" fill="#000000" stroke="none" dy="0em">Here is a corner!</text>
</g>
<g>
<circle cx="100" cy="-100" r="1" fill="black" />
<text x="102" y="-102" font-size="12" fill="#000000" stroke="none" dy="0em">Here is a corner!</text>
</g>
<g>
<circle cx="0" cy="-100" r="1" fill="black" />
<text x="2" y="-102" font-size="12" fill="#000000" stroke="none" dy="0em">Here is a corner!</text>
</g>
</svg>