<?xml version="1.0" encoding="UTF-8"?>
<svg xmlns="http://www.w3.org/2000/svg" xmlns:xlink="http://www.w3.org/1999/xlink"
     width="609.8799999999999" height="1303.3" viewBox="-150 -1153.3 609.8799999999999 1303.3" stroke="black" fill="none">
<defs>
<marker markerWidth="15.2" markerHeight="8.0" viewBox="-1.0 -0.5 1.9 1.0" orient="auto" id="d0">
<path d="M-1.0,0.5 L-1.0,-0.5 L0.0,0 Z" fill="black" stroke="none" />
</marker>
<marker markerWidth="15.2" markerHeight="8.0" viewBox="-1.0 -0.5 1.9 1.0" orient="auto" id="d1">
<path d="M-1.0,0.5 L-1.0,-0.5 L0.0,0 Z" fill="black" stroke="none" />
</marker>
<marker markerWidth="15.2" markerHeight="8.0" viewBox="-1.0 -0.5 1.9 1.0" orient="auto" id="d2">
<path d="M-1.0,0.5 L-1.0,-0.5 L0.0,0 Z" fill="black" stroke="none" />
</marker>
<marker markerWidth="15.2" markerHeight="8.0" viewBox="-1.0 -0.5 1.9 1.0" orient="auto" id="d3">
<path d="M-1.0,0.5 L-1.0,-0.5 L0.0,0 Z" fill="black" stroke="none" />
</marker>
<marker markerWidth="15.2" markerHeight="8.0" viewBox="-1.0 -0.5 1.9 1.0" orient="auto" id="d4">
<path d="M-1.0,0.5 L-1.0,-0.5 L0.0,0 Z" fill="black" stroke="none" />
</marker>
<marker markerWidth="15.2" markerHeight="8.0" viewBox="-1.0 -0.5 1.9 1.0" orient="auto" id="d5">
<path d="M-1.0,0.5 L-1.0,-0.5 L0.0,0 Z" fill="black" stroke="none" />
</marker>
<marker markerWidth="15.2" markerHeight="8.0" viewBox="-1.0 -0.5 1.9 1.0" orient="auto" id="d6">
<path d="M-1.0,0.5 L-1.0,-0.5 L0.0,0 Z" fill="black" stroke="none" />
</marker>
<marker markerWidth="15.2" markerHeight="8.0" viewBox="-1.0 -0.5 1.9 1.0" orient="auto" id="d7">
<path d="M-1.0,0.5 L-1.0,-0.5 L0.0,0 Z" fill="black" stroke="none" />
</marker>
<marker markerWidth="15.2" markerHeight="8.0" viewBox="-1.0 -0.5 1.9 1.0" orient="auto" id="d8">
<path d="M-1.0,0.5 L-1.0,-0.5 L0.0,0 Z" fill="black" stroke="none" />
</marker>
<marker markerWidth="15.2" markerHeight="8.0" viewBox="-1.0 -0.5 1.9 1.0" orient="auto" id="d9">
<path d="M-1.0,0.5 L-1.0,-0.5 L0.0,0 Z" fill="black" stroke="none" />
</marker>
<marker markerWidth="15.2" markerHeight="8.0" viewBox="-1.0 -0.5 1.9 1.0" orient="auto" id="d10">
<path d="M-1.0,0.5 L-1.0,-0.5 L0.0,0 Z" fill="black" stroke="none" />
</marker>
<marker markerWidth="15.2" markerHeight="8.0" viewBox="-1.0 -0.5 1.9 1.0" orient="auto" id="d11">
<path d="M-1.0,0.5 L-1.0,-0.5 L0.0,0 Z" fill="black" stroke="none" />
</marker>
<marker markerWidth="15.2" markerHeight="8.0" viewBox="-1.0 -0.5 1.9 1.0" orient="auto" id="d12">
<path d="M-1.0,0.5 L-1.0,-0.5 L0.0,0 Z" fill="black" stroke="none" />
</marker>
<marker markerWidth="15.2" markerHeight="8.0" viewBox="-1.0 -0.5 1.9 1.0" orient="auto" id="d13">
<path d="M-1.0,0.5 L-1.0,-0.5 L0.0,0 Z" fill="black" stroke="none" />
</marker>
<marker markerWidth="15.2" markerHeight="8.0" viewBox="-1.0 -0.5 1.9 1.0" orient="auto" id="d14">
<path d="M-1.0,0.5 L-1.0,-0.5 L0.0,0 Z" fill="black" stroke="none" />
</marker>
<marker markerWidth="15.2" markerHeight="8.0" viewBox="-1.0 -0.5 1.9 1.0" orient="auto" id="d15">
<path d="M-1.0,0.5 L-1.0,-0.5 L0.0,0 Z" fill="black" stroke="none" />
</marker>
<marker markerWidth="15.2" markerHeight="8.0" viewBox="-1.0 -0.5 1.9 1.0" orient="auto" id="d16">
<path d="M-1.0,0.5 L-1.0,-0.5 L0.0,0 Z" fill="black" stroke="none" />
</marker>
<marker markerWidth="15.2" markerHeight="8.0" viewBox="-1.0 -0.5 1.9 1.0" orient="auto" id="d17">
<path d="M-1.0,0.5 L-1.0,-0.5 L0.0,0 Z" fill="black" stroke="none" />
</marker>
<marker markerWidth="15.2" markerHeight="8.0" viewBox="-1.0 -0.5 1.9 1.0" orient="auto" id="d18">
<path d="M-1.0,0.5 L-1.0,-0.5 L0.0,0 Z" fill="black" stroke="none" />
</marker>
<marker markerWidth="15.2" markerHeight="8.0" viewBox="-1.0 -0.5 1.9 1.0" orient="auto" id="d19">
<path d="M-1.0,0.5 L-1.0,-0.5 L0.0,0 Z" fill="black" stroke="none" />
</marker>
<marker markerWidth="15.2" markerHeight="8.0" viewBox="-1.0 -0.5 1.9 1.0" orient="auto" id="d20">
<path d="M-1.0,0.5 L-1.0,-0.5 L0.0,0 Z" fill="black" stroke="none" />
</marker>
<marker markerWidth="15.2" markerHeight="8.0" viewBox="-1.0 -0.5 1.9 1.0" orient="auto" id="d21">
<path d="M-1.0,0.5 L-1.0,-0.5 L0.0,0 Z" fill="black" stroke="none" />
</marker>
<marker markerWidth="15.2" markerHeight="8.0" viewBox="-1.0 -0.5 1.9 1.0" orient="auto" id="d22">
<path d="M-1.0,0.5 L-1.0,-0.5 L0.0,0 Z" fill="black" stroke="none" />
</marker>
<marker markerWidth="15.2" markerHeight="8.0" viewBox="-1.0 -0.5 1.9 1.0" orient="auto" id="d23">
<path d="M-1.0,0.5 L-1.0,-0.5 L0.0,0 Z" fill="black" stroke="none" />
</marker>
<marker markerWidth="15.2" markerHeight="8.0" viewBox="-1.0 -0.5 1.9 1.0" orient="auto" id="d24">
<path d="M-1.0,0.5 L-1.0,-0.5 L0.0,0 Z" fill="black" stroke="none" />
</marker>
<marker markerWidth="15.2" markerHeight="8.0" viewBox="-1.0 -0.5 1.9 1.0" orient="auto" id="d25">
<path d="M-1.0,0.5 L-1.0,-0.5 L0.0,0 Z" fill="black" stroke="none" />
</marker>
<marker markerWidth="15.2" markerHeight="8.0" viewBox="-1.0 -0.5 1.9 1.0" orient="auto" id="d26">
<path d="M-1.0,0.5 L-1.0,-0.5 L0.0,0 Z" fill="black" stroke="none" />
</marker>
<marker markerWidth="15.2" markerHeight="8.0" viewBox="-1.0 -0.5 1.9 1.0" orient="auto" id="d27">
<path d="M-1.0,0.5 L-1.0,-0.5 L0.0,0 Z" fill="black" stroke="none" />
</marker>
<marker markerWidth="15.2" markerHeight="8.0" viewBox="-1.0 -0.5 1.9 1.0" orient="auto" id="d28">
<path d="M-1.0,0.5 L-1.0,-0.5 L0.0,0 Z" fill="black" stroke="none" />
</marker>
<marker markerWidth="15.2" markerHeight="8.0" viewBox="-1.0 -0.5 1.9 1.0" orient="auto" id="d29">
<path d="M-1.0,0.5 L-1.0,-0.5 L0.0,0 Z" fill="black" stroke="none" />
</marker>
<marker markerWidth="15.2" markerHeight="8.0" viewBox="-1.0 -0.5 1.9 1.0" orient="auto" id="d30">
<path d="M-1.0,0.5 L-1.0,-0.5 L0.0,0 Z" fill="black" stroke="none" />
</marker>
<marker markerWidth="15.2" markerHeight="8.0" viewBox="-1.0 -0.5 1.9 1.0" orient="auto" id="d31">
<path d="M-1.0,0.5 L-1.0,-0.5 L0.0,0 Z" fill="black" stroke="none" />
</marker>
<marker markerWidth="15.2" markerHeight="8.0" viewBox="-1.0 -0.5 1.9 1.0" orient="auto" id="d32">
<path d="M-1.0,0.5 L-1.0,-0.5 L0.0,0 Z" fill="black" stroke="none" />
</marker>
<marker markerWidth="15.2" markerHeight="8.0" viewBox="-1.0 -0.5 1.9 1.0" orient="auto" id="d33">
<path d="M-1.0,0.5 L-1.0,-0.5 L0.0,0 Z" fill="black" stroke="none" />
</marker>
<marker markerWidth="15.2" markerHeight="8.0" viewBox="-1.0 -0.5 1.9 1.0" orient="auto" id="d34">
<path d="M-1.0,0.5 L-1.0,-0.5 L0.0,0 Z" fill="black" stroke="none" />
</marker>
<marker markerWidth="15.2" markerHeight="8.0" viewBox="-1.0 -0.5 1.9 1.0" orient="auto" id="d35">
<path d="M-1.0,0.5 L-1.0,-0.5 L0.0,0 Z" fill="black" stroke="none" />
</marker>
<marker markerWidth="15.2" markerHeight="8.0" viewBox="-1.0 -0.5 1.9 1.0" orient="auto" id="d36">
<path d="M-1.0,0.5 L-1.0,-0.5 L0.0,0 Z" fill="black" stroke="none" />
</marker>
<marker markerWidth="15.2" markerHeight="8.0" viewBox="-1.0 -0.5 1.9 1.0" orient="auto" id="d37">
<path d="M-1.0,0.5 L-1.0,-0.5 L0.0,0 Z" fill="black" stroke="none" />
</marker>
<marker markerWidth="15.2" markerHeight="8.0" viewBox="-1.0 -0.5 1.9 1.0" orient="auto" id="d38">
<path d="M-1.0,0.5 L-1.0,-0.5 L0.0,0 Z" fill="black" stroke="none" />
</marker>
<marker markerWidth="15.2" markerHeight="8.0" viewBox="-1.0 -0.5 1.9 1.0" orient="auto" id="d39">
<path d="M-1.0,0.5 L-1.0,-0.5 L0.0,0 Z" fill="black" stroke="none" />
</marker>
<marker markerWidth="15.2" markerHeight="8.0" viewBox="-1.0 -0.5 1.9 1.0" orient="auto" id="d40">
<path d="M-1.0,0.5 L-1.0,-0.5 L0.0,0 Z" fill="black" stroke="none" />
</marker>
<marker markerWidth="15.2" markerHeight="8.0" viewBox="-1.0 -0.5 1.9 1.0" orient="auto" id="d41">
<path d="M-1.0,0.5 L-1.0,-0.5 L0.0,0 Z" fill="black" stroke="none" />
</marker>
<marker markerWidth="15.2" markerHeight="8.0" viewBox="-1.0 -0.5 1.9 1.0" orient="auto" id="d42">
<path d="M-1.0,0.5 L-1.0,-0.5 L0.0,0 Z" fill="black" stroke="none" />
</marker>
<marker markerWidth="15.2" markerHeight="8.0" viewBox="-1.0 -0.5 1.9 1.0" orient="auto" id="d43">
<path d="M-1.0,0.5 L-1.0,-0.5 L0.0,0 Z" fill="black" stroke="none" />
</marker>
<path d="M-50.0,54.0 L-50.0,154.0" id="d44" />
<path d="M-30.0,54.0 L-30.0,154.0" id="d45" />
<path d="M-10.0,54.0 L-10.0,154.0" id="d46" />
<path d="M10.0,54.0 L10.0,154.0" id="d47" />
<path d="M30.0,54.0 L30.0,154.0" id="d48" />
<path d="M50.00000000000001,54.0 L50.00000000000001,154.0" id="d49" />
<path d="M70.0,53.99999999999999 L70.0,154.0" id="d50" />
<path d="M90.0,54.0 L90.0,154.0" id="d51" />
<path d="M110.0,54.0 L110.0,154.0" id="d52" />
<path d="M130.0,54.0 L130.0,154.0" id="d53" />
<path d="M150.0,54.0 L150.0,154.0" id="d54" />
<path d="M170.0,54.0 L170.0,154.0" id="d55" />
<path d="M190.0,54.0 L190.0,154.0" id="d56" />
<path d="M210.0,54.0 L210.0,154.0" id="d57" />
<path d="M230.0,54.0 L230.0,154.0" id="d58" />
<path d="M250.00000000000003,54.0 L250.00000000000003,154.0" id="d59" />
<path d="M270.0,54.0 L270.0,154.0" id="d60" />
<path d="M289.99999999999994,54.0 L289.99999999999994,154.0" id="d61" />
<path d="M310.0,54.0 L310.0,154.0" id="d62" />
<path d="M330.0,54.0 L330.0,154.0" id="d63" />
<path d="M350.00000000000006,54.0 L350.00000000000006,154.0" id="d64" />
<path d="M363.87999999999994,50.0 L463.87999999999994,50.0" id="d65" />
<path d="M363.87999999999994,30.0 L463.87999999999994,30.0" id="d66" />
<path d="M363.87999999999994,10.000000000000007 L463.87999999999994,10.000000000000007" id="d67" />
<path d="M363.87999999999994,-10.0 L463.87999999999994,-10.0" id="d68" />
<path d="M363.87999999999994,-30.0 L463.87999999999994,-30.0" id="d69" />
<path d="M363.87999999999994,-50.00000000000001 L463.87999999999994,-50.00000000000001" id="d70" />
<path d="M363.87999999999994,-70.0 L463.87999999999994,-70.0" id="d71" />
<path d="M363.8799999999999,-90.0 L463.8799999999999,-90.0" id="d72" />
<path d="M363.87999999999994,-110.0 L463.87999999999994,-110.0" id="d73" />
<path d="M363.87999999999994,-130.0 L463.87999999999994,-130.0" id="d74" />
<path d="M363.87999999999994,-150.00000000000003 L463.87999999999994,-150.00000000000003" id="d75" />
<path d="M363.88,-170.0 L463.88,-170.0" id="d76" />
<path d="M363.87999999999994,-190.0 L463.87999999999994,-190.0" id="d77" />
<path d="M363.87999999999994,-210.0 L463.87999999999994,-210.0" id="d78" />
<path d="M363.87999999999994,-230.0 L463.87999999999994,-230.0" id="d79" />
<path d="M363.8799999999999,-250.00000000000003 L463.8799999999999,-250.00000000000003" id="d80" />
<path d="M363.87999999999994,-270.0 L463.87999999999994,-270.0" id="d81" />
<path d="M363.87999999999994,-290.0 L463.87999999999994,-290.0" id="d82" />
<path d="M363.87999999999994,-310.0 L463.87999999999994,-310.0" id="d83" />
<path d="M363.87999999999994,-329.99999999999994 L463.87999999999994,-329.99999999999994" id="d84" />
<path d="M363.87999999999994,-350.00000000000006 L463.87999999999994,-350.00000000000006" id="d85" />
<path d="M363.87999999999994,-370.0 L463.87999999999994,-370.0" id="d86" />
<path d="M363.87999999999994,-390.0 L463.87999999999994,-390.0" id="d87" />
<path d="M363.87999999999994,-410.0 L463.87999999999994,-410.0" id="d88" />
<path d="M363.88,-430.0 L463.88,-430.0" id="d89" />
<path d="M363.88,-450.0 L463.88,-450.0" id="d90" />
<path d="M363.87999999999994,-470.0 L463.87999999999994,-470.0" id="d91" />
<path d="M363.8799999999999,-490.0 L463.8799999999999,-490.0" id="d92" />
<path d="M363.87999999999994,-510.0 L463.87999999999994,-510.0" id="d93" />
<path d="M363.87999999999994,-530.0 L463.87999999999994,-530.0" id="d94" />
<path d="M363.87999999999994,-550.0 L463.87999999999994,-550.0" id="d95" />
<path d="M363.87999999999994,-569.9999999999999 L463.87999999999994,-569.9999999999999" id="d96" />
<path d="M363.87999999999994,-590.0 L463.87999999999994,-590.0" id="d97" />
<path d="M363.87999999999994,-610.0000000000001 L463.87999999999994,-610.0000000000001" id="d98" />
<path d="M363.87999999999994,-630.0 L463.87999999999994,-630.0" id="d99" />
<path d="M363.87999999999994,-650.0 L463.87999999999994,-650.0" id="d100" />
<path d="M363.87999999999994,-670.0 L463.87999999999994,-670.0" id="d101" />
<path d="M363.87999999999994,-690.0 L463.87999999999994,-690.0" id="d102" />
<path d="M363.87999999999994,-709.9999999999999 L463.87999999999994,-709.9999999999999" id="d103" />
<path d="M363.87999999999994,-730.0 L463.87999999999994,-730.0" id="d104" />
<path d="M363.87999999999994,-750.0000000000001 L463.87999999999994,-750.0000000000001" id="d105" />
<path d="M363.87999999999994,-769.9999999999999 L463.87999999999994,-769.9999999999999" id="d106" />
<path d="M363.88,-790.0 L463.88,-790.0" id="d107" />
<path d="M363.87999999999994,-810.0 L463.87999999999994,-810.0" id="d108" />
<path d="M363.87999999999994,-830.0 L463.87999999999994,-830.0" id="d109" />
<path d="M363.87999999999994,-849.9999999999999 L463.87999999999994,-849.9999999999999" id="d110" />
<path d="M363.87999999999994,-870.0 L463.87999999999994,-870.0" id="d111" />
<path d="M363.87999999999994,-890.0000000000001 L463.87999999999994,-890.0000000000001" id="d112" />
<path d="M363.87999999999994,-910.0 L463.87999999999994,-910.0" id="d113" />
<path d="M363.87999999999994,-930.0 L463.87999999999994,-930.0" id="d114" />
<path d="M363.87999999999994,-950.0 L463.87999999999994,-950.0" id="d115" />
<path d="M363.87999999999994,-970.0 L463.87999999999994,-970.0" id="d116" />
<path d="M363.87999999999994,-990.0 L463.87999999999994,-990.0" id="d117" />
<path d="M363.87999999999994,-1010.0 L463.87999999999994,-1010.0" id="d118" />
<path d="M363.87999999999994,-1030.0 L463.87999999999994,-1030.0" id="d119" />
<path d="M363.87999999999994,-1050.0 L463.87999999999994,-1050.0" id="d120" />
</defs>
<g>
<path d="M264.15999999999997,-1003.3 L264.15999999999997,-977.9 L261.62,-952.5 L261.62,-927.1 L259.08,-901.7 L256.53999999999996,-876.3000000000001 L248.92000000000002,-850.9000000000001 L241.29999999999998,-825.5000000000001 L231.14,-800.1000000000001 L220.97999999999996,-774.7000000000002 L210.82,-749.3000000000002 L208.27999999999997,-723.9000000000002 L210.82,-698.5000000000002 L215.89999999999998,-673.1000000000003 L220.97999999999996,-647.7000000000003 L233.67999999999998,-622.3000000000003 L246.37999999999997,-596.9000000000003 L259.08,-571.5000000000003 L271.78,-546.1000000000004 L281.94,-520.7000000000004 L292.09999999999997,-495.3000000000004 L297.17999999999995,-469.90000000000043 L297.17999999999995,-444.50000000000045 L299.72,-419.1000000000005 L299.72,-393.7000000000005 L299.72,-368.3000000000005 L302.26,-342.90000000000055 L304.79999999999995,-317.50000000000057 L304.79999999999995,-292.1000000000006 L304.79999999999995,-266.7000000000006 L304.79999999999995,-241.3000000000006 L304.79999999999995,-215.9000000000006 L304.79999999999995,-190.5000000000006 L304.79999999999995,-165.1000000000006 L307.34,-139.70000000000059 L307.34,-114.30000000000058 L309.87999999999994,-88.90000000000057 L309.87999999999994,-63.500000000000576 L309.87999999999994,-38.10000000000058 L309.87999999999994,-12.700000000000578 L309.87999999999994,0 L0,0 L0,-1003.3 L264.15999999999997,-1003.3" fill="#E6E6FA" stroke="black" />
<text x="139.70159211934052" y="-494.4032361434292" font-size="12" stroke="none" fill="black" text-anchor="middle" dy="0em">Die Lemma Dress Block</text>
</g>
<g>
<path d="M239.15999999999997,-1003.3 L239.1599999999998,-979.1468905280252 L236.6199999999994,-953.7468905280169 L236.6200000000008,-928.3468905280114 L234.20407024474807,-904.1875929755041 L231.90334955693444,-881.1803860973687 L224.97434286946716,-858.0836971391461 L217.6744070179067,-833.7505776339462 L207.92808272785948,-809.3847669088289 L197.7680827278671,-783.9847669088515 L186.29568927481574,-755.3037832762187 L183.15531094719748,-723.8999999999941 L186.06571946236164,-694.7959148483632 L191.38548310772757,-668.1970966215458 L197.12207053255872,-639.5141594973843 L211.31932022500274,-611.1196601125004 L224.01932022499642,-585.7196601125121 L236.71932022500354,-560.3196601124979 L248.95427869663018,-535.8497431692458 L258.728082727869,-511.415233091148 L268.0356288997452,-488.1463676614547 L272.17999999999773,-467.4245121601902 L272.18000000000035,-443.25310947197147 L274.7200000000003,-417.8531094719779 L274.7200000000005,-393.70000000001164 L274.7199999999999,-367.0531094719815 L277.3840702447495,-340.4124070244834 L279.7999999999993,-316.2531094719797 L279.8000000000002,-292.1000000000058 L279.7999999999996,-266.6999999999971 L279.79999999999984,-241.29999999998836 L279.8000000000002,-215.90000000000876 L279.79999999999984,-190.5 L279.8000000000001,-163.85310947197587 L282.3400000000001,-138.453109471975 L282.34,-113.05310947198006 L284.87999999999994,-87.65310947197918 L284.87999999999994,-63.5 L284.88,-38.100000000000364 L284.87999999999994,-12.700000000000728 L284.87999999999994,-24.99999999999979 L25.000000000000007,-25.0 L25.000000000000004,-978.2999999999997 L264.15999999999997,-978.3" fill="none" stroke="black" />
</g>
<g>
<path d="M264.15999999999997,-1003.3 L239.15999999999997,-1003.3" fill="none" stroke="black" marker-end="url(#d0)" stroke-dasharray="3" />
</g>
<g>
<path d="M264.15999999999997,-977.9 L239.1599999999998,-979.1468905280252" fill="none" stroke="black" marker-end="url(#d1)" stroke-dasharray="3" />
</g>
<g>
<path d="M261.62,-952.5 L236.6199999999994,-953.7468905280169" fill="none" stroke="black" marker-end="url(#d2)" stroke-dasharray="3" />
</g>
<g>
<path d="M261.62,-927.1 L236.6200000000008,-928.3468905280114" fill="none" stroke="black" marker-end="url(#d3)" stroke-dasharray="3" />
</g>
<g>
<path d="M259.08,-901.7 L234.20407024474807,-904.1875929755041" fill="none" stroke="black" marker-end="url(#d4)" stroke-dasharray="3" />
</g>
<g>
<path d="M256.53999999999996,-876.3000000000001 L231.90334955693444,-881.1803860973687" fill="none" stroke="black" marker-end="url(#d5)" stroke-dasharray="3" />
</g>
<g>
<path d="M248.92000000000002,-850.9000000000001 L224.97434286946716,-858.0836971391461" fill="none" stroke="black" marker-end="url(#d6)" stroke-dasharray="3" />
</g>
<g>
<path d="M241.29999999999998,-825.5000000000001 L217.6744070179067,-833.7505776339462" fill="none" stroke="black" marker-end="url(#d7)" stroke-dasharray="3" />
</g>
<g>
<path d="M231.14,-800.1000000000001 L207.92808272785948,-809.3847669088289" fill="none" stroke="black" marker-end="url(#d8)" stroke-dasharray="3" />
</g>
<g>
<path d="M220.97999999999996,-774.7000000000002 L197.7680827278671,-783.9847669088515" fill="none" stroke="black" marker-end="url(#d9)" stroke-dasharray="3" />
</g>
<g>
<path d="M210.82,-749.3000000000002 L186.29568927481574,-755.3037832762187" fill="none" stroke="black" marker-end="url(#d10)" stroke-dasharray="3" />
</g>
<g>
<path d="M208.27999999999997,-723.9000000000002 L183.15531094719748,-723.8999999999941" fill="none" stroke="black" marker-end="url(#d11)" stroke-dasharray="3" />
</g>
<g>
<path d="M210.82,-698.5000000000002 L186.06571946236164,-694.7959148483632" fill="none" stroke="black" marker-end="url(#d12)" stroke-dasharray="3" />
</g>
<g>
<path d="M215.89999999999998,-673.1000000000003 L191.38548310772757,-668.1970966215458" fill="none" stroke="black" marker-end="url(#d13)" stroke-dasharray="3" />
</g>
<g>
<path d="M220.97999999999996,-647.7000000000003 L197.12207053255872,-639.5141594973843" fill="none" stroke="black" marker-end="url(#d14)" stroke-dasharray="3" />
</g>
<g>
<path d="M233.67999999999998,-622.3000000000003 L211.31932022500274,-611.1196601125004" fill="none" stroke="black" marker-end="url(#d15)" stroke-dasharray="3" />
</g>
<g>
<path d="M246.37999999999997,-596.9000000000003 L224.01932022499642,-585.7196601125121" fill="none" stroke="black" marker-end="url(#d16)" stroke-dasharray="3" />
</g>
<g>
<path d="M259.08,-571.5000000000003 L236.71932022500354,-560.3196601124979" fill="none" stroke="black" marker-end="url(#d17)" stroke-dasharray="3" />
</g>
<g>
<path d="M271.78,-546.1000000000004 L248.95427869663018,-535.8497431692458" fill="none" stroke="black" marker-end="url(#d18)" stroke-dasharray="3" />
</g>
<g>
<path d="M281.94,-520.7000000000004 L258.728082727869,-511.415233091148" fill="none" stroke="black" marker-end="url(#d19)" stroke-dasharray="3" />
</g>
<g>
<path d="M292.09999999999997,-495.3000000000004 L268.0356288997452,-488.1463676614547" fill="none" stroke="black" marker-end="url(#d20)" stroke-dasharray="3" />
</g>
<g>
<path d="M297.17999999999995,-469.90000000000043 L272.17999999999773,-467.4245121601902" fill="none" stroke="black" marker-end="url(#d21)" stroke-dasharray="3" />
</g>
<g>
<path d="M297.17999999999995,-444.50000000000045 L272.18000000000035,-443.25310947197147" fill="none" stroke="black" marker-end="url(#d22)" stroke-dasharray="3" />
</g>
<g>
<path d="M299.72,-419.1000000000005 L274.7200000000003,-417.8531094719779" fill="none" stroke="black" marker-end="url(#d23)" stroke-dasharray="3" />
</g>
<g>
<path d="M299.72,-393.7000000000005 L274.7200000000005,-393.70000000001164" fill="none" stroke="black" marker-end="url(#d24)" stroke-dasharray="3" />
</g>
<g>
<path d="M299.72,-368.3000000000005 L274.7199999999999,-367.0531094719815" fill="none" stroke="black" marker-end="url(#d25)" stroke-dasharray="3" />
</g>
<g>
<path d="M302.26,-342.90000000000055 L277.3840702447495,-340.4124070244834" fill="none" stroke="black" marker-end="url(#d26)" stroke-dasharray="3" />
</g>
<g>
<path d="M304.79999999999995,-317.50000000000057 L279.7999999999993,-316.2531094719797" fill="none" stroke="black" marker-end="url(#d27)" stroke-dasharray="3" />
</g>
<g>
<path d="M304.79999999999995,-292.1000000000006 L279.8000000000002,-292.1000000000058" fill="none" stroke="black" marker-end="url(#d28)" stroke-dasharray="3" />
</g>
<g>
<path d="M304.79999999999995,-266.7000000000006 L279.7999999999996,-266.6999999999971" fill="none" stroke="black" marker-end="url(#d29)" stroke-dasharray="3" />
</g>
<g>
<path d="M304.79999999999995,-241.3000000000006 L279.79999999999984,-241.29999999998836" fill="none" stroke="black" marker-end="url(#d30)" stroke-dasharray="3" />
</g>
<g>
<path d="M304.79999999999995,-215.9000000000006 L279.8000000000002,-215.90000000000876" fill="none" stroke="black" marker-end="url(#d31)" stroke-dasharray="3" />
</g>
<g>
<path d="M304.79999999999995,-190.5000000000006 L279.79999999999984,-190.5" fill="none" stroke="black" marker-end="url(#d32)" stroke-dasharray="3" />
</g>
<g>
<path d="M304.79999999999995,-165.1000000000006 L279.8000000000001,-163.85310947197587" fill="none" stroke="black" marker-end="url(#d33)" stroke-dasharray="3" />
</g>
<g>
<path d="M307.34,-139.70000000000059 L282.3400000000001,-138.453109471975" fill="none" stroke="black" marker-end="url(#d34)" stroke-dasharray="3" />
</g>
<g>
<path d="M307.34,-114.30000000000058 L282.34,-113.05310947198006" fill="none" stroke="black" marker-end="url(#d35)" stroke-dasharray="3" />
</g>
<g>
<path d="M309.87999999999994,-88.90000000000057 L284.87999999999994,-87.65310947197918" fill="none" stroke="black" marker-end="url(#d36)" stroke-dasharray="3" />
</g>
<g>
<path d="M309.87999999999994,-63.500000000000576 L284.87999999999994,-63.5" fill="none" stroke="black" marker-end="url(#d37)" stroke-dasharray="3" />
</g>
<g>
<path d="M309.87999999999994,-38.10000000000058 L284.88,-38.100000000000364" fill="none" stroke="black" marker-end="url(#d38)" stroke-dasharray="3" />
</g>
<g>
<path d="M309.87999999999994,-12.700000000000578 L284.87999999999994,-12.700000000000728" fill="none" stroke="black" marker-end="url(#d39)" stroke-dasharray="3" />
</g>
<g>
<path d="M309.87999999999994,0 L284.87999999999994,-24.99999999999979" fill="none" stroke="black" marker-end="url(#d40)" stroke-dasharray="3" />
</g>
<g>
<path d="M0,0 L25.000000000000007,-25.0" fill="none" stroke="black" marker-end="url(#d41)" stroke-dasharray="3" />
</g>
<g>
<path d="M0,-1003.3 L25.000000000000004,-978.2999999999997" fill="none" stroke="black" marker-end="url(#d42)" stroke-dasharray="3" />
</g>
<g>
<path d="M264.15999999999997,-1003.3 L264.15999999999997,-978.3" fill="none" stroke="black" marker-end="url(#d43)" stroke-dasharray="3" />
</g>
<g>
<circle cx="264.15999999999997" cy="-1003.3" r="1" fill="black" />
</g>
<g>
<circle cx="264.15999999999997" cy="-977.9" r="1" fill="black" />
</g>
<g>
<circle cx="261.62" cy="-952.5" r="1" fill="black" />
</g>
<g>
<circle cx="261.62" cy="-927.1" r="1" fill="black" />
</g>
<g>
<circle cx="259.08" cy="-901.7" r="1" fill="black" />
</g>
<g>
<circle cx="256.53999999999996" cy="-876.3000000000001" r="1" fill="black" />
</g>
<g>
<circle cx="248.92000000000002" cy="-850.9000000000001" r="1" fill="black" />
</g>
<g>
<circle cx="241.29999999999998" cy="-825.5000000000001" r="1" fill="black" />
</g>
<g>
<circle cx="231.14" cy="-800.1000000000001" r="1" fill="black" />
</g>
<g>
<circle cx="220.97999999999996" cy="-774.7000000000002" r="1" fill="black" />
</g>
<g>
<circle cx="210.82" cy="-749.3000000000002" r="1" fill="black" />
</g>
<g>
<circle cx="208.27999999999997" cy="-723.9000000000002" r="1" fill="black" />
</g>
<g>
<circle cx="210.82" cy="-698.5000000000002" r="1" fill="black" />
</g>
<g>
<circle cx="215.89999999999998" cy="-673.1000000000003" r="1" fill="black" />
</g>
<g>
<circle cx="220.97999999999996" cy="-647.7000000000003" r="1" fill="black" />
</g>
<g>
<circle cx="233.67999999999998" cy="-622.3000000000003" r="1" fill="black" />
</g>
<g>
<circle cx="246.37999999999997" cy="-596.9000000000003" r="1" fill="black" />
</g>
<g>
<circle cx="259.08" cy="-571.5000000000003" r="1" fill="black" />
</g>
<g>
<circle cx="271.78" cy="-546.1000000000004" r="1" fill="black" />
</g>
<g>
<circle cx="281.94" cy="-520.7000000000004" r="1" fill="black" />
</g>
<g>
<circle cx="292.09999999999997" cy="-495.3000000000004" r="1" fill="black" />
</g>
<g>
<circle cx="297.17999999999995" cy="-469.90000000000043" r="1" fill="black" />
</g>
<g>
<circle cx="297.17999999999995" cy="-444.50000000000045" r="1" fill="black" />
</g>
<g>
<circle cx="299.72" cy="-419.1000000000005" r="1" fill="black" />
</g>
<g>
<circle cx="299.72" cy="-393.7000000000005" r="1" fill="black" />
</g>
<g>
<circle cx="299.72" cy="-368.3000000000005" r="1" fill="black" />
</g>
<g>
<circle cx="302.26" cy="-342.90000000000055" r="1" fill="black" />
</g>
<g>
<circle cx="304.79999999999995" cy="-317.50000000000057" r="1" fill="black" />
</g>
<g>
<circle cx="304.79999999999995" cy="-292.1000000000006" r="1" fill="black" />
</g>
<g>
<circle cx="304.79999999999995" cy="-266.7000000000006" r="1" fill="black" />
</g>
<g>
<circle cx="304.79999999999995" cy="-241.3000000000006" r="1" fill="black" />
</g>
<g>
<circle cx="304.79999999999995" cy="-215.9000000000006" r="1" fill="black" />
</g>
<g>
<circle cx="304.79999999999995" cy="-190.5000000000006" r="1" fill="black" />
</g>
<g>
<circle cx="304.79999999999995" cy="-165.1000000000006" r="1" fill="black" />
</g>
<g>
<circle cx="307.34" cy="-139.70000000000059" r="1" fill="black" />
</g>
<g>
<circle cx="307.34" cy="-114.30000000000058" r="1" fill="black" />
</g>
<g>
<circle cx="309.87999999999994" cy="-88.90000000000057" r="1" fill="black" />
</g>
<g>
<circle cx="309.87999999999994" cy="-63.500000000000576" r="1" fill="black" />
</g>
<g>
<circle cx="309.87999999999994" cy="-38.10000000000058" r="1" fill="black" />
</g>
<g>
<circle cx="309.87999999999994" cy="-12.700000000000578" r="1" fill="black" />
</g>
<g>
<circle cx="309.87999999999994" cy="0" r="1" fill="black" />
</g>
<g>
<circle cx="0" cy="0" r="1" fill="black" />
</g>
<g>
<circle cx="0" cy="-1003.3" r="1" fill="black" />
</g>
<g>
<circle cx="264.15999999999997" cy="-1003.3" r="1" fill="black" />
</g>
<g>
<g>
<path d="M-50,50 L359.87999999999994,50" fill="none" stroke="#999999" />
</g>
<path d="M-50.0,50.0 L-50.0,53.0" stroke="#999999" />
<text font-size="12" stroke="none" fill="#999999"><textPath xlink:href="#d44">
<tspan dy="0em">0mm</tspan>
</textPath></text>
<path d="M-30.0,50.0 L-30.0,53.0" stroke="#999999" />
<text font-size="12" stroke="none" fill="#999999"><textPath xlink:href="#d45">
<tspan dy="0em">20mm</tspan>
</textPath></text>
<path d="M-10.0,50.0 L-10.0,53.0" stroke="#999999" />
<text font-size="12" stroke="none" fill="#999999"><textPath xlink:href="#d46">
<tspan dy="0em">40mm</tspan>
</textPath></text>
<path d="M10.0,50.0 L10.0,53.0" stroke="#999999" />
<text font-size="12" stroke="none" fill="#999999"><textPath xlink:href="#d47">
<tspan dy="0em">60mm</tspan>
</textPath></text>
<path d="M30.0,50.0 L30.0,53.0" stroke="#999999" />
<text font-size="12" stroke="none" fill="#999999"><textPath xlink:href="#d48">
<tspan dy="0em">80mm</tspan>
</textPath></text>
<path d="M50.00000000000001,50.0 L50.00000000000001,53.0" stroke="#999999" />
<text font-size="12" stroke="none" fill="#999999"><textPath xlink:href="#d49">
<tspan dy="0em">100mm</tspan>
</textPath></text>
<path d="M70.0,49.99999999999999 L70.0,52.99999999999999" stroke="#999999" />
<text font-size="12" stroke="none" fill="#999999"><textPath xlink:href="#d50">
<tspan dy="0em">120mm</tspan>
</textPath></text>
<path d="M90.0,50.0 L90.0,53.0" stroke="#999999" />
<text font-size="12" stroke="none" fill="#999999"><textPath xlink:href="#d51">
<tspan dy="0em">140mm</tspan>
</textPath></text>
<path d="M110.0,50.0 L110.0,53.0" stroke="#999999" />
<text font-size="12" stroke="none" fill="#999999"><textPath xlink:href="#d52">
<tspan dy="0em">160mm</tspan>
</textPath></text>
<path d="M130.0,50.0 L130.0,53.0" stroke="#999999" />
<text font-size="12" stroke="none" fill="#999999"><textPath xlink:href="#d53">
<tspan dy="0em">180mm</tspan>
</textPath></text>
<path d="M150.0,50.0 L150.0,53.0" stroke="#999999" />
<text font-size="12" stroke="none" fill="#999999"><textPath xlink:href="#d54">
<tspan dy="0em">200mm</tspan>
</textPath></text>
<path d="M170.0,50.0 L170.0,53.0" stroke="#999999" />
<text font-size="12" stroke="none" fill="#999999"><textPath xlink:href="#d55">
<tspan dy="0em">220mm</tspan>
</textPath></text>
<path d="M190.0,50.0 L190.0,53.0" stroke="#999999" />
<text font-size="12" stroke="none" fill="#999999"><textPath xlink:href="#d56">
<tspan dy="0em">240mm</tspan>
</textPath></text>
<path d="M210.0,50.0 L210.0,53.0" stroke="#999999" />
<text font-size="12" stroke="none" fill="#999999"><textPath xlink:href="#d57">
<tspan dy="0em">260mm</tspan>
</textPath></text>
<path d="M230.0,50.0 L230.0,53.0" stroke="#999999" />
<text font-size="12" stroke="none" fill="#999999"><textPath xlink:href="#d58">
<tspan dy="0em">280mm</tspan>
</textPath></text>
<path d="M250.00000000000003,50.0 L250.00000000000003,53.0" stroke="#999999" />
<text font-size="12" stroke="none" fill="#999999"><textPath xlink:href="#d59">
<tspan dy="0em">300mm</tspan>
</textPath></text>
<path d="M270.0,50.0 L270.0,53.0" stroke="#999999" />
<text font-size="12" stroke="none" fill="#999999"><textPath xlink:href="#d60">
<tspan dy="0em">320mm</tspan>
</textPath></text>
<path d="M289.99999999999994,50.0 L289.99999999999994,53.0" stroke="#999999" />
<text font-size="12" stroke="none" fill="#999999"><textPath xlink:href="#d61">
<tspan dy="0em">340mm</tspan>
</textPath></text>
<path d="M310.0,50.0 L310.0,53.0" stroke="#999999" />
<text font-size="12" stroke="none" fill="#999999"><textPath xlink:href="#d62">
<tspan dy="0em">360mm</tspan>
</textPath></text>
<path d="M330.0,50.0 L330.0,53.0" stroke="#999999" />
<text font-size="12" stroke="none" fill="#999999"><textPath xlink:href="#d63">
<tspan dy="0em">380mm</tspan>
</textPath></text>
<path d="M350.00000000000006,50.0 L350.00000000000006,53.0" stroke="#999999" />
<text font-size="12" stroke="none" fill="#999999"><textPath xlink:href="#d64">
<tspan dy="0em">400mm</tspan>
</textPath></text>
</g>
<g>
<g>
<path d="M359.87999999999994,50 L359.87999999999994,-1053.3" fill="none" stroke="#999999" />
</g>
<path d="M359.87999999999994,50.0 L362.87999999999994,50.0" stroke="#999999" />
<text font-size="12" stroke="none" fill="#999999"><textPath xlink:href="#d65">
<tspan dy="0em">0mm</tspan>
</textPath></text>
<path d="M359.87999999999994,30.0 L362.87999999999994,30.0" stroke="#999999" />
<text font-size="12" stroke="none" fill="#999999"><textPath xlink:href="#d66">
<tspan dy="0em">20mm</tspan>
</textPath></text>
<path d="M359.87999999999994,10.000000000000007 L362.87999999999994,10.000000000000007" stroke="#999999" />
<text font-size="12" stroke="none" fill="#999999"><textPath xlink:href="#d67">
<tspan dy="0em">40mm</tspan>
</textPath></text>
<path d="M359.87999999999994,-10.0 L362.87999999999994,-10.0" stroke="#999999" />
<text font-size="12" stroke="none" fill="#999999"><textPath xlink:href="#d68">
<tspan dy="0em">60mm</tspan>
</textPath></text>
<path d="M359.87999999999994,-30.0 L362.87999999999994,-30.0" stroke="#999999" />
<text font-size="12" stroke="none" fill="#999999"><textPath xlink:href="#d69">
<tspan dy="0em">80mm</tspan>
</textPath></text>
<path d="M359.87999999999994,-50.00000000000001 L362.87999999999994,-50.00000000000001" stroke="#999999" />
<text font-size="12" stroke="none" fill="#999999"><textPath xlink:href="#d70">
<tspan dy="0em">100mm</tspan>
</textPath></text>
<path d="M359.87999999999994,-70.0 L362.87999999999994,-70.0" stroke="#999999" />
<text font-size="12" stroke="none" fill="#999999"><textPath xlink:href="#d71">
<tspan dy="0em">120mm</tspan>
</textPath></text>
<path d="M359.8799999999999,-90.0 L362.8799999999999,-90.0" stroke="#999999" />
<text font-size="12" stroke="none" fill="#999999"><textPath xlink:href="#d72">
<tspan dy="0em">140mm</tspan>
</textPath></text>
<path d="M359.87999999999994,-110.0 L362.87999999999994,-110.0" stroke="#999999" />
<text font-size="12" stroke="none" fill="#999999"><textPath xlink:href="#d73">
<tspan dy="0em">160mm</tspan>
</textPath></text>
<path d="M359.87999999999994,-130.0 L362.87999999999994,-130.0" stroke="#999999" />
<text font-size="12" stroke="none" fill="#999999"><textPath xlink:href="#d74">
<tspan dy="0em">180mm</tspan>
</textPath></text>
<path d="M359.87999999999994,-150.00000000000003 L362.87999999999994,-150.00000000000003" stroke="#999999" />
<text font-size="12" stroke="none" fill="#999999"><textPath xlink:href="#d75">
<tspan dy="0em">200mm</tspan>
</textPath></text>
<path d="M359.88,-170.0 L362.88,-170.0" stroke="#999999" />
<text font-size="12" stroke="none" fill="#999999"><textPath xlink:href="#d76">
<tspan dy="0em">220mm</tspan>
</textPath></text>
<path d="M359.87999999999994,-190.0 L362.87999999999994,-190.0" stroke="#999999" />
<text font-size="12" stroke="none" fill="#999999"><textPath xlink:href="#d77">
<tspan dy="0em">240mm</tspan>
</textPath></text>
<path d="M359.87999999999994,-210.0 L362.87999999999994,-210.0" stroke="#999999" />
<text font-size="12" stroke="none" fill="#999999"><textPath xlink:href="#d78">
<tspan dy="0em">260mm</tspan>
</textPath></text>
<path d="M359.87999999999994,-230.0 L362.87999999999994,-230.0" stroke="#999999" />
<text font-size="12" stroke="none" fill="#999999"><textPath xlink:href="#d79">
<tspan dy="0em">280mm</tspan>
</textPath></text>
<path d="M359.8799999999999,-250.00000000000003 L362.8799999999999,-250.00000000000003" stroke="#999999" />
<text font-size="12" stroke="none" fill="#999999"><textPath xlink:href="#d80">
<tspan dy="0em">300mm</tspan>
</textPath></text>
<path d="M359.87999999999994,-270.0 L362.87999999999994,-270.0" stroke="#999999" />
<text font-size="12" stroke="none" fill="#999999"><textPath xlink:href="#d81">
<tspan dy="0em">320mm</tspan>
</textPath></text>
<path d="M359.87999999999994,-290.0 L362.87999999999994,-290.0" stroke="#999999" />
<text font-size="12" stroke="none" fill="#999999"><textPath xlink:href="#d82">
<tspan dy="0em">340mm</tspan>
</textPath></text>
<path d="M359.87999999999994,-310.0 L362.87999999999994,-310.0" stroke="#999999" />
<text font-size="12" stroke="none" fill="#999999"><textPath xlink:href="#d83">
<tspan dy="0em">360mm</tspan>
</textPath></text>
<path d="M359.87999999999994,-329.99999999999994 L362.87999999999994,-329.99999999999994" stroke="#999999" />
<text font-size="12" stroke="none" fill="#999999"><textPath xlink:href="#d84">
<tspan dy="0em">380mm</tspan>
</textPath></text>
<path d="M359.87999999999994,-350.00000000000006 L362.87999999999994,-350.00000000000006" stroke="#999999" />
<text font-size="12" stroke="none" fill="#999999"><textPath xlink:href="#d85">
<tspan dy="0em">400mm</tspan>
</textPath></text>
<path d="M359.87999999999994,-370.0 L362.87999999999994,-370.0" stroke="#999999" />
<text font-size="12" stroke="none" fill="#999999"><textPath xlink:href="#d86">
<tspan dy="0em">420mm</tspan>
</textPath></text>
<path d="M359.87999999999994,-390.0 L362.87999999999994,-390.0" stroke="#999999" />
<text font-size="12" stroke="none" fill="#999999"><textPath xlink:href="#d87">
<tspan dy="0em">440mm</tspan>
</textPath></text>
<path d="M359.87999999999994,-410.0 L362.87999999999994,-410.0" stroke="#999999" />
<text font-size="12" stroke="none" fill="#999999"><textPath xlink:href="#d88">
<tspan dy="0em">460mm</tspan>
</textPath></text>
<path d="M359.88,-430.0 L362.88,-430.0" stroke="#999999" />
<text font-size="12" stroke="none" fill="#999999"><textPath xlink:href="#d89">
<tspan dy="0em">480mm</tspan>
</textPath></text>
<path d="M359.88,-450.0 L362.88,-450.0" stroke="#999999" />
<text font-size="12" stroke="none" fill="#999999"><textPath xlink:href="#d90">
<tspan dy="0em">500mm</tspan>
</textPath></text>
<path d="M359.87999999999994,-470.0 L362.87999999999994,-470.0" stroke="#999999" />
<text font-size="12" stroke="none" fill="#999999"><textPath xlink:href="#d91">
<tspan dy="0em">520mm</tspan>
</textPath></text>
<path d="M359.8799999999999,-490.0 L362.8799999999999,-490.0" stroke="#999999" />
<text font-size="12" stroke="none" fill="#999999"><textPath xlink:href="#d92">
<tspan dy="0em">540mm</tspan>
</textPath></text>
<path d="M359.87999999999994,-510.0 L362.87999999999994,-510.0" stroke="#999999" />
<text font-size="12" stroke="none" fill="#999999"><textPath xlink:href="#d93">
<tspan dy="0em">560mm</tspan>
</textPath></text>
<path d="M359.87999999999994,-530.0 L362.87999999999994,-530.0" stroke="#999999" />
<text font-size="12" stroke="none" fill="#999999"><textPath xlink:href="#d94">
<tspan dy="0em">580mm</tspan>
</textPath></text>
<path d="M359.87999999999994,-550.0 L362.87999999999994,-550.0" stroke="#999999" />
<text font-size="12" stroke="none" fill="#999999"><textPath xlink:href="#d95">
<tspan dy="0em">600mm</tspan>
</textPath></text>
<path d="M359.87999999999994,-569.9999999999999 L362.87999999999994,-569.9999999999999" stroke="#999999" />
<text font-size="12" stroke="none" fill="#999999"><textPath xlink:href="#d96">
<tspan dy="0em">620mm</tspan>
</textPath></text>
<path d="M359.87999999999994,-590.0 L362.87999999999994,-590.0" stroke="#999999" />
<text font-size="12" stroke="none" fill="#999999"><textPath xlink:href="#d97">
<tspan dy="0em">640mm</tspan>
</textPath></text>
<path d="M359.87999999999994,-610.0000000000001 L362.87999999999994,-610.0000000000001" stroke="#999999" />
<text font-size="12" stroke="none" fill="#999999"><textPath xlink:href="#d98">
<tspan dy="0em">660mm</tspan>
</textPath></text>
<path d="M359.87999999999994,-630.0 L362.87999999999994,-630.0" stroke="#999999" />
<text font-size="12" stroke="none" fill="#999999"><textPath xlink:href="#d99">
<tspan dy="0em">680mm</tspan>
</textPath></text>
<path d="M359.87999999999994,-650.0 L362.87999999999994,-650.0" stroke="#999999" />
<text font-size="12" stroke="none" fill="#999999"><textPath xlink:href="#d100">
<tspan dy="0em">700mm</tspan>
</textPath></text>
<path d="M359.87999999999994,-670.0 L362.87999999999994,-670.0" stroke="#999999" />
<text font-size="12" stroke="none" fill="#999999"><textPath xlink:href="#d101">
<tspan dy="0em">720mm</tspan>
</textPath></text>
<path d="M359.87999999999994,-690.0 L362.87999999999994,-690.0" stroke="#999999" />
<text font-size="12" stroke="none" fill="#999999"><textPath xlink:href="#d102">
<tspan dy="0em">740mm</tspan>
</textPath></text>
<path d="M359.87999999999994,-709.9999999999999 L362.87999999999994,-709.9999999999999" stroke="#999999" />
<text font-size="12" stroke="none" fill="#999999"><textPath xlink:href="#d103">
<tspan dy="0em">760mm</tspan>
</textPath></text>
<path d="M359.87999999999994,-730.0 L362.87999999999994,-730.0" stroke="#999999" />
<text font-size="12" stroke="none" fill="#999999"><textPath xlink:href="#d104">
<tspan dy="0em">780mm</tspan>
</textPath></text>
<path d="M359.87999999999994,-750.0000000000001 L362.87999999999994,-750.0000000000001" stroke="#999999" />
<text font-size="12" stroke="none" fill="#999999"><textPath xlink:href="#d105">
<tspan dy="0em">800mm</tspan>
</textPath></text>
<path d="M359.87999999999994,-769.9999999999999 L362.87999999999994,-769.9999999999999" stroke="#999999" />
<text font-size="12" stroke="none" fill="#999999"><textPath xlink:href="#d106">
<tspan dy="0em">820mm</tspan>
</textPath></text>
<path d="M359.88,-790.0 L362.88,-790.0" stroke="#999999" />
<text font-size="12" stroke="none" fill="#999999"><textPath xlink:href="#d107">
<tspan dy="0em">840mm</tspan>
</textPath></text>
<path d="M359.87999999999994,-810.0 L362.87999999999994,-810.0" stroke="#999999" />
<text font-size="12" stroke="none" fill="#999999"><textPath xlink:href="#d108">
<tspan dy="0em">860mm</tspan>
</textPath></text>
<path d="M359.87999999999994,-830.0 L362.87999999999994,-830.0" stroke="#999999" />
<text font-size="12" stroke="none" fill="#999999"><textPath xlink:href="#d109">
<tspan dy="0em">880mm</tspan>
</textPath></text>
<path d="M359.87999999999994,-849.9999999999999 L362.87999999999994,-849.9999999999999" stroke="#999999" />
<text font-size="12" stroke="none" fill="#999999"><textPath xlink:href="#d110">
<tspan dy="0em">900mm</tspan>
</textPath></text>
<path d="M359.87999999999994,-870.0 L362.87999999999994,-870.0" stroke="#999999" />
<text font-size="12" stroke="none" fill="#999999"><textPath xlink:href="#d111">
<tspan dy="0em">920mm</tspan>
</textPath></text>
<path d="M359.87999999999994,-890.0000000000001 L362.87999999999994,-890.0000000000001" stroke="#999999" />
<text font-size="12" stroke="none" fill="#999999"><textPath xlink:href="#d112">
<tspan dy="0em">940mm</tspan>
</textPath></text>
<path d="M359.87999999999994,-910.0 L362.87999999999994,-910.0" stroke="#999999" />
<text font-size="12" stroke="none" fill="#999999"><textPath xlink:href="#d113">
<tspan dy="0em">960mm</tspan>
</textPath></text>
<path d="M359.87999999999994,-930.0 L362.87999999999994,-930.0" stroke="#999999" />
<text font-size="12" stroke="none" fill="#999999"><textPath xlink:href="#d114">
<tspan dy="0em">980mm</tspan>
</textPath></text>
<path d="M359.87999999999994,-950.0 L362.87999999999994,-950.0" stroke="#999999" />
<text font-size="12" stroke="none" fill="#999999"><textPath xlink:href="#d115">
<tspan dy="0em">1000mm</tspan>
</textPath></text>
<path d="M359.87999999999994,-970.0 L362.87999999999994,-970.0" stroke="#999999" />
<text font-size="12" stroke="none" fill="#999999"><textPath xlink:href="#d116">
<tspan dy="0em">1020mm</tspan>
</textPath></text>
<path d="M359.87999999999994,-990.0 L362.87999999999994,-990.0" stroke="#999999" />
<text font-size="12" stroke="none" fill="#999999"><textPath xlink:href="#d117">
<tspan dy="0em">1040mm</tspan>
</textPath></text>
<path d="M359.87999999999994,-1010.0 L362.87999999999994,-1010.0" stroke="#999999" />
<text font-size="12" stroke="none" fill="#999999"><textPath xlink:href="#d118">
<tspan dy="0em">1060mm</tspan>
</textPath></text>
<path d="M359.87999999999994,-1030.0 L362.87999999999994,-1030.0" stroke="#999999" />
<text font-size="12" stroke="none" fill="#999999"><textPath xlink:href="#d119">
<tspan dy="0em">1080mm</tspan>
</textPath></text>
<path d="M359.87999999999994,-1050.0 L362.87999999999994,-1050.0" stroke="#999999" />
<text font-size="12" stroke="none" fill="#999999"><textPath xlink:href="#d120">
<tspan dy="0em">1100mm</tspan>
</textPath></text>
</g>
</svg>
