<?xml version="1.0" encoding="UTF-8"?>
<svg xmlns="http://www.w3.org/2000/svg" xmlns:xlink="http://www.w3.org/1999/xlink"
     width="250.0" height="300.0" viewBox="-100.0 -200.0 250.0 300.0" stroke="black" fill="none">
<defs>
</defs>
<g>
<g>
<path d="M0.0,-0.0 L0.061623983204277116,-2.9996005065916407 L0.24309598891618284,-5.879352990675653 L0.5393161012843289,-8.644357368103426 L0.9451844044573263,-11.299713554726347 L1.4556009825837877,-13.850521466395806 L2.0654659198123233,-16.301881018963183 L2.7696793002915454,-18.658892128279884 L3.5631412081700646,-20.926654710197283 L4.440751727596495,-23.110268680566772 L5.397410942719445,-25.214833955239737 L6.428018937687528,-27.245450450067572 L7.527475796649354,-29.20721808090166 L8.690681603753537,-31.1052367635934 L9.912536443148687,-32.94460641399417 L11.187940398983416,-34.73042694795536 L12.511793555406335,-36.46779828132836 L13.878995996566058,-38.161820329964556 L15.284447806611194,-39.817593009715345 L16.72304906969035,-41.4402162364321 L18.189699869952147,-43.03478992596622 L19.67930029154519,-44.60641399416909 L21.18675041861809,-46.16018835689211 L22.706950335319465,-47.701212929986646 L24.234800125797925,-49.234587629304116 L25.765199874202075,-50.765412370695884 L27.29304966468053,-52.29878707001335 L28.813249581381903,-53.839811643107886 L30.32069970845481,-55.393586005830905 L31.810300130047853,-56.96521007403378 L33.27695093030965,-58.55978376356791 L34.71555219338881,-60.18240699028466 L36.12100400343394,-61.838179670035444 L37.488206444593665,-63.532201718671644 L38.812059601016585,-65.26957305204465 L40.08746355685131,-67.05539358600583 L41.30931839624647,-68.8947632364066 L42.472524203350645,-70.79278191909833 L43.57198106231247,-72.75454954993242 L44.602589057280554,-74.78516604476026 L45.55924827240351,-76.88973131943324 L46.436858791829934,-79.07334528980272 L47.23032069970846,-81.34110787172011 L47.934534080187674,-83.6981189810368 L48.54439901741622,-86.1494785336042 L49.05481559554267,-88.70028644527365 L49.46068389871567,-91.35564263189659 L49.75690401108382,-94.12064700932434 L49.93837601679572,-97.00039949340835 L50.0,-100.0" fill="none" stroke="black" />
</g>
<g>
<circle cx="0.0" cy="-0.0" r="1" fill="black" />
</g>
<g>
<circle cx="1.7146776406035662" cy="-14.951989026063096" r="1" fill="black" />
</g>
<g>
<circle cx="6.310013717421124" cy="-27.02331961591221" r="1" fill="black" />
</g>
<g>
<circle cx="12.962962962962962" cy="-37.037037037037045" r="1" fill="black" />
</g>
<g>
<circle cx="20.85048010973937" cy="-45.8161865569273" r="1" fill="black" />
</g>
<g>
<circle cx="29.14951989026063" cy="-54.18381344307271" r="1" fill="black" />
</g>
<g>
<circle cx="37.03703703703703" cy="-62.96296296296296" r="1" fill="black" />
</g>
<g>
<circle cx="43.68998628257887" cy="-72.97668038408779" r="1" fill="black" />
</g>
<g>
<circle cx="48.28532235939643" cy="-85.0480109739369" r="1" fill="black" />
</g>
<g>
<circle cx="50.0" cy="-100.0" r="1" fill="black" />
</g>
<g>
<path d="M0,-50 L0,0" fill="none" stroke="black" stroke-dasharray="3" />
</g>
<g>
<path d="M50,-50 L50,-100" fill="none" stroke="black" stroke-dasharray="3" />
</g>
<g>
<circle cx="0" cy="0" r="1" fill="black" />
<text x="2" y="-2" font-size="12" fill="#000000" stroke="none" dy="0em">p0</text>
</g>
<g>
<circle cx="0" cy="-50" r="1" fill="black" />
<text x="2" y="-52" font-size="12" fill="#000000" stroke="none" dy="0em">p1</text>
</g>
<g>
<circle cx="50" cy="-50" r="1" fill="black" />
<text x="52" y="-52" font-size="12" fill="#000000" stroke="none" dy="0em">p2</text>
</g>
<g>
<circle cx="50" cy="-100" r="1" fill="black" />
<text x="52" y="-102" font-size="12" fill="#000000" stroke="none" dy="0em">p3</text>
</g>
</g>
</svg>