<?xml version="1.0" encoding="UTF-8"?>
<svg xmlns="http://www.w3.org/2000/svg" xmlns:xlink="http://www.w3.org/1999/xlink"
     width="445.59859796865027" height="930.0" viewBox="15.387333741624118 -100.0 445.59859796865027 930.0" stroke="black" fill="none">
<defs>
</defs>
<g>
<path d="M115.38733374162412,0 L143.2394487827058,265 L190.9859317102744,645" fill="none" stroke="black" />
</g>
<g>
<path d="M190.98593171027437,645.0 L191.15365979387127,650.3371941599917 L191.65618209854375,655.6533248529659 L192.49151539833582,660.9274117397866 L193.65636301434074,666.1386404090127 L195.14612782518634,671.2664445218705 L196.954930409773,676.2905869781977 L199.07563225066275,681.1912397830313 L201.499863906546,685.9490622986459 L204.21805804260313,690.5452775732148 L207.2194871884039,694.9617464448603 L210.49230607433236,699.1810391286386 L214.02359837945446,703.1865040039386 L217.7994277063359,706.96233333082 L221.80489258163584,710.4936256359422 L226.02418526541425,713.7664445218707 L230.44065413705977,716.7678736676713 L235.0368694116287,719.4860678037285 L239.79469192724332,721.9102994596117 L244.69534473207688,724.0310013005014 L249.719487188404,725.8398038850881 L254.84729130126186,727.3295686959336 L260.05851997048796,728.4944163119386 L265.3326068573087,729.3297496117307 L270.64873755028293,729.8322719164031 L275.98593171027454,730.0 L281.3231258702662,729.8322719164031 L286.63925656324045,729.3297496117306 L291.9133434500612,728.4944163119385 L297.1245721192872,727.3295686959336 L302.25237623214514,725.839803885088 L307.2765186884722,724.0310013005013 L312.17717149330576,721.9102994596116 L316.9349940089204,719.4860678037282 L321.5312092834893,716.7678736676711 L325.9476781551348,713.7664445218704 L330.1669708389132,710.493625635942 L334.1724357142131,706.9623333308198 L337.94826504109454,703.1865040039384 L341.47955734621667,699.1810391286384 L344.7523762321451,694.96174644486 L347.7538053779458,690.5452775732144 L350.47199951400296,685.9490622986456 L352.89623116988616,681.1912397830308 L355.01693301077586,676.2905869781973 L356.8257355953625,671.2664445218702 L358.3155004062081,666.1386404090123 L359.480348022213,660.9274117397863 L360.31568132200505,655.6533248529655 L360.8182036266775,650.3371941599912 L360.9859317102744,644.9999999999997 L360.8182036266775,639.662805840008 L360.31568132200493,634.3466751470337 L359.48034802221287,629.072588260213 L358.3155004062079,623.8613595909869 L356.8257355953623,618.7335554781291 L355.0169330107756,613.709413021802 L352.8962311698859,608.8087602169684 L350.47199951400256,604.0509377013539 L347.7538053779454,599.4547224267849 L344.7523762321446,595.0382535551394 L341.47955734621615,590.818960871361 L337.94826504109403,586.8134959960611 L334.17243571421255,583.0376666691797 L330.1669708389126,579.5063743640576 L325.9476781551342,576.2335554781292 L321.5312092834887,573.2321263323284 L316.9349940089197,570.5139321962713 L312.1771714933051,568.0897005403881 L307.2765186884716,565.9689986994985 L302.2523762321444,564.1601961149117 L297.1245721192865,562.6704313040661 L291.91334345006044,561.5055836880614 L286.6392565632397,560.6702503882693 L281.32312587026547,560.1677280835969 L275.98593171027375,560.0 L270.6487375502822,560.1677280835969 L265.33260685730795,560.6702503882694 L260.0585199704872,561.5055836880616 L254.8472913012611,562.6704313040665 L249.71948718840326,564.1601961149121 L244.69534473207622,565.9689986994988 L239.79469192724264,568.0897005403885 L235.036869411628,570.5139321962719 L230.44065413705914,573.232126332329 L226.02418526541368,576.2335554781298 L221.80489258163524,579.5063743640583 L217.79942770633534,583.0376666691805 L214.02359837945394,586.8134959960619 L210.4923060743319,590.8189608713618 L207.21948718840343,595.0382535551403 L204.2180580426027,599.4547224267859 L201.49986390654564,604.0509377013548 L199.07563225066244,608.8087602169694 L196.95493040977274,613.709413021803 L195.14612782518608,618.7335554781301 L193.65636301434057,623.8613595909881 L192.4915153983357,629.072588260214 L191.65618209854367,634.3466751470348 L191.1536597938712,639.6628058400091" fill="none" stroke="black" />
</g>
</svg>
