<?xml version="1.0" encoding="UTF-8"?>
<svg xmlns="http://www.w3.org/2000/svg" xmlns:xlink="http://www.w3.org/1999/xlink"
     width="503.75" height="1240.0" viewBox="-257.0833333333333 -100.0 503.75 1240.0" stroke="black" fill="none">
<defs>
</defs>
<path d="M-257.0833333333333,1140.0 L246.66666666666669,1140.0" stroke="#dddddd" />
<path d="M-257.0833333333333,1090.0 L246.66666666666669,1090.0" stroke="#dddddd" stroke-dasharray="5" />
<path d="M-257.0833333333333,1040.0 L246.66666666666669,1040.0" stroke="#dddddd" stroke-dasharray="5" />
<path d="M-257.0833333333333,990.0 L246.66666666666669,990.0" stroke="#dddddd" stroke-dasharray="5" />
<path d="M-257.0833333333333,940.0 L246.66666666666669,940.0" stroke="#dddddd" stroke-dasharray="5" />
<path d="M-257.0833333333333,890.0 L246.66666666666669,890.0" stroke="#dddddd" />
<path d="M-257.0833333333333,840.0 L246.66666666666669,840.0" stroke="#dddddd" stroke-dasharray="5" />
<path d="M-257.0833333333333,790.0 L246.66666666666669,790.0" stroke="#dddddd" stroke-dasharray="5" />
<path d="M-257.0833333333333,740.0 L246.66666666666669,740.0" stroke="#dddddd" stroke-dasharray="5" />
<path d="M-257.0833333333333,690.0 L246.66666666666669,690.0" stroke="#dddddd" stroke-dasharray="5" />
<path d="M-257.0833333333333,640.0 L246.66666666666669,640.0" stroke="#dddddd" />
<path d="M-257.0833333333333,590.0 L246.66666666666669,590.0" stroke="#dddddd" stroke-dasharray="5" />
<path d="M-257.0833333333333,540.0 L246.66666666666669,540.0" stroke="#dddddd" stroke-dasharray="5" />
<path d="M-257.0833333333333,490.0 L246.66666666666669,490.0" stroke="#dddddd" stroke-dasharray="5" />
<path d="M-257.0833333333333,440.0 L246.66666666666669,440.0" stroke="#dddddd" stroke-dasharray="5" />
<path d="M-257.0833333333333,390.0 L246.66666666666669,390.0" stroke="#dddddd" />
<path d="M-257.0833333333333,340.0 L246.66666666666669,340.0" stroke="#dddddd" stroke-dasharray="5" />
<path d="M-257.0833333333333,290.0 L246.66666666666669,290.0" stroke="#dddddd" stroke-dasharray="5" />
<path d="M-257.0833333333333,240.0 L246.66666666666669,240.0" stroke="#dddddd" stroke-dasharray="5" />
<path d="M-257.0833333333333,190.0 L246.66666666666669,190.0" stroke="#dddddd" stroke-dasharray="5" />
<path d="M-257.0833333333333,140.0 L246.66666666666669,140.0" stroke="#dddddd" />
<path d="M-257.0833333333333,90.0 L246.66666666666669,90.0" stroke="#dddddd" stroke-dasharray="5" />
<path d="M-257.0833333333333,40.0 L246.66666666666669,40.0" stroke="#dddddd" stroke-dasharray="5" />
<path d="M-257.0833333333333,-10.0 L246.66666666666669,-10.0" stroke="#dddddd" stroke-dasharray="5" />
<path d="M-257.0833333333333,-60.0 L246.66666666666669,-60.0" stroke="#dddddd" stroke-dasharray="5" />
<path d="M-257.0833333333333,1140.0 L-257.0833333333333,-100" stroke="#dddddd" />
<path d="M-207.08333333333331,1140.0 L-207.08333333333331,-100" stroke="#dddddd" stroke-dasharray="5" />
<path d="M-157.08333333333331,1140.0 L-157.08333333333331,-100" stroke="#dddddd" stroke-dasharray="5" />
<path d="M-107.08333333333331,1140.0 L-107.08333333333331,-100" stroke="#dddddd" stroke-dasharray="5" />
<path d="M-57.083333333333314,1140.0 L-57.083333333333314,-100" stroke="#dddddd" stroke-dasharray="5" />
<path d="M-7.083333333333314,1140.0 L-7.083333333333314,-100" stroke="#dddddd" />
<path d="M42.916666666666686,1140.0 L42.916666666666686,-100" stroke="#dddddd" stroke-dasharray="5" />
<path d="M92.91666666666669,1140.0 L92.91666666666669,-100" stroke="#dddddd" stroke-dasharray="5" />
<path d="M142.91666666666669,1140.0 L142.91666666666669,-100" stroke="#dddddd" stroke-dasharray="5" />
<path d="M192.91666666666669,1140.0 L192.91666666666669,-100" stroke="#dddddd" stroke-dasharray="5" />
<path d="M242.91666666666669,1140.0 L242.91666666666669,-100" stroke="#dddddd" />
<g>
<g>
<path d="M-157.08333333333331,280.0 L-106.3,610.0 L-105.0,1040.0 L105.0,1040.0 L106.3,610.0 L146.66666666666669,206.0 L109.16666666666667,0 L10.000000000000156,-0.0 L0.0,100.0 L-9.99999999999985,-0.0 L-83.33333333333333,0 L-93.33333333333333,206.0 L-157.08333333333331,280.0" fill="#E6E6FA66" stroke="black" />
<text x="1.8220092984067473" y="488.67911567540307" font-size="12" stroke="none" fill="black" text-anchor="middle" dy="0em">Classic Tailored Trouser Block - Front</text>
</g>
<g>
<circle cx="0" cy="0" r="1" fill="black" />
<text x="2" y="-2" font-size="12" fill="#000000" stroke="none" dy="0em">0</text>
</g>
<g>
<circle cx="0" cy="280.0" r="1" fill="black" />
<text x="2" y="278.0" font-size="12" fill="#000000" stroke="none" dy="0em">1</text>
</g>
<g>
<circle cx="0" cy="206.0" r="1" fill="black" />
<text x="2" y="204.0" font-size="12" fill="#000000" stroke="none" dy="0em">2</text>
</g>
<g>
<circle cx="0" cy="1040.0" r="1" fill="black" />
<text x="2" y="1038.0" font-size="12" fill="#000000" stroke="none" dy="0em">3</text>
</g>
<g>
<circle cx="0.0" cy="610.0" r="1" fill="black" />
<text x="2.0" y="608.0" font-size="12" fill="#000000" stroke="none" dy="0em">4</text>
</g>
<g>
<circle cx="-93.33333333333333" cy="280.0" r="1" fill="black" />
<text x="-91.33333333333333" y="278.0" font-size="12" fill="#000000" stroke="none" dy="0em">5</text>
</g>
<g>
<circle cx="-93.33333333333333" cy="206.0" r="1" fill="black" />
<text x="-91.33333333333333" y="204.0" font-size="12" fill="#000000" stroke="none" dy="0em">6</text>
</g>
<g>
<circle cx="-93.33333333333333" cy="0" r="1" fill="black" />
<text x="-91.33333333333333" y="-2" font-size="12" fill="#000000" stroke="none" dy="0em">7</text>
</g>
<g>
<circle cx="146.66666666666669" cy="206.0" r="1" fill="black" />
<text x="148.66666666666669" y="204.0" font-size="12" fill="#000000" stroke="none" dy="0em">8</text>
</g>
<g>
<circle cx="-157.08333333333331" cy="280.0" r="1" fill="black" />
<text x="-155.08333333333331" y="278.0" font-size="12" fill="#000000" stroke="none" dy="0em">9</text>
</g>
<g>
<circle cx="-83.33333333333333" cy="0" r="1" fill="black" />
<text x="-81.33333333333333" y="-2" font-size="12" fill="#000000" stroke="none" dy="0em">10</text>
</g>
<g>
<circle cx="109.16666666666667" cy="0" r="1" fill="black" />
<text x="111.16666666666667" y="-2" font-size="12" fill="#000000" stroke="none" dy="0em">11</text>
</g>
<g>
<circle cx="105.0" cy="1040.0" r="1" fill="black" />
<text x="107.0" y="1038.0" font-size="12" fill="#000000" stroke="none" dy="0em">12</text>
</g>
<g>
<circle cx="106.3" cy="610.0" r="1" fill="black" />
<text x="108.3" y="608.0" font-size="12" fill="#000000" stroke="none" dy="0em">13</text>
</g>
<g>
<circle cx="-105.0" cy="1040.0" r="1" fill="black" />
<text x="-103.0" y="1038.0" font-size="12" fill="#000000" stroke="none" dy="0em">14</text>
</g>
<g>
<circle cx="-106.3" cy="610.0" r="1" fill="black" />
<text x="-104.3" y="608.0" font-size="12" fill="#000000" stroke="none" dy="0em">15</text>
</g>
</g>
</svg>