<?xml version="1.0" encoding="UTF-8"?>
<svg xmlns="http://www.w3.org/2000/svg" xmlns:xlink="http://www.w3.org/1999/xlink"
     width="660.0" height="259.6053456856543" viewBox="-5.0 -254.6053456856543 660.0 259.6053456856543" stroke="black" fill="none">
<defs>
</defs>
<g>
<path d="M175.00000000000006,-111.60254037844383 L25.000000000000057,-198.2050807568877 L25.0,-25.0 L175.00000000000006,-111.60254037844383" />
</g>
<g>
<path d="M400.00000000000006,-111.6025403784439 L350.00000000000006,-198.20508075688775 L250.00000000000006,-198.20508075688778 L200.00000000000006,-111.60254037844392 L250.0,-25.00000000000007 L350.0,-25.0 L400.00000000000006,-111.6025403784439" />
</g>
<g>
<path d="M625.0,-124.80267284282715 L624.2114701314478,-137.33599619925758 L621.8583161128631,-149.67166155931264 L617.9776485888251,-161.61512811129495 L612.6306680043864,-172.97804025299868 L605.9016994374947,-183.58119807207447 L597.8968627421411,-193.25738343569603 L588.7423989748689,-201.8539971204061 L578.5826794978997,-209.23546539302868 L567.5779291565073,-215.28537808942912 L555.9016994374947,-219.9083244723425 L543.7381314585724,-223.031397915696 L531.2790519529314,-224.6053456856543 L518.7209480470686,-224.6053456856543 L506.26186854142753,-223.031397915696 L494.09830056250524,-219.90832447234249 L482.42207084349275,-215.28537808942912 L471.4173205021003,-209.23546539302865 L461.257601025131,-201.85399712040606 L452.10313725785886,-193.257383435696 L444.0983005625053,-183.58119807207447 L437.3693319956136,-172.97804025299868 L432.02235141117484,-161.61512811129492 L428.1416838871369,-149.67166155931264 L425.78852986855225,-137.33599619925755 L425.0,-124.80267284282712 L425.78852986855225,-112.26934948639672 L428.1416838871369,-99.93368412634165 L432.0223514111749,-87.99021757435932 L437.36933199561366,-76.62730543265562 L444.0983005625053,-66.02414761357981 L452.10313725785886,-56.34796224995827 L461.25760102513107,-47.75134856524821 L471.4173205021004,-40.36988029262562 L482.4220708434928,-34.31996759622517 L494.09830056250524,-29.6970212133118 L506.26186854142753,-26.57394776995828 L518.7209480470686,-25.0 L531.2790519529314,-25.0 L543.7381314585725,-26.573947769958295 L555.9016994374947,-29.697021213311785 L567.5779291565073,-34.3199675962252 L578.5826794978997,-40.36988029262565 L588.742398974869,-47.75134856524825 L597.8968627421411,-56.34796224995833 L605.9016994374948,-66.02414761357988 L612.6306680043864,-76.62730543265562 L617.9776485888251,-87.99021757435936 L621.8583161128631,-99.9336841263417 L624.2114701314478,-112.26934948639678 L625.0,-124.80267284282715" />
</g>
</svg>