<?xml version="1.0" encoding="UTF-8"?>
<svg xmlns="http://www.w3.org/2000/svg" xmlns:xlink="http://www.w3.org/1999/xlink"
     width="369.87999999999994" height="1063.3" viewBox="-30 -1033.3 369.87999999999994 1063.3" stroke="black" fill="none">
<defs>
</defs>
<g>
<path d="M264.15999999999997,-1003.3 L264.15999999999997,-977.9 L261.62,-952.5 L261.62,-927.1 L259.08,-901.7 L256.53999999999996,-876.3000000000001 L248.92000000000002,-850.9000000000001 L241.29999999999998,-825.5000000000001 L231.14,-800.1000000000001 L220.97999999999996,-774.7000000000002 L210.82,-749.3000000000002 L208.27999999999997,-723.9000000000002 L210.82,-698.5000000000002 L215.89999999999998,-673.1000000000003 L220.97999999999996,-647.7000000000003 L233.67999999999998,-622.3000000000003 L246.37999999999997,-596.9000000000003 L259.08,-571.5000000000003 L271.78,-546.1000000000004 L281.94,-520.7000000000004 L292.09999999999997,-495.3000000000004 L297.17999999999995,-469.90000000000043 L297.17999999999995,-444.50000000000045 L299.72,-419.1000000000005 L299.72,-393.7000000000005 L299.72,-368.3000000000005 L302.26,-342.90000000000055 L304.79999999999995,-317.50000000000057 L304.79999999999995,-292.1000000000006 L304.79999999999995,-266.7000000000006 L304.79999999999995,-241.3000000000006 L304.79999999999995,-215.9000000000006 L304.79999999999995,-190.5000000000006 L304.79999999999995,-165.1000000000006 L307.34,-139.70000000000059 L307.34,-114.30000000000058 L309.87999999999994,-88.90000000000057 L309.87999999999994,-63.500000000000576 L309.87999999999994,-38.10000000000058 L309.87999999999994,-12.700000000000578 L309.87999999999994,0 L0,0 L0,-1003.3 L264.15999999999997,-1003.3" />
</g>
<g>
<path d="M239.15999999999997,-1003.3 L239.1599999999998,-979.1468905280252 L236.6199999999994,-953.7468905280169 L236.6200000000008,-928.3468905280114 L234.20407024474807,-904.1875929755041 L231.90334955693444,-881.1803860973687 L224.97434286946716,-858.0836971391461 L217.6744070179067,-833.7505776339462 L207.92808272785948,-809.3847669088289 L197.7680827278671,-783.9847669088515 L186.29568927481574,-755.3037832762187 L183.15531094719748,-723.8999999999941 L186.06571946236164,-694.7959148483632 L191.38548310772757,-668.1970966215458 L197.12207053255872,-639.5141594973843 L211.31932022500274,-611.1196601125004 L224.01932022499642,-585.7196601125121 L236.71932022500354,-560.3196601124979 L248.95427869663018,-535.8497431692458 L258.728082727869,-511.415233091148 L268.0356288997452,-488.1463676614547 L272.17999999999773,-467.4245121601902 L272.18000000000035,-443.25310947197147 L274.7200000000003,-417.8531094719779 L274.7200000000005,-393.70000000001164 L274.7199999999999,-367.0531094719815 L277.3840702447495,-340.4124070244834 L279.7999999999993,-316.2531094719797 L279.8000000000002,-292.1000000000058 L279.7999999999996,-266.6999999999971 L279.79999999999984,-241.29999999998836 L279.8000000000002,-215.90000000000876 L279.79999999999984,-190.5 L279.8000000000001,-163.85310947197587 L282.3400000000001,-138.453109471975 L282.34,-113.05310947198006 L284.87999999999994,-87.65310947197918 L284.87999999999994,-63.5 L284.88,-38.100000000000364 L284.87999999999994,-12.700000000000728 L284.87999999999994,-24.99999999999979 L25.000000000000007,-25.0 L25.000000000000004,-978.2999999999997 L264.15999999999997,-978.3" />
</g>
</svg>